/* XPM */
static const char *buttonDragLocked[] = {
/* columns rows colors chars-per-pixel */
"48 48 78 1 ",
"  c black",
". c #353535",
"X c gray22",
"o c #3A3A3A",
"O c #3F3F3F",
"+ c #414141",
"@ c gray27",
"# c gray28",
"$ c #484848",
"% c #494949",
"& c #4C4C4C",
"* c #505050",
"= c #565656",
"- c gray35",
"; c gray37",
": c gray38",
"> c gray40",
", c #686868",
"< c #6C6C6C",
"1 c gray45",
"2 c #747474",
"3 c gray47",
"4 c gray49",
"5 c red",
"6 c #FE0505",
"7 c #F60F0F",
"8 c #FC1515",
"9 c #FF1919",
"0 c #F94444",
"q c #ED6F6F",
"w c #FC7171",
"e c #FD7A7A",
"r c gray51",
"t c #868686",
"y c #888888",
"u c gray55",
"i c #929292",
"p c #959595",
"a c #9A9A9A",
"s c #9F9F9F",
"d c #A2A2A2",
"f c #A7A7A7",
"g c #A9A9A9",
"h c #ACACAC",
"j c #B1B1B1",
"k c #B7B7B7",
"l c gray72",
"z c gray75",
"x c #FC8181",
"c c #FE8484",
"v c #FE8888",
"b c #FF9F9F",
"n c #FFADAD",
"m c #FFB1B1",
"M c #FFB9B9",
"N c #C3C3C3",
"B c gray77",
"V c #CBCBCB",
"C c gray81",
"Z c LightGray",
"A c gray84",
"S c gray86",
"D c #DFDFDF",
"F c #FFC1C1",
"G c #FEC6C6",
"H c #FECBCB",
"J c #FFD8D8",
"K c gray88",
"L c gray90",
"P c #EAEAEA",
"I c #ECECEC",
"U c #FFEBEB",
"Y c #F1F1F1",
"T c #F4F4F4",
"R c #FFF1F1",
"E c #FFF6F6",
"W c #FBFBFB",
"Q c gray100",
/* pixels */
">>>>>>>>>>>>>>>>>>>>>>>>>>>>>>>>>>;=->>>>>>>>>>>",
">>>>>>>>>>>>>>>>>>:=&+OooO+&-:>>>;...O>>>>>>>>>>",
">>>>>>>>>>>>>>>>%..............%:o.r:.@>>>>>>>>>",
">>>>>>>>>>>>>>>%..%1dNSLLSBd2%..o.3TA&.+>>>>>>>>",
">>>>>>>>>>>>>@...>hAIWQQQQWPAh:..3YQQZ&.+>>>>>>>",
">>>>>>>>>>>>@.o:BYQQQQQQQQQQQQ4.3YQQQQZ=.%>>>>>>",
">>>>>>>>>>>+.+aTQQQQQQYLLYQQQW.OSQSWPLQj..>>>>>>",
">>>>>>>>>>O.-NQQUe8qWQ4>>4QWa2.oKN:TZ>YB.@*->>>>",
">>>>>>>>>+.;AQQM5557WY:>>>I:...@d+,QDo1go...%>>>",
">>>>>>>>@.=ZQQv55556QV>>>:=.-jlio.iQP%.,lkio.@>>",
">>>>>>>%.@zQQFFFc950Qd>>>O.;DQL>..yQP@.odQQdo.%>",
">>>>>>>..iQQEQQQQU9wQ<>>O.-DQA=O@+3QK&+OOiQQfo.+",
">>>>>>%.;YQJQgOOgQcbY:>-.,DQQDNAKSKQWAAACVYQQj=.",
">>>>>%.olQUFQO  +QGQA:>*.pQQQWQQQQQQQQQQQWQQQP4.",
">>>>>..>QQcFQO  OQHQa:,-.OsQQz:4suhQIiyt,tYQD;o.",
">>>>>.ojQM5cQgOOgQbQ<>>>@..dQQa...3QK+..*ZQK;..%",
">>>>:.&KQe59UQQQQUxQ>>>>>%.osDKto.3QK+.-VKZ;.O:>",
">>>>=.3WU5559cFFc9nQ>>>>>>%..+@*f@>QDo3k&@o.O>>>",
">>>>&.dQm555555555MP:>>>>>>=:..oLV<TZ2YB...O>>>>",
">>>>+.BQU555555555RWACZZZZCZII.oAQLWYYQh...+>>>>",
">>>>O.DQQUFGGGGGHRQQQQQQQQQQQQt.<YQQQQC&.3.O>>>>",
">>>>o.IQQQQQQQQQQQQQQQQQQQQQQQT*.<IQQC&.1T..>>>>",
">>>>..WQP,@%%@@%@@%@@%@%@%@%%@%@..1IC%.<QQ..>>>>",
">>>>..QQL=.........................r:.+LQQ..>>>>",
">>>>..QQL-.;:::::::;1lIWWIl1:::::-....-LQQ..>>>>",
">>>>o.TQP:.->>>>>>>1AQSlkSQA1>>>>>:=*.>PQW..>>>>",
">>>>o.PQI3.=>>>>>>>zQl2112lQz>>>>>>>-.<IQI.o>>>>",
">>>>O.AQWa.@>>>>>>1YP1>>>>1PT1>>>>>>=.1YQS.O>>>>",
">>>>@.lQQBO.>>>>>>,QC:>>>>>CQ<>>>>>>@.iTQl.@>>>>",
">>>>&.iQQI1.=>>>>>uQStyyyttSWu>>>>>;.OVQQp.&>>>>",
">>>>-.,WQWd.%>>>>>AQYDDDDDSTQA>>>>>*.4YQW<.->>>>",
">>>>:.@ZQQNO.:>>>,TQQQQQQQQQQT>>>>>O.kQQA%.:>>>>",
">>>>>.opQQL>.@>>>>IQQQQQQQQQQP>>>>@.:KQQao.>>>>>",
">>>>>@.=IQQzO.;>>>IQQQQQQQQQQI>>>;.OzQQY-.%>>>>>",
">>>>>>..sQQTy.o>>>IQQQQQQQQQQP>>>O.uTQQdo.>>>:>>",
">&.&>>%.&KQQI<.O:>IQQQQQQQQQQI>:o.<PQQK*.@>>&.&>",
">o..%>>..3QQQD,.o=IQQQQQQQQQQI=..,DQQQ4..>>%..o>",
">....%>%.ofQQQK3..PQWWWWWWWQQL..3KQQQgo.%,%....>",
">..d..%>%.%zQQQId@.o%->>>-*@..OdYQQQN%.%>%..d..>",
">..QCACt>@.&NQQQWS<...oo....O1AWQQQN&.@>tCAVQ..>",
">..QgOOgt>@.@gQQQQIAp@..o;ukLIQQQQg%.@>ygOOgQ..>",
">..Q+  OC%:@.OyLQQQQWYIPPYWQQQQQPyO.@:%CO  OQ..>",
">..QO  OK.%;%.o*fLQQQQQQQQQQQQLg*o.@;%.KO  +Q..>",
">..QgO+gYy.%;%..o*aVKTQQQQYLVa=...%;%.yYg+OgQ..>",
">..QQQQQQTy..->%..+:ijVAAVji:+..%>-..yTQQQQQQ..>",
">............@>>>@.............%>>@............>",
">%..........@->>>>>-*%+OO+@*->>>>>-@..........%>",
">>>>>>>>>>>>>>>>>>>>>>>>>>>>>>>>>>>,>>>>>>>>>>>>"
};
