/* XPM */
static const char *buttonLeft[] = {
/* columns rows colors chars-per-pixel */
"48 48 82 1 ",
"  c black",
". c #353535",
"X c #3A3A3A",
"o c #3F3F3F",
"O c #414141",
"+ c #434343",
"@ c gray27",
"# c gray28",
"$ c #494949",
"% c #4B4B4B",
"& c #4C4C4C",
"* c #505050",
"= c #565656",
"- c gray34",
"; c gray35",
": c gray37",
"> c gray38",
", c gray39",
"< c gray40",
"1 c gray42",
"2 c gray43",
"3 c gray45",
"4 c #747474",
"5 c #797979",
"6 c gray49",
"7 c red",
"8 c #FE0505",
"9 c #F60F0F",
"0 c #FC1515",
"q c #FF1919",
"w c #F94444",
"e c #ED6F6F",
"r c #FC7171",
"t c #FD7A7A",
"y c gray51",
"u c #898989",
"i c #8D8D8D",
"p c #929292",
"a c gray59",
"s c #9A9A9A",
"d c #9D9D9D",
"f c #A2A2A2",
"g c gray64",
"h c #A4A4A4",
"j c #A9A9A9",
"k c #AEAEAE",
"l c #B1B1B1",
"z c gray71",
"x c gray72",
"c c gray75",
"v c #FE8484",
"b c #FE8888",
"n c #FF9F9F",
"m c #FCA0A0",
"M c #FFADAD",
"N c #FFB1B1",
"B c #FEBABA",
"V c #C3C3C3",
"C c gray77",
"Z c #CBCBCB",
"A c gray80",
"S c LightGray",
"D c gray84",
"F c #D7D7D7",
"G c gray86",
"H c gray87",
"J c #FFC1C1",
"K c #FEC6C6",
"L c #FECBCB",
"P c #FFD8D8",
"I c gray89",
"U c gray90",
"Y c #EAEAEA",
"T c #ECECEC",
"R c #FFEBEB",
"E c gray94",
"W c #F4F4F4",
"Q c #FFF1F1",
"! c #FFF6F6",
"~ c #F9F9F9",
"^ c gray99",
"/ c gray100",
/* pixels */
"<<<<<<<<<<<<<<<<<<<<<<<<<<<<<<<<<<<<<<<<<<<<<<<<",
"<<<<<<<<<<<<<<<<<<>=&OoXXoO&;><<<<<<<<<<<<<<<<<<",
"<<<<<<<<<<<<<<<<$..............$<<<<<<<<<<<<<<<<",
"<<<<<<<<<<<<<<<$..$3fVGUUGCf4$..$<<<<<<<<<<<<<<<",
"<<<<<<<<<<<<<@...<kDT//////TDk<...$<<<<<<<<<<<<<",
"<<<<<<<<<<<<@.X>VE~///////////WC<X.@<<<<<<<<<<<<",
"<<<<<<<<<<<O.OsW//////TUUE//////WdO.O<<<<<<<<<<<",
"<<<<<<<<<<o.;V//Rv0e~/6<<6/WGH////C;.o<<<<<<<<<<",
"<<<<<<<<<O.:D//B7779~E<<<>E~d>aI///D>.O<<<<<<<<<",
"<<<<<<<<@.=S//b77778/A><<<A/A<<1c///D=.@<<<<<<<<",
"<<<<<<<$.@c//JJJvq7w/h<<<>h/Y1<<>f///c@.$<<<<<<<",
"<<<<<<<..p//!////Rqr/2<<<<2/W5<<<<h///a..<<<<<<<",
"<<<<<<$.:E/P/jooj/vnE><<<<>E/a><<<>x//E:.@<<<<<<",
"<<<<<$.Xx/RJ/o  o/K/D><<<<>S/S><<<<1Y//xX.$<<<<<",
"<<<<<..<//vJ/o  o/L/s><<<<>a/I<<<<<<y~//1..<<<<<",
"<<<<<.Xl/B7v/jooj/m/2<<<<<<1/Y1<<<<<<j//lX.<<<<<",
"<<<<>.&I/t7qR////Rv/<<<<<<<>E~6<<<<<<5W/I*.:<<<<",
"<<<<=.5~R777qvJJvqM/<<<<<<<>U/j<<<<<<<G//5.=<<<<",
"<<<<&.f/N777777777BY<<<<<<<<z/z<1<<<<<i//f.$<<<<",
"<<<<O.C/R777777777Q~DASSSSZDT/TcxxxxxxG//Z.O<<<<",
"<<<<o.H//RJKKKKJLQ///////////////////////I.o<<<<",
"<<<<X.T//////////////////////////////////E..<<<<",
"<<<<..~/U1@$@$$@@@$@@$@$@$@$$@@$@$$@@$2T//..<<<<",
"<<<<..//U=............................;U//..<<<<",
"<<<<..//U;.:>>>>>>>>>>>>>>>>>>>>>>>>:.;U//..<<<<",
"<<<<X.W/Y<.;<<<<<<<<<<<<<<<<<<<<<<<<;.<T/~..<<<<",
"<<<<X.Y/T4.;<<<<<<<<<<<<<<<<<<<<<<<<;.2T/T.X<<<<",
"<<<<o.D/~s.@<<<<<<<<<<<<<<<<<<<<<<<<=.3T/G.o<<<<",
"<<<<@.x//Co.><<<<<<<<<<<<<<<<<<<<<<<@.pW/x.@<<<<",
"<<<<&.p//T3.;<<<<<<<<<<<<<<<<<<<<<<>.oZ//a.&<<<<",
"<<<<;.1~/~f.$<<<<<<<<<<<<<<<<<<<<<<*.6E/~2.;<<<<",
"<<<<>.@S//Vo.><<<<<<<<<<<<<<<<<<<<<o.z//D$.><<<<",
"<<<<<..s//U<.@<<<<<<<<<<<<<<<<<<<<@.>I//sX.<<<<<",
"<<<<<$.=T//co.:<<<<<<<<<<<<<<<<<<:.oc//E;.$<<<<<",
"<<<<<<..d//Wu.X<<<<<<<<<<<<<<<<<>o.uW//fX.<<<<<<",
"<<<<<<$.*H//Y2.o><<<<<<<<<<<<<<>o.2Y//I*.@<<<<<<",
"<<<<<<<..5///H1.X=<<<<<<<<<<<<=X.<H///6..<<<<<<<",
"<<<<<<<$.Xj///I5..@><<<<<<<1>@..5I///jX.@<<<<<<<",
"<<<<<<<<$.$c///Tf@.X$;<<<:&@..OfT///V$.$<<<<<<<<",
"<<<<<<<<<@.&c///~G2...XX....o4D~///V&.@<<<<<<<<<",
"<<<<<<<<<<O.@j////TDa@..X:izUT////k$.O<<<<<<<<<<",
"<<<<<<<<<<<@.ouY////~ETYTE~/////YuX.@<<<<<<<<<<<",
"<<<<<<<<<<<<$..*jU////////////Uj*X.$<<<<<<<<<<<<",
"<<<<<<<<<<<<<$...=aZUE////EUZs=X..$<<<<<<<<<<<<<",
"<<<<<<<<<<<<<<<$..O>plZDDZlp>o..$<<<<<<<<<<<<<<<",
"<<<<<<<<<<<<<<<<<@.............$<<<<<<<<<<<<<<<<",
"<<<<<<<<<<<<<<<<<<<;*$OoOO@*;<<<<<<<<<<<<<<<<<<<",
"<<<<<<<<<<<<<<<<<<<<<<<<<<<<<<<<<<<<<<<<<<<<<<<<"
};
