/* XPM */
static const char *buttonMiddleDisabled[] = {
/* columns rows colors chars-per-pixel */
"48 48 28 1 ",
"  c black",
". c #1B1B1B",
"X c #1D1D1D",
"o c #222222",
"O c gray14",
"+ c gray16",
"@ c gray18",
"# c #313131",
"$ c #343434",
"% c #3A3A3A",
"& c #3F3F3F",
"* c #414141",
"= c gray27",
"- c #494949",
"; c gray30",
": c #535353",
"> c #555555",
", c gray35",
"< c gray36",
"1 c #626262",
"2 c gray40",
"3 c gray42",
"4 c #6D6D6D",
"5 c #727272",
"6 c #777777",
"7 c gray47",
"8 c #7E7E7E",
"9 c #808080",
/* pixels */
"222222222222222222222222222222222222222222222222",
"222222222222222221,=#OoXXoO#=,222222222222222222",
"2222222222222222@.......XX.....@2222222222222222",
"222222222222222@.XO%:146541:%O..@222222222222222",
"2222222222222@.X.#>4689999874,#X..@2222222222222",
"222222222222+.X#1799999899998971#X.+222222222222",
"22222222222O.o;7999898,**,9889997:o.O22222222222",
"2222222222o.+199995482**&*284599981@.o2222222222",
"222222222O.@39985;#;8:***&:8;#;58994#.o222222222",
"22222222+.+39981$$$29*&*&**82#$$18994+.+22222222",
"2222222@.o1999:##$$66=1451=66$$##:9991o.@2222222",
"2222221.X-999>#$#$%8189889817&$$$#>999-X.1222222",
"222222@.@799<#$#$$-928>oX>829-$#$$#<997#.@222222",
"22222@.X<995$$$#$#3959o  o8593#$#$$$699<X.@22222",
"22222..$899=$$$$$#5558o  o9555#$#$$$*898$..22222",
"22221.X,98,#$##$##6<18>Xo>91,6$$$$###>89,X.12222",
"2222>.O598*#$##$$&7>=799997=;8*##$$$#&895+.>2222",
"2222*.&895$$$$$$$:9>*=1551=*-9>$$$#$#$498&.*2222",
"2222#X:99:$$#$$##,9=***&&&*&*8,$$$$#$$-88:.@2222",
"2222OX1995<<<<<<<69<**&*&*&*>961<<<<<<4882XO2222",
"2222o.499999999999999999999999999999999995.o2222",
"2222X.799999999999999999999999999999999997.X2222",
"2222..896$OOOOOOOOOOOOOOOOOOOOOOOOOOOO$699..2222",
"2222..995+.....XXX...................X@599..2222",
"2222X.895+X:,,,,<,,,,,,,,,,,<,,<,<,,:X@598..2222",
"2222X.896@.;222222222232222222222222-.#698..2222",
"2222X.686&X*222222222222222222222222-.$796.X2222",
"2222o.388;.+222222222222222222222222=.%794.o2222",
"2222+.,991o.<22222222222222222222222+.-89<X+2222",
"2222%.-996%.=2222222222222222222222>.o199-X$2222",
"2222-.$898:.@2222222222222222222222%.&798%.=2222",
"2222<.o3981XX1222222222222222222222oX,883OX,2222",
"22221.X;995$.+22222222222222222222+.#599:..22222",
"22222@.+699<XX:222222222222222222:XX<997@.@22222",
"222221..;898=XX122222222222222221X.=889;..122222",
"222222@.+5996$.o,22222222222222,oX$6995+.@222222",
"2222222.X&9995#.X=222222222222=X.$5899&X.1222222",
"2222222@.X>9995&..+122222222<+..&5999>XX@2222222",
"22222222@.O<9986:oXX#-221;%+X.o;69981O.+22222222",
"222222222O.O199984$..XXX....o%388891+.+222222222",
"2222222222OXO>999974-o..X#=<579999>OXO2222222222",
"22222222222+.X=699998766678999996=X.+22222222222",
"222222222222+..+>58999999999995>+X.+222222222222",
"2222222222222@..X+;2579998752;+..X@2222222222222",
"222222222222222@..X#-,2332,-#o..@222222222222222",
"22222222222222222+X....X...X.X.@2222222222222222",
"2222222222222222221;%+OooO+%;<222222222222222222",
"222222222222222222222222222222222222222222222222"
};
