/* XPM */
static const char *buttonRightLocked[] = {
/* columns rows colors chars-per-pixel */
"48 48 82 1 ",
"  c black",
". c #353535",
"X c #3A3A3A",
"o c #3F3F3F",
"O c #414141",
"+ c gray27",
"@ c gray28",
"# c #494949",
"$ c #4C4C4C",
"% c gray32",
"& c #565656",
"* c gray35",
"= c gray37",
"- c #5F5F5F",
"; c #626262",
": c gray39",
"> c gray40",
", c DimGray",
"< c #6D6D6D",
"1 c #727272",
"2 c #747474",
"3 c gray47",
"4 c #7C7C7C",
"5 c red",
"6 c #FE0505",
"7 c #F60D0D",
"8 c #FC1313",
"9 c #FF1919",
"0 c #F94242",
"q c #ED6D6D",
"w c #FC6F6F",
"e c #FC7676",
"r c #FE7E7E",
"t c gray53",
"y c #898989",
"u c gray55",
"i c #929292",
"p c gray59",
"a c #989898",
"s c #9D9D9D",
"d c gray63",
"f c gray64",
"g c #A5A5A5",
"h c gray66",
"j c #AEAEAE",
"k c #B1B1B1",
"l c gray71",
"z c gray72",
"x c gray75",
"c c #FF8484",
"v c #FC8888",
"b c #FD9191",
"n c #FCA3A3",
"m c #FFB7B7",
"M c #FFBBBB",
"N c gray76",
"B c gray77",
"V c #CBCBCB",
"C c gray80",
"Z c LightGray",
"A c #D5D5D5",
"S c gray86",
"D c gray87",
"F c #FFC1C1",
"G c #FFC3C3",
"H c #FFCBCB",
"J c #FECCCC",
"K c #FFD8D8",
"L c gray88",
"P c #E4E4E4",
"I c gray92",
"U c #EEEEEE",
"Y c #FFE3E3",
"T c #FFE9E9",
"R c #FFECEC",
"E c #F1F1F1",
"W c #F3F3F3",
"Q c gray96",
"! c #FFF3F3",
"~ c #FFF6F6",
"^ c #FBFBFB",
"/ c gray100",
/* pixels */
">>>>>>>>>>>>>>>>>>>>>>>>>>>>>>>>>>>>>>>>>>>>>>>>",
">>>>>>>>>>>>>>>>>>;&$OoXXo+#&;>>>>>>>>>>>>>>>>>>",
">>>>>>>>>>>>>>>>#..............#>>>>>>>>>>>>>>>>",
">>>>>>>>>>>>>>>#.X+1dNDPPDNg1#..#>>>>>>>>>>>>>>>",
">>>>>>>>>>>>>+...>jAI^////^ISj>X..+>>>>>>>>>>>>>",
">>>>>>>>>>>>+.X;NE///////////^EN>X.+>>>>>>>>>>>>",
">>>>>>>>>>>O.OaE//////EPPE//////QsO.O>>>>>>>>>>>",
">>>>>>>>>>o.*B////DS^/4>>4/^q8rT//B*.o>>>>>>>>>>",
">>>>>>>>>O.=A///Lp;s^E;>>>E^7555M//A;.O>>>>>>>>>",
">>>>>>>>+.&Z///x,>>C/C;>>;C/65555v//A&.+>>>>>>>>",
">>>>>>>#.+x///g;>>,I/g>>>>d/059cGMG//N+.+>>>>>>>",
">>>>>>>..i///h;>>>3^/<>>>></w9T////~//p..>>>>>>>",
">>>>>>#.=E//x;>>>>p/E;>>>>;Enc/hooh/K/E;.#>>>>>>",
">>>>>#.Xz//P>>>>>>C/Z;>>>>;Z/G/O  O/GR/zX.#>>>>>",
">>>>>..>//^y>>>>>;L/a>>>>>>p/J/o  o/Me/^,..>>>>>",
">>>>>.Xk//j;>>>>>>I/,>>>>>>,/n/hoOh/c5m/lX.>>>>>",
">>>>;.$L/^4>>>>>>3^/>>>>>>>;QvT////T95e/L%.=>>>>",
">>>>&.3^/P,>>>>>>d//>>>>>>>;Dm9cGGc9555Y/3.&>>>>",
">>>>$.d//g,>>>>>>j/I;>>>>>>>lG555555555b/d.#>>>>",
">>>>O.B//LzzzzzzzI/^SCZZCZZZU!555555555Y/C.O>>>>",
">>>>o.D///////////////////////!HGGGGGGY//L.o>>>>",
">>>>X.U//////////////////////////////////E..>>>>",
">>>>..^/I>+##++++#+#+#+#+#+##++#+##++#1I//..>>>>",
">>>>..//P&............................*P//..>>>>",
">>>>..//P*.=;;;;;;=;1zU^^Ux1=;;;;;=;=.*P//..>>>>",
">>>>X.Q/I;.*>>>>>>>1A/SzlS/A1>>>>>>>*.>I/^..>>>>",
">>>>X.I/U2.&>>>>>>>x/z2112z/x>>>>>>>*.<U/U.X>>>>",
">>>>o.A/^a.+>>>>>>1EI1>>>>1IE1>>>>>>&.1U/A.o>>>>",
">>>>+.z//Bo.>>>>>>,/V,>>>>>V/<>>>>>>+.uQ/z.+>>>>",
">>>>$.i//U1.&>>>>>u/AtytyttS/y>>>>>;.OV//p.%>>>>",
">>>>*.,^//d.#>>>>>A/QDDDDDSQ/A>>>>>%.4E/^<.&>>>>",
">>>>;.+Z//BX.>>>>>Q//////////Q>>>>>o.l//A#.;>>>>",
">>>>>.Xp//P>.+>>>>I//////////I>>>>+.;L//aX.>>>>>",
">>>>>+.&U//xo.=>>>U//////////I>>>=.ox//E*.+>>>>>",
">>;>>>..s//Qy.X>>>U//////////I>>;o.yQ//sX.>>>;>>",
">$.$>>#.$L//I<.o;>U//////////I>;o.<I//L%.#>>$.$>",
">X..$>>.X2///D,..*U//////////U&X.>D///4X.>>#..X>",
">....#>#.og///L3..I^^^^^^^^^/P..4D///hX.#,#....>",
">..d..#>+.#x///Ud+.X#*>>>*%+..odU///N#.#>#..g..>",
">../VSCt>+.$N///^S<...XX....o1A^///N%.O>tCAV/..>",
">../hoOhy>+.+g////UAp+..X=ulPU////h#.O>yhOoh/..>",
">../O  oC#;+.oyI////^EIIIE^/////Iyo.+;#Co  o/..>",
">../o  oL.#=+..%gP////////////Ph%..#;#.Lo  O/..>",
">../hoohEy.#=#...&pVLQ////QPCa&...#*#.yEhOoh/..>",
">..//////^y..*>#..o;ikVAAVki;O..#>*..yQ//////..>",
">............+>>>+.............#>>+............>",
">#..........+*>>>>>=%+OooO+%*>>>>>=+..........#>",
">>>>>>>>>>>>>>>>>>>>>>>>>>>>>>>>>>>>>>>>>>>>>>>>"
};
