/* XPM */
static const char *buttonMiddleSelectedLocked[] = {
/* columns rows colors chars-per-pixel */
"48 48 81 1 ",
"  c black",
". c #353535",
"X c #3D3D3D",
"o c #444444",
"O c #4A4A4A",
"+ c #545454",
"@ c #5B5B5B",
"# c #666666",
"$ c #6A6A6A",
"% c #747474",
"& c #7B7B7B",
"* c #FF0000",
"= c #FB1212",
"- c #FF1919",
"; c #FA2222",
": c #FD3636",
"> c #FB4B4B",
", c #FF5252",
"< c #FF5858",
"1 c #FC6565",
"2 c #FB6B6B",
"3 c #FC7D7D",
"4 c #3B3BBF",
"5 c #4040BE",
"6 c #5454BA",
"7 c #5858BA",
"8 c #6565B9",
"9 c #6868B9",
"0 c #7A7AB9",
"q c #1E1ECE",
"w c #1616D6",
"e c #1A1AD3",
"r c #1313DA",
"t c #2D2DC6",
"y c #2424CB",
"u c #3333C3",
"i c #0707ED",
"p c #0909E9",
"a c #0404F2",
"s c #0000FF",
"d c #0A0AFF",
"f c #1313FF",
"g c #1B1BFF",
"h c #3737FF",
"j c #3A3AFF",
"k c #868686",
"l c #898989",
"z c #949494",
"x c #9B9B9B",
"c c #A4A4A4",
"v c #ABABAB",
"b c #A1A1BD",
"n c #B4B4B4",
"m c #BBBBBB",
"M c #FF8484",
"N c #FF9C9C",
"B c #AFAFC0",
"V c #8B8BFF",
"C c #9292FF",
"Z c #ADADFF",
"A c #BDBDFF",
"S c #C3C3C3",
"D c #CCCCCC",
"F c #D5D5D5",
"G c #DCDCDC",
"H c #FFC2C2",
"J c #FFCDCD",
"K c #FFD0D0",
"L c #FFDEDE",
"P c #C3C3FF",
"I c #C8C8FF",
"U c #DDDDFF",
"Y c #E3E3E3",
"T c #ECECEC",
"R c #FFEBEB",
"E c #E3E3FF",
"W c #EEEEFF",
"Q c #F4F4F4",
"! c #FFF3F3",
"~ c #F3F3FF",
"^ c #FEFEFF",
/* pixels */
"################################################",
"###################@OoXXXXoO+#################$#",
"################O..............O################",
"###############O..O%cSGYYGSc%O..O###############",
"$############o...#vFT^^^^^^TFv$...O#############",
"############o..#SQ^^^^^^^^^^^^QS#..o############",
"###########X.oxQ^^^^^^2**2^^^^^^QcX.X########$##",
"##########X.@S^^^^GG^N****N^GG^^^^S@.o##########",
"#########o.@F^^^Yz#x^>****>^z#zY^^^F#.o#########",
"########o.+F^^^m$##D^=****=^D###m^^^F+.o######$#",
"#######O.om^^^c###$TL-MHHM;LT####c^^^So.O#######",
"#######..z^^^c####&QMR^^^^RM^&####c^^^z.X#######",
"$#####o.@Q^^m#####z^N^voov^N^z#####m^^Q@.O######",
"#####O.Xm^^Y######D^H^X  X^H^D######T^^mX.O#####",
"#####..#^^^k######YKH^X  X^HJY######kQ^^#..#####",
"#####XXn^^v######$T2M^voXv^M1T#######v^^nX.#####",
"####@.OY^^&######&Q<-R^^^^R-:^&######&^^Y+.@####",
"####+.&^^Y#######c^,*-MHHM-*;^v#######F^^%.+####",
"####O.c^^c######$v^=*********!n#######l^^c.O####",
"####o.S^^YnmmmmmmT^3=*******1^TSmmmmmmG^^S.o####",
"####X.G^^^^^^^^^^^^^^^^^^^^^^^^^^^^^^^^^^Y.X####",
"####..Q^^^^^^^^^^^^^^^^^^^^^^^^^^^^^^^^^^Q..####",
"####..^^TypppppppppppppppppppppppppppptT^^..####",
"####..^^YrssssssssssssssssssssssssssssrY^^..####",
"####X.^^YwssssssssssgCEW~ECgsssssssssswT^^..####",
"####..Q^TqsssssssssfA^PVVP^AfsssssssssyT^^..####",
"####X.T^TusssssssssC^VgffgV^CssssssssstT^T.X####",
"#$##X.F^^9ssssssssfEUfssssfUWfsssssssstT^F.o####",
"####o.m^^Sasssssssf^ZssssssZ^dssssssss7Q^m.o####",
"####+.z^^Tusssssssj^AjjjjjhP^jsssssssiD^^z.+####",
"####@.#Q^^0sssssssA^WIIIPIPW^Asssssss5Q^^$.+####",
"#####.oF^^SassssssW^^^^^^^^^^Wsssssssb^^Fo.#####",
"#####..x^^YyssssssE^^^^^^^^^^UssssssyY^^x..#####",
"#####O.+T^^BasssssE^^^^^^^^^^UsssssaB^^Q@.O#####",
"######..x^^Q6sssssE^^^^^^^^^^Usssss6Q^^x..######",
"#O.O##O.+G^^TtssssE^^^^^^^^^^UsssstT^^Y+.O##O.O#",
"#X..O##..%^^^YysssE^^^^^^^^^^EsssyG^^^&..##O..X#",
"#....O#O.Xv^^^Y4ssE^~^~^~^~^^Uss4Y^^^vX.O#O....#",
"#..c..O#O.Om^^^T0issssssssssssa0T^^^SO.o#O..c..#",
"#..^DFDk#o.OS^^^QGtsssssssssauF^^^^S+.o#kDFD^..#",
"#..^vXovl#o.ov^^^^TG8issae7bTT^^^^vO.o#lvXXv^..#",
"#..^X  XDO@o.XkT^^^^^TTTTQQ^^^^^YzX.o#ODX  X^..#",
"#..^o  XY.O#o..+vY^^^^^^^^^^^^Yv+..o@O.Yo  o^..#",
"#..^vXXvQk.o@O...+zDYQ^^^^QYDx+...O@o.kQvXXv^..#",
"#..^^^^^^^l..@#O..X#zmDFFDnz#X..O#@..lQ^^^^^^..#",
"#............o###O.............O##o............#",
"#O..........o@#####@OooXXXo+@#####@o..........O#",
"################################################"
};
