/* XPM */
static const char *buttonDblLeft[] = {
/* columns rows colors chars-per-pixel */
"48 48 89 1 ",
"  c black",
". c #191919",
"X c #353535",
"o c #373737",
"O c gray23",
"+ c #3F3F3F",
"@ c gray25",
"# c gray27",
"$ c #484848",
"% c #4E4E4E",
"& c gray32",
"* c #565656",
"= c #585858",
"- c #5F5F5F",
"; c gray38",
": c gray40",
"> c #686868",
", c gray42",
"< c #6D6D6D",
"1 c #727272",
"2 c gray45",
"3 c #747474",
"4 c #797979",
"5 c #7C7C7C",
"6 c red",
"7 c #FF0606",
"8 c #F60F0F",
"9 c #FC1515",
"0 c #FF1C1C",
"q c #FA2B2B",
"w c #F93A3A",
"e c #F94444",
"r c #FF4A4A",
"t c #FF4E4E",
"y c #FF5252",
"u c #ED6F6F",
"i c #FC7171",
"p c #FF7C7C",
"a c gray51",
"s c gray52",
"d c #898989",
"f c gray56",
"g c gray57",
"h c gray59",
"j c #9B9B9B",
"k c gray62",
"l c #A2A2A2",
"z c #A4A4A4",
"x c #AAAAAA",
"c c #AEAEAE",
"v c gray70",
"b c #B4B4B4",
"n c gray72",
"m c gray75",
"M c #FF8282",
"N c #FF8484",
"B c #FF9191",
"V c #FD9999",
"C c #FF9F9F",
"Z c #FFA6A6",
"A c #FFADAD",
"S c #FFB1B1",
"D c #FFB9B9",
"F c #FFBBBB",
"G c #C3C3C3",
"H c gray78",
"J c #CBCBCB",
"K c #CDCDCD",
"L c gray82",
"P c gray84",
"I c gray86",
"U c #DFDFDF",
"Y c #FFC1C1",
"T c #FFC3C3",
"R c #FFC9C9",
"E c #FFCECE",
"W c gray88",
"Q c #E6E6E6",
"! c #EAEAEA",
"~ c #EEEEEE",
"^ c #FFE9E9",
"/ c #FFEBEB",
"( c gray94",
") c #F1F1F1",
"_ c gray97",
"` c #FFF1F1",
"' c #FBFBFB",
"] c #FFFBFB",
"[ c #FEFEFE",
/* pixels */
":::::::::::::::::::::::,::::::::::::::::::::::::",
":::::::::::5K)K1::;*%@@oo+#$*;::::::::::::::::::",
"::::::::::K[[[[K$XXXXXXXXXXXXXX$::::::::::::::::",
"::::::::1W[^Z9[)XX$1lGIQQUGl3#oX$:::::::::::::::",
":::::::1)[Ey67['o:cP~'[[[[[~Pc<XXX$:::::::::::::",
"::::::1~[S066r[PG)[[[[[[[[[[[[)G;oX#::::::::::::",
"::::::U[FBTTNM['[[[[[[)QQ)[[[[[['k@X@:::::::::::",
":::::K[E^[[[[][[^M9u'[5::5['IU[[[[G=X+::::::::::",
"::::s[^Z[x++x[[T6668')::::)'j;hW[[[I-X@:::::::::",
":::,![BT[@  @[]66667[K;::;K[K::<m[[[P*X#::::::::",
":::g[F0T[+  +[[N066e[z;:::z[!,::;l[[[G#X#:::::::",
":::K[p6N[x++x[[[^06i[<::::<[_4::,;z[[[hXX:::::::",
"::3[^t60^[[[[)&x[M6C):::::;)[h::::;m[[);X#,:::::",
"::h[S6660N`[l. +[T9[L;:::,;L[L;:::,:![[noX$:::::",
"::1[^TTTTT`[@  +[Tq[j;:::::h[W::::::a'[[<XX:::::",
":::K[[[[[[[[x++x[Nw[,::::::,[!::::::;x[[boX:::::",
"::::<:2Q[Vy^[[[[^0i[:::::::;''5::::::5'[W&X-::::",
"::::*X4[^660MTTN06A[:::::::;U[x:::::::I[[4X*::::",
"::::%Xz[S666666666F!;:::::::b[b::::,::f'[zX$::::",
"::::@XG[^666666666`'ILLLLLLL~[~mnnnnnnI[[HX@::::",
"::::@XW[[/TTTTRTR`[[[[[[[[[[[[[[[[[[[[[[[WX+::::",
"::::oX~[[[[[[[[[[[[[[[[[[[[[[[[[[[[[[[[[['Xo::::",
"::::XX'[!,$$$$#$$#$$$#$$$##$$$$##$$$$#<~[[XX::::",
"::::XX[[Q*XXXXXXXXXXXXXXXXXXXXXXXXXXXX=Q[[XX::::",
"::::XX[[Q=X-;;;;;;;;;;;;;;;;;;;;;;;;;X=Q[[XX::::",
"::::oX'[!;X=:::::::::::::,::::::::::=X:!['XX::::",
"::::oX![~3X*::::::::::::::::::::::::=X<~[~XX::::",
"::::@XP['jX#::::::::::::::::::::::::*X1)[IX+::::",
"::::#Xn[[H@X;:::::::::::::::::::::::#Xf_[nX#::::",
"::::%Xg[[~1X*::::::::::::::::::::::;X@H[[hX&::::",
"::::=X<'[[zX$::::::::::::::::::::::&X5)['<X=::::",
":::,;X#L[[GoX::::::::::::::::::::::@Xb[[P$X;::::",
":::::Xoh[[Q:X#::::::::::::::::::::#X;W[[koX:::::",
":::::$X=~[[n+X-::::::::::::::::::-X+m[[)=X#:::::",
"::::::XXk[['dXo,:::::::::::::::,,oXd'[[l+X::::::",
"::::::$X%W[[!<X+;::::::::::::::;+X<![[W&X#::::::",
":::::::XX4[[[W,XX*::::::::::::*oX:U[[[4XX:::::::",
":::::::$Xox[[[W4XX#:::::::::;#XX4U[[[x+X#:::::::",
"::::::::$X#m[[[~l#X@#=,::=&#XX@l~[[[G$X#::::::::",
"::::::::,#X%G[[['I<XXXXoXXXX@3P'[[[G&X#:::::::::",
"::::::::::+X$x[[[[~Ih@XXo-fbQ~[[[[c$X@::::::::::",
":::::::::::#X+d![[[[')~~~)'[[[[[!d+X#:::::::::::",
"::::::::::::#XX&zQ[[[[[[[[[[[[Qx&oX#,:::::::::::",
":::::::::::::$XXX*kHW_[[[[_UKk=oXX$:::::::::::::",
":::::::::::::::$XX@;gbHPPHbg;@XX$:::::::::::::::",
":::::::::::::::::#XXXXXXXXXXXXX$,:::::::::::::::",
"::::::::::::::::::;-*#@@@@$&-;::::::::::::::::::",
"::::::::::::::::::::::::::::::::::::::::::::::::"
};
