/* XPM */
static const char *buttonRight[] = {
/* columns rows colors chars-per-pixel */
"48 48 83 1 ",
"  c black",
". c #353535",
"X c #3A3A3A",
"o c #3F3F3F",
"O c gray25",
"+ c #414141",
"@ c gray27",
"# c #484848",
"$ c #494949",
"% c #4E4E4E",
"& c #505050",
"* c #565656",
"= c gray35",
"- c gray37",
"; c #606060",
": c gray39",
"> c #646464",
", c gray40",
"< c gray42",
"1 c #6C6C6C",
"2 c #727272",
"3 c #747474",
"4 c gray47",
"5 c gray49",
"6 c red",
"7 c #FE0505",
"8 c #F60D0D",
"9 c #FC1313",
"0 c #FF1919",
"q c #F94242",
"w c #ED6D6D",
"e c #FC6F6F",
"r c #FC7676",
"t c #FE7E7E",
"y c #898989",
"u c #8B8B8B",
"i c #929292",
"p c gray59",
"a c #989898",
"s c #9D9D9D",
"d c gray64",
"f c #A7A7A7",
"g c #AAAAAA",
"h c #AEAEAE",
"j c #B1B1B1",
"k c gray71",
"l c #B7B7B7",
"z c gray72",
"x c gray75",
"c c #FF8484",
"v c #FC8888",
"b c #FE8888",
"n c #FD9191",
"m c #FCA3A3",
"M c #FEB4B4",
"N c #FFBBBB",
"B c #C3C3C3",
"V c gray77",
"C c #C6C6C6",
"Z c #CBCBCB",
"A c #CDCDCD",
"S c LightGray",
"D c #D5D5D5",
"F c gray86",
"G c gray87",
"H c #FFC1C1",
"J c #FFC3C3",
"K c #FFCBCB",
"L c #FECCCC",
"P c #FFD8D8",
"I c #E2E2E2",
"U c #E4E4E4",
"Y c gray92",
"T c #ECECEC",
"R c #FFE3E3",
"E c #FFE9E9",
"W c gray94",
"Q c gray97",
"! c #FFF3F3",
"~ c #FFF6F6",
"^ c #FBFBFB",
"/ c gray99",
"( c gray100",
/* pixels */
",,,,,,,,,,,,,,,,,,,,,,,,,,,,,,,,,,,,,,,,,,,,,,,,",
",,,,,,,,,,,,,,,,,,:*$+oXXo@$*:,,,,,,,,,,,,,,,,,,",
",,,,,,,,,,,,,,,,$..............$,,,,,,,,,,,,,,,,",
",,,,,,,,,,,,,,,$.X@2dBGUUGBd2$..$,,,,,,,,,,,,,,,",
",,,,,,,,,,,,,@...,hDY^((((^YFh,X..$,,,,,,,,,,,,,",
",,,,,,,,,,,,@.X:BW(((((((((((^WB,..@,,,,,,,,,,,,",
",,,,,,,,,,,+.+aW((((((WUUW((((((Qs+.+,,,,,,,,,,,",
",,,,,,,,,,o.=B((((GF^(5,,5(^w9tE((C=.+,,,,,,,,,,",
",,,,,,,,,+.-D(((Gp:s^W:,,,W^8666N((D:.+,,,,,,,,,",
",,,,,,,,@.*S(((x<,,Z(Z:,,:Z(76666v((D*.@,,,,,,,,",
",,,,,,,$.@x(((d:,,<Y(f:,,:f(q60cJNJ((B@.$,,,,,,,",
",,,,,,,..i(((f:,,,4^(<,,,,<(e0E((((~((i..,,,,,,,",
",,,,,,$.-W((x:,,,,p(W:,,,,:Wmc(goog(P(W:.@,,,,,,",
",,,,,$.Xz((U,,,,,:A(S:,,,,:S(J(o  o(JE(zX.$,,,,,",
",,,,,..,((^y,,,,,:I(a,,,,,:p(L(o  o(Jr((<..,,,,,",
",,,,,.Xj((h:,,,,,,Y(<,,,,,,<(m(goog(c6M(jX.,,,,,",
",,,,:.%G(^5,,,,,,4^(,,,,,,,:QvE((((E06r(I&.;,,,,",
",,,,*.4^(I<,,,,,,d((,,,,,,,:GM0cJJc0666R(4.*,,,,",
",,,,$.d((d<,,,,,,h(Y,,,,,,,,kJ666666666n(d.$,,,,",
",,,,+.C((IzzzzzzzT(QDASSSASSY!666666666R(Z.+,,,,",
",,,,o.G(((((((((((((((((((((((!KJJJJJJR((I.o,,,,",
",,,,X.T((((((((((((((((((((((((((((((((((W..,,,,",
",,,,..^(Y,@$$@@@@$@$@$@$@$@$$@@$$@@$$@2Y((..,,,,",
",,,,..((U*............................=U((..,,,,",
",,,,..((U=.-::-:-:;:-:;::;:-:;:-:-:--.=U((..,,,,",
",,,,X.Q(Y:.=,,,,,,,,,,,,,,,,,,,,,,,,=.,Y(^..,,,,",
",,,,X.Y(T4.*,,,,,,,,,,,,,,,,,,,,,,,,=.1T(T..,,,,",
",,,,o.S(^a.@,,,,,,,,,,,,,,,,,,,,,,,,*.2W(F.o,,,,",
",,,,@.k((Co.:,,,,,,,,,,,,,,,,,,,,,,,@.yQ(z.@,,,,",
",,,,%.i((Y2.*,,,,,,,,,,,,,,,,,,,,,,:.+A((p.%,,,,",
",,,,=.<Q(/d.$,,,,,,,,,,,,,,,,,,,,,,&.5W(^1.=,,,,",
",,,,:.@S((VX.>,,,,,,,,,,,,,,,,,,,,,+.k((D@.:,,,,",
",,,,,..a((I,.@,,,,,,,,,,,,,,,,,,,,@.,I((s..,,,,,",
",,,,,$.*T((xo.-,,,,,,,,,,,,,,,,,,-.oz((W=.@,,,,,",
",,,,,,..s((Qy.X,,,,,,,,,,,,,,,,,:o.yQ((dX.,,,,,,",
",,,,,,$.&G((T1.o:,,,,,,,,,,,,,,:o.1T((G&.$,,,,,,",
",,,,,,,.X4(((G<.X*,,,,,,,,,,,,*..,G(((4X.,,,,,,,",
",,,,,,,$.Xf(((I4..@:,,,,,,,,:@..4I(((go.$,,,,,,,",
",,,,,,,,@.@x(((Td+.o$=,,,=&@..+dT(((B$.@,,,,,,,,",
",,,,,,,,,@.%B(((^F1....X....o3D^(((B%.@,,,,,,,,,",
",,,,,,,,,,@.@f((((TDp@..X-ukUT((((h@.+,,,,,,,,,,",
",,,,,,,,,,,@.oyU((((^WYYTT(^((((Yyo.@,,,,,,,,,,,",
",,,,,,,,,,,,$.X&fU^(((((((((((Ug&X.$,,,,,,,,,,,,",
",,,,,,,,,,,,,$...*aZIQ((((QUAa*...$,,,,,,,,,,,,,",
",,,,,,,,,,,,,,,$..o:ijZDDZji:o..$,,,,,,,,,,,,,,,",
",,,,,,,,,,,,,,,,,@.............$,,,,,,,,,,,,,,,,",
",,,,,,,,,,,,,,,,,,,=&@+oo+@&=,,,,,,,,,,,,,,,,,,,",
",,,,,,,,,,,,,,,,,,,,,<,,,,,<,,,,,,,,,,,,,,,,,,,,"
};
