/* XPM */
static const char *buttonDblLeftSelected[] = {
/* columns rows colors chars-per-pixel */
"48 48 121 2 ",
"   c black",
".  c #191919",
"X  c #353535",
"o  c #373737",
"O  c gray23",
"+  c #3F3F3F",
"@  c gray25",
"#  c gray27",
"$  c #484848",
"%  c gray30",
"&  c gray32",
"*  c #565656",
"=  c #585858",
"-  c gray36",
";  c gray38",
":  c gray40",
">  c #686868",
",  c gray42",
"<  c #6D6D6D",
"1  c #727272",
"2  c gray45",
"3  c #747474",
"4  c #797979",
"5  c #7C7C7C",
"6  c red",
"7  c #FF0606",
"8  c #F60F0F",
"9  c #FC1515",
"0  c #FF1C1C",
"q  c #FA2B2B",
"w  c #F93A3A",
"e  c #F94444",
"r  c #FF4A4A",
"t  c #FF4E4E",
"y  c #FF5252",
"u  c #ED6F6F",
"i  c #FC7171",
"p  c #FF7C7C",
"a  c #3B3BBF",
"s  c #4040BE",
"d  c #5252BA",
"f  c #5858BA",
"g  c #6565B9",
"h  c #6868B9",
"j  c #7979B9",
"k  c #7B7BB9",
"l  c #1E1ECF",
"z  c #1515D6",
"x  c #1A1AD3",
"c  c #1313DA",
"v  c #2C2CC6",
"b  c #2525CA",
"n  c #2020CE",
"m  c #3636C2",
"M  c #3232C4",
"N  c #0707ED",
"B  c #0909E9",
"V  c #0404F2",
"C  c #0303F4",
"Z  c #0202F9",
"A  c blue",
"S  c gray51",
"D  c gray52",
"F  c #898989",
"G  c #8D8D8D",
"H  c gray57",
"J  c gray59",
"K  c #9B9B9B",
"L  c gray62",
"P  c #A2A2A2",
"I  c #A4A4A4",
"U  c #AAAAAA",
"Y  c #AEAEAE",
"T  c #A1A1BD",
"R  c gray70",
"E  c #B4B4B4",
"W  c gray71",
"Q  c gray72",
"!  c gray73",
"~  c gray75",
"^  c #FF8282",
"/  c #FF8484",
"(  c #FF9191",
")  c #FD9999",
"_  c #FF9F9F",
"`  c #FFA6A6",
"'  c #FFADAD",
"]  c #FFB1B1",
"[  c #FFB9B9",
"{  c #FFBBBB",
"}  c #AFAFC0",
"|  c #C3C3C3",
" . c #C2C2C5",
".. c gray77",
"X. c #CBCBCB",
"o. c #CDCDCD",
"O. c gray82",
"+. c gray84",
"@. c #D8D8D8",
"#. c gray86",
"$. c #DFDFDF",
"%. c #FFC1C1",
"&. c #FFC3C3",
"*. c #FFC9C9",
"=. c #FFCECE",
"-. c gray88",
";. c #E4E4E4",
":. c #E6E6E6",
">. c #EAEAEA",
",. c #ECECEC",
"<. c #EEEEEE",
"1. c #FFE9E9",
"2. c #FFEBEB",
"3. c gray94",
"4. c #F1F1F1",
"5. c #F4F4F4",
"6. c #FFF1F1",
"7. c #FBFBFB",
"8. c #FFFBFB",
"9. c #FDFDFD",
"0. c #FEFEFE",
/* pixels */
": : : : : : : : : : : : : : : : : : : : : : : , : : : : : : : : : : : : : : : : : : : : : : : : ",
": : : : : : : : : : : 5 o.4.o.1 : : ; * % @ + o o + # $ = ; : : : : : : : : : : : : : : : : : : ",
": : : : : : : : : : o.0.0.0.0.o.$ X X X X X X X X X X X X X X $ : : : : : : : : : : : : : : : : ",
": : : : : : : : 1 -.0.1.` 9 0.4.X X $ 1 P | #.:.>.#.| P 3 $ X X $ : : : : : : : : : : : : : : : ",
": : : : : : : 1 4.0.=.y 6 7 0.7.o : Y +.<.7.0.0.0.0.0.<.#.Y : X X X $ : : : : : : : : : : : : : ",
": : : : : : 1 <.0.] 0 6 6 r 0.+...4.0.0.0.0.0.0.0.0.0.0.0.0.5...; O X # : : : : : : : : : : : : ",
": : : : : : $.0.{ ( &.&./ ^ 0.7.0.0.0.0.0.0.4.:.:.4.0.0.0.0.0.0.5.P @ X @ : : : : : : : : : : : ",
": : : : : o.0.=.1.0.0.0.0.8.0.0.1.^ 9 u 7.0.5 : : 5 0.7.#.$.0.0.0.0.| = X @ : : : : : : : : : : ",
": : : : D 0.1.` 0.U + + U 0.0.&.6 6 6 8 7.4.; : : : 4.7.K ; J -.0.0.0.#.- X @ : : : : : : : : : ",
": : : , >.0.( &.0.@     @ 0.8.6 6 6 6 7 0.X.: : : ; o.0.o.: : < ~ 0.0.0.+.= X # : : : : : : : : ",
": : : H 0.{ 0 &.0.+     + 0.0./ 0 6 6 e 0.I : : : : I 0.>., : : : P 0.0.0.| # X $ : : : : : : : ",
": : : o.0.p 6 / 0.U + + U 0.0.0.1.0 6 i 0.< : : : : < 0.5.4 : : : ; P 0.0.0.J X X : : : : : : : ",
": : 3 0.1.t 6 0 1.0.0.0.0.4.& U 0.^ 6 _ 4.; : : : : ; 4.0.J : : : : ; ~ 0.0.4.; X # : : : : : : ",
": : J 0.] 6 6 6 0 / 6.0.P .   + 0.&.9 0.+.; : : : : ; O.0.O.; : : : : , >.0.0.Q O X $ : : : : : ",
": : 1 0.1.&.&.&.&.&.6.0.@     + 0.&.q 0.K ; : : : : ; K 0.-.: : : : : : S 0.0.0., X X , : : : : ",
": : : o.0.0.0.0.0.0.0.0.U + + U 0./ w 0.< : : : : : : , 0.>., : : : : : ; U 0.0.E O X ; : : : : ",
": : : : < : 3 >.0.) y 1.0.0.0.0.1.0 i 0.: : : : : : : - 5.0.4 < : : : : : 4 7.0.-.& X - : : : : ",
": : : : * X 4 7.1.6 6 0 ^ &.&./ 0 6 ' 0.: : : : : : , ; -.0.U : : : : : : : #.0.0.4 X * : : : : ",
": : : : $ X P 0.] 6 6 6 6 6 6 6 6 6 { >.; : : : : : : : W 0.R : > : : : : > G 0.0.I X $ : : : : ",
": : : : # X ..0.1.6 6 6 6 6 6 6 6 6 6.7.#.O.O.O.O.O.O.O.<.0.<.~ ! ! Q Q Q W #.0.0...X # : : : : ",
": : : : + X $.0.0.2.&.&.&.&.*.&.*.6.0.0.0.0.0.0.0.0.0.0.0.0.0.0.0.0.0.0.0.0.0.0.0.-.X O : : : : ",
": : : : O X <.0.0.0.0.0.0.0.0.0.0.0.0.0.0.0.0.0.0.0.0.0.0.0.0.0.0.0.0.0.0.0.0.0.0.5.X O : : : : ",
": : : : X X 0.0.>.b B B B B B B B B B B B B B B B B B B B B B B B B B B B B v <.0.0.X X : : : : ",
": : : : X X 0.0.:.c A A A A A A A A A A A A A A A A A A A A A A A A A A A A z :.0.0.X X : : : : ",
": : : : X X 0.0.:.z A A A A A A A A A A A A A A A A A A A A A A A A A A A A z :.0.0.X X : : : : ",
": : : : X X 7.0.>.l A A A A A A A A A A A A A A A A A A A A A A A A A A A A n >.0.7.X X : : : : ",
": : : : O X >.0.<.m A A A A A A A A A A A A A A A A A A A A A A A A A A A A v <.0.<.X O : : : : ",
": : : : + X +.0.7.h A A A A A A A A A A A A A A A A A A A A A A A A A A A A M <.0.#.X + : : : : ",
": : : : # X Q 0.0...C A A A A A A A A A A A A A A A A A A A A A A A A A A A f 5.0.Q X # : : : : ",
": : : : % X H 0.0.<.M A A A A A A A A A A A A A A A A A A A A A A A A A A V X.0.0.J X % : : : : ",
": : : : = X , 7.0.0.k A A A A A A A A A A A A A A A A A A A A A A A A A A s 5.0.7.< X = : : : : ",
": : : , ; X # O.0.0. .Z A A A A A A A A A A A A A A A A A A A A A A A A A T 0.0.+.$ X ; : : : : ",
": : : : : X O J 0.0.;.n A A A A A A A A A A A A A A A A A A A A A A A A x -.0.0.L O X : : : : : ",
": : : : : $ X * <.0.0.W C A A A A A A A A A A A A A A A A A A A A A A V E 0.0.4.* X # : : : : : ",
": : ; : : : X X L 0.0.7.d A A A A A A A A A A A A A A A A A A A A A A d 7.0.0.P O X : : : ; : : ",
": % X % : : $ X % $.0.0.>.v A A A A A A A A A A A A A A A A A A A A v >.0.0.-.& X # : : % X % : ",
": O X X $ , : X X 4 0.0.0.-.b A A A A A A A A A A A A A A A A A A b -.0.0.0.4 X X : : % X X O : ",
": X X X X $ : $ X o U 0.0.0.-.a A A A A A A A A A A A A A A A A a -.0.0.0.U @ X $ : $ X X X X : ",
": X X P X X $ , $ X $ ~ 0.0.0.<.j B A A A A A A A A A A A A N j <.0.0.0.| $ X # : $ X X P X X : ",
": X X 0.Y - X $ > # X % | 0.0.0.7.#.v A A A A A A A A A V M +.7.0.0.0.| & X # : $ X = R 0.X X : ",
": X X 0.0.~ , X $ : @ X $ U 0.0.0.0.<.#.g N A A Z x f T :.<.0.0.0.0.Y $ X # : $ X < ~ 0.0.X X : ",
": X X 0.0.0.o.4 X $ ; # X @ F >.0.0.0.0.7.<.<.<.<.4.7.0.0.0.0.0.>.F O X # ; $ X 4 o.0.0.0.X X : ",
": X X 0.0.0.0.-.F X $ ; # X X & I :.0.0.0.0.0.0.0.0.0.0.0.0.:.I * X X $ ; $ X F -.0.0.0.0.X X : ",
": X X 0.0.0.0.0.>.F X $ - $ X X X * K X.-.5.0.0.0.0.5.-.o.K = o X X $ - $ X F >.0.0.0.0.0.X X : ",
": X X 0.0.0.0.0.0.5.F X X - : $ X X + ; H R X.+.+.X.E H : + X X $ : = X X F 5.0.0.0.0.0.0.X X : ",
": X X X X X X X X X X X X # : : : # X X X X X X X X X X X X X $ : : # X X X X X X X X X X X X : ",
", $ X X X X X X X X X X $ = : : : : : - & # @ @ @ @ # & = ; : : : : - # X X X X X X X X X X $ , ",
": : : : : : : : : : : : : : : : : : : : : : : : : : : : : : : : : : : : : : : : : : : : : : : : "
};
