/* XPM */
static const char *buttonDragSelectedLocked[] = {
/* columns rows colors chars-per-pixel */
"48 48 88 1 ",
"  c black",
". c #353535",
"X c #33333B",
"o c #3C3C3C",
"O c #2F2F4E",
"+ c #2B2B5B",
"@ c #2C2C67",
"# c #444444",
"$ c #4A4A4A",
"% c #545454",
"& c #5C5C5C",
"* c #666666",
"= c #6C6C6C",
"- c #737373",
"; c #7B7B7B",
": c #FF0000",
"> c #F60F0F",
", c #FC1515",
"< c #FF1919",
"1 c #F94444",
"2 c #ED6F6F",
"3 c #FC7171",
"4 c #FD7A7A",
"5 c #1414B1",
"6 c #3B3BBF",
"7 c #4040BE",
"8 c #5454BA",
"9 c #5858BA",
"0 c #6868B9",
"q c #7A7AB9",
"w c #1F1FCE",
"e c #0C0CD2",
"r c #1616D6",
"t c #1A1AD3",
"y c #1313DA",
"u c #2D2DC6",
"i c #2424CB",
"p c #3333C3",
"a c #0808E2",
"s c #0505EE",
"d c #0909E9",
"f c #0404F2",
"g c #0000FF",
"h c #0A0AFF",
"j c #1313FF",
"k c #1B1BFF",
"l c #3737FF",
"z c #3A3AFF",
"x c #858585",
"c c #898989",
"v c #939393",
"b c #9B9B9B",
"n c #A3A3A3",
"m c #ABABAB",
"M c #A1A1BD",
"N c gray70",
"B c #BBBBBB",
"V c #FE8383",
"C c #FE8888",
"Z c #FF9F9F",
"A c #FCA0A0",
"S c #FFADAD",
"D c #FFB1B1",
"F c #FFBABA",
"G c #AFAFC0",
"H c #8B8BFF",
"J c #9292FF",
"K c #ADADFF",
"L c #BDBDFF",
"P c #C3C3C3",
"I c #CCCCCC",
"U c #D4D4D4",
"Y c #DDDDDD",
"T c #FFC3C3",
"R c #FFCACA",
"E c #FFD8D8",
"W c #C3C3FF",
"Q c #C8C8FF",
"! c #DDDDFF",
"~ c #E3E3E3",
"^ c #ECECEC",
"/ c #FFEAEA",
"( c #E3E3FF",
") c #EEEEFF",
"_ c #F3F3F3",
"` c #FFF3F3",
"' c #F3F3FF",
"] c #FEFEFF",
/* pixels */
"***********************************%&********=**",
"*******************&$#oooo#$&****&...o**********",
"****************$..............#*..x*.#*********",
"***************$..#-nPY~~YPn-$....;_U$.#********",
"*************#...*mU^]]]]]]^Um*..;^]]U$.#*******",
"************$..*P_]]]]]]]]]]]];.;_]]]]U%.$******",
"***********#.#b_]]]]]]^~~_]]]].oU]Y_^~]N..******",
"******=***o.%P]]/V,2]];**;]_b;..~P*_U*_P.#$&****",
"*********#.&U]]F:::>]^****^*...on#*]~o-mo...#***",
"*=******#.%U]]C:::::]I****&.&NBv..c]^$.*BNvo.$**",
"*******$.#P]]TFTC<:1]n***o.&Y]~*..c]~#.ob]]n..$*",
"*******..v]]`]]]]/<3]***o.&Y]U&.##;]~$#oov]]m..#",
"******$.&_]E]mo#m]CZ^**&.*Y]]YPU~U~]]UUUUP_]]N%.",
"*****$.oB]/T]o  o]T]U**$.v]]]]]]]]]]]]]]]]]]]^;.",
"*****..*]]VT]o  o]R]b**&.#n]]B*;bvm]^vxx=x_]Y&..",
"**=**.oN]F:V]mo#m]A]=***#..n]]b...;]~o..%U]Y*..$",
"*****.$Y]4:</]]]]/V]*****$..b~~x..;]~#.&P~I&.o**",
"****%.;]/:::<VTTC<S]******#..##%n$*]Y.;N%#o.#***",
"****$.n]D:::::::::F^*******&*...~I=_U-_P...o****",
"****#.P]/:::::::::`_UIUUUUIU^_..U]~]__]m...#****",
"****o.Y]]/TTTTTTR`]]]]]]]]]]]]x.=_]]]]I%.;.o****",
"****.._]]]]]]]]]]]]]]]]]]]]]]]]$.=^]]I$.-_..****",
"****..]]^idddddddddddddddddddddeO.=^I$.=]]..****",
"****..]]~yggggggggggggggggggggggsO.x*.@~]]..****",
"****..]]~rggggggggggkJ()'(JkgggggaX..+y~]]..****",
"****..]]^wgggggggggjL]WHHW]Ljggggga5egi^]]..****",
"****..~]^pgggggggggJ]HkjjkH]Jgggggggggu^]^..****",
"***=#.U]]0ggggggggj(!jggggj!)jggggggggu^]U.#****",
"****#.N]]Pfgggggggj]KggggggK]hgggggggg9_]B.$****",
"****%.v]]^pgggggggz]LzzzzzlW]zgggggggsI]]v.$****",
"****&.*]]]qgggggggL])QQQWQW)]Lggggggg7_]]=.&****",
"*****.#U]]Pfgggggg)]]]]]]]]]])gggggggM]]U#.*****",
"*****..b]]~igggggg(]]]]]]]]]]!ggggggi~]]b..*****",
"*****$.%^]]Gfggggg(]]]]]]]]]]!gggggfG]]_&.#*****",
"******..b]]_8ggggg!]]]]]]]]]]!ggggg8_]]n..******",
"*$.$**$.%Y]]^ugggg(]]]]]]]]]]!ggggu^]]~%.$**$.%*",
"*...$**..;]]]Yiggg(]]]]]]]]]](gggiY]]];..**$...*",
"*....$*$..m]]]~6gg(]']']']']]!gg6Y]]]m..$*$....*",
"*..n..$*$.$B]]]^qdggggggggggggfq^]]]P$.#*$..n..*",
"*..]IUIc*#.$P]]]]UugggggggggfpU]]]]P%.#*cIUI]..*",
"*..]m#omc*o.#m]]]]^U0sggft9M~^]]]]m#.#*xmoom]..*",
"*..]o  oI$*#.ox^]]]]]_^^^^]]]]]]^co.#*$I#  o]..*",
"*..]o  #~.$*#..%n~]]]]]]]]]]]]~m%..$&$.~o  #]..*",
"*..]m#om_x.#&$...%bI~_]]]]_~Ib%...$&#.c_moom]..*",
"*..]]]]]]_c..&*$..o*vNIUUINv*o..$*&..c_]]]]]]..*",
"*............#***#.............$**#............*",
"*$..........#&*****&$$o##o#%&*****&#..........$*",
"************************************************"
};
