/* XPM */
static const char *help[] = {
/* columns rows colors chars-per-pixel */
"32 32 143 2 ",
"   c #023BB7",
".  c #033EB8",
"X  c #0748BE",
"o  c #084ABF",
"O  c #094DC1",
"+  c #0A4DC1",
"@  c #094EC2",
"#  c #0A4EC2",
"$  c #0A50C2",
"%  c #0B50C2",
"&  c #0A52C2",
"*  c #0B52C4",
"=  c #0B53C4",
"-  c #0C55C5",
";  c #0D55C5",
":  c #0E56C5",
">  c #0D55C6",
",  c #0E58C6",
"<  c #0F58C6",
"1  c #0F5AC8",
"2  c #105AC8",
"3  c #115BC9",
"4  c #115DC8",
"5  c #115DC9",
"6  c #125DC9",
"7  c #125FC9",
"8  c #135DCA",
"9  c #125FCA",
"0  c #135FCA",
"q  c #1361CA",
"w  c #1461CA",
"e  c #1562CC",
"r  c #1664CC",
"t  c #1764CD",
"y  c #1766CC",
"u  c #1766CD",
"i  c #1866CD",
"p  c #1868CD",
"a  c #1968CE",
"s  c #196ACE",
"d  c #196BCE",
"f  c #1A6BCE",
"g  c #1B6BCE",
"h  c #1B6BCF",
"j  c #1C6BCF",
"k  c #1B6DCF",
"l  c #1C6DCF",
"z  c #1D6DCF",
"x  c #1C6FCF",
"c  c #1D6FCF",
"v  c #1E6FCF",
"b  c #1D6DD0",
"n  c #1D6FD0",
"m  c #1E6FD0",
"M  c #1E71D0",
"N  c #1F71D0",
"B  c #2073D0",
"V  c #2073D2",
"C  c #2173D2",
"Z  c #2175D2",
"A  c #2175D3",
"S  c #2275D2",
"D  c #2275D3",
"F  c #2377D3",
"G  c #2477D3",
"H  c #2479D3",
"J  c #2579D3",
"K  c #2579D4",
"L  c #287DD5",
"P  c #2A7FD5",
"I  c #2B80D6",
"U  c #2F84D7",
"Y  c #3B92DC",
"T  c #3E95DD",
"R  c #4195DD",
"E  c #4299DE",
"W  c #4499DE",
"Q  c #459BDE",
"!  c #459BDF",
"~  c #479DDF",
"^  c #489DDF",
"/  c #4A9EDF",
"(  c #4BA0E0",
")  c #5AACE4",
"_  c #5DADE4",
"`  c #62B1E6",
"'  c #64B1E6",
"]  c #68B2E7",
"[  c #68B4E6",
"{  c #6AB4E6",
"}  c #6AB5E7",
"|  c #6DB7E7",
" . c #80C1EB",
".. c #82C1EB",
"X. c #84C2EB",
"o. c #88C4EC",
"O. c #88C5EC",
"+. c #8EC8ED",
"@. c #90C9EE",
"#. c #97CCEE",
"$. c #9BCEEF",
"%. c #A7D3F0",
"&. c #ADD7F2",
"*. c #AFD9F3",
"=. c #BBDEF4",
"-. c #C2E2F6",
";. c #C5E3F6",
":. c #C8E5F6",
">. c #CCE6F7",
",. c #CDE6F7",
"<. c #D9ECF9",
"1. c #DBEDF9",
"2. c #DCEEF9",
"3. c #DFEFFA",
"4. c #E0EFFA",
"5. c #E0F0FA",
"6. c #E1F0FA",
"7. c #E2F0FA",
"8. c #E3F1FA",
"9. c #E5F2FB",
"0. c #E6F2FB",
"q. c #E6F3FB",
"w. c #E8F4FC",
"e. c #EAF4FC",
"r. c #EBF5FC",
"t. c #EDF6FC",
"y. c #F0F7FC",
"u. c #F1F8FD",
"i. c #F2F8FD",
"p. c #F4F9FD",
"a. c #F6FAFD",
"s. c #F6FBFE",
"d. c #F7FBFE",
"f. c #F7FCFE",
"g. c #F8FCFE",
"h. c #F9FCFE",
"j. c #FAFDFE",
"k. c #FBFDFE",
"l. c #FCFEFF",
"z. c #FDFEFF",
"x. c #FEFEFF",
"c. c gray100",
"v. c None",
/* pixels */
"v.v.v.v.v.v.v.v.v.v.v.v.v.v.v.v.v.v.v.v.v.v.v.v.v.v.v.v.v.v.v.v.",
"v.v.v.v.v.v.v.v.v.v.v.v.v.v.v.v.v.v.v.v.v.v.v.v.v.v.v.v.v.v.v.v.",
"v.v.v.v.v.v.v.v.v.v.v.v.v.v.v.v.v.v.v.v.v.v.v.v.v.v.v.v.v.v.v.v.",
"v.v.v.v.v.v.v.v.v.v.v.c.c.c.c.c.c.c.c.c.c.v.v.v.v.v.v.v.v.v.v.v.",
"v.v.v.v.v.v.v.v.v.c.c.c.c.c.c.c.c.c.c.c.c.c.c.v.v.v.v.v.v.v.v.v.",
"v.v.v.v.v.v.v.v.c.c.c.8.+.W F l l J ! @.9.c.c.c.v.v.v.v.v.v.v.v.",
"v.v.v.v.v.v.v.c.c.a.` M l M g q w r m M C [ d.c.c.v.v.v.v.v.v.v.",
"v.v.v.v.v.v.c.c.1.I l l g = 2 g l 4 * 4 M l U 4.c.c.v.v.v.v.v.v.",
"v.v.v.v.v.c.c.2.C l C 4 4 ..e.g.d.y.*.F * l m F 8.c.c.v.v.v.v.v.",
"v.v.v.v.c.c.a.K l l q r e.c.c.c.c.c.c.g.^ - M g I a.c.c.v.v.v.v.",
"v.v.v.v.c.c.' l l l * 1.c.c.c.y.t.c.c.c.c.g q m g | c.c.v.v.v.v.",
"v.v.v.c.c.9.m l l , Y c.c.c.O.# * W c.c.c.O.= m x M e.c.c.v.v.v.",
"v.v.v.c.c.+.l l C #  .c.c.f.* w N   >.c.c.-.; l h x #.c.c.v.v.v.",
"v.v.v.c.c.E l l l r P X.+.^ 4 F ; r a.c.c.$.= l m x / c.c.v.v.v.",
"v.v.v.c.c.F l l l N i # # , F ; g t.c.c.c.K 2 m g x P c.c.v.v.v.",
"v.v.v.c.c.l l l l l l N N N 4 g a.c.c.c.] # M g m h l c.c.v.v.v.",
"v.v.v.c.c.l l l l l l l l i < e.c.c.c._ o l l l l l g c.c.v.v.v.",
"v.v.v.c.c.F l l l l l l l ; ) c.c.g.R o N l l l l l L c.c.v.v.v.",
"v.v.v.c.c.E l l l l l l l * =.c.c.;.. m l l l l l l / c.c.v.v.v.",
"v.v.v.c.c.+.l l l l l l l < [ 9.9.` 1 l l l l l l l $.c.c.v.v.v.",
"v.v.v.c.c.9.m l l l l l g g g T Y r j l l l l l m M e.c.c.v.v.v.",
"v.v.v.v.c.c.' l l l l l g = :.c.c.*.* l l l l l x | c.c.v.v.v.v.",
"v.v.v.v.c.c.a.K l l l l x * 8.c.c.>.# l l l l l P a.c.c.v.v.v.v.",
"v.v.v.v.v.c.c.2.F l l l g ; %.g.g.O.; l l l l G 8.c.c.v.v.v.v.v.",
"v.v.v.v.v.v.c.c.1.P x m x m r M m q l l l m U 4.c.c.v.v.v.v.v.v.",
"v.v.v.v.v.v.v.c.c.a.` M g m g 4 4 g N l C [ a.c.c.v.v.v.v.v.v.v.",
"v.v.v.v.v.v.v.v.c.c.c.8.+.W F l M F ~ @.9.c.c.c.v.v.v.v.v.v.v.v.",
"v.v.v.v.v.v.v.v.v.c.c.c.c.c.c.c.c.c.c.c.c.c.c.v.v.v.v.v.v.v.v.v.",
"v.v.v.v.v.v.v.v.v.v.v.c.c.c.c.c.c.c.c.c.c.v.v.v.v.v.v.v.v.v.v.v.",
"v.v.v.v.v.v.v.v.v.v.v.v.v.v.v.v.v.v.v.v.v.v.v.v.v.v.v.v.v.v.v.v.",
"v.v.v.v.v.v.v.v.v.v.v.v.v.v.v.v.v.v.v.v.v.v.v.v.v.v.v.v.v.v.v.v.",
"v.v.v.v.v.v.v.v.v.v.v.v.v.v.v.v.v.v.v.v.v.v.v.v.v.v.v.v.v.v.v.v."
};
