/* XPM */
static const char *keyboard[] = {
/* columns rows colors chars-per-pixel */
"32 32 60 1 ",
"  c #1B1B1B",
". c #1D1D1D",
"X c gray14",
"o c gray17",
"O c #2C2C2C",
"+ c gray20",
"@ c #353535",
"# c gray21",
"$ c #373737",
"% c #3E3E3E",
"& c #444444",
"* c #4E4E4E",
"= c #505050",
"- c #555555",
"; c #565656",
": c #585858",
"> c #5A5A5A",
", c #5B5B5B",
"< c #5D5D5D",
"1 c #5F5F5F",
"2 c gray38",
"3 c gray40",
"4 c #686868",
"5 c #6A6A6A",
"6 c #6D6D6D",
"7 c gray46",
"8 c #797979",
"9 c gray49",
"0 c gray50",
"q c #808080",
"w c #868686",
"e c gray54",
"r c gray55",
"t c #909090",
"y c #929292",
"u c gray58",
"i c #979797",
"p c gray60",
"a c #9B9B9B",
"s c gray62",
"d c #AAAAAA",
"f c #ACACAC",
"g c #EAEAEA",
"h c #ECECEC",
"j c #EEEEEE",
"k c #EFEFEF",
"l c gray94",
"z c gray95",
"x c gray96",
"c c #F6F6F6",
"v c gray97",
"b c #F8F8F8",
"n c #F9F9F9",
"m c gray98",
"M c #FBFBFB",
"N c gray99",
"B c #FDFDFD",
"V c #FEFEFE",
"C c gray100",
"Z c None",
/* pixels */
"ZZZZZZZZZZZZZZZZZZZZZZZZZZZZZZZZ",
"ZZZZZZZZZZZZZZZZZZZZZZZZZZZZZZZZ",
"ZZZZZZZZZZZZZZZZZZZZZZZZZZZZZZZZ",
"ZZZZZCCCCCCCCCCCCCCCCCCCCCCZZZZZ",
"ZZZZCCCCCCCCCCCCCCCCCCCCCCCCZZZZ",
"ZZZCCkftttttttttttitttitrdkCCZZZ",
"ZZZCCq3====*==*==*=======48CCZZZ",
"ZZZCC1wggggggkggkggggggggr1CCZZZ",
"ZZZCC;aCCCCCCCCCCCCCCCCCCs;CCZZZ",
"ZZZCC;iCCCCCCCCCCCCCCCCCCa;CCZZZ",
"ZZZCC;iCCCCCCCCCCCCCCCCCCa;CCZZZ",
"ZZZCC;iCm2rCC30CC03CCr2mCa;CCZZZ",
"ZZZCC;iCm &CmX+CC+XmC& mCa;CCZZZ",
"ZZZCC;iCCxxCCxxCCxxCCxxCCa;CCZZZ",
"ZZZCC;iCCCCCCCCCCCCCCCCCCa;CCZZZ",
"ZZZCC;iCCCC7tCC00CCt7CCCCa;CCZZZ",
"ZZZCC;iCCCm +CmXXmC+ mCCCa;CCZZZ",
"ZZZCC;iCCCCgzCCkkCCzgCCCCa;CCZZZ",
"ZZZCC:iCCCCCCCCCCCCCCCCCCa;CCZZZ",
"ZZZCC:iCCCCCCxmmmxxCCCCCCa;CCZZZ",
"ZZZCC:iCCCCx%O++++o+xCCCCa:CCZZZ",
"ZZZCC:iCCCCm6*1:11*3mCCCCa:CCZZZ",
"ZZZCC;iCCCCCCmCCCCmCCCCCCi:CCZZZ",
"ZZZCC;aCCCCCCCCCCCCCCCCCCa;CCZZZ",
"ZZZCC:tCmCmmmmmCmmCmmmCmmi:CCZZZ",
"ZZZCCq433333333333333333348CCZZZ",
"ZZZCCkfrttttttttttttrtttrdkCCZZZ",
"ZZZZCCCCCCCCCCCCCCCCCCCCCCCCZZZZ",
"ZZZZZCCCCCCCCCCCCCCCCCCCCCCZZZZZ",
"ZZZZZZZZZZZZZZZZZZZZZZZZZZZZZZZZ",
"ZZZZZZZZZZZZZZZZZZZZZZZZZZZZZZZZ",
"ZZZZZZZZZZZZZZZZZZZZZZZZZZZZZZZZ"
};
