/* XPM */
static const char *off[] = {
/* columns rows colors chars-per-pixel */
"32 32 111 2 ",
"   c #E41102",
".  c #E41103",
"X  c #E51103",
"o  c #E51403",
"O  c #E51404",
"+  c #E51505",
"@  c #E61504",
"#  c #E61505",
"$  c #E61605",
"%  c #E61705",
"&  c #E61806",
"*  c #E61907",
"=  c #E71A07",
"-  c #E71A08",
";  c #E71B08",
":  c #E61B09",
">  c #E71C08",
",  c #E71C09",
"<  c #E71D09",
"1  c #E71D0A",
"2  c #E71E0A",
"3  c #E81F0A",
"4  c #E8200B",
"5  c #E8210B",
"6  c #E8210C",
"7  c #E8220C",
"8  c #E9230D",
"9  c #E9230E",
"0  c #E9240E",
"q  c #E9250E",
"w  c #E9240F",
"e  c #EA240E",
"r  c #EA240F",
"t  c #EA250F",
"y  c #EA260F",
"u  c #EA2810",
"i  c #EA2811",
"p  c #EB2811",
"a  c #EA2A11",
"s  c #EB2A12",
"d  c #EB2B13",
"f  c #EB2B14",
"g  c #EB2C14",
"h  c #EB2D15",
"j  c #EB2F15",
"k  c #EB2F16",
"l  c #EB3016",
"z  c #EB3017",
"x  c #EB3118",
"c  c #EC3118",
"v  c #EC3219",
"b  c #EC3319",
"n  c #EC351A",
"m  c #EC361B",
"M  c #ED391D",
"N  c #ED3A1F",
"B  c #EE3B20",
"V  c #EE4023",
"C  c #F05536",
"Z  c #F15637",
"A  c #F15639",
"S  c #F15839",
"D  c #F15A3A",
"F  c #F25D3E",
"G  c #F47555",
"H  c #F47756",
"J  c #F47B5A",
"K  c #F57D5B",
"L  c #F5805F",
"P  c #F79E80",
"I  c #F7A084",
"U  c #F8A58A",
"Y  c #F9B29B",
"T  c #F9B49D",
"R  c #F9B8A2",
"E  c #FAB8A5",
"W  c #F9BAA5",
"Q  c #FABBA7",
"!  c #FABFAC",
"~  c #FBCCBB",
"^  c #FCD2C4",
"/  c #FCD2C5",
"(  c #FCD5C8",
")  c #FCD9CD",
"_  c #FCDACE",
"`  c #FCDCD3",
"'  c #FCDED4",
"]  c #FCDFD5",
"[  c #FCE0D6",
"{  c #FCE1D6",
"}  c #FCE1D7",
"|  c #FDE1D9",
" . c #FDE3DB",
".. c #FDE4DC",
"X. c #FDE4DD",
"o. c #FDE5DD",
"O. c #FDE5DE",
"+. c #FDE6DE",
"@. c #FDE6DF",
"#. c #FDE7E0",
"$. c #FDE8E1",
"%. c #FDE8E2",
"&. c #FDE9E2",
"*. c #FDEBE5",
"=. c #FDEBE6",
"-. c #FDECE6",
";. c #FEF7F5",
":. c #FEF8F6",
">. c #FEF9F7",
",. c gray100",
"<. c None",
/* pixels */
"<.<.<.<.<.<.<.<.<.<.<.<.<.<.<.<.<.<.<.<.<.<.<.<.<.<.<.<.<.<.<.<.",
"<.<.<.<.<.<.<.<.<.<.<.<.<.<.<.<.<.<.<.<.<.<.<.<.<.<.<.<.<.<.<.<.",
"<.<.<.<.<.<.<.<.<.<.<.<.<.<.<.<.<.<.<.<.<.<.<.<.<.<.<.<.<.<.<.<.",
"<.<.<.<.<.<.<.<.<.<.<.,.,.,.,.,.,.,.,.,.,.<.<.<.<.<.<.<.<.<.<.<.",
"<.<.<.<.<.<.<.<.<.,.,.,.,.,.,.,.,.,.,.,.,.,.,.<.<.<.<.<.<.<.<.<.",
"<.<.<.<.<.<.<.<.,.,.,.@.P Z z d d m D P %.,.,.,.<.<.<.<.<.<.<.<.",
"<.<.<.<.<.<.<.,.,.;.H g d d d d d d d d g J >.,.,.<.<.<.<.<.<.<.",
"<.<.<.<.<.<.,.,.] N d d d d d d d d d d g g V  .,.,.<.<.<.<.<.<.",
"<.<.<.<.<.,.,.} z z 8 @ d g d d d d z 8 @ 8 g m @.,.,.<.<.<.<.<.",
"<.<.<.<.,.,.;.m g > c R 8 > z d d z > d E g > g N >.,.,.<.<.<.<.",
"<.<.<.<.,.,.H g 8 g -.,.' @ > z d > % @.,.%.d 8 d L ,.,.<.<.<.<.",
"<.<.<.,.,.%.g f @ ~ ,.,.,.} % 8 5 > @.,.,.,.! o f z =.,.,.<.<.<.",
"<.<.<.,.,.P d g 8 g =.,.,.,.' . @ @.,.,.,.@.d 8 d d U ,.,.<.<.<.",
"<.<.<.,.,.C d d z > ; -.,.,.,./ ) ,.,.,.+.% % c d d F ,.,.<.<.<.",
"<.<.<.,.,.v d d d g > > =.,.,.,.,.,.,.@.% > g d d d N ,.,.<.<.<.",
"<.<.<.,.,.d d d d d z 5 @ ' ,.,.,.,.( . 7 z d d d d d ,.,.<.<.<.",
"<.<.<.,.,.d d d d d z 8 o _ ,.,.,.,.^   8 g d d d d d ,.,.<.<.<.",
"<.<.<.,.,.v d d d z > % @.,.,.,.,.,.,.' @ 7 z d d d N ,.,.<.<.<.",
"<.<.<.,.,.C d d j > % @.,.,.,._ [ ,.,.,.] @ > c d d F ,.,.<.<.<.",
"<.<.<.,.,.P d g 8 d @.,.,.,.@.  @ -.,.,.,.} 8 8 d d U ,.,.<.<.<.",
"<.<.<.,.,.%.g g o W ,.,.,...% 7 6 ; -.,.,.,.Y o d z =.,.,.<.<.<.",
"<.<.<.<.,.,.H f 8 d  .,.@.% > z g > > -.,.} d 8 g L ,.,.<.<.<.<.",
"<.<.<.<.,.,.;.m j 3 8 T d > g d g z % z E d > z N >.,.,.<.<.<.<.",
"<.<.<.<.<.,.,.} v j 8 % 8 z d d g d z 8 @ 8 g b @.,.,.<.<.<.<.<.",
"<.<.<.<.<.<.,.,.] N d f d d d d d d d d g g B @.,.,.<.<.<.<.<.<.",
"<.<.<.<.<.<.<.,.,.;.H j d d d d d d d d c J >.,.,.<.<.<.<.<.<.<.",
"<.<.<.<.<.<.<.<.,.,.,.%.P A v d d m D I %.,.,.,.<.<.<.<.<.<.<.<.",
"<.<.<.<.<.<.<.<.<.,.,.,.,.,.,.,.,.,.,.,.,.,.,.<.<.<.<.<.<.<.<.<.",
"<.<.<.<.<.<.<.<.<.<.<.,.,.,.,.,.,.,.,.,.,.<.<.<.<.<.<.<.<.<.<.<.",
"<.<.<.<.<.<.<.<.<.<.<.<.<.<.<.<.<.<.<.<.<.<.<.<.<.<.<.<.<.<.<.<.",
"<.<.<.<.<.<.<.<.<.<.<.<.<.<.<.<.<.<.<.<.<.<.<.<.<.<.<.<.<.<.<.<.",
"<.<.<.<.<.<.<.<.<.<.<.<.<.<.<.<.<.<.<.<.<.<.<.<.<.<.<.<.<.<.<.<."
};
