/* XPM */
static const char *on[] = {
/* columns rows colors chars-per-pixel */
"32 32 118 2 ",
"   c #14AF61",
".  c #18B466",
"X  c #19B268",
"o  c #19B468",
"O  c #19B56A",
"+  c #1AB46A",
"@  c #1BB56A",
"#  c #1AB46B",
"$  c #1BB56B",
"%  c #1CB56D",
"&  c #1DB76F",
"*  c #1EB76F",
"=  c #1EB86F",
"-  c #1FB86F",
";  c #1FB871",
":  c #20BA73",
">  c #21BA73",
",  c #22BA75",
"<  c #22BB75",
"1  c #23BB75",
"2  c #24BD79",
"3  c #26BE7B",
"4  c #28BE7D",
"5  c #29BF7D",
"6  c #2ABF7F",
"7  c #2AC17F",
"8  c #2BC17F",
"9  c #2BBF80",
"0  c #2BC180",
"q  c #2CC180",
"w  c #2DC280",
"e  c #2DC282",
"r  c #2FC284",
"t  c #30C484",
"y  c #32C588",
"u  c #33C58A",
"i  c #35C68A",
"p  c #35C68C",
"a  c #36C68C",
"s  c #37C68C",
"d  c #37C68E",
"f  c #37C88E",
"g  c #39C88E",
"h  c #3AC88E",
"j  c #39C890",
"k  c #39C990",
"l  c #3AC890",
"z  c #3AC990",
"x  c #3BC992",
"c  c #3DC992",
"v  c #3ECA94",
"b  c #3ECA95",
"n  c #40CA95",
"m  c #40CC95",
"M  c #41CC97",
"N  c #44CD99",
"B  c #45CE9B",
"V  c #47CE9D",
"C  c #4BCF9E",
"Z  c #50D2A4",
"A  c #52D2A5",
"S  c #53D3A5",
"D  c #56D4A7",
"F  c #5AD5AA",
"G  c #5BD5AC",
"H  c #5DD6AC",
"J  c #5FD6AC",
"K  c #5FD7AD",
"L  c #61D7AF",
"P  c #62D7AF",
"I  c #61D9AD",
"U  c #64D9B1",
"Y  c #66D9B2",
"T  c #66DAB2",
"R  c #68D9B2",
"E  c #6ADAB4",
"W  c #6ADBB4",
"Q  c #6ADBB5",
"!  c #6BDBB5",
"~  c #71DCB8",
"^  c #7BDFBE",
"/  c #82E1C1",
"(  c #84E1C2",
")  c #88E2C4",
"_  c #88E2C5",
"`  c #8CE3C6",
"'  c #94E5C9",
"]  c #A7EAD4",
"[  c #A9EAD4",
"{  c #ADEBD6",
"}  c #C8F1E4",
"|  c #D3F4EA",
" . c #D6F5EB",
".. c #D7F5EB",
"X. c #DBF6ED",
"o. c #DDF7EE",
"O. c #DEF7EE",
"+. c #E1F7F0",
"@. c #E2F8F0",
"#. c #E4F8F1",
"$. c #E4F8F2",
"%. c #E6F9F2",
"&. c #E6F9F3",
"*. c #E7F9F4",
"=. c #E8F9F4",
"-. c #E9FAF4",
";. c #EBFAF5",
":. c #EEFBF6",
">. c #F8FDFC",
",. c #F9FDFC",
"<. c #F9FEFC",
"1. c #FAFEFD",
"2. c #FDFEFE",
"3. c #FDFFFE",
"4. c #FEFFFE",
"5. c #FEFFFF",
"6. c gray100",
"7. c None",
/* pixels */
"7.7.7.7.7.7.7.7.7.7.7.7.7.7.7.7.7.7.7.7.7.7.7.7.7.7.7.7.7.7.7.7.",
"7.7.7.7.7.7.7.7.7.7.7.7.7.7.7.7.7.7.7.7.7.7.7.7.7.7.7.7.7.7.7.7.",
"7.7.7.7.7.7.7.7.7.7.7.7.7.7.7.7.7.7.7.7.7.7.7.7.7.7.7.7.7.7.7.7.",
"7.7.7.7.7.7.7.7.7.7.7.6.6.6.6.6.6.6.6.6.6.7.7.7.7.7.7.7.7.7.7.7.",
"7.7.7.7.7.7.7.7.7.6.6.6.6.6.6.6.6.6.6.6.6.6.6.7.7.7.7.7.7.7.7.7.",
"7.7.7.7.7.7.7.7.6.6.6.;.] L n a i M U [ ;.6.6.6.7.7.7.7.7.7.7.7.",
"7.7.7.7.7.7.7.6.6.>./ x a a a a a a a a x ) >.6.6.7.7.7.7.7.7.7.",
"7.7.7.7.7.7.6.6.+.V i a a a a a a a a a a a C #.6.6.7.7.7.7.7.7.",
"7.7.7.7.7.6.6.#.x a a a a a a a a a a a a a a v *.6.6.7.7.7.7.7.",
"7.7.7.7.6.6.>.M a a a a a a a a a a a i l 4 e l B >.6.6.7.7.7.7.",
"7.7.7.7.6.6.( a a a a a a a a a a a i x < G S < x ` 6.6.7.7.7.7.",
"7.7.7.6.6.;.g a a a a a a a a a a a g # S 6.>.v - c :.6.6.7.7.7.",
"7.7.7.6.6.] a a a a i i a a a a a g # D 6.6.6.>.J 4 { 6.6.7.7.7.",
"7.7.7.6.6.L a a g 3 < y g a a s x # F 6.6.6.6.6.' < E 6.6.7.7.7.",
"7.7.7.6.6.v a g # ^  .< e g i g # F 6.6.6.6.6.~ # g B 6.6.7.7.7.",
"7.7.7.6.6.a g > R 6.6.| # e c . I 6.6.6.6.6.~ X g s a 6.6.7.7.7.",
"7.7.7.6.6.a 2 E 6.6.6.6. .%   P 6.6.6.6.6.E # s s s a 6.6.7.7.7.",
"7.7.7.6.6.v r a @.6.6.6.6.} G 6.6.6.6.6.E . g s s s N 6.6.7.7.7.",
"7.7.7.6.6.L x 4 * o.6.6.6.6.6.6.6.6.6.P # g s a s u Q 6.6.7.7.7.",
"7.7.7.6.6.] a x 4 > o.6.6.6.6.6.6.6.H # g s a a f f { 6.6.7.7.7.",
"7.7.7.6.6.;.s a x e * o.6.6.6.6.>.I # g i i a a i x :.6.6.7.7.7.",
"7.7.7.7.6.6.( a a s 7 * X.6.6.6.D # g a a a a a a ` 6.6.7.7.7.7.",
"7.7.7.7.6.6.>.M a a g e - @.6.F # x i a a a a a B >.6.6.7.7.7.7.",
"7.7.7.7.7.6.6.#.c a a g 9 u Z 1 s i a a a a a n ;.6.6.7.7.7.7.7.",
"7.7.7.7.7.7.6.6.@.V a i g y 4 g a a a a a s C #.6.6.7.7.7.7.7.7.",
"7.7.7.7.7.7.7.6.6.>./ x i i a a a a a a v ) >.6.6.7.7.7.7.7.7.7.",
"7.7.7.7.7.7.7.7.6.6.6.;.] U n a a M U [ ;.6.6.6.7.7.7.7.7.7.7.7.",
"7.7.7.7.7.7.7.7.7.6.6.6.6.6.6.6.6.6.6.6.6.6.6.7.7.7.7.7.7.7.7.7.",
"7.7.7.7.7.7.7.7.7.7.7.6.6.6.6.6.6.6.6.6.6.7.7.7.7.7.7.7.7.7.7.7.",
"7.7.7.7.7.7.7.7.7.7.7.7.7.7.7.7.7.7.7.7.7.7.7.7.7.7.7.7.7.7.7.7.",
"7.7.7.7.7.7.7.7.7.7.7.7.7.7.7.7.7.7.7.7.7.7.7.7.7.7.7.7.7.7.7.7.",
"7.7.7.7.7.7.7.7.7.7.7.7.7.7.7.7.7.7.7.7.7.7.7.7.7.7.7.7.7.7.7.7."
};
