/* XPM */
static const char *user[] = {
/* columns rows colors chars-per-pixel */
"32 32 69 1 ",
"  c #1D6FD0",
". c #1F71D2",
"X c #1F73D2",
"o c #2073D2",
"O c #2175D3",
"+ c #2277D3",
"@ c #2579D4",
"# c #257BD4",
"$ c #287DD5",
"% c #297DD5",
"& c #297FD6",
"* c #2C82D7",
"= c #2D84D7",
"- c #2F84D7",
"; c #3086D9",
": c #3990DB",
"> c #4095DD",
", c #4197DE",
"< c #459BDF",
"1 c #479DE0",
"2 c #55A7E3",
"3 c #58A9E4",
"4 c #5FADE5",
"5 c #5FAFE6",
"6 c #62B1E6",
"7 c #64B1E6",
"8 c #68B4E6",
"9 c #6DB7E8",
"0 c #6FB8E8",
"q c #71B8E8",
"w c #8AC5EC",
"e c #8AC6ED",
"r c #9BCEEF",
"t c #A0D0F0",
"y c #A4D2F0",
"u c #ACD5F2",
"i c #B1D9F2",
"p c #B2DAF3",
"a c #B8DCF4",
"s c #BADDF4",
"d c #BBDEF4",
"f c #BDDEF4",
"g c #C2E1F5",
"h c #C8E4F6",
"j c #CAE5F6",
"k c #CCE6F7",
"l c #CFE7F7",
"z c #CFE8F7",
"x c #D3EAF8",
"c c #D5EBF8",
"v c #DEEFFA",
"b c #E0F0FA",
"n c #E3F1FA",
"m c #E6F3FB",
"M c #EAF5FC",
"N c #EBF5FC",
"B c #EEF6FC",
"V c #F0F8FD",
"C c #F2F9FD",
"Z c #F4FAFD",
"A c #F5FAFD",
"S c #F9FCFE",
"D c #FAFCFE",
"F c #FCFDFE",
"G c #FDFEFF",
"H c #FEFEFF",
"J c #FEFFFF",
"K c gray100",
"L c None",
/* pixels */
"LLLLLLLLLLLLLLLLLLLLLLLLLLLLLLLL",
"LLLLLLLLLLLLLLLLLLLLLLLLLLLLLLLL",
"LLLLLLLLLLLLLLLLLLLLLLLLLLLLLLLL",
"LLLLLLLLLLLLLKKKKKKLLLLLLLLLLLLL",
"LLLLLLLLLLLKKKKKKKKKKLLLLLLLLLLL",
"LLLLLLLLLLKKKg3-;6lKKKLLLLLLLLLL",
"LLLLLLLLLKKKq      wKKKLLLLLLLLL",
"LLLLLLLLLKKw        uKKLLLLLLLLL",
"LLLLLLLLLKC+        *DKLLLLLLLLL",
"LLLLLLLLKKd          xKKLLLLLLLL",
"LLLLLLLLKKt          fKKLLLLLLLL",
"LLLLLLLLKKd          lKKLLLLLLLL",
"LLLLLLLLLKM.        +ZKLLLLLLLLL",
"LLLLLLLLLKK9        wKKLLLLLLLLL",
"LLLLLLLLLKKD<      4KKKLLLLLLLLL",
"LLLLLLLLLLKKKt&o.=iKKKLLLLLLLLLL",
"LLLLLLLLLKKSKKKBCKKDKKKLLLLLLLLL",
"LLLLLLLLKKh:1xKKKKh11bKKLLLLLLLL",
"LLLLLLLKKd    8mv2   obKKLLLLLLL",
"LLLLLLKKM.            -DKKLLLLLL",
"LLLLLLKK4              rKKLLLLLL",
"LLLLLLKK&             o:KKLLLLLL",
"LLLLLLKK               $KKLLLLLL",
"LLLLLLKK               +KKLLLLLL",
"LLLLLLKK+              ;KKLLLLLL",
"LLLLLLKKi#            -zKKLLLLLL",
"LLLLLLLKKMy7>*&##&=10iZKKLLLLLLL",
"LLLLLLLLKKKKKKKKKKKKKKKKLLLLLLLL",
"LLLLLLLLLKKKKKKKKKKKKKLLLLLLLLLL",
"LLLLLLLLLLLLLLLLLLLLLLLLLLLLLLLL",
"LLLLLLLLLLLLLLLLLLLLLLLLLLLLLLLL",
"LLLLLLLLLLLLLLLLLLLLLLLLLLLLLLLL"
};
