/* XPM */
static const char *buttonDblLeftDisabled[] = {
/* columns rows colors chars-per-pixel */
"48 48 34 1 ",
"  c black",
". c gray5",
"X c #1B1B1B",
"o c gray12",
"O c #202020",
"+ c gray14",
"@ c gray16",
"# c #2C2C2C",
"$ c gray20",
"% c #343434",
"& c #393939",
"* c #3E3E3E",
"= c gray25",
"- c #464646",
"; c #484848",
": c gray31",
"> c #535353",
", c #555555",
"< c #585858",
"1 c #5F5F5F",
"2 c gray38",
"3 c gray40",
"4 c #686868",
"5 c #6C6C6C",
"6 c gray45",
"7 c #767676",
"8 c #7B7B7B",
"9 c gray50",
"0 c #808080",
"q c gray54",
"w c #8D8D8D",
"e c #939393",
"r c gray58",
"t c gray60",
/* pixels */
"333333333333333333333333333333333333333333333333",
"333333333339tqt633<-$+OooO+$=1233333333333333333",
"3333333333t9900t#XXXoXXXXoXXXXo#3333333333333333",
"333333336r983-09Xo+&>256652>&+XX#333333333333333",
"33333336w06,==09X$,5790000975<%oXX@3333333333333",
"3333336w05;==>042890000900990082$oX@333333333333",
"333333e95256220999990986689999998:OX+33333333333",
"33333t969009990981-,99*$$*995699002#oO3333333333",
"333300940,OO,006====97$$$$89:$;69995$X+333333333",
"3335e0260O  O09*====93$$$$302$%%19904@X@33333333",
"333w05-60O  O092-==>9>$$$$>97%%$$>9902+X#3333333",
"333t01*20,OO,0009-=<0%$$$$%99*$$$$>900;oX3333333",
"33708>=-809998@,92=48$$$$$$89:$$$$$1008#X@333333",
"33w05=**-290:. O95-04#$$$$$493$$$$$$7001oX#33333",
"336086666680o  O96;0:$$$$$$;96$$$$$$=909$Xo33333",
"333t00999990,OO,92:0%$$$$$$%96$$$$$$$,90<oX23333",
"33333$*603>900008-19$$$$$$$$89=$$$$$$*906+o,3333",
"3333=X&98=*-2562-*49$$$$$$$$50,$$$$$$$509*X=3333",
"3333%X>95========*67%%%%$%%%10<%$$$$$$-99>X#3333",
"3334+X208=====**=*895444444470721<111<5093X@3333",
"3333OX500866666669000000000090000000000096Xo3333",
"3333oX890099009999000000000000000000000098Xo3333",
"3333XX907%O+O++OOO+O+O+O++++++++++++++&799XX3333",
"3333XX996@XoXXoXoXoXoXoXXXXXXXXXXXXXXX#690XX3333",
"3333XX996@o><<<11<<<1<<<<<<1<<1<<1<<>X#699XX3333",
"3333oX997$X;343333433343343333333333;X$709XX3333",
"3333oX698&o=333333333333333333333333;X%707Xo3333",
"3333Oo409;X@333333333333333333333333-X&805XO3333",
"3333@X1902OX133333333333333333333333@X;801o@3333",
"3333%o;907&o=3333333333333333333333,Xo300;X%3333",
"3333-X%999>X#3333333333333333333333*X*809&X-3333",
"33331oO4992oo2333333333333333333333Oo<004Oo<3333",
"33332oX:996$X@33333333333333333333@X$699:XX33333",
"33333#X@7091oX>333333333333333333>Xo1098#X#33333",
"333333XX:009-oo233333333333333332oX-809:XX333333",
"333333#X@5007%Xo<33333333333333,oo%7996@X#333333",
"3333333Xo&0096$Xo=333333333333-oX%6999*XX2333333",
"3333333#Xo,0005*Xo@2333333331@XX*6000,oo#3333333",
"33333333@XO20008>OXo#;333:&@XXO>70092+X@43333333",
"333333333@o+209995%XXoooXXXXo&499902@X@333333333",
"3333333333+oO,000075;+XXo#;<670000,+o+3333333333",
"33333333333@Xo-709009877789900097-oX+33333333333",
"333333333333@XX@,69999999999096,@oo@433333333333",
"3333333333333#XXX@:3689909863:@oXX#3333333333333",
"333333333333333#XXo$;<4443<;$oXX#333333333333333",
"33333333333333333@XXXXoXoXXoXXX#3333333333333333",
"3333333333333333332:&@++O+@&:1333333333333333333",
"333333333333333333333333333333333333333333333333"
};
