/* XPM */
static char *buttonNoClickSelected[] = {
/* columns rows colors chars-per-pixel */
"48 48 231 2",
"   c #360E0E",
".  c #2F2C2C",
"X  c #352B2B",
"o  c #3F2B2B",
"O  c #353131",
"+  c #3C3232",
"@  c #3E3B3B",
"#  c #401F1F",
"$  c #511515",
"%  c #5C1414",
"&  c #452626",
"*  c #442D2D",
"=  c #4A2E2E",
"-  c #433030",
";  c #413E3E",
":  c #4C3434",
">  c #542D2D",
",  c #5D2424",
"<  c #5E2F2F",
"1  c #503C3C",
"2  c #593232",
"3  c #6F0B0B",
"4  c #6F1010",
"5  c #761010",
"6  c #6F2525",
"7  c #6A2E2E",
"8  c #643333",
"9  c #613A3A",
"0  c #6B3434",
"q  c #6B3A3A",
"w  c #732323",
"e  c #713A3A",
"r  c #444242",
"t  c #474848",
"y  c #4C4D4D",
"u  c #4F5050",
"i  c #524545",
"p  c #5A4747",
"a  c #5B4B4B",
"s  c #545454",
"d  c #565858",
"f  c #5A5656",
"g  c #5C5C5C",
"h  c #6D4242",
"j  c #6B4C4C",
"k  c #625C5C",
"l  c #6A5353",
"z  c #6B5B5B",
"x  c #734040",
"c  c #7D4444",
"v  c #7B4949",
"b  c #765454",
"n  c #7E5353",
"m  c #7A5D5D",
"M  c #656565",
"N  c #696363",
"B  c #6B6B6B",
"V  c #776060",
"C  c #706C6C",
"Z  c #7D6060",
"A  c #7B6D6D",
"S  c #737474",
"D  c #787373",
"F  c #7C7C7C",
"G  c #8E0505",
"H  c #8C1414",
"J  c #900D0D",
"K  c #9A0808",
"L  c #832E2E",
"P  c #8B2121",
"I  c #863434",
"U  c #873A3A",
"Y  c #9C2626",
"T  c #953F3F",
"R  c #A40303",
"E  c #A90303",
"W  c #B40202",
"Q  c #B01010",
"!  c #B01A1A",
"~  c #AB2727",
"^  c #A53E3E",
"/  c #BB2323",
"(  c #814444",
")  c #814E4E",
"_  c #8E4343",
"`  c #805151",
"'  c #8B5454",
"]  c #964747",
"[  c #954C4C",
"{  c #994D4D",
"}  c #975F5F",
"|  c #9F5353",
" . c #9E5D5D",
".. c #8A7373",
"X. c #976969",
"o. c #9C6464",
"O. c #9A6B6B",
"+. c #927A7A",
"@. c #997575",
"#. c #A14D4D",
"$. c #A84D4D",
"%. c #A45353",
"&. c #B14C4C",
"*. c #BB4F4F",
"=. c #BA5050",
"-. c #BA5858",
";. c #A26363",
":. c #AB6666",
">. c #A27F7F",
",. c #BF6868",
"<. c #B77B7B",
"1. c #BC7979",
"2. c #C30D0D",
"3. c #C01212",
"4. c #D10707",
"5. c #D01717",
"6. c #CB3333",
"7. c #D03B3B",
"8. c #ED1C1C",
"9. c #F00808",
"0. c #FE0909",
"q. c #F51010",
"w. c #FD1111",
"e. c #FD1B1B",
"r. c #E92121",
"t. c #FC2626",
"y. c #FB2C2C",
"u. c #F43F3F",
"i. c #FC3434",
"p. c #FB3A3A",
"a. c #C54E4E",
"s. c #CD4646",
"d. c #CC5959",
"f. c #DF5F5F",
"g. c #C26464",
"h. c #C06A6A",
"j. c #CA6161",
"k. c #C37070",
"l. c #CF7272",
"z. c #D36161",
"x. c #D16D6D",
"c. c #D96262",
"v. c #DD6B6B",
"b. c #D67474",
"n. c #DD7171",
"m. c #DB7C7C",
"M. c #E54141",
"N. c #F54D4D",
"B. c #FB4242",
"V. c #FA4C4C",
"C. c #F35A5A",
"Z. c #F95656",
"A. c #F95D5D",
"S. c #E66C6C",
"D. c #ED6767",
"F. c #E67272",
"G. c #E27979",
"H. c #EE7777",
"J. c #F16F6F",
"K. c #F96464",
"L. c #F86B6B",
"P. c #F77272",
"I. c #F77979",
"U. c #FA7474",
"Y. c #F97C7C",
"T. c #848484",
"R. c #8C8D8D",
"E. c #958686",
"W. c #999393",
"Q. c #A18282",
"!. c #A78C8C",
"~. c #AD8787",
"^. c #A39A9A",
"/. c #A89494",
"(. c #A99D9D",
"). c #B08F8F",
"_. c #BA8181",
"`. c #BB8B8B",
"'. c #B09595",
"]. c #B39C9C",
"[. c #B99494",
"{. c #B5A3A3",
"}. c #BBB4B4",
"|. c #C09393",
" X c #CC9797",
".X c #D68484",
"XX c #D49595",
"oX c #D69B9B",
"OX c #D99090",
"+X c #DA9E9E",
"@X c #C2BBBB",
"#X c #CCB3B3",
"$X c #D6AAAA",
"%X c #D7B2B2",
"&X c #D1B9B9",
"*X c #ED8484",
"=X c #ED8F8F",
"-X c #E39F9F",
";X c #F68484",
":X c #F68D8D",
">X c #F98282",
",X c #F98A8A",
"<X c #F59494",
"1X c #F59C9C",
"2X c #F99494",
"3X c #F89E9E",
"4X c #ECA2A2",
"5X c #E8ABAB",
"6X c #E9B1B1",
"7X c #F5A3A3",
"8X c #F4AAAA",
"9X c #F8A5A5",
"0X c #F8A9A9",
"qX c #F4B2B2",
"wX c #F3BBBB",
"eX c #D4CDCD",
"rX c #DACCCC",
"tX c #DFD8D8",
"yX c #E2C6C6",
"uX c #E5C8C8",
"iX c #E9C1C1",
"pX c #E4DDDD",
"aX c #EAD4D4",
"sX c #F3C5C5",
"dX c #F2CCCC",
"fX c #F9CECE",
"gX c #F2D4D4",
"hX c #F1DBDB",
"jX c #E7E0E0",
"kX c #EFE0E0",
"lX c #F2E3E3",
/* pixels */
"M M M M M M M M M M M M M M M M M M M M M M M M M M M M M M M M M M M M M M M M M M M M M M M M ",
"M M M M M M M M M M M M M M M M M M M M M M M M M M M M M M M M M M M M M M M M M M M M M M M M ",
"M M M M M M M M M M M M M M M M M M M M M M k M M M M M M M M M M M M M M M M M M M M M M M M M ",
"M M M M M M M M M M M M M M M M M M d t @ + + * X X r y k M M M M M M M M M M M M M M M M M M M ",
"M M M M M M M M M M M M M M M M u + > U &.d.z.v._ q %.q - @ s M M M M M M M M M M M M M M M M M ",
"M M M M M M M M M M M M M M s . o =.D.P.U.U.Y.Y.g.c >X>Xn.#.> @ g M M M M M M M M M M M M M M M ",
"M M M M M M M M M M M M M r = [ 7 H.U.I.Y.>X>X,Xm.q *X,X;XY.F.] o y M M M M M M M M M M M M M M ",
"M M M M M M M M M M M M @ 8 n.H.0 v.Y.>X,X,X:X:X=Xh .X<X:X,X>XY.j.2 r M M M M M M M M M M M M M ",
"M M M M M M M M M M M ; 0 F.>X:Xv ,.,X:X:X<X<X1X1Xn 1.3X<X<X:X;X>Xn.0 @ M M M M M M M M M M M M ",
"M M M M M M M M M M t 2 S.>X,X<Xo. .<X<X3X1X1X9X0X@.O.0X1X3X1X:X,X,XG.q r M M M M M M M M M M M ",
"M M M M M M M M M d & c.Y.;X:X3X<.n 3X7X7X8X8XqXqX`.` qX8X7X3X1X<X:X:XG.2 t M M M M M M M M M M ",
"M M M M M M M M M + $.Y.;X:X1X9XXXj 5X8X8X8XqXwXwX$Xz 6XqX8X8X7X1X3X2X2Xl.o d M M M M M M M M M ",
"M M M M M M M M y 8 H.Y.,X<X1X8X5Xj +XqXwXwXwXwXsXiXz $XsXwXqXqX7XOX1.%.) o @ M M M M M M M M M ",
"M M M M M M M M + -.>X,X<X1X9XqXwXm [.wXwXsXdXdXgXgXA '.%X[.@.m j j m +.'.#Xk M M M M M M M M M ",
"M M M M M M M s 2 H.>X:X1X7X8XwXsX+.Q.fXfXaXuX&X{.E.i 1 j n o._.oX6XwXsXgXgX{.y B M M M M M M M ",
"M M M M M M M r [ >X:X1X7X8XwXsXfX/.N ].+.V j q ( %.h.m.=X3X0X0XqXwXsXsXfXgXaXN M M M M M M M M ",
"M M M M M M M - x.:X<X7X4X X~...b 9 , I ^ a.D.D.I.>X,X:X1X1X7X8X8XwXwXsXdXgXhX^.s B M M M M M M ",
"M M M M M M d = h.:.' e 8 w H ~ 6.M.N.Z.A.K.L.P.I.>X:X:X<X1X7X8XqXwXwXdXdXgXhXrXs S M M M M M M ",
"M M M M M M u   5 J Q 5.r.y.i.p.B.B.Z.Z.A.K.L.P.I.Y.;X:X:X1X7X8XqXwXwXsXdXgXhXkXC M M M M M M M ",
"M M M M M M t G 0.w.e.e.t.y.i.p.B.V.V.Z.A.K.L.P.I.>X;X:X<X1X7X8XqXwXwXuXdXgXhXlXW.M B M M M M M ",
"M M M M M M r E 0.w.e.e.t.y.i.p.B.V.V.Z.A.K.L.P.H.;X;X<X<X1X7X8XqXwXsXsXdXaXlXlX}.d S M M M M M ",
"M M M M M M @ W 0.w.e.e.t.y.i.p.B.V.V.Z.A.K.L.P.Y.;X;X:X<X1X7X8X8XwXwXsXdXgXhXlXeXd S M M M M M ",
"M M M M M M + W 0.w.e.e.t.y.i.p.B.V.Z.Z.A.K.L.P.I.>X;X:X<X1X7X8X8XwXsXsXdXgXhXkXpXf F M M M M M ",
"M M M M M M @ W 0.w.e.e.t.y.i.p.B.B.V.Z.A.K.L.U.I.;X;X:X<X1X7X8X8XwXwXsXdXgXhXlXpXk F M M M M M ",
"M M M M M M r R 0.w.e.e.t.y.i.p.B.V.V.Z.A.K.L.P.I.I.;X:X1X1X7X8XqXwXiXsXdXgXhXkXjXg F M M M M M ",
"M M M M M M y G 0.w.e.e.t.y.i.p.B.V.N.Z.A.K.L.P.I.;X:X:X<X1X7X8X8XwXwXsXdXgXhXkXjXM F M M M M M ",
"M M M M M M s 3 0.w.e.e.t.y.i.p.B.B.V.Z.A.K.L.P.I.;X;X:X<X1X7X8XqXwXsXsXdXgXhXlXtXM +.M M M M M ",
"M M M M M M g $ 9.w.e.e.t.y.i.p.B.V.Z.N.A.K.L.P.I.I.;X:X<X1X7X8X8XqXsXsXdXgXhXkXeXd F M M M M M ",
"M M M M M M M o 4.w.e.e.t.y.i.p.B.B.Z.Z.A.K.L.P.I.;X:X:X<X1X7X5XqXwXsXsXdXgXhXlX}.M F M M M M M ",
"M M M M M M M ; K w.e.e.t.y.i.p.B.V.V.Z.A.K.L.H.I.;X;X:X<X1X1X8X8XwXwXsXdXgXhXlX^.B S M M M M M ",
"M M M M M M M d % 9.e.e.t.y.i.p.B.V.V.Z.A.K.L.P.I.I.;X:X<X1X9X8X8XwXsXsXdXaXhXlXS F B M M M M M ",
"M M M M M M M M o 2.e.e.t.y.i.p.B.B.Z.Z.A.K.L.P.I.;X;X:X<X1X9X8X8XwXwXsXdXgXlXrXd T.B M M M M M ",
"M M M M M M M M u 4 e.e.y.y.i.p.B.V.V.Z.A.K.L.P.I.Y.,X:X<X1X7X8X8XwXwXuXdXgXhX(.M +.M M M M M M ",
"M M M M M M M M M o 3.e.t.y.i.p.B.B.N.Z.A.K.L.P.I.>X;X:X<X1X7X8XqXwXwXsXdXgXaXN T.B M M M M M M ",
"M M M M M M M M M d $ 8.t.y.i.p.B.V.V.Z.A.K.L.P.I.;X;X:X<X1X1X5XqXwXwXdXdXhX{.k T.M M M M M M M ",
"M M M M M M M M M M ; H t.y.i.p.B.V.V.Z.A.K.L.U.I.;X:X:X<X3X9X8XqXwXwXsXdXyXf T.S M M M M M M M ",
"M M M M M M M M M M M o ! y.i.p.B.V.V.Z.A.K.L.P.I.I.;X:X1X1X7X8X8XwXwXdXdX..B T.M M M M M M M M ",
"M M M M M M M M M M M k & ! i.p.B.B.Z.Z.A.K.L.I.I.;X:X:X<X1X7X8X8XwXwXsX!.d R.B M M M M M M M M ",
"M M M M M M M M M M M M g & / p.B.V.V.A.A.K.L.U.I.;X;X:X<X1X7X8XqXwXwX).s R.S M M M M M M M M M ",
"M M M M M M M M M M M M M M - Y u.V.V.N.A.K.L.U.I.I.;X:X<X1X7X8XqXqXQ.s R.D M M M M M M M M M M ",
"M M M M M M M M M M M M M M M r w 7.N.Z.A.K.L.U.I.>X,X:X<X1X7X0X+XV g R.S M M M M M M M M M M M ",
"M M M M M M M M M M M M M M M B d : I s.A.K.L.U.I.>X>X2X<X1XOXO.a S R.B M M M M M M M M M M M M ",
"M M M M M M M M M M M M M M M M M S d i 0 T *.d.v.n.b.h.;.n s B R.F B M M M M M M M M M M M M M ",
"M M M M M M M M M M M M M M M M M M M S B M s p p p a k M F T.F B M M M M M M M M M M M M M M M ",
"M M M M M M M M M M M M M M M M M M M M M M S S F F F F S S M M M M M M M M M M M M M M M M M M ",
"M M M M M M M M M M M M M M M M M M M M M M M M M M M M M M M M M M M M M M M M M M M M M M M M ",
"M M M M M M M M M M M M M M M M M M M M M M M M M M M M M M M M M M M M M M M M M M M M M M M M ",
"M M M M M M M M M M M M M M M M M M M M M M M M M M M M M M M M M M M M M M M M M M M M M M M M "
};
