/* XPM */
static const char *buttonMiddleSelectedLocked[] = {
/* columns rows colors chars-per-pixel */
"48 48 254 2",
"   c #105A0BB80491",
".  c #368A0EAE0EAE",
"X  c #13DD12FC2FBB",
"o  c #2E7C1DA53F2E",
"O  c #2734277E2B3F",
"+  c #3A1D2C4D2BEA",
"@  c #39BD34832BAC",
"#  c #28DA28DA3537",
"$  c #334632BC3440",
"%  c #3C13341A32E1",
"&  c #3721377D3AB3",
"*  c #3E103B023B02",
"=  c #593F14B914B9",
"-  c #72360EB90EB9",
";  c #45963DAF0B4A",
":  c #57AB3D7D09FB",
">  c #56E73C570B75",
",  c #463633671126",
"<  c #425A2C762C76",
"1  c #482F29172917",
"2  c #58C22C282CF2",
"3  c #5AE837132FA7",
"4  c #46073872349E",
"5  c #41073EC13EC1",
"6  c #54B4389E394D",
"7  c #6D572A742A74",
"8  c #67A236323654",
"9  c #569B44580983",
"0  c #520345AA0F15",
"q  c #58F0545C117F",
"w  c #672945260D4B",
"e  c #69BA4A170F08",
"r  c #697258BE0AA8",
"t  c #6AB14BC80F96",
"y  c #6ABE61461E0D",
"u  c #7E556019102F",
"i  c #633346FA2878",
"p  c #69C2659A2722",
"a  c #15F5161154E2",
"s  c #3E23394049D7",
"d  c #1600160C6ACA",
"f  c #1BAF1BAF7A2E",
"g  c #37B535046B7D",
"h  c #4D5D367E4CBF",
"j  c #64463AA646AD",
"k  c #3DBA40494523",
"l  c #42C142D043B8",
"z  c #46E3454E47E4",
"x  c #4A474B524CD6",
"c  c #579B4797496A",
"v  c #5AF34A774ABA",
"b  c #4CA14E4351F5",
"n  c #582B48AD5844",
"m  c #52C9540555AE",
"M  c #571956CB5763",
"N  c #5B815C1A5C2B",
"B  c #6AF14BBA4C0A",
"V  c #7539420C46A0",
"C  c #7AC84ACD42EF",
"Z  c #6B624FC35091",
"A  c #62F35BA35BCB",
"S  c #7AD059425A4E",
"D  c #7BAE7E4045C8",
"F  c #5F2B5FAF627A",
"G  c #52874E0A71A8",
"H  c #70645BDE62B0",
"J  c #5E59605F605F",
"K  c #665B66606662",
"L  c #6213635D683E",
"P  c #67166821694F",
"I  c #6A616AA56AA5",
"U  c #761C6CE96D30",
"Y  c #66B56B187379",
"T  c #742072C9733C",
"R  c #76AC747B76FB",
"E  c #7BDC7BB97BC6",
"W  c #8E95054D054D",
"Q  c #96230AF90AF9",
"!  c #8D6714A914A9",
"~  c #A7BA038B038B",
"^  c #B54C02B402B4",
"/  c #B148159F159F",
"(  c #880128792879",
")  c #923432AD33EC",
"_  c #BC0923FE23FE",
"`  c #A92A333D332B",
"'  c #CA260FA00FA0",
"]  c #F18E08B008B0",
"[  c #FFD109FA09FA",
"{  c #EEDA1CD11CD1",
"}  c #F5F810211021",
"|  c #FEF211F111F1",
" . c #FE7C1C1B1C1B",
".. c #CEC737C737C7",
"X. c #EA2221B321B3",
"o. c #FDC2265A265A",
"O. c #FCF42D042D04",
"+. c #FD2D34783478",
"@. c #FC6D3B2C3B2C",
"#. c #9E457E4B0000",
"$. c #A5DC680C00CF",
"%. c #AFC773A70000",
"&. c #AFC17B5A0000",
"*. c #B15271910000",
"=. c #81B64F044BFA",
"-. c #98EA4BC04B2A",
";. c #8AFE57FC5827",
":. c #A01B53A553D6",
">. c #A5C04D814D81",
",. c #A51253815369",
"<. c #BB5A54A554A5",
"1. c #96A75FB9608D",
"2. c #87EE6CD36D27",
"3. c #9BBD669366D2",
"4. c #8E2D71117111",
"5. c #95BA78D67937",
"6. c #AC7866816681",
"7. c #BCCA7B0C7A24",
"8. c #CAD14B0B4A5E",
"9. c #E6094159415B",
"0. c #FC2442694269",
"q. c #FB9049394939",
"w. c #FAE253AF53AE",
"e. c #F4235B105B10",
"r. c #FA4B5DD75DD7",
"t. c #E19760855F3E",
"y. c #C52C6840680D",
"u. c #D75568526852",
"i. c #C9F174A074D7",
"p. c #DB32775D775E",
"a. c #E40D6DCF6DCF",
"s. c #FA1665636563",
"d. c #F2AE6FA76EE6",
"f. c #F9436C0C6C0C",
"g. c #E4E6765A765A",
"h. c #EB2073317331",
"j. c #F1A174137413",
"k. c #F90A73507350",
"l. c #F83E7A1F7A1F",
"z. c #FAB97CCB7CBF",
"x. c #B1B7859D02B4",
"c. c #DE1B8E3102C8",
"v. c #C6F799F0079C",
"b. c #E9799B65009B",
"n. c #DDFBB2240000",
"m. c #EBD2A46F02DA",
"M. c #E98AAC5E01EE",
"N. c #F4A6A7770000",
"B. c #F460AD300487",
"V. c #EA5EB9C30D65",
"C. c #F71DB244019A",
"Z. c #FA66B5610038",
"A. c #F52DBAB704DD",
"S. c #FE57BD7C0045",
"D. c #FF2DC30F0311",
"F. c #FA71C4B50AFB",
"G. c #F0E1CF35083F",
"H. c #FF43CBA10A74",
"J. c #F8E0C9F114EC",
"K. c #FEFCD34B141B",
"L. c #F5F1DCF8132C",
"P. c #F6DCE32E1143",
"I. c #F921E4AC1466",
"U. c #FF40DE2E249E",
"Y. c #FB94D9452887",
"T. c #FE20E5CF3A6F",
"R. c #FFC2EA403AD5",
"E. c #82AD845D4E54",
"W. c #B46AB67C7DE3",
"Q. c #1F581F588CC3",
"!. c #2606269886BA",
"~. c #2AB62B27999A",
"^. c #376238DD93E5",
"/. c #38EC38ECA6D3",
"(. c #488E48578737",
"). c #7024794784E8",
"_. c #644363479B97",
"`. c #43094309AED0",
"'. c #499C499CB48B",
"]. c #545054BABB92",
"[. c #541A541DBD31",
"{. c #5F436035AC3A",
"}. c #6EB9701AB889",
"|. c #5C5F5C5FC34F",
" X c #608460B0C76A",
".X c #66B166F9C851",
"XX c #689568C6CC6C",
"oX c #7A067B48C7B0",
"OX c #6E1D6E22D2BA",
"+X c #73457345D620",
"@X c #7C397C39DE10",
"#X c #7D5F82BE8A30",
"$X c #7D2A86C99037",
"%X c #950E84D88502",
"&X c #8FD08EDF9413",
"*X c #983497489A09",
"=X c #ABC887EF88B7",
"-X c #BAC582158215",
";X c #A855988C9845",
":X c #B4B2983597E2",
">X c #9A4A9E1DA435",
",X c #9CE2A07CA75A",
"<X c #A57FA7ACABAB",
"1X c #B62AAA58AA4F",
"2X c #AF88AF62B39B",
"3X c #ACE0B446BE31",
"4X c #D189858984AA",
"5X c #C9BC9A599A41",
"6X c #D84F96AC9625",
"7X c #EDE68930881B",
"8X c #F7A284A1849B",
"9X c #FA6083818376",
"0X c #F7218DAF8DAB",
"qX c #FA468C1F8C1F",
"wX c #F8C58FFC907F",
"eX c #E7BF95AB9638",
"rX c #F6DD956B956B",
"tX c #FA5793B593D0",
"yX c #F5FC9C4C9C4A",
"uX c #F9369EB29EB1",
"iX c #D8BCABE3AB24",
"pX c #CD3EB469B469",
"aX c #D869B5CEB89F",
"sX c #E9E9A657A60C",
"dX c #F601A3F2A3F2",
"fX c #F5ACABFCABFC",
"gX c #F99EA835A82B",
"hX c #E791B423B3C9",
"jX c #F543B26AB263",
"kX c #F894B70DB70D",
"lX c #F4A3BC17BC12",
"zX c #8D718F91DE84",
"xX c #AF05B7B1C216",
"cX c #B304BB04C37E",
"vX c #BBB4BFA8C59F",
"bX c #844D844DE440",
"nX c #8CA58CA5EB23",
"mX c #92409266EE36",
"MX c #98689929F28B",
"NX c #9CC19CF8F998",
"BX c #A3C1A3DFFEC9",
"VX c #BEB2C408CA6C",
"CX c #D92CCB40CC30",
"ZX c #C8EDCE25D480",
"AX c #CD7FD250D814",
"SX c #F4BFC5DBC5D9",
"DX c #F478CCD4CCD4",
"FX c #E606D753D753",
"GX c #F42FD49CD49B",
"HX c #F3C8DC93DC93",
"JX c #DAD2DD20E10A",
"KX c #E91CE8F4EB53",
"LX c #F3E8E4D7E4D5",
"PX c #EC41EE86F167",
/* pixels */
"K K K K K K K K K K K K K K K K K K K K K K K K K K K K K K K K K K K K K K K K K K K K K K K K ",
"K K K K K K K K K K K K K K K K K K K K K K K K K K K K K K K K K K K K K K K K K K K K K K K K ",
"K K K K K K K K K K K K K K K K K K K P P K K K K K P P K K K K K K K K K K K K K K K K K K K K ",
"K K K K K K K K K K K K K K K K P K N z & # # # O $ 5 x N K K K K K K K K K K K K K K K K K K K ",
"K K K K K K K K K K K K K K K K x # X a d f !.!.a 8 ,.8 < * M K K K K K K K K K K K K K K K K K ",
"K K K K K K K K K K K K K K m + X d Q.~.~.~././.!.V 9Xz.a.>.2 * N P K K K K K K K K K K K K K K ",
"K K K K K K K K K K K K K z 1 -.o ~.~././././.`./.h 7XqX8Xz.h.-.< x K K K K K K K K K K K K K K ",
"K K K K K K K K K K K K * 8 u.8Xh ~././.`.'.'.].].s 4XtX0X8X9Xz.y.2 l K K K K K K K K K K K K K ",
"K K K K K K K K K K K 5 8 h.9X0XV ^.'.'.].[.[.|. Xg 7.uXrXtX0X8X9Xa.8 * K K K K K K K K K K K K ",
"K K K K K K K K K K z 2 a.9XqXtX1.g [.[.|. X.XXXOX(.3.gXdXyXrXtXqX8Xg.8 l K K K K K K K K K K K ",
"K K K K K K K K K M 1 u.z.8XtXuX7.g  X.XXXOX+X+X@X{.S jXfXdXdXyXrX0XqXg.3 x P K K K K K K K K K ",
"K K K K K K K K K % >.z.8X0XyXdX6Xh XX+X+X@X@XbXbXoXn hXkXfXfXdXuXyXrXtXi.< N K K K K K K K K K ",
"K K K K K K K P x 8 j.9X0XrXdXfXsXn .X@XbXbXnXnXmXmXG iXSXlXkXfXsX6X7.3.=.< * I K K K K K K K K ",
"K K K K K K K K % <.9XqXrXyXgXjXlXH }.nXnXmXMXNXBXBXG :XaX:X5.S B Z S 5.:XpXA L P K K K K K K K ",
"K K K K K K K m 3 h.8XtXyXdXfXlXSX5._.NXNXNXMXzXoX_.s 6 B S 3.-X6XhXlXDXGXHX1Xx I K K K K K K K ",
"K K K K K K P 5 -.9X0XrXdXfXkXSXDX;XG }._.G h j V :.y.p.0XyXgXfXjXlXlXSXDXGXFXA K P K K K K K K ",
"K K K K K K K % u.qXrXyXeX5X=X4.S 8 2 ) ` 8.t.d.l.9XqX0XrXyXdXfXjXlXlXSXDXGXHX;Xm I K K K K K K ",
"K K K K K K N < y.6.;.V 7 7 ( ` ..9.q.w.r.s.f.k.l.9X8X0XrXyXdXfXjXlXlXSXDXGXHXCXm T K K K K K K ",
"K K K K K P m . - Q / ' X.O.+.@.0.q.w.w.r.s.f.k.l.9X8X0XrXyXdXfXjXlXlXSXDXGXHXLXU I P K K K K K ",
"K K K K K P z W [ |  . .o.O.+.@.0.q.w.w.r.s.f.k.l.9X8X0XrXyXdXfXjXlXlXSXDXGXHXLX*XN I K K K K K ",
"K K K K K P 5 ~ [ |  . .o.O.+.@.0.q.w.w.r.s.f.k.l.9X8X0XrXyXdXfXjXlXlXSXDXGXHXLX2XM T K K K K K ",
"K K K K K P * ^ [ |  . .o.O.+.@.0.q.w.w.r.s.f.k.l.9X8X0XrXyXdXfXjXlXlXSXDXGXHXLXCXM R K K K K K ",
"K K K K K P * ^ [ |  . .o.O.+.@.0.q.w.w.r.s.f.k.l.9X8X0XrXyXdXfXjXlXlXSXDXGXHXLXFXN E K K K K K ",
"K K K K K P * ^ [ |  . .o.O.+.@.0.q.w.w.r.s.f.k.l.9X8X0XrXyXdXfXjXlXSXDXGXGXHXLXLXL E K K K K K ",
"K K K K K P l ~ [ |  . .o.O.+.@.0.q.w.w.r.s.f.k.l.9X8X0XrXyXdXfXjXlXiX=X2.U T %X2XN E K K K K K ",
"K K K K K P x W [ |  . .o.O.+.@.0.q.w.w.r.s.f.k.l.9X8X0XrXyXdXfXsX2.c T *X<X<X&XN O K P K K K K ",
"K K K K K P m - [ |  . .o.O.+.@.0.q.w.w.r.s.f.k.l.9X8X0XrXyXdXsXZ L VXKXPXKXPXPXJX*X& x K K K K ",
"K K K K K K N = ] |  . .o.O.+.@.0.q.w.w.r.s.f.k.l.9X8X0XrXyXdXS L ZXAX>XY F L #XvXJX,X$ M K K K ",
"K K K K K K K < ' |  . .o.O.+.@.0.q.w.w.r.s.f.k.l.9X8X0XrXuX4Xz 3XZXY c %X:X;XT x <XZXR $ K K K ",
"K K K K K K P l Q |  . .o.O.+.@.0.q.w.w.r.s.f.k.l.9X8X0XrXuX;.P VX#Xv hXGXGXHXLXE k cX<X$ N K K ",
"K K K K K K K M = }  . .o.O.+.@.0.q.w.w.r.s.f.k.l.9X8X0XrXyXB #XcXb =XDXDXGXHXLXT O &XcXl b P K ",
"K K K K K K K K + '  . .o.O.+.@.0.q.w.w.r.s.f.k.l.9X8X0XrXyXv $XxXz 5XDXDXGXHXCXN l ).cXx x P K ",
"K K K K K K K P x -  . .o.O.+.@.0.q.w.w.r.s.f.k.l.9X8X0XrXeX6 ).3Xs =XaXaXaXCX&Xm s Y xXz l K K ",
"K K K K K K K K K + '  .o.O.+.@.0.q.w.w.r.s.f.k.l.9X8XtXi.i 0 E.W.p q y y y p q q q D W.p ; 5 K ",
"K K K K K K K K K m = { o.O.+.@.0.q.w.w.r.s.f.k.l.9X8XtX=.#.G.L.I.I.P.P.P.P.P.P.P.P.I.I.G.n.0 M ",
"K K K K K K K K K K 5 ! o.O.+.@.0.q.w.w.r.s.f.k.l.9X8XwXC x.J.T.R.R.R.R.R.R.R.R.R.R.R.T.Y.M.9 m ",
"K K K K K K K K K K L < / O.+.@.0.q.w.w.r.s.f.k.l.9X8XwXC &.F.Y.U.U.U.U.U.U.U.U.U.U.U.U.J.M.9 m ",
"K K K K K K K K K K K N 1 _ +.@.0.q.w.w.r.s.f.k.l.9X8XwXC &.A.J.K.K.K.K.K.V.J.K.K.K.K.K.F.m.9 m ",
"K K K K K K K K K K K P N 1 _ @.0.q.w.w.r.s.f.k.l.9X8XwXC %.C.F.H.H.H.H.v., u F.H.H.H.F.A.m.: m ",
"K K K K K K K K K K K K P J < ( 0.q.w.w.r.s.f.k.l.9X8XwXC %.B.A.D.D.D.D.x.  : A.D.D.D.D.Z.b.: m ",
"K K K K K K K K K K K K K P K l 7 ..w.w.r.s.f.k.l.9X8XwXC %.N.Z.S.D.D.D.A.9 x.D.D.D.D.S.C.b.> m ",
"K K K K K K K K K K K K K K K I N 4 ( 8.e.s.f.k.l.9XqXtXC %.N.Z.S.S.S.S.S.r v.D.S.S.S.S.C.b.> m ",
"K K K K K K K K K K K K K K K K I I N 6 8 ) <.u.u.p.p.i.3 *.N.Z.S.S.S.S.S.n.A.S.S.S.S.S.C.b.> m ",
"K K K K K K K K K K K K K K K K K K I T I L M v c v v A @ *.N.Z.S.S.S.S.S.S.S.S.S.S.S.S.C.b.> m ",
"K K K K K K K K K K K K K K K K K K K K P I T R E E E E 4 *.N.Z.S.S.S.S.S.S.S.S.S.S.S.Z.B.b.> m ",
"K K K K K K K K K K K K K K K K K K K K K K K K K K K K % $.b.m.B.B.B.B.B.B.B.B.B.B.B.B.m.c.> m ",
"K K K K K K K K K K K K K K K K K K K K K K K K K K K K x , w e e t t t t t t t t t e e e : @ L ",
"K K K K K K K K K K K K K K K K K K K K K K K K K K K K K m x x x x x x x x x x x x x x x x F K "
};
