/* XPM */
static const char *buttonNoClickSelected[] = {
/* columns rows colors chars-per-pixel */
"48 48 88 1 ",
"  c #353535",
". c gray22",
"X c #3A3A3A",
"o c #3F3F3F",
"O c gray25",
"+ c #414141",
"@ c gray27",
"# c #494949",
"$ c #4C4C4C",
"% c #505050",
"& c #565656",
"* c gray35",
"= c #5B5B5B",
"- c gray37",
"; c #606060",
": c #626262",
"> c gray39",
", c gray40",
"< c #676767",
"1 c gray42",
"2 c #6C6C6C",
"3 c #727272",
"4 c #777777",
"5 c #797979",
"6 c #7C7C7C",
"7 c #02FF02",
"8 c #14FF14",
"9 c #15FF15",
"0 c #18FF18",
"q c #1DFF1D",
"w c #21FF21",
"e c #2DFF2D",
"r c #34FF34",
"t c #39FF39",
"y c #3EFF3E",
"u c #41FF41",
"i c #4DFF4D",
"p c #6CFF6C",
"a c #70FF70",
"s c #76FF76",
"d c #7BFF7B",
"f c gray51",
"g c gray53",
"h c #898989",
"j c #8E8E8E",
"k c #929292",
"l c #959595",
"z c #989898",
"x c #9D9D9D",
"c c gray63",
"v c #A5A5A5",
"b c gray66",
"n c #AEAEAE",
"m c #B1B1B1",
"M c gray71",
"N c gray72",
"B c gray75",
"V c #8CFF8C",
"C c #92FF92",
"Z c #98FF98",
"A c #9CFF9C",
"S c #9FFF9F",
"D c #BBFFBB",
"F c #C0C0C0",
"G c gray76",
"H c gray77",
"J c #CBCBCB",
"K c gray80",
"L c LightGray",
"P c #D5D5D5",
"I c gray86",
"U c gray87",
"Y c #C8FFC8",
"T c #CFFFCF",
"R c gray88",
"E c #E1E1E1",
"W c #E4E4E4",
"Q c gray92",
"! c #ECECEC",
"~ c gray93",
"^ c #E1FFE1",
"/ c #E9FFE9",
"( c #F1F1F1",
") c gray97",
"_ c honeydew",
"` c #FBFBFB",
"' c #FBFFFB",
"] c gray100",
/* pixels */
",,,,,,,,,,,,,,,,,,,,,,,,,,,,,,,,,,,,,,,,,,,,,,,,",
",,,,,,,,,,,,,,,,,,:&$+oXXo@#&:,,,,,,,,,,,,,,,,,,",
",,,,,,,,,,,,,,,,#              #,,,,,,,,,,,,,,,,",
",,,,,,,,,,,,,,,# X@3cGUWWUGv3#  #,,,,,,,,,,,,,,,",
",,,,,,,,,,,,,@   ,nPQ`]]]]]QIn,X  #,,,,,,,,,,,,,",
",,,,,,,,,,,,@ X:G(]]]]]]]]]]]`(G:X @,,,,,,,,,,,,",
",,,,,,,,,,,+ +z(]]]]]](WW(]]]]]])x+ +,,,,,,,,,,,",
",,,,,,,,,,o *H]]]]UI`]6,,6])IU]]]]H* +,,,,,,,,,,",
",,,,,,,,,+ -P]]]El:x`(:,,,(`z,lE]]]P: +,,,,,,,,,",
",,,,,,,,@ &L]]]B1,,J]K:,,:K]K,,1B]]]P& @,,,,,,,,",
",,,,,,,# @B]]]v:,,1Q]v,,,:v]Q1,,,c]]]B@ #,,,,,,,",
",,,,,,,  k]]]b:,,,5`]1,,,,2])5,,,:v]]]l  ,,,,,,,",
",,,,,,# -(]]B:,,,,l](:,,,,:(]l,,,,:N]](- @,,,,,,",
",,,,,# XN]]W,,,,,:K]L:,,,,:L]K,,,,,1Q]]NX #,,,,,",
",,,,,  ,]]`h,,,,,:W]z,,,,,:l]E:,,,,,f`]]1  ,,,,,",
",,,,, Xm]]n:,,,,,,Q]1,,,,,,1]Q1,,,,,,v]]mX ,,,,,",
",,,,: $E]`6,,,,,,5`],,,,,,,:)`6,,,,,,5`]E% :,,,,",
",,,,& 5`]E1,,,,,,c]],,,,,,,:U]b,,,,,,,I]`5 &,,,,",
",,,,# c]]v1,,,,,,n]Q:,,,,,,,M]M,1,,,,,j`]v #,,,,",
",,,,@ H]]ENNNNNNNQ]`IKLLKLLL~]~GNNNNNNI]]H +,,,,",
",,,,o U]]]]]]]]]]]]]]]]]]]]]]]]]]]]]]]]]]E o,,,,",
",,,,X ~]]]]]]]]]]]]]]]]]]]]]]]]]]]]]]]]]](  ,,,,",
",,,,  `]Q,@##@@@@#@#@#@#@#@##@@#@##@@#3Q]]  ,,,,",
",,,,  ]]W&                            *W]]  ,,,,",
",,,,  ]]W& --::::2GEQJc1:::::::-:::-- *W]]  ,,,,",
",,,,  )]Q: -,,,,,K]]]]]]H1,,,,,,,,,,* ,Q]`  ,,,,",
",,,,X Q]~5 &,,,,,`]87iD_]]G,,,,,,,,,* 2~]~ X,,,,",
",,,,o P]`z @,,,,,(]8778pY']]G2,,,,,,& 3(]I o,,,,",
",,,,@ N]]Ho :,,,,Q]w77770sY]]]J,,,,,@ j)]N @,,,,",
",,,,$ k]]~3 &,,,,Q]w777777wdT_]l,,,: oJ]]l $,,,,",
",,,,* 1`]]c #,,,,Q]q77777777qa]B,,,% 6(]`2 *,,,,",
",,,,: @L]]HX ,,,,!]w77777777yV]b,,,o M]]P# :,,,,",
",,,,, Xl]]E, @,,,!]w777777uS^']g,,@ :E]]zX ,,,,,",
",,,,,@ &~]]Bo -,,~]w7777tS^]]]G,,- oB]](* @,,,,,",
",,,,,,  x]])h o:,~]077rZ^]]]G2,,:o h)]]cX ,,,,,,",
",,,,,,# %U]]~2 o;U]teC/']]G,,,,:o 2!]]E% #,,,,,,",
",,,,,,,  4]]]U1  k]]]]]]B,,,,,&  ,U]]]6  ,,,,,,,",
",,,,,,,# ov]]]U5  :PEGf,,,,,:@  5E]]]bX #,,,,,,,",
",,,,,,,,# #B]]]~c@ o#*,,,*%@  oc~]]]G# #,,,,,,,,",
",,,,,,,,,@ $G]]]`I2   XX    +4P']]]G% @,,,,,,,,,",
",,,,,,,,,,+ @b]]]]~Pl@  X-jmW~]]]]n# +,,,,,,,,,,",
",,,,,,,,,,,@ ogQ]]]]`(QQQ(`]]]]]Qho @,,,,,,,,,,,",
",,,,,,,,,,,,#  %bW]]]]]]]]]]]]Wb%  @,,,,,,,,,,,,",
",,,,,,,,,,,,,#   &lJE)]]]])WKz&X  #,,,,,,,,,,,,,",
",,,,,,,,,,,,,,,#  +:kmJPPJmk:o  #,,,,,,,,,,,,,,,",
",,,,,,,,,,,,,,,,,@             #,,,,,,,,,,,,,,,,",
",,,,,,,,,,,,,,,,,,,*%#+o++@%*,,,,,,,,,,,,,,,,,,,",
",,,,,,,,,,,,,,,,,,,,,,,,,,,,,,,,,,,,,,,,,,,,,,,,"
};
