/* XPM */
static char * buttonDblLeftLocked[] = {
"48 48 291 2",
"  	c None",
". 	c #666666",
"+ 	c #7C7C7C",
"@ 	c #CDCDCD",
"# 	c #F1F1F1",
"$ 	c #727272",
"% 	c #656565",
"& 	c #626262",
"* 	c #5F5E5E",
"= 	c #5D5C5C",
"- 	c #5B5A5A",
"; 	c #FFFFFF",
"> 	c #5E5E5E",
", 	c #595858",
"' 	c #DFDFDF",
") 	c #FDEDEB",
"! 	c #F7AFA6",
"~ 	c #ED3F29",
"{ 	c #F0F0F0",
"] 	c #5A5959",
"^ 	c #696868",
"/ 	c #8C8B8B",
"( 	c #B3B2B2",
"_ 	c #CECDCD",
": 	c #E1E1E1",
"< 	c #EAE9E9",
"[ 	c #CECECE",
"} 	c #B3B3B3",
"| 	c #8C8C8C",
"1 	c #FBD4CF",
"2 	c #F16F5F",
"3 	c #EB2B13",
"4 	c #EB3019",
"5 	c #FCFCFC",
"6 	c #818181",
"7 	c #BDBCBC",
"8 	c #DEDEDE",
"9 	c #EFEFEF",
"0 	c #BDBDBD",
"a 	c #828181",
"b 	c #707070",
"c 	c #EEEEEE",
"d 	c #F9BCB5",
"e 	c #EE4631",
"f 	c #F16957",
"g 	c #DDDDDD",
"h 	c #CCCCCC",
"i 	c #F5F5F5",
"j 	c #FEFEFE",
"k 	c #7F7F7F",
"l 	c #5C5B5B",
"m 	c #5E5D5D",
"n 	c #E0E0E0",
"o 	c #F9C0B9",
"p 	c #ED412B",
"q 	c #F48B7E",
"r 	c #FBFBFB",
"s 	c #EAEAEA",
"t 	c #F8F8F8",
"u 	c #AFAEAE",
"v 	c #636262",
"w 	c #FBD2CD",
"x 	c #EE4B36",
"y 	c #EB2E17",
"z 	c #FDFDFD",
"A 	c #E5E5E5",
"B 	c #E2E2E2",
"C 	c #A09F9F",
"D 	c #FAFAFA",
"E 	c #CFCFCF",
"F 	c #777676",
"G 	c #858585",
"H 	c #FDEEEC",
"I 	c #F06554",
"J 	c #F0DFDD",
"K 	c #D0877E",
"L 	c #DF311B",
"M 	c #AEAEAE",
"N 	c #7D7C7C",
"O 	c #ADACAC",
"P 	c #686767",
"Q 	c #C1C0C0",
"R 	c #7C7B7B",
"S 	c #6B6B6B",
"T 	c #E9E9E9",
"U 	c #F6A297",
"V 	c #EF533F",
"W 	c #DFB8B3",
"X 	c #CD4B3B",
"Y 	c #E82C15",
"Z 	c #D6D6D6",
"` 	c #D5D4D4",
" .	c #D5D5D5",
"..	c #8F8E8E",
"+.	c #DCDCDC",
"@.	c #757474",
"#.	c #5D5D5D",
"$.	c #919191",
"%.	c #FAC6C0",
"&.	c #ED422D",
"*.	c #F0604E",
"=.	c #F5E6E4",
"-.	c #DB331E",
";.	c #CF4635",
">.	c #B4B4B4",
",.	c #898888",
"'.	c #6E6E6E",
").	c #CACACA",
"!.	c #CBCBCB",
"~.	c #676666",
"{.	c #F59286",
"].	c #F48D80",
"^.	c #F0A097",
"/.	c #CB6255",
"(.	c #8D8C8C",
"_.	c #8E8D8D",
":.	c #F9F9F9",
"<.	c #A4A3A3",
"[.	c #6A6969",
"}.	c #A7A7A7",
"|.	c #747474",
"1.	c #F16C5B",
"2.	c #F9BBB3",
"3.	c #F27060",
"4.	c #E92C14",
"5.	c #F4F4F4",
"6.	c #6F6E6E",
"7.	c #C0BFBF",
"8.	c #DBDBDB",
"9.	c #959595",
"0.	c #F9BEB7",
"a.	c #FAC5BE",
"b.	c #F16655",
"c.	c #D9D8D8",
"d.	c #DBDADA",
"e.	c #656464",
"f.	c #D9D9D9",
"g.	c #5C5C5C",
"h.	c #878686",
"i.	c #C6C6C6",
"j.	c #737373",
"k.	c #FACDC7",
"l.	c #FACFC9",
"m.	c #FEF3F2",
"n.	c #EC3721",
"o.	c #D53926",
"p.	c #E7E7E7",
"q.	c #B5B5B5",
"r.	c #605F5F",
"s.	c #E8E8E8",
"t.	c #7B7A7A",
"u.	c #636363",
"v.	c #AEADAD",
"w.	c #858484",
"x.	c #F8B3AB",
"y.	c #D1412F",
"z.	c #ECECEC",
"A.	c #8A8A8A",
"B.	c #646363",
"C.	c #717171",
"D.	c #807F7F",
"E.	c #908F8F",
"F.	c #D78C82",
"G.	c #EF5845",
"H.	c #CB6357",
"I.	c #818080",
"J.	c #727171",
"K.	c #ABABAB",
"L.	c #A8A7A7",
"M.	c #706F6F",
"N.	c #646464",
"O.	c #626161",
"P.	c #F0E0DE",
"Q.	c #CE4838",
"R.	c #D5968E",
"S.	c #7E7D7D",
"T.	c #6D6C6C",
"U.	c #E4E3E3",
"V.	c #D0D0D0",
"W.	c #929191",
"X.	c #B2B1B1",
"Y.	c #D59B93",
"Z.	c #D8A39D",
"`.	c #C6C5C5",
" +	c #B8B8B8",
".+	c #F1E1E0",
"++	c #DCAFAA",
"@+	c #DDB1AC",
"#+	c #DEB6B1",
"$+	c #F5EBEA",
"%+	c #F7F7F7",
"&+	c #D1D1D1",
"*+	c #E6E6E6",
"=+	c #F3F3F3",
"-+	c #EDEDED",
";+	c #838282",
">+	c #888787",
",+	c #747373",
"'+	c #767575",
")+	c #EBEBEB",
"!+	c #76735A",
"~+	c #BCAD2C",
"{+	c #F0D80A",
"]+	c #F8DF04",
"^+	c #F1D80A",
"/+	c #BEAF2A",
"(+	c #77735A",
"_+	c #787777",
":+	c #72705E",
"<+	c #D7C31B",
"[+	c #FDE301",
"}+	c #DAC519",
"|+	c #B8AA2F",
"1+	c #D9C41A",
"2+	c #D7C31A",
"3+	c #73705E",
"4+	c #F2F2F2",
"5+	c #BCAD2D",
"6+	c #FFE400",
"7+	c #BAAB2E",
"8+	c #76735C",
"9+	c #706E60",
"0+	c #B9AB2E",
"a+	c #BDAE2C",
"b+	c #AAAAAA",
"c+	c #716F5E",
"d+	c #F4DB07",
"e+	c #E9D20F",
"f+	c #E9D20E",
"g+	c #8B8A8A",
"h+	c #5B5B5B",
"i+	c #C4C3C3",
"j+	c #6C6B62",
"k+	c #CDBB21",
"l+	c #CEBC20",
"m+	c #FEE301",
"n+	c #A3A2A2",
"o+	c #A6A5A5",
"p+	c #8C864C",
"q+	c #D8C41A",
"r+	c #88824F",
"s+	c #878150",
"t+	c #D9C519",
"u+	c #FCE202",
"v+	c #8C854D",
"w+	c #D2D2D2",
"x+	c #A9A9A9",
"y+	c #B2B2B2",
"z+	c #F5DC06",
"A+	c #DDC816",
"B+	c #DEC916",
"C+	c #DCC717",
"D+	c #D5C11C",
"E+	c #616060",
"F+	c #959494",
"G+	c #F7DE05",
"H+	c #C2C2C2",
"I+	c #EDD50C",
"J+	c #EBD40D",
"K+	c #7F7E7E",
"L+	c #C8C7C7",
"M+	c #C8C8C8",
"N+	c #B1B0B0",
"O+	c #E6E5E5",
"P+	c #909090",
"Q+	c #EFD70B",
"R+	c #949393",
"S+	c #B7B7B7",
"T+	c #929292",
"U+	c #EDD50B",
"V+	c #FBE103",
"W+	c #EAD30C",
"X+	c #B9B9B9",
"Y+	c #CAC9C9",
"Z+	c #606060",
"`+	c #6E6D6D",
" @	c #616161",
".@	c #CCCBCB",
"+@	c #A8A8A8",
"@@	c #7A7979",
"#@	c #A2A1A1",
"$@	c #BBBABA",
"%@	c #9E9D9D",
"&@	c #717070",
"*@	c #B7B6B6",
"=@	c #B9B8B8",
"-@	c #737272",
";@	c #D4D4D4",
">@	c #F6F6F6",
",@	c #ACABAB",
"'@	c #A5A5A5",
". . . . . . . . . . . . . . . . . . . . . . . . . . . . . . . . . . . . . . . . . . . . . . . . ",
". . . . . . . . . . . . . . . . . . . . . . . . . . . . . . . . . . . . . . . . . . . . . . . . ",
". . . . . . . . . . . + @ # @ $ . . % & * = - - - - = * & % . . . . . . . . . . . . . . . . . . ",
". . . . . . . . . . @ ; ; ; ; @ > , , , , , , , , , , , , , , > . . . . . . . . . . . . . . . . ",
". . . . . . . . $ ' ; ) ! ~ ; { , ] ^ / ( _ : < < : [ } | ^ ] , > . . . . . . . . . . . . . . . ",
". . . . . . . $ { ; 1 2 3 4 ; 5 - 6 7 8 9 5 ; ; ; ; 5 { 8 0 a - , , > . . . . . . . . . . . . . ",
". . . . . . b c ; d e 3 3 f ; g h i j ; ; ; ; ; ; ; ; ; ; j i _ k l , m . . . . . . . . . . . . ",
". . . . . . n ; o p 3 3 3 q ; r ; ; ; j ; j i s s i j j j ; ; ; t u v , l . . . . . . . . . . . ",
". . . . . h ; w x 3 3 3 y ! ; ; ; z A B r ; C l l C ; D n A z ; ; ; E F , l . . . . . . . . . . ",
". . . . G ; H I 3 3 3 3 ~ ; ; ; J K L M r i N , , N i r O P Q { ; ; ; 8 R , l . . . . . . . . . ",
". . . S T ; U 3 3 3 3 3 V ; ; W X 3 Y Z ; ` v , , v ` ;  .m , ..+.j ; ; +.@., #.. . . . . . . . ",
". . . $.; %.&.3 3 3 3 3 *.; =.-.3 3 ;.9 ; >.m , , m >.; 9 ,., , '.).j ; ; !.~., > . . . . . . . ",
". . . @ ; {.3 3 3 3 3 3 ].; ^.3 3 3 /.D j (.] , , ] _.; :.<., = , [.@ ; ; ; }.- , . . . . . . . ",
". . |.; ) 1.3 3 3 3 3 3 2.; 3.3 3 4.K ; 5.6., > > , '.5.; 7.l , = , $ 8.; ; 5.R , m . . . . . . ",
". . 9.; 0.3 3 3 3 3 3 3 a.; b.3 3 L c.; d.e., % % , e.f.; c.P , % g., h.5.; ; i.m , > . . . . . ",
". . j.; H k.l.l.l.l.l.w m.; n.3 3 o.p.; q.r., % % , * >.; s.t., u.% - , v.D ; 5 w.] , . . . . . ",
". . . h ; ; ; ; ; ; ; ; ; x.3 3 3 y.z.; A.] , . . , ] h.; c h., & . & , B.E j ; Q m , . . . . . ",
". . . . C.D.E.z.; 5 F.G.n.3 3 3 3 H.:.; I., > . . > , J.t D K., > . . #., L.D ; s.M., N.. . . . ",
". . . . O., E.5 ; P.Q.3 3 3 3 3 3 R.; ; S., l l l l , T.U.; V.] , l l l , S.z.; 5 W., O.. . . . ",
". . . . * , X.; ; Y.3 3 3 3 3 3 3 Z.; 9 B., , , , , , , `.; Z , , , , , , ,  +5 ; >., * . . . . ",
". . . . = , E ; ; .+++@+@+@+@+@+#+$+; D 8 f.f.f.f.f.f.+.# ; %+g f.f.f.f.f.c.z.j ; &+, = . . . . ",
". . . . - , U.; ; ; ; ; ; ; ; ; ; ; ; ; ; ; ; ; ; ; ; ; ; ; ; ; ; ; ; ; ; ; ; ; ; *+, - . . . . ",
". . . . ] , =+; ; ; ; ; ; ; ; ; ; ; ; ; ; ; ; ; ; ; ; ; ; ; ; ; ; ; ; ; ; ; ; ; ; i , ] . . . . ",
". . . . , , 5 ; -+;+P P P P P P P P P P P P P P P P P P P P P P P P P P P P >+9 ; j , , . . . . ",
". . . . , , ; ; s ,+, , , , , , , , , , , , , , , , , , , , , , , , , , , , '+)+; ; , , . . . . ",
". . . . , , j ; )+'+, N.% % % % % % % % !+~+{+]+]+^+/+(+% % % % % % % % B., _+)+; ; , , . . . . ",
". . . . , , t ; -+S., u.. . . . . . . :+<+[+}+|+|+1+[+2+3+. . . . . . . u., k -+; r , , . . . . ",
". . . . ] , -+; 4+.., O.. . . . . . . 5+6+7+8+9+9+8+0+6+a+~.. . . . . . & , >+# ; { , ] . . . . ",
". . . . l , +.; D b+, m . . . . . . c+d+e+c+. . . . c+f+d+3+. . . . . . & , g+4+; ' , h+. . . . ",
". . . . m , i+; ; V.r., % . . . . . j+6+k+. . . . . . l+m+j+. . . . . . m , n+t ; i., #.. . . . ",
". . . . r., o+; ; # / , & . . . . . p+6+q+r+r+r+r+r+s+t+u+v+. . . . . N., O.w+; ; x+, r.. . . . ",
". . . . v , w.:.; 5 y+, m . . . . . <+6+z+A+B+B+B+B+C+z+m+D+. . . . . E+, F+i ; D >+, & . . . . ",
". . . . % , ~.d.; ; E m , . . . . . G+6+6+6+6+6+6+6+6+6+6+z+. . . . . h+, H+j ; +.^ , % . . . . ",
". . . . . , l b+; ; < 6 , m . . . . I+6+6+6+6+6+6+6+6+6+6+J+. . . . m , K+s.; ; O l , . . . . . ",
". . . . . > , |.# ; ; L+r., B.. . . I+6+6+6+6+6+6+6+6+6+6+J+. . . B., r.M+; ; 5.'+, > . . . . . ",
". . . . . . , - M ; ; t C , - % . . I+6+6+6+6+6+6+6+6+6+6+J+. . % - , C t ; ; N+l , . . . . . . ",
". . . . . . > , '.U.; ; 9 >+, - e.. I+6+6+6+6+6+6+6+6+6+6+J+. e.- , >+9 ; ; O+M., > . . . . . . ",
". . . . . . . , ] P+; ; ; A ;+, ] & Q+6+6+6+6+6+6+6+6+6+6+I+& ] , ;+A ; ; ; R+] , . . . . . . . ",
". . . . . . . > , m S+; ; ; O+T+, , U+V+V+V+V+V+V+V+V+V+V+W+, , T+O+; ; ; X+m , > . . . . . . . ",
". . . . . . . . m , ^ Y+; ; ; # ( ~., - * u.. . . u.Z+m , , O.( # ; ; ; h [., m . . . . . . . . ",
". . . . . . . . . = , `+!.; ; ; D ' >+, , , ] ] , , , ,  @| g D ; ; ; .@6., = . . . . . . . . . ",
". . . . . . . . . . = , ~. +; ; ; ; # 8 +@e., , = @@#@H+)+# ; ; ; ; $@^ , = . . . . . . . . . . ",
". . . . . . . . . . . #., * %@z.; ; ; ; D =+9 9 9 i D z ; ; ; ; -+C * , = . . . . . . . . . . . ",
". . . . . . . . . . . . m , - &@*@)+z ; ; ; ; ; ; ; ; ; ; z )+=@J.- , m . . . . . . . . . . . . ",
". . . . . . . . . . . . . > , , ] -@K.;@T >@j ; ; j >@T  .,@-@] , , > . . . . . . . . . . . . . ",
". . . . . . . . . . . . . . . > , , E+N '@Q ;@g g ;@Q '@S.O.] , > . . . . . . . . . . . . . . . ",
". . . . . . . . . . . . . . . . . m , , , , , , , , , , , , , > . . . . . . . . . . . . . . . . ",
". . . . . . . . . . . . . . . . . . % u.Z+m g.l l g.m Z+u.% . . . . . . . . . . . . . . . . . . "};
