/* XPM */
static char *buttonNoClick[] = {
/* columns rows colors chars-per-pixel */
"48 48 207 2",
"   c #1F1F1F",
".  c #202020",
"X  c #242424",
"o  c #292929",
"O  c #2B2B2B",
"+  c #2C2C2C",
"@  c #2D2D2D",
"#  c #2E2E2E",
"$  c #2F2F2F",
"%  c #303030",
"&  c #313131",
"*  c #323232",
"=  c #333333",
"-  c #353535",
";  c #363636",
":  c #373737",
">  c #383838",
",  c #393939",
"<  c #3A3A3A",
"1  c #3B3B3B",
"2  c #3C3C3C",
"3  c #3D3D3D",
"4  c #3E3E3E",
"5  c #3F3F3F",
"6  c #404040",
"7  c #414141",
"8  c #434343",
"9  c #444444",
"0  c #454545",
"q  c #464646",
"w  c #474747",
"e  c #484848",
"r  c #494949",
"t  c #4A4A4A",
"y  c #4B4B4B",
"u  c #4C4C4C",
"i  c #4D4D4D",
"p  c #4E4E4E",
"a  c #4F4F4F",
"s  c #505050",
"d  c #515151",
"f  c #525252",
"g  c #535353",
"h  c #545454",
"j  c #555555",
"k  c #565656",
"l  c #575757",
"z  c #585858",
"x  c #595959",
"c  c #5A5A5A",
"v  c #5B5B5B",
"b  c #5C5C5C",
"n  c #5D5D5D",
"m  c #5E5E5E",
"M  c #5F5F5F",
"N  c #606060",
"B  c #616161",
"V  c #626262",
"C  c #636363",
"Z  c #646464",
"A  c #656565",
"S  c #666666",
"D  c #676767",
"F  c #686868",
"G  c #696969",
"H  c #6A6A6A",
"J  c #6B6B6B",
"K  c #6C6C6C",
"L  c #6D6D6D",
"P  c #6E6E6E",
"I  c #6F6F6F",
"U  c #707070",
"Y  c #717171",
"T  c #727272",
"R  c #737373",
"E  c #747474",
"W  c #757575",
"Q  c #767676",
"!  c #777777",
"~  c #787878",
"^  c #797979",
"/  c #7A7A7A",
"(  c #7B7B7B",
")  c #7C7C7C",
"_  c #7D7D7D",
"`  c #7E7E7E",
"'  c #7F7F7F",
"]  c #808080",
"[  c #818181",
"{  c #828282",
"}  c #838383",
"|  c #848484",
" . c #858585",
".. c #868686",
"X. c #878787",
"o. c #888888",
"O. c #898989",
"+. c #8A8A8A",
"@. c #8B8B8B",
"#. c #8C8C8C",
"$. c #8D8D8D",
"%. c #8E8E8E",
"&. c #8F8F8F",
"*. c #909090",
"=. c #919191",
"-. c #929292",
";. c #939393",
":. c #949494",
">. c #959595",
",. c #969696",
"<. c #979797",
"1. c #989898",
"2. c #999999",
"3. c #9A9A9A",
"4. c #9B9B9B",
"5. c #9C9C9C",
"6. c #9D9D9D",
"7. c #9E9E9E",
"8. c #9F9F9F",
"9. c #A0A0A0",
"0. c #A1A1A1",
"q. c #A2A2A2",
"w. c #A3A3A3",
"e. c #A4A4A4",
"r. c #A5A5A5",
"t. c #A6A6A6",
"y. c #A7A7A7",
"u. c #A8A8A8",
"i. c #A9A9A9",
"p. c #AAAAAA",
"a. c #ABABAB",
"s. c #ACACAC",
"d. c #ADADAD",
"f. c #AEAEAE",
"g. c #AFAFAF",
"h. c #B0B0B0",
"j. c #B1B1B1",
"k. c #B2B2B2",
"l. c #B3B3B3",
"z. c #B4B4B4",
"x. c #B5B5B5",
"c. c #B6B6B6",
"v. c #B7B7B7",
"b. c #B8B8B8",
"n. c #B9B9B9",
"m. c #BABABA",
"M. c #BBBBBB",
"N. c #BCBCBC",
"B. c #BDBDBD",
"V. c #BEBEBE",
"C. c #BFBFBF",
"Z. c #C0C0C0",
"A. c #C1C1C1",
"S. c #C2C2C2",
"D. c #C3C3C3",
"F. c #C4C4C4",
"G. c #C5C5C5",
"H. c #C6C6C6",
"J. c #C7C7C7",
"K. c #C8C8C8",
"L. c #C9C9C9",
"P. c #CACACA",
"I. c #CBCBCB",
"U. c #CCCCCC",
"Y. c #CDCDCD",
"T. c #CECECE",
"R. c #CFCFCF",
"E. c #D0D0D0",
"W. c #D1D1D1",
"Q. c #D2D2D2",
"!. c #D3D3D3",
"~. c #D4D4D4",
"^. c #D5D5D5",
"/. c #D6D6D6",
"(. c #D7D7D7",
"). c #D8D8D8",
"_. c #D9D9D9",
"`. c #DADADA",
"'. c #DBDBDB",
"]. c #DCDCDC",
"[. c #DDDDDD",
"{. c #DEDEDE",
"}. c #DFDFDF",
"|. c #E0E0E0",
" X c #E1E1E1",
".X c #E2E2E2",
"XX c #E3E3E3",
"oX c #E4E4E4",
"OX c #E5E5E5",
"+X c #E6E6E6",
"@X c #E7E7E7",
"#X c #E8E8E8",
"$X c #E9E9E9",
"%X c #EAEAEA",
"&X c #ECECEC",
"*X c #EDEDED",
"=X c #EEEEEE",
"-X c #EFEFEF",
";X c #F0F0F0",
":X c #F2F2F2",
">X c #F3F3F3",
",X c #F4F4F4",
"<X c #F5F5F5",
"1X c #F6F6F6",
"2X c #F8F8F8",
"3X c #FAFAFA",
"4X c #FBFBFB",
/* pixels */
"S S S S S S S S S S S S S S S S S S S S S S S S S S S S S S S S S S S S S S S S S S S S S S S S ",
"S S S S S S S S S S S S S S S S S S S S S S S S S S S S S S S S S S S S S S S S S S S S S S S S ",
"S S S S S S S S S S S S S S S S S S S H S S S B B S S H S S S S S S S S S S S S S S S S S S S S ",
"S S S S S S S S S S S S S S S S S S z 9 1 * $ * $ $ 4 y B S S S S S S S S S S S S S S S S S S S ",
"S S S S S S S S S S S S S S H B y = $ 1 y B S P 9 4 z 4 $ 1 j S H S S S S S S S S S S S S S S S ",
"S S S S S S S S S S S S S S j $ . j P W ` ` } | P e $.| W s $ 1 z H S S S S S S S S S S S S S S ",
"S S S S S S S S S S S S S 9 o e = W ` } } @.@.$.} 6 $.*.$.| W e o y S S S S S S S S S S S S S S ",
"S S S S S S S S S S S B 4 * H ` 4 W | $.$.*.>.3.3.9 $.7.>.$.@.| H * 6 S S S S S S S S S S S S S ",
"S S S S S S S S S S S 4 * P } @.e T *.>.3.7.0.r.i.j } r.7.3.*.$.$.W 1 4 B S S S S S S S S S S S ",
"S S S S S S S S S S e $ H ` | >.n B 7.0.0.r.i.a.c.T T j.i.r.7.3.*.$.` 1 6 S S S S S S S S S S S ",
"S S S S S S S S S z o B ~ | $.3.~ j r.i.a.j.c.v.B.*.B B.c.a.i.0.7.>.*.} = e H S S S S S S S S S ",
"S S S S S S S S S * y ~ } $.>.0.>.y i.c.v.B.C.C.J.j.z B.B.v.c.a.r.0.7.3.~ * z S S S S S S S S S ",
"S S S S S S S S y * T } | >.7.i.i.s i.B.C.F.J.U.E.U.n v.U.F.C.v.a.3.} S s . 1 H S S S S S S S S ",
"S S S S S S S S * j ` | *.3.r.a.v.n 7.U.U.E.!.[.[. XW 7.B.7.` B y 6 9 j B S 1 B S S S S S S S S ",
"S S S S S S S j * W | $.3.0.a.c.C.~ @.'.'.'.!.F.i.$.e 6 s j B W } @.$.$.@.} n 9 P S S S S S S S ",
"S S S S S S S 4 y } @.>.7.i.c.C.J.*.n 0.| H z j n T | 3.0.r.r.0.7.3.>.$.$.| ` 4 S S S S S S S S ",
"S S S S S S B * H $.>.7.3.>.| P B e 9 B ~ $.0.a.c.c.c.j.a.i.i.r.0.7.3.>.*.@.@.j s P S S S S S S ",
"S S S S S H z $ H B j e 9 y z T @.7.i.c.v.v.v.v.v.v.v.v.c.j.a.i.i.0.7.>.>.$.@.~ 6 T S S S S S S ",
"S S S S S S s . 4 y S ~ *.7.i.a.j.j.c.v.B.B.C.C.C.C.C.B.v.v.c.j.a.i.0.7.3.>.$.| 9 H H S S S S S ",
"S S S S S S e e @.*.>.3.7.r.a.a.j.c.B.B.C.F.F.J.J.J.F.F.C.B.v.c.j.a.r.0.3.>.*.$.j n P S S S S S ",
"S S S S S S 4 z $.*.>.7.0.i.a.j.v.B.C.F.J.U.U.U.U.U.U.J.J.F.C.v.v.j.a.r.0.3.>.*.H s W S S S S S ",
"S S S S S H 4 n $.>.3.0.i.a.j.c.B.C.F.J.U.E.E.!.!.!.E.E.U.J.F.C.v.c.j.i.0.7.>.*.~ e W S S S S S ",
"S S S S S S 1 S *.>.3.0.i.a.c.v.C.J.U.E.!.!.'.'.[.'.'.E.E.U.J.F.C.v.j.a.r.0.3.>.| e ~ S S S S S ",
"S S S S S S 1 B >.3.7.r.a.j.v.B.C.J.U.!.'.[.[. X X X[.'.'.E.U.J.C.v.c.j.i.0.3.>.@.9 ` S S S S S ",
"S S S S S S 6 n >.3.0.r.a.c.B.C.J.U.!.!.[. X+X@X@X+X+X[.[.!.E.J.F.B.v.j.i.r.7.3.$.9 ~ S S S S S ",
"S S S S S H e s >.3.0.i.a.c.B.C.J.E.!.[. X@X@X&X&X&X@X+X[.'.!.U.J.C.v.c.a.r.7.3.$.e ` S S S S S ",
"S S S S S S s 6 >.7.0.i.j.v.B.F.U.E.!.[.+X@X-X1X1X1X&X@X X[.!.E.J.F.v.j.a.r.0.3.@.e } S S S S S ",
"S S S S S S n 1 $.7.r.i.j.v.B.F.U.E.'. X+X&X1X1X4X1X-X@X X[.!.E.J.C.B.c.j.i.0.3.} y ` S S S S S ",
"S S S S S S S = ~ 0.0.i.j.v.B.F.U.!.'.[.+X@X-X1X4X1X-X@X+X[.!.U.J.F.B.c.a.r.0.3.W j ` S S S S S ",
"S S S S S S H 6 n 0.r.i.j.c.B.F.J.E.'.[.+X@X-X1X1X-X&X+X X'.!.E.J.C.v.c.j.r.0.3.S S W S S S S S ",
"S S S S S S S j 4 >.0.i.a.c.B.F.J.E.!.'. X+X&X&X-X&X@X+X[.[.!.U.F.C.v.c.a.r.0.3.y ` P S S S S S ",
"S S S S S S S S = W r.r.a.c.v.C.J.U.!.!.[. X+X@X@X+X+X[.[.!.E.J.F.B.v.j.i.r.7.$.e | H S S S S S ",
"S S S S S S S S y e 7.r.a.j.v.B.F.J.E.!.'.'.[. X X[.[.'.'.E.J.J.C.B.c.a.i.0.7.H B } S S S S S S ",
"S S S S S S S S S = W r.i.a.c.B.C.F.J.E.!.!.'.[.'.'.'.E.E.U.J.F.B.v.c.a.r.0.>.e } P S S S S S S ",
"S S S S S S S S S s 4 >.r.i.j.c.B.C.F.J.U.E.!.!.!.E.E.U.U.J.F.C.v.c.a.i.r.7.T z | S S S S S S S ",
"S S S S S S S S S H 6 z 0.i.a.j.v.B.C.F.J.J.U.U.U.U.U.J.F.F.B.v.c.j.a.r.0.*.9 | T S S S S S S S ",
"S S S S S S S S S S S = P r.i.a.c.c.v.B.C.F.F.J.J.J.F.C.C.B.v.c.j.i.i.0.7.j H | S S S S S S S S ",
"S S S S S S S S S S S n 1 W r.i.a.j.c.v.B.B.C.C.C.C.B.B.v.v.j.j.a.r.0.7.H s $.H S S S S S S S S ",
"S S S S S S S S S S S H z 1 W r.i.a.a.c.c.c.v.v.v.v.v.c.c.j.j.i.i.0.0.T e $.T S S S S S S S S S ",
"S S S S S S S S S S S S S n 1 S 7.i.i.a.a.j.j.j.c.j.j.j.a.a.i.r.0.3.S e $.W S S S S S S S S S S ",
"S S S S S S S S S S S S S S S 9 e | r.i.i.i.a.a.a.a.i.i.r.r.0.0.$.s j $.W S S S S S S S S S S S ",
"S S S S S S S S S S S S S S S H z 6 j | 7.r.r.r.r.r.r.r.r.7.@.B 9 T $.P S S S S S S S S S S S S ",
"S S S S S S S S S S S S S S S S H H n 9 e B W @.$.$.@.~ S s y H $.` H S S S S S S S S S S S S S ",
"S S S S S S S S S S S S S S S S S S H P P B j y y y s j H ` | ` H S S S S S S S S S S S S S S S ",
"S S S S S S S S S S S S S S S S S S S S S P T W ` ` ` ~ W P S S S S S S S S S S S S S S S S S B ",
"S S S S S S S S S S S S S S S S S S S S S S S S S S S S S S S S S S S S S S S S S S S S S S S S ",
"S S S S S S S S S S S S S S S S S S S S S S S S S S S S S S S S S S S S S S S S S S S S S S S S ",
"S S S S S S S S S S S S S S S S S S S S S S S S S S S S S S S S S S S S S S S S S S S S S S S S "
};
