/* XPM */
static char * buttonRightDisabled[] = {
"48 48 157 2",
"  	c None",
". 	c #666666",
"+ 	c #656565",
"@ 	c #605F5F",
"# 	c #525151",
"$ 	c #444343",
"% 	c #3B3A3A",
"& 	c #353434",
"* 	c #333232",
"= 	c #515151",
"- 	c #414040",
"; 	c #2D2C2C",
"> 	c #2D2D2D",
", 	c #464646",
"' 	c #5A5959",
") 	c #676767",
"! 	c #717171",
"~ 	c #757575",
"{ 	c #5A5A5A",
"] 	c #404040",
"^ 	c #2E2D2D",
"/ 	c #414141",
"( 	c #5F5E5E",
"_ 	c #6F6F6F",
": 	c #787878",
"< 	c #7E7E7E",
"[ 	c #808080",
"} 	c #5F5F5F",
"| 	c #3E3D3D",
"1 	c #2E2E2E",
"2 	c #3F3F3F",
"3 	c #7B7B7B",
"4 	c #7F7F7F",
"5 	c #383737",
"6 	c #323131",
"7 	c #565656",
"8 	c #7C7C7C",
"9 	c #585757",
"0 	c #373636",
"a 	c #3B3B3B",
"b 	c #737373",
"c 	c #505050",
"d 	c #7D7D7D",
"e 	c #707070",
"f 	c #686868",
"g 	c #3C3B3B",
"h 	c #363535",
"i 	c #393838",
"j 	c #606060",
"k 	c #575757",
"l 	c #3F3E3E",
"m 	c #575656",
"n 	c #70180D",
"o 	c #694440",
"p 	c #78706F",
"q 	c #3E3E3E",
"r 	c #3D3D3D",
"s 	c #3A3A3A",
"t 	c #6E6D6D",
"u 	c #6E6E6E",
"v 	c #484747",
"w 	c #2F2F2F",
"x 	c #6B6B6B",
"y 	c #6B6A6A",
"z 	c #74160B",
"A 	c #76160A",
"B 	c #67261E",
"C 	c #705C5A",
"D 	c #3D3C3C",
"E 	c #373737",
"F 	c #454545",
"G 	c #68231A",
"H 	c #6E1A0F",
"I 	c #6A4C49",
"J 	c #343333",
"K 	c #535353",
"L 	c #353535",
"M 	c #474646",
"N 	c #474747",
"O 	c #66312A",
"P 	c #6F190E",
"Q 	c #6B4F4B",
"R 	c #545454",
"S 	c #403F3F",
"T 	c #7A7A7A",
"U 	c #393939",
"V 	c #68443F",
"W 	c #75160A",
"X 	c #6D1B11",
"Y 	c #6F5B59",
"Z 	c #2F2E2E",
"` 	c #636363",
" .	c #797979",
"..	c #6D6C6C",
"+.	c #616161",
"@.	c #6D6D6D",
"#.	c #68221A",
"$.	c #7A7473",
"%.	c #5B5B5B",
"&.	c #3C3C3C",
"*.	c #747474",
"=.	c #303030",
"-.	c #302F2F",
";.	c #6A1E14",
">.	c #663731",
",.	c #434242",
"'.	c #646464",
").	c #6A6969",
"!.	c #515050",
"~.	c #555454",
"{.	c #424242",
"].	c #767676",
"^.	c #777777",
"/.	c #72180C",
"(.	c #6C504C",
"_.	c #616060",
":.	c #5D5D5D",
"<.	c #555555",
"[.	c #66352F",
"}.	c #66332D",
"|.	c #383838",
"1.	c #5C5C5C",
"2.	c #484848",
"3.	c #727272",
"4.	c #6C514E",
"5.	c #6A1F15",
"6.	c #766C6A",
"7.	c #494949",
"8.	c #504F4F",
"9.	c #595959",
"0.	c #696969",
"a.	c #323232",
"b.	c #6E5654",
"c.	c #673E39",
"d.	c #6C6C6C",
"e.	c #7B7776",
"f.	c #705D5A",
"g.	c #6F5956",
"h.	c #3A3939",
"i.	c #424141",
"j.	c #343434",
"k.	c #444444",
"l.	c #313030",
"m.	c #464545",
"n.	c #626262",
"o.	c #313131",
"p.	c #4C4B4B",
"q.	c #4B4A4A",
"r.	c #595858",
"s.	c #4A4A4A",
"t.	c #585858",
"u.	c #5E5D5D",
"v.	c #4F4F4F",
"w.	c #5C5B5B",
"x.	c #5D5C5C",
"y.	c #6A6A6A",
"z.	c #494848",
". . . . . . . . . . . . . . . . . . . . . . . . . . . . . . . . . . . . . . . . . . . . . . . . ",
". . . . . . . . . . . . . . . . . . . . . . . . . . . . . . . . . . . . . . . . . . . . . . . . ",
". . . . . . . . . . . . . . . . . + @ # $ % & * * & % $ = @ + . . . . . . . . . . . . . . . . . ",
". . . . . . . . . . . . . . . . - ; ; ; ; ; ; ; ; ; ; ; ; ; ; - . . . . . . . . . . . . . . . . ",
". . . . . . . . . . . . . . + - ; > & , ' ) ! ~ ~ ! ) { , & > ; - + . . . . . . . . . . . . . . ",
". . . . . . . . . . . . . ] ; ; ^ / ( _ : < [ [ [ [ < : _ } / ^ ; ; ] . . . . . . . . . . . . . ",
". . . . . . . . . . . . | ; 1 2 . 3 4 [ [ [ [ [ [ [ [ [ [ 4 3 ) ] 1 ; | . . . . . . . . . . . . ",
". . . . . . . . . . . 5 ; 6 7 3 [ [ [ 4 [ 4 3 ~ ~ 3 4 4 4 [ [ [ 8 9 6 ; 5 . . . . . . . . . . . ",
". . . . . . . . . . 0 ; a ) [ [ [ 4 b ! < [ c 1 1 c [ d e b 4 [ [ [ f g ; h . . . . . . . . . . ",
". . . . . . . . . i ; | _ [ [ [ : j & k < 3 l ; ; l 3 < m n o p [ [ [ _ q ; 5 . . . . . . . . . ",
". . . . . . . . r ; s t [ [ 4 u v ; w x [ y 6 ; ; 6 y [ x z A B C 4 [ [ u % ; D . . . . . . . . ",
". . . . . . . - ; * + [ [ 4 . E ; ; F : [ { w ; ; w { [ : G A A H I 4 [ [ . J ; - . . . . . . . ",
". . . . . . + ; ^ K [ [ [ ) L ; % ; K d 4 M > ; ; > N [ d O A A A P Q [ [ [ R ^ ; + . . . . . . ",
". . . . . . S ; | T [ [ u U ; g ; 1 j [ T 5 ; - - ; E T [ V W A A A X Y [ [ T q ; S . . . . . . ",
". . . . . - ; Z ` [ [  .$ ; i @ ; & ..[ t * ; +.+.; * @.[ ..n A A A A #.$.[ [ ` w ; - . . . . . ",
". . . . + ; > / < [ 4 %.; * ` ' ; &.*.[ %.=.; ` ` ; -.{ [ *.;.A A A A A >.d [ < ,.> ; . . . . . ",
". . . . '.; Z @ [ 4 ).h ; !.. ~.; {.].[ F > ; . . ; > $ [ ^.#.A A A A A /.(.4 [ _.w ; '.. . . . ",
". . . . :.; E b [ < <.; % . . v ; K d [ - ; - . . - ; U 8 d [.A A A A A A }.d [ *.|.; 1.. . . . ",
". . . . !.; 2.< [  ., ; 5 5 5 5 ; + [ [ 2 ; 5 5 5 5 ; 0 3.[ 4.W A A A A A 5.6.[ < 7.; 8.. . . . ",
". . . . $ ; 9.[ [ . ; ; ; ; ; ; ; 0.[ : a.; ; ; ; ; ; ; ` [ b.A A A A A A A c.< [ { ; ,.. . . . ",
". . . . % ; f [ [  .d.@.@.@.@.@.u 3 [ d _ @.@.@.@.@.@.u  .[ e.f.g.g.g.g.g.g.6.4 [ 0.; h.. . . . ",
". . . . & ; 3.[ [ [ [ [ [ [ [ [ [ [ [ [ [ [ [ [ [ [ [ [ [ [ [ [ [ [ [ [ [ [ [ [ [ b ; J . . . . ",
". . . . -.; T [ [ [ [ [ [ [ [ [ [ [ [ [ [ [ [ [ [ [ [ [ [ [ [ [ [ [ [ [ [ [ [ [ [ 3 ; Z . . . . ",
". . . . ^ ; < [ ^.i.j.j.j.j.j.j.j.j.j.j.j.j.j.j.j.j.j.j.j.j.j.j.j.j.j.j.j.j.k.: [ 4 ; ; . . . . ",
". . . . ; ; [ [ ~ s ; ; ; ; ; ; ; ; ; ; ; ; ; ; ; ; ; ; ; ; ; ; ; ; ; ; ; ; a ].[ [ ; ; . . . . ",
". . . . ; ; 4 [ ].a ; { j j j j j j j j j j j j j j j j j j j j j j j j ' ; &.].[ [ ; ; . . . . ",
". . . . Z ; 8 [ ^.2 ; k . . . . . . . . . . . . . . . . . . . . . . . . 7 ; ] ^.[ < ; ^ . . . . ",
". . . . 6 ; ^.[  .v ; !.. . . . . . . . . . . . . . . . . . . . . . . . K ; k. .[ : ; l.. . . . ",
". . . . 0 ; u [ d <.; l . . . . . . . . . . . . . . . . . . . . . . . . # ; m. .[ e ; h . . . . ",
". . . . | ; n.[ [ f =.; +.. . . . . . . . . . . . . . . . . . . . . . . | ; # 8 [ ` ; r . . . . ",
". . . . v ; K [ [  ., ; # . . . . . . . . . . . . . . . . . . . . . . :.; o.0.[ [ <.; M . . . . ",
". . . . ~.; ,.d [ < 9.; S . . . . . . . . . . . . . . . . . . . . . . p.; q.3 [ d k.; K . . . . ",
". . . . j ; J t [ [ f w ; '.. . . . . . . . . . . . . . . . . . . . . L ; +.4 [ u & ; @ . . . . ",
". . . . + ; 1 <.[ [ ~ / ; l . . . . . . . . . . . . . . . . . . . . l ; S *.[ [ m 1 ; + . . . . ",
". . . . . ] ; s  .[ [ '.=.; r.. . . . . . . . . . . . . . . . . . r.; =.'.[ [ T a ; ] . . . . . ",
". . . . . + ; ^ k [ [ 8 c ; * n.. . . . . . . . . . . . . . . . n.* ; c 8 [ [ r.1 ; + . . . . . ",
". . . . . . - ; E 3.[ [ : k.; J ( . . . . . . . . . . . . . . ( J ; k.: [ [ b |.; ] . . . . . . ",
". . . . . . + ; > 2.[ [ [ b i.; -.# . . . . . . . . . . . . # -.; i.b [ [ [ s.> ; + . . . . . . ",
". . . . . . . - ; w 1.[ [ [ b 7.; ; D n.. . . . . . . . +.| ; ; 7.b [ [ [ :.w ; - . . . . . . . ",
". . . . . . . . S ; & + [ [ [  .' J ; * ,.7 . . '.t.7.| ; ; o.'  .[ [ [ . L ; S . . . . . . . . ",
". . . . . . . . . g ; E . [ [ [ d e k.; ; ; l.l.; ; ; ; o., _ d [ [ [ . 5 ; g . . . . . . . . . ",
". . . . . . . . . . % ; J 1.[ [ [ [  ._ R * ; ; Z r = +.]. .[ [ [ [ u.& ; h.. . . . . . . . . . ",
". . . . . . . . . . . D ; -.v.].[ [ [ [ d T : : : 3 d 4 [ [ [ [ ^.c -.; g . . . . . . . . . . . ",
". . . . . . . . . . . . l ; ^ i w.].4 [ [ [ [ [ [ [ [ [ [ 4 ].x.U ^ ; l . . . . . . . . . . . . ",
". . . . . . . . . . . . . - ; ; > h.7 y.~ 3 4 [ [ 4 3 ~ x 7 h.> ; ; - . . . . . . . . . . . . . ",
". . . . . . . . . . . . . . + - ; ; l.l K _.y._ _ y._.K 2 o.> ; - + . . . . . . . . . . . . . . ",
". . . . . . . . . . . . . . . . + l ; ; ; ; ; ; ; ; ; ; ; ; ; - . . . . . . . . . . . . . . . . ",
". . . . . . . . . . . . . . . . . . n.k z.l i h h i l z.k n.. . . . . . . . . . . . . . . . . . "};
