/* XPM */
static const char *buttonRightLocked[] = {
/* columns rows colors chars-per-pixel */
"48 48 210 2",
"   c #100B04",
".  c #1F1F1F",
"X  c #0E0E3C",
"o  c #131324",
"O  c #1C1C2E",
"+  c #131335",
"@  c #10103D",
"#  c #1D1D31",
"$  c #222223",
"%  c #272829",
"&  c #2C2C2C",
"*  c #2E2E33",
"=  c #37332C",
"-  c #39352D",
";  c #333333",
":  c #37373A",
">  c #3E3C34",
",  c #3C3C3C",
"<  c #0E0E53",
"1  c #171747",
"2  c #13135D",
"3  c #1C1C53",
"4  c #121271",
"5  c #2C2C53",
"6  c #373747",
"7  c #36364D",
"8  c #3C3E43",
"9  c #3A3A4C",
"0  c #353553",
"q  c #202069",
"w  c #282863",
"e  c #28286E",
"r  c #20207F",
"t  c #3E4146",
"y  c #46340F",
"u  c #453D0B",
"i  c #4D3F0E",
"p  c #453212",
"a  c #523D05",
"s  c #563C0B",
"d  c #5B3E0D",
"f  c #413E36",
"g  c #564001",
"h  c #57410A",
"j  c #524E0C",
"k  c #58430A",
"l  c #544D12",
"z  c #565210",
"x  c #5A5613",
"c  c #5D5A17",
"v  c #5F5B18",
"b  c #595436",
"n  c #66440D",
"m  c #68470E",
"M  c #6A4B0F",
"N  c #6F5800",
"B  c #605C19",
"V  c #7D5F10",
"C  c #656325",
"Z  c #6B682E",
"A  c #434344",
"S  c #43454A",
"D  c #47494C",
"F  c #4B4B4C",
"G  c #484854",
"H  c #4C5055",
"J  c #56524B",
"K  c #59564E",
"L  c #535354",
"P  c #545558",
"I  c #5E5A53",
"U  c #5C5C5C",
"Y  c #40406C",
"T  c #4F4F65",
"R  c #4B4B6F",
"E  c #5D5E62",
"W  c #5F6166",
"Q  c #625F57",
"!  c #646259",
"~  c #7B7D45",
"^  c #656565",
"/  c #60606B",
"(  c #63686F",
")  c #6C6B65",
"_  c #6C6C6C",
"`  c #606876",
"'  c #686B71",
"]  c #747474",
"[  c #70737A",
"{  c #7B7B7B",
"}  c #171780",
"|  c #1C1C86",
" . c #212187",
".. c #232395",
"X. c #2C2C9C",
"o. c #39398C",
"O. c #31319F",
"+. c #3434A3",
"@. c #3838A5",
"#. c #3D3DAA",
"$. c #4E4E83",
"%. c #545490",
"&. c #54549A",
"*. c #4242AD",
"=. c #4C4CAA",
"-. c #4747B1",
";. c #4A4AB3",
":. c #4F4FB8",
">. c #5656AB",
",. c #5353B4",
"<. c #5454BC",
"1. c #6C7583",
"2. c #737A84",
"3. c #7F7F82",
"4. c #7070B8",
"5. c #5E5EC3",
"6. c #6464C9",
"7. c #6A6ACE",
"8. c #6F6FD3",
"9. c #7373D5",
"0. c #7C7CDF",
"q. c #7F7FE1",
"w. c #7E8187",
"e. c #7C838C",
"r. c #9E7C00",
"t. c #A56700",
"y. c #AF7C00",
"u. c #B07200",
"i. c #B07800",
"p. c #B18402",
"a. c #82834D",
"s. c #B3B57D",
"d. c #C69800",
"f. c #C5990F",
"g. c #DD8D02",
"h. c #DDB100",
"j. c #E79800",
"k. c #E89B00",
"l. c #EAA302",
"z. c #E8AB01",
"x. c #E9B302",
"c. c #E9BE18",
"v. c #F4A700",
"b. c #F3AD04",
"n. c #F5B302",
"m. c #F2BB02",
"M. c #F6B908",
"N. c #F9B500",
"B. c #FDBD00",
"V. c #EEC804",
"C. c #F7C30D",
"Z. c #FEC203",
"A. c #FAC40A",
"S. c #FECA0A",
"D. c #F6C010",
"F. c #F5C916",
"G. c #FBCC14",
"H. c #F8CF1D",
"J. c #F1D40C",
"K. c #F4DC13",
"L. c #FDD214",
"P. c #FBD625",
"I. c #FEDD24",
"U. c #F9D92B",
"Y. c #F6E211",
"T. c #F9E316",
"R. c #FDE53A",
"E. c #FEE93A",
"W. c #848484",
"Q. c #8C8C8C",
"!. c #8E8F92",
"~. c #8A919A",
"^. c #949494",
"/. c #939499",
"(. c #9C9C9C",
"). c #9B9EA5",
"_. c #A4A4A4",
"`. c #A3A6AB",
"'. c #ABABAB",
"]. c #A2A8B0",
"[. c #ADB4BE",
"{. c #B4B4B4",
"}. c #BCBCBC",
"|. c #8484CE",
" X c #8D8DDE",
".X c #8484E4",
"XX c #8B8BE9",
"oX c #9292E8",
"OX c #9393F0",
"+X c #AEB7C1",
"@X c #B3BBC3",
"#X c #BBBFC5",
"$X c #BEC0C5",
"%X c #BDC5CD",
"&X c #C3C3C3",
"*X c #C1C7CD",
"=X c #CBCBCB",
"-X c #C7CCD2",
";X c #C8CED5",
":X c #CFD3D8",
">X c #D3D3D3",
",X c #D5DADF",
"<X c #DBDBDB",
"1X c #DADCE0",
"2X c #E3E3E3",
"3X c #E7E9EC",
"4X c #EBECEC",
"5X c #ECEEF1",
"6X c #F3F3F3",
"7X c #F9F9F9",
/* pixels */
"^ ^ ^ ^ ^ ^ ^ ^ ^ ^ ^ ^ ^ ^ ^ ^ ^ ^ ^ ^ ^ ^ ^ ^ ^ ^ ^ ^ ^ ^ ^ ^ ^ ^ ^ ^ ^ ^ ^ ^ ^ ^ ^ ^ ^ ^ ^ ^ ",
"^ ^ ^ ^ ^ ^ ^ ^ ^ ^ ^ ^ ^ ^ ^ ^ ^ ^ ^ ^ ^ ^ ^ ^ ^ ^ ^ ^ ^ ^ ^ ^ ^ ^ ^ ^ ^ ^ ^ ^ ^ ^ ^ ^ ^ ^ ^ ^ ",
"^ ^ ^ ^ ^ ^ ^ ^ ^ ^ ^ ^ ^ ^ ^ ^ ^ ^ ^ _ ^ ^ W ^ ^ ^ ^ ^ ^ ^ ^ ^ ^ ^ ^ ^ ^ ^ ^ ^ ^ ^ ^ ^ ^ ^ ^ ^ ",
"^ ^ ^ ^ ^ ^ ^ ^ ^ ^ ^ ^ ^ ^ ^ ^ ^ ^ U S : * = = & * f H ! ^ ^ ^ ^ ^ ^ ^ ^ ^ ^ ^ ^ ^ ^ ^ ^ ^ ^ ^ ",
"^ ^ ^ ^ ^ ^ ^ ^ ^ ^ ^ ^ ^ ^ ^ ^ F ; * f L E ^ _ 8 3 q 1 # , P ^ ^ ^ ^ ^ ^ ^ ^ ^ ^ ^ ^ ^ ^ ^ ^ ^ ",
"^ ^ ^ ^ ^ ^ ^ ^ ^ ^ ^ ^ ^ ^ L % . L _ ] { { W.W.Q w #.O. .2 + : Q ^ ^ ^ ^ ^ ^ ^ ^ ^ ^ ^ ^ ^ ^ ^ ",
"^ ^ ^ ^ ^ ^ ^ ^ ^ ^ ^ ^ ^ A & F ; ] 3.3.W.W.Q.!.{ 5 -.*.+.X.| < O F ^ ^ ^ ^ ^ ^ ^ ^ ^ ^ ^ ^ ^ ^ ",
"^ ^ ^ ^ ^ ^ ^ ^ ^ ^ ^ ^ f ; _ { f ] W.Q.!.^.^.(.!.7 ,.:.*.@.X...4 + 8 ^ ^ ^ ^ ^ ( ^ ^ ^ ^ ^ ^ ^ ",
"^ ^ ^ ^ ^ ^ ^ ^ ^ ^ ^ b ; _ 3.Q.F _ ^./.(.(.(._._.G >.5.<.-.#.O...4 1 , ^ ^ ^ ^ ^ ^ ^ ^ ^ ^ ^ ^ ",
"^ ^ ^ ^ ^ ^ ^ ^ ^ ^ S % ' 2.Q.^.Q ^ (.(._._.'.'.{.W &.8.6.<.;.*.+.X.| @ A ^ ^ ^ ^ ^ ^ ^ ^ ^ ^ ^ ",
"^ ^ ^ ^ ^ ^ ^ ^ ^ P % E 3.~.Q.(.{ L _.'.'.{.{.}.}.3.$.q.9.6.5.:.*.@.X.| + G _ ^ ^ ^ ^ ^ ^ ^ ^ ^ ",
"^ ^ ^ ^ ^ ^ ^ ^ ^ ; G { a.Q.^._.^.F '.{.{.}.}.&X=X_.R XX.X9.7.5.<.;.#.+.4 % U ^ ^ ^ ^ ^ ^ ^ ^ ^ ",
"^ ^ ^ ^ ^ ^ ^ ^ F ; ] 3.Q.^.(._._.J _.$X&X&X=X=X>X&XT oXoXXX0.8.6.=.o.e 3 o , ^ ^ ^ ^ ^ ^ ^ ^ ^ ",
"^ ^ ^ ^ ^ ^ ^ ^ ; P { W.!./._.{.}.E (.=X=X=X>X<X<X<X/ |. X4.%.Y 0 6 A L ! ^ , ^ ^ ^ ^ ^ ^ ^ ^ ^ ",
"^ ^ ^ ^ ^ ^ ^ P = ] W.Q.^._.'.{.&X{ Q.<X<X<X>X&X'.!.A 9 G L W ] W.Q.!.Q.Q.W.U A _ ^ ^ ^ ^ ^ ^ ^ ",
"^ ^ ^ ^ ^ ^ ^ A F W.Q.^._.'.{.}.&X!.W (.W._ U P Q _ W.^._._._._.(./.^.!.Q.W.{ A ^ _ ^ ^ ^ ^ ^ ^ ",
"^ ^ ^ ^ ^ ^ ^ ; ^ Q.^.(.(.^.W._ Q F A W ] Q._.'.{.{.{.{.'.'._._._.(.^.^.!.Q.W.U J _ ^ ^ ^ ^ ^ ^ ",
"^ ^ ^ ^ ^ ^ I & ^ ^ K F A F U ] Q.(.'.{.{.}.{.}.}.}.}.{.{.{.{.'._._.(.(.^.Q.Q.{ , ] ^ ^ ^ ^ ^ ^ ",
"^ ^ ^ ^ ^ ^ L . A H ^ { !.(._.'.{.{.{.}.}.}.}.&X&X&X}.}.}.{.{.'.'.'._.(.(.^.Q.W.S ) ) ^ ^ ^ ^ ^ ",
"^ ^ ^ ^ ^ ^ A F W.!.^.(.(._._.'.{.{.}.}.&X&X&X&X&X&X&X&X&X}.}.{.{.'._._.(.^.^.Q.P W _ ^ ^ ^ ^ ^ ",
"^ ^ ^ ^ ^ ) A P !.^.^.(._._.'.{.{.}.&X&X&X=X=X=X=X=X=X&X&X&X&X}.{.'.'._._.(.^.!.) H ] ^ ^ ^ ^ ^ ",
"^ ^ ^ ^ ^ ^ , E Q.^.(._._.'.{.}.}.&X&X&X=X>X>X>X>X>X>X>X=X&X&X}.}.{.'.'._.(.^.^.{ F ] ^ ^ ^ ^ ^ ",
"^ ^ ^ ^ ^ ^ , ! ^.^.(._._.{.}.}.}.&X=X>X>X>X<X<X<X<X<X>X>X=X&X&X}.}.{.'._._.(.^.a.D { ^ ^ ^ ^ ^ ",
"^ ^ ^ ^ ^ ^ , ^ ^.^.(._.'.{.{.}.&X&X>X>X<X<X<X2X2X2X<X<X>X>X=X=X&X}.{.'.'._.(.^.~.G { / ^ ^ ^ ^ ",
"^ ^ ^ ^ ^ _ A U ^.(.(._.{.{.}.}.&X=X>X<X2X2X2X2X2X2X2X2X<X>X>X&X&X}._.] U P L U ) t 3.^ ^ ^ ^ ^ ",
"^ ^ ^ ^ ^ ) A H /.(._.'.'.{.}.&X=X=X>X<X2X2X4X4X6X4X4X2X<X<X>X>X}._ F ] (.'.`.Q.L % ^ ^ ^ ^ ^ ^ ",
"^ ^ ^ ^ ^ ^ L A ^.(._.'.{.{.}.&X=X>X>X<X2X2X4X6X6X6X6X2X2X<X>X&XU W $X3X5X3X3X5X1X/.: F ^ ^ ^ ^ ",
"^ ^ ^ ^ ^ ^ U : Q.(._.'.{.{.}.&X=X>X<X2X2X4X6X7X7X6X6X2X2X<X>X) W ;X:X).' W W w.$X,X).; P ) ^ ^ ",
"^ ^ ^ ^ ^ ^ ^ : 3.(._.'.{.{.}.&X&X>X<X<X2X4X6X7X7X7X6X4X2X<X'.D [.%X( A _ { ] F t ].;X[ ; ^ ^ ^ ",
"^ ^ ^ ^ ^ ^ ^ f Q (._._.{.{.}.&X=X>X<X<X2X4X6X6X6X6X4X2X2X<X{ ( %Xe.D _.{._._.(.F t [.].; U ^ ^ ",
"^ ^ ^ ^ ^ ^ ^ P , ^._._.'.{.}.&X=X=X>X<X2X2X4X5X4X4X4X2X1X>XU 3.$XH W.{.'._._.^.F $ ~.[.S F ^ ^ ",
"^ ^ ^ ^ ^ ^ ^ ^ > ] _._.{.{.}.&X&X=X>X>X<X2X2X2X4X2X2X<X<X>XP e.[.S ^.{.'._.(.Q.F t 2.$XG F ^ ^ ",
"^ ^ ^ ^ ^ ^ ^ ^ H A (._.'.{.{.}.&X&X>X>X<X<X2X<X2X<X<X<X>X&XD 1.+X8 3.)./.!.Q.W H , ` +Xt 8 W ^ ",
"^ ^ ^ ^ ^ ^ ^ ^ ^ > { _._.{.{.}.}.&X&X>X>X>X>X<X<X<X<X>X`.b l a.s.C x c c c c j z j ~ s.Z l > W ",
"^ ^ ^ ^ ^ ^ ^ ^ ^ L A ^._.'.{.{.&X&X&X&X=X>X>X>X>X>X>X=X_ y.V.K.T.Y.Y.Y.Y.Y.Y.Y.Y.Y.Y.T.J.h.h P ",
"^ ^ ^ ^ ^ ^ ^ ^ ^ ^ , P _._.'.{.{.}.&X&X&X=X&X>X=X=X=X=XQ p.F.R.E.E.E.E.E.E.E.E.E.E.E.R.U.x.k H ",
"^ ^ ^ ^ ^ ^ ^ ^ ^ ^ ! : _ _.'.'.{.{.}.&X&X&X&X&X&X&X&X&XQ i.D.P.I.I.I.I.I.I.I.I.I.I.I.P.P.z.h H ",
"^ ^ ^ ^ ^ ^ ^ ^ ^ ^ ^ E : { _.'.'.{.{.{.{.}.&X&X&X&X}.}.Q i.M.G.L.L.L.L.F.F.F.L.L.L.L.L.C.l.h H ",
"^ ^ ^ ^ ^ ^ ^ ^ ^ ^ ^ ^ U : ] _._.'.'.{.{.{.{.{.{.{.}.{.Q u.n.M.A.S.S.S.f.p V C.S.S.S.A.M.l.h H ",
") ^ ^ ^ ^ ^ ^ ^ ^ ^ ^ ^ ^ Q , ^ _.'._.'.{.{.{.{.{.{.{.{.J u.b.B.Z.Z.Z.S.p.  g M.Z.S.Z.B.m.k.s L ",
"^ ^ ^ ^ ^ ^ ^ ^ ^ ^ ^ ^ ^ _ ^ A D W._.'._.'.'.{.'.'.'.'.J u.b.N.B.Z.Z.Z.m.g p.Z.B.Z.B.B.n.j.s L ",
"^ ^ ^ ^ ^ ^ ^ ^ ^ ^ ^ ^ ^ ^ ^ _ U f P 3.(._._._._.'._._.J u.v.N.B.B.B.B.B.N d.B.B.B.B.B.n.j.s H ",
"^ ^ ^ ^ ^ ^ ^ ^ ^ ^ ^ ^ ^ ^ ^ ^ _ _ U A F Q { W.!.!.W.{ > u.v.N.B.B.B.B.B.h.m.B.B.B.B.B.n.j.s L ",
"^ ^ ^ ^ ^ ^ ^ ^ ^ ^ ^ ^ ^ ^ ^ ^ ^ ^ _ ] _ W L H F F L P = u.v.N.B.B.Z.B.B.B.B.B.B.B.B.B.b.j.s L ",
"^ ^ ^ ^ ^ ^ ^ ^ ^ ^ ^ ^ ^ ^ ^ ^ ^ ^ ^ ^ ^ _ _ { { { 3.{ f u.v.n.N.B.B.N.B.B.B.B.B.B.N.B.b.k.s L ",
"^ ^ ^ ^ ^ ^ ^ ^ ^ ^ ^ ^ ^ ^ ^ ^ ^ ^ ^ ^ ^ ^ ^ ^ ^ ! ^ ^ ; t.k.v.b.n.b.b.b.n.b.b.b.b.b.b.l.g.s L ",
"^ ^ ^ ^ ^ ^ ^ ^ ^ ^ ^ ^ ^ ^ ^ ^ ^ ^ ^ ^ ^ ^ ^ ^ ^ ^ ^ ^ F p n m M M M M M M M M M M m m n d = E ",
"^ ^ ^ ^ ^ ^ ^ ^ ^ ^ ^ ^ ^ ^ ^ ^ ^ ^ ^ ^ ^ ^ ^ ^ ^ ^ ^ ^ ^ P F F D F F G D F D D F G D D F J E ^ "
};
