/* XPM */
static const char *buttonLeftLocked[] = {
/* columns rows colors chars-per-pixel */
"48 48 211 2",
"   c #100B04",
".  c #070738",
"X  c #0B0B35",
"o  c #14142C",
"O  c #1D1D20",
"+  c #131333",
"@  c #1A1A34",
"#  c #232425",
"$  c #272829",
"%  c #2D2D2D",
"&  c #272735",
"*  c #2C2C33",
"=  c #37332C",
"-  c #39352D",
";  c #333434",
":  c #36373A",
">  c #3E3C34",
",  c #3C3C3C",
"<  c #050555",
"1  c #0C0C54",
"2  c #121258",
"3  c #07076C",
"4  c #0B0B63",
"5  c #0A0A77",
"6  c #0E0E7B",
"7  c #101077",
"8  c #212140",
"9  c #232353",
"0  c #373741",
"q  c #3C3E43",
"w  c #38384E",
"e  c #323258",
"r  c #2F2F6C",
"t  c #25257D",
"y  c #2D2D78",
"u  c #3E4146",
"i  c #46340F",
"p  c #453D0B",
"a  c #4D3F0E",
"s  c #453212",
"d  c #523D05",
"f  c #563C0B",
"g  c #5B3E0D",
"h  c #413E36",
"j  c #564001",
"k  c #57410A",
"l  c #524E0C",
"z  c #58430A",
"x  c #544D12",
"c  c #565210",
"v  c #5A5613",
"b  c #5D5A17",
"n  c #5F5B18",
"m  c #595436",
"M  c #66440D",
"N  c #68470E",
"B  c #6A4B0F",
"V  c #6F5800",
"C  c #605C19",
"Z  c #7D5F10",
"A  c #656325",
"S  c #6B682E",
"D  c #434344",
"F  c #44454B",
"G  c #47494C",
"H  c #4A4B4C",
"J  c #444454",
"K  c #42425B",
"L  c #4D4D50",
"P  c #4C5055",
"I  c #56524B",
"U  c #59564E",
"Y  c #535354",
"T  c #545558",
"R  c #5C5A54",
"E  c #5B5B5B",
"W  c #4D4D72",
"Q  c #5E5E62",
"!  c #5F6166",
"~  c #625F57",
"^  c #646259",
"/  c #7B7D45",
"(  c #656565",
")  c #63686F",
"_  c #6C6B65",
"`  c #6C6C6C",
"'  c #606876",
"]  c #686B71",
"[  c #747474",
"{  c #70737A",
"}  c #7B7B7B",
"|  c #101081",
" . c #151589",
".. c #1A1A8C",
"X. c #1F1F92",
"o. c #202080",
"O. c #21218F",
"+. c #232394",
"@. c #2B2B9B",
"#. c #30309E",
"$. c #3434A2",
"%. c #3B3BA7",
"&. c #3B3BA9",
"*. c #434392",
"=. c #5A5A8D",
"-. c #4242AE",
";. c #4A4AB4",
":. c #4E4EB8",
">. c #5454BC",
",. c #5B5BB3",
"<. c #5858BE",
"1. c #616196",
"2. c #6C7583",
"3. c #737A84",
"4. c #7F7F82",
"5. c #6262A6",
"6. c #6666B8",
"7. c #7272B2",
"8. c #5C5CC3",
"9. c #6161C3",
"0. c #6464C9",
"q. c #6868CC",
"w. c #6F6FD3",
"e. c #7373D3",
"r. c #7E8187",
"t. c #7C838C",
"y. c #9E7C00",
"u. c #A56700",
"i. c #AF7C00",
"p. c #B07200",
"a. c #B07800",
"s. c #B18402",
"d. c #82834D",
"f. c #B3B57D",
"g. c #C69800",
"h. c #C5990F",
"j. c #DD8D02",
"k. c #DDB100",
"l. c #E79800",
"z. c #E89B00",
"x. c #EAA302",
"c. c #E8AB01",
"v. c #E9B302",
"b. c #E9BE18",
"n. c #F4A700",
"m. c #F3AD04",
"M. c #F5B302",
"N. c #F2BB02",
"B. c #F6B908",
"V. c #F9B500",
"C. c #FDBD00",
"Z. c #EEC804",
"A. c #F7C30D",
"S. c #FEC203",
"D. c #FAC40A",
"F. c #FECA0A",
"G. c #F6C010",
"H. c #F5C916",
"J. c #FBCC14",
"K. c #F8CF1D",
"L. c #F1D40C",
"P. c #F4DC13",
"I. c #FDD214",
"U. c #FBD625",
"Y. c #FEDD24",
"T. c #F9D92B",
"R. c #F6E211",
"E. c #F9E316",
"W. c #FDE53A",
"Q. c #FEE93A",
"!. c #848484",
"~. c #898987",
"^. c #8C8C8C",
"/. c #8E8F92",
"(. c #8A919A",
"). c #949494",
"_. c #939499",
"`. c #9C9C9C",
"'. c #9B9EA5",
"]. c #A4A4A4",
"[. c #A3A6AB",
"{. c #A8A8A7",
"}. c #ABABAB",
"|. c #A2A8B0",
" X c #ADB4BE",
".X c #B4B4B4",
"XX c #BCBCBC",
"oX c #8383E3",
"OX c #9595F2",
"+X c #AEB7C1",
"@X c #B3BBC3",
"#X c #BBBFC5",
"$X c #A1A1FC",
"%X c #BEC0C5",
"&X c #BDC5CD",
"*X c #C3C3C3",
"=X c #C1C7CD",
"-X c #CBCBCB",
";X c #C7CCD2",
":X c #C8CED5",
">X c #CFD3D8",
",X c #D3D3D3",
"<X c #D5DADF",
"1X c #DBDBDB",
"2X c #DADCE0",
"3X c #E3E3E3",
"4X c #E7E9EC",
"5X c #EBECEC",
"6X c #ECEEF1",
"7X c #F3F3F3",
"8X c #F9F9F9",
/* pixels */
"( ( ( ( ( ( ( ( ( ( ( ( ( ( ( ( ( ( ( ( ( ( ( ( ( ( ( ( ( ( ( ( ( ( ( ( ( ( ( ( ( ( ( ( ( ( ( ( ",
"( ( ( ( ( ( ( ( ( ( ( ( ( ( ( ( ( ( ( ( ( ( ( ( ( ( ( ( ( ( ( ( ( ( ( ( ( ( ( ( ( ( ( ( ( ( ( ( ",
"( ( ( ( ( ( ( ( ( ( ( ( ( ( ( ( ( ( ( ( ( ( Q ( ( ! ( ( ( ( ( ( ( ( ( ( ( ( ( ( ( ( ( ( ( ( ( ( ",
"( ( ( ( ( ( ( ( ( ( ( ( ( ( ( ( ( ( R H : ; = = % = q L Q ( _ ( ( ( ( ( ( ( ( ( ( ( ( ( ( ( ( ( ",
"( ( ( ( ( ( ( ( ( ( ( ( ( ( ( ( H ; * q L Q ( ` F h E h % , Y ( ( ( ( ( ( ( ( ( ( ( ( ( ( ( ( ( ",
"( ( ( ( ( ( ( ( ( ( ( ( ( ( Y % # T 2.3.} } !.!.` G ^.!.[ Y % , E ( ( ( ( ( ( ( ( ( ( ( ( ( ( ( ",
"( ( ( ( ( ( ( ( ( ( ( ( ( D + 1 & [ } d.!.~.~./.4.D ^.).^.~.[ H $ L ( ( ( ( ( ( ( ( ( ( ( ( ( ( ",
"( ( ( ( ( ( ( ( ( ( ( ( , X 7 ..8 [ ~.^./.).).`.).D ^.`.)./.~.!.( & m ( ( ( ( ( ( ( ( ( ( ( ( ( ",
"( ( ( ( ( ( ( ( ( ( ( h . 6 X.$.9 ` /.`._.`.`.].{.E 4.{.`.`.).^.~.} : , ( ( ( ( ( ( ( ( ( ( ( ( ",
"( ( ( ( ( ( ( ( ( ( G X 5 X.@.-.r ( `.`.].{.}.}..X[ ` .X}.].`.`.).^.} h D ( ( ( ( ( ( ( ( ( ( ( ",
"( ( ( ( ( ( ( ( ( R o 3 ..@.%.:.*.T {.{.}..X.XXXXX).Q XX.X}.{.`.`.).).} ; H ( ( ( ( ( ( ( ( ( ( ",
"( ( ( ( ( ( ( ( ( * <  .+.$.;.8.,.J }..X.XXXXX*X*X.XR XXXXXX.X.X{.].`.`.} * E ( ( ( ( ( ( ( ( ( ",
"( ( ( ( ( ( ( ( P X 6 +.$.;.>.q.e.K {.*X*X*X-X-X-X-XE XX-X*X*XXX}.`.4.( L # , ` ( ( ( ( ( ( ( ( ",
"( ( ( ( ( ( ( ( * 4 +.#.&.>.0.e.oXW `.-X-X-X,X1X2X3X[ `.XX`.} ~ H D D Y ^ ( , ! ( ( ( ( ( ( ( ( ",
"( ( ( ( ( ( ( T + ..@.&.>.8.e.oXOX1.~.1X1X1X,X*X}./.H h Y Y ( [ !.~.^.^.~.!.~ D ` ( ( ( ( ( ( ( ",
"( ( ( ( ( ( ( D 2 @.%.;.8.w.oXOX$X7.Q `.!.` T Y ~ [ ~.`.`.].].'.`.`.)./.^.~.} q ( _ ( ( ( ( ( ( ",
"( ( ( ( ( ( ! & t %.;.8.9.6.5.=.W J D ~ [ ^.`.}..X.X.X}.}.}.{.].].`._.)./.^.~.R P ) ( ( ( ( ( ( ",
"( ( ( ( ( ( E @ t y r e w J E ` ^.`.}..X.XXXXXXXXXXXXXXX.X.X}.}.].].`.`.).^.~.} m ] ( ( ( ( ( ( ",
"( ( ( ( ( ( I O 0 H ( } ^.`.{.}.}..XXXXXXXXX*XXXXXXXXXXXXX.X.X.X{.{.].`.`.).^.~.F ` ( ( ( ( ( ( ",
"( ( ( ( ( ( D H ~./.).`.`.].}.}..X.XXXXX*X*X*X-X*X-X*X*X*XXXXX.X.X}.{.].`.)./.^.R E ] ( ( ( ( ( ",
"( ( ( ( ( ( D E ^.^.).`.].{.}..XXXXX*X*X*X-X-X-X-X-X-X-X*X*XXXXX.X.X}.{.`.`.)./.( Y [ ( ( ( ( ( ",
"( ( ( ( ( ( , Q /.).`.].{.}..X.XXX*X*X-X-X,X-X,X,X,X,X-X-X-X*XXX.X.X}.{.].`.`.).} G [ ( ( ( ( ( ",
"( ( ( ( ( ( , ( ).).`.`.{.}..XXXXX*X-X-X,X1X,X1X1X1X1X,X,X-X-X*XXXXX.X}.].`.`.).!.G } ( ( ( ( ( ",
"( ( ( ( ( ( h Q ).`.`.{.}.}.XXXX*X-X-X,X,X1X3X3X2X3X1X1X,X,X-X*X*XXX.X.X{.{.`._.~.D } ( ( ( ( ( ",
"( ( ( ( ( ( D E ).`.`.{.}..XXX*X*X-X,X1X1X3X3X5X3X5X3X1X1X,X,X-X*X%X].[ E T Y R ( D 4.( ( ( ( ( ",
"( ( ( ( ( _ G Y _.`.].{.}.XXXX*X-X-X,X1X3X3X5X5X5X5X5X3X1X1X,X-XXX` F [ `.}.[.^.T $ ( ( ( ( ( ( ",
"( ( ( ( ( ( Y D ).`.].{..X.XXX*X-X,X1X1X3X5X5X7X7X7X5X3X3X1X,X*XR ! %X5X6X4X4X6X1X_.: H ( ( ( ( ",
"( ( ( ( ( ! ~ ; ^.`.].}..X.XXX*X*X,X1X1X3X5X7X8X8X8X7X5X3X1X,X` ! ;X>X'.] ! ! r.%X2X'.; T ( ( ( ",
"( ( ( ( ( ( ( : 4.`.].}..XXXXX*X-X,X1X1X3X5X7X8X8X7X5X5X3X1X.XD  X&X] D ` } ` H u |.:X{ ; ( ( ( ",
"( ( ( ( ( ( ( D ~ `.].{.}..XXX*X-X,X1X1X3X5X5X7X7X7X5X5X3X1X} ) &Xt.F ]..X{.].`.H u +X|.; E ( ( ",
"( ( ( ( ( ( ( R q ).].{.}..XXX*X-X-X,X1X3X3X5X5X7X5X5X3X2X,XE 4.%XP !..X{.].].`.H # (.+Xu P ( ( ",
"( ( ( ( ( ( ( ! - [ ].{.}..XXX*X*X-X,X,X1X3X3X3X5X3X3X2X1X,XT t. XF )..X}.].`.~.G D 3.@XL H ( ( ",
"( ( ( ( ( ( ( _ L D `.{.}..XXXXX-X-X-X,X,X1X2X3X1X1X1X1X,X*XG 2.+Xq 4.'._./.^.! P u ' +Xu q ! ( ",
"( ( ( ( ( ( ( ( ( : [ ].{.}..XXXXX*X-X-X,X,X1X1X1X1X,X1X{.m x d.f.A v b b b b l l l / f.S x , ( ",
"( ( ( ( ( ( ( ( ( Y h ).].}.}.XXXXXX*X-X-X-X,X,X,X,X,X,X_ y.A.P.E.R.R.R.R.R.R.R.R.R.R.R.L.k.k P ",
"( ( ( ( ( ( ( ( ( ( q E ].].}..XXXXXXX*X-X-X-X-X-X-X-X-X^ s.H.W.W.Q.W.W.Q.Q.Q.Q.Q.Q.Q.W.T.v.z P ",
"( ( ( ( ( ( ( ( ( ( ( : ` ].{.}..X.XXXXX*X*X*X*X*X*X*X*X~ a.B.T.Y.Y.Y.Y.Y.Y.Y.Y.Y.Y.Y.Y.K.c.k Y ",
"( ( ( ( ( ( ( ( ( ! ( Q : } ].}.}..X.XXXXXXX%XXX*XXXXXXX~ a.B.J.I.I.I.I.J.H.H.I.I.I.I.I.H.c.f Y ",
"( ( ( ( ( ( ( ( ( ( ( ( E : [ ].}.}.}..X.X.XXXXXXXXXXXXX~ p.m.D.F.F.F.F.h.s Z A.F.F.F.D.B.x.f Y ",
"( ( ( ( ( ( ( ( ( ( ( ( ( ~ , ( `.{.}.}.}..X}..X.X}.}..XI p.n.C.S.D.D.S.s.  j N.S.S.D.C.N.z.f P ",
"( ( ( ( ( ( ( ( ( ( ( ( ( _ ( D G !.].{.{.{.}.}.}.}.{.}.U p.n.B.C.C.S.S.N.j s.S.C.S.C.C.M.z.f Y ",
"( ( ( ( ( ( ( ( ( ( ( ( ( ( ( _ ~ q Y !.`.].{.{.{.].{.{.I p.n.V.C.C.C.C.C.V g.C.C.C.C.C.M.l.f P ",
"( ( ( ( ( ( ( ( ( ( ( ( ( ( ( ( ( ` E D H ( [ !.^.^.~.} h p.n.V.C.C.C.S.C.k.N.C.C.C.C.C.m.z.f Y ",
"( ( ( ( ( ( ( ( ( ( ( ( ( ( ( ( ( ( ` [ ` Q Y I H H L T = p.n.V.C.C.C.C.C.C.C.S.C.C.C.C.m.z.f Y ",
"( ( ( ( ( ( ( ( ( ( ( ( ( ( ( ( ( ( ( ( ( ` [ [ } } 4.} h p.n.V.C.C.C.C.C.C.C.C.C.C.C.V.m.z.g Y ",
"( ( ( ( ( ( ( ( ( ( ( ( ( ( ( ( ( ( ( ( ( ( ( ( ( ( ( ( - u.z.x.m.m.m.m.m.m.m.m.m.m.m.m.x.j.f Y ",
"( ( ( ( ( ( ( ( ( ( ( ( ( ( ( ( ( ( ( ( ( ( ( ( ( ( ( ( H s M N B B B B B B B B B B B B M g = Q ",
"( ( ( ( ( ( ( ( ( ( ( ( ( ( ( ( ( ( ( ( ( ( ( ( ( ( ( ( ( Y G L G H G G G G G G L G G G G L ~ ( "
};
