/* XPM */
static char * buttonRightSelected[] = {
"48 48 226 2",
"  	c None",
". 	c #666666",
"+ 	c #656565",
"@ 	c #626262",
"# 	c #5F5E5E",
"$ 	c #5D5C5C",
"% 	c #5B5A5A",
"& 	c #5E5E5E",
"* 	c #595858",
"= 	c #5A5959",
"- 	c #696868",
"; 	c #8C8B8B",
"> 	c #B3B2B2",
", 	c #CECDCD",
"' 	c #E1E1E1",
") 	c #EAE9E9",
"! 	c #CECECE",
"~ 	c #B3B3B3",
"{ 	c #8C8C8C",
"] 	c #818181",
"^ 	c #BDBCBC",
"/ 	c #DEDEDE",
"( 	c #EFEFEF",
"_ 	c #FCFCFC",
": 	c #FFFFFF",
"< 	c #F0F0F0",
"[ 	c #BDBDBD",
"} 	c #828181",
"| 	c #5E5D5D",
"1 	c #5C5B5B",
"2 	c #7D7D7D",
"3 	c #CCCCCC",
"4 	c #F5F5F5",
"5 	c #FEFEFE",
"6 	c #7F7F7F",
"7 	c #636262",
"8 	c #ACACAC",
"9 	c #F6F6F6",
"0 	c #EAEAEA",
"a 	c #F8F8F8",
"b 	c #AFAEAE",
"c 	c #767575",
"d 	c #CDCDCD",
"e 	c #FDFDFD",
"f 	c #E5E5E5",
"g 	c #E2E2E2",
"h 	c #FBFBFB",
"i 	c #A09F9F",
"j 	c #FAFAFA",
"k 	c #E0E0E0",
"l 	c #CFCFCF",
"m 	c #777676",
"n 	c #7B7A7A",
"o 	c #DDDDDD",
"p 	c #C0BFBF",
"q 	c #AEAEAE",
"r 	c #7D7C7C",
"s 	c #ADACAC",
"t 	c #E0301A",
"u 	c #D1887F",
"v 	c #F0DFDD",
"w 	c #7C7B7B",
"x 	c #5D5D5D",
"y 	c #747474",
"z 	c #DBDADA",
"A 	c #DCDCDC",
"B 	c #8F8E8E",
"C 	c #D6D6D6",
"D 	c #D5D4D4",
"E 	c #D5D5D5",
"F 	c #E82C15",
"G 	c #EB2B13",
"H 	c #CD4B3B",
"I 	c #DFB8B3",
"J 	c #757474",
"K 	c #656464",
"L 	c #CACACA",
"M 	c #CBCBCB",
"N 	c #6E6E6E",
"O 	c #8A8989",
"P 	c #B4B4B4",
"Q 	c #CF4534",
"R 	c #DB331E",
"S 	c #D49891",
"T 	c #676666",
"U 	c #A6A5A5",
"V 	c #6A6969",
"W 	c #A5A5A5",
"X 	c #8D8C8C",
"Y 	c #8E8D8D",
"Z 	c #F9F9F9",
"` 	c #CB6153",
" .	c #DE311C",
"..	c #D69D96",
"+.	c #A7A7A7",
"@.	c #F3F3F3",
"#.	c #DBDBDB",
"$.	c #727272",
"%.	c #F4F4F4",
"&.	c #6F6E6E",
"*.	c #D0877E",
"=.	c #E92C14",
"-.	c #D93621",
";.	c #DEB6B1",
">.	c #C5C5C5",
",.	c #F2F2F2",
"'.	c #878686",
").	c #5C5C5C",
"!.	c #D9D8D8",
"~.	c #D9D9D9",
"{.	c #D04433",
"].	c #F3E7E6",
"^.	c #C6C6C6",
"/.	c #B5B5B5",
"(.	c #646363",
"_.	c #787777",
":.	c #E7E7E7",
"<.	c #605F5F",
"[.	c #E8E8E8",
"}.	c #D43B28",
"|.	c #CC6E62",
"1.	c #858484",
"2.	c #BFBEBE",
"3.	c #D3D2D2",
"4.	c #6B6A6A",
"5.	c #626161",
"6.	c #838383",
"7.	c #ECECEC",
"8.	c #8A8A8A",
"9.	c #EEEEEE",
"0.	c #E32F18",
"a.	c #D79F98",
"b.	c #C1C0C0",
"c.	c #646464",
"d.	c #6E6D6D",
"e.	c #E6E6E6",
"f.	c #AAAAAA",
"g.	c #818080",
"h.	c #727171",
"i.	c #CB6A5E",
"j.	c #CB6559",
"k.	c #706F6F",
"l.	c #908F8F",
"m.	c #F1F1F1",
"n.	c #CAC9C9",
"o.	c #7E7D7D",
"p.	c #6D6C6C",
"q.	c #E4E3E3",
"r.	c #D8A19B",
"s.	c #EA2B14",
"t.	c #D33D2A",
"u.	c #ECD7D4",
"v.	c #929191",
"w.	c #B2B1B1",
"x.	c #D1D1D1",
"y.	c #C6C5C5",
"z.	c #DBACA7",
"A.	c #CE7C72",
"B.	c #D8D8D8",
"C.	c #F6EDEC",
"D.	c #E0B9B4",
"E.	c #DDB1AC",
"F.	c #DDB1AB",
"G.	c #EDEDED",
"H.	c #4176B4",
"I.	c #266EC3",
"J.	c #4779B3",
"K.	c #3070BC",
"L.	c #1D6FD0",
"M.	c #3370BA",
"N.	c #EBEBEB",
"O.	c #3471BA",
"P.	c #3B73B7",
"Q.	c #3C74B6",
"R.	c #507DB2",
"S.	c #7D97B6",
"T.	c #4B7AB3",
"U.	c #DFDFDF",
"V.	c #5B5B5B",
"W.	c #C4C3C3",
"X.	c #D0D0D0",
"Y.	c #216ECA",
"Z.	c #708EB4",
"`.	c #4C7BB3",
" +	c #226EC7",
".+	c #D2D2D2",
"++	c #A9A9A9",
"@+	c #8DA1BA",
"#+	c #5A82B2",
"$+	c #888787",
"%+	c #CDCECF",
"&+	c #1F6ECC",
"*+	c #B0B9C4",
"=+	c #3F75B5",
"-+	c #BDC1C8",
";+	c #BDC2C9",
">+	c #6B8BB3",
",+	c #B1B0B0",
"'+	c #E6E5E5",
")+	c #909090",
"!+	c #949393",
"~+	c #B7B7B7",
"{+	c #5580B2",
"]+	c #B9B9B9",
"^+	c #8FA2B9",
"/+	c #256EC4",
"(+	c #226EC9",
"_+	c #CCCBCB",
":+	c #B8B8B8",
"<+	c #7A95B5",
"[+	c #246EC5",
"}+	c #3772B8",
"|+	c #6F8EB3",
"1+	c #BBBABA",
"2+	c #9E9D9D",
"3+	c #717070",
"4+	c #B7B6B6",
"5+	c #B9B8B8",
"6+	c #737272",
"7+	c #ABABAB",
"8+	c #D4D4D4",
"9+	c #E9E9E9",
"0+	c #ACABAB",
"a+	c #616060",
"b+	c #636363",
"c+	c #606060",
". . . . . . . . . . . . . . . . . . . . . . . . . . . . . . . . . . . . . . . . . . . . . . . . ",
". . . . . . . . . . . . . . . . . . . . . . . . . . . . . . . . . . . . . . . . . . . . . . . . ",
". . . . . . . . . . . . . . . . . . + @ # $ % % % % $ # @ + . . . . . . . . . . . . . . . . . . ",
". . . . . . . . . . . . . . . . & * * * * * * * * * * * * * * & . . . . . . . . . . . . . . . . ",
". . . . . . . . . . . . . . . & * = - ; > , ' ) ) ' ! ~ { - = * & . . . . . . . . . . . . . . . ",
". . . . . . . . . . . . . & * * % ] ^ / ( _ : : : : _ < / [ } % * * & . . . . . . . . . . . . . ",
". . . . . . . . . . . . | * 1 2 3 4 5 : : : : : : : : : : 5 4 , 6 1 * | . . . . . . . . . . . . ",
". . . . . . . . . . . 1 * 7 8 9 : : : 5 : 5 4 0 0 4 5 5 5 : : : a b 7 * 1 . . . . . . . . . . . ",
". . . . . . . . . . 1 * c d : : : e f g h : i 1 1 i : j k f e : : : l m * 1 . . . . . . . . . . ",
". . . . . . . . . 1 * n o : : : < p - q h 4 r * * r 4 h s t u v : : : / w * 1 . . . . . . . . . ",
". . . . . . . . x * y z : : 5 A B * | C : D 7 * * 7 D : E F G H I 5 : : A J * x . . . . . . . . ",
". . . . . . . & * K L : : 5 M N * * O ( : P | * * | P : ( Q G G R S 5 : : M T * & . . . . . . . ",
". . . . . . . * % U : : : d V * $ * W j 5 X = * * = Y : Z ` G G G  ...: : : +.% * . . . . . . . ",
". . . . . . | * n @.: : #.$.* $ * 1 p : %.&.* & & * N %.: *.=.G G G -.;.: : %.w * | . . . . . . ",
". . . . . & * $ >.: : ,.'.* ).+ * - !.: z K * + + * K ~.: !.t G G G G {.].: : ^.| * & . . . . . ",
". . . . . * = } _ : 5 /.* % + (.* _.:.: /.<.* + + * # P : [.}.G G G G G |.j : _ 1.= * . . . . . ",
". . . . . * $ 2.: 5 3.4.* 5.. 7 * 6.7.: 8.= * . . * = '.: 9.{.G G G G G 0.a.5 : b.| * . . . . . ",
". . . . c.* d.e.: h f.* $ . . <.* U Z : g.* & . . & * h.a j i.G G G G G G j.j : [.k.* c.. . . . ",
". . . . 5.* l._ : m.; * 1 1 1 1 * n.: : o.* 1 1 1 1 * p.q.: r.s.G G G G G t.u.: _ v.* 5.. . . . ",
". . . . # * w.: : 3 * * * * * * * x.: ( (.* * * * * * * y.: z.G G G G G G G A._ : P * # . . . . ",
". . . . $ * l : : m.B.~.~.~.~.~.#.9 : j / ~.~.~.~.~.~.A m.: C.D.E.E.E.E.E.F.u.5 : x.* $ . . . . ",
". . . . % * q.: : : : : : : : : : : : : : : : : : : : : : : : : : : : : : : : : : e.* % . . . . ",
". . . . = * @.: : : : : : : : : : : : : : : : : : : : : : : : : : : : : : : : : : 4 * = . . . . ",
". . . . * * _ : G.H.I.I.I.I.I.I.I.I.I.I.I.I.I.I.I.I.I.I.I.I.I.I.I.I.I.I.I.I.J.( : 5 * * . . . . ",
". . . . * * : : 0 K.L.L.L.L.L.L.L.L.L.L.L.L.L.L.L.L.L.L.L.L.L.L.L.L.L.L.L.L.M.N.: : * * . . . . ",
". . . . * * 5 : N.M.L.L.L.L.L.L.L.L.L.L.L.L.L.L.L.L.L.L.L.L.L.L.L.L.L.L.L.L.O.N.: : * * . . . . ",
". . . . * * a : G.P.L.L.L.L.L.L.L.L.L.L.L.L.L.L.L.L.L.L.L.L.L.L.L.L.L.L.L.L.Q.G.: h * * . . . . ",
". . . . = * G.: ,.R.L.L.L.L.L.L.L.L.L.L.L.L.L.L.L.L.L.L.L.L.L.L.L.L.L.L.L.L.J.m.: < * = . . . . ",
". . . . 1 * A : j S.L.L.L.L.L.L.L.L.L.L.L.L.L.L.L.L.L.L.L.L.L.L.L.L.L.L.L.L.T.,.: U.* V.. . . . ",
". . . . | * W.: : X.Y.L.L.L.L.L.L.L.L.L.L.L.L.L.L.L.L.L.L.L.L.L.L.L.L.L.L.L.Z.a : ^.* x . . . . ",
". . . . <.* U : : m.`.L.L.L.L.L.L.L.L.L.L.L.L.L.L.L.L.L.L.L.L.L.L.L.L.L.L. +.+: : ++* <.. . . . ",
". . . . 7 * 1.Z : _ @+L.L.L.L.L.L.L.L.L.L.L.L.L.L.L.L.L.L.L.L.L.L.L.L.L.L.#+4 : j $+* @ . . . . ",
". . . . + * T z : : %+&+L.L.L.L.L.L.L.L.L.L.L.L.L.L.L.L.L.L.L.L.L.L.L.L.L.*+5 : A - * + . . . . ",
". . . . . * 1 f.: : ) =+L.L.L.L.L.L.L.L.L.L.L.L.L.L.L.L.L.L.L.L.L.L.L.L.Q.[.: : s 1 * . . . . . ",
". . . . . & * y m.: : -+Y.L.L.L.L.L.L.L.L.L.L.L.L.L.L.L.L.L.L.L.L.L.L.Y.;+: : %.c * & . . . . . ",
". . . . . . * % q : : a >+L.L.L.L.L.L.L.L.L.L.L.L.L.L.L.L.L.L.L.L.L.L.>+a : : ,+1 * . . . . . . ",
". . . . . . & * N q.: : ( J.L.L.L.L.L.L.L.L.L.L.L.L.L.L.L.L.L.L.L.L.J.( : : '+k.* & . . . . . . ",
". . . . . . . * = )+: : : f H.L.L.L.L.L.L.L.L.L.L.L.L.L.L.L.L.L.L.H.f : : : !+= * . . . . . . . ",
". . . . . . . & * | ~+: : : '+{+L.L.L.L.L.L.L.L.L.L.L.L.L.L.L.L.{+'+: : : ]+| * & . . . . . . . ",
". . . . . . . . | * - n.: : : m.^+/+L.L.L.L.L.L.L.L.L.L.L.L. +^+m.: : : 3 V * | . . . . . . . . ",
". . . . . . . . . $ * d.M : : : j U.J.L.L.L.L.L.L.L.L.L.(+`.o j : : : _+&.* $ . . . . . . . . . ",
". . . . . . . . . . $ * T :+: : : : m./ <+[+L.L.&+}+|+*+N.m.: : : : 1+- * $ . . . . . . . . . . ",
". . . . . . . . . . . x * # 2+7.: : : : j @.( ( ( 4 j e : : : : G.i # * $ . . . . . . . . . . . ",
". . . . . . . . . . . . | * % 3+4+N.e : : : : : : : : : : e N.5+h.% * | . . . . . . . . . . . . ",
". . . . . . . . . . . . . & * * = 6+7+8+9+9 5 : : 5 9 9+E 0+6+= * * & . . . . . . . . . . . . . ",
". . . . . . . . . . . . . . . & * * a+r W b.8+o o 8+b.W o.5.= * & . . . . . . . . . . . . . . . ",
". . . . . . . . . . . . . . . . . | * * * * * * * * * * * * * & . . . . . . . . . . . . . . . . ",
". . . . . . . . . . . . . . . . . . + b+c+| ).1 1 ).| c+b++ . . . . . . . . . . . . . . . . . . "};
