/* XPM */
static const char *buttonMiddle[] = {
/* columns rows colors chars-per-pixel */
"48 48 86 1 ",
"  c black",
". c #353535",
"X c #3A3A3A",
"o c #3F3F3F",
"O c #414141",
"+ c #434343",
"@ c gray27",
"# c #494949",
"$ c #4B4B4B",
"% c #4E4E4E",
"& c gray32",
"* c #565656",
"= c gray34",
"- c gray35",
"; c gray37",
": c gray39",
"> c #646464",
", c gray40",
"< c gray42",
"1 c #727272",
"2 c #747474",
"3 c #797979",
"4 c #7E7E7E",
"5 c red",
"6 c #FE0505",
"7 c #FB1111",
"8 c #FD1515",
"9 c #FF1919",
"0 c #FB2020",
"q c #F92626",
"w c #FD3636",
"e c #FB4B4B",
"r c #FF5252",
"t c #FF5858",
"y c #F86262",
"u c #FF6767",
"i c #F96969",
"p c #FF6F6F",
"a c #FC7D7D",
"s c gray51",
"d c #898989",
"f c #8E8E8E",
"g c #929292",
"h c gray59",
"j c #989898",
"k c #9D9D9D",
"l c gray64",
"z c #A4A4A4",
"x c #A7A7A7",
"c c #AAAAAA",
"v c #AEAEAE",
"b c #B1B1B1",
"n c #B4B4B4",
"m c gray72",
"M c gray75",
"N c #FF8383",
"B c #FF8484",
"V c #FE9A9A",
"C c #FF9E9E",
"Z c #C3C3C3",
"A c gray77",
"S c #CBCBCB",
"D c #CDCDCD",
"F c LightGray",
"G c #D5D5D5",
"H c #D7D7D7",
"J c gray86",
"K c gray87",
"L c #FFC1C1",
"P c #FEC6C6",
"I c #FFCDCD",
"U c #FFD0D0",
"Y c #FFDEDE",
"T c #E1E1E1",
"R c #E4E4E4",
"E c gray92",
"W c #ECECEC",
"Q c #EEEEEE",
"! c #FFEBEB",
"~ c gray94",
"^ c #F4F4F4",
"/ c gray97",
"( c #FFF3F3",
") c #F8F8F8",
"_ c #FBFBFB",
"` c gray100",
/* pixels */
",,,,,,,,,,,,,,,,,,,,,,,,,,,,,,,,,,,,,,,,,,,,,,,,",
",,,,,,,,,,,,,,,,,,:*#OOXXoO#-::,,,,,,,,,,,,,,,,,",
",,,,,,,,,,,,,,,,#..............#,,,,,,,,,,,,,,,,",
",,,,,,,,,,,,,,,#.X@1lZJRRJAx2#..@,,,,,,,,,,,,,,,",
",,,,,,,,,,,,,@...,vGE_````_EGv,...@<,,,,,,,,,,,,",
",,,,,,,,,,,,@.X:Z~````````````^A:o.@,,,,,,,,,,,,",
",,,,,,,,,,,O.Oj~``````i66i``````^kO.O,,,,,,,,,,,",
",,,,,,,,,,o.-Z````KJ_C5555C^JK````A-.O,,,,,,,,,,",
",,,,,,,,,O.;G```Kh:k_e5555e_j:hT```G;.O,,,,,,,,,",
",,,,,,,,@.*F```M<,,S`755557`D,,<M```G*.@,,,,,,,,",
",,,,,,,#.@M```l:,,<EY0BLLB0YE<,,:l```Z@.#,,,,,,,",
",,,,,,,..g```x:,,,3_N!````!N^3,,,:x```g..,,,,,,,",
",,,,,,#.;~``M:,,,,h`V`cooc`V`h,,,,:m``~;.@,,,,,,",
",,,,,#.Xm``R,,,,,:D`P`o  o`P`D:,,,,<E``mX.#,,,,,",
",,,,,..,``_d,,,,,,TUL`o  o`LIT,,,,,,s_``<..,,,,,",
",,,,,.Xb``v:,,,,,,EpB`cooc`BuE,,,,,,:x``bX.,,,,,",
",,,,:.%K`_4,,,,,,3^t9!````!9w_4,,,,,,3_`T&.;,,,,",
",,,,*.3_`T<,,,,,,l`r59BLLB95q`c,,,,,,,J`_3.*,,,,",
",,,,#.l``l<,,,,,,v`8555555555(n,<,,,,,f_`l.#,,,,",
",,,,O.A``TmmmmmmmW`a75555555y`WMmmmmmmJ``S.O,,,,",
",,,,o.K``````````````````````````````````T.o,,,,",
",,,,X.W``````````````````````````````````~..,,,,",
",,,,.._`E,@##@@@@#@#@#@#@#@##@@#@##@@#1W``..,,,,",
",,,,..``R*............................-R``..,,,,",
",,,,..``R-.;::;::;:;::;:::;:;::;;::;;.-R``..,,,,",
",,,,X.^`E,.-,,,,,,,,,,,,,,,,,,,,,,,,-.,W`_..,,,,",
",,,,X.W`W2.*,,,,,,,,,,,,,,,,,,,,,,,,*.<W`W.X,,,,",
",,,,o.F`_j.@,,,,,,,,,,,,,,,,,,,,,,,,*.2~`G.o,,,,",
",,,,@.n``Ao.:,,,,,,,,,,,,,,,,,,,,,,,@.g^`m.@,,,,",
",,,,%.g``W1.*,,,,,,,,,,,,,,,,,,,,,,:.oS``h.%,,,,",
",,,,-.<_``l.@,,,,,,,,,,,,,,,,,,,,,,&.4~`_<.-,,,,",
",,,,:.@F``AX.,,,,,,,,,,,,,,,,,,,,,,O.b``G#.:,,,,",
",,,,,..j``T,.@,,,,,,,,,,,,,,,,,,,,@.:T``jX.,,,,,",
",,,,,#.*W``Zo.;,,,,,,,,,,,,,,,,,,;.oM``~-.@,,,,,",
",,,,,,..k``^d.o:,,,,,,,,,,,,,,,,:O.d^``kX.,,,,,,",
",,,,,,#.%K``W<.o:,,,,,,,,,,,,,,:o.<W``T&.#,,,,,,",
",,,,,,,..3```K<..*,,,,,,,,,,,,*..,K```4..,,,,,,,",
",,,,,,,@.Xx```K3..@,,,,,,,,,:@..4K```cX.#,,,,,,,",
",,,,,,,,#.@M```Wl@.o#-,,:-&@..OlW```Z#.#,,,,,,,,",
",,,,,,,,,@.%Z```_J<....X....O1G_```M%.@,,,,,,,,,",
",,,,,,,,,,@.@x````WGh@..X;fnRW````v#.O,,,,,,,,,,",
",,,,,,,,,,,@.odR````_~EEE~__````Edo.@,,,,,,,,,,,",
",,,,,,,,,,,,@.X&xR````````````Rc&..@,,,,,,,,,,,,",
",,,,,,,,,,,,,#...*hST^````^RDj*...#,,,,,,,,,,,,,",
",,,,,,,,,,,,,,,#..o:gbDGGSbg:o..#,,,,,,,,,,,,,,,",
",,,,,,,,,,,,,,,,,@.............#,,,,,,,,,,,,,,,,",
",,,,,,,,,,,,,,,,,,:;&@OooO@&;:,,,,,,,,,,,,,,,,,,",
",,,,,,,,,,,,,,,,,,,,,,,,,,,,,,,,,,,,,,,,,,,,,,,,"
};
