/* XPM */
static const char *buttonRightDisabled[] = {
/* columns rows colors chars-per-pixel */
"48 48 28 1 ",
"  c black",
". c #1B1B1B",
"X c #1D1D1D",
"o c #222222",
"O c gray14",
"+ c gray16",
"@ c gray18",
"# c #313131",
"$ c #343434",
"% c #3A3A3A",
"& c #3E3E3E",
"* c gray25",
"= c gray27",
"- c #494949",
"; c gray30",
": c #535353",
"> c #555555",
", c gray35",
"< c gray36",
"1 c #626262",
"2 c gray40",
"3 c gray42",
"4 c gray43",
"5 c #727272",
"6 c #767676",
"7 c gray47",
"8 c #7E7E7E",
"9 c #808080",
/* pixels */
"222222222222222222222222222222222222222222222222",
"222222222222222221,=#OoXXoO#=,222222222222222222",
"2222222222222222@.......X....X.@2222222222222222",
"222222222222222@.XO%:146541:%oX.@122222222222222",
"2222222222222@.X.#,3689999873,$XX.@2222222222222",
"222222222222+.X#1789999899999871#..+222222222222",
"22222222222O.o;799989976579898997:o.O22222222222",
"2222222222o.+199995488*#$*98>=17981@.o2222222222",
"222222222O.@39985;#;87#$##78****4994@XO222222222",
"22222222+.+39981$$#392#$$$39*****1994+.+22222222",
"2222222@.o1999:##$$69:#$##:9;*=1545981o.@2222222",
"2222221.X-999>#$#$&89$#$$$$9<-79998899-X.1222222",
"222222@.@799<#$#$$-97#$$$$#7318>oX>9687#.@222222",
"22222@.X<995$$$#$#393#$####3858o  o8589<X.@22222",
"22222..$899=$$$$$#58;$$#$$#;859o  o94<88$..22222",
"22221.X,98,#$##$$#69$#$$$#$$838>oX>81*49,X.12222",
"2222>.O598&$#$$$#&79$#$$$###81799997-*<95+.>2222",
"2222=.&895$$$$##$:99$#$#$$$#44=1451=**&78&X*2222",
"2222#X:89:$$$#$$#,96##$#####,5*********28:.@2222",
"2222O.1995<<<<<<<6983333333378*********792XO2222",
"2222o.499999999999999999999999855555557995.o2222",
"2222X.799999999999999999999999999988999997.X2222",
"2222..896$OOOOOOOoOoOoOoOOOOOOOOOOOOOO$799..2222",
"2222..986+.....XXXX.X.X...............@599..2222",
"2222X.895+X:,,,,,,,,,,<,,,,<,,<,,,,,:X@598..2222",
"2222..896#.;222222223222222222222222-.#698.X2222",
"2222X.687&X*222222222222222222222222-.$796.X2222",
"2222o.398-X+222222222222222222222222=.%784Xo2222",
"2222+.,991o.<22222222222222222222222+.=89<.+2222",
"2222%.-997%.=2222222222222222222222,.o299;X$2222",
"2222=.$898:X@2222222222222222222222%.&798%.=2222",
"2222<Xo3881XX1222222222222222222222oX,883OX,2222",
"22221X.;995$.+22222222222222222222+.$599;X.22222",
"22222@.+799<XX:222222222222222222:XX<997@X@22222",
"222221.X;898=XX122222222222222221X.=888:..122222",
"222222@.+5996$.o,22222222222222,X.%6994+.@222222",
"2222222..&9995#XX=222222222222*XX$5899&X.1222222",
"2222222@.X>8994&..+122222222<+..&5999>XX@2222222",
"22222222+Xo19997:oXX#-221;%+X.X:69981O.+22222222",
"222222222+XO199984$..XXX....o%488991+.+222222222",
"2222222222OXo>999974-oX.X@-<669999>oXO2222222222",
"22222222222+.X=699998766678989986-XX+22222222222",
"222222222222+..+>59889999999986>+X.+222222222222",
"2222222222222@..X+;2579998752;+...@2222222222222",
"222222222222222@..X#-,2342,-#o..@122222222222222",
"22222222222222222+X....X.....X.@2222222222222222",
"2222222222222222221;%+OooO+%;<222222222222222222",
"222222222222222222222222222222222222222222222222"
};
