/* XPM */
static char *buttonShowMainWindow[] = {
/* columns rows colors chars-per-pixel */
"48 48 180 2",
"   c #000000",
".  c #0D0D0D",
"X  c #141414",
"o  c #1C1C1C",
"O  c #232323",
"+  c #2E2E2E",
"@  c #323232",
"#  c #3E3B34",
"$  c #3E3E3E",
"%  c #3F3F67",
"&  c #4A4539",
"*  c #54472C",
"=  c #604D26",
"-  c #64522C",
";  c #735925",
":  c #725B33",
">  c #7B663E",
",  c #444444",
"<  c #4B4B4B",
"1  c #434353",
"2  c #41415C",
"3  c #4B4B51",
"4  c #48485A",
"5  c #54524E",
"6  c #515151",
"7  c #595957",
"8  c #5B5B5B",
"9  c #44446D",
"0  c #4E4E6C",
"q  c #474776",
"w  c #5E5F60",
"e  c #545477",
"r  c #55557F",
"t  c #685D45",
"y  c #695F4A",
"u  c #615C51",
"i  c #635859",
"p  c #6B614E",
"a  c #61615F",
"s  c #6E6554",
"d  c #696459",
"f  c #716A5C",
"g  c #656565",
"h  c #6B6A6A",
"j  c #746E62",
"k  c #736C72",
"l  c #7E7362",
"z  c #727272",
"x  c #7A7A7A",
"c  c #42428B",
"v  c #4E4E9B",
"b  c #555380",
"n  c #555594",
"m  c #53539C",
"M  c #5D5D9C",
"N  c #4A4AAC",
"B  c #5555A0",
"V  c #626292",
"C  c #64649C",
"Z  c #6B6B9C",
"A  c #747188",
"S  c #7E798B",
"D  c #74749C",
"F  c #6464A8",
"G  c #7573B4",
"H  c #7878BB",
"J  c #4F4FC5",
"K  c #5050D7",
"L  c #6464D3",
"P  c #7171C8",
"I  c #7272D7",
"U  c #7878DD",
"Y  c #6A6AFF",
"T  c #7777EA",
"R  c #7979EA",
"E  c #7272F4",
"W  c #7474FF",
"Q  c #7D7DFF",
"!  c #91712F",
"~  c #967C46",
"^  c #837F91",
"/  c #827F9C",
"(  c #A5833E",
")  c #A9843A",
"_  c #AD893E",
"`  c #99865F",
"'  c #83807A",
"]  c #8B857B",
"[  c #AF8C44",
"{  c #AF8D48",
"}  c #A38952",
"|  c #A58D5C",
" . c #B08E49",
".. c #B2904C",
"X. c #B49453",
"o. c #B79859",
"O. c #B99B5D",
"+. c #B79B60",
"@. c #BB9D61",
"#. c #BCA065",
"$. c #BEA26A",
"%. c #B2A27F",
"&. c #C0A56E",
"*. c #C1A771",
"=. c #C3A975",
"-. c #C5AD7A",
";. c #C8B07F",
":. c #838383",
">. c #8C8C8C",
",. c #949494",
"<. c #9A9A9A",
"1. c #9190AD",
"2. c #A19B8D",
"3. c #A59F94",
"4. c #A9A59C",
"5. c #B5AB97",
"6. c #A3A2A0",
"7. c #ADABA7",
"8. c #ACACAC",
"9. c #BFB9AC",
"0. c #B3B3B2",
"q. c #BABABA",
"w. c #8282C6",
"e. c #9191C4",
"r. c #9A9ADD",
"t. c #8080EB",
"y. c #8484FF",
"u. c #8D8DFF",
"i. c #9595EB",
"p. c #9393FE",
"a. c #9C9CFF",
"s. c #ABABD9",
"d. c #A3A3F0",
"f. c #A3A3FE",
"g. c #ABABFE",
"h. c #B4B4FF",
"j. c #BBBBFF",
"k. c #C7B083",
"l. c #C9B283",
"z. c #CCB78A",
"x. c #CDB88E",
"c. c #CFBB91",
"v. c #CCBD9D",
"b. c #D1BE96",
"n. c #D1BF9A",
"m. c #C5BAA4",
"M. c #D4C29C",
"N. c #D6C6A3",
"B. c #D8C7A5",
"V. c #D9C9A7",
"C. c #DBCCAD",
"Z. c #DFD0B4",
"A. c #E1D5BB",
"S. c #C5C5C5",
"D. c #CCCCCC",
"F. c #D3D0CA",
"G. c #D9D3C7",
"H. c #D3D3D3",
"J. c #DFDAD1",
"K. c #C3C3FE",
"L. c #CCCCFF",
"P. c #D4D4FF",
"I. c #DBDBFF",
"U. c #E6DBC4",
"Y. c #EAE0CD",
"T. c #EDE5D4",
"R. c #EFE9DC",
"E. c #F0E9DA",
"W. c #E6E6E6",
"Q. c #EEEBE6",
"!. c #EAEAEB",
"~. c #E4E4FF",
"^. c #EBEBFF",
"/. c #F4EFE3",
"(. c #F5F0E6",
"). c #F7F3EC",
"_. c #F8F4EB",
"`. c #F2F2F2",
"'. c #F2F2FF",
"]. c #FEFEFE",
/* pixels */
"g g g g g g g g g g g g g g g g g g g g g w 6 6 6 6 5 6 6 6 6 6 3 5 6 6 6 6 6 6 6 6 6 < 6 6 6 g ",
"g g g g g g g g w g g g g g w g g g g g g < 7 S x x x x x x x x x x x x x x x x x x x x x x 6 < ",
"g g z >.>.>.>.>.>.>.>.>.>.>.>.>.>.>.>.>.>.w 7.].].].].].].].].].].].].].].].].].].].].].].].>.< ",
"g g :.D.D.D.D.D.D.D.D.D.D.D.D.D.D.D.D.D.D.>.8.].].].].].].].].].S.g 8 g w g 8 g 8 g 8 g g H.,.< ",
"g g :.D.D.D.D.D.D.D.D.D.D.D.D.D.D.D.D.D.D.>.7.].].].].].].].].].<.                        q.,.< ",
"g g :.S.S.D.D.D.D.D.D.D.D.D.D.D.D.D.D.D.H.>.8.].].].].].].].].].6.                        S.,.< ",
"g g :.D.D.D.D.D.D.D.D.D.D.D.D.D.D.D.D.D.D.>.8.].].].].].].].].].<.                        q.<.< ",
"g g :.S.D.D.D.D.D.D.D.D.D.D.D.D.D.S.D.D.H.>.8.].].].].].].].].].6.. , , , , , , , , , $ X q.,.< ",
"g g x D.D.D.D.D.D.D.D.D.D.D.D.D.D.D.D.D.H.>.8.`.:.h h g h h g h , . $ $ 8 <.<.<.<.<.<.>.o q.,.< ",
"g g x D.D.D.D.D.D.D.D.D.D.D.D.D.D.D.D.D.H.>.8.`.@                       @ ,.<.<.<.<.<.:.o q.<., ",
"g g :.D.D.D.D.D.D.D.D.D.D.D.D.D.D.H.D.D.D.>.8.`.@                       + <.<.,.<.<.<.>.o q.,.< ",
"g g :.D.D.S.0.0.0.8.0.8.0.8.0.8.0.8.8.0.0.x 8.`.+                       + ,.<.<.<.<.<.:.o q.<., ",
"g g :.S.D.q.h h h g h g h h h h g h g h h < 8.`.@ O , $ $ $ $ $ $ $ $ o + <.<.<.<.<.<.:.o q.,.< ",
"g g :.D.D.q.h g g g g g g g g g g g g g h , 6.`.@ g <.<.<.<.<.<.<.<.<.< + >.>.,.>.,.,.:.o q.,.< ",
"g g x S.D.q.h g g g h g g g g g g g g g g < 8.`.@ w <.<.<.<.<.<.<.<.<.3 . o O o O O O o . q.,.< ",
"g g :.D.D.q.h g g g g g g g g g g g g g g , 8.`.+ g <.<.,.<.<.,.<.<.<.< + <.6.<.3.1.<.<.6.W.,., ",
"g g :.D.D.q.h g h g g g g g g h g g g g 8 # 8.`.+ w <.<.<.<.<.,.<.<.<.< < ].].].].].].].].].,.< ",
"g g :.S.D.q.h g g g g g g g g g h g g 3 x ' 8.`.@ w <.<.<.<.<.<.<.<.<.< 3 `.].].].].].].].].>.< ",
"g g :.D.D.q.k g g g g g g g g g g g 5 6./.4.8.`.@ w <.,.>.,.,.,.<.,.,.< 6 ].].].].].].].].].,., ",
"g g :.S.D.q.h g g g g g h g g g g 6 <.).E.3.8.`.@ X O O O O O O O O O . 3 ].].].].].].].].].,.< ",
"g g x D.D.q.h g g g g h g g g g 8 h Q./.R.3.8.].8.<.,.,.<.,.<.,.<.,.,.,.q.].].].].].].].].].,.< ",
"g g ' D.D.q.h g g g g g g g h g 6 7.).R.T.2.<.!.!.!.!.Q.!.!.!.!.!.Q.!.!.W.W.W.W.W.W.W.W.W.Q.:.< ",
"g g :.D.D.q.h g g g g g g g g g 6 G./.T.U.5.d j f f s s s y y & < < < < 6 < 3 3 < < 7 h z h $ 6 ",
"g g :.S.D.q.h g h g g g g g g g 7 J.R.Y.U.Z.B.M.x.k.%.$.+.X.{ - 6 g g w g g a g g a :.S.D.8.h g ",
"g g :.S.D.q.h g h g g g g g g g 7 G.T.U.A.C.B.b.z.k.=.$.o.X.[ - 7 g g g g g h g g g :.D.D.q.h g ",
"g g :.D.D.q.h g g g g g g g g h 6 m.Y.A.Z.V.n.x.l.=.$.@.X...) * w g g g h g g g g g :.D.D.0.h g ",
"g g S S.D.q.h g g g g g g g g g 6 ] U.A.C.M.b.z.-.=.#.o...[ ! & g g g g g g g g g g :.D.D.0.h g ",
"g g ' D.D.q.h g g g g g h g g g g 6 m.Z.V.n.z.l.=.$.O.X.[ ) = 6 h g g g g g g g g g :.D.D.q.h g ",
"g g :.S.D.q.h g g g g h h g g g g 6 u n.n.b.l.-.$.@.X. ._ ; # g g g h g g h g g g g :.D.D.q.h g ",
"g g :.D.D.q.h g g g g g g g g g g 3 b k 2.v.;.=.&.O.X.( : b q 6 g g g g g g g g g g :.D.D.0.h g ",
"g g :.S.D.q.h h g g g g g g g g 3 V g.r.A ~ ` | } ~ > i G p.t.9 7 g g g g g g g g g :.D.H.0.h g ",
"g g :.D.D.q.h g h g g g g g g 8 0 d.h.j.K.s.1.D S >.e.d.g.a.p.I 2 a h g g g g g g g :.D.D.0.h g ",
"g g :.S.D.q.h g h g g g g g g < w.h.j.K.L.I.I.I.L.L.K.j.g.a.a.u.B 3 g g g h g g g g :.D.D.0.h g ",
"g g :.D.D.q.h g g g g g g g 8 e f.h.K.K.P.~.~.~.I.P.K.K.h.f.a.u.T 2 g g g g g g g g :.D.D.q.h g ",
"g g :.S.D.q.h g g g g h g g 3 H h.j.K.P.I.^.^.^.~.I.L.K.h.g.a.u.y.v 6 h g g g g g g :.D.D.q.h g ",
"g g :.D.D.q.h g g g g g g g 4 i.h.j.K.P.~.^.].'.^.I.P.K.j.h.a.p.y.L 1 g g g g h g g :.D.D.0.h g ",
"g g :.S.D.q.h h g g g g g 7 r a.g.j.K.P.I.^.'.'.^.I.L.K.j.g.a.u.y.E % a g g g g g g :.D.D.0.h g ",
"g a :.D.D.q.h g g g h g h 6 F a.g.h.K.L.I.~.~.~.I.P.K.K.h.f.a.u.y.W c 7 g g g g g g :.D.D.q.h g ",
"g g S S.D.q.h g g g g g h 3 P a.g.h.j.K.L.P.I.P.P.L.K.j.g.f.p.u.y.W N 6 g g g g g g :.D.D.q.h g ",
"g g ' D.D.q.h g g g g g g 1 U a.a.g.h.j.K.L.L.L.K.K.j.h.g.a.p.y.Q Y J < h g g g g g :.D.D.0.h g ",
"g g :.D.D.q.h h g g h g g 2 T u.a.a.g.h.j.j.K.K.j.h.h.g.a.p.u.y.W Y K 1 g g g g g g :.D.D.q.h g ",
"g a :.D.D.q.x z z z z z z 3 n M C Z D D D D D D D D D Z Z C M n m v c 4 z z z z z z >.D.D.0.h g ",
"g g :.S.D.S.q.q.q.S.q.q.q.q.0.0.0.0.8.0.0.0.0.0.0.0.0.0.0.0.0.0.0.0.0.q.q.S.q.S.q.S.S.D.D.0.h g ",
"g g :.D.D.D.D.D.D.D.D.H.D.D.D.D.D.D.D.D.D.D.D.D.D.D.D.D.D.D.D.D.D.D.D.D.D.D.D.D.D.D.D.D.D.0.h g ",
"g g :.S.S.S.S.S.S.S.S.S.S.S.S.S.S.S.S.S.S.S.S.S.S.S.S.S.S.S.S.S.S.S.S.S.S.S.S.S.S.S.S.S.D.0.h g ",
"g g h z x x x x x x x x x x x x x x x x x x x x x x x x x x x x x x x x x x x x x x x x x z g g ",
"g g g g g g g g a g g g g g g g g g g g a g g g g g a g g g a g g g a g g g g g g g g g g g g g ",
"g g g g g g g g g g g g g g g h g g g g g g g g g g g g g g g h g g g g g g g g g g g g g g g g "
};
