/* XPM */
static char * buttonDragDisabled[] = {
"48 48 171 2",
"  	c None",
". 	c #666666",
"+ 	c #5E5E5E",
"@ 	c #515050",
"# 	c #595959",
"$ 	c #656565",
"% 	c #606060",
"& 	c #555454",
"* 	c #474747",
"= 	c #3E3D3D",
"- 	c #373636",
"; 	c #343434",
"> 	c #474646",
", 	c #545454",
"' 	c #2F2E2E",
") 	c #2D2C2C",
"! 	c #383737",
"~ 	c #444343",
"{ 	c #313030",
"] 	c #4C4C4C",
"^ 	c #3F3F3F",
"/ 	c #2D2D2D",
"( 	c #353434",
"_ 	c #464646",
": 	c #5A5959",
"< 	c #676767",
"[ 	c #717171",
"} 	c #757575",
"| 	c #5A5A5A",
"1 	c #494848",
"2 	c #7C7C7C",
"3 	c #6E6E6E",
"4 	c #2E2D2D",
"5 	c #414141",
"6 	c #5F5E5E",
"7 	c #6F6F6F",
"8 	c #787878",
"9 	c #7E7E7E",
"0 	c #808080",
"a 	c #5F5F5F",
"b 	c #7B7B7B",
"c 	c #6D6D6D",
"d 	c #3B3B3B",
"e 	c #414040",
"f 	c #2E2E2E",
"g 	c #7F7F7F",
"h 	c #4B4A4A",
"i 	c #494949",
"j 	c #6D6C6C",
"k 	c #3A3A3A",
"l 	c #444444",
"m 	c #3B3A3A",
"n 	c #323131",
"o 	c #565656",
"p 	c #7D7D7D",
"q 	c #2F2F2F",
"r 	c #707070",
"s 	c #777777",
"t 	c #767676",
"u 	c #605F5F",
"v 	c #393838",
"w 	c #737373",
"x 	c #505050",
"y 	c #747474",
"z 	c #7A7A7A",
"A 	c #686868",
"B 	c #3D3C3C",
"C 	c #4B4B4B",
"D 	c #78706F",
"E 	c #68443F",
"F 	c #70190E",
"G 	c #575757",
"H 	c #3F3E3E",
"I 	c #333232",
"J 	c #424242",
"K 	c #303030",
"L 	c #454545",
"M 	c #5D5D5D",
"N 	c #434343",
"O 	c #404040",
"P 	c #6E6D6D",
"Q 	c #705C5A",
"R 	c #67261E",
"S 	c #76160A",
"T 	c #74160B",
"U 	c #6B6B6B",
"V 	c #6B6A6A",
"W 	c #3A3939",
"X 	c #3C3C3C",
"Y 	c #636363",
"Z 	c #535353",
"` 	c #525252",
" .	c #363535",
"..	c #424141",
"+.	c #616161",
"@.	c #6B4D49",
"#.	c #6E1A0F",
"$.	c #68231B",
"%.	c #3D3D3D",
"&.	c #403F3F",
"*.	c #4F4F4F",
"=.	c #343333",
"-.	c #595858",
";.	c #5B5A5A",
">.	c #6B4F4B",
",.	c #6F190E",
"'.	c #66312B",
").	c #727272",
"!.	c #302F2F",
"~.	c #333333",
"{.	c #313131",
"].	c #5C5C5C",
"^.	c #6F5B59",
"/.	c #6D1B11",
"(.	c #75160A",
"_.	c #3E3E3E",
":.	c #6C6C6C",
"<.	c #6A6969",
"[.	c #797171",
"}.	c #68221A",
"|.	c #484848",
"1.	c #4A4A4A",
"2.	c #673C37",
"3.	c #6B1D13",
"4.	c #5B5B5B",
"5.	c #575656",
"6.	c #585858",
"7.	c #515151",
"8.	c #797979",
"9.	c #4E4E4E",
"0.	c #4D4D4D",
"a.	c #646464",
"b.	c #6D5350",
"c.	c #6F190F",
"d.	c #692118",
"e.	c #555555",
"f.	c #373737",
"g.	c #66352E",
"h.	c #66322C",
"i.	c #363636",
"j.	c #3C3B3B",
"k.	c #67241C",
"l.	c #6B4B47",
"m.	c #383838",
"n.	c #6B4E4A",
"o.	c #6C524F",
"p.	c #323232",
"q.	c #696969",
"r.	c #454444",
"s.	c #797170",
"t.	c #6E5855",
"u.	c #6F5956",
"v.	c #7B7675",
"w.	c #4E4D4D",
"x.	c #4A4949",
"y.	c #6C6B6B",
"z.	c #434242",
"A.	c #4F4E4E",
"B.	c #484747",
"C.	c #464545",
"D.	c #626262",
"E.	c #525151",
"F.	c #4D4C4C",
"G.	c #353535",
"H.	c #5E5D5D",
"I.	c #5C5B5B",
"J.	c #5D5C5C",
"K.	c #393939",
"L.	c #6A6A6A",
"M.	c #616060",
"N.	c #4C4B4B",
". . . . . . . . . . . . . . . . . . . . . . . . . . . . . . . . . . . . . . . . . . . . . . . . ",
". . . . . . . . . . . . . . . . . . . . . . . . . . . . . . . . . . + @ # . . . . . . . . . . . ",
". . . . . . . . . . . . . . . . . $ % & * = - ; ; - = > , % $ . . + ' ) ) ! . . . . . . . . . . ",
". . . . . . . . . . . . . . . . ~ ) ) ) ) ) ) ) ) ) ) ) ) ) ) ~ % { ) ] ^ ) = . . . . . . . . . ",
". . . . . . . . . . . . . . $ ~ ) / ( _ : < [ } } [ < | _ ( / ) ' ) 1 2 3 - ) = . . . . . . . . ",
". . . . . . . . . . . . . ~ ) ) 4 5 6 7 8 9 0 0 0 0 9 8 7 a ^ ) ) 1 b 0 0 c - ) d . . . . . . . ",
". . . . . . . . . . . . e ) f ^ . b g 0 0 0 0 0 0 0 0 0 0 g h ) i b 0 0 0 0 j k ) l . . . . . . ",
". . . . . . . . . . . m ) n o b 0 0 0 g 0 g b } } b g g g p ) q r 0 r 2 s t 0 u / ) . . . . . . ",
". . . . . . . . . . v ) d < 0 0 0 g w [ 9 0 x f f x 0 p o * ) ' y . e 2 c 5 z A ) B C # . . . . ",
". . . . . . . . . m ) = 7 0 0 0 D E F G 9 b H ) ) H z H ) ) ) n # I J g w K L M q ) ) ) N . . . ",
". . . . . . . . O ) k P 0 0 g Q R S T U 0 V n ) ) n W ) X % Y Z f ) ` 0 s  .) ..Y +.Z ' ) N . . ",
". . . . . . . ~ ) I $ 0 0 g @.#.S S $.8 0 | q ) ) / ) %.w 0 } &.) ) *.0 t =.) q -.0 0 ;.f ) ~ . ",
". . . . . . $ ) 4 Z 0 0 0 >.,.S S S '.p g > / ) ) ) %.).0 7 m !.~.n 1 0 y - {.K { Z g 0 ].f ) m ",
". . . . . . N ) = z 0 0 ^./.S S S (.E 0 z ! ) _.) ..).0 0 ).A 7 w r y 0 p 7 3 7 :.<.2 0 0 u m ) ",
". . . . . ~ ) ' Y 0 0 [.}.S S S S F j 0 P I ) |.) , 0 0 0 9 0 0 0 0 0 0 0 0 0 0 0 9 9 0 0 8 1.) ",
". . . . $ ) / 5 9 0 g 2.S S S S S 3.y 0 4.K ) 5.) { 6.0 0 . ^ C G 7.a 0 8.Z 9.0.~ 0.b 0 ).= f ) ",
". . . . a.) ' u 0 g b.c.S S S S S d.t 0 L / ) . ..) / : 0 9 e.4 ) ) |.0 w { ) ) v 3 0 w = ) ) ~ ",
". . . . 6 ) f.w 0 9 g.S S S S S S h.p 0 e ) l . . i.) / G ).w 9.q ) i 0 y {.) j.A w :.= ) v $ . ",
". . . . Z ) |.9 0 D k.S S S S S S l.0 0 ^ ) W W W W ) ) ) I =.m.4.( e 0 ).f i +.! ~.!.) v $ . . ",
". . . . * ) # 0 0 n.S S S S S S S o.0 8 p.) ) ) ) ) ) ) ^ ) ) f } q.r.2 3 _ z < ) ) ) - . . . . ",
". . . . %.) A 0 0 s.t.u.u.u.u.u.^.v.0 p 7 c c c c c c 3 8.8.) f 3 0 } p z z 0 a / ) ) B . . . . ",
". . . . i.) ).0 0 0 0 0 0 0 0 0 0 0 0 0 0 0 0 0 0 0 0 0 0 0 w.) ~ 8.0 0 0 0 U i.) x.) ( . . . . ",
". . . . { ) z 0 0 0 0 0 0 0 0 0 0 0 0 0 0 0 0 0 0 0 0 0 0 0 2 ! ) ~ 8 0 0 y.- ) L b ) !.. . . . ",
". . . . 4 ) 9 0 s ..; ; ; ; ; ; ; ; ; ; ; ; ; ; ; ; ; ; ; ; ; =.4 ) r.8.:. .) z.0 g ) ) . . . . ",
". . . . ) ) 0 0 } k ) ) ) ) ) ) ) ) ) ) ) ) ) ) ) ) ) ) ) ) ) ) ) ) ) ] ^ ) {.t 0 0 ) ) . . . . ",
". . . . ) ) g 0 t d ) ].+.+.+.+.+.+.+.+.+.+.+.+.+.+.+.+.+.+.+.+.+.# ' ) ) ) X t 0 0 ) ) . . . . ",
". . . . ' ) 2 0 s ^ ) # . . . . . . . . . . . . . . . . . . . . . . + x A.) O s 0 9 ) 4 . . . . ",
". . . . I ) s 0 8.B.) Z . . . . . . . . . . . . . . . . . . . . . . . . o ) l 8.0 8 ) n . . . . ",
". . . . v ) 3 0 p e.) J . . . . . . . . . . . . . . . . . . . . . . . . & ) C.8.0 r ) ! . . . . ",
". . . . e ) D.0 0 A K ) D.. . . . . . . . . . . . . . . . . . . . . . . 5 ) E.2 0 Y ) O . . . . ",
". . . . C ) Z 0 0 8._ ) & . . . . . . . . . . . . . . . . . . . . . . a ) {.q.0 0 e.) h . . . . ",
". . . . G ) z.p 0 9 # ) z.. . . . . . . . . . . . . . . . . . . . . . *.) h b 0 p l ) o . . . . ",
". . . . +.) =.P 0 0 A q ) a.. . . . . . . . . . . . . . . . . . . . . ! ) +.g 0 3 ( ) % . . . . ",
". . . . $ ) f e.0 0 } 5 ) ... . . . . . . . . . . . . . . . . . . . ..) &.y 0 0 5.f ) $ . . . . ",
". . . . . ~ ) k 8.0 0 a.K ) 4.. . . . . . . . . . . . . . . . . . 4.) K a.0 0 z d ) ~ . . . . . ",
". . . . . $ ) 4 G 0 0 2 x ) ; Y . . . . . . . . . . . . . . . . Y ; ) x 2 0 0 -.f ) $ . . . . . ",
". . . . . . ~ ) f.).0 0 8 l )  .% . . . . . . . . . . . . . . %  .) l 8 0 0 w m.) ~ . . . . . . ",
". . . . . . $ ) / |.0 0 0 w ..) { & . . . . . . . . . . . . & { ) ..w 0 0 0 1./ ) $ . . . . . . ",
". . . . . . . ~ ) q ].0 0 0 w i ) ) &.Y . . . . . . . . D.5 ) ) i w 0 0 0 M q ) ~ . . . . . . . ",
". . . . . . . . z.) ( $ 0 0 0 8.: =.) ; C.6.. . a.| F.5 ) ) {.: 8.0 0 0 . G.) z.. . . . . . . . ",
". . . . . . . . . H ) f.. 0 0 0 p r l ) ) ) n n ) ) ) ) {._ 7 p 0 0 0 . ! ) H . . . . . . . . . ",
". . . . . . . . . . %.) =.].0 0 0 0 8.7 , I ) ) ' %.7.+.t 8.0 0 0 0 H.( ) B . . . . . . . . . . ",
". . . . . . . . . . . &.) !.*.t 0 0 0 0 p z 8 8 8 b p g 0 0 0 0 s x !.) H . . . . . . . . . . . ",
". . . . . . . . . . . . J ) 4 v I.t g 0 0 0 0 0 0 0 0 0 0 g t J.K.4 ) J . . . . . . . . . . . . ",
". . . . . . . . . . . . . ~ ) ) / W o L.} b g 0 0 g b } U o W / ) ) ~ . . . . . . . . . . . . . ",
". . . . . . . . . . . . . . $ ~ ) ) { H Z M.L.7 7 L.M.Z ^ {./ ) ~ $ . . . . . . . . . . . . . . ",
". . . . . . . . . . . . . . . . $ ..) ) ) ) ) ) ) ) ) ) ) ) ) l . . . . . . . . . . . . . . . . ",
". . . . . . . . . . . . . . . . . . Y # N.J j.m.m.j.J N.# Y . . . . . . . . . . . . . . . . . . "};
