/* XPM */
static char *buttonLeftDisabled[] = {
/* columns rows colors chars-per-pixel */
"48 48 252 2",
"   c #06060F",
".  c #080808",
"X  c #0A0A0A",
"o  c #08080D",
"O  c #0B0B0D",
"+  c #0C0C0C",
"@  c #0E0E0E",
"#  c #000014",
"$  c #050515",
"%  c #000018",
"&  c #00001C",
"*  c #00001D",
"=  c #080811",
"-  c #090910",
";  c #090912",
":  c #0D0D17",
">  c #0F0F14",
",  c #101010",
"<  c #111111",
"1  c #121212",
"2  c #131313",
"3  c #111117",
"4  c #141414",
"5  c #151515",
"6  c #161616",
"7  c #171717",
"8  c #11111C",
"9  c #141418",
"0  c #181818",
"q  c #191919",
"w  c #1A1A1A",
"e  c #1A1A1B",
"r  c #1B1B1B",
"t  c #1C1C1C",
"y  c #1D1D1D",
"u  c #1E1E1E",
"i  c #1E1E1F",
"p  c #1F1F1F",
"a  c #000022",
"s  c #020221",
"d  c #000024",
"f  c #000025",
"g  c #000029",
"h  c #00002E",
"j  c #070728",
"k  c #000030",
"l  c #000031",
"z  c #010130",
"x  c #000032",
"c  c #000033",
"v  c #000034",
"b  c #000036",
"n  c #000037",
"m  c #000039",
"M  c #00003C",
"N  c #00003F",
"B  c #101023",
"V  c #1A1A22",
"C  c #1B1B27",
"Z  c #18182E",
"A  c #1B1B2C",
"S  c #202020",
"D  c #212121",
"F  c #222222",
"G  c #232323",
"H  c #222226",
"J  c #242424",
"K  c #252524",
"L  c #252525",
"P  c #252527",
"I  c #262625",
"U  c #262626",
"Y  c #272727",
"T  c #242428",
"R  c #292927",
"E  c #282828",
"W  c #292929",
"Q  c #2A2A2A",
"!  c #2A2A2B",
"~  c #2B2B2B",
"^  c #2C2C2C",
"/  c #2D2D2D",
"(  c #2D2D2E",
")  c #2E2E2D",
"_  c #2E2E2E",
"`  c #2F2F2F",
"'  c #303030",
"]  c #313131",
"[  c #323230",
"{  c #323231",
"}  c #323232",
"|  c #333333",
" . c #343434",
".. c #353535",
"X. c #343436",
"o. c #363636",
"O. c #373737",
"+. c #383838",
"@. c #393939",
"#. c #3A3A3A",
"$. c #3B3B3B",
"%. c #3C3C3B",
"&. c #3C3C3C",
"*. c #3D3D3D",
"=. c #3E3E3E",
"-. c #3F3F3E",
";. c #3F3F3F",
":. c #000042",
">. c #000044",
",. c #000045",
"<. c #000047",
"1. c #00004A",
"2. c #01014A",
"3. c #00004C",
"4. c #00004D",
"5. c #000050",
"6. c #000052",
"7. c #000055",
"8. c #000058",
"9. c #000059",
"0. c #00005B",
"q. c #00005D",
"w. c #00005E",
"e. c #1B1B40",
"r. c #1F1F41",
"t. c #000061",
"y. c #010164",
"u. c #020264",
"i. c #030368",
"p. c #050569",
"a. c #07076C",
"s. c #0B0B62",
"d. c #0A0A6F",
"f. c #0D0D6A",
"g. c #0E0E72",
"h. c #1F1F60",
"j. c #181869",
"k. c #141478",
"l. c #17177A",
"z. c #1B1B78",
"x. c #1B1B7D",
"c. c #212152",
"v. c #27275A",
"b. c #30306D",
"n. c #404040",
"m. c #414141",
"M. c #424242",
"N. c #434343",
"B. c #444444",
"V. c #454544",
"C. c #454545",
"Z. c #464646",
"A. c #474747",
"S. c #484848",
"D. c #494948",
"F. c #494949",
"G. c #4A4A4A",
"H. c #4B4B4A",
"J. c #4B4B4B",
"K. c #4C4C4C",
"L. c #4D4D4D",
"P. c #4E4E4E",
"I. c #4F4F4F",
"U. c #50504F",
"Y. c #505050",
"T. c #515151",
"R. c #525252",
"E. c #535353",
"W. c #545453",
"Q. c #555553",
"!. c #545454",
"~. c #555555",
"^. c #565656",
"/. c #575756",
"(. c #575757",
"). c #585858",
"_. c #595958",
"`. c #595959",
"'. c #5A5A5A",
"]. c #5B5B5B",
"[. c #5C5C5C",
"{. c #5D5D5D",
"}. c #5E5E5E",
"|. c #5F5F5F",
" X c #606060",
".X c #616161",
"XX c #626262",
"oX c #636363",
"OX c #646464",
"+X c #656564",
"@X c #656565",
"#X c #666666",
"$X c #676767",
"%X c #686868",
"&X c #696969",
"*X c #6A6A6A",
"=X c #6B6B6B",
"-X c #6C6C6C",
";X c #6D6D6D",
":X c #6E6E6E",
">X c #6F6F6F",
",X c #707070",
"<X c #717171",
"1X c #727272",
"2X c #737373",
"3X c #747474",
"4X c #757575",
"5X c #767676",
"6X c #777777",
"7X c #787878",
"8X c #797979",
"9X c #7A7A7A",
"0X c #7B7B7B",
"qX c #7C7C7C",
"wX c #7D7D7D",
"eX c #7E7E7E",
"rX c #7F7F7F",
"tX c #262687",
"yX c #292988",
"uX c #2C2C8A",
"iX c #373795",
"pX c #3B3B99",
"aX c #4646A1",
"sX c #808080",
"dX c #818181",
"fX c #828282",
"gX c #838383",
"hX c #848484",
"jX c #858585",
"kX c #868686",
"lX c #878787",
"zX c #898989",
"xX c #8A8A8A",
"cX c #8B8B8B",
"vX c #8C8C8C",
"bX c #8D8D8D",
"nX c #8E8E8E",
"mX c #8F8F8F",
"MX c #909090",
"NX c #929292",
"BX c #939393",
"VX c #949494",
"CX c #959595",
"ZX c #969696",
"AX c #989898",
"SX c #999999",
"DX c #9A9A9A",
"FX c #9B9B9B",
"GX c #9C9C9C",
"HX c #9E9E9E",
"JX c #A0A0A0",
"KX c #A1A1A1",
/* pixels */
"#X#X#X#X#X#X#X#X#X#X#X#X#X#X#X#X#X#X#X#X#X#X#X#X#X#X#X#X#X#X#X#X#X#X#X#X#X#X#X#X#X#X#X#X#X#X#X#X",
"#X#X#X#X#X#X#X#X#X#X#X#X#X#X#X#X#X#X#X#X#X#X#X#X#X#X#X#X#X#X#X#X#X#X#X#X#X#X#X#X#X#X#X#X#X#X#X#X",
"#X#X#X#X#X#X#X#X#X#X#X#X#X#X#X#X#X#X#X#X%X#XoX#X#X#X%X$X#X#X#X#X#X#X#X#X#X#X#X#X#X#X#X#X#X#X#X#X",
"#X#X#X#X#X#X#X#X#X#X#X#X#X#X#X#X$X#X`.C. .E G G G ( *.P. X#X#X#X#X#X#X#X#X#X#X#X#X#X#X#X#X#X#X#X",
"#X#X#X#X#X#X#X#X#X#X#X#X#X#X#X#XP.E 1 @ @ 1 6 r 1 1 q 4 p O.(.#X#X#X#X#X#X#X#X#X#X#X#X#X#X#X#X#X",
"#X#X#X#X#X#X#X#X#X#X#X#X#X#X^.E X @ 4 p p G I ( G q ' ( p 1 4  .[.#X#X#X#X#X#X#X#X#X#X#X#X#X#X#X",
"#X#X#X#X#X#X#X#X#X#X#X#X#XC.3 % o p G I E ( '  .( 4 +.+.' ( G 1 p P.#X#X#X#X#X#X#X#X#X#X#X#X#X#X",
"#X#X#X#X#X#X#X#X#X#X#X#X*.= f m $ I ( '  .+.+.m.*.p *.m.+. .' E q 1 m.#X#X#X#X#X#X#X#X#X#X#X#X#X",
"#X#X#X#X#X#X#X#X#X#X#X*.  a n >.* R O.%.-.-.Z.H.P.I *.P.N.v.-.[ ( I , +.#X#X#X#X$X$X$X$X.X$XXX$X",
"#X#X#X#X#X#X#X#X#X#XD.- a n :.5.k R M.Z.D.U.U.U.`. .O.(.I.D.V.-.O...R 1 m.$X#X#X.X$X.X$X$X$X$X$X",
"#X#X#X#X#X#X#X#X#X`.6 & k :.4.w.<.T U.U.U._.'.[. XD.'  X_.Q.U.H.M.*.O.^ 4 H.$X#X$X$X.X$X$X$X.X$X",
"#X#X#X#X#X#X#X#X#X( # h M <.0.i.s.C U.'.}.XX$X$X:X X( #X+X}./.Q.H.D.M.*.E p `.$XXX$X$X$X$XXX$X$X",
"#X#X#X#X#X#X#X#XI.- g m <.7.y.g.z.Z _.#X$X=X>X2X6X2X[ $X<X&X+X}.U.D.O.R t . [ $X$X$XXX$XXX$X$X$X",
"#X#X#X#X#X#X#X#X! & n >.5.t.d.x.uXr.U.:X<X6X0XeXfXjX-.'.&XQ.-.) S 7 7 t t t , U.$X$X$X$X$X$X$XXX",
"#X#X#X#X#X#X#X^.: k :.5.w.a.x.tXpXv.U.eXwXeX0X2XXXU.I y K K R [ ..O.[ [ ~ R 6 R $XXX.X$X.X$XXX$X",
"#X#X#X#X#X#X#X*.& :.4.0.p.k.tXiXaXb. .[.H.+.^ R ^ ..-.V.H.H.H.V.-.-.#.+.[ ~ I 2 U.$X$X$X$X$X$X$X",
"#X#X#X#X#X#X#XT k <.0.y.f.j.v.c.r.A G ( +.C.P.^.`.`.`.(.^.I.I.J.A.N.*.-.[ [ ) 5 { %X+X+XXX$X$X$X",
"#X#X#X#X#X#X[.8 n n h j B r I [ -.D.I.`.[.[.|. X X[.[.[.`.^.^.I.P.D.C.v.%.%.[ K D  X%X+X$X$X$X.X",
"#X#X#X#X#X#XI.@ 1 q R ' %.M.H.U.^.`.[.|. X#X#X#X$X#X XoX X[.`.^.I.P.D.C.-.+.[ ) 6 U.$X+X.X$XXX$X",
"#X#X#X#X#X%XC.7 `  .+.-.C.H.U.Q.^.[. X#X%X%X%X:X:X:X=X%X#XoX|.].^.I.P.C.-.-.+.[ w -.%X+X$X$X$X$X",
"#X#X#X#X#X%X*.q ' +.*.M.D.U.Q./.[. X#X%X:X,X,X3X2X2X1X>X:X%X#X X[.^.I.P.C.m.*. .D [ $X$X$X$XXX$X",
"#X#X#X#X#X#X+.p  .+.m.C.H.U./._. X$X=X>X3X3X8X8X8X8X6X6X,X:X%X#X X`.^.P.D.C.*.+.R K .X$X$X.X$X$X",
"#X#X#X#X#X%X .p  .*.m.D.U.Q._. X$X:X>X3X8XeXeXfXdXdXhXeX8X,X:X%X#X[.`.I.P.C.*.+.^ D .X$X$X$X$X$X",
"#X#X#X#X#X%X+.G +.*.C.P.U.].}.+X%X,X3X8XeXfXhXhXlXhXMXaXeX8X,X:X%X X`.^.P.A.m.*.[ y [.$X$XXX$X.X",
"#X#X#X#X#X$Xv.I %.-.V.H.Q.]. X+X-X2X6XeXdXlXcXbXnXbXlXlXdXeX4X>X%X#X[.^.I.D.C.*.[ t '.$X$XXX$XXX",
"#X#X#X#X#X#XH.u %.-.H.H.Q.[.XX*X>X4X9XdXlXbXMXVXVXBXnXcXhXrX8X1X:X#X X`.I.P.C.*.+.y '.$X$X$X$X$X",
"#X#X#X#X+X$XU.r %.-.H.U.Q.}.XX&X1X4XeXfXlXMXVXFXFXAXBXbXlXdX9X4X:X$X X`.^.H.C.m.[ u }.$X$XXXXX$X",
"#X#X#X#X+X+X}.u %.-.H.U./.}.XX&X1X6XrXhXbXBXAXHXKXGXVXMXlXfX9X4X,X%X X`.^.P.C.m.` I .X$X$X$X$X$X",
"*X+X+X+X$X$X+XR [ -.H.U.Q.[.#X=X1X8XeXhXbXBXAXKXKXGXVXMXlXhXeX4X:X%X X[.U.U.D.-.^ ^ $X$XXX$X$X$X",
"+X+X+X*X+X+X*X-.I -.D.H.Q.[. X&X>X4XeXfXlXnXVXAXFXAXVXbXlXfX9X2X:X#X X`.^.H.C.-.G %.$X@X$X$X$XXX",
"+X+X+X+X+X+X+X].w -.H.H.Q.}. X&X-X4X9XdXlXbXMXBXVXMXMXcXhXrX8X1X:X#X[.`.U.P.Z.-.t U.$X@X$XXX$X$X",
"+X+X+X+X*X+X+XXXR [ H.H.Q.]. X#X-X1X8XeXdXlXcXbXbXbXlXhXdX9X4X>X%X#X[.`.I.H.M...u [.$X@X$X$XXX$X",
"*X+X+X*X+X+X+X+XU.t -.H.Q./.[.+X%X>X3X8XeXfXhXhXlXBXlXhXqX6X<X;X+X.X/.Q.H.H.-.I [ $X$X$X$X$XXX$X",
"+X+X+X+X+X*X*X+XXXR ) H.H.Q.'. X#X=X>X3X8X0XeXfXfXaXeXeX7X<X;X*X+X}./.Q.H.H.-.w U.$XXX$XXX$X$X$X",
"+X+X+X+X+X+X*X+X+XQ.t -.H.U./.'.oX$X=X>X,X3X8X8X8X6X6X4X<X;X*X+X X/.Q.U.H.-.I ) $X$X$X$X$X$XXX$X",
"+X+X*X+X+X+X+X+X+X+X+.D H.H.Q.'.[. X$X%X:X>X,X3X2X1X1X>X*X*X+X.X[.Q.Q.H.D.+.w Q.$X$XXX$XXXXX$X$X",
"*X+X+X+X+X*X+X+X@X@X XR R H.H.U.`.[. X#X$X%X%X:X-X=X=X=X+XoX|./.Q.Q.H.D.-.u +.+X$XXX$XXX$XXX$X$X",
"+X+X+X*X+X+X+X*X@X@X$X_.D [ H.U.E.`.].[. XoX#X#X#X#XoXoX}.]./.Q.Q.H.H.V.I I XX%X$X$X$X$X$X$XXX$X",
"+X+X+X+X+X*X+X+X$X@X$X$XU.u [ H.P.I.^.`.].[.[.|.}.}.}.}.].Q.Q.Q.H.H.-.R D _.%X+X$XXXXX$XXX$X$X$X",
"+X*X+X+X+X+X+X+X@X@X$X$X$X/.G I N.P.I.I.^.(.(.`.Q.].Q.Q.Q.Q.H.H.H.-.I S /.+X+X+X$X$X$X$X$X$X$XXX",
"@X@X@X@X@X@X@X@X@X@X@X@X@X$X[.` p  .D.P.P.P.I.E.I.I.I.I.P.H.D.M.+.t R '.$X$X$XXXXX$X$XXX$XXX$X$X",
"@X@X$X@X@X$X@X@X@X@X@X$X@X@X$X@XD.I p  .C.D.D.P.P.H.P.D.D.M.O.I t -..X$X$XXX$X$X$X$X$X$X$X$X$XXX",
"@X@X@X@X@X@X@X@X$X@X@X@X@X@X@X$X$X XC.T p I ` +.+.*.O.' R p S #.'.$X$X$X$XXX$X$XXX$XXXXXXX$X$X$X",
"$X@X@X$X@X@X@X$X@X@X@X@X@X@X@X@X#X#X$XoX^.m.| E I I R ( %.P. X$X$X$X$XXX$X$XXX$X$X$X$X$X$X$X$XXX",
"@X@X@X@X@X@X@X@X@X@X@X@X@X@X@X@X#X#X#X#X#X#X#X#XoXoX#X#X$X$X$X@X$X$XXX$XXX$X$X$X$X$X$X$X$X$X$XXX",
"@X@X$X@X@X$X@X@X@X$X@X@X$X@X@X@X#X#X#X#X#X#X#X#X#X#X#X#X@X@X@X@XXX$X$X$X$X$XXX$XXX$XXXXXXX$X$X$X",
"@X@X@X@X@X@X@X@X@X@X@X@X@X@X@X$X#X#X#X#X#X#X#X#X#X#X#X#X@X$X@X@X$X$XXX$XXX$XXX$X$X$X$X$X$X$X$XXX",
"$X@X@X@X@X@X@X$X@X@X$X@X@X@X@X@X#X#X#X#X#X#X#X#X#X#X#X#X@X@X@X@XXXXX$X$X$X$X$X$XXX$X$XXX$XXX$X$X"
};
