/* XPM */
static char *buttonDragLocked[] = {
/* columns rows colors chars-per-pixel */
"48 48 213 2",
"   c #000000",
".  c #0D0D0D",
"X  c #100B04",
"o  c #161616",
"O  c #1C1C1C",
"+  c #070738",
"@  c #0B0B35",
"#  c #14142C",
"$  c #1D1D20",
"%  c #131333",
"&  c #1A1A34",
"*  c #222222",
"=  c #272829",
"-  c #2C2C2D",
";  c #272735",
":  c #2C2C33",
">  c #37332C",
",  c #39352D",
"<  c #343434",
"1  c #36373A",
"2  c #3E3C34",
"3  c #3C3C3C",
"4  c #050555",
"5  c #0C0C54",
"6  c #121258",
"7  c #07076C",
"8  c #0B0B63",
"9  c #0A0A77",
"0  c #0E0E7B",
"q  c #101077",
"w  c #212140",
"e  c #232353",
"r  c #373741",
"t  c #3C3E43",
"y  c #38384E",
"u  c #323258",
"i  c #2F2F6C",
"p  c #25257D",
"a  c #2D2D78",
"s  c #3E4146",
"d  c #46340F",
"f  c #453D0B",
"g  c #4D3F0E",
"h  c #453212",
"j  c #523D05",
"k  c #563C0B",
"l  c #5B3E0D",
"z  c #413E36",
"x  c #564001",
"c  c #57410A",
"v  c #524E0C",
"b  c #58430A",
"n  c #544D12",
"m  c #565210",
"M  c #5A5613",
"N  c #5D5A17",
"B  c #5F5B18",
"V  c #595436",
"C  c #66440D",
"Z  c #68470E",
"A  c #6A4B0F",
"S  c #6F5800",
"D  c #605C19",
"F  c #7D5F10",
"G  c #656325",
"H  c #6B682E",
"J  c #434344",
"K  c #44464B",
"L  c #47494C",
"P  c #4B4B4C",
"I  c #444454",
"U  c #42425B",
"Y  c #4D4D50",
"T  c #4C5055",
"R  c #56524B",
"E  c #59564E",
"W  c #535354",
"Q  c #545558",
"!  c #5C5A54",
"~  c #5B5B5B",
"^  c #4D4D72",
"/  c #5E5E62",
"(  c #5F6166",
")  c #625F57",
"_  c #646259",
"`  c #7B7D45",
"'  c #656565",
"]  c #6C6B65",
"[  c #6C6C6C",
"{  c #626973",
"}  c #686B71",
"|  c #747474",
" . c #70737A",
".. c #7C7C7C",
"X. c #101081",
"o. c #151589",
"O. c #1A1A8C",
"+. c #1F1F92",
"@. c #202080",
"#. c #21218F",
"$. c #232394",
"%. c #2B2B9B",
"&. c #30309E",
"*. c #3434A2",
"=. c #3B3BA7",
"-. c #3B3BA9",
";. c #434392",
":. c #5A5A8D",
">. c #4242AE",
",. c #4A4AB4",
"<. c #4E4EB8",
"1. c #5454BC",
"2. c #5B5BB3",
"3. c #5858BE",
"4. c #616196",
"5. c #6C7583",
"6. c #737A84",
"7. c #7F7F82",
"8. c #6262A6",
"9. c #6666B8",
"0. c #7272B2",
"q. c #5C5CC3",
"w. c #6161C3",
"e. c #6464C9",
"r. c #6868CC",
"t. c #6F6FD3",
"y. c #7373D3",
"u. c #7E8187",
"i. c #7C838C",
"p. c #9E7C00",
"a. c #A56700",
"s. c #AF7C00",
"d. c #B07200",
"f. c #B07800",
"g. c #B18402",
"h. c #82834D",
"j. c #B3B57D",
"k. c #C69800",
"l. c #C5990F",
"z. c #DD8D02",
"x. c #DDB100",
"c. c #E79800",
"v. c #E89B00",
"b. c #EAA302",
"n. c #E8AB01",
"m. c #E9B302",
"M. c #E9BE18",
"N. c #F4A700",
"B. c #F3AD04",
"V. c #F5B302",
"C. c #F2BB02",
"Z. c #F6B908",
"A. c #F9B500",
"S. c #FDBD00",
"D. c #EEC804",
"F. c #F7C30D",
"G. c #FEC203",
"H. c #FAC40A",
"J. c #FECA0A",
"K. c #F6C010",
"L. c #F5C916",
"P. c #FBCC14",
"I. c #F8CF1D",
"U. c #F1D40C",
"Y. c #F4DC13",
"T. c #FDD214",
"R. c #FBD625",
"E. c #FEDD24",
"W. c #F9D92B",
"Q. c #F6E211",
"!. c #F9E316",
"~. c #FDE53A",
"^. c #FEE93A",
"/. c #848484",
"(. c #898987",
"). c #8C8C8C",
"_. c #8E8F92",
"`. c #8A919A",
"'. c #949494",
"]. c #939499",
"[. c #9C9C9C",
"{. c #9B9EA5",
"}. c #A4A4A4",
"|. c #A3A6AB",
" X c #A8A8A7",
".X c #ABABAB",
"XX c #A2A8B0",
"oX c #ADB4BE",
"OX c #B3B3B3",
"+X c #BCBCBC",
"@X c #8383E3",
"#X c #9595F2",
"$X c #AEB7C1",
"%X c #B3BBC3",
"&X c #BBBFC5",
"*X c #A1A1FC",
"=X c #BEC0C5",
"-X c #BDC5CD",
";X c #C3C3C3",
":X c #C1C7CD",
">X c #CCCCCC",
",X c #C7CCD2",
"<X c #C8CED5",
"1X c #CFD3D8",
"2X c #D4D4D4",
"3X c #D5DADF",
"4X c #DBDBDB",
"5X c #DADCE0",
"6X c #E2E2E2",
"7X c #E7E9EC",
"8X c #EBEBEC",
"9X c #ECEEF1",
"0X c #F5F5F5",
/* pixels */
"' ' ' ' ' ' ' ' ' ' ' ' ' ' ' ' ' ' ' ' ' ' ' ' ' ' ' ' ' ' ' ' ' ' ' ' ' ' ' ' ' ' ' ' ' ' ' ' ",
"' ' ' ' ' ' ' ' ' ' ' ' ' ' ' ' ' ' ' ' ' ' ' ' ' ' ' ' ' ' ' ' ' ' ' ' ' ' ' ' ' ' ' ' ' ' ' ' ",
"' ' ' ' ' ' ' ' ' ' ' ' ' ' ' ' ' ' ' [ ' ' ' ' ' ' ' ' ' ' ' ' ' ' ' ' ' ' ' ' ' ' ' ' ' ' ' ' ",
"' ' ' ' ' ' ' ' ' ' ' ' ' ' ' ' ' ' ! L 3 < - - - - V I ~ ' ' ' ' ' ' ' ' ' ' ' ' ' ' ' ' ' ' ' ",
"' ' ' ' ' ' ' ' ' ' ' ' ' ' ' ' P < - V I ~ ' [ J 3 ! 3 : 3 Q ' ' ' ' ' ' ' ' ' ' ' ' ' ' ' ' ' ",
"' ' ' ' ' ' ' ' ' ' ' ' ' ' Q = O Q [ | ..7.u.(.[ L ).(.| W - 1 ~ ' ' ' ' ' ' ' ' ' ' ' ' ' ' ' ",
"' ' ' ' ' ' ' ' ' ' ' ' ' J # 5 ; | 7.7./.(.).)./.J )._.).(.| P - P ' ' ' ' ' ' ' ' ' ' ' ' ' ' ",
"' ' ' ' ' ' ' ' ' ' ' ' 3 @ 0 +.w | (.).)._.'.[.'.J ).[.'.).).(.[ : J _ ' ' ' ' ' ' ' ' ' ' ' ' ",
"' ' ' ' ' ' ' ' ' ' ' z + 9 +.*.e | _.[.[.[.[.}..X! u. X[.'.'._.).| 3 t ' ' ' ' ' ' ' ' ' ' ' ' ",
"' ' ' ' ' ' ' ' ' ' L @ 9 +.%.>.i _ [.[.}. X.X.XOX| [ OX.X}.[.[.'.)...z J ' ' ' ' ' ' ' ' ' ' ' ",
"' ' ' ' ' ' ' ' ' ! # 7 O.%.-.<.;.T  X X.X.XOX+X+X_./ +XOX.X X}.[.'.'...< P ' ' ' ' ' ' ' ' ' ' ",
"' ' ' ' ' ' ' ' ' : 4 o.$.*.,.q.2.I .XOX+X+X+X;X>XOX! +X+X+XOX.X}.}.[.[...- ~ ' ' ' ' ' ' ' ' ' ",
"' ' ' ' ' ' ' ' T @ 0 $.*.,.q.e.y.U  X+X;X;X>X>X>X>XQ oX>X>X+X+X.X[.7.' Y * 3 ' ' ' ' ' ' ' ' ' ",
"' ' ' ' ' ' ' ' : 8 $.&.-.1.t.y.@X^ [.>X>X>X2X4X4X6X| {.+X[..._ Y I L W ' ' 3 ' ' ' ' ' ' ' ' ' ",
"' ' ' ' ' ' ' Q % O.%.-.1.w.y.@X#X4.).4X4X4X2X;X.X_.L V R Q ' | h.`.).).(.u./ J [ ' ' ' ' ' ' ' ",
"' ' ' ' ' ' ' J 6 %.=.,.q.t.y.#X*X0./ }./.[ Q W ~ | (.'.}.}.}.{.[.[.'._.)./.7.z ' [ ' ' ' ' ' ' ",
"' ' ' ' ' ' _ ; p =.,.3.w.9.8.:.^ I J ) | (.[..XOXOXOX.X.X.X X}.[.[.[.'._.).(.W R [ ' ' ' ' ' ' ",
"' ' ' ' ' ' ~ & p a i u y I ~ [ (.[..XOX+X+X+XOX+X+XOX+X+XOX.X.X}.}.[.[.'.).).| J | ' ' ' ' ' ' ",
"' ' ' ' ' ' Y $ r P ] ..).[. X.XOXOXOX+X+X+X+X;X;X+X=X+X+X+XOX.X.X X}.[.[.'.).(.J [ ' ' ' ' ' ' ",
"' ' ' ' ' [ J P (._.'.[.[. X.X.XOXOX+XOX..OX>X;X>X;X;X;X+X+X+X+XOX.X}.}.[.'.'.).! / [ ' ' ' ' ' ",
"' ' ' ' ' ' J ~ )._.'.[.}. X.XOXOX=X.XJ   J OX2X>X>X>X;X;X;X+X+XOX.X.X}.[.[.'._.[ W | ' ' ' ' ' ",
"' ' ' ' ' ' 3 / _.'.[.[. X.XOXOX+X}.<       1 .X2X2X2X2X>X;X;X+X+XOXOX X}.[.[._.| L | ' ' ' ' ' ",
"' ' ' ' ' ' 3 ' '.'.[.}. X.XOX+X+X..P *   * R /.2X6X2X2X2X>X>X;X+X+XOX X}.}.[.'./.J ..' ' ' ' ' ",
"' ' ' ' ' ' 3 ) '.[.[. X.X.X+X+X;X;X>XW   W 6X4X6X6X6X4X2X2X>X;X;X+XOXOX X}.[.[.).J ..' ' ' ' ' ",
"' ' ' ' ' ' J ~ ].[.[. X.XOX+X=X;X>X2XQ   Q 6X6X6X6X6X6X4X2X2X;X;X;X}.| ~ Q T ~ ' J 7.' ' ' ' ' ",
"' ' ' ' ' ' L W '.[.}. X.X XOX;X>X2X2XQ   ! 8X8X9X9X6X2X6X2X2X>X+X} L | [. X|.).Q = ' ' ' ' ' ' ",
"' ' ' ' ' ' W J '.[.{.|.[.J  X>X>X2X2X!   ! 0X0X0X0X2X! ;X6X2X;XQ ( =X7X9X7X8X9X4X].1 P ' ' ' ' ",
"' ' ' ' ' ' ) < ).[.}.{.1 o '..XOX+X;XW   T 4X4X6X4X;XO z ;X4X[ ' ,X1X{.} / ( u.&X5X{.< Q ' ' ' ",
"' ' ' ' ' ' ' < ..[.[.V     o O O O O .   . * * * * *     P }.K $X:X} J [ | [ L s XX<X .< ' ' ' ",
"' ' ' ' ' ' ' J ~ }._.*                                   - ~ } -X/.K }.OX X}.[.P s %XXX< ~ ' ' ",
"' ' ' ' ' ' ' Q 3 '.}.(.O . | /.)._.'.3   3 [.}.}.}._.o O }.~ i.%XT u.+X.X X}.[.P * `.$Xs Y ' ' ",
"' ' ' ' ' ' ' ' < | }. X..- }.;X>X>X4XW   ! 8X8X8X8X>X< [.2XQ i.oXJ '.OX.X}.[.).L J 6.%XL Y ' ' ",
"' ' ' ' ' ' ' ' Y L [.}..X). X=X;X>X>XW   W 4X6X6X6X>X X3X;XK 5.oXt 7.[.]._.).( T t { $Xs K ' ' ",
"' ' ' ' ' ' ' ' ' < .. X X.XOX+X+X;X>XW   R 4X4X4X4X4X2X|.V n h.j.G M B N N N v m v ` j.H f 3 ' ",
"' ' ' ' ' ' ' ' ' W z '.}. X.X+X+X=X>XR   P 2X2X2X2X2X>X] s.D.Y.!.Q.Q.Q.Q.Q.Q.Q.Q.Q.Q.Q.U.x.g Q ",
"' ' ' ' ' ' ' ' ' ' J Q }. X.XOXOX)...<   < (.'.;X>X>X>X) g.L.~.^.^.^.^.^.^.^.^.^.^.^.~.W.m.b T ",
"' ' ' ' ' ' ' ' ' ' _ 1 [ }. X.XOX7.o       o (.;X>X;X;X) f.Z.R.E.E.E.E.E.E.E.E.E.E.E.E.I.n.c T ",
"' ' ' ' ' ' ' ' ' ' ' / 1 ..}..X.XOX(.*   O ).;X+X&X+X+X) f.Z.P.T.T.T.T.L.L.L.T.T.T.P.P.F.n.l W ",
"' ' ' ' ' ' ' ' ' ' ' ' ~ 1 | }..X.XOX_.J _.+XOX+X+XOX+X! f.V.H.H.J.J.J.l.h F F.J.J.J.H.C.b.k Q ",
"' ' ' ' ' ' ' ' ' ' ' ' ' ) 3 ' [. X X.X.X.XOXOXOXOXOX.XE d.B.Z.H.G.G.J.g.X x C.G.G.G.H.V.v.l T ",
"' ' ' ' ' ' ' ' ' ' ' ' ' [ ' J P /.}. X X X.X.X.X.X X.XE d.N.Z.S.S.G.G.C.x g.G.G.G.S.S.V.c.l T ",
"' ' ' ' ' ' ' ' ' ' ' ' ' ' ' [ ~ t W /.[.}.}. X X}. X XR d.N.A.S.S.S.S.S.S k.G.G.G.S.A.V.c.k Q ",
"' ' ' ' ' ' ' ' ' ' ' ' ' ' ' ' ' [ ~ J Y ' | /.).).(...z d.N.A.S.S.G.S.S.x.C.S.S.S.S.S.B.c.k W ",
"' ' ' ' ' ' ' ' ' ' ' ' ' ' ' ' ' ' [ | [ ) Q Y Y P Y Q > d.N.A.S.S.S.S.S.S.S.H.S.S.S.S.V.c.k W ",
"' ' ' ' ' ' ' ' ' ' ' ' ' ' ' ' ' ' ' ' ' [ | | ........z d.N.A.S.S.S.S.S.S.S.S.S.S.S.A.B.c.k W ",
"' ' ' ' ' ' ' ' ' ' ' ' ' ' ' ' ' ' ' ' ' ' ' ' ' ' ' ' , a.c.b.B.B.B.B.B.B.B.B.B.B.B.B.b.z.k W ",
"' ' ' ' ' ' ' ' ' ' ' ' ' ' ' ' ' ' ' ' ' ' ' ' ' ' ' ' P h C Z A A A A A A A A A A A Z Z l > / ",
"' ' ' ' ' ' ' ' ' ' ' ' ' ' ' ' ' ' ' ' ' ' ' ' ' ' ' ' ' Q P L L L P L P L L L L L L P P P / ' "
};
