/* XPM */
static char * buttonDblLeftDisabled[] = {
"48 48 186 2",
"  	c None",
". 	c #666666",
"+ 	c #6A6A6A",
"@ 	c #777777",
"# 	c #7E7E7E",
"$ 	c #686868",
"% 	c #656565",
"& 	c #606060",
"* 	c #555454",
"= 	c #474747",
"- 	c #3E3D3D",
"; 	c #373636",
"> 	c #343434",
", 	c #474646",
"' 	c #545454",
") 	c #787878",
"! 	c #808080",
"~ 	c #444343",
"{ 	c #2D2C2C",
"] 	c #7B7B7B",
"^ 	c #7F7776",
"/ 	c #7C5853",
"( 	c #772015",
"_ 	c #7A7A7A",
": 	c #2D2D2D",
"< 	c #353434",
"[ 	c #464646",
"} 	c #5A5959",
"| 	c #676767",
"1 	c #717171",
"2 	c #757575",
"3 	c #5A5A5A",
"4 	c #7D7D7D",
"5 	c #7E6A68",
"6 	c #793830",
"7 	c #76160A",
"8 	c #76180D",
"9 	c #2E2D2D",
"0 	c #414141",
"a 	c #5F5E5E",
"b 	c #6F6F6F",
"c 	c #5F5F5F",
"d 	c #7D5E5B",
"e 	c #772319",
"f 	c #79352C",
"g 	c #7F7F7F",
"h 	c #404040",
"i 	c #2E2E2E",
"j 	c #414040",
"k 	c #7D605D",
"l 	c #772116",
"m 	c #7A463F",
"n 	c #7C7C7C",
"o 	c #585757",
"p 	c #323131",
"q 	c #3A3939",
"r 	c #7E6967",
"s 	c #77261B",
"t 	c #76170C",
"u 	c #737373",
"v 	c #505050",
"w 	c #707070",
"x 	c #3C3B3B",
"y 	c #383838",
"z 	c #6B6B6B",
"A 	c #78332A",
"B 	c #78706F",
"C 	c #68443F",
"D 	c #70190E",
"E 	c #575757",
"F 	c #3F3E3E",
"G 	c #575656",
"H 	c #616060",
"I 	c #3E3E3E",
"J 	c #3B3A3A",
"K 	c #7B514C",
"L 	c #782A20",
"M 	c #705C5A",
"N 	c #67261E",
"O 	c #74160B",
"P 	c #6B6A6A",
"Q 	c #2F2F2F",
"R 	c #484747",
"S 	c #6E6E6E",
"T 	c #403F3F",
"U 	c #6D6D6D",
"V 	c #7D6360",
"W 	c #772117",
"X 	c #783027",
"Y 	c #7B7372",
"Z 	c #6E1A0F",
"` 	c #68231B",
" .	c #454444",
"..	c #373737",
"+.	c #343333",
"@.	c #7B4943",
"#.	c #7A4740",
"$.	c #78504C",
"%.	c #66312B",
"&.	c #525252",
"*.	c #3D3C3C",
"=.	c #353535",
"-.	c #79362E",
";.	c #7D5E5A",
">.	c #75160A",
",.	c #383737",
"'.	c #393939",
").	c #434242",
"!.	c #7D5F5C",
"~.	c #7D635F",
"{.	c #79332B",
"].	c #6D6C6C",
"^.	c #6E6D6D",
"/.	c #333232",
"(.	c #626262",
"_.	c #616161",
":.	c #636363",
"<.	c #444444",
"[.	c #7D6764",
"}.	c #7D6865",
"|.	c #7F7A79",
"1.	c #761C11",
"2.	c #6B1D13",
"3.	c #747474",
"4.	c #5B5B5B",
"5.	c #303030",
"6.	c #646363",
"7.	c #646464",
"8.	c #302F2F",
"9.	c #7C5A56",
"0.	c #692118",
"a.	c #767676",
"b.	c #454545",
"c.	c #565656",
"d.	c #323232",
"e.	c #484848",
"f.	c #6C4641",
"g.	c #782C23",
"h.	c #66322C",
"i.	c #5E5E5E",
"j.	c #535353",
"k.	c #67241C",
"l.	c #6B4B47",
"m.	c #3F3F3F",
"n.	c #727272",
"o.	c #494949",
"p.	c #535252",
"q.	c #595959",
"r.	c #6B4E4A",
"s.	c #6C524F",
"t.	c #5C5C5C",
"u.	c #3D3D3D",
"v.	c #797170",
"w.	c #6E5855",
"x.	c #6F5956",
"y.	c #6F5B59",
"z.	c #7B7675",
"A.	c #797979",
"B.	c #696969",
"C.	c #363636",
"D.	c #313030",
"E.	c #424141",
"F.	c #3A3A3A",
"G.	c #3B3B3B",
"H.	c #3C3C3C",
"I.	c #2F2E2E",
"J.	c #595858",
"K.	c #393838",
"L.	c #555555",
"M.	c #424242",
"N.	c #464545",
"O.	c #525151",
"P.	c #4B4B4B",
"Q.	c #313131",
"R.	c #4B4A4A",
"S.	c #4F4F4F",
"T.	c #363535",
"U.	c #4A4A4A",
"V.	c #5D5D5D",
"W.	c #585858",
"X.	c #4D4C4C",
"Y.	c #515151",
"Z.	c #5E5D5D",
"`.	c #5C5B5B",
" +	c #5D5C5C",
".+	c #4C4B4B",
". . . . . . . . . . . . . . . . . . . . . . . . . . . . . . . . . . . . . . . . . . . . . . . . ",
". . . . . . . . . . . . . . . . . . . . . . . . . . . . . . . . . . . . . . . . . . . . . . . . ",
". . . . . . . . . . . + @ # @ $ . % & * = - ; > > ; - , ' & % . . . . . . . . . . . . . . . . . ",
". . . . . . . . . . ) ! ! ! ! @ ~ { { { { { { { { { { { { { { ~ . . . . . . . . . . . . . . . . ",
". . . . . . . . $ ] ! ^ / ( ! _ { : < [ } | 1 2 2 1 | 3 [ < : { ~ % . . . . . . . . . . . . . . ",
". . . . . . . $ 4 ! 5 6 7 8 ! # 9 0 a b ) # ! ! ! ! # ) b c 0 9 { { ~ . . . . . . . . . . . . . ",
". . . . . . $ 4 ! d e 7 7 f ! b . ] g ! ! ! ! ! ! ! ! ! ! g ] | h i { j . . . . . . . . . . . . ",
". . . . . . ] ! k l 7 7 7 m ! # ! ! ! g ! g ] 2 2 ] g g g ! ! ! n o p { q . . . . . . . . . . . ",
". . . . . @ ! r s 7 7 7 t / ! ! ! g u 1 # ! v i i v ! 4 w u g ! ! ! $ x { y . . . . . . . . . . ",
". . . . z ! ^ A 7 7 7 7 ( ! ! ! B C D E # ] F { { F ] # G > H ) ! ! ! b I { J . . . . . . . . . ",
". . . | n ! K 7 7 7 7 7 L ! ! M N 7 O z ! P p { { p P ! z Q { R S g ! ! S J { T . . . . . . . . ",
". . . U ! V W 7 7 7 7 7 X ! Y Z 7 7 ` ) ! 3 Q { { Q 3 ! )  .{ { ..% g ! ! . +.{ ~ . . . . . . . ",
". . . ) ! @.7 7 7 7 7 7 #.! $.7 7 7 %.4 g , : { { : = ! 4 &.{ *.{ =.| ! ! ! ' 9 { % . . . . . . ",
". . $ ! ^ -.7 7 7 7 7 7 ;.! 6 7 7 >.C ! _ ,.{ ~ ~ { .._ ! & i { F { '.S ! ! _ I { ).. . . . . . ",
". . S ! !.7 7 7 7 7 7 7 ~.! {.7 7 D ].! ^./.{ (.(.{ /.U ! ].> { _.x { ~ _ ! ! :.Q { <.. . . . . ",
". . $ ! ^ [.}.}.}.}.}.r |.! 1.7 7 2.3.! 4.5.{ 6.7.{ 8.3 ! 3.- { 3 7.< { E 4 ! # ).: { . . . . . ",
". . . @ ! ! ! ! ! ! ! ! ! 9.7 7 7 0.a.! b.: { . . { : ~ ! @ ~ { c.. c.{ d.$ g ! H Q { 7.. . . . ",
". . . . _.h e.a.! # f.g.1.7 7 7 7 h.4 ! j { <.. . <.{ '.n 4 c.{ ~ . . j { ' 4 ! 3.y { i.. . . . ",
". . . . j.{ e.# ! B k.7 7 7 7 7 7 l.! ! m.{ q q q q { ; n.! $ : { q q q { m.a.! # o.{ p.. . . . ",
". . . . = { q.! ! r.7 7 7 7 7 7 7 s.! ) d.{ { { { { { { :.! z { { { { { { { t.# ! 3 { [ . . . . ",
". . . . u.{ $ ! ! v.w.x.x.x.x.x.y.z.! 4 b U U U U U U S A.! n b U U U U U ].a.g ! B.{ *.. . . . ",
". . . . C.{ n.! ! ! ! ! ! ! ! ! ! ! ! ! ! ! ! ! ! ! ! ! ! ! ! ! ! ! ! ! ! ! ! ! ! u { < . . . . ",
". . . . D.{ _ ! ! ! ! ! ! ! ! ! ! ! ! ! ! ! ! ! ! ! ! ! ! ! ! ! ! ! ! ! ! ! ! ! ! ] { 8.. . . . ",
". . . . 9 { # ! @ E.> > > > > > > > > > > > > > > > > > > > > > > > > > > > <.) ! g { { . . . . ",
". . . . { { ! ! 2 F.{ { { { { { { { { { { { { { { { { { { { { { { { { { { { G.a.! ! { { . . . . ",
". . . . { { g ! a.G.{ t._._._._._._._._._._._._._._._._._._._._._._._._.4.{ H.a.! ! { { . . . . ",
". . . . I.{ n ! @ m.{ q.. . . . . . . . . . . . . . . . . . . . . . . . J.{ h @ ! # { 9 . . . . ",
". . . . /.{ @ ! A.R { j.. . . . . . . . . . . . . . . . . . . . . . . . c.{ <.A.! ) { p . . . . ",
". . . . K.{ S ! 4 L.{ M.. . . . . . . . . . . . . . . . . . . . . . . . * { N.A.! w { ,.. . . . ",
". . . . j { (.! ! $ 5.{ (.. . . . . . . . . . . . . . . . . . . . . . . 0 { O.n ! :.{ h . . . . ",
". . . . P.{ j.! ! A.[ { * . . . . . . . . . . . . . . . . . . . . . . c { Q.B.! ! L.{ R.. . . . ",
". . . . E { ).4 ! # q.{ ).. . . . . . . . . . . . . . . . . . . . . . S.{ R.] ! 4 <.{ c.. . . . ",
". . . . _.{ +.^.! ! $ Q { 7.. . . . . . . . . . . . . . . . . . . . . ,.{ _.g ! S < { & . . . . ",
". . . . % { i L.! ! 2 0 { E.. . . . . . . . . . . . . . . . . . . . E.{ T 3.! ! G i { % . . . . ",
". . . . . ~ { F.A.! ! 7.5.{ 4.. . . . . . . . . . . . . . . . . . 4.{ 5.7.! ! _ G.{ ~ . . . . . ",
". . . . . % { 9 E ! ! n v { > :.. . . . . . . . . . . . . . . . :.> { v n ! ! J.i { % . . . . . ",
". . . . . . ~ { ..n.! ! ) <.{ T.& . . . . . . . . . . . . . . & T.{ <.) ! ! u y { ~ . . . . . . ",
". . . . . . % { : e.! ! ! u E.{ D.* . . . . . . . . . . . . * D.{ E.u ! ! ! U.: { % . . . . . . ",
". . . . . . . ~ { Q t.! ! ! u o.{ { T :.. . . . . . . . (.0 { { o.u ! ! ! V.Q { ~ . . . . . . . ",
". . . . . . . . ).{ < % ! ! ! A.} +.{ > N.W.. . 7.3 X.0 { { Q.} A.! ! ! . =.{ ).. . . . . . . . ",
". . . . . . . . . F { ... ! ! ! 4 w <.{ { { p p { { { { Q.[ b 4 ! ! ! . ,.{ F . . . . . . . . . ",
". . . . . . . . . . u.{ +.t.! ! ! ! A.b ' /.{ { I.u.Y._.a.A.! ! ! ! Z.< { *.. . . . . . . . . . ",
". . . . . . . . . . . T { 8.S.a.! ! ! ! 4 _ ) ) ) ] 4 g ! ! ! ! @ v 8.{ F . . . . . . . . . . . ",
". . . . . . . . . . . . M.{ 9 K.`.a.g ! ! ! ! ! ! ! ! ! ! g a. +'.9 { M.. . . . . . . . . . . . ",
". . . . . . . . . . . . . ~ { { : q c.+ 2 ] g ! ! g ] 2 z c.q : { { ~ . . . . . . . . . . . . . ",
". . . . . . . . . . . . . . % ~ { { D.F j.H + b b + H j.m.Q.: { ~ % . . . . . . . . . . . . . . ",
". . . . . . . . . . . . . . . . % E.{ { { { { { { { { { { { { <.. . . . . . . . . . . . . . . . ",
". . . . . . . . . . . . . . . . . . :.q..+M.x y y x M..+q.:.. . . . . . . . . . . . . . . . . . "};
