/* XPM */
static const char *buttonDblLeftLocked[] = {
/* columns rows colors chars-per-pixel */
"48 48 90 1 ",
"  c black",
". c #191919",
"X c #353535",
"o c #373737",
"O c gray23",
"+ c #3F3F3F",
"@ c gray25",
"# c #444444",
"$ c #484848",
"% c #4C4C4C",
"& c gray30",
"* c gray32",
"= c #565656",
"- c #585858",
"; c #5F5F5F",
": c gray38",
"> c gray40",
", c #686868",
"< c gray42",
"1 c #6D6D6D",
"2 c #727272",
"3 c gray45",
"4 c #747474",
"5 c #797979",
"6 c #7C7C7C",
"7 c red",
"8 c #FF0606",
"9 c #F60F0F",
"0 c #FC1515",
"q c #FF1C1C",
"w c #FA2B2B",
"e c #F93A3A",
"r c #F94444",
"t c #FF4A4A",
"y c #FF4E4E",
"u c #FF5252",
"i c #ED6F6F",
"p c #FC7171",
"a c #FF7C7C",
"s c gray51",
"d c gray52",
"f c #8B8B8B",
"g c gray55",
"h c gray57",
"j c gray59",
"k c #9B9B9B",
"l c gray62",
"z c #A2A2A2",
"x c #A4A4A4",
"c c #AAAAAA",
"v c #AEAEAE",
"b c gray70",
"n c #B4B4B4",
"m c gray73",
"M c gray75",
"N c #FF8282",
"B c #FF8484",
"V c #FF9191",
"C c #FD9999",
"Z c #FF9F9F",
"A c #FFA6A6",
"S c #FFADAD",
"D c #FFB1B1",
"F c #FFB9B9",
"G c #FFBBBB",
"H c #C3C3C3",
"J c gray77",
"K c #CBCBCB",
"L c #CDCDCD",
"P c gray82",
"I c gray84",
"U c gray86",
"Y c #DFDFDF",
"T c #FFC1C1",
"R c #FFC3C3",
"E c #FFC9C9",
"W c #FFCECE",
"Q c gray88",
"! c #E7E7E7",
"~ c #EAEAEA",
"^ c #EEEEEE",
"/ c #FFE9E9",
"( c #FFEBEB",
") c gray94",
"_ c #F1F1F1",
"` c gray97",
"' c #FFF1F1",
"] c #FBFBFB",
"[ c #FFFBFB",
"{ c #FEFEFE",
/* pixels */
">>>>>>>>>>>>>>>>>>>>>>><>>>>>>>>>>>>>>>>>>>>>>>>",
">>>>>>>>>>>6L_L2>>:=&@+oo+#$=:>>>>>>>>>>>>>>>>>>",
">>>>>>>>>>L{{{{L$XXXXXXXXXXXXXX$>>>>>>>>>>>>>>>>",
">>>>>>>>2Q{/A0{_XX$2zHU!~UHz4#oX$>>>>>>>>>>>>>>>",
">>>>>>>2_{Wu78{]o>vI^]{{{{]^Yv>XXX$1>>>>>>>>>>>>",
">>>>>>2^{Dq77t{IJ_{{{{{{{{{{{{_J:oX#>>>>>>>>>>>>",
">>>>>>Y{GVRRBN{]{{{{{{_!!_{{{{{{`l@X@>>>>>>>>>>>",
">>>>>L{W/{{{{[{{/N0i]{6>>6{]UQ{{{{J-X@>>>>>>>>>>",
">>>>d{/A{c++c{{R7779]_>>>>_]k:jQ{{{U;X@>>>>>>>>>",
">>><~{VR{@  @{[77778{L:>>:L{L>>1M{{{I=X#>>>>>>>>",
">>>h{GqR{+  +{{Bq77r{x:>>>z{~<>>>z{{{H#X$>>>>>>>",
">>>L{a7B{c++c{{{/q7p{1>>>>1{`5>>>:x{{{jXX>>>>>>>",
">>4{/y7q/{{{{_*c{N7Z_>>>>>:_{j>>>>:M{{_;X#<>>>>>",
">>j{D777qB'{z. +{R0{P:>>><:P{P:>>>><~{{moX#>>>>>",
">>2{/RRRRR'{@  +{Rw{k:>>>>>j{Q>>>>>>s]{{<XX1>>>>",
">>>L{{{{{{{{c++c{Be{<>>>>>><{~>>>>>>:c{{b@X:>>>>",
">>>>1>4~{Cu/{{{{/qp{>>>>>>>:`]6>>>>>>5]{Q*X;>>>>",
">>>>=X5]/77qNRRBq7S{>>>>>><:Y{c>>>>>>>U{{5X=>>>>",
">>>>%Xz{D777777777G~:>>>>>>>n{n>>>>>><g]{zX$>>>>",
">>>>@XJ{/777777777']UPPPPPPP^{^MmmmmmnU{{KX@>>>>",
">>>>@XY{{(RRRRERE'{{{{{{{{{{{{{{{{{{{{{{{QX+>>>>",
">>>>OX^{{{{{{{{{{{{{{{{{{{{{{{{{{{{{{{{{{`Xo>>>>",
">>>>XX]{~,$$$$$#$#$$$#$$$#$#$$$#$#$$$#1~{{XX>>>>",
">>>>XX{{!=XXXXXXXXXXXXXXXXXXXXXXXXXXXX=!{{XX>>>>",
">>>>XX{{!-X;::::::::2m^]]_M2::::::::;X-~{{XX>>>>",
">>>>oo`{~:X->>>>>>>2I{UnnU{I2>>>>>>>=X>~{{XX>>>>",
">>>>OX~{^4X->>>>>>>M{m4224m{M>>>>>>>-X1^{^Xo>>>>",
">>>>@XI{[kX#>>>>>>2_~2>>>>2~`2>>>>>>=X2_{YX+>>>>",
">>>>#Xn{{J+X:>>>>><{L>>>>>>L{<>>>>>>#Xf`{mX@>>>>",
">>>>*Xh{{^4X=>>>>>g{UddfdfdU]f>>>>>;X+K{{jX&>>>>",
">>>>-X<]{{xX$>>>>>I{`YYYYYY_{I>>>>>=X6_{{2X->>>>",
">>>>>X#P{{JoX>>>>>]{{{{{{{{{{`>>>>>@on{{I$X:>>>>",
">>>>>XOj{{!>X#>>>>^{{{{{{{{{{^>>>>#X:Q{{loX>>>>>",
">>>>>$X=^{{m@X;>>>^{{{{{{{{{{~>>>;X+M{{_-X$>>>>>",
">>:>>>XXl{{]fXo:>>^{{{{{{{{{{^>,<oXf]{{z+X>>>:>>",
">&X%>>$X&Y{{~1X@:>^{{{{{{{{{{~>:+X1~{{Q=X@>>&X&>",
">OXX&>>XX5{{{Q1XX-^{{{{{{{{{{^=oX>Q{{{6XX>1#XX+>",
">XXXX$>$Xoc{{{Y5XX~{]]{]{{]{]!XX5Y{{{coX$>$XXXX>",
">XXzXX$>$X$M{{{^z@X@#-<>>=*#XX@z^{{{H$X$>$XXzXX>",
">XX{KILf,#X&J{{{]Y1XXXXoXXXX+4I]{{{H*X#>fLIK{XX>",
">XX{c++cf>#X#c{{{{^Uj@XXo;gn!^{{{{v$X#>dc++c{XX>",
">XX{+  +L$:#X@f~{{{{]_^^__]{{{{{~f+X#:$L+  +{XX>",
">XX{+  +QX$:#XX*x!{{{{{{{{{{{{~z*XX#:$XQ+  +{XX>",
">XX{c+@c_fX#:$XXX=kLQ`{{{{`QLk-oXX$;$Xf_c++c{XX>",
">XX{{{{{{]dXX->$XX@:hbLIILbh>+XX$>-XXf`{{{{{{XX>",
">XXXXXXXXXXXX#><>#XXXXXXXXXXXXX$<>#XXXXXXXXXXXX>",
"<$XXXXXXXXXX#->>>>:;*#@@@@#*-:>>>>-$XXXXXXXXXX$>",
">>>>>>>>>>>><>>>>>>>>>>>>>>>>>>>>>>>>>>>>>>>>>>>"
};
