/* XPM */
static char * buttonDragSelectedLocked[] = {
"48 48 313 2",
"  	c None",
". 	c #666666",
"+ 	c #646464",
"@ 	c #616161",
"# 	c #636363",
"$ 	c #656565",
"% 	c #626262",
"& 	c #5F5E5E",
"* 	c #5D5C5C",
"= 	c #5B5A5A",
"- 	c #595858",
"; 	c #5B5B5B",
"> 	c #5E5E5E",
", 	c #656464",
"' 	c #5A5959",
") 	c #979797",
"! 	c #7E7D7D",
"~ 	c #696868",
"{ 	c #8C8B8B",
"] 	c #B3B2B2",
"^ 	c #CECDCD",
"/ 	c #E1E1E1",
"( 	c #EAE9E9",
"_ 	c #CECECE",
": 	c #B3B3B3",
"< 	c #8C8C8C",
"[ 	c #919090",
"} 	c #F8F8F8",
"| 	c #DCDCDC",
"1 	c #6D6C6C",
"2 	c #818181",
"3 	c #BDBCBC",
"4 	c #DEDEDE",
"5 	c #EFEFEF",
"6 	c #FCFCFC",
"7 	c #FFFFFF",
"8 	c #F0F0F0",
"9 	c #BDBDBD",
"0 	c #F5F5F5",
"a 	c #DADADA",
"b 	c #5C5C5C",
"c 	c #5E5D5D",
"d 	c #5C5B5B",
"e 	c #7D7D7D",
"f 	c #CCCCCC",
"g 	c #FEFEFE",
"h 	c #959494",
"i 	c #929191",
"j 	c #D9D8D8",
"k 	c #747373",
"l 	c #636262",
"m 	c #ACACAC",
"n 	c #F6F6F6",
"o 	c #EAEAEA",
"p 	c #FAFAFA",
"q 	c #DFDFDF",
"r 	c #E0E0E0",
"s 	c #EEEEEE",
"t 	c #ECECEC",
"u 	c #BFBEBE",
"v 	c #767575",
"w 	c #CDCDCD",
"x 	c #FDFDFD",
"y 	c #E5E5E5",
"z 	c #E2E2E2",
"A 	c #FBFBFB",
"B 	c #A09F9F",
"C 	c #8E8D8D",
"D 	c #E7E7E7",
"E 	c #CBCBCB",
"F 	c #818080",
"G 	c #828181",
"H 	c #F4F4F4",
"I 	c #CFCFCF",
"J 	c #605F5F",
"K 	c #7B7A7A",
"L 	c #DDDDDD",
"M 	c #F0DFDD",
"N 	c #D0877E",
"O 	c #DF311B",
"P 	c #AEAEAE",
"Q 	c #7D7C7C",
"R 	c #F3F3F3",
"S 	c #B2B1B1",
"T 	c #838383",
"U 	c #E6E5E5",
"V 	c #8A8989",
"W 	c #B9B9B9",
"X 	c #5D5D5D",
"Y 	c #747474",
"Z 	c #DBDADA",
"` 	c #DFB8B3",
" .	c #CD4B3B",
"..	c #EB2B13",
"+.	c #E82C15",
"@.	c #D6D6D6",
"#.	c #D5D4D4",
"$.	c #737272",
"%.	c #787777",
"&.	c #C0BFBF",
"*.	c #C6C5C5",
"=.	c #A6A6A6",
"-.	c #A4A3A3",
";.	c #6B6A6A",
">.	c #838282",
",.	c #C1C1C1",
"'.	c #CACACA",
").	c #D59991",
"!.	c #DB331E",
"~.	c #CF4635",
"{.	c #B4B4B4",
"].	c #7A7979",
"^.	c #7F7E7E",
"/.	c #9D9D9D",
"(.	c #EBEBEB",
"_.	c #676666",
":.	c #B1B0B0",
"<.	c #B5B4B4",
"[.	c #A6A5A5",
"}.	c #D69D96",
"|.	c #DE311C",
"1.	c #CB6255",
"2.	c #8D8C8C",
"3.	c #E4E4E4",
"4.	c #757474",
"5.	c #666565",
"6.	c #E8E7E7",
"7.	c #626161",
"8.	c #616060",
"9.	c #B7B7B7",
"0.	c #DEB6B1",
"a.	c #D93621",
"b.	c #E92C14",
"c.	c #6F6E6E",
"d.	c #E6E6E6",
"e.	c #D7D7D7",
"f.	c #D3D2D2",
"g.	c #F7F7F7",
"h.	c #C5C5C5",
"i.	c #F1E2E1",
"j.	c #D04433",
"k.	c #5F5F5F",
"l.	c #A8A7A7",
"m.	c #949393",
"n.	c #CD786E",
"o.	c #D53926",
"p.	c #B5B5B5",
"q.	c #B0B0B0",
"r.	c #969696",
"s.	c #A2A1A1",
"t.	c #F1F1F1",
"u.	c #9C9B9B",
"v.	c #9A9999",
"w.	c #878686",
"x.	c #D9A59F",
"y.	c #DD321D",
"z.	c #D1412F",
"A.	c #8A8A8A",
"B.	c #AAA9A9",
"C.	c #908F8F",
"D.	c #717070",
"E.	c #DBDBDB",
"F.	c #6E6D6D",
"G.	c #CB695C",
"H.	c #CB6357",
"I.	c #F9F9F9",
"J.	c #9B9B9B",
"K.	c #777676",
"L.	c #D0D0D0",
"M.	c #D8D8D8",
"N.	c #F0E0DE",
"O.	c #CE4838",
"P.	c #D5968E",
"Q.	c #707070",
"R.	c #C2C2C2",
"S.	c #D59B93",
"T.	c #D8A39D",
"U.	c #646363",
"V.	c #D2D2D2",
"W.	c #898888",
"X.	c #F1E1E0",
"Y.	c #DCAFAA",
"Z.	c #DDB1AC",
"`.	c #F5EBEA",
" +	c #D9D9D9",
".+	c #F2F2F2",
"++	c #E4E3E3",
"@+	c #9B9A9A",
"#+	c #6C6B6B",
"$+	c #939292",
"%+	c #D7D6D6",
"&+	c #EDEDED",
"*+	c #4176B4",
"=+	c #266EC3",
"-+	c #2B6CB9",
";+	c #525B66",
">+	c #858484",
",+	c #3070BC",
"'+	c #1D6FD0",
")+	c #226DC6",
"!+	c #515B67",
"~+	c #989898",
"{+	c #4D5F76",
"]+	c #3370BA",
"^+	c #367CB9",
"/+	c #9DB15B",
"(+	c #E9D914",
"_+	c #F5DF09",
":+	c #EAD914",
"<+	c #A0B357",
"[+	c #377CB8",
"}+	c #266CBF",
"|+	c #57595C",
"1+	c #4E5C6F",
"2+	c #3471BA",
"3+	c #3B73B7",
"4+	c #2F78C0",
"5+	c #C4C537",
"6+	c #FCE302",
"7+	c #C8C833",
"8+	c #96AE60",
"9+	c #C6C734",
"0+	c #C5C636",
"a+	c #3079BF",
"b+	c #3466A2",
"c+	c #2A6AB5",
"d+	c #3C74B6",
"e+	c #507DB2",
"f+	c #9CB15B",
"g+	c #FFE400",
"h+	c #99AF5E",
"i+	c #347BBB",
"j+	c #2B76C3",
"k+	c #98AF5F",
"l+	c #9EB25A",
"m+	c #1E6FCF",
"n+	c #4779B3",
"o+	c #7D97B6",
"p+	c #2E78C1",
"q+	c #EFDC0F",
"r+	c #DED31E",
"s+	c #DFD31D",
"t+	c #4B7AB3",
"u+	c #C4C3C3",
"v+	c #216ECA",
"w+	c #2674C8",
"x+	c #B5BE44",
"y+	c #B7BF42",
"z+	c #FDE302",
"A+	c #708EB4",
"B+	c #C6C6C6",
"C+	c #4C7BB3",
"D+	c #568C9C",
"E+	c #C5C635",
"F+	c #5089A2",
"G+	c #4E88A3",
"H+	c #C7C733",
"I+	c #FBE204",
"J+	c #558C9D",
"K+	c #226EC7",
"L+	c #A9A9A9",
"M+	c #8DA1BA",
"N+	c #F1DD0D",
"O+	c #CDCA2E",
"P+	c #CECB2D",
"Q+	c #CCC92F",
"R+	c #C1C439",
"S+	c #5A82B2",
"T+	c #888787",
"U+	c #CDCECF",
"V+	c #1F6ECC",
"W+	c #F3DE0B",
"X+	c #B0B9C4",
"Y+	c #AAAAAA",
"Z+	c #3F75B5",
"`+	c #E4D618",
" @	c #E2D51B",
".@	c #E8E8E8",
"+@	c #ADACAC",
"@@	c #BDC1C8",
"#@	c #BDC2C9",
"$@	c #6B8BB3",
"%@	c #6E6E6E",
"&@	c #706F6F",
"*@	c #909090",
"=@	c #E7D816",
"-@	c #5580B2",
";@	c #E5D718",
">@	c #F9E106",
",@	c #CAC9C9",
"'@	c #8FA2B9",
")@	c #256EC4",
"!@	c #6A6969",
"~@	c #226EC9",
"{@	c #CCCBCB",
"]@	c #B8B8B8",
"^@	c #7A95B5",
"/@	c #246EC5",
"(@	c #3772B8",
"_@	c #6F8EB3",
":@	c #BBBABA",
"<@	c #9E9D9D",
"[@	c #B7B6B6",
"}@	c #B9B8B8",
"|@	c #727171",
"1@	c #ABABAB",
"2@	c #D4D4D4",
"3@	c #E9E9E9",
"4@	c #D5D5D5",
"5@	c #ACABAB",
"6@	c #A5A5A5",
"7@	c #C1C0C0",
"8@	c #606060",
". . . . . . . . . . . . . . . . . . . . . . . . . . . . . . . . . . . . . . . . . . . . . . . . ",
". . . . . . . . . . . . . . . . . . . . . . . . . . . . . . . . . . + @ # . . . . . . . . . . . ",
". . . . . . . . . . . . . . . . . . $ % & * = = = = * & % $ . . . + - - - ; . . . . . . . . . . ",
". . . . . . . . . . . . . . . . > - - - - - - - - - - - - - - > , ' - ) ! - * . . . . . . . . . ",
". . . . . . . . . . . . . . . > - ' ~ { ] ^ / ( ( / _ : < ~ ' - - - [ } | 1 - * . . . . . . . . ",
". . . . . . . . . . . . . > - - = 2 3 4 5 6 7 7 7 7 6 8 4 9 ! - - [ 0 7 7 a 1 - b . . . . . . . ",
". . . . . . . . . . . . c - d e f 0 g 7 7 7 7 7 7 7 7 7 7 g h - i 0 7 7 7 7 j k - > . . . . . . ",
". . . . . . . . . . . d - l m n 7 7 7 g 7 g 0 o o 0 g g g p - c q 7 r } s t 7 u ' - . . . . . . ",
". . . . . . . . . . d - v w 7 7 7 x y z A 7 B d d B 7 p m C - * D E F } a G H I - * J # . . . . ",
". . . . . . . . . d - K L 7 7 7 M N O P A 0 Q - - Q R Q - - - l S , T g U J V W c - - - c . . . ",
". . . . . . . . X - Y Z 7 7 g `  ...+.@.7 #.l - - l $.- %.&.*.=.d - -.7 s ;.- >.*.,.=.* - c . . ",
". . . . . . . > - , '.7 7 g ).!.....~.5 7 {.c - - ' - ].y 7 ( ^.- - /.7 (._.- c :.7 7 <.d - > . ",
". . . . . . . - = [.7 7 7 }.|.......1.p g 2.' - - - ].3.7 L 4.& 5.l [ 7 6.1 7.J 8.[.x 7 9.d - d ",
". . . . . . c - K R 7 7 0.a.......b.N 7 H c.- * - >.3.7 7 3.I L d.q 6.7 p 4 | 4 e.f.g.7 7 u 4.- ",
". . . . . > - * h.7 7 i.j.........O j 7 Z , - k.- l.7 7 7 A 7 7 7 7 7 7 7 7 7 7 7 6 6 7 7 5 m.- ",
". . . . . - ' G 6 7 g n...........o.D 7 p.J - % - 8.q.7 7 f e r.P s.9 7 t.[.u.v.w.v.0 7 3.K d - ",
". . . . . - * u 7 g x.y...........z.t 7 A.' - . c - ' ] 7 6 B.= - - C.7 d.8.- - D.E.7 U K - - > ",
". . . . + - F.d.7 A G.............H.I.7 F - > . . = - ' P 3.d.J.c - i 7 6.7.- K.L.U M.K - d . . ",
". . . . 7.- C.6 7 N.O.............P.7 7 ! - d d d d - - - , _.Q.p.~ F 7 3.d i R.c.5.& - d . . . ",
". . . . & - S 7 7 S...............T.7 5 U.- - - - - - - ! - - d ( V.W.g.E.< H _ - - - = . . . . ",
". . . . * - I 7 7 X.Y.Z.Z.Z.Z.Z.0.`.7 p 4  + + + + + +| t..+- d | 7 ( p R H 7 9 ' - - * . . . . ",
". . . . = - ++7 7 7 7 7 7 7 7 7 7 7 7 7 7 7 7 7 7 7 7 7 7 7 @+- w..+7 7 7 7 @.#+- $+- = . . . . ",
". . . . ' - R 7 7 7 7 7 7 7 7 7 7 7 7 7 7 7 7 7 7 7 7 7 7 7 } c.- w.8 7 7 %+1 - A.0 - ' . . . . ",
". . . . - - 6 7 &+*+=+=+=+=+=+=+=+=+=+=+=+=+=+=+=+=+=+=+=+=+=+-+;+- W.t.M.;.- >+7 g - - . . . . ",
". . . . - - 7 7 o ,+'+'+'+'+'+'+'+'+'+'+'+'+'+'+'+'+'+'+'+'+'+'+)+!+- ~+! - {+(.7 7 - - . . . . ",
". . . . - - g 7 (.]+'+'+'+'+'+'+'+'+'+'+^+/+(+_+_+:+<+[+'+'+'+'+'+}+|+- - 1+2+(.7 7 - - . . . . ",
". . . . - - } 7 &+3+'+'+'+'+'+'+'+'+'+4+5+6+7+8+8+9+6+0+a+'+'+'+'+'+}+b+c+'+d+&+7 A - - . . . . ",
". . . . ' - &+7 .+e+'+'+'+'+'+'+'+'+'+f+g+h+i+j+j+i+k+g+l+m+'+'+'+'+'+'+'+'+n+t.7 8 - ' . . . . ",
". . . . d - | 7 p o+'+'+'+'+'+'+'+'+p+q+r+p+'+'+'+'+p+s+q+a+'+'+'+'+'+'+'+'+t+.+7 q - ; . . . . ",
". . . . c - u+7 7 L.v+'+'+'+'+'+'+'+w+g+x+'+'+'+'+'+'+y+z+w+'+'+'+'+'+'+'+'+A+} 7 B+- X . . . . ",
". . . . J - [.7 7 t.C+'+'+'+'+'+'+'+D+g+E+F+F+F+F+F+G+H+I+J+'+'+'+'+'+'+'+K+V.7 7 L+- J . . . . ",
". . . . l - >+I.7 6 M+'+'+'+'+'+'+'+5+g+N+O+P+P+P+P+Q+N+z+R+'+'+'+'+'+'+'+S+0 7 p T+- % . . . . ",
". . . . $ - _.Z 7 7 U+V+'+'+'+'+'+'+W+g+g+g+g+g+g+g+g+g+g+N+'+'+'+'+'+'+'+X+g 7 | ~ - $ . . . . ",
". . . . . - d Y+7 7 ( Z+'+'+'+'+'+'+`+g+g+g+g+g+g+g+g+g+g+ @'+'+'+'+'+'+d+.@7 7 +@d - . . . . . ",
". . . . . > - Y t.7 7 @@v+'+'+'+'+'+`+g+g+g+g+g+g+g+g+g+g+ @'+'+'+'+'+v+#@7 7 H v - > . . . . . ",
". . . . . . - = P 7 7 } $@'+'+'+'+'+`+g+g+g+g+g+g+g+g+g+g+ @'+'+'+'+'+$@} 7 7 :.d - . . . . . . ",
". . . . . . > - %@++7 7 5 n+'+'+'+'+`+g+g+g+g+g+g+g+g+g+g+ @'+'+'+'+n+5 7 7 U &@- > . . . . . . ",
". . . . . . . - ' *@7 7 7 y *+'+'+'+=@g+g+g+g+g+g+g+g+g+g+`+'+'+'+*+y 7 7 7 m.' - . . . . . . . ",
". . . . . . . > - c 9.7 7 7 U -@'+'+;@>@>@>@>@>@>@>@>@>@>@ @'+'+-@U 7 7 7 W c - > . . . . . . . ",
". . . . . . . . c - ~ ,@7 7 7 t.'@)@'+'+'+'+'+'+'+'+'+'+'+'+K+'@t.7 7 7 f !@- c . . . . . . . . ",
". . . . . . . . . * - F.E 7 7 7 p q n+'+'+'+'+'+'+'+'+'+~@C+L p 7 7 7 {@c.- * . . . . . . . . . ",
". . . . . . . . . . * - _.]@7 7 7 7 t.4 ^@/@'+'+V+(@_@X+(.t.7 7 7 7 :@~ - * . . . . . . . . . . ",
". . . . . . . . . . . X - & <@t 7 7 7 7 p R 5 5 5 0 p x 7 7 7 7 &+B & - * . . . . . . . . . . . ",
". . . . . . . . . . . . c - = D.[@(.x 7 7 7 7 7 7 7 7 7 7 x (.}@|@= - c . . . . . . . . . . . . ",
". . . . . . . . . . . . . > - - ' $.1@2@3@n g 7 7 g n 3@4@5@$.' - - > . . . . . . . . . . . . . ",
". . . . . . . . . . . . . . . > - - 8.Q 6@7@2@L L 2@7@6@! 7.' - > . . . . . . . . . . . . . . . ",
". . . . . . . . . . . . . . . . . c - - - - - - - - - - - - - > . . . . . . . . . . . . . . . . ",
". . . . . . . . . . . . . . . . . . $ # 8@c b d d b c 8@# $ . . . . . . . . . . . . . . . . . . "};
