/* XPM */
static char *buttonDrag[] = {
/* columns rows colors chars-per-pixel */
"48 48 97 2",
"   c #000000",
".  c #0D0D0D",
"X  c #161616",
"o  c #1C1C1C",
"O  c #070738",
"+  c #0B0B35",
"@  c #14142C",
"#  c #1D1D20",
"$  c #131333",
"%  c #1A1A34",
"&  c #222222",
"*  c #2C2C2D",
"=  c #272735",
"-  c #2C2C33",
";  c #343434",
":  c #3C3C3C",
">  c #050555",
",  c #0C0C54",
"<  c #121258",
"1  c #07076C",
"2  c #0B0B63",
"3  c #0A0A77",
"4  c #0E0E7B",
"5  c #101077",
"6  c #212140",
"7  c #232353",
"8  c #373741",
"9  c #38384E",
"0  c #323258",
"q  c #2F2F6C",
"w  c #25257D",
"e  c #2D2D78",
"r  c #444444",
"t  c #45454F",
"y  c #4B4B4B",
"u  c #444454",
"i  c #42425B",
"p  c #4D4D50",
"a  c #545454",
"s  c #595957",
"d  c #5B5B5B",
"f  c #4D4D72",
"g  c #5F5F63",
"h  c #656565",
"j  c #6B6B6B",
"k  c #747474",
"l  c #7C7C7C",
"z  c #101081",
"x  c #151589",
"c  c #1A1A8C",
"v  c #1F1F92",
"b  c #202080",
"n  c #21218F",
"m  c #232394",
"M  c #2B2B9B",
"N  c #30309E",
"B  c #3434A2",
"V  c #3B3BA7",
"C  c #3B3BA9",
"Z  c #434392",
"A  c #5A5A8D",
"S  c #4242AE",
"D  c #4A4AB4",
"F  c #4E4EB8",
"G  c #5454BC",
"H  c #5B5BB3",
"J  c #5858BE",
"K  c #616196",
"L  c #6262A6",
"P  c #6666B8",
"I  c #7272B2",
"U  c #5C5CC3",
"Y  c #6161C3",
"T  c #6464C9",
"R  c #6868CC",
"E  c #6F6FD3",
"W  c #7373D3",
"Q  c #848484",
"!  c #898987",
"~  c #8C8C8C",
"^  c #949494",
"/  c #9C9C9C",
"(  c #A4A4A4",
")  c #A8A8A7",
"_  c #ABABAB",
"`  c #B3B3B3",
"'  c #BBBBBB",
"]  c #8383E3",
"[  c #9595F2",
"{  c #A1A1FC",
"}  c #C4C4C4",
"|  c #CCCCCC",
" . c #D3D3D3",
".. c #DBDBDB",
"X. c #E2E2E2",
"o. c #EBEBEB",
"O. c #F5F5F5",
/* pixels */
"h h h h h h h h h h h h h h h h h h h h h h h h h h h h h h h h h h h h h h h h h h h h h h h h ",
"h h h h h h h h h h h h h h h h h h h h h h h h h h h h h h h h h h h h h h h h h h h h h h h h ",
"h h h h h h h h h h h h h h h h h h h h h h h h h h h j h h h h h h h h h h h h h h h h h h h h ",
"h h h h h h h h h h h h h h h h h h s y ; ; * ; * ; : y d h h h h h h h h h h h h h h h h h h h ",
"h h h h h h h h h h h h h h h h y ; ; : a d h j r : s : ; ; s h h h h h h h h h h h h h h h h h ",
"h h h h h h h h h h h h h h a * # a j k l l Q ! j y ~ ! k a * : d h h h h h h h h h h h h h h h ",
"h h h h h h h h h h h h h r @ , = k K ! ! ! ! ~ Q r ^ ~ ! ! k y * y h h h h h h h h h j h h h h ",
"h h h h h h h h h h h h : + 4 v 6 k ~ ~ ! ^ ^ / ^ r ~ / ^ ~ ! ! j * r h h h h h h h h h h h h h ",
"h h h h h h h h h h h : O 4 v B 7 j ^ ^ / / ( ( ) s Q ) / / ^ ~ ~ k ; : h h h h h h h h h h h h ",
"h h h h h h h h h h y + 3 v M S q g / ( ( ( ) _ ` k j ` ) ( ( ^ ^ ~ Q : : h h h h h h h h h h h ",
"h h h h h h h h h s @ 1 v m V F Z s ) ) ) ` ` ' ' ~ h ' ` ` ) ( / ^ ^ l ; y h h h h h h h h h h ",
"h h h h h h h h h - > x m B D U H t _ ` ` ' ' } | ` s ' ' ` ` _ ) ( / / l * d h h h h h h h h h ",
"h h h h h h h h y + z m B S U R W u ) } } } | |  .| d ` | | ' ' ) / Q h p & ; j h h h h h h h h ",
"h h h h h h h h - 2 m B S G E W ] f / | |  . . ...X.k ( ' / l d y r r a h j : h j h h h h h h h ",
"h h h h h h h s $ c M C D Y W W [ K ! ...... .} ) ~ y : a a h k Q ~ ~ ~ ! Q d r j h h h h h h h ",
"h h h h h h h r < M V D U W ] [ { I d ( Q j s a d k Q ^ ( ( ( ( / / ^ ~ ~ Q l : j h h h h h h h ",
"h h h h h h h = w V D J P P L A f u r h k ~ / _ ` ` ` _ _ _ _ ( ( / / ^ ~ ! ! s a j h h h h h h ",
"h h h h h h s % w e q 0 0 t s k ! / _ ` ' ` ' ' ' ' ' ` ` ` _ _ ( ( / / ^ ~ ~ k : k h h h h h h ",
"h h h h h h a # 8 p h l ~ / ) _ _ ` ` ' ' } ' } ' ' } ' ' ` ` ` ) ) ( / / ^ ~ ! r j j h h h h h ",
"h h h h h h r y ! ~ ^ / / ( _ _ ` ' ' _ k ` | } } | } } } ' ' ` ` _ ( ( / ^ ^ ~ s d j h h h h h ",
"h h h h h h r s ~ ~ / / ( ) _ ` ` } _ r   r `  .| | | | } } ' ' ` ` _ ( ( / ^ ^ j a k h h h h h ",
"h h h h h h : d ^ ^ / / ( _ ` ` ' ( ;       ; `  . . .| | | } ' ' ` ` ) ( / ^ ~ l r k h h h h h ",
"h h h h h h : g ^ ^ / ( _ _ ` ' ' k y o   # a Q  ..... . .| | } ' ` ` _ ( ( / ^ Q r l h h h h h ",
"h h h h h h : h ^ / / ( _ ` ` ' } }  .a   s ............ . .| } } ' ` _ ( ( ( ^ ! r l h h h h h ",
"h h h h h h r d ^ / / ) _ ` ' } } |  .s   s X.o.o.o.o....... .| } ' ` ` ) ( / ^ ~ r l j h h h h ",
"h h h h h h r s / / ( _ ` ( ` } | |  .s   s o.o.o.o...| .... .| | ' ' ` _ ( ( ^ ~ r l h h h h h ",
"h h h h h h a r ^ / ( _ ^ r ) } |  ...s   s o.O.O.O...s } .. .| | ' ' ` ` ( ( / ! y l h h h h h ",
"h h h h h h d ; ~ / ( / ; X ^ ` ` ' } y   a ....X...} o r } ..| | } ' ` _ ) ( ^ ! y Q h h h h h ",
"h h h h h h h ; l / / 8     X o o o # .   . & & & & o     y }  .| ' ' ` _ ( ( / k s l h h h h h ",
"h h h h h h h r d ( ^ &                                   * ' | | ' ' ` ` ) / ( h h k h h h h h ",
"h h h h h h h s : ^ ( Q o . k Q ! ~ ^ :   : ( ( ( ( ^ X o (  .| | ' ` ` _ ( / ^ a l j h h h h h ",
"h h h h h h h h ; k ( _ l * ( } |  . .s   s o.o.o.o.| ; / ..| | | ' ` ` ) ( ( ! r ! h h h h h h ",
"h h h h h h h h a r / ) _ ! _ ' } | | a   a ..X.X.X.| _  . .| } } ' ` _ _ ( / j g K h h h h h h ",
"h h h h h h h h h ; k ) _ _ ` ' ' } | a   a  ....... . . .| } } } ` ` _ ( / ^ y ! k h h h h h h ",
"h h h h h h h h h s : ^ ( _ ` ` ' } | s   a  . . . . .| | } } } ' ` _ _ ( / j s ! h h h h h h h ",
"h h h h h h h h h h 8 d ( _ _ ` ` ! l ;   ; Q ^ | | | | } } ' ' ` _ _ ) ( ^ r ! k h h h h h h h ",
"h h h h h h h h h h h : j _ _ _ ` K o       X Q } } } } } ` ' ` ` _ ) ( / s h ! h h h h h h h h ",
"h h h h h h h h h h h d ; k ( _ _ ` ! &   o ! } } } } ' ' ` ` _ _ ) ( / h a ~ j h h h h h h h h ",
"h h h h h h h h h h h h s : k ( _ _ ` ~ r ~ ' ` ` ' ` ' ` ` _ _ ) ( / j y ~ k h h h h h h h h h ",
"h h h h h h h h h h h h h d : h / ( _ _ _ ` ` ` ` _ ` _ _ _ _ ( ( / h y ! k h h h h h h h h h h ",
"h h h h h h h h h h h h h h h r y Q ( ( _ _ _ _ _ _ _ _ _ ( ( / ! a s ! k h h h h h h h h h h h ",
"h h h h h h h h h h h h h h h h s r s Q / ( _ ( ( ( ( ( ( / ~ h r k ^ j h h h h h h h h h h h h ",
"h h h h h h h h h h h h h h h h h j s r y g k Q ~ ~ ! l h a y h ! l j h h h h h h h h h h h h h ",
"h h h h h h h h h h h h h h h h h h j k j g s y y p p s h l ! l j h h h h h h h h h h h h h h h ",
"h h h h h h h h h h h h h h h h h h h h h j k k l l l l k k h h h h h h h h h h h h h h h h h h ",
"h h h h h h h h h h h h h h h h h h h h h h h h h h h h h h h h h h h h h h h h h h h h h h h h ",
"h h h h h h h h h h h h h h h h h h h h h h h h h h h h h h h h h h h h h h h h h h h h h h h h ",
"h h h h h h h h h h h h h h h h h h h h h h h h h h h h h j h h h h h h h h h h h h h h h h h h "
};
