/* XPM */
static const char *buttonNoClick[] = {
/* columns rows colors chars-per-pixel */
"48 48 84 1 ",
"  c #353535",
". c #3A3A3A",
"X c #3F3F3F",
"o c #414141",
"O c gray27",
"+ c gray28",
"@ c #494949",
"# c #4C4C4C",
"$ c #505050",
"% c #515151",
"& c #565656",
"* c gray35",
"= c #5B5B5B",
"- c gray37",
"; c #606060",
": c gray39",
"> c #646464",
", c gray40",
"< c gray42",
"1 c #6C6C6C",
"2 c #727272",
"3 c #777777",
"4 c #797979",
"5 c gray49",
"6 c red",
"7 c #FF0303",
"8 c #FF1010",
"9 c #FF1414",
"0 c #FF1717",
"q c #FF1C1C",
"w c #FF2020",
"e c #FF2828",
"r c #FF2D2D",
"t c #FF3333",
"y c #FF3434",
"u c #FF3A3A",
"i c #FF3F3F",
"p c #FF4747",
"a c #FF4E4E",
"s c #FF5D5D",
"d c #FF6666",
"f c #FF7272",
"g c gray51",
"h c #898989",
"j c #8E8E8E",
"k c #929292",
"l c gray59",
"z c #989898",
"x c #9D9D9D",
"c c gray64",
"v c #A7A7A7",
"b c gray67",
"n c #AEAEAE",
"m c #B1B1B1",
"M c #B4B4B4",
"N c #B7B7B7",
"B c gray72",
"V c gray75",
"C c #FF9F9F",
"Z c #FFA3A3",
"A c #C3C3C3",
"S c gray77",
"D c #CBCBCB",
"F c gray80",
"G c LightGray",
"H c #D5D5D5",
"J c #D7D7D7",
"K c gray86",
"L c gray87",
"P c #FFC7C7",
"I c #FFCFCF",
"U c #FFD2D2",
"Y c gray88",
"T c #E1E1E1",
"R c #E4E4E4",
"E c gray92",
"W c #ECECEC",
"Q c #EEEEEE",
"! c #FFE2E2",
"~ c gray94",
"^ c gray97",
"/ c #FBFBFB",
"( c gray99",
") c gray100",
/* pixels */
",,,,,,,,,,,,,,,,,,,,,,,,,,,,,,,,,,,,,,,,,,,,,,,,",
",,,,,,,,,,,,,,,,,,:&@oX..XO@&:,,,,,,,,,,,,,,,,,,",
",,,,,,,,,,,,,,,,@              @,,,,,,,,,,,,,,,,",
",,,,,,,,,,,,,,,@ .O2cALRRLAc2@  O,,,,,,,,,,,,,,,",
",,,,,,,,,,,,,O   ,nHE/)))))EKn,.  O<,,,,,,,,,,,,",
",,,,,,,,,,,,O .:A~)))))))))))/~A:. O,,,,,,,,,,,,",
",,,,,,,,,,,o oz~))))))~RR~))))))^xo o,,,,,,,,,,,",
",,,,,,,,,,X *A))))LK/)5,,5)^KL))))S* o,,,,,,,,,,",
",,,,,,,,,o -H)))Tl:x/~,,,,~/z,lT)))H- o,,,,,,,,,",
",,,,,,,,O &G)))V<,,F)D:,,:F)F,,<V)))H& O,,,,,,,,",
",,,,,,,@ OV)))c:,,<E)v:,,,c)E<,,:c)))AO @,,,,,,,",
",,,,,,,  k)))v:,,,4^)<,,,:1)^4,,,:v)))k  ,,,,,,,",
",,,,,,@ -~))V:,,,,k)~:,,,,:~)l,,,,:B))~- O,,,,,,",
",,,,,@ .B))R,,,,,:G)G:,,,,:G)F:,,,,<E))B. @,,,,,",
",,,,,  ,))/h,,,,,:T)z:,,,,:z)T,,,,,,g/))<  ,,,,,",
",,,,, .m))n:,,,,,<R)<,,,,,,<)E,,,,,,:v))m. ,,,,,",
",,,,- #T)/5,,,,,,4^),,,,,,,:^^5,,,,,,4/)T% -,,,,",
",,,,& 4/)T<,,,,,,c)):,,,,,,:L)b,,,,,,,K)/4 &,,,,",
",,,,# c))v<,,,,,,n)E:,,,,,,,M)M,<,,,,,j/)v @,,,,",
",,,,O S))TBBBBBBBE)/KFGGGFGHQ)QVBBBBBBK))D o,,,,",
",,,,X L))))))))))))))))))))))))))))))))))L X,,,,",
",,,,  ~))))))))))))))))))))))))))))))))))~  ,,,,",
",,,,  /)E<OO@OOOO@O@O@O@O@O@@OO@O@@OO@2E))  ,,,,",
",,,,  ))R&                            *R))  ,,,,",
",,,,  ))T& -:-:-:zBKLVj:vSTHBl:-:-::* *R))  ,,,,",
",,,,  ^)E: -,,,,v))))))T))))))x,,,,,* ,E)/  ,,,,",
",,,,. E)Q3 &,,,,F)sw9f!)Pp9ed)A,,,,,* 1Q)Q .,,,,",
",,,,X H))z O,,,,^)866uI)C866e)R,,,,,& 2~)H X,,,,",
",,,,O B))SX :,,,Q)q66iU)Z967y)T,,,,,O j^)B O,,,,",
",,,,# k))Q2 &,,,Q)q66iU)Z967y)T,,,,: XD))l %,,,,",
",,,,* </)/c @,,,Q)q66iU)Z966t)L,,,,% 5~)/1 *,,,,",
",,,,: OG))A. ,,,~)q66iU)Z066t)T,,,,X M))HO :,,,,",
",,,,,  z))T, O,,Q)q66pU)Z966t)T,,,O :T))z. ,,,,,",
",,,,,@ &Q))VX -,Q)q66iU)Z867t)T,,- XV))Q* O,,,,,",
",,,,,,  x))^h X:^)866uI)Z867e)R,:X h^))v. ,,,,,,",
",,,,,,@ #T))E1 XV)srwf!)Pawyd)S:X 1E))L% @,,,,,,",
",,,,,,,  3)))L< .A)))))T))))))4. ,L)))5  ,,,,,,,",
",,,,,,,O .b)))T4  ,KESz,bGWTM*  4T)))b. @,,,,,,,",
",,,,,,,,@ @V)))QcO .@*,,,*%O  XcQ)))V# @,,,,,,,,",
",,,,,,,,,O #V)))/K1    .    o3H/)))A@ O,,,,,,,,,",
",,,,,,,,,,o Ob))))QHlO  .-jmRQ))))n@ o,,,,,,,,,,",
",,,,,,,,,,,O XhR))))/~EEE~/)))))EhX O,,,,,,,,,,,",
",,,,,,,,,,,,O .%vR))))))))))))Rb%  O,,,,,,,,,,,,",
",,,,,,,,,,,,,@   &lDT^))))^RFz&   @,,,,,,,,,,,,,",
",,,,,,,,,,,,,,,@  X:kmDHHDmk:X  @,,,,,,,,,,,,,,,",
",,,,,,,,,,,,,,,,,O             @,,,,,,,,,,,,,,,,",
",,,,,,,,,,,,,,,,,,,*%@oXooO%-:,,,,,,,,,,,,,,,,,,",
",,,,,,,,,,,,,,,,,,,,,,,,,,,,,,,,,,,,,,,,,,,,,,,,"
};
