/* XPM */
static char * buttonShowMainWindow[] = {
"48 48 151 2",
"  	c None",
". 	c #666666",
"+ 	c #777777",
"@ 	c #AAAAAA",
"# 	c #EBEBEB",
"$ 	c #EFEFEF",
"% 	c #EDEDED",
"& 	c #D9D9D9",
"* 	c #535353",
"= 	c #353535",
"- 	c #4B4B4B",
"; 	c #727272",
"> 	c #B0B0B0",
", 	c #E7E7E7",
"' 	c #FFFFFF",
") 	c #7D7D7D",
"! 	c #5F5F5F",
"~ 	c #EAEAEA",
"{ 	c #434343",
"] 	c #3F3F3F",
"^ 	c #ECECEC",
"/ 	c #BDD5F1",
"( 	c #73A6E2",
"_ 	c #488BD9",
": 	c #4085D7",
"< 	c #4D8DDA",
"[ 	c #7DACE4",
"} 	c #CBDEF4",
"| 	c #E5EFFA",
"1 	c #5F99DE",
"2 	c #1D6FD0",
"3 	c #71A5E2",
"4 	c #F3F7FC",
"5 	c #E4EEF9",
"6 	c #3F84D7",
"7 	c #5291DB",
"8 	c #F2F7FC",
"9 	c #FCFDFE",
"0 	c #5693DC",
"a 	c #72A5E2",
"b 	c #B1CDEF",
"c 	c #CEE0F5",
"d 	c #5895DC",
"e 	c #78A9E3",
"f 	c #EFF5FC",
"g 	c #2F7AD4",
"h 	c #4689D8",
"i 	c #FDFEFF",
"j 	c #707070",
"k 	c #DEEAF8",
"l 	c #2071D1",
"m 	c #347ED5",
"n 	c #E9E9E9",
"o 	c #545454",
"p 	c #C8C8C8",
"q 	c #DFEBF8",
"r 	c #2172D1",
"s 	c #357ED5",
"t 	c #F3F8FD",
"u 	c #DADADA",
"v 	c #327DD4",
"w 	c #498BD9",
"x 	c #FEFEFF",
"y 	c #629BDE",
"z 	c #81AFE5",
"A 	c #2171D1",
"B 	c #D7E6F7",
"C 	c #669DDF",
"D 	c #83B0E5",
"E 	c #5190DB",
"F 	c #689FE0",
"G 	c #FAFCFE",
"H 	c #F4F8FD",
"I 	c #7AAAE3",
"J 	c #2272D1",
"K 	c #2977D3",
"L 	c #8CB6E7",
"M 	c #D5E4F6",
"N 	c #8FB8E8",
"O 	c #619ADE",
"P 	c #659DDF",
"Q 	c #99BEEA",
"R 	c #E0EBF9",
"S 	c #DAE7F7",
"T 	c #E4EDF9",
"U 	c #E6EFFA",
"V 	c #E7F0FA",
"W 	c #6CA1E0",
"X 	c #7EADE4",
"Y 	c #EEF4FB",
"Z 	c #2A77D3",
"` 	c #8DB6E7",
" .	c #E9F1FA",
"..	c #4A8CD9",
"+.	c #3E84D7",
"@.	c #B5D0F0",
"#.	c #FBFDFE",
"$.	c #A0C3EB",
"%.	c #317CD4",
"&.	c #6FA4E1",
"*.	c #F9FBFE",
"=.	c #5593DC",
"-.	c #4488D8",
";.	c #5B97DD",
">.	c #3981D6",
",.	c #84B1E5",
"'.	c #94BBE9",
").	c #C5DAF3",
"!.	c #EBF2FB",
"~.	c #2C79D3",
"{.	c #5391DB",
"].	c #A1C3EB",
"^.	c #1E70D0",
"/.	c #D4E3F6",
"(.	c #97BDE9",
"_.	c #4086D7",
":.	c #307BD4",
"<.	c #5995DD",
"[.	c #5A96DD",
"}.	c #5D98DD",
"|.	c #91B9E8",
"1.	c #4F8FDA",
"2.	c #F1F6FC",
"3.	c #DCE9F8",
"4.	c #6BA1E0",
"5.	c #2775D2",
"6.	c #AAC9ED",
"7.	c #7CABE4",
"8.	c #5C97DD",
"9.	c #4588D8",
"0.	c #337DD5",
"a.	c #3C83D6",
"b.	c #639CDF",
"c.	c #86B2E6",
"d.	c #B8D2F0",
"e.	c #EDF4FB",
"f.	c #DCDCDC",
"g.	c #CCCCCC",
"h.	c #FBFBFB",
"i.	c #AEAEAE",
"j.	c #7F7F7F",
"k.	c #BCBCBC",
"l.	c #F3F3F3",
"m.	c #FEFEFE",
"n.	c #FDFDFD",
"o.	c #EEEEEE",
"p.	c #A1A1A1",
"q.	c #6B6B6B",
"r.	c #676767",
"s.	c #747474",
"t.	c #6A6A6A",
". . . . . . . . . . . . . . . . . . . . . . . . . . . . . . . . . . . . . . . . . . . . . . . . ",
". . . . . . . . . . . . . . . . . . . . . . . . . . . . . . . . . . . . . . . . . . . . . . . . ",
". . . . . . . . . . . . . . . . . . . . . . . . . . . . . . . . . . . . . . . . . . . . . . . . ",
". . + @ # $ % % % % % % % % % % % % % % % % % % % % % % % % % % & * = = = = = = = = = = - ; . . ",
". . > , ' ' ' ' ' ' ' ' ' ' ' ' ' ' ' ' ' ' ' ' ' ' ' ' ' ' ' ' ) = = = = = = = = = = = = ! . . ",
". . ~ ' ' ' ' ' ' ' ' ' ' ' ' ' ' ' ' ' ' ' ' ' ' ' ' ' ' ' ' ' { = = = = = = = = = = = = ] . . ",
". . % ' ' ' ' ' ' ' ' ' ' ' ' ' ' ' ' ' ' ' ' ' ' ' ' ' ' ' ' ' = = ' ' ' ' ' ' ' ' ' ' = = . . ",
". . ^ ' ' ' ' ' ' ' ' ' ' ' ' ' ' ' ' ' ' ' ' ' ' ' ' ' ' ' ' ' = = ' ' ' ' ' ' ' ' ' ' = = . . ",
". . ^ ' ' ' ' ' ' ' ' ' ' ' ' ' ' ' ' ' ' ' ' ' ' ' ' ' ' ' ' ' = = ' ' ' ' ' ' ' ' ' ' = = . . ",
". . ^ ' ' ' ' ' ' ' ' ' ' ' ' ' / ( _ : < [ } ' ' ' ' ' ' ' ' ' = = ' = = = = = = = = ' = = . . ",
". . ^ ' ' ' ' ' ' ' ' ' ' ' | 1 2 2 2 2 2 2 2 3 4 ' ' ' ' ' ' ' = = ' = = = = = = = = ' = = . . ",
". . ^ ' ' ' ' ' ' ' ' ' ' 5 6 2 2 2 2 2 2 2 2 2 7 8 ' ' ' ' ' ' = = ' = = = = = = = = ' = = . . ",
". . ^ ' ' ' ' ' ' ' ' ' 9 0 2 2 2 2 2 2 2 2 2 2 2 a ' ' ' ' ' ' = = ' = = = = = = = = ' = = . . ",
". . ^ ' ' ' ' ' ' ' ' ' b 2 2 2 2 2 2 2 2 2 2 2 2 2 c ' ' ' ' ' = = ' ' ' ' ' ' ' ' ' ' = = . . ",
". . ^ ' ' ' ' ' ' ' ' ' d 2 2 2 2 2 2 2 2 2 2 2 2 2 e ' ' ' ' ' { = = = = = = = = = = = = ] . . ",
". . ^ ' ' ' ' ' ' ' ' f g 2 2 2 2 2 2 2 2 2 2 2 2 2 h i ' ' ' ' ) = = = = = = = = = = = = j . . ",
". . ^ ' ' ' ' ' ' ' ' k l 2 2 2 2 2 2 2 2 2 2 2 2 2 m 4 ' ' ' ' n o = = = = = = = = = = o p . . ",
". . ^ ' ' ' ' ' ' ' ' q r 2 2 2 2 2 2 2 2 2 2 2 2 2 s t ' ' ' ' ' ' ' ' ' ' ' ' ' ' ' ' ' u . . ",
". . ^ ' ' ' ' ' ' ' ' 8 v 2 2 2 2 2 2 2 2 2 2 2 2 2 w x ' ' ' ' ' ' ' ' ' ' ' ' ' ' ' ' ' u . . ",
". . ^ ' ' ' ' ' ' ' ' ' y 2 2 2 2 2 2 2 2 2 2 2 2 2 z ' ' ' ' ' ' ' ' ' ' ' ' ' ' ' ' ' ' u . . ",
". . ^ ' ' ' ' ' ' ' ' ' / 2 2 2 2 2 2 2 2 2 2 2 2 A B ' ' ' ' ' ' ' ' ' ' ' ' ' ' ' ' ' ' u . . ",
". . ^ ' ' ' ' ' ' ' ' ' ' C 2 2 2 2 2 2 2 2 2 2 2 D ' ' ' ' ' ' ' ' ' ' ' ' ' ' ' ' ' ' ' u . . ",
". . ^ ' ' ' ' ' ' ' ' ' ' f E 2 2 2 2 2 2 2 2 2 F G ' ' ' ' ' ' ' ' ' ' ' ' ' ' ' ' ' ' ' u . . ",
". . ^ ' ' ' ' ' ' ' ' ' ' ' H I J 2 2 2 2 2 K L i ' ' ' ' ' ' ' ' ' ' ' ' ' ' ' ' ' ' ' ' u . . ",
". . ^ ' ' ' ' ' ' ' ' ' ' ' ' ' M N O 7 P Q R ' ' ' ' ' ' ' ' ' ' ' ' ' ' ' ' ' ' ' ' ' ' u . . ",
". . ^ ' ' ' ' ' ' ' ' ' ' S T ' ' ' ' ' ' ' ' ' U V ' ' ' ' ' ' ' ' ' ' ' ' ' ' ' ' ' ' ' u . . ",
". . ^ ' ' ' ' ' ' ' ' f W A K X Y ' ' ' ' ' T ( K Z ` i ' ' ' ' ' ' ' ' ' ' ' ' ' ' ' ' ' u . . ",
". . ^ ' ' ' ' ' ' '  ...2 2 2 2 +.@.#.' 4 $.%.2 2 2 2 &.9 ' ' ' ' ' ' ' ' ' ' ' ' ' ' ' ' u . . ",
". . ^ ' ' ' ' ' ' *.=.2 2 2 2 2 2 2 -.;.>.2 2 2 2 2 2 2 ,.' ' ' ' ' ' ' ' ' ' ' ' ' ' ' ' u . . ",
". . ^ ' ' ' ' ' ' '.2 2 2 2 2 2 2 2 2 2 2 2 2 2 2 2 2 2 2 ).' ' ' ' ' ' ' ' ' ' ' ' ' ' ' u . . ",
". . ^ ' ' ' ' ' !.~.2 2 2 2 2 2 2 2 2 2 2 2 2 2 2 2 2 2 2 {.i ' ' ' ' ' ' ' ' ' ' ' ' ' ' u . . ",
". . ^ ' ' ' ' ' ].2 2 2 2 2 2 2 2 2 2 2 2 2 2 2 2 2 2 2 2 ^./.' ' ' ' ' ' ' ' ' ' ' ' ' ' u . . ",
". . ^ ' ' ' ' ' y 2 2 2 2 2 2 2 2 2 2 2 2 2 2 2 2 2 2 2 2 2 (.' ' ' ' ' ' ' ' ' ' ' ' ' ' u . . ",
". . ^ ' ' ' ' ' _.2 2 2 2 2 2 2 2 2 2 2 2 2 2 2 2 2 2 2 2 2 &.' ' ' ' ' ' ' ' ' ' ' ' ' ' u . . ",
". . ^ ' ' ' ' ' :.2 2 2 2 2 2 2 2 2 2 2 2 2 2 2 2 2 2 2 2 2 <.' ' ' ' ' ' ' ' ' ' ' ' ' ' u . . ",
". . ^ ' ' ' ' ' :.2 2 2 2 2 2 2 2 2 2 2 2 2 2 2 2 2 2 2 2 2 [.' ' ' ' ' ' ' ' ' ' ' ' ' ' u . . ",
". . ^ ' ' ' ' ' }.2 2 2 2 2 2 2 2 2 2 2 2 2 2 2 2 2 2 2 2 2 |.' ' ' ' ' ' ' ' ' ' ' ' ' ' u . . ",
". . ^ ' ' ' ' ' M :.2 2 2 2 2 2 2 2 2 2 2 2 2 2 2 2 2 2 2 1.2.' ' ' ' ' ' ' ' ' ' ' ' ' ' u . . ",
". . ^ ' ' ' ' ' ' 3.4.5.2 2 2 2 2 2 2 2 2 2 2 2 2 2 2 :.,.8 ' ' ' ' ' ' ' ' ' ' ' ' ' ' ' u . . ",
". . ^ ' ' ' ' ' ' ' ' R 6.7.8.9.>.0.v g 0.m a.w b.c.d.e.' ' ' ' ' ' ' ' ' ' ' ' ' ' ' ' ' u . . ",
". . ^ ' ' ' ' ' ' ' ' ' ' ' ' ' ' ' ' ' ' ' ' ' ' ' ' ' ' ' ' ' ' ' ' ' ' ' ' ' ' ' ' ' ' u . . ",
". . ^ ' ' ' ' ' ' ' ' ' ' ' ' ' ' ' ' ' ' ' ' ' ' ' ' ' ' ' ' ' ' ' ' ' ' ' ' ' ' ' ' ' ' u . . ",
". . ^ ' ' ' ' ' ' ' ' ' ' ' ' ' ' ' ' ' ' ' ' ' ' ' ' ' ' ' ' ' ' ' ' ' ' ' ' ' ' ' ' ' ' f.. . ",
". . g.h.' ' ' ' ' ' ' ' ' ' ' ' ' ' ' ' ' ' ' ' ' ' ' ' ' ' ' ' ' ' ' ' ' ' ' ' ' ' ' ' ~ i.. . ",
". . j.k.l.m.m.m.m.m.m.' m.m.m.m.m.m.m.m.m.m.' ' m.m.m.m.' ' ' ' ' ' m.m.m.m.' m.m.m.n.o.p.q.. . ",
". . r.s.. . . . . . . . . . . . . . . . . . . . . . . . . . . . . . . . . . . . . . . . t.. . . ",
". . . . . . . . . . . . . . . . . . . . . . . . . . . . . . . . . . . . . . . . . . . . . . . . ",
". . . . . . . . . . . . . . . . . . . . . . . . . . . . . . . . . . . . . . . . . . . . . . . . "};
