/* XPM */
static char * buttonLeftLocked[] = {
"48 48 257 2",
"  	c None",
". 	c #666666",
"+ 	c #656565",
"@ 	c #626262",
"# 	c #5F5E5E",
"$ 	c #5D5C5C",
"% 	c #5B5A5A",
"& 	c #5E5E5E",
"* 	c #595858",
"= 	c #5A5959",
"- 	c #696868",
"; 	c #8C8B8B",
"> 	c #B3B2B2",
", 	c #CECDCD",
"' 	c #E1E1E1",
") 	c #EAE9E9",
"! 	c #CECECE",
"~ 	c #B3B3B3",
"{ 	c #8C8C8C",
"] 	c #818181",
"^ 	c #BDBCBC",
"/ 	c #DEDEDE",
"( 	c #EFEFEF",
"_ 	c #FCFCFC",
": 	c #FFFFFF",
"< 	c #F0F0F0",
"[ 	c #BDBDBD",
"} 	c #828181",
"| 	c #5E5D5D",
"1 	c #5C5B5B",
"2 	c #7D7D7D",
"3 	c #CCCCCC",
"4 	c #F5F5F5",
"5 	c #FEFEFE",
"6 	c #7F7F7F",
"7 	c #636262",
"8 	c #ACACAC",
"9 	c #F6F6F6",
"0 	c #EAEAEA",
"a 	c #F8F8F8",
"b 	c #AFAEAE",
"c 	c #767575",
"d 	c #CDCDCD",
"e 	c #FDFDFD",
"f 	c #E5E5E5",
"g 	c #E2E2E2",
"h 	c #FBFBFB",
"i 	c #A09F9F",
"j 	c #FAFAFA",
"k 	c #E0E0E0",
"l 	c #CFCFCF",
"m 	c #777676",
"n 	c #7B7A7A",
"o 	c #DDDDDD",
"p 	c #F0DFDD",
"q 	c #D0877E",
"r 	c #DF311B",
"s 	c #AEAEAE",
"t 	c #7D7C7C",
"u 	c #ADACAC",
"v 	c #686767",
"w 	c #C1C0C0",
"x 	c #7C7B7B",
"y 	c #5D5D5D",
"z 	c #747474",
"A 	c #DBDADA",
"B 	c #DFB8B3",
"C 	c #CD4B3B",
"D 	c #EB2B13",
"E 	c #E82C15",
"F 	c #D6D6D6",
"G 	c #D5D4D4",
"H 	c #D5D5D5",
"I 	c #8F8E8E",
"J 	c #DCDCDC",
"K 	c #757474",
"L 	c #656464",
"M 	c #CACACA",
"N 	c #D59991",
"O 	c #DB331E",
"P 	c #CF4635",
"Q 	c #B4B4B4",
"R 	c #898888",
"S 	c #6E6E6E",
"T 	c #CBCBCB",
"U 	c #676666",
"V 	c #A6A5A5",
"W 	c #D69D96",
"X 	c #DE311C",
"Y 	c #CB6255",
"Z 	c #8D8C8C",
"` 	c #8E8D8D",
" .	c #F9F9F9",
"..	c #A4A3A3",
"+.	c #6A6969",
"@.	c #A7A7A7",
"#.	c #F3F3F3",
"$.	c #DEB6B1",
"%.	c #D93621",
"&.	c #E92C14",
"*.	c #F4F4F4",
"=.	c #6F6E6E",
"-.	c #C0BFBF",
";.	c #727272",
">.	c #DBDBDB",
",.	c #C5C5C5",
"'.	c #F1E2E1",
").	c #D04433",
"!.	c #D9D8D8",
"~.	c #D9D9D9",
"{.	c #5C5C5C",
"].	c #878686",
"^.	c #C6C6C6",
"/.	c #CD786E",
"(.	c #D53926",
"_.	c #E7E7E7",
":.	c #B5B5B5",
"<.	c #605F5F",
"[.	c #E8E8E8",
"}.	c #636363",
"|.	c #AEADAD",
"1.	c #858484",
"2.	c #BFBEBE",
"3.	c #D9A59F",
"4.	c #DD321D",
"5.	c #D1412F",
"6.	c #ECECEC",
"7.	c #8A8A8A",
"8.	c #EEEEEE",
"9.	c #646363",
"0.	c #646464",
"a.	c #6E6D6D",
"b.	c #E6E6E6",
"c.	c #CB695C",
"d.	c #CB6357",
"e.	c #818080",
"f.	c #727171",
"g.	c #ABABAB",
"h.	c #A8A7A7",
"i.	c #706F6F",
"j.	c #626161",
"k.	c #908F8F",
"l.	c #F0E0DE",
"m.	c #CE4838",
"n.	c #D5968E",
"o.	c #7E7D7D",
"p.	c #6D6C6C",
"q.	c #E4E3E3",
"r.	c #D0D0D0",
"s.	c #929191",
"t.	c #B2B1B1",
"u.	c #D59B93",
"v.	c #D8A39D",
"w.	c #C6C5C5",
"x.	c #B8B8B8",
"y.	c #F1E1E0",
"z.	c #DCAFAA",
"A.	c #DDB1AC",
"B.	c #F5EBEA",
"C.	c #F1F1F1",
"D.	c #F7F7F7",
"E.	c #D1D1D1",
"F.	c #EDEDED",
"G.	c #838282",
"H.	c #888787",
"I.	c #747373",
"J.	c #EBEBEB",
"K.	c #76735A",
"L.	c #BCAD2C",
"M.	c #F0D80A",
"N.	c #F8DF04",
"O.	c #F1D80A",
"P.	c #BEAF2A",
"Q.	c #77735A",
"R.	c #787777",
"S.	c #72705E",
"T.	c #D7C31B",
"U.	c #FDE301",
"V.	c #DAC519",
"W.	c #B8AA2F",
"X.	c #D9C41A",
"Y.	c #D7C31A",
"Z.	c #73705E",
"`.	c #F2F2F2",
" +	c #BCAD2D",
".+	c #FFE400",
"++	c #BAAB2E",
"@+	c #76735C",
"#+	c #706E60",
"$+	c #B9AB2E",
"%+	c #BDAE2C",
"&+	c #AAAAAA",
"*+	c #716F5E",
"=+	c #F4DB07",
"-+	c #E9D20F",
";+	c #E9D20E",
">+	c #8B8A8A",
",+	c #DFDFDF",
"'+	c #5B5B5B",
")+	c #C4C3C3",
"!+	c #6C6B62",
"~+	c #CDBB21",
"{+	c #CEBC20",
"]+	c #FEE301",
"^+	c #A3A2A2",
"/+	c #8C864C",
"(+	c #D8C41A",
"_+	c #88824F",
":+	c #878150",
"<+	c #D9C519",
"[+	c #FCE202",
"}+	c #8C854D",
"|+	c #D2D2D2",
"1+	c #A9A9A9",
"2+	c #B2B2B2",
"3+	c #F5DC06",
"4+	c #DDC816",
"5+	c #DEC916",
"6+	c #DCC717",
"7+	c #D5C11C",
"8+	c #616060",
"9+	c #959494",
"0+	c #F7DE05",
"a+	c #C2C2C2",
"b+	c #EDD50C",
"c+	c #EBD40D",
"d+	c #7F7E7E",
"e+	c #C8C7C7",
"f+	c #C8C8C8",
"g+	c #B1B0B0",
"h+	c #E6E5E5",
"i+	c #909090",
"j+	c #EFD70B",
"k+	c #949393",
"l+	c #B7B7B7",
"m+	c #929292",
"n+	c #EDD50B",
"o+	c #FBE103",
"p+	c #EAD30C",
"q+	c #B9B9B9",
"r+	c #CAC9C9",
"s+	c #606060",
"t+	c #616161",
"u+	c #CCCBCB",
"v+	c #A8A8A8",
"w+	c #7A7979",
"x+	c #A2A1A1",
"y+	c #BBBABA",
"z+	c #9E9D9D",
"A+	c #717070",
"B+	c #B7B6B6",
"C+	c #B9B8B8",
"D+	c #737272",
"E+	c #D4D4D4",
"F+	c #E9E9E9",
"G+	c #ACABAB",
"H+	c #A5A5A5",
". . . . . . . . . . . . . . . . . . . . . . . . . . . . . . . . . . . . . . . . . . . . . . . . ",
". . . . . . . . . . . . . . . . . . . . . . . . . . . . . . . . . . . . . . . . . . . . . . . . ",
". . . . . . . . . . . . . . . . . . + @ # $ % % % % $ # @ + . . . . . . . . . . . . . . . . . . ",
". . . . . . . . . . . . . . . . & * * * * * * * * * * * * * * & . . . . . . . . . . . . . . . . ",
". . . . . . . . . . . . . . . & * = - ; > , ' ) ) ' ! ~ { - = * & . . . . . . . . . . . . . . . ",
". . . . . . . . . . . . . & * * % ] ^ / ( _ : : : : _ < / [ } % * * & . . . . . . . . . . . . . ",
". . . . . . . . . . . . | * 1 2 3 4 5 : : : : : : : : : : 5 4 , 6 1 * | . . . . . . . . . . . . ",
". . . . . . . . . . . 1 * 7 8 9 : : : 5 : 5 4 0 0 4 5 5 5 : : : a b 7 * 1 . . . . . . . . . . . ",
". . . . . . . . . . 1 * c d : : : e f g h : i 1 1 i : j k f e : : : l m * 1 . . . . . . . . . . ",
". . . . . . . . . 1 * n o : : : p q r s h 4 t * * t 4 h u v w < : : : / x * 1 . . . . . . . . . ",
". . . . . . . . y * z A : : 5 B C D E F : G 7 * * 7 G : H | * I J 5 : : J K * y . . . . . . . . ",
". . . . . . . & * L M : : 5 N O D D P ( : Q | * * | Q : ( R * * S M 5 : : T U * & . . . . . . . ",
". . . . . . . * % V : : : W X D D D Y j 5 Z = * * = ` :  ...* $ * +.d : : : @.% * . . . . . . . ",
". . . . . . | * n #.: : $.%.D D D &.q : *.=.* & & * S *.: -.1 * $ * ;.>.: : *.x * | . . . . . . ",
". . . . . & * $ ,.: : '.).D D D D r !.: A L * + + * L ~.: !.v * + {.* ].*.: : ^.| * & . . . . . ",
". . . . . * = } _ : 5 /.D D D D D (._.: :.<.* + + * # Q : [.n * }.+ % * |.j : _ 1.= * . . . . . ",
". . . . . * $ 2.: 5 3.4.D D D D D 5.6.: 7.= * . . * = ].: 8.].* @ . @ * 9.l 5 : w | * . . . . . ",
". . . . 0.* a.b.: h c.D D D D D D d. .: e.* & . . & * f.a j g.* & . . y * h.j : [.i.* 0.. . . . ",
". . . . j.* k._ : l.m.D D D D D D n.: : o.* 1 1 1 1 * p.q.: r.= * 1 1 1 * o.6.: _ s.* j.. . . . ",
". . . . # * t.: : u.D D D D D D D v.: ( 9.* * * * * * * w.: F * * * * * * * x._ : Q * # . . . . ",
". . . . $ * l : : y.z.A.A.A.A.A.$.B.: j / ~.~.~.~.~.~.J C.: D.o ~.~.~.~.~.!.6.5 : E.* $ . . . . ",
". . . . % * q.: : : : : : : : : : : : : : : : : : : : : : : : : : : : : : : : : : b.* % . . . . ",
". . . . = * #.: : : : : : : : : : : : : : : : : : : : : : : : : : : : : : : : : : 4 * = . . . . ",
". . . . * * _ : F.G.v v v v v v v v v v v v v v v v v v v v v v v v v v v v H.( : 5 * * . . . . ",
". . . . * * : : 0 I.* * * * * * * * * * * * * * * * * * * * * * * * * * * * c J.: : * * . . . . ",
". . . . * * 5 : J.c * 0.+ + + + + + + + K.L.M.N.N.O.P.Q.+ + + + + + + + 9.* R.J.: : * * . . . . ",
". . . . * * a : F.o.* }.. . . . . . . S.T.U.V.W.W.X.U.Y.Z.. . . . . . . }.* 6 F.: h * * . . . . ",
". . . . = * F.: `.I * j.. . . . . . .  +.+++@+#+#+@+$+.+%+U . . . . . . @ * H.C.: < * = . . . . ",
". . . . 1 * J : j &+* | . . . . . . *+=+-+*+. . . . *+;+=+Z.. . . . . . @ * >+`.: ,+* '+. . . . ",
". . . . | * )+: : r.<.* + . . . . . !+.+~+. . . . . . {+]+!+. . . . . . | * ^+a : ^.* y . . . . ",
". . . . <.* V : : C.; * @ . . . . . /+.+(+_+_+_+_+_+:+<+[+}+. . . . . 0.* j.|+: : 1+* <.. . . . ",
". . . . 7 * 1. .: _ 2+* | . . . . . T..+3+4+5+5+5+5+6+3+]+7+. . . . . 8+* 9+4 : j H.* @ . . . . ",
". . . . + * U A : : l | * . . . . . 0+.+.+.+.+.+.+.+.+.+.+3+. . . . . '+* a+5 : J - * + . . . . ",
". . . . . * 1 &+: : ) ] * | . . . . b+.+.+.+.+.+.+.+.+.+.+c+. . . . | * d+[.: : u 1 * . . . . . ",
". . . . . & * z C.: : e+<.* 9.. . . b+.+.+.+.+.+.+.+.+.+.+c+. . . 9.* <.f+: : *.c * & . . . . . ",
". . . . . . * % s : : a i * % + . . b+.+.+.+.+.+.+.+.+.+.+c+. . + % * i a : : g+1 * . . . . . . ",
". . . . . . & * S q.: : ( H.* % L . b+.+.+.+.+.+.+.+.+.+.+c+. L % * H.( : : h+i.* & . . . . . . ",
". . . . . . . * = i+: : : f G.* = @ j+.+.+.+.+.+.+.+.+.+.+b+@ = * G.f : : : k+= * . . . . . . . ",
". . . . . . . & * | l+: : : h+m+* * n+o+o+o+o+o+o+o+o+o+o+p+* * m+h+: : : q+| * & . . . . . . . ",
". . . . . . . . | * - r+: : : C.> U * % # }.. . . }.s+| * * j.> C.: : : 3 +.* | . . . . . . . . ",
". . . . . . . . . $ * a.T : : : j ,+H.* * * = = * * * * t+{ o j : : : u+=.* $ . . . . . . . . . ",
". . . . . . . . . . $ * U x.: : : : C./ v+L * * $ w+x+a+J.C.: : : : y+- * $ . . . . . . . . . . ",
". . . . . . . . . . . y * # z+6.: : : : j #.( ( ( 4 j e : : : : F.i # * $ . . . . . . . . . . . ",
". . . . . . . . . . . . | * % A+B+J.e : : : : : : : : : : e J.C+f.% * | . . . . . . . . . . . . ",
". . . . . . . . . . . . . & * * = D+g.E+F+9 5 : : 5 9 F+H G+D+= * * & . . . . . . . . . . . . . ",
". . . . . . . . . . . . . . . & * * 8+t H+w E+o o E+w H+o.j.= * & . . . . . . . . . . . . . . . ",
". . . . . . . . . . . . . . . . . | * * * * * * * * * * * * * & . . . . . . . . . . . . . . . . ",
". . . . . . . . . . . . . . . . . . + }.s+| {.1 1 {.| s+}.+ . . . . . . . . . . . . . . . . . . "};
