/* XPM */
static char *buttonHideMainWindow[] = {
/* columns rows colors chars-per-pixel */
"48 48 85 1",
"  c #353535",
". c #393939",
"X c #3B3B3B",
"o c #3C3C3C",
"O c #414141",
"+ c #454545",
"@ c #4B4B4B",
"# c #4E4E4E",
"$ c #505050",
"% c #5E5E5E",
"& c #606060",
"* c #666666",
"= c #686868",
"- c #7D7D7D",
"; c #1D6FD0",
": c #1E70D0",
"> c #1F70D0",
", c #2071D1",
"< c #2675D2",
"1 c #2A77D3",
"2 c #2C79D3",
"3 c #2E7AD4",
"4 c #307BD4",
"5 c #377FD5",
"6 c #3981D6",
"7 c #3E84D7",
"8 c #4086D7",
"9 c #4488D8",
"0 c #498BD9",
"q c #4A8CD9",
"w c #4E8EDA",
"e c #508FDB",
"r c #5090DB",
"t c #5693DC",
"y c #5A96DD",
"u c #5C97DD",
"i c #5F99DE",
"p c #669DDF",
"a c #689FE0",
"s c #6DA2E1",
"d c #71A5E2",
"f c #74A6E2",
"g c #78A9E3",
"h c #7EADE4",
"j c #838383",
"k c #83B0E5",
"l c #89B4E6",
"z c #8CB6E7",
"x c #93BAE9",
"c c #96BCE9",
"v c #99BEEA",
"b c #9FC2EB",
"n c #A0C3EB",
"m c #A2C4EC",
"M c #A7C7ED",
"N c #A8C8ED",
"B c #ACCAEE",
"V c #BAD3F1",
"C c #BDD5F1",
"Z c #CDCDCD",
"A c #C1D7F2",
"S c #C3D9F2",
"D c #C6DBF3",
"F c #CCDEF4",
"G c #D0E1F5",
"H c #D7E6F7",
"J c #DBE8F7",
"K c #DCE8F8",
"L c #DEEAF8",
"P c #E5E5E5",
"I c #E7E7E7",
"U c #EAEAEA",
"Y c #E0EBF9",
"T c #E3EDF9",
"R c #E4EDF9",
"E c #E9F1FA",
"W c #ECF3FB",
"Q c #EEF4FB",
"! c #F3F7FC",
"~ c #F7FAFD",
"^ c #F9F9F9",
"/ c #FBFBFB",
"( c #F8FAFE",
") c #FBFDFE",
"_ c #FFFFFF",
/* pixels */
"************************************************",
"************************************************",
"************************************************",
"**&$XXXXXXXXXXXXXXXXXXXXXXXXXXXXX           X%**",
"**#o                                         X**",
"**X =UIIIIIIIIIIIIIIIIIIIIIIIIIIO             **",
"**X I___________________________              **",
"**X I___________________________              **",
"**X P___________________________              **",
"**X P___________________________              **",
"**X P___________________________              **",
"**X P_______________FheqybE_____              **",
"**X I______________Vw1;;>5fE____  /^^^^^/^^^  **",
"**X I_____________M<;;;;;;;wT___  ^^^^^^/^^^  **",
"**X I____________F2;;;;;;;::p/__O             **",
"**X I___________~f;;;;;;;;:::A__-            X**",
"**X P___________L2;;;;;;;;;;;f__U$           O**",
"**X P___________D;;;;;;;;;;;;e_____________Z O**",
"**X P___________C;;;;;;;;;;;>9_____________Z O**",
"**X P___________G>;;;;;;;;;;;y_____________Z O**",
"**X P___________E9;;;;;;;;;;;z_____________Z O**",
"**X P____________c;;;;;;;;;;2L_____________Z O**",
"**X I____________Et;;;;;;;;,n______________Z O**",
"**X I_____________Ly;;;;;;1c_______________Z O**",
"**X P______________Qvy628fC________________Z O**",
"**X P_____________Q__EHGL)__~______________Z O**",
"**X P___________Tp6aL_____Bw9N_____________Z O**",
"**X P__________J9;;;5vE~Ga,>>,x____________Z O**",
"**X P_________!r>;;;;;69<;;;;;1N___________Z O**",
"**X P________~l;;;;;;;;;;;;;;;>7R__________Z O**",
"**X P________S6;;;;;;;;;;;;;;;>;c__________Z O**",
"**X P________g<;;;;;;;;;;;;;;;;;i__________Z O**",
"**X P________w;;;;;;;;;;;;;;;;;;7__________Z O**",
"**X P________6;;;;;;;;;;;;;;;;;;2__________Z O**",
"**X P________7;;;;;;;;;;;;;;;;;;2__________Z O**",
"**X P________h>;;;;;;;;;;;;;;;;;a__________Z O**",
"**X P________El4;;;;;;;;;;;;;;;tG__________Z O**",
"**X P__________Dkt5<;;;;;;,2qsmE___________Z O**",
"**X P______________________________________Z O**",
"**X P______________________________________Z O**",
"**X I______________________________________Z O**",
"**X I______________________________________Z O**",
"**X j//__/___//_/__//___/__________/_/____/= O**",
"**O                                         o#**",
"**%@X                                      X$***",
"***&********************************************",
"************************************************",
"************************************************"
};
