/* XPM */
static char * buttonMiddleDisabled[] = {
"48 48 151 2",
"  	c None",
". 	c #666666",
"+ 	c #656565",
"@ 	c #606060",
"# 	c #555454",
"$ 	c #474747",
"% 	c #3E3D3D",
"& 	c #373636",
"* 	c #343434",
"= 	c #474646",
"- 	c #545454",
"; 	c #444343",
"> 	c #2D2C2C",
", 	c #2D2D2D",
"' 	c #353434",
") 	c #464646",
"! 	c #5A5959",
"~ 	c #676767",
"{ 	c #717171",
"] 	c #757575",
"^ 	c #5A5A5A",
"/ 	c #2E2D2D",
"( 	c #414141",
"_ 	c #5F5E5E",
": 	c #6F6F6F",
"< 	c #787878",
"[ 	c #7E7E7E",
"} 	c #808080",
"| 	c #5F5F5F",
"1 	c #414040",
"2 	c #2E2E2E",
"3 	c #3F3F3F",
"4 	c #7B7B7B",
"5 	c #7F7F7F",
"6 	c #404040",
"7 	c #3B3A3A",
"8 	c #323131",
"9 	c #565656",
"0 	c #7C7C7C",
"a 	c #585757",
"b 	c #3A3939",
"c 	c #393838",
"d 	c #3B3B3B",
"e 	c #737373",
"f 	c #5F3A35",
"g 	c #74160B",
"h 	c #7D7D7D",
"i 	c #707070",
"j 	c #686868",
"k 	c #3C3B3B",
"l 	c #383838",
"m 	c #575757",
"n 	c #65221A",
"o 	c #76160A",
"p 	c #575656",
"q 	c #616060",
"r 	c #3E3E3E",
"s 	c #3A3A3A",
"t 	c #6E6D6D",
"u 	c #6E6E6E",
"v 	c #484747",
"w 	c #2F2F2F",
"x 	c #6B6B6B",
"y 	c #6B6A6A",
"z 	c #70180D",
"A 	c #403F3F",
"B 	c #333232",
"C 	c #373737",
"D 	c #454545",
"E 	c #72170B",
"F 	c #454444",
"G 	c #343333",
"H 	c #535353",
"I 	c #353535",
"J 	c #3D3C3C",
"K 	c #602C26",
"L 	c #75160A",
"M 	c #525252",
"N 	c #434343",
"O 	c #7A7A7A",
"P 	c #393939",
"Q 	c #3F3E3E",
"R 	c #6A1C13",
"S 	c #6A1C12",
"T 	c #434242",
"U 	c #2F2E2E",
"V 	c #636363",
"W 	c #797979",
"X 	c #6D6C6C",
"Y 	c #6F190E",
"Z 	c #6D6D6D",
"` 	c #616161",
" .	c #444444",
"..	c #5B5B5B",
"+.	c #646464",
"@.	c #3C3C3C",
"#.	c #747474",
"$.	c #604E4C",
"%.	c #72170C",
"&.	c #604D4A",
"*.	c #605F5F",
"=.	c #6A6969",
"-.	c #363535",
";.	c #545353",
">.	c #424242",
",.	c #767676",
"'.	c #612A24",
").	c #622821",
"!.	c #777777",
"~.	c #323232",
"{.	c #555555",
"].	c #4B4B4B",
"^.	c #63241D",
"/.	c #681D14",
"(.	c #5E5E5E",
"_.	c #484848",
":.	c #64231B",
"<.	c #6B1B11",
"[.	c #727272",
"}.	c #494949",
"|.	c #535252",
"1.	c #595959",
"2.	c #696969",
"3.	c #645F5F",
"4.	c #5C5C5C",
"5.	c #3D3D3D",
"6.	c #6C6C6C",
"7.	c #363636",
"8.	c #313030",
"9.	c #302F2F",
"0.	c #424141",
"a.	c #595858",
"b.	c #464545",
"c.	c #383737",
"d.	c #626262",
"e.	c #303030",
"f.	c #525151",
"g.	c #313131",
"h.	c #4B4A4A",
"i.	c #4F4F4F",
"j.	c #505050",
"k.	c #4A4A4A",
"l.	c #5D5D5D",
"m.	c #585858",
"n.	c #4D4C4C",
"o.	c #515151",
"p.	c #5E5D5D",
"q.	c #5C5B5B",
"r.	c #5D5C5C",
"s.	c #6A6A6A",
"t.	c #4C4B4B",
". . . . . . . . . . . . . . . . . . . . . . . . . . . . . . . . . . . . . . . . . . . . . . . . ",
". . . . . . . . . . . . . . . . . . . . . . . . . . . . . . . . . . . . . . . . . . . . . . . . ",
". . . . . . . . . . . . . . . . . + @ # $ % & * * & % = - @ + . . . . . . . . . . . . . . . . . ",
". . . . . . . . . . . . . . . . ; > > > > > > > > > > > > > > ; . . . . . . . . . . . . . . . . ",
". . . . . . . . . . . . . . + ; > , ' ) ! ~ { ] ] { ~ ^ ) ' , > ; + . . . . . . . . . . . . . . ",
". . . . . . . . . . . . . ; > > / ( _ : < [ } } } } [ < : | ( / > > ; . . . . . . . . . . . . . ",
". . . . . . . . . . . . 1 > 2 3 . 4 5 } } } } } } } } } } 5 4 ~ 6 2 > 1 . . . . . . . . . . . . ",
". . . . . . . . . . . 7 > 8 9 4 } } } 5 } 5 4 ] ] 4 5 5 5 } } } 0 a 8 > b . . . . . . . . . . . ",
". . . . . . . . . . c > d ~ } } } 5 e { [ } f g g f } h i e 5 } } } j k > l . . . . . . . . . . ",
". . . . . . . . . 7 > % : } } } < @ ' m [ 4 n o o n 4 [ p * q < } } } : r > 7 . . . . . . . . . ",
". . . . . . . . 6 > s t } } 5 u v > w x } y z o o z y } x w > v u 5 } } u 7 > A . . . . . . . . ",
". . . . . . . ; > B + } } 5 . C > > D < } ^ E o o E ^ } < F > > C + 5 } } . G > ; . . . . . . . ",
". . . . . . + > / H } } } ~ I > J > H h 5 K L o o L K } h M > J > I ~ } } } - / > + . . . . . . ",
". . . . . . N > % O } } u P > Q > 2 @ } O R o o o o S O } @ 2 > Q > P u } } O r > T . . . . . . ",
". . . . . ; > U V } } W ; > k @ > ' X } t Y o o o o Y Z } X * > ` k > ; O } } V w >  .. . . . . ",
". . . . + > , ( [ } 5 ..> ' +...> @.#.} $.%.o o o o %.&.} #.% > ^ +.' > m h } [ T , > . . . . . ",
". . . . +.> U *.} 5 =.-.> ;.. m > >.,.} '.o o o o o o ).} !.; > 9 . 9 > ~.j 5 } q w > +.. . . . ",
". . . . _ > C e } [ {.> r . . ].> H h } ^.o o o o o o /.0 h 9 > ; . . 1 > - h } #.l > (.. . . . ",
". . . . H > _.[ } W ) > b b b b > + } } :.o o o o o o <.[.} j , > b b b > 3 ,.} [ }.> |.. . . . ",
". . . . $ > 1.} } . > > > > > > > 2.} < z o o o o o o o 3.} x > > > > > > > 4.[ } ^ > ) . . . . ",
". . . . 5.> j } } W 6.Z Z Z Z Z u 4 } h : Z Z Z Z Z Z u W } 0 : Z Z Z Z Z X ,.5 } 2.> J . . . . ",
". . . . 7.> [.} } } } } } } } } } } } } } } } } } } } } } } } } } } } } } } } } } e > ' . . . . ",
". . . . 8.> O } } } } } } } } } } } } } } } } } } } } } } } } } } } } } } } } } } 4 > 9.. . . . ",
". . . . / > [ } !.0.* * * * * * * * * * * * * * * * * * * * * * * * * * * *  .< } 5 > > . . . . ",
". . . . > > } } ] s > > > > > > > > > > > > > > > > > > > > > > > > > > > > d ,.} } > > . . . . ",
". . . . > > 5 } ,.d > 4.` ` ` ` ` ` ` ` ` ` ` ` ` ` ` ` ` ` ` ` ` ` ` ` ..> @.,.} } > > . . . . ",
". . . . U > 0 } !.3 > 1.. . . . . . . . . . . . . . . . . . . . . . . . a.> 6 !.} [ > / . . . . ",
". . . . B > !.} W v > H . . . . . . . . . . . . . . . . . . . . . . . . 9 >  .W } < > 8 . . . . ",
". . . . c > u } h {.> >.. . . . . . . . . . . . . . . . . . . . . . . . # > b.W } i > c.. . . . ",
". . . . 1 > d.} } j e.> d.. . . . . . . . . . . . . . . . . . . . . . . ( > f.0 } V > 6 . . . . ",
". . . . ].> H } } W ) > # . . . . . . . . . . . . . . . . . . . . . . | > g.2.} } {.> h.. . . . ",
". . . . m > T h } [ 1.> T . . . . . . . . . . . . . . . . . . . . . . i.> h.4 } h  .> 9 . . . . ",
". . . . ` > G t } } j w > +.. . . . . . . . . . . . . . . . . . . . . c.> ` 5 } u ' > @ . . . . ",
". . . . + > 2 {.} } ] ( > 0.. . . . . . . . . . . . . . . . . . . . 0.> A #.} } p 2 > + . . . . ",
". . . . . ; > s W } } +.e.> ... . . . . . . . . . . . . . . . . . ..> e.+.} } O d > ; . . . . . ",
". . . . . + > / m } } 0 j.> * V . . . . . . . . . . . . . . . . V * > j.0 } } a.2 > + . . . . . ",
". . . . . . ; > C [.} } <  .> -.@ . . . . . . . . . . . . . . @ -.>  .< } } e l > ; . . . . . . ",
". . . . . . + > , _.} } } e 0.> 8.# . . . . . . . . . . . . # 8.> 0.e } } } k., > + . . . . . . ",
". . . . . . . ; > w 4.} } } e }.> > A V . . . . . . . . d.( > > }.e } } } l.w > ; . . . . . . . ",
". . . . . . . . T > ' + } } } W ! G > * b.m.. . +.^ n.( > > g.! W } } } . I > T . . . . . . . . ",
". . . . . . . . . Q > C . } } } h i  .> > > 8 8 > > > > g.) : h } } } . c.> Q . . . . . . . . . ",
". . . . . . . . . . 5.> G 4.} } } } W : - B > > U 5.o.` ,.W } } } } p.' > J . . . . . . . . . . ",
". . . . . . . . . . . A > 9.i.,.} } } } h O < < < 4 h 5 } } } } !.j.9.> Q . . . . . . . . . . . ",
". . . . . . . . . . . . >.> / c q.,.5 } } } } } } } } } } 5 ,.r.P / > >.. . . . . . . . . . . . ",
". . . . . . . . . . . . . ; > > , b 9 s.] 4 5 } } 5 4 ] x 9 b , > > ; . . . . . . . . . . . . . ",
". . . . . . . . . . . . . . + ; > > 8.Q H q s.: : s.q H 3 g., > ; + . . . . . . . . . . . . . . ",
". . . . . . . . . . . . . . . . + 0.> > > > > > > > > > > > >  .. . . . . . . . . . . . . . . . ",
". . . . . . . . . . . . . . . . . . V 1.t.>.k l l k >.t.1.V . . . . . . . . . . . . . . . . . . "};
