/* XPM */
static const char *buttonDblLeftSelectedLocked[] = {
/* columns rows colors chars-per-pixel */
"48 48 87 1 ",
"  c black",
". c #191919",
"X c #353535",
"o c #3D3D3D",
"O c #444444",
"+ c #4A4A4A",
"@ c #545454",
"# c #5B5B5B",
"$ c #666666",
"% c #6B6B6B",
"& c gray45",
"* c #7B7B7B",
"= c #FF0000",
"- c #F60F0F",
"; c #FC1414",
": c #FF1919",
"> c #FA2B2B",
", c #F93A3A",
"< c #F94444",
"1 c #FF4D4D",
"2 c #FF5252",
"3 c #ED6F6F",
"4 c #FC7272",
"5 c #FF7C7C",
"6 c #3B3BBF",
"7 c #4040BE",
"8 c #5454BA",
"9 c #5858BA",
"0 c #6565B9",
"q c #6868B9",
"w c #7A7AB9",
"e c #1E1ECE",
"r c #1616D6",
"t c #1A1AD3",
"y c #1313DA",
"u c #2D2DC6",
"i c #2424CB",
"p c #3333C3",
"a c #0707ED",
"s c #0909E9",
"d c #0404F2",
"f c #0000FF",
"g c #0A0AFF",
"h c #1313FF",
"j c #1B1BFF",
"k c #3737FF",
"l c #3A3AFF",
"z c #868686",
"x c #898989",
"c c #949494",
"v c #9A9A9A",
"b c #A3A3A3",
"n c #AAAAAA",
"m c #A1A1BD",
"M c #B4B4B4",
"N c #BBBBBB",
"B c #FF8383",
"V c #FF8F8F",
"C c #FF9191",
"Z c #FE9D9D",
"A c #FFA6A6",
"S c #FFAEAE",
"D c #FFB1B1",
"F c #FFBABA",
"G c #AFAFC0",
"H c #8B8BFF",
"J c #9292FF",
"K c #ADADFF",
"L c #BDBDFF",
"P c #C3C3C3",
"I c #CCCCCC",
"U c #D4D4D4",
"Y c #DCDCDC",
"T c #FFC3C3",
"R c #FFCBCB",
"E c #C3C3FF",
"W c #C8C8FF",
"Q c #DDDDFF",
"! c #E4E4E4",
"~ c #ECECEC",
"^ c #FFEBEB",
"/ c #E3E3FF",
"( c #EEEEFF",
") c #F3F3F3",
"_ c #FFF2F2",
"` c #F3F3FF",
"' c #FEFEFF",
/* pixels */
"$$$$$$$$$$$$$$$$$$$$$$$$$$$$$$$$$$$$$$$$$$$$$$$$",
"$$$$$$$$$$$*I)I&$$$@+OooXoO+@$$$$$$$$$$$$$$$$$$$",
"$$$$$$$$$$I''''I+XXXXXXXXXXXXXX+$$$$$$$$$$$$$$$%",
"$$$$$$$$&Y'^A;')XXO&bPY!~YPb&OXX+$$$$$$$$$$$$$$$",
"$$$$$$$&)'R2==''X$nY~''''''~Yn$XXX+$$$$$$$$$$$$$",
"$$$$$$&)'S:==<'UP)'''''''''''')P$XX+$$$$$$$$$$$$",
"$$$$$$!'FCTTBB''''''''~!!)'''''')vOXO$$$$$$%$$$$",
"$$$$$I'R^'''''''^5;3''*$$*''YY''''P#Xo$$$$$$$$$$",
"$$$$z'^A'noon''T===-')$$$$)'v$cY'''U$XO$$$$$$$$$",
"$$$%~'VT'o  o''====='I#$$$I'I$$$N'''U@XO$$$%$$$$",
"$$$c'F:T'o  o''B:==<'b$$$#b'~%$$$b'''POX+$$$$$$$",
"$$$I'5=B'noOn'''^:=4'$$$$$%''*$$$$b'''cXX$$$$$$$",
"$$&'^1=:^'''')@n'B=Z~$$$$$$)'c$$$$$N'')#X+$$$$$$",
"$$c'D===:B_'b. o'T;'U$$$$$$I'I$$$$$$~''NoX+$$$$%",
"$$&'^TTTTT_'o  O'T>'v$$$$$$v'!$$$$$$z)''%XX$$$$$",
"$$$I''''''''noon'B,'$$$$$$$$'~$$$$$$$n''MXX$$$$$",
"$$$$%$*!'Z2^''''^:4'$$$$$$$$)'*$$$$$$*)'!@X#$$$$",
"$$$$#X&'^==:BTTB:=S'$$$$$$$$Y'n$$$$$$$Y''*X@$$$$",
"$$$$+Xb'S=========F~$$$$$$$$M'M$$$$$$$x''bX+$$$$",
"$$$$OXP'^=========^'UIUUUUIU~')NMNNNNNY''PXO$$$$",
"$$$$oXY''^TTTTTTR_'''''''''''''''''''''''!Xo$$$$",
"$$$$XX)'''''''''''''''''''''''''''''''''')XX$$$$",
"$$$$XX''~issssssssssssssssssssssssssssu~''XX$$$$",
"$$$$XX''!yffffffffffffffffffffffffffffr!''XX$$$$",
"$$$$XX''!rffffffffffjJ/(`/Jjffffffffffr!''XX$$$$",
"$$$$oX)'~efffffffffhL'EHHE'Lhfffffffffe~''XX$$$$",
"$$$$XX~'~pfffffffffJ'HjhhjH'Jfffffffffu~'~XX$$$$",
"$$$$OXU''qffffffffh/QhffffhQ(hffffffffu)'YXO$$$$",
"$$$$OXM''Pdfffffffh'KffffffK'gffffffff9)'NXO$$$$",
"$$$$@Xc''~pfffffffl'LlllllkE'lfffffffaI''cX@$$$$",
"$$$$#X$'''wfffffffL'(WWWEWE('Lfffffff7)''%X@$$$$",
"$$$$#XOU''Pdffffff(''''''''''(fffffffm''UOX$$$$$",
"$$$$$XXv''!iffffff/''''''''''Qffffffi!''vXX$$$$$",
"$$$$$+X@~''Gdfffff/''''''''''QfffffdG'')#X+$$$$$",
"$$$$$$XXv'')8fffffQ''''''''''Qfffff8)''bXX$$$$$$",
"$+X@$$+X@Y''~uffff/''''''''''Qffffu~''!@X+$$+X+$",
"$XXX+$$XX*'''Yifff/''''''''''/fffiY'''*XX$$+XXo$",
"$XXXX+$+XXn'''!pff/'`'`'`'`''Qff6!'''nXX+$+XXXX$",
"$XXbXXO$+X+N'''~wsffffffffffffdw~'''P+XO$+XXbXX$",
"$XX'IYIx$OX+P''')YufffffffffdpU''''P@XO$zIUI'XX$",
"$XX'noOnx$OXOn''''~Y0affdt9m!~''''n+XO$znoon'XX$",
"$XX'o  oI+#OXoz~'''''~~~~~''''''~xoXO$+IO  o'XX$",
"$XX'O  o!X+$OXX@n!''''''''''''!n@XXO#+X!o  O'XX$",
"$XX'noon)zXO#+XXX@cI!)'''')!Iv@XXX+#OXx)noon'XX$",
"$XX'''''''xXX#$+XXo$cMIUUIMc$oXX+$#XXx)''''''XX$",
"$XXXXXXXXXXXXO$$$OXXXXXXXXXXXXX+$$OXXXXXXXXXXXX$",
"$+XXXXXXXXXXO#$$$$$#@OOoooO@#$$$$$#OXXXXXXXXXX+$",
"$$$$$$$$$$$$$$$$$$$$$$$$$$$$$$$$$$$$$$$$$$$$$$$$"
};
