/* XPM */
static char *buttonLeft[] = {
/* columns rows colors chars-per-pixel */
"48 48 94 2",
"   c #070738",
".  c #0B0B35",
"X  c #14142C",
"o  c #1D1D20",
"O  c #131333",
"+  c #1A1A34",
"@  c #242424",
"#  c #2D2D2D",
"$  c #272735",
"%  c #2C2C33",
"&  c #343434",
"*  c #3C3C3C",
"=  c #050555",
"-  c #0C0C54",
";  c #121258",
":  c #07076C",
">  c #0B0B63",
",  c #0A0A77",
"<  c #0E0E7B",
"1  c #101077",
"2  c #212140",
"3  c #232353",
"4  c #373741",
"5  c #38384E",
"6  c #323258",
"7  c #2F2F6C",
"8  c #25257D",
"9  c #2D2D78",
"0  c #444444",
"q  c #45454F",
"w  c #4B4B4B",
"e  c #444454",
"r  c #42425B",
"t  c #4D4D50",
"y  c #545454",
"u  c #595957",
"i  c #5B5B5B",
"p  c #4D4D72",
"a  c #5F5F63",
"s  c #656565",
"d  c #6B6B6B",
"f  c #747474",
"g  c #7C7C7C",
"h  c #101081",
"j  c #151589",
"k  c #1A1A8C",
"l  c #1F1F92",
"z  c #202080",
"x  c #21218F",
"c  c #232394",
"v  c #2B2B9B",
"b  c #30309E",
"n  c #3434A2",
"m  c #3B3BA7",
"M  c #3B3BA9",
"N  c #434392",
"B  c #5A5A8D",
"V  c #4242AE",
"C  c #4A4AB4",
"Z  c #4E4EB8",
"A  c #5454BC",
"S  c #5B5BB3",
"D  c #5858BE",
"F  c #616196",
"G  c #6262A6",
"H  c #6666B8",
"J  c #7272B2",
"K  c #5C5CC3",
"L  c #6161C3",
"P  c #6464C9",
"I  c #6868CC",
"U  c #6F6FD3",
"Y  c #7373D3",
"T  c #848484",
"R  c #898987",
"E  c #8C8C8C",
"W  c #949494",
"Q  c #9C9C9C",
"!  c #A4A4A4",
"~  c #A8A8A7",
"^  c #ABABAB",
"/  c #B4B4B4",
"(  c #BCBCBC",
")  c #8383E3",
"_  c #9595F2",
"`  c #A1A1FC",
"'  c #C3C3C3",
"]  c #CBCBCB",
"[  c #D3D3D3",
"{  c #DBDBDB",
"}  c #E3E3E3",
"|  c #ECECEC",
" . c #F3F3F3",
".. c #F9F9F9",
/* pixels */
"s s s s s s s s s s s s s s s s s s s s s s s s s s s s s s s s s s s s s s s s s s s s s s s s ",
"s s s s s s s s s s s s s s s s s s s s s s s s s s s s s s s s s s s s s s s s s s s s s s s s ",
"s s s s s s s s s s s s s s s s s s s s s s s s s s s s s s s s s s s s s s s s s s s s s s s s ",
"s s s s s s s s s s s s s s s s s s u w & & # & # & * w s s s s s s s s s s s s s s s s s s s s ",
"s s s s s s s s s s s s s s s s w & # * y i s d 0 * u * # * y s s s s s s s s s s s s s s s s s ",
"s s s s s s s s s s s s s s y # o u f g g g T R d w E R f y # * u s s s s s s s s s s s s s s s ",
"s s s s s s s s s s s s s 0 O - $ f g F R R R E T 0 W E R R f w # w s s s s s s s s s s s s s s ",
"s s s s s s s s s s s s * . 1 l 2 f R E E W W Q W 0 E Q W E R R s & 0 s s s s s s s s s s s s s ",
"s s s s s s s s s s s *   < l n 3 d W W Q Q ! ! ~ u T ~ Q Q W E E g & * s s s s s s s s s s s s ",
"s s s s s s s s s s w . , l v V 7 a Q ! ! ! ~ ~ / f d / ~ ! Q W E E F 0 0 s s s s s s s s s s s ",
"s s s s s s s s s u X : l c m Z N u ~ ~ ^ / / ( ( W i ( / / ~ ! Q Q E g & w s s s s s s s s s s ",
"s s s s s s s s s % = j c n C K S q ~ / / ( ( ' ] / u ( ( / / / ~ ! Q Q g # u s s s s s s s s s ",
"s s s s s s s s w . h c n V A I Y e ~ ' ' ' ] ] [ ] i / ] ' ' / ^ Q g s t @ * s s s s s s s s s ",
"s s s s s s s s % > c n V A P Y ) p Q ] ] ] [ { { } f Q ( Q g s w 0 w y s s * s s s s s s s s s ",
"s s s s s s s u O k v M C L Y ) _ F R { { { [ ' ~ W w 0 y y s f T R E E T T i 0 d s s s s s s s ",
"s s s s s s s 0 ; v m C K Y ) _ ` J i ! T s u y s d R W Q ~ ! Q Q Q Q E R R T 4 s d s s s s s s ",
"s s s s s s s $ 8 n C D L H G B p e 0 i f E Q ^ / / ^ / ^ ^ ~ ! ! Q Q W E E R u w d s s s s s s ",
"s s s s s s u + 8 9 7 6 5 e u f R ! ^ / / ( ( ( ( ( ( / / / ^ ^ ! ! Q Q W E E f 0 f s s s s s s ",
"s s s s s s w o 4 w s g E ! ! ^ ^ / / ( ( ( ( ' ( ( ' ( ( ( / ^ ^ ^ ! Q Q W E R 0 d s s s s s s ",
"s s s s s s 0 w R E W Q ! Q ^ ^ / / ( ( ' ' ' ' ] ' ' ' ( ( ( ( ^ ^ ~ ! Q W W E u a d s s s s s ",
"s s s s s s 0 u E E Q Q ! ~ ^ / ( ( ' ' ' ] ] ] ] ] ] ] ' ' ( ( / ^ ^ ! Q Q Q E d y f s s s s s ",
"s s s s s s * s E Q Q Q ~ ^ ^ ( ( ' ' ] ] [ [ [ [ [ [ ] ] ] ' ( ( / ^ ^ ! Q W W g 0 f s s s s s ",
"s s s s s s * s E W Q ! ^ ^ ^ ( ( ' ] ] [ { { { { { { [ [ ] ] ' ( ( / ^ ~ Q Q E T 0 g s s s s s ",
"s s s s s s * s W Q Q ! ^ ^ ( ( ' ] ] [ [ { { } { } { { [ [ ] ' ' ( / ^ ^ ! Q W R 0 g s s s s s ",
"s s s s s s 0 i W Q Q ~ ^ / ( ' ' ] [ { { } } | | } } { { [ [ ] ' ' / / ^ ! Q Q R w g s s s s s ",
"s s s s s d 0 y Q Q Q ^ ^ / ( ' ] ] [ { } } | | | | | } { { [ ] ' ( ( ^ ^ ! Q Q R w g s s s s s ",
"s s s s s s y 0 W Q ! ~ / ( ( ' ] [ { { } | |  ...| | | } { [ ] ' ' ( / ^ ~ Q Q R w g s s s s s ",
"s s s s s s i & E Q ! ^ ^ ( ( ' ] [ [ } } |  ....... .| } { [ ] ] ' ( / ^ ^ ! Q T w T s s s s s ",
"s s s s s s s & g ! ! ~ ^ ( ( ' ] [ [ { } | | ......| | } { [ [ ] ' ( / ^ ~ Q Q f u g s s s s s ",
"s s s s s s s 0 i Q ! ! ^ / ( ' ' [ [ } } | | .. . .| } } { [ ] ' ' / / ^ ~ Q Q s s f s s s s s ",
"s s s s s s s u 4 Q ! ~ ^ ( ( ' ] ] [ { } } | | | | | } { { [ ] ' ' ( / ^ ~ ! Q t g d s s s s s ",
"s s s s s s s s & f ! ~ ^ / ( ' ' ] [ { { } } } | | } { { [ [ ] ' ( ( ^ ^ ! Q E w R s s s s s s ",
"s s s s s s s d w w Q ! ^ / / ( ' ' ] [ { { } } { { { { [ [ ] ' ' ( / ^ ~ ! Q d a g s s s s s s ",
"s s s s s s s s s & f ! ^ ^ / ( ' ' ] ] [ [ [ { { { { [ [ ] ' ' ( ( / ^ ~ Q W w T d s s s s s s ",
"s s s s s s s s s y * W ! ^ / / ( ' ' ] ] ] [ [ [ [ [ ] ] ] ' ( ( / ^ ~ ! Q d u R s s s s s s s ",
"s s s s s s s s s s 0 u ! ~ ^ / / ( ( ' ] ] ] ] ] ] ] ] ' ' ( ( / / ^ ! ! E w T f s s s s s s s ",
"s s s s s s s s s s s & d ! ^ ^ / / ( ' ' ' ' ' ' ' ' ' ' ( ( / ^ ^ ~ ! Q u d T s s s s s s s s ",
"s s s s s s s s s s s s * f ! ^ ~ / / ( / ( ' ' ' ' ( ( ( / / / ^ ~ ! Q d t E d s s s s s s s s ",
"s s s s s s s s s s s s i & f ! ~ ~ / / / / / ( / / / / / / / ~ ~ ! Q d w E f s s s s s s s s s ",
"s s s s s s s s s s s s s a * s Q ~ ~ ~ / / / / / / / / ^ ~ ! ! ! Q s w R f s s s s s s s s s s ",
"s s s s s s s s s s s s s s s 0 w R ! ~ ~ ~ ~ ~ ^ ^ ^ ~ ~ ! ! ! R t u E g s s s s s s s s s s s ",
"s s s s s s s s s s s s s s s d u * y T Q ~ ~ ~ ~ ! ! ! ! Q T s w f E f s s s s s s s s s s s s ",
"s s s s s s s s s s s s s s s s s f u 0 w s f R E E T g s y q d R g s s s s s s s s s s s s s s ",
"s s s s s s s s s s s s s s s s s s d f d i y w w w y u s g R g d s s s s s s s s s s s s s s s ",
"s s s s s s s s s s s s s s s s s s s s s s f g g g F T g d s s s s s s s s s s s s s s s s s s ",
"s s s s s s s s s s s s s s s s s s s s s s s s s s s s s s s s s s s s s s s s s s s s s s s s ",
"s s s s s s s s s s s s s s s s s s s s s s s s s s s s s s s s s s s s s s s s s s s s s s s s ",
"s s s s s s s s s s s s s s s s s s s s s s s s s s s s s s s s s s s s s s s s s s s s s s s s "
};
