/* XPM */
static const char *buttonMiddle[] = {
/* columns rows colors chars-per-pixel */
"48 48 101 2",
"   c #1F5E1F5E1F5E",
".  c #0F030F032817",
"X  c #16E916E93754",
"o  c #1D4D1D4D3ED6",
"O  c #244624462446",
"+  c #25EF25EF2E4E",
"@  c #2DAB2DAB2D86",
"#  c #25AD25AD3564",
"$  c #2C072C07350A",
"%  c #33B033B033AF",
"&  c #372F372F3AEE",
"*  c #3C253C253C32",
"=  c #124812484F54",
"-  c #19D819D85A6E",
";  c #2EA72EA73FFD",
":  c #35E835E8476D",
">  c #317D317D50CB",
",  c #38E538E55479",
"<  c #160D160D6ACB",
"1  c #1BAF1BAF7A2E",
"2  c #35E535E565CF",
"3  c #33963396772C",
"4  c #43DF43DF43FC",
"5  c #48414841478A",
"6  c #43C243C24AC3",
"7  c #4BC74BC74BB8",
"8  c #44A344A3555F",
"9  c #4E334E335B70",
"0  c #542454245423",
"q  c #5BC65BC65BBD",
"w  c #4B154B1563D2",
"e  c #486648666EC3",
"r  c #5C625C62618E",
"t  c #51F351F3774E",
"y  c #665766576656",
"u  c #6B046B046B04",
"i  c #74997499749F",
"p  c #7C787C787C6D",
"a  c #1F581F588CC3",
"s  c #20D120D1844B",
"d  c #2D192D198469",
"f  c #25BE25BE8B5B",
"g  c #32BD32BD87D5",
"h  c #277927799627",
"j  c #2ECD2ECD91FD",
"k  c #25AD25AD9831",
"l  c #2D012D019DC7",
"z  c #3EE83EE89FE0",
"x  c #33E733E7A278",
"c  c #39803980A7ED",
"v  c #3D8F3D8FAA71",
"b  c #485F485F873F",
"n  c #579C579C8009",
"m  c #621462149687",
"M  c #648064809EBE",
"N  c #43094309AED0",
"B  c #46604660B249",
"V  c #4B7E4B7EB5B4",
"C  c #4F8C4F8CB8FF",
"Z  c #51135113B710",
"A  c #541D541DBD31",
"S  c #584D584DC001",
"D  c #60106010AC14",
"F  c #68B668B6B58B",
"G  c #76797679BA81",
"H  c #7C127C12BFFE",
"J  c #5C5F5C5FC34F",
"K  c #60AE60AEC768",
"L  c #6BD06BD0C530",
"P  c #64926492C9E6",
"I  c #68C868C8CC6E",
"U  c #79997999CE7C",
"Y  c #6E216E21D2B9",
"T  c #73457345D620",
"R  c #7C397C39DE10",
"E  c #848084808470",
"W  c #8C648C648C50",
"Q  c #910191018FEB",
"!  c #945E945E9450",
"~  c #9CAB9CAB9CA6",
"^  c #A479A479A475",
"/  c #AC0FAC0FAC0A",
"(  c #B443B443B442",
")  c #B854B854B6F3",
"_  c #BBE9BBE9BBE4",
"`  c #8E998E99DD8C",
"'  c #844D844DE440",
"]  c #8CA58CA5EB23",
"[  c #925D925DEE2D",
"{  c #975E975EF3B2",
"}  c #9A3A9A3AF0AA",
"|  c #9CDD9CDDF97D",
" . c #A3D6A3D6FEC9",
".. c #C402C402C402",
"X. c #CC5DCC5DCC5D",
"o. c #D43BD43BD43B",
"O. c #DC05DC05DC05",
"+. c #E416E416E416",
"@. c #EBECEBECEBEC",
"#. c #F3E3F3E3F3E3",
"$. c #FACCFACCFACC",
/* pixels */
"y y y y y y y y y y y y y y y y y y y y y y y y y y y y y y y y y y y y y y y y y y y y y y y y ",
"y y y y y y y y y y y y y y y y y y y y y y y y y y y y y y y y y y y y y y y y y y y y y y y y ",
"y y y y y y y y y y y y y y y y y y y y y y y y y y y y y y y y y y y y y y y y y y y y y y y y ",
"y y y y y y y y y y y y y y y y y y q 5 & $ # # + % * 7 q y y y y y y y y y y y y y y y y y y y ",
"y y y y y y y y y y y y y y y y 7 $ X = < 1 s f - * q * @ * 0 y y y y y y y y y y y y y y y y y ",
"y y y y y y y y y y y y y y 0 @ . < a k l l x c d 6 W E i 0 % & q y y y y y y y y y y y y y y y ",
"y y y y y y y y y y y y y 4 @ 7 o h l x x c v B z : Q ! W E i 7 @ 7 y y y y y y y y y y y y y y ",
"y y y y y y y y y y y y * % u p ; j c v N B V Z Z > W ~ ! W W E y % 4 y y y y y y y y y y y y y ",
"y y y y y y y y y y y * % u E W 6 g B V C A S J K 2 E / ^ ~ ! W W i & * y y y y y y y y y y y y ",
"y y y y y y y y y y 5 @ u p E ! q 3 A S J K P I Y b i ( / ^ ~ ~ ! W p * 4 y y y y y y y y y y y ",
"y y y y y y y y y q @ y p E W ~ p 2 K P I Y T T R D r _ ( / / ^ ~ ! ! E % 7 y y y y y y y y y y ",
"y y y y y y y y y % 7 p E W ! ^ ! , I T T R R ' ' U 9 _ _ ) ( / / ^ ~ ~ p @ q y y y y y y y y y ",
"y y y y y y y y 7 % i p W ! ~ / / 8 L R ' ' ] ] [ [ w ) X.....) / ~ E y 7 O & u y y y y y y y y ",
"y y y y y y y y % 0 p E ! ~ ^ / ) r F ] ] [ { |  . .n ~ _ ~ p y 7 4 5 0 y u * y u y y y y y y y ",
"y y y y y y y 0 % i E W ! ^ / ) ..p M | | | } ` H M , 4 0 0 y i E W W W W E q 4 u y y y y y y y ",
"y y y y y y y * 7 E W ! ^ / ) ..X.! e G m t w 9 r i E ! ^ ^ ^ ^ ~ ~ ! ! W E p * y y y y y y y y ",
"y y y y y y y % u W ! ~ ~ ! E i q 7 4 r i W ^ / ( ( ( ( / / / ^ ^ ~ ~ ! ! W E q 0 u y y y y y y ",
"y y y y y y q @ y y 0 7 4 7 q i W ~ / ( ) _ _ _ _ _ ) ) ( ( / / ^ ^ ~ ~ ! W W i 4 i y y y y y y ",
"y y y y y y 0   * 0 y p W ~ ^ / ( ( ) ) _ _ _ ......_ _ _ ) ( ( / ^ ^ ~ ~ ! W E 4 u u y y y y y ",
"y y y y y y 5 7 W ! ! ~ ~ ^ / / ( ) _ _ .................._ _ ( ( / ^ ^ ~ ! ! W 0 q u y y y y y ",
"y y y y y y 4 q W ! ! ~ ^ / / ( ) _ ....X.X.X.X.X.X.X.X....._ _ ) ( / ^ ^ ~ ! ! u 0 i y y y y y ",
"y y y y y y * y ! ! ~ ^ ^ / ( ) _ ....X.X.o.o.o.o.o.o.X.X.X..._ _ ( / / ^ ~ ! ! p 7 i y y y y y ",
"y y y y y y * y ! ! ~ ^ / / ( _ ....X.X.o.o.O.O.O.O.O.o.o.X.X..._ ) ( / ^ ^ ~ ! E 5 p y y y y y ",
"y y y y y y * y ! ~ ~ ^ / ( ) _ ..X.X.o.O.O.O.+.+.+.O.O.o.o.X....._ ( / / ^ ~ ! W 5 p y y y y y ",
"y y y y y y 4 q ! ~ ^ ^ / ( _ ....X.o.O.O.+.+.@.@.+.+.+.O.o.o.X..._ ) ( / ^ ~ ! W 5 p y y y y y ",
"y y y y y y 5 0 ! ~ ^ / / ) _ ..X.X.o.O.+.+.@.@.@.@.@.+.O.O.o.X....._ ( / ^ ~ ~ W 5 p y y y y y ",
"y y y y y y 0 4 ! ~ ^ / ( ) _ ..X.o.O.O.+.@.#.#.#.#.@.@.+.O.o.X.X..._ ( / ^ ^ ~ W 7 E y y y y y ",
"y y y y y y q & W ~ ^ / ( ) _ ..X.o.O.O.+.@.#.$.$.$.#.@.+.O.o.X.X..._ ( / / ^ ~ E 7 E y y y y y ",
"y y y y y y y % p ~ ^ / ( ) _ ..X.o.O.O.+.@.#.$.$.$.#.@.+.O.o.X.X..._ ( / / ^ ~ i 0 p y y y y y ",
"y y y y y y y 4 q ~ ^ / ( ) _ ..X.o.O.O.+.@.#.#.#.#.@.@.+.O.o.X.X..._ ( / ^ ^ ~ y y i y y y y y ",
"y y y y y y y 0 * ! ^ / / ) _ ..X.X.o.O.+.+.@.@.@.@.@.+.O.O.o.X....._ ( / ^ ~ ~ 7 p u y y y y y ",
"y y y y y y y y & i ^ ^ / ( _ ....X.o.O.O.+.+.@.@.+.+.+.O.o.o.X..._ ) ( / ^ ~ W 7 E y y y y y y ",
"y y y y y y y y 7 5 ~ ^ / ( ) _ ..X.X.o.O.O.O.+.+.+.O.O.o.o.X....._ ( / / ^ ~ u y E y y y y y y ",
"y y y y y y y y y % i ^ / / ( _ ....X.X.o.o.O.O.O.O.O.o.o.X.X..._ ) ( / ^ ^ ! 5 E u y y y y y y ",
"y y y y y y y y y 0 * ! ^ / ( ) _ ....X.X.o.o.o.o.o.o.X.X.X..._ _ ( / / ^ ~ u q W y y y y y y y ",
"y y y y y y y y y y 4 q ^ / / ( ) _ ......X.X.X.X.X.X.X....._ _ ( ( / ^ ^ ! 5 E i y y y y y y y ",
"y y y y y y y y y y y & u ^ / / ( ) _ _ .................._ _ ( ( / ^ ^ ~ 0 u E y y y y y y y y ",
"y y y y y y y y y y y q & p ^ / / ( ( ) _ _ _ ......_ _ _ ) ( ( / ^ ^ ~ u 0 W u y y y y y y y y ",
"y y y y y y y y y y y y q & i ^ / / / ( ( ) ) ) _ ) ) ) ( ( / / ^ ^ ~ i 7 W i y y y y y y y y y ",
"y y y y y y y y y y y y y q * y ~ / / / / ( ( ( ( ( ( ( / / / ^ ^ ~ y 7 W i y y y y y y y y y y ",
"y y y y y y y y y y y y y y y 4 7 E ^ / / / / / / / / / ^ ^ ^ ^ W 0 0 W i y y y y y y y y y y y ",
"y y y y y y y y y y y y y y y u q 4 0 E ~ ^ ^ ^ ^ ^ ^ ^ ^ ~ W y 5 i W i y y y y y y y y y y y y ",
"y y y y y y y y y y y y y y y y u u q 5 7 y i E W W W p y 0 7 u W p u y y y y y y y y y y y y y ",
"y y y y y y y y y y y y y y y y y y u i u y 0 7 7 7 0 q u p W p u y y y y y y y y y y y y y y y ",
"y y y y y y y y y y y y y y y y y y y y y u i i p p p p i u y y y y y y y y y y y y y y y y y y ",
"y y y y y y y y y y y y y y y y y y y y y y y y y y y y y y y y y y y y y y y y y y y y y y y y ",
"y y y y y y y y y y y y y y y y y y y y y y y y y y y y y y y y y y y y y y y y y y y y y y y y ",
"y y y y y y y y y y y y y y y y y y y y y y y y y y y y y y y y y y y y y y y y y y y y y y y y "
};
