/* XPM */
static char * buttonRightLocked[] = {
"48 48 258 2",
"  	c None",
". 	c #666666",
"+ 	c #656565",
"@ 	c #626262",
"# 	c #5F5E5E",
"$ 	c #5D5C5C",
"% 	c #5B5A5A",
"& 	c #5E5E5E",
"* 	c #595858",
"= 	c #5A5959",
"- 	c #696868",
"; 	c #8C8B8B",
"> 	c #B3B2B2",
", 	c #CECDCD",
"' 	c #E1E1E1",
") 	c #EAE9E9",
"! 	c #CECECE",
"~ 	c #B3B3B3",
"{ 	c #8C8C8C",
"] 	c #818181",
"^ 	c #BDBCBC",
"/ 	c #DEDEDE",
"( 	c #EFEFEF",
"_ 	c #FCFCFC",
": 	c #FFFFFF",
"< 	c #F0F0F0",
"[ 	c #BDBDBD",
"} 	c #828181",
"| 	c #5E5D5D",
"1 	c #5C5B5B",
"2 	c #7D7D7D",
"3 	c #CCCCCC",
"4 	c #F5F5F5",
"5 	c #FEFEFE",
"6 	c #7F7F7F",
"7 	c #636262",
"8 	c #ACACAC",
"9 	c #F6F6F6",
"0 	c #EAEAEA",
"a 	c #F8F8F8",
"b 	c #AFAEAE",
"c 	c #767575",
"d 	c #CDCDCD",
"e 	c #FDFDFD",
"f 	c #E5E5E5",
"g 	c #E2E2E2",
"h 	c #FBFBFB",
"i 	c #A09F9F",
"j 	c #FAFAFA",
"k 	c #E0E0E0",
"l 	c #CFCFCF",
"m 	c #777676",
"n 	c #7B7A7A",
"o 	c #DDDDDD",
"p 	c #C0BFBF",
"q 	c #AEAEAE",
"r 	c #7D7C7C",
"s 	c #ADACAC",
"t 	c #E0301A",
"u 	c #D1887F",
"v 	c #F0DFDD",
"w 	c #7C7B7B",
"x 	c #5D5D5D",
"y 	c #747474",
"z 	c #DBDADA",
"A 	c #DCDCDC",
"B 	c #8F8E8E",
"C 	c #D6D6D6",
"D 	c #D5D4D4",
"E 	c #D5D5D5",
"F 	c #E82C15",
"G 	c #EB2B13",
"H 	c #CD4B3B",
"I 	c #DFB8B3",
"J 	c #757474",
"K 	c #656464",
"L 	c #CACACA",
"M 	c #CBCBCB",
"N 	c #6E6E6E",
"O 	c #8A8989",
"P 	c #B4B4B4",
"Q 	c #CF4534",
"R 	c #DB331E",
"S 	c #D49891",
"T 	c #676666",
"U 	c #A6A5A5",
"V 	c #6A6969",
"W 	c #A5A5A5",
"X 	c #8D8C8C",
"Y 	c #8E8D8D",
"Z 	c #F9F9F9",
"` 	c #CB6153",
" .	c #DE311C",
"..	c #D69D96",
"+.	c #A7A7A7",
"@.	c #F3F3F3",
"#.	c #DBDBDB",
"$.	c #727272",
"%.	c #F4F4F4",
"&.	c #6F6E6E",
"*.	c #D0877E",
"=.	c #E92C14",
"-.	c #D93621",
";.	c #DEB6B1",
">.	c #C5C5C5",
",.	c #F2F2F2",
"'.	c #878686",
").	c #5C5C5C",
"!.	c #D9D8D8",
"~.	c #D9D9D9",
"{.	c #D04433",
"].	c #F3E7E6",
"^.	c #C6C6C6",
"/.	c #B5B5B5",
"(.	c #646363",
"_.	c #787777",
":.	c #E7E7E7",
"<.	c #605F5F",
"[.	c #E8E8E8",
"}.	c #D43B28",
"|.	c #CC6E62",
"1.	c #858484",
"2.	c #BFBEBE",
"3.	c #D3D2D2",
"4.	c #6B6A6A",
"5.	c #626161",
"6.	c #838383",
"7.	c #ECECEC",
"8.	c #8A8A8A",
"9.	c #EEEEEE",
"0.	c #E32F18",
"a.	c #D79F98",
"b.	c #C1C0C0",
"c.	c #646464",
"d.	c #6E6D6D",
"e.	c #E6E6E6",
"f.	c #AAAAAA",
"g.	c #818080",
"h.	c #727171",
"i.	c #CB6A5E",
"j.	c #CB6559",
"k.	c #706F6F",
"l.	c #908F8F",
"m.	c #F1F1F1",
"n.	c #CAC9C9",
"o.	c #7E7D7D",
"p.	c #6D6C6C",
"q.	c #E4E3E3",
"r.	c #D8A19B",
"s.	c #EA2B14",
"t.	c #D33D2A",
"u.	c #ECD7D4",
"v.	c #929191",
"w.	c #B2B1B1",
"x.	c #D1D1D1",
"y.	c #C6C5C5",
"z.	c #DBACA7",
"A.	c #CE7C72",
"B.	c #D8D8D8",
"C.	c #F6EDEC",
"D.	c #E0B9B4",
"E.	c #DDB1AC",
"F.	c #DDB1AB",
"G.	c #EDEDED",
"H.	c #838282",
"I.	c #686767",
"J.	c #888787",
"K.	c #747373",
"L.	c #EBEBEB",
"M.	c #76735A",
"N.	c #BCAD2C",
"O.	c #F0D80A",
"P.	c #F8DF04",
"Q.	c #F1D80A",
"R.	c #BEAF2A",
"S.	c #77735A",
"T.	c #636363",
"U.	c #72705E",
"V.	c #D7C31B",
"W.	c #FDE301",
"X.	c #DAC519",
"Y.	c #B8AA2F",
"Z.	c #D9C41A",
"`.	c #D7C31A",
" +	c #73705E",
".+	c #BCAD2D",
"++	c #FFE400",
"@+	c #BAAB2E",
"#+	c #76735C",
"$+	c #706E60",
"%+	c #B9AB2E",
"&+	c #BDAE2C",
"*+	c #716F5E",
"=+	c #F4DB07",
"-+	c #E9D20F",
";+	c #E9D20E",
">+	c #8B8A8A",
",+	c #DFDFDF",
"'+	c #5B5B5B",
")+	c #C4C3C3",
"!+	c #D0D0D0",
"~+	c #6C6B62",
"{+	c #CDBB21",
"]+	c #CEBC20",
"^+	c #FEE301",
"/+	c #A3A2A2",
"(+	c #8C864C",
"_+	c #D8C41A",
":+	c #88824F",
"<+	c #878150",
"[+	c #D9C519",
"}+	c #FCE202",
"|+	c #8C854D",
"1+	c #D2D2D2",
"2+	c #A9A9A9",
"3+	c #B2B2B2",
"4+	c #F5DC06",
"5+	c #DDC816",
"6+	c #DEC916",
"7+	c #DCC717",
"8+	c #D5C11C",
"9+	c #616060",
"0+	c #959494",
"a+	c #F7DE05",
"b+	c #C2C2C2",
"c+	c #EDD50C",
"d+	c #EBD40D",
"e+	c #7F7E7E",
"f+	c #C8C7C7",
"g+	c #C8C8C8",
"h+	c #B1B0B0",
"i+	c #E6E5E5",
"j+	c #909090",
"k+	c #EFD70B",
"l+	c #949393",
"m+	c #B7B7B7",
"n+	c #929292",
"o+	c #EDD50B",
"p+	c #FBE103",
"q+	c #EAD30C",
"r+	c #B9B9B9",
"s+	c #606060",
"t+	c #616161",
"u+	c #CCCBCB",
"v+	c #B8B8B8",
"w+	c #A8A8A8",
"x+	c #7A7979",
"y+	c #A2A1A1",
"z+	c #BBBABA",
"A+	c #9E9D9D",
"B+	c #717070",
"C+	c #B7B6B6",
"D+	c #B9B8B8",
"E+	c #737272",
"F+	c #ABABAB",
"G+	c #D4D4D4",
"H+	c #E9E9E9",
"I+	c #ACABAB",
". . . . . . . . . . . . . . . . . . . . . . . . . . . . . . . . . . . . . . . . . . . . . . . . ",
". . . . . . . . . . . . . . . . . . . . . . . . . . . . . . . . . . . . . . . . . . . . . . . . ",
". . . . . . . . . . . . . . . . . . + @ # $ % % % % $ # @ + . . . . . . . . . . . . . . . . . . ",
". . . . . . . . . . . . . . . . & * * * * * * * * * * * * * * & . . . . . . . . . . . . . . . . ",
". . . . . . . . . . . . . . . & * = - ; > , ' ) ) ' ! ~ { - = * & . . . . . . . . . . . . . . . ",
". . . . . . . . . . . . . & * * % ] ^ / ( _ : : : : _ < / [ } % * * & . . . . . . . . . . . . . ",
". . . . . . . . . . . . | * 1 2 3 4 5 : : : : : : : : : : 5 4 , 6 1 * | . . . . . . . . . . . . ",
". . . . . . . . . . . 1 * 7 8 9 : : : 5 : 5 4 0 0 4 5 5 5 : : : a b 7 * 1 . . . . . . . . . . . ",
". . . . . . . . . . 1 * c d : : : e f g h : i 1 1 i : j k f e : : : l m * 1 . . . . . . . . . . ",
". . . . . . . . . 1 * n o : : : < p - q h 4 r * * r 4 h s t u v : : : / w * 1 . . . . . . . . . ",
". . . . . . . . x * y z : : 5 A B * | C : D 7 * * 7 D : E F G H I 5 : : A J * x . . . . . . . . ",
". . . . . . . & * K L : : 5 M N * * O ( : P | * * | P : ( Q G G R S 5 : : M T * & . . . . . . . ",
". . . . . . . * % U : : : d V * $ * W j 5 X = * * = Y : Z ` G G G  ...: : : +.% * . . . . . . . ",
". . . . . . | * n @.: : #.$.* $ * 1 p : %.&.* & & * N %.: *.=.G G G -.;.: : %.w * | . . . . . . ",
". . . . . & * $ >.: : ,.'.* ).+ * - !.: z K * + + * K ~.: !.t G G G G {.].: : ^.| * & . . . . . ",
". . . . . * = } _ : 5 /.* % + (.* _.:.: /.<.* + + * # P : [.}.G G G G G |.j : _ 1.= * . . . . . ",
". . . . . * $ 2.: 5 3.4.* 5.. 7 * 6.7.: 8.= * . . * = '.: 9.{.G G G G G 0.a.5 : b.| * . . . . . ",
". . . . c.* d.e.: h f.* $ . . <.* U Z : g.* & . . & * h.a j i.G G G G G G j.j : [.k.* c.. . . . ",
". . . . 5.* l._ : m.; * 1 1 1 1 * n.: : o.* 1 1 1 1 * p.q.: r.s.G G G G G t.u.: _ v.* 5.. . . . ",
". . . . # * w.: : 3 * * * * * * * x.: ( (.* * * * * * * y.: z.G G G G G G G A._ : P * # . . . . ",
". . . . $ * l : : m.B.~.~.~.~.~.#.9 : j / ~.~.~.~.~.~.A m.: C.D.E.E.E.E.E.F.u.5 : x.* $ . . . . ",
". . . . % * q.: : : : : : : : : : : : : : : : : : : : : : : : : : : : : : : : : : e.* % . . . . ",
". . . . = * @.: : : : : : : : : : : : : : : : : : : : : : : : : : : : : : : : : : 4 * = . . . . ",
". . . . * * _ : G.H.I.I.I.I.I.I.I.I.I.I.I.I.I.I.I.I.I.I.I.I.I.I.I.I.I.I.I.I.J.( : 5 * * . . . . ",
". . . . * * : : 0 K.* * * * * * * * * * * * * * * * * * * * * * * * * * * * c L.: : * * . . . . ",
". . . . * * 5 : L.c * c.+ + + + + + + + M.N.O.P.P.Q.R.S.+ + + + + + + + (.* _.L.: : * * . . . . ",
". . . . * * a : G.o.* T.. . . . . . . U.V.W.X.Y.Y.Z.W.`. +. . . . . . . T.* 6 G.: h * * . . . . ",
". . . . = * G.: ,.B * 5.. . . . . . . .+++@+#+$+$+#+%+++&+T . . . . . . @ * J.m.: < * = . . . . ",
". . . . 1 * A : j f.* | . . . . . . *+=+-+*+. . . . *+;+=+ +. . . . . . @ * >+,.: ,+* '+. . . . ",
". . . . | * )+: : !+<.* + . . . . . ~+++{+. . . . . . ]+^+~+. . . . . . | * /+a : ^.* x . . . . ",
". . . . <.* U : : m.; * @ . . . . . (+++_+:+:+:+:+:+<+[+}+|+. . . . . c.* 5.1+: : 2+* <.. . . . ",
". . . . 7 * 1.Z : _ 3+* | . . . . . V.++4+5+6+6+6+6+7+4+^+8+. . . . . 9+* 0+4 : j J.* @ . . . . ",
". . . . + * T z : : l | * . . . . . a+++++++++++++++++++++4+. . . . . '+* b+5 : A - * + . . . . ",
". . . . . * 1 f.: : ) ] * | . . . . c+++++++++++++++++++++d+. . . . | * e+[.: : s 1 * . . . . . ",
". . . . . & * y m.: : f+<.* (.. . . c+++++++++++++++++++++d+. . . (.* <.g+: : %.c * & . . . . . ",
". . . . . . * % q : : a i * % + . . c+++++++++++++++++++++d+. . + % * i a : : h+1 * . . . . . . ",
". . . . . . & * N q.: : ( J.* % K . c+++++++++++++++++++++d+. K % * J.( : : i+k.* & . . . . . . ",
". . . . . . . * = j+: : : f H.* = @ k+++++++++++++++++++++c+@ = * H.f : : : l+= * . . . . . . . ",
". . . . . . . & * | m+: : : i+n+* * o+p+p+p+p+p+p+p+p+p+p+q+* * n+i+: : : r+| * & . . . . . . . ",
". . . . . . . . | * - n.: : : m.> T * % # T.. . . T.s+| * * 5.> m.: : : 3 V * | . . . . . . . . ",
". . . . . . . . . $ * d.M : : : j ,+J.* * * = = * * * * t+{ o j : : : u+&.* $ . . . . . . . . . ",
". . . . . . . . . . $ * T v+: : : : m./ w+K * * $ x+y+b+L.m.: : : : z+- * $ . . . . . . . . . . ",
". . . . . . . . . . . x * # A+7.: : : : j @.( ( ( 4 j e : : : : G.i # * $ . . . . . . . . . . . ",
". . . . . . . . . . . . | * % B+C+L.e : : : : : : : : : : e L.D+h.% * | . . . . . . . . . . . . ",
". . . . . . . . . . . . . & * * = E+F+G+H+9 5 : : 5 9 H+E I+E+= * * & . . . . . . . . . . . . . ",
". . . . . . . . . . . . . . . & * * 9+r W b.G+o o G+b.W o.5.= * & . . . . . . . . . . . . . . . ",
". . . . . . . . . . . . . . . . . | * * * * * * * * * * * * * & . . . . . . . . . . . . . . . . ",
". . . . . . . . . . . . . . . . . . + T.s+| ).1 1 ).| s+T.+ . . . . . . . . . . . . . . . . . . "};
