/* XPM */
static const char *buttonLeftSelectedLocked[] = {
/* columns rows colors chars-per-pixel */
"48 48 81 1 ",
"  c black",
". c #353535",
"X c #3D3D3D",
"o c #444444",
"O c #4A4A4A",
"+ c #545454",
"@ c #5B5B5B",
"# c #666666",
"$ c #6A6A6A",
"% c #747474",
"& c #7B7B7B",
"* c #FF0000",
"= c #F60F0F",
"- c #FC1515",
"; c #FF1919",
": c #F94444",
"> c #ED6F6F",
", c #FC7171",
"< c #FD7A7A",
"1 c #4040BE",
"2 c #5454BA",
"3 c #5858BA",
"4 c #6565B9",
"5 c #6868B9",
"6 c #7A7AB9",
"7 c #1E1ECE",
"8 c #1616D6",
"9 c #1A1AD3",
"0 c #1313DA",
"q c #2D2DC6",
"w c #2424CB",
"e c #3333C3",
"r c #0707ED",
"t c #0909E9",
"y c #0404F2",
"u c #0000FF",
"i c #0A0AFF",
"p c #1313FF",
"a c #1B1BFF",
"s c #3737FF",
"d c #3A3AFF",
"f c #868686",
"g c #898989",
"h c #949494",
"j c #9A9A9A",
"k c #A3A3A3",
"l c #AAAAAA",
"z c #A1A1BD",
"x c #B4B4B4",
"c c #BBBBBB",
"v c #FE8383",
"b c #FE8888",
"n c #FF9F9F",
"m c #FCA0A0",
"M c #FFADAD",
"N c #FFB1B1",
"B c #FFBABA",
"V c #AFAFC0",
"C c #8B8BFF",
"Z c #9292FF",
"A c #ADADFF",
"S c #BDBDFF",
"D c #C3C3C3",
"F c #CCCCCC",
"G c #D4D4D4",
"H c #DCDCDC",
"J c #FFC3C3",
"K c #FFCACA",
"L c #FFD8D8",
"P c #C3C3FF",
"I c #C8C8FF",
"U c #DDDDFF",
"Y c #E4E4E4",
"T c #ECECEC",
"R c #FFEAEA",
"E c #E3E3FF",
"W c #EEEEFF",
"Q c #F3F3F3",
"! c #FFF3F3",
"~ c #F3F3FF",
"^ c #FEFEFF",
/* pixels */
"################################################",
"###################@OoXXXXoO+###################",
"################O..............O################",
"###############O..o%kDHYYHDk%O..O###############",
"#############O...#lGT^^^^^^TGl#...O#############",
"############o..#DQ^^^^^^^^^^^^QD#..O##########$#",
"###########o.ojQ^^^^^^QYYQ^^^^^^Qjo.o#####$#####",
"##$#######X.+D^^Rv->^^&##&^^HH^^^^D@.X##########",
"#########o.@G^^B***=^Q####Q^j#hH^^^G#.o#########",
"##$#####O.+G^^b*****^F@###F^F##$c^^^G+.o###$####",
"#######O.oD^^JBJb;*:^k###@k^T####k^^^Do.O#######",
"#######..h^^!^^^^R;,^#####$^^&####k^^^h..#######",
"######O.@Q^L^lXol^bnT#####@Q^h#####c^^Q@.O#####$",
"###$#O..c^RJ^X  X^J^G######G^F######T^^cX.O#####",
"#####..#^^vJ^X  X^K^j######j^Y######fQ^^$..#####",
"#####.Xx^B*v^loXl^m^$#######^T#######l^^x..#####",
"#####.OH^<*;R^^^^Rv^########Q^&######&Q^Y+.@####",
"####+.&^R***;vJJb;M^########H^l#######H^^&.+####",
"####O.k^N*********BT########x^x#######g^^k.O####",
"####o.D^R*********!QGFGGGGFGT^QcxcccccH^^D.o####",
"####X.H^^RJJJJJJK!^^^^^^^^^^^^^^^^^^^^^^^Y.X####",
"####..Q^^^^^^^^^^^^^^^^^^^^^^^^^^^^^^^^^^Q..####",
"####..^^TwttttttttttttttttttttttttttttqT^^..####",
"####..^^Y0uuuuuuuuuuuuuuuuuuuuuuuuuuuu8Y^^..####",
"###$..^^Y8uuuuuuuuuuaZEW~EZauuuuuuuuuu8Y^^..####",
"####..^^T7uuuuuuuuupS^PCCP^Spuuuuuuuuu7T^^..####",
"####..Y^TeuuuuuuuuuZ^CappaC^ZuuuuuuuuuqT^T..####",
"####o.G^^5uuuuuuuupEUpuuuupUWpuuuuuuuuqQ^H.o####",
"####o.x^^Dyuuuuuuup^AuuuuuuA^iuuuuuuuu3Q^c.o####",
"####+.h^^Teuuuuuuud^SdddddsP^duuuuuuurF^^h.+####",
"####+.#^^^6uuuuuuuS^WIIIPIPW^Suuuuuuu1Q^^$.+####",
"#####.oG^^DyuuuuuuW^^^^^^^^^^Wuuuuuuuz^^Go.#####",
"#####..j^^YwuuuuuuE^^^^^^^^^^Uuuuuuu9Y^^j..#####",
"#####O.+T^^VyuuuuuE^^^^^^^^^^Uuuuuuyx^^Q@.O#####",
"######..j^^Q2uuuuuU^^^^^^^^^^Uuuuuu2^^^k..######",
"#+.O##O.+H^^TquuuuE^^^^^^^^^^UuuuuqT^^H+.O##O.O#",
"#...O##..&^^^HwuuuE^^^^^^^^^^EuuuwH^^^&..##O...#",
"#....O#O..l^^^YeuuE^~^~^~^~^^UuueH^^^l..O#O....#",
"#..k..O#O.Oc^^^T6tuuuuuuuuuuuuy6Q^^^DO.o#O..l..#",
"#..^FGFg#o.OD^^^QHquuuuuuuuuyeG^^^^D+.o#gFGF^..#",
"#..^loXlg#X.ol^^^^TH4ruuy93zYT^^^^lO.o#flXXl^..#",
"#..^X  XFO#o.XgY^^^^^TTTTT^^^^^^TgX.o#OFX  X^..#",
"#..^X  oY.O#O..+lY^^^^^^^^^^^^Yl+..o@O.Yo  o^..#",
"#..^lXXlQf.o@O...+hFYQ^^^^QYFj+...O@o.gQlXXl^..#",
"#..^^^^^^Qg..@#O..X#hxFGGFxh#X..O#@..gQ^^^^^^..#",
"#............o###O.............O##o............#",
"#O..........o@#####@+ooXXXo+@#####@o..........O#",
"################################################"
};
