/* XPM */
static char * buttonNoClick[] = {
"48 48 179 2",
"  	c None",
". 	c #666666",
"+ 	c #656565",
"@ 	c #626262",
"# 	c #5F5E5E",
"$ 	c #5D5C5C",
"% 	c #5B5A5A",
"& 	c #5E5E5E",
"* 	c #595858",
"= 	c #5A5959",
"- 	c #696868",
"; 	c #8C8B8B",
"> 	c #B3B2B2",
", 	c #CECDCD",
"' 	c #E1E1E1",
") 	c #EAE9E9",
"! 	c #CECECE",
"~ 	c #B3B3B3",
"{ 	c #8C8C8C",
"] 	c #818181",
"^ 	c #BDBCBC",
"/ 	c #DEDEDE",
"( 	c #EFEFEF",
"_ 	c #FCFCFC",
": 	c #FFFFFF",
"< 	c #F0F0F0",
"[ 	c #BDBDBD",
"} 	c #828181",
"| 	c #5E5D5D",
"1 	c #5C5B5B",
"2 	c #7D7D7D",
"3 	c #CCCCCC",
"4 	c #F5F5F5",
"5 	c #FEFEFE",
"6 	c #7F7F7F",
"7 	c #636262",
"8 	c #ACACAC",
"9 	c #F6F6F6",
"0 	c #EAEAEA",
"a 	c #F8F8F8",
"b 	c #AFAEAE",
"c 	c #767575",
"d 	c #CDCDCD",
"e 	c #FDFDFD",
"f 	c #E5E5E5",
"g 	c #E2E2E2",
"h 	c #FBFBFB",
"i 	c #A09F9F",
"j 	c #FAFAFA",
"k 	c #E0E0E0",
"l 	c #CFCFCF",
"m 	c #777676",
"n 	c #7B7A7A",
"o 	c #DDDDDD",
"p 	c #C0BFBF",
"q 	c #AEAEAE",
"r 	c #7D7C7C",
"s 	c #ADACAC",
"t 	c #686767",
"u 	c #C1C0C0",
"v 	c #7C7B7B",
"w 	c #5D5D5D",
"x 	c #747474",
"y 	c #DBDADA",
"z 	c #DCDCDC",
"A 	c #8F8E8E",
"B 	c #D6D6D6",
"C 	c #D5D4D4",
"D 	c #D5D5D5",
"E 	c #757474",
"F 	c #656464",
"G 	c #CACACA",
"H 	c #CBCBCB",
"I 	c #6E6E6E",
"J 	c #8A8989",
"K 	c #B4B4B4",
"L 	c #898888",
"M 	c #676666",
"N 	c #A6A5A5",
"O 	c #6A6969",
"P 	c #A5A5A5",
"Q 	c #8D8C8C",
"R 	c #8E8D8D",
"S 	c #F9F9F9",
"T 	c #A4A3A3",
"U 	c #A7A7A7",
"V 	c #F3F3F3",
"W 	c #DBDBDB",
"X 	c #727272",
"Y 	c #F4F4F4",
"Z 	c #6F6E6E",
"` 	c #C5C5C5",
" .	c #F2F2F2",
"..	c #878686",
"+.	c #5C5C5C",
"@.	c #D9D8D8",
"#.	c #D9D9D9",
"$.	c #C6C6C6",
"%.	c #B5B5B5",
"&.	c #646363",
"*.	c #787777",
"=.	c #E7E7E7",
"-.	c #605F5F",
";.	c #E8E8E8",
">.	c #636363",
",.	c #AEADAD",
"'.	c #858484",
").	c #BFBEBE",
"!.	c #D3D2D2",
"~.	c #6B6A6A",
"{.	c #626161",
"].	c #838383",
"^.	c #ECECEC",
"/.	c #8A8A8A",
"(.	c #EEEEEE",
"_.	c #646464",
":.	c #6E6D6D",
"<.	c #E6E6E6",
"[.	c #AAAAAA",
"}.	c #818080",
"|.	c #727171",
"1.	c #ABABAB",
"2.	c #A8A7A7",
"3.	c #706F6F",
"4.	c #908F8F",
"5.	c #F1F1F1",
"6.	c #CAC9C9",
"7.	c #7E7D7D",
"8.	c #6D6C6C",
"9.	c #E4E3E3",
"0.	c #D0D0D0",
"a.	c #929191",
"b.	c #B2B1B1",
"c.	c #D1D1D1",
"d.	c #C6C5C5",
"e.	c #B8B8B8",
"f.	c #D8D8D8",
"g.	c #F7F7F7",
"h.	c #EDEDED",
"i.	c #838282",
"j.	c #888787",
"k.	c #747373",
"l.	c #EBEBEB",
"m.	c #8B8A8A",
"n.	c #DFDFDF",
"o.	c #5B5B5B",
"p.	c #C4C3C3",
"q.	c #A3A2A2",
"r.	c #D2D2D2",
"s.	c #A9A9A9",
"t.	c #B2B2B2",
"u.	c #616060",
"v.	c #959494",
"w.	c #C2C2C2",
"x.	c #7F7E7E",
"y.	c #C8C7C7",
"z.	c #C8C8C8",
"A.	c #B1B0B0",
"B.	c #E6E5E5",
"C.	c #909090",
"D.	c #949393",
"E.	c #B7B7B7",
"F.	c #929292",
"G.	c #B9B9B9",
"H.	c #606060",
"I.	c #616161",
"J.	c #CCCBCB",
"K.	c #A8A8A8",
"L.	c #7A7979",
"M.	c #A2A1A1",
"N.	c #BBBABA",
"O.	c #9E9D9D",
"P.	c #717070",
"Q.	c #B7B6B6",
"R.	c #B9B8B8",
"S.	c #737272",
"T.	c #D4D4D4",
"U.	c #E9E9E9",
"V.	c #ACABAB",
". . . . . . . . . . . . . . . . . . . . . . . . . . . . . . . . . . . . . . . . . . . . . . . . ",
". . . . . . . . . . . . . . . . . . . . . . . . . . . . . . . . . . . . . . . . . . . . . . . . ",
". . . . . . . . . . . . . . . . . . + @ # $ % % % % $ # @ + . . . . . . . . . . . . . . . . . . ",
". . . . . . . . . . . . . . . . & * * * * * * * * * * * * * * & . . . . . . . . . . . . . . . . ",
". . . . . . . . . . . . . . . & * = - ; > , ' ) ) ' ! ~ { - = * & . . . . . . . . . . . . . . . ",
". . . . . . . . . . . . . & * * % ] ^ / ( _ : : : : _ < / [ } % * * & . . . . . . . . . . . . . ",
". . . . . . . . . . . . | * 1 2 3 4 5 : : : : : : : : : : 5 4 , 6 1 * | . . . . . . . . . . . . ",
". . . . . . . . . . . 1 * 7 8 9 : : : 5 : 5 4 0 0 4 5 5 5 : : : a b 7 * 1 . . . . . . . . . . . ",
". . . . . . . . . . 1 * c d : : : e f g h : i 1 1 i : j k f e : : : l m * 1 . . . . . . . . . . ",
". . . . . . . . . 1 * n o : : : < p - q h 4 r * * r 4 h s t u < : : : / v * 1 . . . . . . . . . ",
". . . . . . . . w * x y : : 5 z A * | B : C 7 * * 7 C : D | * A z 5 : : z E * w . . . . . . . . ",
". . . . . . . & * F G : : 5 H I * * J ( : K | * * | K : ( L * * I G 5 : : H M * & . . . . . . . ",
". . . . . . . * % N : : : d O * $ * P j 5 Q = * * = R : S T * $ * O d : : : U % * . . . . . . . ",
". . . . . . | * n V : : W X * $ * 1 p : Y Z * & & * I Y : p 1 * $ * X W : : Y v * | . . . . . . ",
". . . . . & * $ ` : :  ...* +.+ * - @.: y F * + + * F #.: @.t * + +.* ..Y : : $.| * & . . . . . ",
". . . . . * = } _ : 5 %.* % + &.* *.=.: %.-.* + + * # K : ;.n * >.+ % * ,.j : _ '.= * . . . . . ",
". . . . . * $ ).: 5 !.~.* {.. 7 * ].^.: /.= * . . * = ..: (...* @ . @ * &.l 5 : u | * . . . . . ",
". . . . _.* :.<.: h [.* $ . . -.* N S : }.* & . . & * |.a j 1.* & . . w * 2.j : ;.3.* _.. . . . ",
". . . . {.* 4._ : 5.; * 1 1 1 1 * 6.: : 7.* 1 1 1 1 * 8.9.: 0.= * 1 1 1 * 7.^.: _ a.* {.. . . . ",
". . . . # * b.: : 3 * * * * * * * c.: ( &.* * * * * * * d.: B * * * * * * * e._ : K * # . . . . ",
". . . . $ * l : : 5.f.#.#.#.#.#.W 9 : j / #.#.#.#.#.#.z 5.: g.o #.#.#.#.#.@.^.5 : c.* $ . . . . ",
". . . . % * 9.: : : : : : : : : : : : : : : : : : : : : : : : : : : : : : : : : : <.* % . . . . ",
". . . . = * V : : : : : : : : : : : : : : : : : : : : : : : : : : : : : : : : : : 4 * = . . . . ",
". . . . * * _ : h.i.t t t t t t t t t t t t t t t t t t t t t t t t t t t t j.( : 5 * * . . . . ",
". . . . * * : : 0 k.* * * * * * * * * * * * * * * * * * * * * * * * * * * * c l.: : * * . . . . ",
". . . . * * 5 : l.c * _.+ + + + + + + + + + + + + + + + + + + + + + + + &.* *.l.: : * * . . . . ",
". . . . * * a : h.7.* >.. . . . . . . . . . . . . . . . . . . . . . . . >.* 6 h.: h * * . . . . ",
". . . . = * h.:  .A * {.. . . . . . . . . . . . . . . . . . . . . . . . @ * j.5.: < * = . . . . ",
". . . . 1 * z : j [.* | . . . . . . . . . . . . . . . . . . . . . . . . @ * m. .: n.* o.. . . . ",
". . . . | * p.: : 0.-.* + . . . . . . . . . . . . . . . . . . . . . . . | * q.a : $.* w . . . . ",
". . . . -.* N : : 5.; * @ . . . . . . . . . . . . . . . . . . . . . . _.* {.r.: : s.* -.. . . . ",
". . . . 7 * '.S : _ t.* | . . . . . . . . . . . . . . . . . . . . . . u.* v.4 : j j.* @ . . . . ",
". . . . + * M y : : l | * . . . . . . . . . . . . . . . . . . . . . . o.* w.5 : z - * + . . . . ",
". . . . . * 1 [.: : ) ] * | . . . . . . . . . . . . . . . . . . . . | * x.;.: : s 1 * . . . . . ",
". . . . . & * x 5.: : y.-.* &.. . . . . . . . . . . . . . . . . . &.* -.z.: : Y c * & . . . . . ",
". . . . . . * % q : : a i * % + . . . . . . . . . . . . . . . . + % * i a : : A.1 * . . . . . . ",
". . . . . . & * I 9.: : ( j.* % F . . . . . . . . . . . . . . F % * j.( : : B.3.* & . . . . . . ",
". . . . . . . * = C.: : : f i.* = @ . . . . . . . . . . . . @ = * i.f : : : D.= * . . . . . . . ",
". . . . . . . & * | E.: : : B.F.* * w + . . . . . . . . + | * * F.B.: : : G.| * & . . . . . . . ",
". . . . . . . . | * - 6.: : : 5.> M * % # >.. . . >.H.| * * {.> 5.: : : 3 O * | . . . . . . . . ",
". . . . . . . . . $ * :.H : : : j n.j.* * * = = * * * * I.{ o j : : : J.Z * $ . . . . . . . . . ",
". . . . . . . . . . $ * M e.: : : : 5./ K.F * * $ L.M.w.l.5.: : : : N.- * $ . . . . . . . . . . ",
". . . . . . . . . . . w * # O.^.: : : : j V ( ( ( 4 j e : : : : h.i # * $ . . . . . . . . . . . ",
". . . . . . . . . . . . | * % P.Q.l.e : : : : : : : : : : e l.R.|.% * | . . . . . . . . . . . . ",
". . . . . . . . . . . . . & * * = S.1.T.U.9 5 : : 5 9 U.D V.S.= * * & . . . . . . . . . . . . . ",
". . . . . . . . . . . . . . . & * * u.r P u T.o o T.u P 7.{.= * & . . . . . . . . . . . . . . . ",
". . . . . . . . . . . . . . . . . | * * * * * * * * * * * * * & . . . . . . . . . . . . . . . . ",
". . . . . . . . . . . . . . . . . . + >.H.| +.1 1 +.| H.>.+ . . . . . . . . . . . . . . . . . . "};
