/* XPM */
static char * buttonMiddleSelected[] = {
"48 48 214 2",
"  	c None",
". 	c #666666",
"+ 	c #656565",
"@ 	c #626262",
"# 	c #5F5E5E",
"$ 	c #5D5C5C",
"% 	c #5B5A5A",
"& 	c #5E5E5E",
"* 	c #595858",
"= 	c #5A5959",
"- 	c #696868",
"; 	c #8C8B8B",
"> 	c #B3B2B2",
", 	c #CECDCD",
"' 	c #E1E1E1",
") 	c #EAE9E9",
"! 	c #CECECE",
"~ 	c #B3B3B3",
"{ 	c #8C8C8C",
"] 	c #818181",
"^ 	c #BDBCBC",
"/ 	c #DEDEDE",
"( 	c #EFEFEF",
"_ 	c #FCFCFC",
": 	c #FFFFFF",
"< 	c #F0F0F0",
"[ 	c #BDBDBD",
"} 	c #828181",
"| 	c #5E5D5D",
"1 	c #5C5B5B",
"2 	c #7D7D7D",
"3 	c #CCCCCC",
"4 	c #F5F5F5",
"5 	c #FEFEFE",
"6 	c #7F7F7F",
"7 	c #636262",
"8 	c #ACACAC",
"9 	c #F6F6F6",
"0 	c #EAEAEA",
"a 	c #F8F8F8",
"b 	c #AFAEAE",
"c 	c #767575",
"d 	c #CDCDCD",
"e 	c #FDFDFD",
"f 	c #E5E5E5",
"g 	c #E2E2E2",
"h 	c #FBFBFB",
"i 	c #BD736A",
"j 	c #E82C15",
"k 	c #FAFAFA",
"l 	c #E0E0E0",
"m 	c #CFCFCF",
"n 	c #777676",
"o 	c #7B7A7A",
"p 	c #DDDDDD",
"q 	c #C0BFBF",
"r 	c #AEAEAE",
"s 	c #C94434",
"t 	c #EB2B13",
"u 	c #ADACAC",
"v 	c #686767",
"w 	c #C1C0C0",
"x 	c #7C7B7B",
"y 	c #5D5D5D",
"z 	c #747474",
"A 	c #DBDADA",
"B 	c #DCDCDC",
"C 	c #8F8E8E",
"D 	c #D6D6D6",
"E 	c #D5D4D4",
"F 	c #E0301A",
"G 	c #D5D5D5",
"H 	c #757474",
"I 	c #656464",
"J 	c #CACACA",
"K 	c #CBCBCB",
"L 	c #6E6E6E",
"M 	c #8A8989",
"N 	c #B4B4B4",
"O 	c #E42D16",
"P 	c #898888",
"Q 	c #676666",
"R 	c #A6A5A5",
"S 	c #6A6969",
"T 	c #A5A5A5",
"U 	c #C0584B",
"V 	c #E92C14",
"W 	c #F9F9F9",
"X 	c #A4A3A3",
"Y 	c #A7A7A7",
"Z 	c #F3F3F3",
"` 	c #DBDBDB",
" .	c #727272",
"..	c #F4F4F4",
"+.	c #D33825",
"@.	c #D43724",
"#.	c #C5C5C5",
"$.	c #F2F2F2",
"%.	c #878686",
"&.	c #5C5C5C",
"*.	c #D9D8D8",
"=.	c #DD311B",
"-.	c #D9D9D9",
";.	c #C6C6C6",
">.	c #B5B5B5",
",.	c #646363",
"'.	c #787777",
").	c #E7E7E7",
"!.	c #BF9C97",
"~.	c #E32E17",
"{.	c #E42D17",
"].	c #BF9994",
"^.	c #E8E8E8",
"/.	c #636363",
"(.	c #AEADAD",
"_.	c #858484",
":.	c #BFBEBE",
"<.	c #D3D2D2",
"[.	c #6B6A6A",
"}.	c #626161",
"|.	c #838383",
"1.	c #ECECEC",
"2.	c #C15447",
"3.	c #C35041",
"4.	c #EEEEEE",
"5.	c #646464",
"6.	c #6E6D6D",
"7.	c #E6E6E6",
"8.	c #AAAAAA",
"9.	c #605F5F",
"0.	c #C64839",
"a.	c #D03A28",
"b.	c #ABABAB",
"c.	c #A8A7A7",
"d.	c #706F6F",
"e.	c #908F8F",
"f.	c #F1F1F1",
"g.	c #CAC9C9",
"h.	c #C84535",
"i.	c #D53622",
"j.	c #E4E3E3",
"k.	c #D0D0D0",
"l.	c #7E7D7D",
"m.	c #929191",
"n.	c #B2B1B1",
"o.	c #D1D1D1",
"p.	c #DF301A",
"q.	c #C8BEBD",
"r.	c #B8B8B8",
"s.	c #D8D8D8",
"t.	c #F7F7F7",
"u.	c #EDEDED",
"v.	c #4176B4",
"w.	c #266EC3",
"x.	c #4779B3",
"y.	c #3070BC",
"z.	c #1D6FD0",
"A.	c #3370BA",
"B.	c #EBEBEB",
"C.	c #3471BA",
"D.	c #3B73B7",
"E.	c #3C74B6",
"F.	c #507DB2",
"G.	c #7D97B6",
"H.	c #4B7AB3",
"I.	c #DFDFDF",
"J.	c #5B5B5B",
"K.	c #C4C3C3",
"L.	c #216ECA",
"M.	c #708EB4",
"N.	c #4C7BB3",
"O.	c #226EC7",
"P.	c #D2D2D2",
"Q.	c #A9A9A9",
"R.	c #8DA1BA",
"S.	c #5A82B2",
"T.	c #888787",
"U.	c #CDCECF",
"V.	c #1F6ECC",
"W.	c #B0B9C4",
"X.	c #3F75B5",
"Y.	c #BDC1C8",
"Z.	c #BDC2C9",
"`.	c #6B8BB3",
" +	c #B1B0B0",
".+	c #E6E5E5",
"++	c #909090",
"@+	c #949393",
"#+	c #B7B7B7",
"$+	c #5580B2",
"%+	c #B9B9B9",
"&+	c #8FA2B9",
"*+	c #256EC4",
"=+	c #226EC9",
"-+	c #CCCBCB",
";+	c #6F6E6E",
">+	c #7A95B5",
",+	c #246EC5",
"'+	c #3772B8",
")+	c #6F8EB3",
"!+	c #BBBABA",
"~+	c #9E9D9D",
"{+	c #A09F9F",
"]+	c #717070",
"^+	c #B7B6B6",
"/+	c #B9B8B8",
"(+	c #727171",
"_+	c #737272",
":+	c #D4D4D4",
"<+	c #E9E9E9",
"[+	c #ACABAB",
"}+	c #616060",
"|+	c #7D7C7C",
"1+	c #606060",
". . . . . . . . . . . . . . . . . . . . . . . . . . . . . . . . . . . . . . . . . . . . . . . . ",
". . . . . . . . . . . . . . . . . . . . . . . . . . . . . . . . . . . . . . . . . . . . . . . . ",
". . . . . . . . . . . . . . . . . . + @ # $ % % % % $ # @ + . . . . . . . . . . . . . . . . . . ",
". . . . . . . . . . . . . . . . & * * * * * * * * * * * * * * & . . . . . . . . . . . . . . . . ",
". . . . . . . . . . . . . . . & * = - ; > , ' ) ) ' ! ~ { - = * & . . . . . . . . . . . . . . . ",
". . . . . . . . . . . . . & * * % ] ^ / ( _ : : : : _ < / [ } % * * & . . . . . . . . . . . . . ",
". . . . . . . . . . . . | * 1 2 3 4 5 : : : : : : : : : : 5 4 , 6 1 * | . . . . . . . . . . . . ",
". . . . . . . . . . . 1 * 7 8 9 : : : 5 : 5 4 0 0 4 5 5 5 : : : a b 7 * 1 . . . . . . . . . . . ",
". . . . . . . . . . 1 * c d : : : e f g h : i j j i : k l f e : : : m n * 1 . . . . . . . . . . ",
". . . . . . . . . 1 * o p : : : < q - r h 4 s t t s 4 h u v w < : : : / x * 1 . . . . . . . . . ",
". . . . . . . . y * z A : : 5 B C * | D : E F t t F E : G | * C B 5 : : B H * y . . . . . . . . ",
". . . . . . . & * I J : : 5 K L * * M ( : N O t t O N : ( P * * L J 5 : : K Q * & . . . . . . . ",
". . . . . . . * % R : : : d S * $ * T k 5 U V t t V U : W X * $ * S d : : : Y % * . . . . . . . ",
". . . . . . | * o Z : : `  .* $ * 1 q : ..+.t t t t @...: q 1 * $ *  .` : : ..x * | . . . . . . ",
". . . . . & * $ #.: : $.%.* &.+ * - *.: A =.t t t t =.-.: *.v * + &.* %...: : ;.| * & . . . . . ",
". . . . . * = } _ : 5 >.* % + ,.* '.).: !.~.t t t t {.].: ^.o * /.+ % * (.k : _ _.= * . . . . . ",
". . . . . * $ :.: 5 <.[.* }.. 7 * |.1.: 2.t t t t t t 3.: 4.%.* @ . @ * ,.m 5 : w | * . . . . . ",
". . . . 5.* 6.7.: h 8.* $ . . 9.* R W : 0.t t t t t t a.a k b.* & . . y * c.k : ^.d.* 5.. . . . ",
". . . . }.* e._ : f.; * 1 1 1 1 * g.: : h.t t t t t t i.j.: k.= * 1 1 1 * l.1.: _ m.* }.. . . . ",
". . . . # * n.: : 3 * * * * * * * o.: ( p.t t t t t t t q.: D * * * * * * * r._ : N * # . . . . ",
". . . . $ * m : : f.s.-.-.-.-.-.` 9 : k / -.-.-.-.-.-.B f.: t.p -.-.-.-.-.*.1.5 : o.* $ . . . . ",
". . . . % * j.: : : : : : : : : : : : : : : : : : : : : : : : : : : : : : : : : : 7.* % . . . . ",
". . . . = * Z : : : : : : : : : : : : : : : : : : : : : : : : : : : : : : : : : : 4 * = . . . . ",
". . . . * * _ : u.v.w.w.w.w.w.w.w.w.w.w.w.w.w.w.w.w.w.w.w.w.w.w.w.w.w.w.w.w.x.( : 5 * * . . . . ",
". . . . * * : : 0 y.z.z.z.z.z.z.z.z.z.z.z.z.z.z.z.z.z.z.z.z.z.z.z.z.z.z.z.z.A.B.: : * * . . . . ",
". . . . * * 5 : B.A.z.z.z.z.z.z.z.z.z.z.z.z.z.z.z.z.z.z.z.z.z.z.z.z.z.z.z.z.C.B.: : * * . . . . ",
". . . . * * a : u.D.z.z.z.z.z.z.z.z.z.z.z.z.z.z.z.z.z.z.z.z.z.z.z.z.z.z.z.z.E.u.: h * * . . . . ",
". . . . = * u.: $.F.z.z.z.z.z.z.z.z.z.z.z.z.z.z.z.z.z.z.z.z.z.z.z.z.z.z.z.z.x.f.: < * = . . . . ",
". . . . 1 * B : k G.z.z.z.z.z.z.z.z.z.z.z.z.z.z.z.z.z.z.z.z.z.z.z.z.z.z.z.z.H.$.: I.* J.. . . . ",
". . . . | * K.: : k.L.z.z.z.z.z.z.z.z.z.z.z.z.z.z.z.z.z.z.z.z.z.z.z.z.z.z.z.M.a : ;.* y . . . . ",
". . . . 9.* R : : f.N.z.z.z.z.z.z.z.z.z.z.z.z.z.z.z.z.z.z.z.z.z.z.z.z.z.z.O.P.: : Q.* 9.. . . . ",
". . . . 7 * _.W : _ R.z.z.z.z.z.z.z.z.z.z.z.z.z.z.z.z.z.z.z.z.z.z.z.z.z.z.S.4 : k T.* @ . . . . ",
". . . . + * Q A : : U.V.z.z.z.z.z.z.z.z.z.z.z.z.z.z.z.z.z.z.z.z.z.z.z.z.z.W.5 : B - * + . . . . ",
". . . . . * 1 8.: : ) X.z.z.z.z.z.z.z.z.z.z.z.z.z.z.z.z.z.z.z.z.z.z.z.z.E.^.: : u 1 * . . . . . ",
". . . . . & * z f.: : Y.L.z.z.z.z.z.z.z.z.z.z.z.z.z.z.z.z.z.z.z.z.z.z.L.Z.: : ..c * & . . . . . ",
". . . . . . * % r : : a `.z.z.z.z.z.z.z.z.z.z.z.z.z.z.z.z.z.z.z.z.z.z.`.a : :  +1 * . . . . . . ",
". . . . . . & * L j.: : ( x.z.z.z.z.z.z.z.z.z.z.z.z.z.z.z.z.z.z.z.z.x.( : : .+d.* & . . . . . . ",
". . . . . . . * = ++: : : f v.z.z.z.z.z.z.z.z.z.z.z.z.z.z.z.z.z.z.v.f : : : @+= * . . . . . . . ",
". . . . . . . & * | #+: : : .+$+z.z.z.z.z.z.z.z.z.z.z.z.z.z.z.z.$+.+: : : %+| * & . . . . . . . ",
". . . . . . . . | * - g.: : : f.&+*+z.z.z.z.z.z.z.z.z.z.z.z.O.&+f.: : : 3 S * | . . . . . . . . ",
". . . . . . . . . $ * 6.K : : : k I.x.z.z.z.z.z.z.z.z.z.=+N.p k : : : -+;+* $ . . . . . . . . . ",
". . . . . . . . . . $ * Q r.: : : : f./ >+,+z.z.V.'+)+W.B.f.: : : : !+- * $ . . . . . . . . . . ",
". . . . . . . . . . . y * # ~+1.: : : : k Z ( ( ( 4 k e : : : : u.{+# * $ . . . . . . . . . . . ",
". . . . . . . . . . . . | * % ]+^+B.e : : : : : : : : : : e B./+(+% * | . . . . . . . . . . . . ",
". . . . . . . . . . . . . & * * = _+b.:+<+9 5 : : 5 9 <+G [+_+= * * & . . . . . . . . . . . . . ",
". . . . . . . . . . . . . . . & * * }+|+T w :+p p :+w T l.}.= * & . . . . . . . . . . . . . . . ",
". . . . . . . . . . . . . . . . . | * * * * * * * * * * * * * & . . . . . . . . . . . . . . . . ",
". . . . . . . . . . . . . . . . . . + /.1+| &.1 1 &.| 1+/.+ . . . . . . . . . . . . . . . . . . "};
