/* XPM */
static char * buttonHideMainWindow[] = {
"48 48 152 2",
"  	c None",
". 	c #666666",
"+ 	c #777777",
"@ 	c #AAAAAA",
"# 	c #EBEBEB",
"$ 	c #EFEFEF",
"% 	c #EDEDED",
"& 	c #D9D9D9",
"* 	c #535353",
"= 	c #353535",
"- 	c #4B4B4B",
"; 	c #727272",
"> 	c #B0B0B0",
", 	c #E7E7E7",
"' 	c #FFFFFF",
") 	c #7D7D7D",
"! 	c #5F5F5F",
"~ 	c #EAEAEA",
"{ 	c #434343",
"] 	c #3F3F3F",
"^ 	c #ECECEC",
"/ 	c #BDD5F1",
"( 	c #73A6E2",
"_ 	c #488BD9",
": 	c #4085D7",
"< 	c #4D8DDA",
"[ 	c #7DACE4",
"} 	c #CBDEF4",
"| 	c #E5EFFA",
"1 	c #5F99DE",
"2 	c #1D6FD0",
"3 	c #71A5E2",
"4 	c #F3F7FC",
"5 	c #E4EEF9",
"6 	c #3F84D7",
"7 	c #5291DB",
"8 	c #F2F7FC",
"9 	c #FCFDFE",
"0 	c #5693DC",
"a 	c #72A5E2",
"b 	c #F9F9F9",
"c 	c #B1CDEF",
"d 	c #CEE0F5",
"e 	c #5895DC",
"f 	c #78A9E3",
"g 	c #EFF5FC",
"h 	c #2F7AD4",
"i 	c #4689D8",
"j 	c #FDFEFF",
"k 	c #707070",
"l 	c #DEEAF8",
"m 	c #2071D1",
"n 	c #347ED5",
"o 	c #E9E9E9",
"p 	c #545454",
"q 	c #C8C8C8",
"r 	c #DFEBF8",
"s 	c #2172D1",
"t 	c #357ED5",
"u 	c #F3F8FD",
"v 	c #DADADA",
"w 	c #327DD4",
"x 	c #498BD9",
"y 	c #FEFEFF",
"z 	c #629BDE",
"A 	c #81AFE5",
"B 	c #2171D1",
"C 	c #D7E6F7",
"D 	c #669DDF",
"E 	c #83B0E5",
"F 	c #5190DB",
"G 	c #689FE0",
"H 	c #FAFCFE",
"I 	c #F4F8FD",
"J 	c #7AAAE3",
"K 	c #2272D1",
"L 	c #2977D3",
"M 	c #8CB6E7",
"N 	c #D5E4F6",
"O 	c #8FB8E8",
"P 	c #619ADE",
"Q 	c #659DDF",
"R 	c #99BEEA",
"S 	c #E0EBF9",
"T 	c #DAE7F7",
"U 	c #E4EDF9",
"V 	c #E6EFFA",
"W 	c #E7F0FA",
"X 	c #6CA1E0",
"Y 	c #7EADE4",
"Z 	c #EEF4FB",
"` 	c #2A77D3",
" .	c #8DB6E7",
"..	c #E9F1FA",
"+.	c #4A8CD9",
"@.	c #3E84D7",
"#.	c #B5D0F0",
"$.	c #FBFDFE",
"%.	c #A0C3EB",
"&.	c #317CD4",
"*.	c #6FA4E1",
"=.	c #F9FBFE",
"-.	c #5593DC",
";.	c #4488D8",
">.	c #5B97DD",
",.	c #3981D6",
"'.	c #84B1E5",
").	c #94BBE9",
"!.	c #C5DAF3",
"~.	c #EBF2FB",
"{.	c #2C79D3",
"].	c #5391DB",
"^.	c #A1C3EB",
"/.	c #1E70D0",
"(.	c #D4E3F6",
"_.	c #97BDE9",
":.	c #4086D7",
"<.	c #307BD4",
"[.	c #5995DD",
"}.	c #5A96DD",
"|.	c #5D98DD",
"1.	c #91B9E8",
"2.	c #4F8FDA",
"3.	c #F1F6FC",
"4.	c #DCE9F8",
"5.	c #6BA1E0",
"6.	c #2775D2",
"7.	c #AAC9ED",
"8.	c #7CABE4",
"9.	c #5C97DD",
"0.	c #4588D8",
"a.	c #337DD5",
"b.	c #3C83D6",
"c.	c #639CDF",
"d.	c #86B2E6",
"e.	c #B8D2F0",
"f.	c #EDF4FB",
"g.	c #DCDCDC",
"h.	c #CCCCCC",
"i.	c #FBFBFB",
"j.	c #AEAEAE",
"k.	c #7F7F7F",
"l.	c #BCBCBC",
"m.	c #F3F3F3",
"n.	c #FEFEFE",
"o.	c #FDFDFD",
"p.	c #EEEEEE",
"q.	c #A1A1A1",
"r.	c #6B6B6B",
"s.	c #676767",
"t.	c #747474",
"u.	c #6A6A6A",
". . . . . . . . . . . . . . . . . . . . . . . . . . . . . . . . . . . . . . . . . . . . . . . . ",
". . . . . . . . . . . . . . . . . . . . . . . . . . . . . . . . . . . . . . . . . . . . . . . . ",
". . . . . . . . . . . . . . . . . . . . . . . . . . . . . . . . . . . . . . . . . . . . . . . . ",
". . + @ # $ % % % % % % % % % % % % % % % % % % % % % % % % % % & * = = = = = = = = = = - ; . . ",
". . > , ' ' ' ' ' ' ' ' ' ' ' ' ' ' ' ' ' ' ' ' ' ' ' ' ' ' ' ' ) = = = = = = = = = = = = ! . . ",
". . ~ ' ' ' ' ' ' ' ' ' ' ' ' ' ' ' ' ' ' ' ' ' ' ' ' ' ' ' ' ' { = = = = = = = = = = = = ] . . ",
". . % ' ' ' ' ' ' ' ' ' ' ' ' ' ' ' ' ' ' ' ' ' ' ' ' ' ' ' ' ' = = = = = = = = = = = = = = . . ",
". . ^ ' ' ' ' ' ' ' ' ' ' ' ' ' ' ' ' ' ' ' ' ' ' ' ' ' ' ' ' ' = = = = = = = = = = = = = = . . ",
". . ^ ' ' ' ' ' ' ' ' ' ' ' ' ' ' ' ' ' ' ' ' ' ' ' ' ' ' ' ' ' = = = = = = = = = = = = = = . . ",
". . ^ ' ' ' ' ' ' ' ' ' ' ' ' ' / ( _ : < [ } ' ' ' ' ' ' ' ' ' = = = = = = = = = = = = = = . . ",
". . ^ ' ' ' ' ' ' ' ' ' ' ' | 1 2 2 2 2 2 2 2 3 4 ' ' ' ' ' ' ' = = = = = = = = = = = = = = . . ",
". . ^ ' ' ' ' ' ' ' ' ' ' 5 6 2 2 2 2 2 2 2 2 2 7 8 ' ' ' ' ' ' = = = = = = = = = = = = = = . . ",
". . ^ ' ' ' ' ' ' ' ' ' 9 0 2 2 2 2 2 2 2 2 2 2 2 a ' ' ' ' ' ' = = b b b b b b b b b b = = . . ",
". . ^ ' ' ' ' ' ' ' ' ' c 2 2 2 2 2 2 2 2 2 2 2 2 2 d ' ' ' ' ' = = b b b b b b b b b b = = . . ",
". . ^ ' ' ' ' ' ' ' ' ' e 2 2 2 2 2 2 2 2 2 2 2 2 2 f ' ' ' ' ' { = = = = = = = = = = = = ] . . ",
". . ^ ' ' ' ' ' ' ' ' g h 2 2 2 2 2 2 2 2 2 2 2 2 2 i j ' ' ' ' ) = = = = = = = = = = = = k . . ",
". . ^ ' ' ' ' ' ' ' ' l m 2 2 2 2 2 2 2 2 2 2 2 2 2 n 4 ' ' ' ' o p = = = = = = = = = = p q . . ",
". . ^ ' ' ' ' ' ' ' ' r s 2 2 2 2 2 2 2 2 2 2 2 2 2 t u ' ' ' ' ' ' ' ' ' ' ' ' ' ' ' ' ' v . . ",
". . ^ ' ' ' ' ' ' ' ' 8 w 2 2 2 2 2 2 2 2 2 2 2 2 2 x y ' ' ' ' ' ' ' ' ' ' ' ' ' ' ' ' ' v . . ",
". . ^ ' ' ' ' ' ' ' ' ' z 2 2 2 2 2 2 2 2 2 2 2 2 2 A ' ' ' ' ' ' ' ' ' ' ' ' ' ' ' ' ' ' v . . ",
". . ^ ' ' ' ' ' ' ' ' ' / 2 2 2 2 2 2 2 2 2 2 2 2 B C ' ' ' ' ' ' ' ' ' ' ' ' ' ' ' ' ' ' v . . ",
". . ^ ' ' ' ' ' ' ' ' ' ' D 2 2 2 2 2 2 2 2 2 2 2 E ' ' ' ' ' ' ' ' ' ' ' ' ' ' ' ' ' ' ' v . . ",
". . ^ ' ' ' ' ' ' ' ' ' ' g F 2 2 2 2 2 2 2 2 2 G H ' ' ' ' ' ' ' ' ' ' ' ' ' ' ' ' ' ' ' v . . ",
". . ^ ' ' ' ' ' ' ' ' ' ' ' I J K 2 2 2 2 2 L M j ' ' ' ' ' ' ' ' ' ' ' ' ' ' ' ' ' ' ' ' v . . ",
". . ^ ' ' ' ' ' ' ' ' ' ' ' ' ' N O P 7 Q R S ' ' ' ' ' ' ' ' ' ' ' ' ' ' ' ' ' ' ' ' ' ' v . . ",
". . ^ ' ' ' ' ' ' ' ' ' ' T U ' ' ' ' ' ' ' ' ' V W ' ' ' ' ' ' ' ' ' ' ' ' ' ' ' ' ' ' ' v . . ",
". . ^ ' ' ' ' ' ' ' ' g X B L Y Z ' ' ' ' ' U ( L `  .j ' ' ' ' ' ' ' ' ' ' ' ' ' ' ' ' ' v . . ",
". . ^ ' ' ' ' ' ' ' ..+.2 2 2 2 @.#.$.' 4 %.&.2 2 2 2 *.9 ' ' ' ' ' ' ' ' ' ' ' ' ' ' ' ' v . . ",
". . ^ ' ' ' ' ' ' =.-.2 2 2 2 2 2 2 ;.>.,.2 2 2 2 2 2 2 '.' ' ' ' ' ' ' ' ' ' ' ' ' ' ' ' v . . ",
". . ^ ' ' ' ' ' ' ).2 2 2 2 2 2 2 2 2 2 2 2 2 2 2 2 2 2 2 !.' ' ' ' ' ' ' ' ' ' ' ' ' ' ' v . . ",
". . ^ ' ' ' ' ' ~.{.2 2 2 2 2 2 2 2 2 2 2 2 2 2 2 2 2 2 2 ].j ' ' ' ' ' ' ' ' ' ' ' ' ' ' v . . ",
". . ^ ' ' ' ' ' ^.2 2 2 2 2 2 2 2 2 2 2 2 2 2 2 2 2 2 2 2 /.(.' ' ' ' ' ' ' ' ' ' ' ' ' ' v . . ",
". . ^ ' ' ' ' ' z 2 2 2 2 2 2 2 2 2 2 2 2 2 2 2 2 2 2 2 2 2 _.' ' ' ' ' ' ' ' ' ' ' ' ' ' v . . ",
". . ^ ' ' ' ' ' :.2 2 2 2 2 2 2 2 2 2 2 2 2 2 2 2 2 2 2 2 2 *.' ' ' ' ' ' ' ' ' ' ' ' ' ' v . . ",
". . ^ ' ' ' ' ' <.2 2 2 2 2 2 2 2 2 2 2 2 2 2 2 2 2 2 2 2 2 [.' ' ' ' ' ' ' ' ' ' ' ' ' ' v . . ",
". . ^ ' ' ' ' ' <.2 2 2 2 2 2 2 2 2 2 2 2 2 2 2 2 2 2 2 2 2 }.' ' ' ' ' ' ' ' ' ' ' ' ' ' v . . ",
". . ^ ' ' ' ' ' |.2 2 2 2 2 2 2 2 2 2 2 2 2 2 2 2 2 2 2 2 2 1.' ' ' ' ' ' ' ' ' ' ' ' ' ' v . . ",
". . ^ ' ' ' ' ' N <.2 2 2 2 2 2 2 2 2 2 2 2 2 2 2 2 2 2 2 2.3.' ' ' ' ' ' ' ' ' ' ' ' ' ' v . . ",
". . ^ ' ' ' ' ' ' 4.5.6.2 2 2 2 2 2 2 2 2 2 2 2 2 2 2 <.'.8 ' ' ' ' ' ' ' ' ' ' ' ' ' ' ' v . . ",
". . ^ ' ' ' ' ' ' ' ' S 7.8.9.0.,.a.w h a.n b.x c.d.e.f.' ' ' ' ' ' ' ' ' ' ' ' ' ' ' ' ' v . . ",
". . ^ ' ' ' ' ' ' ' ' ' ' ' ' ' ' ' ' ' ' ' ' ' ' ' ' ' ' ' ' ' ' ' ' ' ' ' ' ' ' ' ' ' ' v . . ",
". . ^ ' ' ' ' ' ' ' ' ' ' ' ' ' ' ' ' ' ' ' ' ' ' ' ' ' ' ' ' ' ' ' ' ' ' ' ' ' ' ' ' ' ' v . . ",
". . ^ ' ' ' ' ' ' ' ' ' ' ' ' ' ' ' ' ' ' ' ' ' ' ' ' ' ' ' ' ' ' ' ' ' ' ' ' ' ' ' ' ' ' g.. . ",
". . h.i.' ' ' ' ' ' ' ' ' ' ' ' ' ' ' ' ' ' ' ' ' ' ' ' ' ' ' ' ' ' ' ' ' ' ' ' ' ' ' ' ~ j.. . ",
". . k.l.m.n.n.n.n.n.n.' n.n.n.n.n.n.n.n.n.n.' ' n.n.n.n.' ' ' ' ' ' n.n.n.n.' n.n.n.o.p.q.r.. . ",
". . s.t.. . . . . . . . . . . . . . . . . . . . . . . . . . . . . . . . . . . . . . . . u.. . . ",
". . . . . . . . . . . . . . . . . . . . . . . . . . . . . . . . . . . . . . . . . . . . . . . . ",
". . . . . . . . . . . . . . . . . . . . . . . . . . . . . . . . . . . . . . . . . . . . . . . . "};
