/* XPM */
static const char *buttonDragSelected[] = {
/* columns rows colors chars-per-pixel */
"48 48 256 2",
"   c #000000",
".  c #0D0404",
"X  c #1A0808",
"o  c #1E1111",
"O  c #0B0B35",
"+  c #070738",
"@  c #131333",
"#  c #191B35",
"$  c #14142C",
"%  c #230C0C",
"&  c #2A0C0F",
"*  c #260505",
"=  c #211212",
"-  c #2F1E1E",
";  c #390808",
":  c #3D1C1C",
">  c #2A2A33",
",  c #3F2B2B",
"<  c #382626",
"1  c #33203F",
"2  c #3D3333",
"3  c #3D3B3B",
"4  c #353131",
"5  c #26282C",
"6  c #070854",
"7  c #121258",
"8  c #090968",
"9  c #0C0C79",
"0  c #101077",
"q  c #332550",
"w  c #272A7C",
"e  c #312E6A",
"r  c #4E0B0B",
"t  c #441616",
"y  c #401B1B",
"u  c #5E0A0A",
"i  c #5D1212",
"p  c #5A1E1E",
"a  c #511515",
"s  c #452626",
"d  c #442D2D",
"f  c #4D2336",
"g  c #413E3E",
"h  c #483232",
"j  c #542D2D",
"k  c #5D2626",
"l  c #532222",
"z  c #503C3C",
"x  c #583535",
"c  c #6F0B0B",
"v  c #6F1010",
"b  c #640813",
"n  c #661D28",
"m  c #652222",
"M  c #6F2525",
"N  c #6B3A3A",
"B  c #683535",
"V  c #713A3A",
"C  c #513043",
"Z  c #444242",
"A  c #4C4C4C",
"S  c #474949",
"D  c #4C4059",
"F  c #5B4B4B",
"G  c #564646",
"H  c #5B4250",
"J  c #545453",
"K  c #565858",
"L  c #5A5656",
"P  c #5C5C5C",
"I  c #595957",
"U  c #4F4B72",
"Y  c #56476A",
"T  c #6B4C4C",
"R  c #6D4242",
"E  c #625C5C",
"W  c #695A5B",
"Q  c #6A5353",
"!  c #794E53",
"~  c #7B5757",
"^  c #7D4444",
"/  c #656565",
"(  c #6B6B6B",
")  c #696363",
"_  c #786666",
"`  c #737474",
"'  c #7C7C7C",
"]  c #787373",
"[  c #1A1A8C",
"{  c #131385",
"}  c #1F1F92",
"|  c #202080",
" . c #222293",
".. c #2B2B9B",
"X. c #30309E",
"o. c #3434A2",
"O. c #3B3BA7",
"+. c #3B3BA9",
"@. c #424492",
"#. c #5B588B",
"$. c #4242AE",
"%. c #4A4AB4",
"&. c #4E4EB8",
"*. c #5657BB",
"=. c #626196",
"-. c #7174B3",
";. c #6365B1",
":. c #5C5CC3",
">. c #6062C4",
",. c #6666CA",
"<. c #6F6FD3",
"1. c #7373D3",
"2. c #8E0505",
"3. c #8B0B0E",
"4. c #930E0E",
"5. c #852729",
"6. c #863737",
"7. c #9A2323",
"8. c #982B2B",
"9. c #993D3D",
"0. c #A70303",
"q. c #B40202",
"w. c #B2100F",
"e. c #B41B1B",
"r. c #AD2B2B",
"t. c #AB2727",
"y. c #AC3434",
"u. c #A33838",
"i. c #BB2323",
"p. c #B63636",
"a. c #854747",
"s. c #944545",
"d. c #9F4545",
"f. c #9C5656",
"g. c #9C6464",
"h. c #996A6A",
"j. c #957979",
"k. c #887777",
"l. c #AA4D4D",
"z. c #A14D4D",
"x. c #A85555",
"c. c #B34D4D",
"v. c #BC4F4F",
"b. c #B75252",
"n. c #A76666",
"m. c #A27F7F",
"M. c #BD6E6E",
"N. c #BC7979",
"B. c #C30D0D",
"V. c #C31515",
"C. c #D2100F",
"Z. c #C42626",
"A. c #CC3432",
"S. c #DD2E2E",
"D. c #DC2121",
"F. c #D23C3C",
"G. c #EA1919",
"H. c #FE0A09",
"J. c #F00808",
"K. c #FD1111",
"L. c #FD1B1B",
"P. c #F51010",
"I. c #E82524",
"U. c #E33535",
"Y. c #FC2626",
"T. c #FC2C2C",
"R. c #FC3434",
"E. c #FC3B3B",
"W. c #F23838",
"Q. c #C34E4E",
"!. c #CA4545",
"~. c #DF4444",
"^. c #DE5F5F",
"/. c #CC5959",
"(. c #CD6161",
"). c #C26968",
"_. c #C97171",
"`. c #DC6262",
"'. c #DE6C6B",
"]. c #D26060",
"[. c #DC7B7B",
"{. c #DB7373",
"}. c #E44444",
"|. c #E55656",
" X c #F54040",
".X c #FB4242",
"XX c #FB4A4A",
"oX c #F54E4D",
"OX c #FB5252",
"+X c #FB5E5E",
"@X c #F35B5B",
"#X c #E57373",
"$X c #E37B7B",
"%X c #F66B6B",
"&X c #FA6565",
"*X c #FA6C6C",
"=X c #F3706F",
"-X c #F57373",
";X c #F77979",
":X c #F97373",
">X c #F97B7B",
",X c #ED6767",
"<X c #848484",
"1X c #8C8D8D",
"2X c #978C8C",
"3X c #A48787",
"4X c #A59B9B",
"5X c #B78989",
"6X c #B39C9C",
"7X c #B59595",
"8X c #B5A3A3",
"9X c #BBB4B4",
"0X c #8383E3",
"qX c #9595F3",
"wX c #A1A2FD",
"eX c #C19492",
"rX c #D48282",
"tX c #D78F8F",
"yX c #DE8787",
"uX c #D99090",
"iX c #DB9E9D",
"pX c #D69B9B",
"aX c #C7B7B7",
"sX c #D6AAAA",
"dX c #D4B6B6",
"fX c #EC8585",
"gX c #ED8F8F",
"hX c #F68484",
"jX c #F68D8D",
"kX c #F98383",
"lX c #F88989",
"zX c #F59595",
"xX c #F59C9C",
"cX c #FA9494",
"vX c #F89E9E",
"bX c #E49898",
"nX c #EDA2A2",
"mX c #E9B1B1",
"MX c #F5A3A3",
"NX c #F4AAAA",
"BX c #F8A8A8",
"VX c #F4B2B2",
"CX c #F3BBBB",
"ZX c #D4CDCD",
"AX c #DACCCC",
"SX c #DFD8D8",
"DX c #E5C5C5",
"FX c #E4DDDD",
"GX c #EAD4D4",
"HX c #F3C5C5",
"JX c #F2CCCC",
"KX c #F9CECE",
"LX c #F2D4D4",
"PX c #F1DBDB",
"IX c #EBE0E0",
"UX c #F2E3E3",
/* pixels */
"/ / / / / / / / / / / / / / / / / / / / / / / / / / / / / / / / / / / / / / / / / / / / / / / / ",
"/ / / / / / / / / / / / / / / / / / / / / / / / / / / / / / / / / / / / / / / / / / / / / / / / ",
"/ / / / / / / / / / / / / / / / / / / ( / / P / / / / ( / / / / / / / / / / / / / / / / / / / / ",
"/ / / / / / / / / / / / / / / / / / K S 3 2 d h 4 4 3 A P / / / / / / / / / / / / / / / / / / / ",
"/ / / / / / / / / / / / / / / / A 2 j 6.c./.`.`.s.V x.N h 3 K / / / / / / / / / / / / / / / / / ",
"/ / / / / / / / / / / / / / K 5 : v.,X*X:X;X;XkXM.^ hXhX'.z.j 3 P / / / / / / / / / / / / / / / ",
"/ / / / / / / / / / / / ) Z @ 6 f %X;X;X>XhXhXlX{.N fXlXkXkX#Xs., A / / / / / / / / / / / / / / ",
"/ / / / / / / / / / / / 3 O 0 } 1 {.kXhXhXlXjXjXgXR rXzXlXhXkX>X(.j Z / / / / / / / / / / / / / ",
"/ / / / / / / / / / / 3 + 9 } X.q ).jXjXjXzXzXxXxX~ N.xXzXjXjXhXkX{.B 3 / / / / / / / / / / / / ",
"/ / / / / / / / / / S O 9 } ..$.e f.cXzXxXxXMXMXBXh.h.NXMXxXxXjXlXlX#XN Z / / / / / / / / / / / ",
"/ / / / / / / / / P $ 8 [ ..+.%.@.! xXMXMXNXNXNXVX5Xg.NXNXMXxXxXzXjXlX$Xx S / / / / / / / / / / ",
"/ / / / / / / / / > 6 {  .o.%.:.*.H nXNXNXVXVXCXCXsXL mXCXNXNXMXxXxXcXcX_.d I / / / / / / / / / ",
"/ / / / / / / / A O 0  .o.%.:.,.1.D iXCXCXCXCXHXHXDXQ sXCXCXVXVXnXuX_.f.a.s 3 ( / / / / / / / / ",
"/ / / / / / / / > 8  .X.$.&.,.1.0XU eXHXHXHXHXJXKXLX] 7XdX7Xj.f.T T _ j.6XaXE / / / / / / / / / ",
"/ / / / / / / K @ [ ..+.&.>.1.0XqX=.m.KXKXJXDXdX8X2XG z T ~ h.N.pXmXCXJXJXPX8XA ( / / / / / / / ",
"/ / / / / / ( 3 7 ..+.&.:.<.0XqXwX-.W 6Xk._ Q R ^ d.M.[.gXxXNXNXVXCXHXHXJXLXGXE / ( / / / / / / ",
"/ / / / / ) ) 5 w O.&.*.>.;.;.#.Y C k 6.d.Q.^.%X>XkXjXjXzXxXMXNXVXCXCXHXJXLXPX4XJ ( ( / / / / / ",
"/ / / / / ) P # w w e q f n 5.t.A.}.oXOX+X&X*X:X;XkXhXjXzXxXMXNXVXVXCXJXJXLXPXZXJ ( / / / / / / ",
"/ / / / / / J & b 3.w.C.G.T.R.E..XXXOXOX+X&X%X%X;XkXhXjXzXxXMXNXVXCXHXHXJXLXPXUX( ( / / / / / / ",
"/ / / / / / S 2.H.H.L.Y.Y.T.R.E..X.XOX|.u.^.%X:X;X>XhXjXzXxXMXNXmXVXHXHXJXLXPXUX2X/ ( / / / / / ",
"/ / / / / ( q 0.H.K.L.L.Y.T.R.E..XXX}.p   l ^.:X;XhXlXjXzXxXMXNXVXCXCXHXJXLXPXUX9XI ` / / / / / ",
"/ / / / / / g q.H.K.L.L.Y.T.R.W..XF.t       : ].;XhXfXjXzXxXMXNXNXCXCXHXJXGXPXUXZXI ` / / / / / ",
"/ / / / / / 2 q.H.K.L.L.Y.T.R.E..X8.p %   = k s.-XhXlXjXzXxXMXNXVXCXCXHXJXLXPXUXSXI ] / / / / / ",
"/ / / / / / 3 q.H.K.L.L.Y.Y.R.E..XXXoXm   k %X-X-XhXhXjXzXxXMXNXVXCXCXHXJXLXGXUXFX/ ' / / / / / ",
"/ / / / / / Z 0.H.K.L.L.Y.T.R.E.E.XXOXm   k %X:X;XhXlXjXzXxXMXNXVXCXCXHXJXLXPXUXIXP ' / / / / / ",
"/ / / / / ( S 2.H.K.L.L.Y.I.W.E. XXXOXm   k %X:X-XhXfX$XzXxXMXNXmXVXCXJXJXLXPXUXIX/ ' / / / / / ",
"/ / / / / / J c H.K.L.L.D.i S.E..XXXOXm   k *X:X;XkX{.x rXvXMXNXVXCXCXHXJXLXPXUXSXP ' ( / / / / ",
"/ / / / / / P t J.H.L.G.r X Z.U.F.~.}.p   l `.`.'.{._.o s uXMXNXVXVXHXHXJXLXPXUXZXP ' / / / / / ",
"/ / / / / / / , B.H.G.u     X * * % % .   . = = = = o     x bXNXVXCXCXHXJXLXPXUXaXP ' / / / / / ",
"/ / / / / / / Z 0.K.G.;                                   - tXNXVXVXCXJXJXLXPXUX4X( ' / / / / / ",
"/ / / / / / / K i P.L.V.* X 7.t.r.y.y.t   : l.c.x.x.f.X = N.BXNXVXCXCXHXJXLXPXUX` ' ( / / / / / ",
"/ / / / / / / / , B.L.L.e.; U.E..XXXOXM   m *X:X>XkX$X< n.xXMXNXVXCXCXJXJXLXIXAXP <X/ / / / / / ",
"/ / / / / / / / J v L.L.Y.Z.U.E..XXXXXm   k %X:X;XkX$XM.zXxXMXNXNXCXCXHXJXLXPX6X/ ' / / / / / / ",
"/ / / / / / / / / , w.L.Y.T.R.E..XXXOXm   k %X:X;X>XlXjXzXxXMXNXVXCXCXHXJXLXGX/ ' ` / / / / / / ",
"/ / / / / / / / / J a I.Y.T.R.E..XXXOXm   k *X:X;XhXhXjXzXxXMXNXmXCXHXHXJXPX6XP 1X/ / / / / / / ",
"/ / / / / / / / / / g 4.Y.T.R.E. Xp.u.t   : z.c.-XhXlXjXzXxXMXNXVXCXCXHXJXDXP <X` / / / / / / / ",
"/ / / / / / / / / / / 2 e.T.T.E..Xy.*       o l.;XhXlXjXzXxXMXNXVXVXCXJXJXk.( <X/ / / / / / / / ",
"/ / / / / / / / / / ) P s i.R.E..XXXp.&   % c.:X;X;XfXjXzXxXMXNXNXCXCXJX3XK 1X( / / / / / / / / ",
"/ / / / / / / / / / / / P s i.E..XXXOX!.k Q.*X-X;XhXhXjXzXxXMXNXVXCXCX5XJ 1X` ) / / / / / / / / ",
"/ / / / / / / / / / / / ( P h 7. XXXXX@X@X&X*X-X;XhXhXjXzXxXMXNXVXCXm.J 1X] / / / / / / / / / / ",
"/ / / / / / / / / / / / / / / Z M F.oX+X+X&X*X:X;X>XlXjXzXxXMXVXiX~ I 1X` / / / / / / / / / / / ",
"/ / / / / / / / / / / / / / ) ( I z 5.!.@X&X*X:X;XhXlXjXzXxXuXh.F ` 1X` / / / / / / / / / / / / ",
"/ / / / / / / / / / / / / / / / ( ( P Z B s.v.].'.{.{._.n.! F ( 1X' / / / / / / / / / / / / / / ",
"/ / / / / / / / / / / / / / / / / / / ` ( E F F G G F P / ' <X' ( / / / / / / / / / / / / / / / ",
"/ / / / / / / / / / / / / / / / / / / / / ( ` ` ' ' ' ' ` ( ( / / / / / / / / / / / / / / / / / ",
"/ / / / / / / / / / / / / / / / / / / / / / / / ) ) / / / / / / / / / / / / / / / / / / / / / / ",
"/ / / / / / / / / / / / / / / / / / / / / / / / / / / / / / / / / / / / / / / / / / / / / / / / ",
"/ / / / / / / / / / / / / / / / / / / / / / / / / / / / / / / / / / / / / / / / / / / / / / / / "
};
