/* XPM */
static char *buttonLeftSelected[] = {
/* columns rows colors chars-per-pixel */
"48 48 256 2",
"   c #070738",
".  c #0B0B35",
"X  c #14142C",
"o  c #131333",
"O  c #191B35",
"+  c #2B090F",
"@  c #3D1E1F",
"#  c #26282C",
"$  c #272734",
"%  c #2C2C33",
"&  c #3F2B2B",
"*  c #352B2B",
"=  c #33203F",
"-  c #3D3333",
";  c #3D3B3B",
":  c #353131",
">  c #070854",
",  c #121258",
"<  c #07076C",
"1  c #0B0B63",
"2  c #0A0A77",
"3  c #0E0E7B",
"4  c #101077",
"5  c #2A2352",
"6  c #3C274D",
"7  c #23277F",
"8  c #2C2E79",
"9  c #302F6F",
"0  c #322C65",
"q  c #5C1414",
"w  c #511515",
"e  c #452626",
"r  c #432E2E",
"t  c #4D2336",
"y  c #433030",
"u  c #413E3E",
"i  c #4C3434",
"p  c #542D2D",
"a  c #5C2425",
"s  c #503C3C",
"d  c #583333",
"f  c #6F0B0B",
"g  c #640813",
"h  c #6F1010",
"j  c #661D28",
"k  c #6F2525",
"l  c #673636",
"z  c #6B3A3A",
"x  c #693434",
"c  c #713A3A",
"v  c #513043",
"b  c #444242",
"n  c #474949",
"m  c #4C4C4C",
"M  c #4C4059",
"N  c #5A4747",
"B  c #5B4B4B",
"V  c #524545",
"C  c #5B4250",
"Z  c #545453",
"A  c #565858",
"S  c #5A5656",
"D  c #595957",
"F  c #5C5C5C",
"G  c #4F4B72",
"H  c #56476A",
"J  c #6D4242",
"K  c #6B4C4C",
"L  c #625C5C",
"P  c #695A5B",
"I  c #6A5353",
"U  c #7D4444",
"Y  c #794E53",
"T  c #775151",
"R  c #7E5353",
"E  c #7B5C5C",
"W  c #656565",
"Q  c #6B6B6B",
"!  c #696363",
"~  c #776060",
"^  c #7D6060",
"/  c #766C6C",
"(  c #737474",
")  c #7C7C7C",
"_  c #787373",
"`  c #101081",
"'  c #1A1A8C",
"]  c #151589",
"[  c #1F1F92",
"{  c #202080",
"}  c #222293",
"|  c #2B2B9B",
" . c #30309E",
".. c #3434A2",
"X. c #3B3BA7",
"o. c #3B3BA9",
"O. c #424492",
"+. c #5B588B",
"@. c #4242AE",
"#. c #4A4AB4",
"$. c #4E4EB8",
"%. c #5454BC",
"&. c #5758BF",
"*. c #5A5BB3",
"=. c #626196",
"-. c #6163A7",
";. c #6467BA",
":. c #7174B3",
">. c #5C5CC3",
",. c #6062C4",
"<. c #6868CC",
"1. c #6464C9",
"2. c #6F6FD3",
"3. c #7373D3",
"4. c #8E0505",
"5. c #8B0B0E",
"6. c #8C1414",
"7. c #9A0808",
"8. c #832E2E",
"9. c #882023",
"0. c #863737",
"q. c #9C2626",
"w. c #953F3F",
"e. c #A70303",
"r. c #B40202",
"t. c #B2100F",
"y. c #B01A1A",
"u. c #AB2727",
"i. c #A53E3E",
"p. c #BB2323",
"a. c #814E4E",
"s. c #874444",
"d. c #9E5858",
"f. c #964747",
"g. c #976969",
"h. c #9C6464",
"j. c #9A6B6B",
"k. c #927A7A",
"l. c #997575",
"z. c #887777",
"x. c #A14D4D",
"c. c #A45353",
"v. c #BC4F4F",
"b. c #B14C4C",
"n. c #BA5050",
"m. c #A26363",
"M. c #A27F7F",
"N. c #BC7979",
"B. c #C30D0D",
"V. c #C01212",
"C. c #D10707",
"Z. c #D31817",
"A. c #CC3432",
"S. c #D03B3B",
"D. c #ED1C1C",
"F. c #F00808",
"G. c #FE0A09",
"H. c #F51010",
"J. c #FD1111",
"K. c #FD1B1B",
"L. c #EA2221",
"P. c #FC2626",
"I. c #FC2C2C",
"U. c #F43F3F",
"Y. c #FC3434",
"T. c #FB3A3A",
"R. c #C54E4E",
"E. c #CD4646",
"W. c #CC5959",
"Q. c #DF5F5F",
"!. c #C16967",
"~. c #C46565",
"^. c #C37070",
"/. c #CF7272",
"(. c #D26060",
"). c #DE6C6B",
"_. c #D96262",
"`. c #DB7C7C",
"'. c #D97373",
"]. c #E64140",
"[. c #FB4242",
"{. c #FA4C4C",
"}. c #F54E4D",
"|. c #F95656",
" X c #F95D5D",
".X c #F35A5A",
"XX c #ED6767",
"oX c #E57373",
"OX c #E27979",
"+X c #F16E6E",
"@X c #F96464",
"#X c #F86B6B",
"$X c #F3706F",
"%X c #F77272",
"&X c #F77979",
"*X c #FA7474",
"=X c #F97C7C",
"-X c #848484",
";X c #8C8D8D",
":X c #999393",
">X c #958686",
",X c #A48787",
"<X c #A39A9A",
"1X c #A99D9D",
"2X c #B08F8F",
"3X c #BA8686",
"4X c #B39C9C",
"5X c #B59595",
"6X c #B5A3A3",
"7X c #BBB4B4",
"8X c #8383E3",
"9X c #9595F3",
"0X c #A1A2FD",
"qX c #C19492",
"wX c #D99090",
"eX c #DB9E9D",
"rX c #D69B9B",
"tX c #D68484",
"yX c #C7B7B7",
"uX c #D6AAAA",
"iX c #D7B2B2",
"pX c #D1B9B9",
"aX c #EB8787",
"sX c #ED8F8F",
"dX c #F68484",
"fX c #F68D8D",
"gX c #F98383",
"hX c #F88989",
"jX c #F59595",
"kX c #F59C9C",
"lX c #FA9494",
"zX c #F89E9E",
"xX c #EDA2A2",
"cX c #E9B1B1",
"vX c #F4A3A3",
"bX c #F4AAAA",
"nX c #F8A5A5",
"mX c #F8A9A9",
"MX c #F4B2B2",
"NX c #F3BBBB",
"BX c #D4CDCD",
"VX c #DACCCC",
"CX c #DFD8D8",
"ZX c #E2C6C6",
"AX c #E5C8C8",
"SX c #E9C1C1",
"DX c #E4DDDD",
"FX c #EAD4D4",
"GX c #F3C5C5",
"HX c #F2CCCC",
"JX c #F9CECE",
"KX c #F2D4D4",
"LX c #F1DBDB",
"PX c #E7E0E0",
"IX c #EFE0E0",
"UX c #F2E3E3",
/* pixels */
"W W W W W W W W W W W W W W W W W W W W W W W W W W W W W W W W W W W W W W W W W W W W W W W W ",
"W W W W W W W W W W W W W W W W W W W W W W W W W W W W W W W W W W W W W W W W W W W W W W W W ",
"W W W W W W W W W W W W W W W W W W W Q W W W L W W W W W W W W W W W W W W W W W W W W W W W W ",
"W W W W W W W W W W W W W W W W W W A n - - - - * : u m F W Q W W W W W W W W W W W W W W W W W ",
"W W W W W W W W W W W W W W W W m - p 0.b.W._.XXs.c c.z y ; A W W W W W W W W W W W W W W W W W ",
"W W W W W W W W W W W W W W S # @ v.XX#X*X&X&XgX~.U hX=X).x.p ; F W W W W W W W W W W W W W W W ",
"W W W W W W W W W W W W W b o > t $X&X&X=X=XdXdX`.z aXhXdXgXoXf.r m W W W W W W W W W W W W W W ",
"W W W W W W W W W W W W ; . 4 } = ).gXdXhXhXfXjXsXJ tXlXfXdXdX&X~.p b W W W W W W W W W W W W W ",
"W W W W W W W W W W W ;   3 [  .5 !.hXfXfXjXjXkXzXR N.zXjXfXfXdXgX).l u ! W W W W W W W W W W W ",
"W W W W W W W W W W n . 3 ' | @.9 d.jXjXkXkXvXvXmXj.j.mXvXkXjXfXhXhXOXz u W W W W W W W W W W W ",
"W W W W W W W W W D X < ' | X.$.O.T zXvXvXbXbXMXMXqXE MXbXvXvXkXjXfXhXOXd m W W W W W W W W W W ",
"W W W W W W W W W % > ] } ..#.>.*.C xXbXbXMXMXMXNXuXK cXMXbXbXvXzXjXlXlX/.& A W W W W W W W W W ",
"W W W W W W W W m . ` } ..@.%.<.3.M uXMXMXNXNXGXGXSXP uXGXNXMXMXxXwXN.m.a.r ; Q W W W W W W W W ",
"W W W W W W W W % 1 [  .@.%.1.3.8XG qXNXGXGXHXHXJXLX/ 5XiX5Xk.a.K K ^ k.5XyXL F W W W W W W W W ",
"W W W W W W W A o ' | @.$.,.3.8X9X=.,XJXHXFXAXpX6X>XV s K a.m.3XrXcXNXJXHXLX6Xm Q W W W W W W W ",
"W W W W W W Q ; , | o.#.>.2.8X9X0X:.P 4Xk.~ K J s.c.!.`.sXzXnXMXMXNXNXGXHXKXFX! W Q W W W W W W ",
"W W W W W W ! $ 4 X.#.&.,.;.-.+.H v k 8.i.R.XX+X&XgXhXfXjXkXvXbXMXNXNXGXHXFXLX1XZ Q W W W W W W ",
"W W W W W W D O { 8 0 6 t j 9.u.A.].}.|. X@X#X$X&X=XhXfXjXkXvXbXMXMXNXGXHXKXLXVXZ ( ! W W W W W ",
"W W W W W W Z + h 6.t.Z.L.I.Y.T.[.[.|.|. X@X#X%X&X=XhXfXjXkXvXbXMXNXNXGXHXFXLXIX( Q W W W W W W ",
"W W W W W Q b 4.G.J.K.K.P.I.Y.T.[.{.}.|. X@X#X%X&XdXdXsXjXkXvXbXMXNXGXGXHXKXLXUX:XF Q W W W W W ",
"W W W W W Q u e.G.J.K.K.P.I.Y.T.[.{.{.|. X@X#X%X&X=XhXsXjXkXvXbXMXMXNXGXHXKXIXUX7XD ( W W W W W ",
"W W W W W W ; r.G.J.K.K.P.I.Y.T.[.{.{.|. X@X#X%X&XdXdXfXjXkXvXbXMXNXNXHXHXKXLXIXBXD _ W W W W W ",
"W W W W W W - r.G.J.K.K.P.I.Y.T.[.{.{.|. X@X#X%X&XdXhXfXjXkXvXbXMXMXNXGXHXKXLXIXCXF ) W W W W W ",
"W W W W W W ; r.G.J.K.K.P.I.Y.T.[.[.|.|. X@X#X%X&X=XdXfXjXkXvXbXMXNXGXGXHXKXLXPXDXF _ W W W W W ",
"W W W W W W b e.G.J.J.P.P.I.Y.T.T.{.}.|. X@X#X%X&XdXhXfXjXkXvXbXbXNXNXGXHXKXLXUXPXL ) W W W W W ",
"W W W W W W n 4.G.J.K.K.P.I.Y.T.[.{.{.|. X@X#X%X&X=XhXfXjXkXvXbXMXNXNXGXHXKXLXUXPXW ) W W W W W ",
"W W W W W W Z f G.J.J.K.P.I.Y.T.[.{.}.|. X@X#X%X&X=XaXfXjXkXvXbXMXNXSXGXHXKXLXUXCXF ) W W W W W ",
"W W W W W W F w F.J.K.P.P.I.Y.T.T.{.|.|. X@X#X%X&XdXdXfXjXkXvXbXMXNXNXGXHXKXLXUXBXF ) W W W W W ",
"W W W W W W W & C.J.K.K.P.I.Y.T.[.{.}.|. X@X#X%X&X=XdXfXjXkXvXbXMXNXNXGXHXKXLXUXyXF -XW W W W W ",
"W W W W W W W u 7.J.K.K.P.I.Y.T.[.{.{.|. X@X#X$X&XdXhXfXjXkXvXbXMXMXNXGXHXKXLXUX<XQ ( W W W W W ",
"W W W W W W W A q F.J.P.P.I.Y.T.[.{.{.|. X@X#X%X&XdXhXfXjXkXvXbXMXNXGXGXHXKXLXIX( ) Q W W W W W ",
"W W W W W W W W & B.K.K.P.I.Y.T.[.[.|.|. X@X#X$X&X=XaXfXjXkXvXbXMXNXNXGXHXKXIXVXF -XQ W W W W W ",
"W W W W W W W W m h K.K.P.I.Y.T.[.{.{.|. X@X#X%X&XdXdXfXjXkXvXbXMXNXNXGXHXKXUX1X! ) W W W W W W ",
"W W W W W W W W W - V.K.P.I.Y.T.[.[.{. X X@X#X%X&X=XhXfXjXkXvXbXMXNXNXGXHXKXFX! -X( W W W W W W ",
"W W W W W W W W W Z q L.P.I.Y.T.[.{.{.|. X@X#X%X&XdXhXfXjXkXvXbXMXNXNXGXHXKX6XF -XW W W W W W W ",
"W W W W W W W W W W 6 6.P.I.Y.T.[.{.{.|. X@X#X%X&XdXdXfXjXkXvXbXbXNXSXGXHXZXD -X( ! W W W W W W ",
"W W W W W W W W W W W - y.I.Y.T.[.{.{.|. X@X#X%X&X=XdXfXjXkXvXbXMXNXNXGXHXz.Q -XW W W W W W W W ",
"W W W W W W W W W W W F e p.Y.T.T.{.{. X X@X#X%X&XdXhXfXjXkXvXbXbXNXGXGX,XD ;XQ W W W W W W W W ",
"W W W W W W W W W W W W F e p.T.[.{.{.|. X@X#X%X&XdXdXfXjXkXvXbXMXNXNX2XZ ;X( W W W W W W W W W ",
"W W W W W W W W W W W W Q L y q.U.{.}.|. X@X#X%X&X&XaXfXjXzXvXbXMXNXM.B ;X_ W W W W W W W W W W ",
"W W W W W W W W W W W W W W W b k S.}. X X@X#X*X&X=XhXfXjXkXnXbXeX^ D ;X( W W W W W W W W W W W ",
"W W W W W W W W W W W W W W W Q F i 8.E..X@X#X*X&XgXhXlXjXkXwXj.B ( ;X( W W W W W W W W W W W W ",
"W W W W W W W W W W W W W W W W W Q D s x w.v.(.).'.'.^.m.T B Q ;X) W W W W W W W W W W W W W W ",
"W W W W W W W W W W W W W W W W W W Q ( Q W Z N N N B D Q ) -X) Q W W W W W W W W W W W W W W W ",
"W W W W W W W W W W W W W W W W W W W W W Q ( ( ) ) ) ) _ Q Q W W W W W W W W W ! W W W W W W W ",
"W W W W W W W W W W W W W W W W W W W W W W W W W W W W W W W W W W W W W W W W W W W W W W W W ",
"W W W W W W W W W W W W W W W W W W W W W W W W W W W W W W W W W W W W W W W W W W W W W W W W ",
"W W W W W W W W W W W W W W W W W W W W W W W W W W W W W W W W W W W W W W W W W W W W W W W W "
};
