/* XPM */
static char *buttonRightDisabled[] = {
/* columns rows colors chars-per-pixel */
"48 48 252 2",
"   c #020208",
".  c #0A0A0A",
"X  c #0B0B0B",
"o  c #0C0C0C",
"O  c #0D0D0D",
"+  c #0E0E0E",
"@  c #0F0F0F",
"#  c #060614",
"$  c #060615",
"%  c #010119",
"&  c #00001E",
"*  c #01011E",
"=  c #06061D",
"-  c #0B0B15",
";  c #0B0B17",
":  c #0F0F18",
">  c #0E0E1C",
",  c #101010",
"<  c #111111",
"1  c #121212",
"2  c #131313",
"3  c #141414",
"4  c #151515",
"5  c #161616",
"6  c #171717",
"7  c #151519",
"8  c #17171D",
"9  c #181818",
"0  c #191919",
"q  c #1A1A1A",
"w  c #1B1B1B",
"e  c #18181F",
"r  c #1A1A1D",
"t  c #1C1C1C",
"y  c #1D1D1D",
"u  c #1E1E1D",
"i  c #1E1E1E",
"p  c #1F1F1F",
"a  c #000020",
"s  c #000023",
"d  c #050524",
"f  c #00002A",
"g  c #00002B",
"h  c #01012A",
"j  c #00002F",
"k  c #0F0F22",
"l  c #0C0C26",
"z  c #000030",
"x  c #000031",
"c  c #000033",
"v  c #000038",
"b  c #00003C",
"n  c #00003F",
"m  c #0F0F38",
"M  c #161627",
"N  c #1D1D25",
"B  c #1E1E29",
"V  c #1C1C3E",
"C  c #20201F",
"Z  c #202020",
"A  c #212121",
"S  c #212123",
"D  c #222222",
"F  c #232323",
"G  c #222226",
"H  c #242424",
"J  c #252525",
"K  c #262626",
"L  c #272727",
"P  c #282828",
"I  c #292929",
"U  c #2A2A2A",
"Y  c #2B2B2B",
"T  c #2C2C2C",
"R  c #2C2C2D",
"E  c #2D2D2D",
"W  c #2C2C2E",
"Q  c #2F2F2D",
"!  c #2E2E2E",
"~  c #2F2F2F",
"^  c #252539",
"/  c #2F2F31",
"(  c #31312F",
")  c #303030",
"_  c #313131",
"`  c #323232",
"'  c #333333",
"]  c #343434",
"[  c #353534",
"{  c #353535",
"}  c #363636",
"|  c #373737",
" . c #34343D",
".. c #383838",
"X. c #393939",
"o. c #3A3A3A",
"O. c #3B3B3B",
"+. c #3C3C3B",
"@. c #3C3C3C",
"#. c #3D3D3D",
"$. c #3E3E3D",
"%. c #3E3E3E",
"&. c #3F3F3F",
"*. c #000042",
"=. c #000043",
"-. c #000045",
";. c #000047",
":. c #000048",
">. c #00004B",
",. c #00004E",
"<. c #000050",
"1. c #000051",
"2. c #000054",
"3. c #000055",
"4. c #000057",
"5. c #000059",
"6. c #00005B",
"7. c #00005E",
"8. c #01015E",
"9. c #0A0A5D",
"0. c #171749",
"q. c #121255",
"w. c #181851",
"e. c #000061",
"r. c #000062",
"t. c #010164",
"y. c #030367",
"u. c #06066B",
"i. c #06066C",
"p. c #080869",
"a. c #09096E",
"s. c #0C0C71",
"d. c #101074",
"f. c #141478",
"g. c #141479",
"h. c #18187A",
"j. c #1C1C7D",
"k. c #28286E",
"l. c #40403F",
"z. c #404040",
"x. c #414140",
"c. c #414141",
"v. c #424242",
"b. c #434343",
"n. c #444443",
"m. c #444444",
"M. c #454545",
"N. c #464646",
"B. c #474746",
"V. c #474747",
"C. c #484848",
"Z. c #494949",
"A. c #4A4A4A",
"S. c #4B4B4A",
"D. c #4B4B4B",
"F. c #4C4C4B",
"G. c #4C4C4C",
"H. c #4D4D4D",
"J. c #4E4E4D",
"K. c #4E4E4E",
"L. c #4F4F4F",
"P. c #50504F",
"I. c #505050",
"U. c #515151",
"Y. c #525252",
"T. c #535353",
"R. c #545454",
"E. c #555555",
"W. c #565656",
"Q. c #575757",
"!. c #585858",
"~. c #595959",
"^. c #5B5B59",
"/. c #5A5A5A",
"(. c #5B5B5A",
"). c #5B5B5B",
"_. c #5C5C5C",
"`. c #5D5D5D",
"'. c #5E5E5E",
"]. c #5F5F5F",
"[. c #60605F",
"{. c #606060",
"}. c #616161",
"|. c #626262",
" X c #636363",
".X c #646464",
"XX c #656565",
"oX c #666666",
"OX c #676767",
"+X c #686868",
"@X c #696969",
"#X c #6A6A6A",
"$X c #6B6B6B",
"%X c #6C6C6C",
"&X c #6D6D6D",
"*X c #6E6E6E",
"=X c #6F6F6F",
"-X c #70706F",
";X c #707070",
":X c #717171",
">X c #727272",
",X c #737373",
"<X c #747474",
"1X c #757575",
"2X c #767676",
"3X c #777777",
"4X c #787878",
"5X c #797979",
"6X c #7A7A7A",
"7X c #7B7B7B",
"8X c #7C7C7C",
"9X c #7D7D7D",
"0X c #7E7E7E",
"qX c #7F7F7F",
"wX c #212183",
"eX c #242485",
"rX c #272787",
"tX c #2C2C8C",
"yX c #32328F",
"uX c #383880",
"iX c #3B3B8B",
"pX c #383896",
"aX c #3C3C92",
"sX c #808080",
"dX c #818181",
"fX c #828282",
"gX c #838383",
"hX c #848484",
"jX c #858585",
"kX c #868686",
"lX c #878787",
"zX c #898989",
"xX c #8A8A8A",
"cX c #8B8B8B",
"vX c #8C8C8C",
"bX c #8D8D8D",
"nX c #8E8E8E",
"mX c #8F8F8F",
"MX c #909090",
"NX c #929292",
"BX c #939393",
"VX c #949494",
"CX c #959595",
"ZX c #969696",
"AX c #989898",
"SX c #999999",
"DX c #9A9A9A",
"FX c #9B9B9B",
"GX c #9C9C9C",
"HX c #9E9E9E",
"JX c #A0A0A0",
"KX c #A1A1A1",
/* pixels */
"oXoXoXoXoXoXoXoXoXoXoXoXoXoXoXoXoX.XoXoXoXoXoXoXoXoXoXoXoXoXoXoXoXoXoXoXoXoXoXoXoXoXoXoXoXoXoXoX",
"oXoXoXoXoXoXoXoXoXoXoXoXoXoXoXoXoXoXoXoXoXoXoXoXoXoXoXoXoXoXoXoXoXoXoXoXoXoXoXoXoXoXoXoXoXoXoXoX",
"oXoXoXoXoXoXoXoXoXoXoXoXoXoXoXoXoXoXoXOXoXoX.X.XoXoXoXOXoXoXoXoXoXoXoXoXoXoXoXoXoXoXoXoXoXoXoXoX",
"oXoXoXoXoXoXoXoXoXoXoXoXoXoXoXoXOXoX!.V.} U F F F R @.I.[.OXoXoXoXoXoXoXoXoXoXoXoXoXoXoXoXoXoXoX",
"oXoXoXoXoXoXoXoXoXoXoXoXoXoXoX|.L.U < o + 4 9 q < a h = e ..Q.oXOXoXoXoXoXoXoXoXoXoXoXoXoXoXoXoX",
"oXoXoXoXoXoXoXoXoXoXoXoXoXOXW.I . + 5 w y F J U C h ,.*.c * : } _.OXoXoXoXoXoXoXoXoXoXoXoXoXoXoX",
"oXoXoXoXoXoXoXoXoXoXoXoXoXN.5 @ o y F I U R ) } R d 5.1.>.n j % e L.oXoXoXoXoXoXoXoXoXoXoXoXoXoX",
"oXoXoXoXoXoXoXoXoXoXoX.X+.+ 9 J @ F R ) [ ..+.l.o.M 7.7.1.>.*.v a - x.oXoXoXoXoXoXoXoXoXoXoXoXoX",
"oXoXoXoXoXoXoXoXoXoXoX@.o 9 F ( 8 L } O.&.b.V.Z.Z.N 9.u.e.5.,.-.v j # +.oXoXoXoXoXoXoXoXoXoXoXoX",
"oXoXoXoXoXoXoXoXoXoXZ.+ 4 F Q ..F L b.V.Z.Z.L.R.!.) q.f.a.t.5.1.>.n j # l.oXoXoXoXoXoXoXoXoXoXoX",
"oXoXoXoXoXoXoXoXoX!.5 < N I } &.) J Z.L.R.W.).'.oXN.0.eXh.s.y.7.2.>.*.c ; F.oXoXoXoXoXoXoXoXoXoX",
"oXoXoXoXoXoXoXoXoXR + y U ) o.N.x.F R.).).|.|.+X%X!.V yXrXj.d.u.e.5.,.-.j 8 !.OXoXoXoXoXoXoXoXoX",
"oXoXoXoXoXoXoXoXL.+ q J R o.x.L.I.J W.oX+X$X=X>X3X;X .aXpXtXwXf.p.5.-.j *   R oXoXoXoXoXoXoXoXoX",
"oXoXoXoXoXoXoXoXU < F R } x.Z.W._.R W.;X>X3X7X0XgXkX .k.iXk.w.m l : 8 q y y < I.oXoXoXoXoXoXoXoX",
"oXoXoXoXoXoXoXW.< y U ) @.Z.I._.+X@.L.7X0X0X7X;X|.I.F M B G U ) } } } ) R U 5 U oXoXoXoXoXoXoXoX",
"oXoXoXoXoXoXoX@.< U ) o.N.I.!.oX%XZ.} ).V.} / L / ] l.V.Z.F.Z.N.x.@.o.} ) R J 3 I.oXoXoXoXoXoXoX",
"oXoXoXoXoXoXoXJ y R o.x.N.N.&.o.~ J N Q o.b.L.W.!.!.!.!.W.I.L.L.V.b.@.O.} ) T 5 } oXoXoXoXoXoXoX",
"oXoXoXoXoXoX_.5 y F C e q y J ) &.Z.R.Q._._._.|.|.[._._.!.W.I.L.L.V.b.&.o.} ) G y |.oXoXoXoXoXoX",
"oXoXoXoXoXoXI.+ < w J ) O.N.Z.I.W.Q.^._.|.oXoXoXoXoXoX|.|._.!.!.I.L.Z.b.@.o.' T q I.oXoXoXoXoXoX",
"oXoXoXoXoX+XN.5 R } O.@.N.Z.L.R.Q._.|.oX+X+X+X%X%X%X+X+XoX|.|._.W.I.L.Z.b.@.} ' q @.+XoXoXoXoXoX",
"oXoXoXoXoX+X@.q ) } +.x.Z.L.R.!._.|.oX+X%X;X;X<X<X;X;X;X+X+XoX|.).W.I.Z.V.x.o.} F R oXoXoXoXoXoX",
"oXoXoXoXoX+Xo.y } o.x.N.Z.I.W._.|.OX$X-X<X5X5X5X5X5X5X<X;X;X+XoX'.).W.L.Z.b.@.} U J oXoXoXoXoXoX",
"oXoXoXoXoXoX} y } @.x.Z.I.W.!.|.oX$X;X<X5X9X9XfXfXfX9X5X<X<X%X+X|.'.W.I.Z.V.x.O.R F _.oXoXoXoXoX",
"oXoXoXoXoXoXo.F o.@.N.F.I.W._.|.+X-X<X5X9XfXjXjXlXjXjXfX9X5X;X%X+X|.).W.L.Z.x.@.) y _.+XoXoXoXoX",
"oXoXoXoXoXOXl.y o.x.N.L.I.!.|.oX%X;X5X9XfXjXzXnXnXnXzXjXfX5X<X;X+XoX_.!.I.Z.b.@.) y _.oXoXoXoXoX",
"oXoXoXoXoXoXZ.y O.x.Z.L.W.).|.+X;X<X5XfXjXnXNXBXBXNXnXzXjX9X5X<X%XoX'.!.I.L.N.&.} y _.oXoXoXoXoX",
"oXoXoXoXoX+XI.y o.x.Z.L.W._.|.$X;X5X9XfXzXNXBXFXFXFXNXnXjXfX5X<X=X+X|.!.R.Z.N.&.} y [.oXoXoXoXoX",
"oXoXoXoXoX+X_.y o.x.Z.I.W._.oX+X;X3X9XjXnXNXFXGXJXGXBXNXzXfX9X<X%X+X|.).W.L.N.x.) J |.oXoXoXoXoX",
"oXoXoXoXoXoXoXU R N.Z.I.W._.oX%X;X5X9XjXzXNXFXGXJXFXBXnXzXfX5X<X=X+X|.!.I.L.N.x.Q T oXoXoXoXoXoX",
"oXoXoXoXoXoX+X@.F x.Z.L.W._.|.+X;X5X9XfXzXNXBXFXFXFXBXnXzXfX5X<X%X+X|.!.R.L.N.x.F o.oXoXoXoXoXoX",
"oXoXoXoXoXoXoXW.y @.N.L.W.!.|.oX;X<X5XfXjXnXNXBXBXNXnXzXjX9X5X;X%XoX'.!.I.L.N.@.y I.oXoXoXoXoXoX",
"oXoXoXoXoXoXoXoXU R N.L.W.!.|.oX%X;X5X9XgXjXzXzXnXnXzXjXfX9X5X;X+XoX_.W.I.Z.N.} y _.oXoXoXoXoXoX",
"oXoXoXoXoXoXoXoXZ.y x.L.I.W._.|.+X=X<X5X9XfXjXkXkXjXjXfX9X3X;X%X+X|.).W.L.Z.b.J [ oXoXoXoXoXoXoX",
"oXoXoXoXoXoXoXoX|.U ) Z.L.W.!.|.oX$X;X<X5X7X9XfXfX0X9X5X3X<X=X+X|._.!.I.Z.N.@.e I.OXoXoXoXoXoXoX",
"oXoXoXoXoXoXoXoXoXI.y @.L.I.W._.|.oX%X;X;X3X5X5X5X5X<X<X;X%X+X|.|.!.W.L.V.b.U T oXoXoXoXoXoXoXoX",
"oXoXoXoXoXoXoXoXoXoXo.y N.L.I.!._.|.oX+X%X;X;X>X<X>X;X;X$X+XoX|.).W.I.Z.N.o.q I.OXoXoXoXoXoXoXoX",
"oXoXoXoXoXoXoXoXoXoX[.I U V.L.R.!._.|.oX+X+X$X$X%X%X+X+X+X|.'.).W.I.L.N.x.y o.oXoXoXoXoXoXoXoXoX",
"oXoXoXoXoXoXoXoXoXoXoX!.N ( F.L.R.W.!._.|.|.oXoXoXoXoX|.|._.!.W.I.L.Z.x.J L '.oXoXoXoXoXoXoXoXoX",
"oXoXoXoXoXoXoXoXoXoXoXoXW.C Q V.L.I.W.!.!._._.|._.'._._.!.W.W.L.L.V.b.U F !.+XoXoXoXoXoXoXoXoXoX",
"oXoXoXoXoXoXoXoXoXoXoXoXoXQ.F J b.L.L.I.W.W.W.!.!.!.!.W.R.I.L.Z.N.x.J F W.oXoXoXoXoXoXoXoXoXoXoX",
"oXoXoXoXoXoXoXoXoXoXoXoXoXoX_.) y } Z.L.L.L.I.I.I.I.I.L.L.L.Z.N...y Q !.oXoXoXoXoXoXoXoXoXoXoXoX",
"oXoXoXoXoXoXoXoXoXoXoXoXoXoXoXoXN.F C } x.Z.L.Z.L.Z.F.Z.N.x...F y @.|.oXoXoXoXoXoXoXoXoXoXoXoXoX",
"oXoXoXoXoXoXoXoXoXoXoXoXoXoXoXoX+X|.N.J y J ) } o.o...) J y C o.!.+XoXoXoXoXoXoXoXoXoXoXoXoXoXoX",
"oXoXoXoXoXoXoXoXoXoXoXoXoXoXoXoXoXoXoX.XW.x.} U J J U R @.L.|.oXoXoXoXoXoXoXoXoXoXoXoXoXoXoXoXoX",
"oXoXoXoXoXoXoXoXoXoXoXoXoXoXoXoXoXoXoXoXoXoXoXoX.X|.oXoXoXOXoXoXoXoXoXoXoXoXoXoXoXoXoXoX.XoXoXoX",
"oXoXoXoXoXoXoXoXoXoXoXoXoXoXoXoXoXoXoXoXoXoXoXoXoXoXoXoXoXoXoXoXoXoXoXoX.XoXoXoXoXoXoXoXoXoXoXoX",
"oXoXoXoXoXoXoXoXoXoXoXoXoXoXoXoXoXoXoXoXoXoXoXoXoXoXoXoXoXoXoXoXoXoXoXoXoXoXoXoXoXoXoXoXoXoXoXoX",
"oXoXoXoXoXoXoXoXoXoXoXoXoXoXoXoXoXoXoXoXoXoXoXoXoXoXoXoXoX.XoXoXoXoXoXoXoXoXoXoXoXoXoXoXoXoXoXoX"
};
