/* XPM */
static char * buttonLeftSelectedLocked[] = {
"48 48 274 2",
"  	c None",
". 	c #666666",
"+ 	c #656565",
"@ 	c #626262",
"# 	c #5F5E5E",
"$ 	c #5D5C5C",
"% 	c #5B5A5A",
"& 	c #5E5E5E",
"* 	c #595858",
"= 	c #5A5959",
"- 	c #696868",
"; 	c #8C8B8B",
"> 	c #B3B2B2",
", 	c #CECDCD",
"' 	c #E1E1E1",
") 	c #EAE9E9",
"! 	c #CECECE",
"~ 	c #B3B3B3",
"{ 	c #8C8C8C",
"] 	c #818181",
"^ 	c #BDBCBC",
"/ 	c #DEDEDE",
"( 	c #EFEFEF",
"_ 	c #FCFCFC",
": 	c #FFFFFF",
"< 	c #F0F0F0",
"[ 	c #BDBDBD",
"} 	c #828181",
"| 	c #5E5D5D",
"1 	c #5C5B5B",
"2 	c #7D7D7D",
"3 	c #CCCCCC",
"4 	c #F5F5F5",
"5 	c #FEFEFE",
"6 	c #7F7F7F",
"7 	c #636262",
"8 	c #ACACAC",
"9 	c #F6F6F6",
"0 	c #EAEAEA",
"a 	c #F8F8F8",
"b 	c #AFAEAE",
"c 	c #767575",
"d 	c #CDCDCD",
"e 	c #FDFDFD",
"f 	c #E5E5E5",
"g 	c #E2E2E2",
"h 	c #FBFBFB",
"i 	c #A09F9F",
"j 	c #FAFAFA",
"k 	c #E0E0E0",
"l 	c #CFCFCF",
"m 	c #777676",
"n 	c #7B7A7A",
"o 	c #DDDDDD",
"p 	c #F0DFDD",
"q 	c #D0877E",
"r 	c #DF311B",
"s 	c #AEAEAE",
"t 	c #7D7C7C",
"u 	c #ADACAC",
"v 	c #686767",
"w 	c #C1C0C0",
"x 	c #7C7B7B",
"y 	c #5D5D5D",
"z 	c #747474",
"A 	c #DBDADA",
"B 	c #DFB8B3",
"C 	c #CD4B3B",
"D 	c #EB2B13",
"E 	c #E82C15",
"F 	c #D6D6D6",
"G 	c #D5D4D4",
"H 	c #D5D5D5",
"I 	c #8F8E8E",
"J 	c #DCDCDC",
"K 	c #757474",
"L 	c #656464",
"M 	c #CACACA",
"N 	c #D59991",
"O 	c #DB331E",
"P 	c #CF4635",
"Q 	c #B4B4B4",
"R 	c #898888",
"S 	c #6E6E6E",
"T 	c #CBCBCB",
"U 	c #676666",
"V 	c #A6A5A5",
"W 	c #D69D96",
"X 	c #DE311C",
"Y 	c #CB6255",
"Z 	c #8D8C8C",
"` 	c #8E8D8D",
" .	c #F9F9F9",
"..	c #A4A3A3",
"+.	c #6A6969",
"@.	c #A7A7A7",
"#.	c #F3F3F3",
"$.	c #DEB6B1",
"%.	c #D93621",
"&.	c #E92C14",
"*.	c #F4F4F4",
"=.	c #6F6E6E",
"-.	c #C0BFBF",
";.	c #727272",
">.	c #DBDBDB",
",.	c #C5C5C5",
"'.	c #F1E2E1",
").	c #D04433",
"!.	c #D9D8D8",
"~.	c #D9D9D9",
"{.	c #5C5C5C",
"].	c #878686",
"^.	c #C6C6C6",
"/.	c #CD786E",
"(.	c #D53926",
"_.	c #E7E7E7",
":.	c #B5B5B5",
"<.	c #605F5F",
"[.	c #E8E8E8",
"}.	c #636363",
"|.	c #AEADAD",
"1.	c #858484",
"2.	c #BFBEBE",
"3.	c #D9A59F",
"4.	c #DD321D",
"5.	c #D1412F",
"6.	c #ECECEC",
"7.	c #8A8A8A",
"8.	c #EEEEEE",
"9.	c #646363",
"0.	c #646464",
"a.	c #6E6D6D",
"b.	c #E6E6E6",
"c.	c #CB695C",
"d.	c #CB6357",
"e.	c #818080",
"f.	c #727171",
"g.	c #ABABAB",
"h.	c #A8A7A7",
"i.	c #706F6F",
"j.	c #626161",
"k.	c #908F8F",
"l.	c #F0E0DE",
"m.	c #CE4838",
"n.	c #D5968E",
"o.	c #7E7D7D",
"p.	c #6D6C6C",
"q.	c #E4E3E3",
"r.	c #D0D0D0",
"s.	c #929191",
"t.	c #B2B1B1",
"u.	c #D59B93",
"v.	c #D8A39D",
"w.	c #C6C5C5",
"x.	c #B8B8B8",
"y.	c #F1E1E0",
"z.	c #DCAFAA",
"A.	c #DDB1AC",
"B.	c #F5EBEA",
"C.	c #F1F1F1",
"D.	c #F7F7F7",
"E.	c #D1D1D1",
"F.	c #EDEDED",
"G.	c #4176B4",
"H.	c #266EC3",
"I.	c #4779B3",
"J.	c #3070BC",
"K.	c #1D6FD0",
"L.	c #3370BA",
"M.	c #EBEBEB",
"N.	c #367CB9",
"O.	c #9DB15B",
"P.	c #E9D914",
"Q.	c #F5DF09",
"R.	c #EAD914",
"S.	c #A0B357",
"T.	c #377CB8",
"U.	c #3471BA",
"V.	c #3B73B7",
"W.	c #2F78C0",
"X.	c #C4C537",
"Y.	c #FCE302",
"Z.	c #C8C833",
"`.	c #96AE60",
" +	c #C6C734",
".+	c #C5C636",
"++	c #3079BF",
"@+	c #3C74B6",
"#+	c #F2F2F2",
"$+	c #507DB2",
"%+	c #9CB15B",
"&+	c #FFE400",
"*+	c #99AF5E",
"=+	c #347BBB",
"-+	c #2B76C3",
";+	c #98AF5F",
">+	c #9EB25A",
",+	c #1E6FCF",
"'+	c #7D97B6",
")+	c #2E78C1",
"!+	c #EFDC0F",
"~+	c #DED31E",
"{+	c #DFD31D",
"]+	c #4B7AB3",
"^+	c #DFDFDF",
"/+	c #5B5B5B",
"(+	c #C4C3C3",
"_+	c #216ECA",
":+	c #2674C8",
"<+	c #B5BE44",
"[+	c #B7BF42",
"}+	c #FDE302",
"|+	c #708EB4",
"1+	c #4C7BB3",
"2+	c #568C9C",
"3+	c #C5C635",
"4+	c #5089A2",
"5+	c #4E88A3",
"6+	c #C7C733",
"7+	c #FBE204",
"8+	c #558C9D",
"9+	c #226EC7",
"0+	c #D2D2D2",
"a+	c #A9A9A9",
"b+	c #8DA1BA",
"c+	c #F1DD0D",
"d+	c #CDCA2E",
"e+	c #CECB2D",
"f+	c #CCC92F",
"g+	c #C1C439",
"h+	c #5A82B2",
"i+	c #888787",
"j+	c #CDCECF",
"k+	c #1F6ECC",
"l+	c #F3DE0B",
"m+	c #B0B9C4",
"n+	c #AAAAAA",
"o+	c #3F75B5",
"p+	c #E4D618",
"q+	c #E2D51B",
"r+	c #BDC1C8",
"s+	c #BDC2C9",
"t+	c #6B8BB3",
"u+	c #B1B0B0",
"v+	c #E6E5E5",
"w+	c #909090",
"x+	c #E7D816",
"y+	c #949393",
"z+	c #B7B7B7",
"A+	c #5580B2",
"B+	c #E5D718",
"C+	c #F9E106",
"D+	c #B9B9B9",
"E+	c #CAC9C9",
"F+	c #8FA2B9",
"G+	c #256EC4",
"H+	c #226EC9",
"I+	c #CCCBCB",
"J+	c #7A95B5",
"K+	c #246EC5",
"L+	c #3772B8",
"M+	c #6F8EB3",
"N+	c #BBBABA",
"O+	c #9E9D9D",
"P+	c #717070",
"Q+	c #B7B6B6",
"R+	c #B9B8B8",
"S+	c #737272",
"T+	c #D4D4D4",
"U+	c #E9E9E9",
"V+	c #ACABAB",
"W+	c #616060",
"X+	c #A5A5A5",
"Y+	c #606060",
". . . . . . . . . . . . . . . . . . . . . . . . . . . . . . . . . . . . . . . . . . . . . . . . ",
". . . . . . . . . . . . . . . . . . . . . . . . . . . . . . . . . . . . . . . . . . . . . . . . ",
". . . . . . . . . . . . . . . . . . + @ # $ % % % % $ # @ + . . . . . . . . . . . . . . . . . . ",
". . . . . . . . . . . . . . . . & * * * * * * * * * * * * * * & . . . . . . . . . . . . . . . . ",
". . . . . . . . . . . . . . . & * = - ; > , ' ) ) ' ! ~ { - = * & . . . . . . . . . . . . . . . ",
". . . . . . . . . . . . . & * * % ] ^ / ( _ : : : : _ < / [ } % * * & . . . . . . . . . . . . . ",
". . . . . . . . . . . . | * 1 2 3 4 5 : : : : : : : : : : 5 4 , 6 1 * | . . . . . . . . . . . . ",
". . . . . . . . . . . 1 * 7 8 9 : : : 5 : 5 4 0 0 4 5 5 5 : : : a b 7 * 1 . . . . . . . . . . . ",
". . . . . . . . . . 1 * c d : : : e f g h : i 1 1 i : j k f e : : : l m * 1 . . . . . . . . . . ",
". . . . . . . . . 1 * n o : : : p q r s h 4 t * * t 4 h u v w < : : : / x * 1 . . . . . . . . . ",
". . . . . . . . y * z A : : 5 B C D E F : G 7 * * 7 G : H | * I J 5 : : J K * y . . . . . . . . ",
". . . . . . . & * L M : : 5 N O D D P ( : Q | * * | Q : ( R * * S M 5 : : T U * & . . . . . . . ",
". . . . . . . * % V : : : W X D D D Y j 5 Z = * * = ` :  ...* $ * +.d : : : @.% * . . . . . . . ",
". . . . . . | * n #.: : $.%.D D D &.q : *.=.* & & * S *.: -.1 * $ * ;.>.: : *.x * | . . . . . . ",
". . . . . & * $ ,.: : '.).D D D D r !.: A L * + + * L ~.: !.v * + {.* ].*.: : ^.| * & . . . . . ",
". . . . . * = } _ : 5 /.D D D D D (._.: :.<.* + + * # Q : [.n * }.+ % * |.j : _ 1.= * . . . . . ",
". . . . . * $ 2.: 5 3.4.D D D D D 5.6.: 7.= * . . * = ].: 8.].* @ . @ * 9.l 5 : w | * . . . . . ",
". . . . 0.* a.b.: h c.D D D D D D d. .: e.* & . . & * f.a j g.* & . . y * h.j : [.i.* 0.. . . . ",
". . . . j.* k._ : l.m.D D D D D D n.: : o.* 1 1 1 1 * p.q.: r.= * 1 1 1 * o.6.: _ s.* j.. . . . ",
". . . . # * t.: : u.D D D D D D D v.: ( 9.* * * * * * * w.: F * * * * * * * x._ : Q * # . . . . ",
". . . . $ * l : : y.z.A.A.A.A.A.$.B.: j / ~.~.~.~.~.~.J C.: D.o ~.~.~.~.~.!.6.5 : E.* $ . . . . ",
". . . . % * q.: : : : : : : : : : : : : : : : : : : : : : : : : : : : : : : : : : b.* % . . . . ",
". . . . = * #.: : : : : : : : : : : : : : : : : : : : : : : : : : : : : : : : : : 4 * = . . . . ",
". . . . * * _ : F.G.H.H.H.H.H.H.H.H.H.H.H.H.H.H.H.H.H.H.H.H.H.H.H.H.H.H.H.H.I.( : 5 * * . . . . ",
". . . . * * : : 0 J.K.K.K.K.K.K.K.K.K.K.K.K.K.K.K.K.K.K.K.K.K.K.K.K.K.K.K.K.L.M.: : * * . . . . ",
". . . . * * 5 : M.L.K.K.K.K.K.K.K.K.K.K.N.O.P.Q.Q.R.S.T.K.K.K.K.K.K.K.K.K.K.U.M.: : * * . . . . ",
". . . . * * a : F.V.K.K.K.K.K.K.K.K.K.W.X.Y.Z.`.`. +Y..+++K.K.K.K.K.K.K.K.K.@+F.: h * * . . . . ",
". . . . = * F.: #+$+K.K.K.K.K.K.K.K.K.%+&+*+=+-+-+=+;+&+>+,+K.K.K.K.K.K.K.K.I.C.: < * = . . . . ",
". . . . 1 * J : j '+K.K.K.K.K.K.K.K.)+!+~+)+K.K.K.K.)+{+!+++K.K.K.K.K.K.K.K.]+#+: ^+* /+. . . . ",
". . . . | * (+: : r._+K.K.K.K.K.K.K.:+&+<+K.K.K.K.K.K.[+}+:+K.K.K.K.K.K.K.K.|+a : ^.* y . . . . ",
". . . . <.* V : : C.1+K.K.K.K.K.K.K.2+&+3+4+4+4+4+4+5+6+7+8+K.K.K.K.K.K.K.9+0+: : a+* <.. . . . ",
". . . . 7 * 1. .: _ b+K.K.K.K.K.K.K.X.&+c+d+e+e+e+e+f+c+}+g+K.K.K.K.K.K.K.h+4 : j i+* @ . . . . ",
". . . . + * U A : : j+k+K.K.K.K.K.K.l+&+&+&+&+&+&+&+&+&+&+c+K.K.K.K.K.K.K.m+5 : J - * + . . . . ",
". . . . . * 1 n+: : ) o+K.K.K.K.K.K.p+&+&+&+&+&+&+&+&+&+&+q+K.K.K.K.K.K.@+[.: : u 1 * . . . . . ",
". . . . . & * z C.: : r+_+K.K.K.K.K.p+&+&+&+&+&+&+&+&+&+&+q+K.K.K.K.K._+s+: : *.c * & . . . . . ",
". . . . . . * % s : : a t+K.K.K.K.K.p+&+&+&+&+&+&+&+&+&+&+q+K.K.K.K.K.t+a : : u+1 * . . . . . . ",
". . . . . . & * S q.: : ( I.K.K.K.K.p+&+&+&+&+&+&+&+&+&+&+q+K.K.K.K.I.( : : v+i.* & . . . . . . ",
". . . . . . . * = w+: : : f G.K.K.K.x+&+&+&+&+&+&+&+&+&+&+p+K.K.K.G.f : : : y+= * . . . . . . . ",
". . . . . . . & * | z+: : : v+A+K.K.B+C+C+C+C+C+C+C+C+C+C+q+K.K.A+v+: : : D+| * & . . . . . . . ",
". . . . . . . . | * - E+: : : C.F+G+K.K.K.K.K.K.K.K.K.K.K.K.9+F+C.: : : 3 +.* | . . . . . . . . ",
". . . . . . . . . $ * a.T : : : j ^+I.K.K.K.K.K.K.K.K.K.H+1+o j : : : I+=.* $ . . . . . . . . . ",
". . . . . . . . . . $ * U x.: : : : C./ J+K+K.K.k+L+M+m+M.C.: : : : N+- * $ . . . . . . . . . . ",
". . . . . . . . . . . y * # O+6.: : : : j #.( ( ( 4 j e : : : : F.i # * $ . . . . . . . . . . . ",
". . . . . . . . . . . . | * % P+Q+M.e : : : : : : : : : : e M.R+f.% * | . . . . . . . . . . . . ",
". . . . . . . . . . . . . & * * = S+g.T+U+9 5 : : 5 9 U+H V+S+= * * & . . . . . . . . . . . . . ",
". . . . . . . . . . . . . . . & * * W+t X+w T+o o T+w X+o.j.= * & . . . . . . . . . . . . . . . ",
". . . . . . . . . . . . . . . . . | * * * * * * * * * * * * * & . . . . . . . . . . . . . . . . ",
". . . . . . . . . . . . . . . . . . + }.Y+| {.1 1 {.| Y+}.+ . . . . . . . . . . . . . . . . . . "};
