/* XPM */
static const char *buttonLeftDisabled[] = {
/* columns rows colors chars-per-pixel */
"48 48 28 1 ",
"  c black",
". c #1B1B1B",
"X c #1D1D1D",
"o c #222222",
"O c gray14",
"+ c gray16",
"@ c gray18",
"# c #323232",
"$ c #343434",
"% c #3A3A3A",
"& c #3F3F3F",
"* c gray25",
"= c #444444",
"- c #494949",
"; c gray30",
": c #515151",
"> c #565656",
", c gray35",
"< c gray36",
"1 c #626262",
"2 c gray40",
"3 c gray42",
"4 c gray43",
"5 c gray44",
"6 c gray46",
"7 c gray47",
"8 c #7E7E7E",
"9 c #808080",
/* pixels */
"222222222222222222222222222222222222222222222222",
"222222222222222221,=#OooXoO#=,222222222222222222",
"2222222222222222@......X.X.X...@2222222222222222",
"222222222222222@.XO%:145541:%OX.@222222222222222",
"2222222222222@.XX#,4689999864,$X..@2222222222222",
"222222222222+.X#1789989999998871#X.+222222222222",
"22222222222O.o;798999876678999997:o.O22222222222",
"2222222222o.+19971=>89*##*884589981@.o2222222222",
"222222222O.@3994****87#$$#78;#-58994@.O222222222",
"22222222+.+3991*****92####292$#%19993@.+22222222",
"2222222@.o1995551=*:9:#$$#:96$#$#:9981o.@2222222",
"2222221.X-99899998=<9$#$#$%88&$###>999-X.1222222",
"222222@.@7979>oX>9137######78-###$#<997#.@222222",
"22222@.X<9758o  o8583##$$##393#$$##$699<X.@22222",
"22222..$89149X  o959;$#$#$#;95###$#$*898$..22222",
"22221.X,94&19>oo>839$#$#$#$$96$$$#$##>89,X.12222",
"2222>.O591*=89998719##$#$###78*$$#$#$&895+.>2222",
"2222=.&87***=1551=39###$#$#@59>##$#$##498&.*2222",
"2222#.:94********&46####$###<9,$$$$#$$=88:.#2222",
"2222O.197********&88333333336961<<<<<<4992.O2222",
"2222o.499855555558999999999999999999999995.o2222",
"2222X.799999999999999999999999999999999997.X2222",
"2222..896$OOOOOOOOOOOOOOOOOOOOOOOOOOOO$699X.2222",
"2222..996+.X...X...............X....XX@699..2222",
"2222X.896@.:,,,,,,,,,,<,,,,<,,<,,,<,:X@598..2222",
"2222X.895#.;222222223222222222222222-.#698.X2222",
"2222X.686&X=222222222222222222222222-.$796.X2222",
"2222o.398;.+222222222222222222222222=X%794.o2222",
"2222+.<992X.<22222222222222222222222+.-89<X+2222",
"2222%.-996%.-2222222222222222222222>XX299-X$2222",
"2222=.$898:.@2222222222222222222222%.&798$.=2222",
"2222<.o3991X.1222222222222222222222oX,884OX<2222",
"22222..;995$X+22222222222222222222+X#599:X.12222",
"22222@.+699<XX:222222222222222222:XX<997@.@22222",
"222221.X:998=XX122222222222222221X.=899;X.122222",
"222222@.+4996$.o,22222222222222,o.%6995+.@222222",
"2222222..&9995$XX=222222222222=X.$5999&X.2222222",
"2222222@.X>8995&..+122222222<+..&5999>XX@2222222",
"22222222+.O19996:oXX#-221;%+X.o;69981OX+22222222",
"222222222+XO199984$..XXXX...o%389991OX+222222222",
"2222222222OXo>999964-oX.X@-<679999>O.O2222222222",
"22222222222+.X=699998766678999996=XX+22222222222",
"222222222222+.X+>58899999999985>+X.+222222222222",
"2222222222222@...@;2588999752;+X.X@2222222222222",
"222222222222222@..X#-,2342,-#XX.@222222222222222",
"22222222222222222+X....X.....X.@2222222222222222",
"2222222222222222221;%+OooO+%;<222222222222222222",
"222222222222222222222222222222222222222222222222"
};
