/* XPM */
static const char *buttonMiddleLocked[] = {
/* columns rows colors chars-per-pixel */
"48 48 217 2",
"   c #105A0BB80491",
".  c #1F5E1F5E1F5E",
"X  c #0F030F032817",
"o  c #16E916E93754",
"O  c #1D4D1D4D3ED6",
"+  c #241E248D2579",
"@  c #25EF25EF2E4E",
"#  c #2D0C2D102D0D",
"$  c #374233B42C46",
"%  c #3AF135642B21",
"&  c #25AD25AD3564",
"*  c #2C072C07350A",
"=  c #337D339C33EE",
"-  c #38B835EF2FD5",
";  c #3DB43A2432B8",
":  c #372F372F3AEE",
">  c #370E37C73A75",
",  c #3C253C253C32",
"<  c #45963DAF0B4A",
"1  c #52D43DF4059E",
"2  c #56E73C570B75",
"3  c #5A173D420C2A",
"4  c #463633671126",
"5  c #40F63E7936D0",
"6  c #4DC03FC60E19",
"7  c #569341250159",
"8  c #57CE40A70B0A",
"9  c #586544310AE4",
"0  c #52DC4F3E0CE8",
"q  c #545F4D99121E",
"w  c #570F53291018",
"e  c #5AF556F913A5",
"r  c #5E3C5A5B171F",
"t  c #5F755B96185E",
"y  c #672945260D4B",
"u  c #69BA4A170F08",
"i  c #701D58F10019",
"p  c #6AB14BC80F96",
"a  c #60B05CD1199A",
"s  c #7E556019102F",
"d  c #595D54D0364C",
"f  c #65926444261C",
"g  c #6C0768BF2EC5",
"h  c #124812484F54",
"j  c #19D819D85A6E",
"k  c #2EA72EA73FFD",
"l  c #35E835E8476D",
"z  c #3C9B3EB64425",
"x  c #317D317D50CB",
"c  c #38E538E55479",
"v  c #160D160D6ACB",
"b  c #1BAF1BAF7A2E",
"n  c #35E535E565CF",
"m  c #33963396772C",
"M  c #3DF84071454B",
"N  c #4368438F4404",
"B  c #48414841478A",
"V  c #43BB453E4A4A",
"C  c #47B549054CD8",
"Z  c #4B024B754C42",
"A  c #544751E34CDC",
"S  c #5A3656CA4F38",
"D  c #44A344A3555F",
"F  c #46EE4A794FE9",
"G  c #4E334E335B70",
"H  c #4D0650755644",
"J  c #535153CF54E4",
"K  c #5E6D5B425370",
"L  c #54E255C258BC",
"P  c #5BD55BDC5BF0",
"I  c #629F5FD657A2",
"U  c #7BAE7E4045C8",
"Y  c #652C62B959FE",
"T  c #4B154B1563D2",
"R  c #486648666EC3",
"E  c #5D235D7361B9",
"W  c #51F351F3774E",
"Q  c #5FC961B166EF",
"!  c #665766586659",
"~  c #6CDA6B9A659E",
"^  c #6454687A6F89",
"/  c #6B026B026B07",
"(  c #608C695D770E",
")  c #69466BC5717B",
"_  c #7457745C7488",
"`  c #70C474417B3E",
"'  c #7BCF7BD37BD2",
"]  c #9F2A7D000000",
"[  c #A5DC680C00CF",
"{  c #B14C727F0000",
"}  c #B0A87A9E0000",
"|  c #B1F8855102B4",
" . c #DE1B8E3102C8",
".. c #C7639952001A",
"X. c #C6879A890F1A",
"o. c #E9799B65009B",
"O. c #DDFBB2240000",
"+. c #EBD2A46F02DA",
"@. c #E98AAC5E01EE",
"#. c #F4A6A7770000",
"$. c #F460AD300487",
"%. c #EA36B3F10224",
"&. c #F71DB244019A",
"*. c #FA62B5610038",
"=. c #F3DABAE0026B",
"-. c #FE57BD7C0045",
";. c #F72ABA780887",
":. c #EA82BF94189C",
">. c #EF5BC92E046E",
",. c #FF2BC30F0310",
"<. c #F78FC4800BE2",
"1. c #FBE1C4CF0A87",
"2. c #FF43CBA00A72",
"3. c #F28AD5150C11",
"4. c #F7BCC3221010",
"5. c #F64BC9F21634",
"6. c #FC64CDCA1429",
"7. c #F94CCFD91DCD",
"8. c #FEFBD34B1418",
"9. c #F5EEDCFA1331",
"0. c #F74BE36C1177",
"q. c #F924E4AC1468",
"w. c #FCB6D7BA2538",
"e. c #FF40DE2E2482",
"r. c #FA72DAD02BFB",
"t. c #FE20E5CF3A8F",
"y. c #FFC1EA3F3AA8",
"u. c #828B84434E3B",
"i. c #B463B67D7DE9",
"p. c #1F581F588CC3",
"a. c #20D120D1844B",
"s. c #2D192D198469",
"d. c #25BE25BE8B5B",
"f. c #32BD32BD87D5",
"g. c #277927799627",
"h. c #2ECD2ECD91FD",
"j. c #25AD25AD9831",
"k. c #2D012D019DC7",
"l. c #3EE83EE89FE0",
"z. c #33E733E7A278",
"x. c #39803980A7ED",
"c. c #3D8F3D8FAA71",
"v. c #485F485F873F",
"b. c #579C579C8009",
"n. c #6CBA766E8463",
"m. c #73F77B6B84B7",
"M. c #621462149687",
"N. c #648064809EBE",
"B. c #43094309AED0",
"V. c #46604660B249",
"C. c #4B7E4B7EB5B4",
"Z. c #4F8C4F8CB8FF",
"A. c #51135113B710",
"S. c #541D541DBD31",
"D. c #584D584DC001",
"F. c #60106010AC14",
"G. c #68B668B6B58B",
"H. c #76797679BA81",
"J. c #7C127C12BFFE",
"K. c #5C5F5C5FC34F",
"L. c #60AE60AEC768",
"P. c #6BD06BD0C530",
"I. c #64926492C9E6",
"U. c #68C868C8CC6E",
"Y. c #79997999CE7C",
"T. c #6E216E21D2B9",
"R. c #73457345D620",
"E. c #7C397C39DE10",
"W. c #7F6381FD87C7",
"Q. c #7D6583FF8CA7",
"!. c #848884888493",
"~. c #8C7B8C808C93",
"^. c #910191018FEB",
"/. c #8F6F8FA79367",
"(. c #8B5092659B54",
"). c #945E945D944E",
"_. c #93E4950F99BF",
"`. c #9C6B9C6B9C64",
"'. c #9C4D9DA8A1D3",
"]. c #9CE2A07CA75A",
"[. c #A478A478A474",
"{. c #A45AA6EEABC0",
"}. c #ABF6ABF8ABFB",
"|. c #A2B7A92BB19E",
" X c #AD1EB41DBE08",
".X c #B454B455B454",
"XX c #B854B854B6F3",
"oX c #B805B836B8B5",
"OX c #BC0EBC0FBC0A",
"+X c #8E998E99DD8C",
"@X c #AF26B7B3C218",
"#X c #B30DBB06C380",
"$X c #BC38C01BC611",
"%X c #844D844DE440",
"&X c #8CA58CA5EB23",
"*X c #925D925DEE2D",
"=X c #975E975EF3B2",
"-X c #9A3A9A3AF0AA",
";X c #9CDD9CDDF97D",
":X c #A3D6A3D6FEC9",
">X c #BF6CC1B9C6C2",
",X c #BE9DC656CE16",
"<X c #C41AC41BC424",
"1X c #C240C7D9CE9F",
"2X c #CC73CC73CC76",
"3X c #C8FECE1BD477",
"4X c #CFEAD434D997",
"5X c #D449D449D44B",
"6X c #D66EDAE5E008",
"7X c #DC1EDC1EDC1D",
"8X c #DB3BDD83E16D",
"9X c #E416E416E416",
"0X c #E81DEA5FEDB1",
"qX c #EBB9EBE8EC27",
"wX c #EC4FEE8FF170",
"eX c #F3E3F3E3F3E3",
"rX c #FACCFACCFACC",
/* pixels */
"! ! ! ! ! ! ! ! ! ! ! ! ! ! ! ! ! ! ! ! ! ! ! ! ! ! ! ! ! ! ! ! ! ! ! ! ! ! ! ! ! ! ! ! ! ! ! ! ",
"! ! ! ! ! ! ! ! ! ! ! ! ! ! ! ! ! ! ! ! ! ! ! ! ! ! ! ! ! ! ! ! ! ! ! ! ! ! ! ! ! ! ! ! ! ! ! ! ",
"! ! ! ! ! ! ! ! ! ! ! ! ! ! ! ! ! ! ! ! ! ! ! ! ! ! ! ! ! ! ! ! ! ! ! ! ! ! ! ! ! ! ! ! ! ! ! ! ",
"! ! ! ! ! ! ! ! ! ! ! ! ! ! ! ! ! ! P B : * & & @ = , Z P ! ! ! ! ! ! ! ! ! ! ! ! ! ! ! ! ! ! ! ",
"! ! ! ! ! ! ! ! ! ! ! ! ! ! ! ! Z * o h v b a.d.j , L , # , L ! ! ! ! ! ! ! ! ! ! ! ! ! ! ! ! ! ",
"! ! ! ! ! ! ! ! ! ! ! ! ! ! L # X v p.j.k.k.z.x.s.V ~.!._ J = > P ! ! ! ! ! ! ! ! ! ! ! ! ! ! ! ",
"! ! ! ! ! ! ! ! ! ! ! ! ! N # Z O g.k.z.z.x.c.V.l.l ^.).~.!._ Z # Z ! ! ! ! ! ! ! ! ! ! ! ! ! ! ",
"! ! ! ! ! ! ! ! ! ! ! ! , = / ' k h.x.c.B.V.C.A.A.x ~.`.).~.~.!.! = N ! ! ! ! ! ! ! ! ! ! ! ! ! ",
"! ! ! ! ! ! ! ! ! ! ! , = / !.~.V f.V.C.Z.S.D.K.L.n !.{.[.`.).~.~._ > , ! ! ! ! ! ! ! ! ! ! ! ! ",
"! ! ! ! ! ! ! ! ! ! B # / ' !.).P m S.D.K.L.I.U.T.v._ .X}.[.`.`.).~.' , N ! ! ! ! ! ! ! ! ! ! ! ",
"! ! ! ! ! ! ! ! ! L # ! ' !.~.`.' n L.I.U.T.R.R.E.F.E OX.X}.}.[.`._.).!.= Z ! ! ! ! ! ! ! ! ! ! ",
"! ! ! ! ! ! ! ! ! = Z ' !.~.).[.).c U.R.R.E.E.%X%XY.G OXOXoX.X}.{.[.`.`.' # P ! ! ! ! ! ! ! ! ! ",
"! ! ! ! ! ! ! ! Z = _ ' ~.).`.{.}.D P.E.%X%X&X&X*X*XT XX2X<X<XoX}.`.!.! Z + > / ! ! ! ! ! ! ! ! ",
"! ! ! ! ! ! ! ! = L ' !.).`.[.}.oXE G.&X&X*X=X;X:X:Xb.`.OX`.' ! Z N B J ! / , ! / ! ! ! ! ! ! ! ",
"! ! ! ! ! ! ! L = _ !.~._.[.}.XX<X' N.;X;X;X-X+XJ.N.c N J L ! _ !.~.~.~.~.!.P N / ! ! ! ! ! ! ! ",
"! ! ! ! ! ! ! , Z !.~.).[.}.XX<X2X).R H.M.W T G E _ !._.[.[.[.[.`.`.).).~.!.' , ! ! ! ! ! ! ! ! ",
"! ! ! ! ! ! ! = / ~.).`.`.).!._ P Z N E _ ~.[.}..X.X.X.X}.}.}.[.[.`.`.).).~.!.P J / ! ! ! ! ! ! ",
"! ! ! ! ! ! P # ! ! L Z N Z P _ ~.`.}..XoXoXOXOXOXoXoXXX.X.X}.}.{.[.`.`.).~.~._ N _ ! ! ! ! ! ! ",
"! ! ! ! ! ! J . , J ! ' ~.`.[.}..X.XXXoXOXOXOX<X<X<XOXOXOXoX.X.X}.{.[.`.`.).~.!.N / / ! ! ! ! ! ",
"! ! ! ! ! ! B Z ~.).).`.`.[.}.}..XoXOXOX<X<X<X<X<X<X<X<X<XOXOX.X.X}.{.[.`._.).~.L P / ! ! ! ! ! ",
"! ! ! ! ! ! N P ~.)._.`.[.{.}..XoXOX<X<X2X2X2X2X2X2X2X2X<X<XOXOXXX.X}.[.[.`.).)./ J _ ! ! ! ! ! ",
"! ! ! ! ! ! , ! ).).`.[.[.}..XXXOX<X<X2X2X5X5X5X5X5X5X2X2X2X<XOXOX.X}.}.[.`._.).' Z ' ! ! ! ! ! ",
"! ! ! ! ! ! , ! )._.`.[.}.}..XOX<X<X2X2X5X5X7X7X7X7X7X5X5X2X2X<XOXoX.X}.[.[.`.).!.B ' ! ! ! ! ! ",
"! ! ! ! ! ! , ! ).`.`.[.}..XoXOX<X2X2X5X7X7X7X9X9X9X7X7X5X5X2X<X<XOXXX.X}.[.`.`.~.B ' ! ! ! ! ! ",
"! ! ! ! ! ! N P ).`.[.{.}..XOX<X<X2X5X7X7X9X9X0X0X9X9X9X7X5X5X2X<XOX[._ P J J P / N ' ! ! ! ! ! ",
"! ! ! ! ! ! B J _.`.[.}.}.XXOX<X2X2X5X7X9X9XqXqXqXqXqX9X7X7X5X2XOX/ C _ '.}.{.~.J @ ! ! ! ! ! ! ",
"! ! ! ! ! ! J N ).`.[.}..XXXOX<X2X5X7X7X9XqXeXeXeXeXqX0X9X7X5X<XP Q >X0XwX0X0XwX8X_.> Z ! ! ! ! ",
"! ! ! ! ! ! P > ~.`.[.}..XoXOX<X2X5X7X7X9XqXeXrXrXrXeXqX9X7X5X/ Q 3X4X'.) E ! W.$X6X].= L ! ! ! ",
"! ! ! ! ! ! ! = ' `.[.}..XoXOX<X2X5X7X7X9XqXeXrXrXrXeXqX9X7X}.V  X1X) N / ' _ Z V {.3X` = ! ! ! ",
"! ! ! ! ! ! ! N P `.[.}..XXXOX<X2X5X7X7X9XqXeXeXeXeXqX0X9X7X' ^ ,XQ.B [..X}.[.`.Z M #X|.= P ! ! ",
"! ! ! ! ! ! ! L , ).[.}.}.XXOX<X2X2X5X7X9X9XqXqXqXqXqX9X7X7XP Q.#XH !.XX}.[.`.`.Z + (.#XN A ! ! ",
"! ! ! ! ! ! ! ! > _ [.{.}..XOX<X<X2X5X7X7X9X9X0X0X9X9X9X7X5XJ Q.@XV )..X}.[.[.~.B N m.#XF Z ! ! ",
"! ! ! ! ! ! ! ! Z B `.[.}..XoXOX<X2X2X5X7X7X7X9X9X9X7X7X5X<XC n. Xz !.'._./.~.E J z ( @XV N ! ! ",
"! ! ! ! ! ! ! ! ! > _ [.}.}..XOX<X<X2X2X5X5X7X7X7X7X7X5X}.d q u.i.f e a t r r 0 w 0 U i.g < 5 ! ",
"! ! ! ! ! ! ! ! ! J , ).[.}..XXXOX<X<X2X2X5X5X5X5X5X5X5X~ ] >.9.q.q.0.0.0.0.0.0.0.0.q.q.3.O.6 L ",
"! ! ! ! ! ! ! ! ! ! N P [.{.}..XoXOX<X<X<X2X2X2X2X2X2X2XY | 5.t.y.y.y.y.y.y.y.y.y.y.y.t.r.%.9 J ",
"! ! ! ! ! ! ! ! ! ! ! > / [.}.}..XXXOXOX<X<X<X<X<X<X<X<XI } 4.w.e.e.e.e.e.e.e.e.e.e.e.w.7.@.8 J ",
"! ! ! ! ! ! ! ! ! ! ! P > ' [.}.}..X.XoXOXOXOX<X<X<XOXOXK } ;.6.8.8.8.8.8.:.5.8.8.8.8.6.4.+.8 J ",
"! ! ! ! ! ! ! ! ! ! ! ! P > _ [.}.}.}..X.XXXoXoXoXoXoXoXK { &.1.2.2.2.2.X.4 s <.2.2.2.1.;.+.2 J ",
"! ! ! ! ! ! ! ! ! ! ! ! ! P , ! `.{.}.}.}..X.X.X.X.X.X.XS { $.;.,.,.,.,.|   1 =.,.,.,.,.*.o.2 J ",
"! ! ! ! ! ! ! ! ! ! ! ! ! ! ! N Z !.[.{.}.}.}.}.}.}.}.}.A { #.*.-.,.,.,.=.7 | ,.,.,.,.-.&.o.2 J ",
"! ! ! ! ! ! ! ! ! ! ! ! ! ! ! / P N L !.`.[.[.[.[.[.[.[.A { #.*.-.-.-.-.-.i ..,.-.-.-.-.&.o.2 J ",
"! ! ! ! ! ! ! ! ! ! ! ! ! ! ! ! / / P B Z ! _ !.~.~.~.' ; { #.*.-.-.-.-.-.O.=.-.-.-.-.-.&.o.2 J ",
"! ! ! ! ! ! ! ! ! ! ! ! ! ! ! ! ! ! / _ / ! J Z Z Z J P $ { #.*.-.-.-.-.-.-.-.-.-.-.-.-.&.o.2 J ",
"! ! ! ! ! ! ! ! ! ! ! ! ! ! ! ! ! ! ! ! ! / _ _ ' ' ' ' 5 { #.*.-.-.-.-.-.-.-.-.-.-.-.*.$.o.2 J ",
"! ! ! ! ! ! ! ! ! ! ! ! ! ! ! ! ! ! ! ! ! ! ! ! ! ! ! ! - [ o.+.$.$.$.$.$.$.$.$.$.$.$.$.+. .2 L ",
"! ! ! ! ! ! ! ! ! ! ! ! ! ! ! ! ! ! ! ! ! ! ! ! ! ! ! ! Z 4 y u u p p p p p p p p p u u u 3 % ! ",
"! ! ! ! ! ! ! ! ! ! ! ! ! ! ! ! ! ! ! ! ! ! ! ! ! ! ! ! ! J C C C C C C C C C C C C C C C Z E ! "
};
