/* XPM */
static const char *buttonDragSelected[] = {
/* columns rows colors chars-per-pixel */
"48 48 139 2 ",
"   c black",
".  c #353535",
"X  c #33333B",
"o  c gray22",
"O  c #3A3A3A",
"+  c #3F3F3F",
"@  c #2F2F4D",
"#  c #2B2B5B",
"$  c #2C2C67",
"%  c #414141",
"&  c #434343",
"*  c #444444",
"=  c gray27",
"-  c gray28",
";  c #494949",
":  c #4B4B4B",
">  c #4C4C4C",
",  c #535353",
"<  c #565656",
"1  c gray34",
"2  c #585858",
"3  c gray35",
"4  c gray36",
"5  c gray37",
"6  c #606060",
"7  c gray38",
"8  c gray39",
"9  c gray40",
"0  c #686868",
"q  c #6C6C6C",
"w  c #6F6F6F",
"e  c gray45",
"r  c #747474",
"t  c gray48",
"y  c gray49",
"u  c red",
"i  c #FE0505",
"p  c #F60F0F",
"a  c #FC1515",
"s  c #FF1919",
"d  c #F94444",
"f  c #ED6F6F",
"g  c #FC7171",
"h  c #FD7A7A",
"j  c #1414B1",
"k  c #3B3BBF",
"l  c #4040BE",
"z  c #5252BA",
"x  c #5757B9",
"c  c #5858BA",
"v  c #6565B9",
"b  c #6868B9",
"n  c #7979B9",
"m  c #7B7BB9",
"M  c #1E1ECF",
"N  c #0C0CD2",
"B  c #0D0DD8",
"V  c #1515D6",
"C  c #1A1AD3",
"Z  c #1313DA",
"A  c #2F2FC4",
"S  c #2C2CC6",
"D  c #2323CB",
"F  c #2525CA",
"G  c #2020CE",
"H  c #3131C3",
"J  c #3636C2",
"K  c #3232C4",
"L  c #0808E2",
"P  c #0707ED",
"I  c #0909E9",
"U  c #0404F2",
"Y  c #0303F4",
"T  c #0202F9",
"R  c blue",
"E  c #848484",
"W  c gray53",
"Q  c #888888",
"!  c #8B8B8B",
"~  c #929292",
"^  c #979797",
"/  c #9A9A9A",
"(  c #9B9B9B",
")  c #9F9F9F",
"_  c #A2A2A2",
"`  c gray64",
"'  c #A4A4A4",
"]  c #A9A9A9",
"[  c #AEAEAE",
"{  c #A1A1BD",
"}  c #B1B1B1",
"|  c gray71",
" . c gray72",
".. c gray75",
"X. c #FE8484",
"o. c #FF8484",
"O. c #FE8888",
"+. c #FF9F9F",
"@. c #FCA0A0",
"#. c #FFADAD",
"$. c #FFB1B1",
"%. c #FEBABA",
"&. c #AFAFC0",
"*. c #C3C3C3",
"=. c #C2C2C5",
"-. c gray77",
";. c #CBCBCB",
":. c gray80",
">. c #CDCDCD",
",. c #D0D0D0",
"<. c LightGray",
"1. c gray83",
"2. c gray84",
"3. c #D7D7D7",
"4. c #D8D8D8",
"5. c gray86",
"6. c gray87",
"7. c #FFC1C1",
"8. c #FFC3C3",
"9. c #FEC6C6",
"0. c #FECBCB",
"q. c #FFD8D8",
"w. c gray88",
"e. c gray89",
"r. c gray90",
"t. c #E7E7E7",
"y. c gray92",
"u. c #ECECEC",
"i. c #EEEEEE",
"p. c #EFEFEF",
"a. c #FFEBEB",
"s. c gray94",
"d. c #F4F4F4",
"f. c #FFF1F1",
"g. c #FFF6F6",
"h. c #F8F8F8",
"j. c #F9F9F9",
"k. c gray99",
"l. c gray100",
/* pixels */
"9 9 9 9 9 9 9 9 9 9 9 9 9 9 9 9 9 9 9 9 9 9 9 9 9 9 9 9 9 9 9 9 9 9 5 , 3 9 9 9 9 9 9 9 9 9 9 9 ",
"9 9 9 9 9 9 9 9 9 9 9 9 9 9 9 9 9 9 7 < ; % % O O + = ; < 7 9 9 9 5 O . . + 9 9 9 9 9 9 9 9 9 9 ",
"9 9 9 9 9 9 9 9 9 9 9 9 9 9 9 9 ; . . . . . . . . . . . . . . ; 7 O . W 7 . = 9 9 9 9 9 9 9 9 9 ",
"9 9 9 9 9 9 9 9 9 9 9 9 9 9 9 ; . . ; e _ *.5.t.t.5.*._ r ; . . . . t d.2.; . % 9 9 9 9 9 9 9 9 ",
"9 9 9 9 9 9 9 9 9 9 9 9 9 = . . . 9 [ 2.u.l.l.l.l.l.j.y.2.[ 7 . . t s.l.l.<.> . % 9 9 9 9 9 9 9 ",
"9 9 9 9 9 9 9 9 9 9 9 9 = . O 7 *.s.j.l.l.l.l.l.l.l.l.l.l.l.y . t u.l.l.l.l.<.< . ; 9 9 9 9 9 9 ",
"9 9 9 9 9 9 9 9 9 9 9 % . % / d.l.l.l.l.l.l.u.t.t.u.l.l.l.j.. + 6.l.6.j.y.t.l.} . . 9 9 9 9 9 9 ",
"9 9 9 9 9 9 9 9 9 9 + . 3 *.l.l.a.X.a f j.l.y 9 9 y l.j./ r . O 6...9 s.<.9 s.-.. = > 5 9 9 9 9 ",
"9 9 9 9 9 9 9 9 9 % . 5 2.l.l.%.u u u p j.s.9 9 9 9 u.7 . . . = _ % 0 l.6.+ e ] O . . . = 9 9 9 ",
"9 9 9 9 9 9 9 9 = . < <.l.l.O.u u u u i l.:.7 9 9 7 , . 3 }  .~ . . ~ l.y.; . 9  .| ~ O . ; 9 9 ",
"9 9 9 9 9 9 9 ; . = ..l.l.7.7.7.X.s u d l.' 7 9 9 + . 5 6.l.t.9 . . Q l.t.; . O _ l.l.' O . ; 9 ",
"9 9 9 9 9 9 9 . . ~ l.l.g.l.l.l.l.a.s g l.q 9 9 % . 5 6.l.2.3 O = % t l.6.> % + + ~ l.l.' O . % ",
"9 9 9 9 9 9 ; . 5 s.l.q.l.] + + ] l.X.+.s.7 9 3 . 9 6.l.l.w.-.2.w.5.w.l.j.2.2.2.:.;.s.l.l.[ < . ",
"9 9 9 9 9 ; . O  .l.a.7.l.+     + l.9.l.<.7 9 , . ^ l.l.l.j.l.l.l.l.l.l.l.l.l.l.l.l.l.l.l.u.y . ",
"9 9 9 9 9 . . 9 l.l.X.7.l.+     + l.0.l./ 9 0 3 . + ) l.l...7 y ) Q [ l.u.~ W W 0 W s.l.6.5 O . ",
"9 9 9 9 9 . O } l.%.u X.l.] + + ] l.@.l.q 9 9 9 = . . _ l.l.^ O . . t l.w.% . . , <.l.w.5 . . ; ",
"9 9 9 9 7 . > w.l.h u s a.l.l.l.l.a.X.l.9 9 9 9 9 ; . . ) 6.w.W O . t l.w.% . 3 -.6.:.5 . + 7 9 ",
"9 9 9 9 < . t j.a.u u u s X.7.7.X.s #.l.9 9 9 9 9 9 ; . . = = , _ = 9 l.6.O t | < = % . + 9 9 9 ",
"9 9 9 9 > . _ l.$.u u u u u u u u u %.y.8 9 9 9 9 9 9 < 7 . . O t.;.q d.2.r s.-.. . . O 9 9 9 9 ",
"9 9 9 9 % . -.l.a.u u u u u u u u u f.j.2.:.<.<.1.<.:.2.u.s.. . 2.l.t.j.u.s.l.} . . . % 9 9 9 9 ",
"9 9 9 9 + . 6.l.l.a.7.9.9.9.7.9.0.f.l.l.l.l.l.l.l.l.l.l.l.l.W . q s.l.l.l.l.>.> . y . + 9 9 9 9 ",
"9 9 9 9 O . u.l.l.l.l.l.l.l.l.l.l.l.l.l.l.l.l.l.l.l.l.l.l.l.d.> . q u.l.l.>.> . e s.. . 9 9 9 9 ",
"9 9 9 9 . . j.l.y.F I I I I I I I I I I I I I I I I I I I I I B @ . q u.>.; . q l.l.. . 9 9 9 9 ",
"9 9 9 9 . . l.l.t.Z R R R R R R R R R R R R R R R R R R R R R R U @ . E 7 . $ t.l.l.. . 9 9 9 9 ",
"9 9 9 9 . . l.l.t.V R R R R R R R R R R R R R R R R R R R R R R R L X . . # V t.l.l.. . 9 9 9 9 ",
"9 9 9 9 O . d.l.u.M R R R R R R R R R R R R R R R R R R R R R R R R L j N R G y.l.j.. . 9 9 9 9 ",
"9 9 9 9 O . y.l.u.J R R R R R R R R R R R R R R R R R R R R R R R R R R R R S u.l.u.. O 9 9 9 9 ",
"9 9 9 9 + . 2.l.j.b R R R R R R R R R R R R R R R R R R R R R R R R R R R R S s.l.2.. + 9 9 9 9 ",
"9 9 9 9 = .  .l.l.-.Y R R R R R R R R R R R R R R R R R R R R R R R R R R R c d.l. .. = 9 9 9 9 ",
"9 9 9 9 > . ~ l.l.u.H R R R R R R R R R R R R R R R R R R R R R R R R R R U ;.l.l.^ . > 9 9 9 9 ",
"9 9 9 9 3 . 0 j.l.l.n R R R R R R R R R R R R R R R R R R R R R R R R R R l s.l.j.q . 3 9 9 9 9 ",
"9 9 9 9 7 . = 2.l.l.=.T R R R R R R R R R R R R R R R R R R R R R R R R R { l.l.2.; . 7 9 9 9 9 ",
"9 9 9 9 9 . O ^ l.l.t.D R R R R R R R R R R R R R R R R R R R R R R R R M w.l.l./ O . 9 9 9 9 9 ",
"9 9 9 9 9 = . < u.l.l.&.Y R R R R R R R R R R R R R R R R R R R R R R U &.l.l.s.3 . ; 9 9 9 9 9 ",
"9 0 7 9 9 9 . . _ l.l.d.z R R R R R R R R R R R R R R R R R R R R R R z d.l.l._ O . 9 9 9 7 9 9 ",
"9 > . > 9 9 ; . ; 6.l.l.y.S R R R R R R R R R R R R R R R R R R R R S y.l.l.6., . = 9 9 > . > 9 ",
"9 O . . > 9 9 . . t l.l.l.6.F R R R R R R R R R R R R R R R R R R F 6.l.l.l.y . . 9 9 ; . . O 9 ",
"9 . . . . ; 9 ; . O ] l.l.l.w.k R R R R R R R R R R R R R R R R k w.l.l.l.] O . ; 9 ; . . . . 9 ",
"9 . . _ . . ; 9 ; . = ..l.l.l.u.n I R R R R R R R R R R R R U m u.l.l.l.*.; . ; 9 ; . . ' . . 9 ",
"9 . . l.} 5 . ; 9 = . > *.l.l.l.h.5.S R R R R R R R R R U H 2.j.l.l.l.*.> . = 9 ; . 5 [ l.. . 9 ",
"9 . . l.l...0 . ; 9 % . = ] l.l.l.l.u.2.v P R R T C x { t.u.l.l.l.l.[ ; . = 9 ; . q ..l.l.. . 9 ",
"9 . . l.l.l.:.t . ; 7 = . + W y.l.l.l.l.j.s.u.y.u.s.j.l.l.l.l.l.y.W O . = 7 ; . t :.l.l.l.. . 9 ",
"9 . . l.l.l.l.5.Q . ; 5 = . . , ' y.l.l.l.l.l.l.l.l.l.l.l.l.t.] , . . = 5 ; . Q 6.l.l.l.l.. . 9 ",
"9 . . l.l.l.l.l.y.W . ; 5 ; . . . , / ;.t.u.l.l.l.l.u.t.;./ < . . . ; 5 ; . Q y.l.l.l.l.l.. . 9 ",
"9 . . l.l.l.l.l.l.j.Q . . 3 9 ; . . + 7 ~ } ;.2.2.;.} ~ 7 % . . ; 9 3 . . W d.l.l.l.l.l.l.. . 9 ",
"9 . . . . . . . . . . . . = 9 9 9 = . . . . . . . . . . . . . ; 9 9 = . . . . . . . . . . . . 9 ",
"9 ; . . . . . . . . . . = 3 9 9 9 9 9 3 , = % + + % = , 3 9 9 9 9 9 3 ; . . . . . . . . . . ; 9 ",
"9 9 9 9 9 9 9 9 9 9 9 9 0 9 9 9 9 9 9 9 9 9 9 9 9 9 9 9 9 9 9 9 9 9 9 9 9 9 9 9 9 9 9 9 9 9 9 9 "
};
