/* XPM */
static char * buttonRightSelectedLocked[] = {
"48 48 275 2",
"  	c None",
". 	c #666666",
"+ 	c #656565",
"@ 	c #626262",
"# 	c #5F5E5E",
"$ 	c #5D5C5C",
"% 	c #5B5A5A",
"& 	c #5E5E5E",
"* 	c #595858",
"= 	c #5A5959",
"- 	c #696868",
"; 	c #8C8B8B",
"> 	c #B3B2B2",
", 	c #CECDCD",
"' 	c #E1E1E1",
") 	c #EAE9E9",
"! 	c #CECECE",
"~ 	c #B3B3B3",
"{ 	c #8C8C8C",
"] 	c #818181",
"^ 	c #BDBCBC",
"/ 	c #DEDEDE",
"( 	c #EFEFEF",
"_ 	c #FCFCFC",
": 	c #FFFFFF",
"< 	c #F0F0F0",
"[ 	c #BDBDBD",
"} 	c #828181",
"| 	c #5E5D5D",
"1 	c #5C5B5B",
"2 	c #7D7D7D",
"3 	c #CCCCCC",
"4 	c #F5F5F5",
"5 	c #FEFEFE",
"6 	c #7F7F7F",
"7 	c #636262",
"8 	c #ACACAC",
"9 	c #F6F6F6",
"0 	c #EAEAEA",
"a 	c #F8F8F8",
"b 	c #AFAEAE",
"c 	c #767575",
"d 	c #CDCDCD",
"e 	c #FDFDFD",
"f 	c #E5E5E5",
"g 	c #E2E2E2",
"h 	c #FBFBFB",
"i 	c #A09F9F",
"j 	c #FAFAFA",
"k 	c #E0E0E0",
"l 	c #CFCFCF",
"m 	c #777676",
"n 	c #7B7A7A",
"o 	c #DDDDDD",
"p 	c #C0BFBF",
"q 	c #AEAEAE",
"r 	c #7D7C7C",
"s 	c #ADACAC",
"t 	c #E0301A",
"u 	c #D1887F",
"v 	c #F0DFDD",
"w 	c #7C7B7B",
"x 	c #5D5D5D",
"y 	c #747474",
"z 	c #DBDADA",
"A 	c #DCDCDC",
"B 	c #8F8E8E",
"C 	c #D6D6D6",
"D 	c #D5D4D4",
"E 	c #D5D5D5",
"F 	c #E82C15",
"G 	c #EB2B13",
"H 	c #CD4B3B",
"I 	c #DFB8B3",
"J 	c #757474",
"K 	c #656464",
"L 	c #CACACA",
"M 	c #CBCBCB",
"N 	c #6E6E6E",
"O 	c #8A8989",
"P 	c #B4B4B4",
"Q 	c #CF4534",
"R 	c #DB331E",
"S 	c #D49891",
"T 	c #676666",
"U 	c #A6A5A5",
"V 	c #6A6969",
"W 	c #A5A5A5",
"X 	c #8D8C8C",
"Y 	c #8E8D8D",
"Z 	c #F9F9F9",
"` 	c #CB6153",
" .	c #DE311C",
"..	c #D69D96",
"+.	c #A7A7A7",
"@.	c #F3F3F3",
"#.	c #DBDBDB",
"$.	c #727272",
"%.	c #F4F4F4",
"&.	c #6F6E6E",
"*.	c #D0877E",
"=.	c #E92C14",
"-.	c #D93621",
";.	c #DEB6B1",
">.	c #C5C5C5",
",.	c #F2F2F2",
"'.	c #878686",
").	c #5C5C5C",
"!.	c #D9D8D8",
"~.	c #D9D9D9",
"{.	c #D04433",
"].	c #F3E7E6",
"^.	c #C6C6C6",
"/.	c #B5B5B5",
"(.	c #646363",
"_.	c #787777",
":.	c #E7E7E7",
"<.	c #605F5F",
"[.	c #E8E8E8",
"}.	c #D43B28",
"|.	c #CC6E62",
"1.	c #858484",
"2.	c #BFBEBE",
"3.	c #D3D2D2",
"4.	c #6B6A6A",
"5.	c #626161",
"6.	c #838383",
"7.	c #ECECEC",
"8.	c #8A8A8A",
"9.	c #EEEEEE",
"0.	c #E32F18",
"a.	c #D79F98",
"b.	c #C1C0C0",
"c.	c #646464",
"d.	c #6E6D6D",
"e.	c #E6E6E6",
"f.	c #AAAAAA",
"g.	c #818080",
"h.	c #727171",
"i.	c #CB6A5E",
"j.	c #CB6559",
"k.	c #706F6F",
"l.	c #908F8F",
"m.	c #F1F1F1",
"n.	c #CAC9C9",
"o.	c #7E7D7D",
"p.	c #6D6C6C",
"q.	c #E4E3E3",
"r.	c #D8A19B",
"s.	c #EA2B14",
"t.	c #D33D2A",
"u.	c #ECD7D4",
"v.	c #929191",
"w.	c #B2B1B1",
"x.	c #D1D1D1",
"y.	c #C6C5C5",
"z.	c #DBACA7",
"A.	c #CE7C72",
"B.	c #D8D8D8",
"C.	c #F6EDEC",
"D.	c #E0B9B4",
"E.	c #DDB1AC",
"F.	c #DDB1AB",
"G.	c #EDEDED",
"H.	c #4176B4",
"I.	c #266EC3",
"J.	c #4779B3",
"K.	c #3070BC",
"L.	c #1D6FD0",
"M.	c #3370BA",
"N.	c #EBEBEB",
"O.	c #367CB9",
"P.	c #9DB15B",
"Q.	c #E9D914",
"R.	c #F5DF09",
"S.	c #EAD914",
"T.	c #A0B357",
"U.	c #377CB8",
"V.	c #3471BA",
"W.	c #3B73B7",
"X.	c #2F78C0",
"Y.	c #C4C537",
"Z.	c #FCE302",
"`.	c #C8C833",
" +	c #96AE60",
".+	c #C6C734",
"++	c #C5C636",
"@+	c #3079BF",
"#+	c #3C74B6",
"$+	c #507DB2",
"%+	c #9CB15B",
"&+	c #FFE400",
"*+	c #99AF5E",
"=+	c #347BBB",
"-+	c #2B76C3",
";+	c #98AF5F",
">+	c #9EB25A",
",+	c #1E6FCF",
"'+	c #7D97B6",
")+	c #2E78C1",
"!+	c #EFDC0F",
"~+	c #DED31E",
"{+	c #DFD31D",
"]+	c #4B7AB3",
"^+	c #DFDFDF",
"/+	c #5B5B5B",
"(+	c #C4C3C3",
"_+	c #D0D0D0",
":+	c #216ECA",
"<+	c #2674C8",
"[+	c #B5BE44",
"}+	c #B7BF42",
"|+	c #FDE302",
"1+	c #708EB4",
"2+	c #4C7BB3",
"3+	c #568C9C",
"4+	c #C5C635",
"5+	c #5089A2",
"6+	c #4E88A3",
"7+	c #C7C733",
"8+	c #FBE204",
"9+	c #558C9D",
"0+	c #226EC7",
"a+	c #D2D2D2",
"b+	c #A9A9A9",
"c+	c #8DA1BA",
"d+	c #F1DD0D",
"e+	c #CDCA2E",
"f+	c #CECB2D",
"g+	c #CCC92F",
"h+	c #C1C439",
"i+	c #5A82B2",
"j+	c #888787",
"k+	c #CDCECF",
"l+	c #1F6ECC",
"m+	c #F3DE0B",
"n+	c #B0B9C4",
"o+	c #3F75B5",
"p+	c #E4D618",
"q+	c #E2D51B",
"r+	c #BDC1C8",
"s+	c #BDC2C9",
"t+	c #6B8BB3",
"u+	c #B1B0B0",
"v+	c #E6E5E5",
"w+	c #909090",
"x+	c #E7D816",
"y+	c #949393",
"z+	c #B7B7B7",
"A+	c #5580B2",
"B+	c #E5D718",
"C+	c #F9E106",
"D+	c #B9B9B9",
"E+	c #8FA2B9",
"F+	c #256EC4",
"G+	c #226EC9",
"H+	c #CCCBCB",
"I+	c #B8B8B8",
"J+	c #7A95B5",
"K+	c #246EC5",
"L+	c #3772B8",
"M+	c #6F8EB3",
"N+	c #BBBABA",
"O+	c #9E9D9D",
"P+	c #717070",
"Q+	c #B7B6B6",
"R+	c #B9B8B8",
"S+	c #737272",
"T+	c #ABABAB",
"U+	c #D4D4D4",
"V+	c #E9E9E9",
"W+	c #ACABAB",
"X+	c #616060",
"Y+	c #636363",
"Z+	c #606060",
". . . . . . . . . . . . . . . . . . . . . . . . . . . . . . . . . . . . . . . . . . . . . . . . ",
". . . . . . . . . . . . . . . . . . . . . . . . . . . . . . . . . . . . . . . . . . . . . . . . ",
". . . . . . . . . . . . . . . . . . + @ # $ % % % % $ # @ + . . . . . . . . . . . . . . . . . . ",
". . . . . . . . . . . . . . . . & * * * * * * * * * * * * * * & . . . . . . . . . . . . . . . . ",
". . . . . . . . . . . . . . . & * = - ; > , ' ) ) ' ! ~ { - = * & . . . . . . . . . . . . . . . ",
". . . . . . . . . . . . . & * * % ] ^ / ( _ : : : : _ < / [ } % * * & . . . . . . . . . . . . . ",
". . . . . . . . . . . . | * 1 2 3 4 5 : : : : : : : : : : 5 4 , 6 1 * | . . . . . . . . . . . . ",
". . . . . . . . . . . 1 * 7 8 9 : : : 5 : 5 4 0 0 4 5 5 5 : : : a b 7 * 1 . . . . . . . . . . . ",
". . . . . . . . . . 1 * c d : : : e f g h : i 1 1 i : j k f e : : : l m * 1 . . . . . . . . . . ",
". . . . . . . . . 1 * n o : : : < p - q h 4 r * * r 4 h s t u v : : : / w * 1 . . . . . . . . . ",
". . . . . . . . x * y z : : 5 A B * | C : D 7 * * 7 D : E F G H I 5 : : A J * x . . . . . . . . ",
". . . . . . . & * K L : : 5 M N * * O ( : P | * * | P : ( Q G G R S 5 : : M T * & . . . . . . . ",
". . . . . . . * % U : : : d V * $ * W j 5 X = * * = Y : Z ` G G G  ...: : : +.% * . . . . . . . ",
". . . . . . | * n @.: : #.$.* $ * 1 p : %.&.* & & * N %.: *.=.G G G -.;.: : %.w * | . . . . . . ",
". . . . . & * $ >.: : ,.'.* ).+ * - !.: z K * + + * K ~.: !.t G G G G {.].: : ^.| * & . . . . . ",
". . . . . * = } _ : 5 /.* % + (.* _.:.: /.<.* + + * # P : [.}.G G G G G |.j : _ 1.= * . . . . . ",
". . . . . * $ 2.: 5 3.4.* 5.. 7 * 6.7.: 8.= * . . * = '.: 9.{.G G G G G 0.a.5 : b.| * . . . . . ",
". . . . c.* d.e.: h f.* $ . . <.* U Z : g.* & . . & * h.a j i.G G G G G G j.j : [.k.* c.. . . . ",
". . . . 5.* l._ : m.; * 1 1 1 1 * n.: : o.* 1 1 1 1 * p.q.: r.s.G G G G G t.u.: _ v.* 5.. . . . ",
". . . . # * w.: : 3 * * * * * * * x.: ( (.* * * * * * * y.: z.G G G G G G G A._ : P * # . . . . ",
". . . . $ * l : : m.B.~.~.~.~.~.#.9 : j / ~.~.~.~.~.~.A m.: C.D.E.E.E.E.E.F.u.5 : x.* $ . . . . ",
". . . . % * q.: : : : : : : : : : : : : : : : : : : : : : : : : : : : : : : : : : e.* % . . . . ",
". . . . = * @.: : : : : : : : : : : : : : : : : : : : : : : : : : : : : : : : : : 4 * = . . . . ",
". . . . * * _ : G.H.I.I.I.I.I.I.I.I.I.I.I.I.I.I.I.I.I.I.I.I.I.I.I.I.I.I.I.I.J.( : 5 * * . . . . ",
". . . . * * : : 0 K.L.L.L.L.L.L.L.L.L.L.L.L.L.L.L.L.L.L.L.L.L.L.L.L.L.L.L.L.M.N.: : * * . . . . ",
". . . . * * 5 : N.M.L.L.L.L.L.L.L.L.L.L.O.P.Q.R.R.S.T.U.L.L.L.L.L.L.L.L.L.L.V.N.: : * * . . . . ",
". . . . * * a : G.W.L.L.L.L.L.L.L.L.L.X.Y.Z.`. + +.+Z.++@+L.L.L.L.L.L.L.L.L.#+G.: h * * . . . . ",
". . . . = * G.: ,.$+L.L.L.L.L.L.L.L.L.%+&+*+=+-+-+=+;+&+>+,+L.L.L.L.L.L.L.L.J.m.: < * = . . . . ",
". . . . 1 * A : j '+L.L.L.L.L.L.L.L.)+!+~+)+L.L.L.L.)+{+!+@+L.L.L.L.L.L.L.L.]+,.: ^+* /+. . . . ",
". . . . | * (+: : _+:+L.L.L.L.L.L.L.<+&+[+L.L.L.L.L.L.}+|+<+L.L.L.L.L.L.L.L.1+a : ^.* x . . . . ",
". . . . <.* U : : m.2+L.L.L.L.L.L.L.3+&+4+5+5+5+5+5+6+7+8+9+L.L.L.L.L.L.L.0+a+: : b+* <.. . . . ",
". . . . 7 * 1.Z : _ c+L.L.L.L.L.L.L.Y.&+d+e+f+f+f+f+g+d+|+h+L.L.L.L.L.L.L.i+4 : j j+* @ . . . . ",
". . . . + * T z : : k+l+L.L.L.L.L.L.m+&+&+&+&+&+&+&+&+&+&+d+L.L.L.L.L.L.L.n+5 : A - * + . . . . ",
". . . . . * 1 f.: : ) o+L.L.L.L.L.L.p+&+&+&+&+&+&+&+&+&+&+q+L.L.L.L.L.L.#+[.: : s 1 * . . . . . ",
". . . . . & * y m.: : r+:+L.L.L.L.L.p+&+&+&+&+&+&+&+&+&+&+q+L.L.L.L.L.:+s+: : %.c * & . . . . . ",
". . . . . . * % q : : a t+L.L.L.L.L.p+&+&+&+&+&+&+&+&+&+&+q+L.L.L.L.L.t+a : : u+1 * . . . . . . ",
". . . . . . & * N q.: : ( J.L.L.L.L.p+&+&+&+&+&+&+&+&+&+&+q+L.L.L.L.J.( : : v+k.* & . . . . . . ",
". . . . . . . * = w+: : : f H.L.L.L.x+&+&+&+&+&+&+&+&+&+&+p+L.L.L.H.f : : : y+= * . . . . . . . ",
". . . . . . . & * | z+: : : v+A+L.L.B+C+C+C+C+C+C+C+C+C+C+q+L.L.A+v+: : : D+| * & . . . . . . . ",
". . . . . . . . | * - n.: : : m.E+F+L.L.L.L.L.L.L.L.L.L.L.L.0+E+m.: : : 3 V * | . . . . . . . . ",
". . . . . . . . . $ * d.M : : : j ^+J.L.L.L.L.L.L.L.L.L.G+2+o j : : : H+&.* $ . . . . . . . . . ",
". . . . . . . . . . $ * T I+: : : : m./ J+K+L.L.l+L+M+n+N.m.: : : : N+- * $ . . . . . . . . . . ",
". . . . . . . . . . . x * # O+7.: : : : j @.( ( ( 4 j e : : : : G.i # * $ . . . . . . . . . . . ",
". . . . . . . . . . . . | * % P+Q+N.e : : : : : : : : : : e N.R+h.% * | . . . . . . . . . . . . ",
". . . . . . . . . . . . . & * * = S+T+U+V+9 5 : : 5 9 V+E W+S+= * * & . . . . . . . . . . . . . ",
". . . . . . . . . . . . . . . & * * X+r W b.U+o o U+b.W o.5.= * & . . . . . . . . . . . . . . . ",
". . . . . . . . . . . . . . . . . | * * * * * * * * * * * * * & . . . . . . . . . . . . . . . . ",
". . . . . . . . . . . . . . . . . . + Y+Z+| ).1 1 ).| Z+Y++ . . . . . . . . . . . . . . . . . . "};
