/* XPM */
static const char *buttonDblLeftSelected[] = {
/* columns rows colors chars-per-pixel */
"48 48 256 2",
"   c #0D0D2D",
".  c #0F0F39",
"X  c #090935",
"o  c #15152C",
"O  c #131334",
"+  c #191B35",
"@  c #2B090F",
"#  c #3D1E1F",
"$  c #25262B",
"%  c #232332",
"&  c #25253A",
"*  c #2C2C34",
"=  c #2F2F39",
"-  c #3F2B2B",
";  c #352B2B",
":  c #33203F",
">  c #343439",
",  c #3D3333",
"<  c #3D3B3B",
"1  c #353131",
"2  c #070852",
"3  c #1C1C45",
"4  c #11115C",
"5  c #111151",
"6  c #0B0B64",
"7  c #09096D",
"8  c #050565",
"9  c #0E0E7D",
"0  c #181867",
"q  c #101077",
"w  c #181874",
"e  c #282844",
"r  c #2A2352",
"t  c #3C274D",
"y  c #36365C",
"u  c #2F2F63",
"i  c #272A7C",
"p  c #302F6F",
"a  c #322C65",
"s  c #3D3D61",
"d  c #581414",
"f  c #452626",
"g  c #432E2E",
"h  c #4D2336",
"j  c #413E3E",
"k  c #483232",
"l  c #542D2D",
"z  c #5C2425",
"x  c #503C3C",
"c  c #583333",
"v  c #6F0B0B",
"b  c #6F1010",
"n  c #640813",
"m  c #661D28",
"M  c #6F2525",
"N  c #6B3A3A",
"B  c #683535",
"V  c #713A3A",
"C  c #513043",
"Z  c #444343",
"A  c #4C4C4C",
"S  c #474949",
"D  c #4C4059",
"F  c #5B4B4B",
"G  c #564646",
"H  c #5B4250",
"J  c #545453",
"K  c #565858",
"L  c #5A5656",
"P  c #5C5C5C",
"I  c #484574",
"U  c #56476A",
"Y  c #6B4C4C",
"T  c #6D4242",
"R  c #625C5C",
"E  c #695A5B",
"W  c #6A5353",
"Q  c #7D4444",
"!  c #794E53",
"~  c #7B5C5C",
"^  c #7B5252",
"/  c #60605F",
"(  c #656666",
")  c #6B6B6B",
"_  c #696363",
"`  c #786666",
"'  c #737474",
"]  c #7C7C7C",
"[  c #787373",
"{  c #151589",
"}  c #1A1A8A",
"|  c #1E1E91",
" . c #202082",
".. c #212192",
"X. c #2C2C9B",
"o. c #282894",
"O. c #313195",
"+. c #3333A1",
"@. c #3A3AA5",
"#. c #3B3BA8",
"$. c #444489",
"%. c #434396",
"&. c #565486",
"*. c #4141AD",
"=. c #4646B1",
"-. c #4A4BB4",
";. c #4E4EB8",
":. c #5D5DAC",
">. c #5353BB",
",. c #5758BF",
"<. c #5A5BB3",
"1. c #626196",
"2. c #6163A7",
"3. c #7576B6",
"4. c #6467BA",
"5. c #5B5BC3",
"6. c #6162C5",
"7. c #6565CB",
"8. c #6969CE",
"9. c #6E6ED1",
"0. c #7878CF",
"q. c #7272D4",
"w. c #7B7BDC",
"e. c #8E0505",
"r. c #8B0B0E",
"t. c #8C1414",
"y. c #9A0808",
"u. c #852729",
"i. c #863737",
"p. c #953F3F",
"a. c #9C2626",
"s. c #A70303",
"d. c #B40202",
"f. c #B2100F",
"g. c #B01A1A",
"h. c #A53E3E",
"j. c #BB2323",
"k. c #AB2727",
"l. c #854747",
"z. c #9E5858",
"x. c #964747",
"c. c #9C6464",
"v. c #996A6A",
"b. c #927A7A",
"n. c #997575",
"m. c #887777",
"M. c #A14D4D",
"N. c #A45353",
"B. c #BC4F4F",
"V. c #B14C4C",
"C. c #BA5050",
"Z. c #A26363",
"A. c #A27F7F",
"S. c #BC7979",
"D. c #C30D0D",
"F. c #C01212",
"G. c #D10707",
"H. c #D31817",
"J. c #CC3432",
"K. c #D03B3B",
"L. c #ED1C1C",
"P. c #FE0A09",
"I. c #F00808",
"U. c #FD1111",
"Y. c #FD1B1B",
"T. c #F51010",
"R. c #EA2221",
"E. c #FC2626",
"W. c #FC2C2C",
"Q. c #FC3434",
"!. c #FB3A3A",
"~. c #F43F3F",
"^. c #C94A4A",
"/. c #CC5959",
"(. c #DF5F5F",
"). c #C46666",
"_. c #C97171",
"`. c #DE6C6B",
"'. c #D56161",
"]. c #DA7878",
"[. c #E64140",
"{. c #FB4242",
"}. c #FA4C4C",
"|. c #F54E4D",
" X c #F95656",
".X c #F95D5D",
"XX c #F35A5A",
"oX c #ED6767",
"OX c #E57373",
"+X c #E27979",
"@X c #F96464",
"#X c #F86B6B",
"$X c #F16E6E",
"%X c #F3706F",
"&X c #F77272",
"*X c #F77979",
"=X c #FA7474",
"-X c #F97C7C",
";X c #848484",
":X c #8C8D8D",
">X c #999393",
",X c #958686",
"<X c #A48787",
"1X c #A59B9B",
"2X c #B08F8F",
"3X c #BA8686",
"4X c #B39C9C",
"5X c #B59595",
"6X c #B5A3A3",
"7X c #BBB4B4",
"8X c #8383D6",
"9X c #8383E3",
"0X c #8F8FE9",
"qX c #9090EE",
"wX c #9595F3",
"eX c #A2A2FD",
"rX c #C19492",
"tX c #D99090",
"yX c #DB9E9D",
"uX c #D69B9B",
"iX c #D68484",
"pX c #C7B7B7",
"aX c #D6AAAA",
"sX c #D4B6B6",
"dX c #EB8787",
"fX c #ED8F8F",
"gX c #F68484",
"hX c #F68D8D",
"jX c #F98383",
"kX c #F88989",
"lX c #F59595",
"zX c #F59C9C",
"xX c #FA9494",
"cX c #F89E9E",
"vX c #EDA2A2",
"bX c #E9B1B1",
"nX c #F4A3A3",
"mX c #F4AAAA",
"MX c #F8A9A9",
"NX c #F8A5A5",
"BX c #F4B2B2",
"VX c #F3BBBB",
"CX c #D4CDCD",
"ZX c #DACCCC",
"AX c #DFD8D8",
"SX c #E5C5C5",
"DX c #E4DDDD",
"FX c #EAD4D4",
"GX c #F3C5C5",
"HX c #F2CCCC",
"JX c #F9CECE",
"KX c #F2D4D4",
"LX c #F1DBDB",
"PX c #E7E0E0",
"IX c #EFE0E0",
"UX c #F2E3E3",
/* pixels */
"( ( ( ( ( ( ( ( / Z J ( ( ( ( ( ( ( ( ( ( ( ( ( ( ( ( ( ( ( ( ( ( ( ( ( ( ( ( ( ( ( ( ( ( ( ( ( ",
"( ( ( ( ( ( ( J %   < ( ( ( ( ( ( ( ( ( ( ( ( ( ( ( ( ( ( ( ( ( ( ( ( ( ( ( ( ( ( ( ( ( ( ( ( ( ",
"( ( ( ( ( ( A o 6 w * ( ( ( ( ( ( ( ( ( ( ( ( / ( ( ( ( ( ( ( ( ( ( ( ( ( ( ( ( ( ( ( ( ( ( ( ( ",
"( ( ( ( ( A   7 | o.& / ( ( ( ( ( ( K S < , - , ; 1 j A / ( ( ( ( ( ( ( ( ( ( ( ( ( ( ( ( ( ( ( ",
"( ( ( ( A   7 } X.#.e K ( ( ( ( A , l i.V./.'.oXx.V N.N g < J ( ( ( ( ( ( ( ( ( ( ( ( ( ( ( ( ( ",
"( ( ( P + 8 { X.@.-.u S ( ( K $ - C.oX#X=X*X-X-X).Q kX-X`.N.l < P ( ( ( ( ( ( ( ( ( ( ( ( ( ( ( ",
"( ( ( 1 2 { o.+.=.5.$.j ( S o 2 h $X=X*X-XgXgXkX].N dXkXgX-XOXx.f A ( ( ( ( ( ( ( ( ( ( ( ( ( ( ",
"( ( A X 9 ..+.*.>.7.:.> < X 9 | : `.jXgXkXkXhXhXfXT iXxXhXgXgX-X).c Z / ) ( ( ( ( ( ( ( ( ( ( ( ",
"( ( % 6 | X.*.>.6.q.0.% X 9 | +.: S.hXhXhXlXlXzXvX^ S.cXlXhXhXgXjXOXB < / ( ( ( ( ( ( ( ( ( ( ( ",
"( J . } X.#.;.5.9.9X0Xy 8 | X.*.p Z.xXlXzXzXvXnXMXv.v.MXnXzXlXlXhXjXOXN Z ( ( ( ( ( ( ( ( ( ( ( ",
"( > 4 o.@.=.5.9.w.qXeX&.0 X.@.;.O.^ zXcXnXmXBXBXBXrX~ mXmXnXcXzXlXhXkX+Xc A ( ( ( ( ( ( ( ( ( ( ",
"( &  .+.=.5.8.0.8X8X3.y 0 @.=.5.:.H vXmXmXBXBXBXVXaXW bXBXmXmXnXzXzXlXxX_.g P / ( ( ( ( ( ( ( ( ",
"A 3 X.@.%.$.I y e + 5 0 O.=.,.8.q.D aXBXBXVXGXGXGXVXR aXGXVXBXMXvXtX_.c.l.f < ) ( ( ( ( ( ( ( ( ",
"Z   e & > t S J $ 6 | +.*.>.7.q.9XU rXVXGXGXGXHXKXKX[ 5XsX5Xm.c.Y Y ~ b.4XpX/ / ) / ( ( ( ( ( ( ",
"P A J / / ) ( K O } X.#.>.6.q.9XwX1.<XJXHXHXSXsX6X,XG x Y ^ c.3XyXbXGXGXKXLX6XA ) ( ( ( ( ( ( ( ",
"( ( ( ( ( ( ) < 4 X.@.-.5.9.9XqXeX3.E 4Xb.` Y N l.z.).].fXzXnXmXBXVXVXGXHXKXKX/ ( ) ( ( ( ( ( ( ",
"( ( ( ( ( ( / *  .#.=.5.4.4.2.&.U C z i.h.^.'.&X-XjXkXhXlXzXnXmXBXBXVXGXHXFXLX1XJ ) ( ( ( ( ( ( ",
"( ( ( ( ( ( P + i i a t h m u.k.J.[.}. X.X@X#X=X*X-XkXhXlXzXnXmXBXVXGXGXHXKXLXZXJ ' ( ( ( ( ( ( ",
"( ( ( ( ( ( A @ n r.f.H.L.W.Q.!.{.}.}. X.X@X#X&X*X-XgXhXlXzXnXmXBXBXVXGXHXFXLXIX) ) ( ( ( ( ( ( ",
"( ( ( ( ( ( S e.P.U.Y.Y.E.W.Q.!.{.}.|. X.X@X#X&X*XjXkXfXlXzXnXmXBXVXGXGXHXKXLXUX>X/ ) ( ( ( ( ( ",
"( ( ( ( ( ( C s.P.U.U.Y.E.W.Q.!.{.{.}. X.X@X#X&X*X-XkXhXlXzXnXmXBXBXVXGXHXKXLXUXpXK ' ( ( ( ( ( ",
"( ( ( ( ( ( < d.P.U.U.E.E.W.Q.!.{.}.}. X.X@X#X&X*XjXgXhXlXzXnXmXBXVXGXGXHXKXLXUXCXK [ ( ( ( ( ( ",
"( ( ( ( ( ( < d.P.U.Y.Y.E.W.Q.!.{.{.}. X.X@X#X&X*XjXkXfXlXzXnXmXBXBXGXGXHXFXLXUXAXP [ ( ( ( ( ( ",
"( ( ( ( ( ( < d.P.U.U.E.E.W.Q.!.{.}. X X.X@X#X=X*XgXgXhXlXzXnXmXBXVXVXGXHXKXLXUXDX/ ] / ( ( ( ( ",
"( ( ( ( ( ( Z s.P.U.U.E.E.W.Q.!.{.{.|. X.X@X#X&X*X-XkXhXlXzXnXmXBXBXGXGXHXFXLXIXPX/ ] ( ( ( ( ( ",
"( ( ( ( ( ( S r.P.U.Y.Y.E.W.Q.!.{.}. X X.X@X#X&X*XgXgXhXlXzXnXmXBXVXVXGXHXKXLXIXPX/ ] ( ( ( ( ( ",
"( ( ( ( ( ( J v P.U.U.E.E.W.Q.!.{.}.|. X.X@X#X&X*XgXdXhXlXzXnXmXBXBXGXGXHXKXLXUXDX/ b.) ( ( ( ( ",
"( ( ( ( ( ( P d I.U.Y.Y.E.W.Q.!.!.}.}. X.X@X#X&X*X-XgXhXlXzXnXmXBXVXVXGXHXFXLXUXZXP 1.( ( ( ( ( ",
"( ( ( ( ( ( ( ; G.U.Y.Y.E.W.Q.!.{.}.}. X.X@X#X&X*XgXgXhXlXzXnXmXBXBXGXGXHXKXLXUXpX/ ] ( ( ( ( ( ",
"( ( ( ( ( ( ( Z y.P.Y.Y.E.W.Q.!.{.}.}. X.X@X#X&X*XjXkXhXlXzXnXmXBXVXVXGXHXKXLXUX1X( ' ( ( ( ( ( ",
"( ( ( ( ( ( ( K d T.Y.Y.E.W.Q.!.{.}.|. X.X@X#X&X*X-XkXfXlXzXnXmXBXBXGXGXHXKXLXIX' ] ) ( ( ( ( ( ",
"( ( ( ( ( ( ( ( - D.Y.Y.E.W.Q.!.{.{. X XXX@X#X%X*XgXgXhXlXzXnXmXBXVXVXGXHXKXIXZXP ;X) ( ( ( ( ( ",
"( ( ( ( ( ( ( ( A b U.E.E.W.Q.!.{.}.}. X.X@X#X&X*XgXgXhXlXzXnXmXBXVXVXGXHXKXLX1X( ;X( ( ( ( ( ( ",
"( ( ( ( ( ( ( ( ( - f.E.E.W.Q.!.{.}.}. X.X@X#X&X*XjXgXhXlXzXnXmXBXBXGXGXHXKXFX( ;X) ( ( ( ( ( ( ",
"( ( ( ( ( ( ( ( ( K d L.E.W.Q.!.{.{. X X.X@X#X&X*X-XkXhXlXzXnXmXBXVXVXGXHXKX6XP ;X( ( ( ( ( ( ( ",
"( ( ( ( ( ( ( ( ( ( j t.E.W.Q.!.{.}.}. X.X@X#X&X*XgXkXhXlXzXnXmXBXbXGXGXHXSXP ;X' ( ( ( ( ( ( ( ",
"( ( ( ( ( ( ( ( ( ( ( g g.W.Q.!.{.}.}. X X@X#X=X*XgXkXhXlXzXnXmXBXBXVXGXHXm.) ;X( ( ( ( ( ( ( ( ",
"( ( ( ( ( ( ( ( ( ( ( P f j.Q.!.{.{.|. X.X@X#X=X*X-XkXhXlXzXnXmXBXVXGXGX<XK :X) ( ( ( ( ( ( ( ( ",
"( ( ( ( ( ( ( ( ( ( ( ( P f j.!.{.}.|. X.X@X#X=X*X-XdXhXlXzXvXmXBXVXVX2XJ :X' ( ( ( ( ( ( ( ( ( ",
"( ( ( ( ( ( ( ( ( ( ( ( ( / g a.{.}.|. X.X@X#X=X*XgXgXhXlXzXnXmXBXBX<XF :X[ ( ( ( ( ( ( ( ( ( ( ",
"( ( ( ( ( ( ( ( ( ( ( ( ( ( ( Z M K.|. X X@X#X=X*XgXgXhXlXzXnXMXyX~ L :X[ ( ( ( ( ( ( ( ( ( ( ( ",
"( ( ( ( ( ( ( ( ( ( ( ( ( ( ( ( K x i.^.XX@X#X=X*XjXkXhXxXzXtXv.F ' :X' ( ( ( ( ( ( ( ( ( ( ( ( ",
"( ( ( ( ( ( ( ( ( ( ( ( ( ( ( ( ( ) P x B p.B./.`.`.]._.Z.^ F ) :X] ( ( ( ( ( ( ( ( ( ( ( ( ( ( ",
"( ( ( ( ( ( ( ( ( ( ( ( ( ( ( ( ( ( ) ' ) _ J F F G F P ( ] :X] ) ( ( ( ( ( ( ( ( ( ( ( ( ( ( ( ",
"( ( ( ( ( ( ( ( ( ( ( ( ( ( ( ( ( ( ( ( ( ( ' ' ] ] ] ] ] ) ( ( ( ( ( ( ( ( ( ( ( ( ( ( ( ( ( ( ",
"( ( ( ( ( ( ( ( ( ( ( ( ( ( ( ( ( ( ( ( ( ( ( ( ( ( ( ( ( ( ( ( ( ( ( ( ( ( ( ( ( ( ( ( ( ( ( ( ",
"( ( ( ( ( ( ( ( ( ( ( ( ( ( ( ( ( ( ( ( ( ( ( ( ( ( ( ( ( ( ( ( ( ( ( ( ( ( ( ( ( ( ( ( ( ( ( ( ",
"( ( ( ( ( ( ( ( ( ( ( ( ( ( ( ( ( ( ( ( ( ( ( ( ( ( ( ( ( ( ( ( ( ( ( ( ( ( ( ( ( ( ( ( ( ( ( ( "
};
