/* XPM */
static const char *buttonMiddleSelected[] = {
/* columns rows colors chars-per-pixel */
"48 48 255 2",
"   c #368A0EAE0EAE",
".  c #10D10F0E2822",
"X  c #16E916E93754",
"o  c #2E7C1DA53F2E",
"O  c #261625EB2E4B",
"+  c #319A2D102BE9",
"@  c #3E5E2BEB2BEB",
"#  c #25AC25AD3564",
"$  c #2C082C07350A",
"%  c #35D23163314F",
"&  c #3CEA33A533A5",
"*  c #372F372F3AEE",
"=  c #3E103B023B02",
"-  c #524C15F615F6",
";  c #5CB8141B141B",
":  c #6FA90B1D0B1D",
">  c #6FB5101E101E",
",  c #774510F110F1",
"<  c #464526B326B3",
"1  c #425A2C762C76",
"2  c #4C032DDF2DDF",
"3  c #5B6F234C2670",
"4  c #545B2EDD2EDD",
"5  c #5EE12F9C2F9C",
"6  c #4B21326B326B",
"7  c #41073EC13EC1",
"8  c #598C33023302",
"9  c #50953D0C3CDC",
"0  c #6F96261D261D",
"q  c #6B182ECB2ECB",
"w  c #73D923C623C6",
"e  c #636032A532A5",
"r  c #69CB354D354D",
"t  c #62513B463B28",
"y  c #6B4E388B3923",
"u  c #71CE3AFD3AFD",
"i  c #124812484F54",
"p  c #19A119DA5A70",
"a  c #3DC733C94F88",
"s  c #1600160C6ACA",
"d  c #1BAF1BAF7A2E",
"f  c #39B335BA65A4",
"g  c #33B833997730",
"h  c #4DD12F46409D",
"j  c #4F2833B34539",
"k  c #41F938D957CF",
"l  c #56813E275556",
"z  c #64463AA646AD",
"x  c #435442CC42CC",
"c  c #483D40864086",
"v  c #48414841478A",
"b  c #47B449944994",
"n  c #4C1F4D044CFE",
"m  c #5B704B6D4B6D",
"M  c #582B48AD5844",
"N  c #540F53E553E5",
"B  c #598556315631",
"V  c #564058AB58AB",
"C  c #5C2E5C115BFB",
"Z  c #6C534D464D45",
"A  c #729A404743F2",
"S  c #77D843D1494E",
"D  c #62D85D125D12",
"F  c #7B1D52515251",
"G  c #759358515B3A",
"H  c #7BEE5D605D60",
"J  c #51994AB064FA",
"K  c #486049CB7036",
"L  c #57644CA97204",
"P  c #58BE57057F6E",
"I  c #70645BDE62B0",
"U  c #5E59605F605F",
"Y  c #665C665F665E",
"T  c #69FE63C763C7",
"R  c #67A867FD67FD",
"E  c #6B0B6B1F6B1F",
"W  c #7E4460B760B7",
"Q  c #714D6D3B6D3B",
"!  c #742974477447",
"~  c #78B6744F744F",
"^  c #772978157815",
"/  c #7C947CF47CF4",
"(  c #8E95054D054D",
")  c #90D40D890D89",
"_  c #9B7308680868",
"`  c #8D6714A914A9",
"'  c #A7BA038B038B",
"]  c #B54C02B402B4",
"[  c #B1AC103A103A",
"{  c #B0E51B031B03",
"}  c #880128792879",
"|  c #9D2D26452645",
" . c #83C3327B3639",
".. c #95AD3F473F47",
"X. c #ABF827DC27DC",
"o. c #BC0923FE23FE",
"O. c #A65C3E9E3E7A",
"+. c #C4510D160D16",
"@. c #D1F007820782",
"#. c #C0C712171217",
"$. c #D19017D317D3",
"%. c #F18E08B008B0",
"&. c #FFD109FA09FA",
"*. c #EEDA1CD11CD1",
"=. c #F5F810211021",
"-. c #FEF211F111F1",
";. c #FE7C1C1B1C1B",
":. c #CC4933AA33AA",
">. c #D1443BE33BE3",
",. c #EA2221B321B3",
"<. c #FDC2265A265A",
"1. c #FCF42D042D04",
"2. c #FD2D34783478",
"3. c #FC6D3B2C3B2C",
"4. c #82554EDC4EDC",
"5. c #96D347D347D3",
"6. c #99F54DB74CD6",
"7. c #8C1E54975497",
"8. c #A01B53A553D6",
"9. c #A5C04D814D81",
"0. c #A51253815369",
"q. c #BB7450875087",
"w. c #BB4058C458C4",
"e. c #96A75FB9608D",
"r. c #9D7764AB64AB",
"t. c #97A969DA69DA",
"y. c #984A6A646B21",
"u. c #8B7D74517451",
"i. c #99DE76297629",
"p. c #93A87A2D7ABE",
"a. c #A7CE65016501",
"s. c #A3167F8F7F8F",
"d. c #BCCA7B0C7A24",
"f. c #CE1B46924692",
"g. c #C7874F844E2A",
"h. c #E6094159415B",
"j. c #F4F53FF33FF3",
"k. c #FC2442694269",
"l. c #F69C4E634E2E",
"z. c #FB9049394939",
"x. c #FAE253AF53AE",
"c. c #F4235B105B10",
"v. c #FA4B5DD75DD7",
"b. c #E19760855F3E",
"n. c #CB93624A624A",
"m. c #C1F86B3B6AEF",
"M. c #D4D161CE61CE",
"N. c #D26E6E036E03",
"B. c #DC4D6BFD6BFD",
"V. c #C45B70867086",
"C. c #CFE673357335",
"Z. c #DB32775D775E",
"A. c #E40D6DCF6DCF",
"S. c #FA1665636563",
"D. c #F2AE6FA76EE6",
"F. c #F9436C0C6C0C",
"G. c #EB2073317331",
"H. c #E8BC784A784A",
"J. c #F1A174137413",
"K. c #F90A73507350",
"L. c #F83E7A1F7A1F",
"P. c #FAB97CCB7CBF",
"I. c #1F581F588CC3",
"U. c #2606269886BA",
"Y. c #313F32B387CB",
"T. c #267227749622",
"R. c #29682A389512",
"E. c #2D012D019DC7",
"W. c #3D853F079FFF",
"Q. c #33E733E7A278",
"!. c #397F3980A7ED",
"~. c #3D8F3D8FAA71",
"^. c #488E48578737",
"/. c #632B61109584",
"(. c #614E616E9F28",
"). c #684F67579E18",
"_. c #43094309AED0",
"`. c #46604660B249",
"'. c #4B7E4B7EB5B4",
"]. c #4F8C4F8CB8FF",
"[. c #50545127B723",
"{. c #541A541DBD31",
"}. c #584D584DC001",
"|. c #5F436035AC3A",
" X c #67E968A8B57D",
".X c #7588778CBB95",
"XX c #5C5F5C5FC34F",
"oX c #608460B0C76A",
"OX c #6AEE6BC5C525",
"+X c #64926492C9E6",
"@X c #689568C6CC6C",
"#X c #7B217CCEC0BA",
"$X c #78EB79C3CEA6",
"%X c #6E1D6E22D2BA",
"&X c #73457345D620",
"*X c #7C397C39DE10",
"=X c #8426844E844E",
"-X c #87A2887A887A",
";X c #8C6D8CCD8CCD",
":X c #99A993E393E3",
">X c #ADE588068806",
",X c #A7B38D0C8D0C",
"<X c #BAC582158215",
"1X c #B17990059005",
"2X c #A3C19B179B17",
"3X c #A9B599EC9985",
"4X c #B62C978C9723",
"5X c #B4B0A2FFA2FF",
"6X c #BC59B599B599",
"7X c #D9DC861F8484",
"8X c #CCE7988F988F",
"9X c #DABA90BE90BE",
"0X c #D83B9B239A9C",
"qX c #EDE68930881B",
"wX c #F7A284A1849B",
"eX c #FA6083818376",
"rX c #F7178DF58DF2",
"tX c #FA468C1F8C1F",
"yX c #EE3290799079",
"uX c #E4979FDB9FDB",
"iX c #F6CD95939593",
"pX c #FA6294A794A4",
"aX c #F6179C869C86",
"sX c #F9E79C9E9C9E",
"dX c #D93DAE64AD03",
"fX c #C804B824B824",
"gX c #D8B4B33DB33B",
"hX c #EBB7A7E7A761",
"jX c #F603A406A406",
"kX c #F580AB79AB79",
"lX c #F99EA835A82B",
"zX c #EB14B2A1B22E",
"xX c #F505B25FB25B",
"cX c #F894B70DB70D",
"vX c #F45EBC50BC4D",
"bX c #8D718F91DE84",
"nX c #844D844DE440",
"mX c #8CA58CA5EB23",
"MX c #92409266EE36",
"NX c #975E975EF3B2",
"BX c #99729AF5F164",
"VX c #9CC19CF8F998",
"CX c #A3C1A3DFFEC9",
"ZX c #D31ECBE7CBE7",
"AX c #DBADCD8BCD8B",
"SX c #D7B0D068D068",
"DX c #E366C701C701",
"FX c #F431C67BC67B",
"GX c #F35ECD55CD55",
"HX c #EB73D572D572",
"JX c #E47DDD0DDD0D",
"KX c #F335D4EBD4EB",
"LX c #F2F1DC04DC04",
"PX c #E88FE115E115",
"IX c #F356E44EE44E",
/* pixels */
"Y Y Y Y Y Y Y Y Y Y Y Y Y Y Y Y Y Y Y Y Y Y Y Y Y Y Y Y Y Y Y Y Y Y Y Y Y Y Y Y Y Y Y Y Y Y Y Y ",
"Y Y Y Y Y Y Y Y Y Y Y Y Y Y Y Y Y Y Y Y Y Y Y Y Y Y Y Y Y Y Y Y Y Y Y Y Y Y Y Y Y Y Y Y Y Y Y Y ",
"Y Y Y Y Y Y Y Y Y Y Y Y Y Y Y Y Y Y R R R Y Y Y Y Y R R Y Y Y Y Y Y Y Y Y Y Y Y Y Y Y Y Y Y Y Y ",
"Y Y Y Y Y Y Y Y Y Y Y Y Y Y Y Y R Y C v * $ # # O % 7 n C Y R Y Y Y Y Y Y Y Y Y Y Y Y Y Y Y Y Y ",
"Y Y Y Y Y Y Y Y Y Y Y Y Y Y R Y n $ X i s d U.U.p y 0.u 1 = V Y Y Y Y Y Y Y Y Y Y Y Y Y Y Y Y Y ",
"Y Y Y Y Y Y Y Y Y Y Y Y Y R N + . s I.T.E.E.Q.!.Y.A eXP.A.9.4 = C R Y Y Y Y Y Y Y Y Y Y Y Y Y Y ",
"Y Y Y Y Y Y Y Y Y Y Y Y Y v 2 6.o T.E.Q.Q.!.~.`.W.j qXtXwXP.G.5.1 n Y Y Y Y Y Y Y Y Y Y Y Y Y Y ",
"Y Y Y Y Y Y Y Y Y Y Y Y = e B.wXh R.!.~._.`.'.[.[.a 7XpXrXwXeXP.n.4 x Y Y Y Y Y Y Y Y Y Y Y Y Y ",
"Y Y Y Y Y Y Y Y Y Y Y 7 r G.eXrXS Y.`.'.].{.}.XXoXf d.sXiXiXrXwXeXA.r = Y Y Y Y Y Y Y Y Y Y Y Y ",
"Y Y Y Y Y Y Y Y Y R v 5 A.eXtXpXe.g {.}.XXoX+X@X%X^.y.lXjXaXiXpXtXwXH.y x Y Y Y Y Y Y Y Y Y Y Y ",
"Y Y Y Y Y Y Y Y R V 1 M.P.wXpXsXd.f oX+X@X%X&X&X*X|.G xXkXjXjXaXiXrXtXH.8 n R Y Y Y Y Y Y Y Y Y ",
"Y Y Y Y Y Y Y Y Y & 9.P.wXrXiXjX0Xk @X&X&X*X*XnXnX$XM zXcXkXkXjXaXaXpXpXC.1 V Y Y Y Y Y Y Y Y Y ",
"Y Y Y Y Y Y Y R n e J.eXrXiXjXkXhXM OX*XnXnXmXmXMXMXJ dXFXvXcXkXhX9Xd.r.4.1 = E Y Y Y Y Y Y Y Y ",
"Y Y Y Y Y Y Y Y & w.eXtXiXaXlXxXvXI  XmXmXMXNXVXCXCXP 4XgX4Xi.H Z Z H p.4XfXD Y R Y Y Y Y Y Y Y ",
"Y Y Y Y Y Y R N 8 H.wXpXaXjXkXvXFXp.(.VXVXVXBXbX#X).a 9 Z F t.<X0XzXvXFXKXLX5Xn E Y Y Y Y Y Y Y ",
"Y Y Y Y Y Y R 7 6.eXrXiXjXkXcXFXGX3XK .X/.L l z S 8.m.Z.yXaXlXkXxXvXvXFXGXKXHXD Y R Y Y Y Y Y Y ",
"Y Y Y Y Y Y Y & N.tXiXaXuX8X>Xu.G t 3  .O.g.b.D.L.eXtXrXiXaXjXkXxXvXvXFXGXKXLX2XN E Y Y Y Y Y Y ",
"Y Y Y Y Y Y C 6 m.a.7.A q w } X.:.h.l.x.v.S.F.K.L.eXwXrXiXaXjXkXxXvXvXFXGXKXLXAXN ! Y Y Y Y Y Y ",
"Y Y Y Y Y R N   , ) [ $.,.1.2.3.k.z.x.x.v.S.F.K.L.eXwXrXiXaXjXkXxXvXvXFXGXKXLXIXQ E R Y Y Y Y Y ",
"Y Y Y Y Y R v ( &.-.;.;.<.1.2.3.k.z.x.x.v.S.F.K.L.eXwXrXiXaXjXkXxXvXvXFXGXKXLXIX:XC E Y Y Y Y Y ",
"Y Y Y Y Y R 7 ' &.-.;.;.<.1.2.3.k.z.x.x.v.S.F.K.L.eXwXrXiXaXjXkXxXvXvXFXGXKXLXIX6XV ! Y Y Y Y Y ",
"Y Y Y Y Y R = ] &.-.;.;.<.1.2.3.k.z.x.x.v.S.F.K.L.eXwXrXiXaXjXkXxXvXvXFXGXKXLXIXZXV ^ Y Y Y Y Y ",
"Y Y Y Y Y R & ] &.-.;.;.<.1.2.3.k.z.x.x.v.S.F.K.L.eXwXrXiXaXjXkXxXvXvXFXGXKXLXIXJXC ^ Y Y Y Y Y ",
"Y Y Y Y Y R = ] &.-.;.;.<.1.2.3.k.z.x.x.v.S.F.K.L.eXwXrXiXaXjXkXxXvXvXFXGXKXLXIXJXY ^ Y Y Y Y Y ",
"Y Y Y Y Y R x ' &.-.;.;.<.1.2.3.k.z.x.x.v.S.F.K.L.eXwXrXiXaXjXkXxXvXvXFXGXKXLXIXPXY / Y Y Y Y Y ",
"Y Y Y Y Y R b ( &.-.;.;.<.1.2.3.k.z.x.x.v.S.F.K.L.eXwXrXiXaXjXkXxXvXvXFXGXKXLXIXJXY / Y Y Y Y Y ",
"Y Y Y Y Y R N : &.-.;.;.<.1.2.3.k.z.x.x.v.S.F.K.L.eXwXrXiXaXjXkXxXvXvXFXGXKXLXIXJXD / Y Y Y Y Y ",
"Y Y Y Y Y Y C - %.-.;.;.<.1.2.3.k.z.x.x.v.S.F.K.L.eXwXrXiXaXjXkXxXvXvXFXGXKXLXIXSXC / Y Y Y Y Y ",
"Y Y Y Y Y Y Y 1 @.-.;.;.<.1.2.3.k.z.x.x.v.S.F.K.L.eXwXrXiXaXjXkXxXvXvXFXGXKXLXIXfXC / Y Y Y Y Y ",
"Y Y Y Y Y Y R x _ -.;.;.<.1.2.3.k.z.x.x.v.S.F.K.L.eXwXrXiXaXjXkXxXvXvXFXGXKXLXIX2XR ^ Y Y Y Y Y ",
"Y Y Y Y Y Y R V ; =.;.;.<.1.2.3.k.z.x.x.v.S.F.K.L.eXwXrXiXaXjXkXxXvXvXFXGXKXLXIX~ / E Y Y Y Y Y ",
"Y Y Y Y Y Y Y Y @ +.;.;.<.1.2.3.k.z.x.x.v.S.F.K.L.eXwXrXiXaXjXkXxXvXvXFXGXKXLXAXC -XR Y Y Y Y Y ",
"Y Y Y Y Y Y Y R n > ;.;.<.1.2.3.k.z.x.x.v.S.F.K.L.eXwXrXiXaXjXkXxXvXvXFXGXKXLX3XY =XY Y Y Y Y Y ",
"Y Y Y Y Y Y Y Y Y @ #.;.<.1.2.3.k.z.x.x.v.S.F.K.L.eXwXrXiXaXjXkXxXvXvXFXGXKXHXT =XE Y Y Y Y Y Y ",
"Y Y Y Y Y Y Y Y R N ; *.<.1.2.3.k.z.x.x.v.S.F.K.L.eXwXrXiXaXjXkXxXvXvXFXGXKX5XC -XY Y Y Y Y Y Y ",
"Y Y Y Y Y Y Y Y Y R 7 ` <.1.2.3.k.z.x.x.v.S.F.K.L.eXwXrXiXaXjXkXxXvXvXFXGXDXD =X! Y Y Y Y Y Y Y ",
"Y Y Y Y Y Y Y Y Y Y Y 1 { 1.2.3.k.z.x.x.v.S.F.K.L.eXwXrXiXaXjXkXxXvXvXFXGXu.E =XY Y Y Y Y Y Y Y ",
"Y Y Y Y Y Y Y Y Y Y R C < o.2.3.k.z.x.x.v.S.F.K.L.eXwXrXiXaXjXkXxXvXvXFX,XB ;XE Y Y Y Y Y Y Y Y ",
"Y Y Y Y Y Y Y Y Y Y Y R C < o.3.k.z.x.x.v.S.F.K.L.eXwXrXiXaXjXkXxXvXFX1XN ;X! Y Y Y Y Y Y Y Y Y ",
"Y Y Y Y Y Y Y Y Y Y Y Y R U 1 | j.z.x.x.v.S.F.K.L.eXwXrXiXaXjXkXxXcXs.N ;X^ Y Y Y Y Y Y Y Y Y Y ",
"Y Y Y Y Y Y Y Y Y Y Y Y Y R Y c 0 >.x.x.v.S.F.K.L.eXwXrXiXaXjXkX0XW C ;X^ Y Y Y Y Y Y Y Y Y Y Y ",
"Y Y Y Y Y Y Y Y Y Y Y Y Y Y Y E C 6  .f.c.S.F.K.L.eXtXpXpXaX9Xt.m ! ;X! Y Y Y Y Y Y Y Y Y Y Y Y ",
"Y Y Y Y Y Y Y Y Y Y Y Y Y Y Y Y E E C 9 r ..q.M.B.Z.Z.V.a.F m E ;X/ R Y Y Y Y Y Y Y Y Y Y Y Y Y ",
"Y Y Y Y Y Y Y Y Y Y Y Y Y Y Y Y Y Y E ! E Y B m m m m B R / -X/ E Y Y Y Y Y Y Y Y Y Y Y Y Y Y Y ",
"Y Y Y Y Y Y Y Y Y Y Y Y Y Y Y Y Y Y Y Y R E ! ^ / / / / ^ E R Y Y Y Y Y Y Y Y Y Y Y Y Y Y Y Y Y ",
"Y Y Y Y Y Y Y Y Y Y Y Y Y Y Y Y Y Y Y Y Y Y Y Y Y Y Y Y Y Y Y Y Y Y Y Y Y Y Y Y Y Y Y Y Y Y Y Y ",
"Y Y Y Y Y Y Y Y Y Y Y Y Y Y Y Y Y Y Y Y Y Y Y Y Y Y Y Y Y Y Y Y Y Y Y Y Y Y Y Y Y Y Y Y Y Y Y Y ",
"Y Y Y Y Y Y Y Y Y Y Y Y Y Y Y Y Y Y Y Y Y Y Y Y Y Y Y Y Y Y Y Y Y Y Y Y Y Y Y Y Y Y Y Y Y Y Y Y "
};
