/* XPM */
static char *buttonShowMainWindow[] = {
/* columns rows colors chars-per-pixel */
"48 48 85 1",
"  c #353535",
". c #393939",
"X c #3B3B3B",
"o c #3C3C3C",
"O c #414141",
"+ c #454545",
"@ c #4B4B4B",
"# c #4E4E4E",
"$ c #505050",
"% c #5B5B5B",
"& c #5E5E5E",
"* c #606060",
"= c #666666",
"- c #686868",
"; c #7D7D7D",
": c #1D6FD0",
"> c #1E70D0",
", c #1F70D0",
"< c #2071D1",
"1 c #2675D2",
"2 c #2A77D3",
"3 c #2C79D3",
"4 c #2E7AD4",
"5 c #307BD4",
"6 c #377FD5",
"7 c #3981D6",
"8 c #3E84D7",
"9 c #4086D7",
"0 c #4488D8",
"q c #498BD9",
"w c #4A8CD9",
"e c #4E8EDA",
"r c #508FDB",
"t c #5090DB",
"y c #5693DC",
"u c #5A96DD",
"i c #5C97DD",
"p c #5F99DE",
"a c #669DDF",
"s c #689FE0",
"d c #6DA2E1",
"f c #71A5E2",
"g c #74A6E2",
"h c #78A9E3",
"j c #7EADE4",
"k c #838383",
"l c #83B0E5",
"z c #89B4E6",
"x c #8CB6E7",
"c c #93BAE9",
"v c #96BCE9",
"b c #99BEEA",
"n c #9FC2EB",
"m c #A0C3EB",
"M c #A2C4EC",
"N c #A7C7ED",
"B c #A8C8ED",
"V c #ACCAEE",
"C c #BAD3F1",
"Z c #BDD5F1",
"A c #CDCDCD",
"S c #C1D7F2",
"D c #C3D9F2",
"F c #C6DBF3",
"G c #CCDEF4",
"H c #D0E1F5",
"J c #D7E6F7",
"K c #DBE8F7",
"L c #DCE8F8",
"P c #DEEAF8",
"I c #E5E5E5",
"U c #E7E7E7",
"Y c #EAEAEA",
"T c #E0EBF9",
"R c #E3EDF9",
"E c #E4EDF9",
"W c #E9F1FA",
"Q c #ECF3FB",
"! c #EEF4FB",
"~ c #F3F7FC",
"^ c #F7FAFD",
"/ c #FBFBFB",
"( c #F8FAFE",
") c #FBFDFE",
"_ c #FFFFFF",
/* pixels */
"================================================",
"================================================",
"================================================",
"==*$XXXXXXXXXXXXXXXXXXXXXXXXXXXXX           X%==",
"==#o                                         o==",
"==X -YUUUUUUUUUUUUUUUUUUUUUUUUUUO            X==",
"==X U___________________________  __________  ==",
"==X U___________________________  __________  ==",
"==X I___________________________  __________  ==",
"==X I___________________________  _        _  ==",
"==X I___________________________  _        _  ==",
"==X I_______________GjrwunW_____  _        _  ==",
"==X U______________Ce2::,6gW____  _        _  ==",
"==X U_____________N1:::::::eR___  __________  ==",
"==X U____________G3:::::::>>a/__O             ==",
"==X U___________^g::::::::>>>S__;            X==",
"==X I___________P3:::::::::::g__Y$           O==",
"==X I___________F::::::::::::r_____________A O==",
"==X I___________Z:::::::::::,0_____________A O==",
"==X I___________H,:::::::::::u_____________A O==",
"==X I___________W0:::::::::::x_____________A O==",
"==X I____________v::::::::::3P_____________A O==",
"==X U____________Wy::::::::<m______________A O==",
"==X U_____________Pu::::::2v_______________A O==",
"==X I______________!bu739gZ________________A O==",
"==X I_____________!__WJHP)__^______________A O==",
"==X I___________Ra7sP_____Ve0B_____________A O==",
"==X I__________K0:::6bW^Hs<,,<c____________A O==",
"==X I_________~t,:::::701:::::2B___________A O==",
"==X I________^z:::::::::::::::,8E__________A O==",
"==X I________D7:::::::::::::::,:v__________A O==",
"==X I________h1:::::::::::::::::p__________A O==",
"==X I________e::::::::::::::::::8__________A O==",
"==X I________7::::::::::::::::::3__________A O==",
"==X I________8::::::::::::::::::3__________A O==",
"==X I________j,:::::::::::::::::s__________A O==",
"==X I________Wz5:::::::::::::::yH__________A O==",
"==X I__________Fly61::::::<3wdMW___________A O==",
"==X I______________________________________A O==",
"==X I______________________________________A O==",
"==X U______________________________________A O==",
"==X U______________________________________A O==",
"==X k//__/___//_/__//___/__________/_/____/- O==",
"==O                                         o#==",
"==&@X                                      X$===",
"===*============================================",
"================================================",
"================================================"
};
