/* XPM */
static const char *buttonMiddleLocked[] = {
/* columns rows colors chars-per-pixel */
"48 48 100 2 ",
"   c black",
".  c #353535",
"X  c #373737",
"o  c #3A3A3A",
"O  c #3F3F3F",
"+  c #414141",
"@  c #434343",
"#  c gray27",
"$  c #494949",
"%  c #4B4B4B",
"&  c gray30",
"*  c #505050",
"=  c #565656",
"-  c gray34",
";  c gray35",
":  c gray37",
">  c #606060",
",  c #626262",
"<  c #646464",
"1  c gray40",
"2  c #686868",
"3  c DimGray",
"4  c gray42",
"5  c #6C6C6C",
"6  c gray44",
"7  c #727272",
"8  c #747474",
"9  c #767676",
"0  c #797979",
"q  c #7E7E7E",
"w  c red",
"e  c #FE0505",
"r  c #FB1111",
"t  c #FD1515",
"y  c #FF1919",
"u  c #FB2020",
"i  c #F92626",
"p  c #FD3636",
"a  c #FB4B4B",
"s  c #FF5252",
"d  c #FF5858",
"f  c #F86262",
"g  c #FF6767",
"h  c #F96969",
"j  c #FF6F6F",
"k  c #FC7D7D",
"l  c gray51",
"z  c gray53",
"x  c #888888",
"c  c #898989",
"v  c gray55",
"b  c #929292",
"n  c gray59",
"m  c #989898",
"M  c #9D9D9D",
"N  c #A2A2A2",
"B  c gray64",
"V  c #A5A5A5",
"C  c gray66",
"Z  c #AEAEAE",
"A  c #B1B1B1",
"S  c gray71",
"D  c gray72",
"F  c #BCBCBC",
"G  c gray75",
"H  c #FF8383",
"J  c #FF8484",
"K  c #FE9A9A",
"L  c #FF9E9E",
"P  c gray76",
"I  c #C3C3C3",
"U  c gray77",
"Y  c #CACACA",
"T  c #CDCDCD",
"R  c #D0D0D0",
"E  c LightGray",
"W  c #D5D5D5",
"Q  c #D8D8D8",
"!  c gray86",
"~  c gainsboro",
"^  c gray87",
"/  c #FFC1C1",
"(  c #FEC6C6",
")  c #FFCDCD",
"_  c #FFD0D0",
"`  c #FFDEDE",
"'  c #E1E1E1",
"]  c #E4E4E4",
"[  c gray92",
"{  c gray93",
"}  c #FFEBEB",
"|  c gray94",
" . c #F1F1F1",
".. c #F3F3F3",
"X. c gray97",
"o. c #FFF3F3",
"O. c #F8F8F8",
"+. c #FBFBFB",
"@. c gray99",
"#. c gray100",
/* pixels */
"1 1 1 1 1 1 1 1 1 1 1 1 1 1 1 1 1 1 1 1 1 1 1 1 1 1 1 1 1 1 1 1 1 1 1 1 1 1 1 1 1 1 1 1 1 1 1 1 ",
"1 1 1 1 1 1 1 1 1 1 1 1 1 1 1 1 1 1 , = & + O o o O + & ; , 1 1 1 1 1 1 1 1 1 1 1 1 1 1 1 1 1 1 ",
"1 1 1 1 1 1 1 1 1 1 1 1 1 1 1 1 $ . . . . . . . . . . . . . . $ 1 1 1 1 1 1 1 1 1 1 1 1 1 1 1 1 ",
"1 1 1 1 1 1 1 1 1 1 1 1 1 1 1 $ . o # 7 N P ! ] ] ^ P N 7 $ . . $ 1 1 1 1 1 1 1 1 1 1 1 1 1 1 1 ",
"1 1 1 1 1 1 1 1 1 1 1 1 1 # . . . 1 Z W [ +.#.#.#.#.#.[ W Z 1 . . . $ 1 1 1 1 1 1 1 1 1 1 1 1 1 ",
"1 1 1 1 1 1 1 1 1 1 1 1 # . o , P  .#.#.#.#.#.#.#.#.#.#.#.#...U , O . # 1 1 1 1 1 1 1 1 1 1 1 1 ",
"1 1 1 1 1 1 1 1 1 1 1 + . + m  .#.#.#.#.#.#.h e e h #.#.#.#.#.#...M + . + 1 1 1 1 1 1 1 1 1 1 1 ",
"1 1 1 1 1 1 1 1 1 1 O . ; U #.#.#.#.^ ! +.L w w w w L ..! ^ #.#.#.#.U ; . O 1 1 1 1 1 1 1 1 1 1 ",
"1 1 1 1 1 1 1 1 1 + . : W #.#.#.' n , M +.a w w w w a +.m , n ' #.#.#.W , . + 1 1 1 1 1 1 1 1 1 ",
"1 1 1 1 1 1 1 1 # . = E #.#.#.G 4 1 1 T #.r w w w w r #.T 1 1 4 G #.#.#.W = . # 1 1 1 1 1 1 1 1 ",
"1 1 1 1 1 1 1 $ . # G #.#.#.V , 1 1 4 [ ` u J / / J u ` [ 4 1 1 1 N #.#.#.G # . $ 1 1 1 1 1 1 1 ",
"1 1 1 1 1 1 1 . . b #.#.#.C , 1 1 1 0 +.H } #.#.#.#.} H +.0 1 1 1 , V #.#.#.n . . 1 1 1 1 1 1 1 ",
"1 1 1 1 1 1 $ . :  .#.#.G , 1 1 1 1 n #.K #.C O + C #.K #.n 1 1 1 1 , S #.#. .: . # 1 1 1 1 1 1 ",
"1 1 1 1 1 $ . o D #.#.] 1 1 1 1 1 , T #.( #.+     O #.( #.Y , 1 1 1 1 4 [ #.#.S o . $ 1 1 1 1 1 ",
"1 1 1 1 1 . . 1 #.#.+.c 1 1 1 1 1 , ' ) / #.O     O #./ ) ' < 1 1 1 1 1 l +.#.#.4 . . 1 1 1 1 1 ",
"1 1 1 1 1 . o A #.#.Z , 1 1 1 1 1 1 [ j J #.C O + C #.J g [ 2 1 1 1 1 1 1 V #.#.S o . 1 1 1 1 1 ",
"1 1 1 1 : . & ' #.#.q 1 1 1 1 1 1 0 @.d y } #.#.#.#.} y p +.q 1 1 1 1 1 1 q +.#.' * . , 1 1 1 1 ",
"1 1 1 1 = . 0 +.#.' 4 1 1 1 1 1 1 N #.s w y J / / J y w i #.C 1 1 1 1 1 1 1 ! #.+.0 . = 1 1 1 1 ",
"1 1 1 1 & . N #.#.N 1 1 1 1 1 1 1 Z #.t w w w w w w w w w o.S 1 4 1 1 1 1 1 v +.#.V . $ 1 1 1 1 ",
"1 1 1 1 + . U #.#.' D D D D D D D [ #.k r w w w w w w w f #.{ P D D D D S S ^ #.#.U . + 1 1 1 1 ",
"1 1 1 1 O . ^ #.#.#.#.#.#.#.#.#.#.#.#.#.#.#.#.#.#.#.#.#.#.#.#.#.#.#.#.#.#.#.#.#.#.' . O 1 1 1 1 ",
"1 1 1 1 o . { #.#.#.#.#.#.#.#.#.#.#.#.#.#.#.#.#.#.#.#.#.#.#.#.#.#.#.#.#.#.#.#.#.#. .. . 1 1 1 1 ",
"1 1 1 1 . . +.#.[ 1 # $ # $ $ # # $ # $ # $ # $ # $ # $ $ # # $ # $ $ # # $ 5 { #.#.. . 1 1 1 1 ",
"1 1 1 1 . . #.#.] = . . . . . . . . . . . . . . . . . . . . . . . . . . . . ; ] #.#.. . 1 1 1 1 ",
"1 1 1 1 . . #.#.] ; . : , , , : , > , , 7 D { +.O.| D 9 , , > , , , , : : . ; ] #.#.. . 1 1 1 1 ",
"1 1 1 1 o . ..#.[ , . ; 1 1 1 1 1 1 1 7 W #.! S S ! #.W 7 1 1 1 1 1 1 1 ; . 1 [ #.+.. . 1 1 1 1 ",
"1 1 1 1 o . { #.{ 0 . = 1 1 1 1 1 1 1 G #.D 9 7 7 9 D #.G 1 1 1 1 1 1 1 ; . 5 { #.{ . o 1 1 1 1 ",
"1 1 1 1 O . E #.+.m . # 1 1 1 1 1 1 7  .[ 7 1 1 1 1 7 [  .7 1 1 1 1 1 1 = . 7  .#.! . O 1 1 1 1 ",
"1 1 1 1 # . D #.#.U O . , 1 1 1 1 1 4 #.Y 1 1 1 1 1 4 T #.4 1 1 1 1 1 1 # . v ..#.D . # 1 1 1 1 ",
"1 1 1 1 & . b #.#.{ 7 . ; 1 1 1 1 1 c #.! c c z z c c W @.v 1 1 1 1 1 , . + T #.#.n . & 1 1 1 1 ",
"1 1 1 1 ; . 4 +.#.#.N . $ 1 1 1 1 1 W #...^ ^ ^ ^ ^ ! ..#.W 1 1 1 1 1 * . q  .#.+.5 . ; 1 1 1 1 ",
"1 1 1 1 , . # E #.#.P o . , 1 1 1 4 ..#.#.#.#.#.#.#.#.#.#...1 1 1 1 1 O . S #.#.W # . , 1 1 1 1 ",
"1 1 1 1 1 . . n #.#.' 1 . # 1 1 1 1 { #.#.#.#.#.#.#.#.#.#.[ 1 1 1 1 $ . , ' #.#.m o . 1 1 1 1 1 ",
"1 1 1 1 1 $ . = { #.#.P O . : 1 1 1 { #.#.#.#.#.#.#.#.#.#.[ 1 1 1 ; . O G #.#. .; . # 1 1 1 1 1 ",
"1 1 , 1 1 1 . . M #.#...c . O , 1 1 { #.#.#.#.#.#.#.#.#.#.[ 1 1 , O . c ..#.#.N o . 1 1 1 , 1 1 ",
"1 & . & 1 1 $ . * ^ #.#.{ 5 . O , 1 { #.#.#.#.#.#.#.#.#.#.[ 1 , O . 5 [ #.#.^ * . $ 1 1 & . & 1 ",
"1 o . . $ 1 1 . . 0 #.#.#.^ 4 . o = { #.#.#.#.#.#.#.#.#.#.{ = o . 1 ^ #.#.#.q . . 1 1 & . . o 1 ",
"1 . . . . $ 1 $ . o V #.#.#.' 0 . . { +.+.+.+.+.+.+.+.#.#.] . . 0 ' #.#.#.C o . $ 1 $ . . . . 1 ",
"1 . . N . . $ 1 $ . # G #.#.#.{ V # . O $ ; 1 1 1 ; & # . . O N { #.#.#.P $ . $ 1 $ . . N . . 1 ",
"1 . . #.T W T c 1 # . & P #.#.#...! 5 . . . . o . . . . O 7 W +.#.#.#.P * . # 1 z T W Y #.. . 1 ",
"1 . . #.C O + C c 1 + . # C #.#.#.#.{ W n # . . o : v S ] { #.#.#.#.Z $ . + 1 c C + O C #.. . 1 ",
"1 . . #.+     O T $ , # . + z [ #.#.#.#.+. .[ [ [  .+.+.#.#.#.#.[ c o . # , $ T O     O #.. . 1 ",
"1 . . #.O     O ' . $ : $ . . * V ] #.#.#.#.#.#.#.#.#.#.#.#.] C * o . # , $ . ' O     + #.. . 1 ",
"1 . . #.C O O C  .c . $ : $ . . . = m Y ' ..#.#.#.#...] T m = . . . $ : # . c  .C + O C #.. . 1 ",
"1 . . #.#.#.#.#.#.+.c . . ; 1 $ . . + , b S Y W W Y A b , + . . $ 1 ; . . c ..#.#.#.#.#.#.. . 1 ",
"1 . . . . . . . . . . . . # 1 1 1 # . . . . . . . . . . . . . $ 1 1 # . . . . . . . . . . . . 1 ",
"1 $ . . . . . . . . . . # ; 1 1 1 1 , : * # + O O + $ * ; 1 1 1 1 1 ; # . . . . . . . . . . $ 1 ",
"1 1 1 1 1 1 1 1 1 1 1 1 1 1 1 1 1 1 1 1 1 1 1 1 1 1 1 1 1 1 1 1 1 1 1 1 1 1 1 1 1 1 1 1 1 1 1 1 "
};
