/* XPM */
static const char *buttonMiddleDisabled[] = {
/* columns rows colors chars-per-pixel */
"48 48 77 1",
"  c #0CA10CA10CA1",
". c #0FA10FA10E99",
"X c #04D504D5147D",
"o c #088D088D166E",
"O c #02FE02FE1BC0",
"+ c #0F730F731A9E",
"@ c #13F113F113F1",
"# c #133613361ABD",
"$ c #1C5C1C5C1C5A",
"% c #0001000123CE",
"& c #0A3C0A3C2435",
"* c #000000002CE8",
"= c #1E401E4020DB",
"- c #15D515D52BDC",
"; c #0000000034D8",
": c #0977097731D0",
"> c #00A900A93BCD",
", c #1ECF1ECF33F0",
"< c #236B236B23B2",
"1 c #22B522B52D40",
"2 c #2B872B872BAF",
"3 c #24CA24CA314E",
"4 c #2DC82DC83215",
"5 c #21252125393F",
"6 c #341D341D341C",
"7 c #35E635E63908",
"8 c #3BEB3BEB3BD5",
"9 c #402940293F76",
"0 c #000000004414",
"q c #000000004C69",
"w c #0CFC0CFC488B",
"e c #1E111E114A5C",
"r c #00000000530A",
"t c #000000005BEE",
"y c #21422142445B",
"u c #250325034B78",
"i c #296729675CEC",
"p c #00970097640D",
"a c #04FD04FD6B43",
"s c #0A1C0A1C6F8A",
"d c #18801880622E",
"f c #0E740E747315",
"g c #11FB11FB75BE",
"h c #15A815A87992",
"j c #1B361B367BD6",
"k c #269326936B41",
"l c #22A422A474EF",
"z c #280F280F7BA3",
"x c #32C532C57538",
"c c #43D943D943D4",
"v c #488C488C47C5",
"b c #4BE54BE54BE1",
"n c #502C502C4EEE",
"m c #53F553F553F3",
"M c #5BDF5BDF5BD8",
"N c #663466346633",
"B c #6857685766FE",
"V c #6B676B676B66",
"C c #73B073B073B0",
"Z c #7B9B7B9B7B9B",
"A c #1F1B1F1B80EB",
"S c #2384238484F0",
"D c #27D327D387FB",
"F c #2C1A2C1A8BD8",
"G c #2FEE2FEE8EFD",
"H c #3DF83DF88BCC",
"J c #3416341691DE",
"K c #38C238C29463",
"L c #3D7E3D7E9B2D",
"P c #428542859CCF",
"I c #46634663A238",
"U c #49604960A516",
"Y c #83FA83FA83FA",
"T c #8BE68BE68BE6",
"R c #938B938B938B",
"E c #9B829B829B82",
"W c #A189A189A189",
/* pixels */
"NNNNNNNNNNNNNNNNNNNNNNNNNNNNNNNNNNNNNNNNNNNNNNNN",
"NNNNNNNNNNNNNNNNNNNNNNNNNNNNNNNNNNNNNNNNNNNNNNNN",
"NNNNNNNNNNNNNNNNNNNBBNNNNNBBNNNNNNNNNNNNNNNNNNNN",
"NNNNNNNNNNNNNNNNBNMv72<<<28bNBBNNNNNNNNNNNNNNNNN",
"NNNNNNNNNNNNNNBNb2+O%*;;%@$@$7MNNNNNNNNNNNNNNNNN",
"NNNNNNNNNNNNNBm2X%;>000q>#62<@@7MBNNNNNNNNNNNNNN",
"NNNNNNNNNNNNNc@.X>00qqrrq#8762<@$bNNNNNNNNNNNNNN",
"NNNNNNNNNNNN8 $<o0qrrtttt&8c8662$@cNNNNNNNNNNNNN",
"NNNNNNNNNNN8 $<2#0tttppaa:8bcc862<@8NNNNNNNNNNNN",
"NNNNNNNNNBv @<27=0ppaasfhw7mmbc8762@cNNNNNNNNNNN",
"NNNNNNNNBM@@<26c2>asfghjSd4NMmbvc872@bBNNNNNNNNN",
"NNNNNNNNN2 $268v8:ghjASDFz3BNMMmbvc82$MNNNNNNNNN",
"NNNNNNNBm $<28cbb-jSDFGJKK5BCVNMmv72$ 2NNNNNNNNN",
"NNNNNNNN2@<27cbmM1lGJKLPIUuMVm82<$$$$$@mBNNNNNNN",
"NNNNNNBm@$268vmMB7kLPPPHxi-$<<26676622@2NNNNNNNN",
"NNNNNNB8@268cmMNVvexiy,1269vbbvvc88762<@mBNNNNNN",
"NNNNNNN<$68cccc72<=27cnmMMMmmmbbvc88762@7BNNNNNN",
"NNNNNNM@$<$$$$<68bmMMMMNNMMMMMmmbvc8866<$NNNNNNN",
"NNNNNBm @$<68cbmmMMMNNNNNNNNNMMmmbvc8862@mBNNNNN",
"NNNNNBv@268ccbbmMMNNBVVVVVVBNNNMmmbvc876$8BNNNNN",
"NNNNNB8$678cvbmMMNNVVCCCCCCVVBNNMmmbvc86<6NNNNNN",
"NNNNNB7$68cvbmmMNBVCCCZZZZZCCVVNNMmbvc872<NNNNNN",
"NNNNNB7$78cvbmMNNVCCZZZYYYZZZCVVNMMmbvc82<NNNNNN",
"NNNNNB8<78cbmMMNVVCZZYYYTYYYZZCVBNMmbvc86$MNNNNN",
"NNNNNBc<8cvbmMNNVCZZYTTTTTTYYZCCVNMmmbc86$MNNNNN",
"NNNNNBv$8cvbmMNBVCZYYTRRRRTTYZZCVNNMmbc86$MNNNNN",
"NNNNNBm$8cvmmMNVCCZYTRREEERTTYZCVBNMmbvc6<NNNNNN",
"NNNNNNM$7cvmmMNVCZZYTREEWERRTYZCVBNMmbvc6<NNNNNN",
"NNNNNNN22cvmmMNVCZZYTREEWERRTYZCVBNMmbvc22NNNNNN",
"NNNNNNB8<cvmmMNVCCZYTRREEERTTYZCVBNMmbvc<8BNNNNN",
"NNNNNNBm$8vbmMNBVCZYYTRRRRTTYZZCVNMMmbc8$bBNNNNN",
"NNNNNNNN22vbmMNNVCZZYYTTTTTYYZCCVNMmmbc7$MNNNNNN",
"NNNNNNNBb$cbmmMNVVCZZYYYYYYYZZCVBNMmbvc<6NNNNNNN",
"NNNNNNNNN22vbmMNNVCCZZZYYYZZCCVBNMMmbv8$mBNNNNNN",
"NNNNNNNNBm$8bmmMNNVVCCZZZZZCCVVNNMmbvc22NNNNNNNN",
"NNNNNNNNNN7<vbmMMNNVVCCCCCCVVBNNMmmbv8$mBNNNNNNN",
"NNNNNNNNNNN22bbmMMNNBVVVVVVBNNMMmmbvc$7NNNNNNNNN",
"NNNNNNNNNNBM<6bbmmMMNNNNNNNNNMMmmbvc<<NNNNNNNNNN",
"NNNNNNNNNNNBm$2bbmmMMMMMMMMMMmmmbvc2<MBNNNNNNNNN",
"NNNNNNNNNNNNBm<<cbmmmmMMMMmmmmbbvc<<mBNNNNNNNNNN",
"NNNNNNNNNNNNNBM6$7vbbmmmmmmbbbvc7$2MBNNNNNNNNNNN",
"NNNNNNNNNNNNNNNNv<<6cbbbbbbbvc7<$cNBNNNNNNNNNNNN",
"NNNNNNNNNNNNNNNNBNc2$<6788762$<8MBNNNNNNNNNNNNNN",
"NNNNNNNNNNNNNNNNNNBNmc62<<228bNBNNNNNNNNNNNNNNNN",
"NNNNNNNNNNNNNNNNNNNNBBBNNNNNBBNNNNNNNNNNNNNNNNNN",
"NNNNNNNNNNNNNNNNNNNNNNNNNNNNNNNNNNNNNNNNNNNNNNNN",
"NNNNNNNNNNNNNNNNNNNNNNNNNNNNNNNNNNNNNNNNNNNNNNNN",
"NNNNNNNNNNNNNNNNNNNNNNNNNNNNNNNNNNNNNNNNNNNNNNNN"
};
