/* XPM */
static const char *buttonLeftLocked[] = {
/* columns rows colors chars-per-pixel */
"48 48 78 1 ",
"  c black",
". c #353535",
"X c gray22",
"o c #3A3A3A",
"O c #3C3C3C",
"+ c #3F3F3F",
"@ c #414141",
"# c gray27",
"$ c #484848",
"% c #494949",
"& c #4C4C4C",
"* c #505050",
"= c #565656",
"- c gray35",
"; c gray37",
": c gray38",
"> c gray40",
", c #686868",
"< c #6D6D6D",
"1 c gray45",
"2 c #747474",
"3 c gray47",
"4 c gray49",
"5 c red",
"6 c #FE0505",
"7 c #F60F0F",
"8 c #FC1515",
"9 c #FF1919",
"0 c #F94444",
"q c #ED6F6F",
"w c #FC7171",
"e c #FD7A7A",
"r c gray51",
"t c gray53",
"y c #8B8B8B",
"u c gray55",
"i c #929292",
"p c gray59",
"a c #9A9A9A",
"s c gray62",
"d c #A2A2A2",
"f c #A4A4A4",
"g c #A9A9A9",
"h c #ACACAC",
"j c #B1B1B1",
"k c gray71",
"l c gray72",
"z c gray75",
"x c #FE8484",
"c c #FE8888",
"v c #FF9F9F",
"b c #FCA0A0",
"n c #FFADAD",
"m c #FFB1B1",
"M c #FFB9B9",
"N c #C3C3C3",
"B c gray77",
"V c #CBCBCB",
"C c gray80",
"Z c LightGray",
"A c gray84",
"S c gray86",
"D c gray87",
"F c #FFC1C1",
"G c #FEC6C6",
"H c #FECBCB",
"J c #FFD8D8",
"K c #E2E2E2",
"L c gray90",
"P c gray92",
"I c #ECECEC",
"U c #FFEBEB",
"Y c #F1F1F1",
"T c #F4F4F4",
"R c #FFF1F1",
"E c #FFF6F6",
"W c #FBFBFB",
"Q c gray100",
/* pixels */
">>>>>>>>>>>>>>>>>>>>>>>>>>>>>>>>>>>>>>>>>>>>>>>>",
">>>>>>>>>>>>>>>>>>:=&@+oo+@&-:>>>>>>>>>>>>>>>>>>",
">>>>>>>>>>>>>>>>%..............%>>>>>>>>>>>>>>>>",
">>>>>>>>>>>>>>>%..%1dNSLLSBd2%..%>>>>>>>>>>>>>>>",
">>>>>>>>>>>>>#...>hAIWQQQQQIAh,...#>>>>>>>>>>>>>",
">>>>>>>>>>>>#.o:BYQQQQQQQQQQQQTB>o.#>>>>>>>>>>>>",
">>>>>>>>>>>@.@aTQQQQQQYLLYQQQQQQTs@.@>>>>>>>>>>>",
">>>>>>>>>>+.-NQQUe8qWQ4>>4QTSDQQQQB-.@>>>>>>>>>>",
">>>>>>>>>@.;AQQM5557WY:>>:YWa:pKQQQA;.@>>>>>>>>>",
">>>>>>>>#.=ZQQc55556QV>>>>CQC>><zQQQA=.#>>>>>>>>",
">>>>>>>%.#zQQFFFx950Qf>>>:fQI,>>>dQQQN#.%>>>>>>>",
">>>>>>>..iQQEQQQQU9wQ<>>>><QW3>>>:fQQQi..>>>>>>>",
">>>>>>%.;YQJQg++gQxvY:>>>>:YQp>>>>:zQQY;.#>>>>>>",
">>>>>%.olQUFQ+  +QGQZ:>>>>:ZQC:>>>>,PQQlo.%>>>>>",
">>>>>..>QQxFQ+  +QHQa>>>>>>aQK>>>>>>rWQQ,..>>>>>",
">>>>>.ojQM5xQg++gQbQ,>>>>>>,QP>>>>>>>fQQko.>>>>>",
">>>>:.%KQe59UQQQQUxQ>>>>>>>:TW4>>>>>>4TQK*.:>>>>",
">>>>=.3WU5559xFFx9nQ>>>>>>>:KQg>>>>>>>SQQ3.=>>>>",
">>>>&.dQm555555555MP:>>>>>>>kQk>,>>>>>uQQd.%>>>>",
">>>>@.NQU555555555RWSCZZZCZZIQINllllllSQQV.@>>>>",
">>>>+.DQQUFGGGGFHRQQQQQQQQQQQQQQQQQQQQQQQK.+>>>>",
">>>>o.PQQQQQQQQQQQQQQQQQQQQQQQQQQQQQQQQQQY..>>>>",
">>>>..WQP,#%#%%###%##%#%#%#%%##%#%%##%<IQQ..>>>>",
">>>>..QQL=............................-LQQ..>>>>",
">>>>..QQL-.;::::::::1lIWWIl2::::::::;.-LQQ..>>>>",
">>>>o.TQP:.->>>>>>>2AQSkkSQA2>>>>>>>-.>PQW..>>>>",
">>>>o.PQI3.=>>>>>>>lQl2112lQz>>>>>>>-.<IQI.o>>>>",
">>>>+.AQWa.#>>>>>>1YP1>>>>1PY1>>>>>>=.1YQS.+>>>>",
">>>>#.lQQB+.>>>>>><QC>>>>>>CQ,,>>>>>#.iTQl.#>>>>",
">>>>&.iQQI1.=>>>>>uQAyytyttSQy>>>>>:.@BQQp.&>>>>",
">>>>-.,WQWd.%>>>>>AQYDDDDDDTQA>>>>>*.4YQW<.->>>>",
">>>>:.#ZQQN+.:>>>,TQQQQQQQQQQT>>>>>@.kQQA%.:>>>>",
">>>>>.opQQL>.#>>>>IQQQQQQQQQQP>>>>#.:KQQao.>>>>>",
">>>>>#.=IQQz+.;>>>IQQQQQQQQQQP>>>;.+zQQY-.%>>>>>",
">>>>>>..sQQTy.o>>>IQQQQQQQQQQP>>:+.yTQQdo.>>>:>>",
">&.&>>%.*DQQP<.+:>IQQQQQQQQQQI>:+.<PQQK*.#>>&.&>",
">o..%>>.o2QQQD>..=YQQQQQQQQQQI=..>DQQQ4..>>%..o>",
">....%>%.+fQQQD4..PWWWWWWWWQQL..3KQQQgo.%,%....>",
">..d..%>#.%zQQQId#.o%->>>-*#..+dIQQQN%.%>%..d..>",
">..QCSCt>#.&NQQQWS<...oo....+1AWQQQN&.#>yCAVQ..>",
">..Qg++gy>@.#gQQQQIAp#..o;ukLIQQQQg%.@>tg++gQ..>",
">..Q@  +C#:#.+tPQQQQWYIPPYWQQQQQPy+.#:%V+  +Q..>",
">..Q+  +K.%;%..*fLQQQQQQQQQQQQLg*o.%:%.K+  @Q..>",
">..Qg+@gYy.%;%...=aVKYQQQQYLVa=...%-%.yYg++gQ..>",
">..QQQQQQTy..->%..+:ijVAAVji:@..%>-..yTQQQQQQ..>",
">............#>>>#.............%>>#............>",
">%..........#->>>>>-*%@+@@#*->>>>>-#..........%>",
">>>>>>>>>>>>>>>>>>>>>>>>>>>>>>>>>>>>>>>>>>>>>>>>"
};
