/* XPM */
static const char *buttonDblLeftLocked[] = {
/* columns rows colors chars-per-pixel */
"48 48 242 2",
"   c #100B04",
".  c #0D0D2D",
"X  c #060635",
"o  c #0B0B36",
"O  c #0F0F39",
"+  c #13132D",
"@  c #1D1D20",
"#  c #19192B",
"$  c #131334",
"%  c #1A1A34",
"&  c #232425",
"*  c #23232A",
"=  c #272829",
"-  c #2D2D2D",
";  c #242433",
":  c #25253A",
">  c #2C2C34",
",  c #2F2F39",
"<  c #37332C",
"1  c #39352D",
"2  c #333434",
"3  c #35353A",
"4  c #3E3C34",
"5  c #3B3B3C",
"6  c #040450",
"7  c #0C0C54",
"8  c #1C1C45",
"9  c #111151",
"0  c #11115C",
"q  c #050565",
"w  c #0B0B64",
"e  c #09096D",
"r  c #0E0E7D",
"t  c #121268",
"y  c #1B1B65",
"u  c #1A1A68",
"i  c #101077",
"p  c #181874",
"a  c #232344",
"s  c #2B2B40",
"d  c #232353",
"f  c #373741",
"g  c #3C3E43",
"h  c #38384E",
"j  c #323259",
"k  c #3B3B5F",
"l  c #2F2F63",
"z  c #2F2F6C",
"x  c #25257D",
"c  c #2D2D78",
"v  c #3D3D61",
"b  c #3E4146",
"n  c #46340F",
"m  c #453D0B",
"M  c #4D3F0E",
"N  c #453212",
"B  c #523D05",
"V  c #563C0B",
"C  c #5B3E0D",
"Z  c #413E36",
"A  c #564001",
"S  c #57410A",
"D  c #524E0C",
"F  c #58430A",
"G  c #544D12",
"H  c #565210",
"J  c #5A5613",
"K  c #5D5A17",
"L  c #5F5B18",
"P  c #595436",
"I  c #66440D",
"U  c #68470E",
"Y  c #6A4B0F",
"T  c #6F5800",
"R  c #605C19",
"E  c #7D5F10",
"W  c #656325",
"Q  c #6B682E",
"!  c #434344",
"~  c #44454B",
"^  c #47494C",
"/  c #4A4B4C",
"(  c #444454",
")  c #42425B",
"_  c #4D4D50",
"`  c #4C5055",
"'  c #56524B",
"]  c #59564E",
"[  c #535354",
"{  c #545558",
"}  c #5E5A53",
"|  c #5B5B5B",
" . c #404076",
".. c #4D4D72",
"X. c #5E5E62",
"o. c #5F6166",
"O. c #625F57",
"+. c #61615E",
"@. c #7B7D45",
"#. c #656565",
"$. c #63686F",
"%. c #6C6B65",
"&. c #6C6C6C",
"*. c #606876",
"=. c #686B71",
"-. c #747474",
";. c #70737A",
":. c #7B7B7B",
">. c #151589",
",. c #1A1A8A",
"<. c #1E1E91",
"1. c #202082",
"2. c #21218F",
"3. c #222293",
"4. c #272799",
"5. c #2A2A90",
"6. c #2C2C9B",
"7. c #313195",
"8. c #3333A1",
"9. c #3A3AA5",
"0. c #3B3BA8",
"q. c #444486",
"w. c #44448C",
"e. c #434392",
"r. c #43439B",
"t. c #515182",
"y. c #5A5A8D",
"u. c #4141AD",
"i. c #4646B1",
"p. c #4A4AB4",
"a. c #4E4EB8",
"s. c #5D5DAC",
"d. c #5353BB",
"f. c #5B5BB3",
"g. c #5858BE",
"h. c #616196",
"j. c #6C7583",
"k. c #737A84",
"l. c #7F7F82",
"z. c #6262A6",
"x. c #6666B8",
"c. c #7272B2",
"v. c #7878B8",
"b. c #5B5BC3",
"n. c #6161C4",
"m. c #6565CB",
"M. c #6969CE",
"N. c #6E6ED1",
"B. c #7878CF",
"V. c #7272D4",
"C. c #7B7BDC",
"Z. c #7E8187",
"A. c #7C838C",
"S. c #9E7C00",
"D. c #A56700",
"F. c #AF7C00",
"G. c #B07200",
"H. c #B07800",
"J. c #B18402",
"K. c #82834D",
"L. c #B3B57D",
"P. c #C69800",
"I. c #C5990F",
"U. c #DD8D02",
"Y. c #DDB100",
"T. c #E79800",
"R. c #E89B00",
"E. c #EAA302",
"W. c #E8AB01",
"Q. c #E9B302",
"!. c #E9BE18",
"~. c #F4A700",
"^. c #F3AD04",
"/. c #F5B302",
"(. c #F2BB02",
"). c #F6B908",
"_. c #F9B500",
"`. c #FDBD00",
"'. c #EEC804",
"]. c #F7C30D",
"[. c #FEC203",
"{. c #FAC40A",
"}. c #FECA0A",
"|. c #F6C010",
" X c #F5C916",
".X c #FBCC14",
"XX c #F8CF1D",
"oX c #F1D40C",
"OX c #F4DC13",
"+X c #FDD214",
"@X c #FBD625",
"#X c #FEDD24",
"$X c #F9D92B",
"%X c #F6E211",
"&X c #F9E316",
"*X c #FDE53A",
"=X c #FEE93A",
"-X c #848484",
";X c #898987",
":X c #8C8C8C",
">X c #8E8F92",
",X c #8A919A",
"<X c #949494",
"1X c #939499",
"2X c #9C9C9C",
"3X c #9B9EA5",
"4X c #A4A4A4",
"5X c #A3A6AB",
"6X c #A8A8A7",
"7X c #ABABAB",
"8X c #A2A8B0",
"9X c #ADB4BE",
"0X c #B4B4B4",
"qX c #BCBCBC",
"wX c #8484D1",
"eX c #8282DB",
"rX c #8383E3",
"tX c #8F8FE9",
"yX c #9090EE",
"uX c #9595F2",
"iX c #AEB7C1",
"pX c #B3BBC3",
"aX c #BBBFC5",
"sX c #A2A2FD",
"dX c #BEC0C5",
"fX c #BDC5CD",
"gX c #C3C3C3",
"hX c #C1C7CD",
"jX c #CBCBCB",
"kX c #C7CCD2",
"lX c #C8CED5",
"zX c #CFD3D8",
"xX c #D3D3D3",
"cX c #D5DADF",
"vX c #DBDBDB",
"bX c #DADCE0",
"nX c #E3E3E3",
"mX c #E7E9EC",
"MX c #EBECEC",
"NX c #ECEEF1",
"BX c #F3F3F3",
"VX c #F9F9F9",
/* pixels */
"#.#.#.#.#.#.#.#.+.! [ #.#.#.#.#.#.#.#.#.#.#.#.#.#.#.#.#.#.#.#.#.#.#.#.#.#.#.#.#.#.#.#.#.#.#.#.#.",
"#.#.#.#.#.#.#.[ ; . 5 #.#.#.#.#.#.#.#.#.#.#.#.#.#.#.#.#.#.#.#.#.#.#.#.#.#.#.#.#.#.#.#.#.#.#.#.#.",
"#.#.#.#.#.#./ + w p , #.#.#.#.#.#.#.#.#.#.#.#.X.#.#.#.#.#.#.#.#.#.#.#.#.#.#.#.#.#.#.#.#.#.#.#.#.",
"#.#.#.#.#./ $ e <.5.; X.#.#.#.#.#.#.| / 3 2 < 2 = 2 5 ' o.#.#.#.#.#.#.#.#.#.#.#.#.#.#.#.#.#.#.#.",
"#.#.#.#._ + e ,.4.0.a } #.#.#.#./ 2 - 5 [ +.#.&.! 5 | 5 - 5 [ #.#.#.#.#.#.#.#.#.#.#.#.#.#.#.#.#.",
"#.#.#.| # q >.4.9.p.l / #.#.[ = @ [ &.-.:.:.-X;X&./ :X-X-.[ - 5 | %.#.#.#.#.#.#.#.#.#.#.#.#.#.#.",
"#.#.#.2 6 >.4.8.i.b.w.5 #./ + 7 > -.:.-X-X-X:X:X-XP :X<X:X;X-./ - / #.#.#.#.#.#.#.#.#.#.#.#.#.#.",
"#.#./ X >.3.7.u.d.M.s.3 5 o r 2.a -.;X;X>X<X<X2X1Xg :X2X<X:X:X-X#.- ! #.#.#.#.#.#.#.#.#.#.#.#.#.",
"#.#.- w <.6.u.d.n.V.B.; X r 3.8.d &.<X<X<X2X2X4X5X{ -X6X2X2X<X:X;X:.4 5 #.#.#.#.#.#.#.#.#.#.#.#.",
"#.[ O >.6.0.a.b.V.rXtXj q <.6.u.z +.3X2X4X6X7X7X0X-.&.0X7X4X2X<X<X:Xl.4 5 #.#.#.#.#.#.#.#.#.#.#.",
"#.3 0 4.8.p.b.M.C.tXsXt.t 4.0.a.e.{ 6X6X7X0X0XqXaX<XO.qX0X7X7X4X2X<X<Xl.3 / #.#.#.#.#.#.#.#.#.#.",
"X.; 1.8.i.b.M.C.rXwXv.v u 9.i.b.f.( 6X0XqXqXqXdXgX0X{ aXqXqX0X7X4X4X2X2X:.- | #.#.#.#.#.#.#.#.#.",
"[ 8 8.9.r.w. .v s $ 9 u 7.i.d.M.V.) 7XgXgXgXjXjXxXjXO.0XjXgXgXqX7X2Xl.#./ & 3 &.#.#.#.#.#.#.#.#.",
"! + a : , 5 ! [ * w 3.6.u.d.m.V.rX..2XjXjXjXxXvXvXnX-.3XqX2X:.O._ ! ! [ #.&.4 #.#.#.#.#.#.#.#.#.",
"{ / ] X.#.#.#.| $ ,.6.0.a.n.V.rXuXh.;XvXvXvXxXgX7X:X/ Z [ [ #.-.-X:X<X:X-X-X| ! &.#.#.#.#.#.#.#.",
"#.#.#.#.#.#.#.Z 0 4.0.a.b.V.rXuXsXc.O.4X-X%.| { | -.;X<X3X6X4X3X2X<X<X:X:X-Xl.5 #.&.#.#.#.#.#.#.",
"#.#.#.#.#.#.#.; 1.0.p.g.n.x.z.y...( ! X.-.:X4X7X0X0X0X0X7X7X6X4X4X2X1X<X>X:X;X} [ &.#.#.#.#.#.#.",
"#.#.#.#.#.#.O.% x c l j h ( { -.;X2X7X0X0XqX0XqXqXqXqX0X0X0X0X6X6X4X2X2X<X>X;X-.5 -.#.#.#.#.#.#.",
"#.#.#.#.#.#._ @ f _ %.:.:X2X6X7X0X0X0XqXqXqXqXgXdXgXqXqXqX0X0X7X7X6X4X2X<X<X>X;X! &.#.#.#.#.#.#.",
"#.#.#.#.#.#.! / ;X:X<X<X4X4X6X7X0X0XqXqXgXgXgXgXgXgXgXgXgXqXqX0X7X7X6X4X2X<X<X:X{ | -.#.#.#.#.#.",
"#.#.#.#.#.#.! | :X>X<X4X4X6X7X0X0XqXgXgXjXjXjXjXjXjXjXjXgXgXqXqX0X0X7X4X2X2X<X:X&.' -.#.#.#.#.#.",
"#.#.#.#.#.#.5 X.>X<X2X2X6X7X0X0XqXgXgXjXjXjXxXxXxXxXxXjXjXjXgXqXqX0X7X7X4X2X2X<X:./ -.#.#.#.#.#.",
"#.#.#.#.#.#.4 #.<X<X2X4X6X7X0XqXqXgXjXjXxXxXvXvXvXvXvXxXxXjXjXgXqX0X0X7X6X2X2X<Xl.! :.#.#.#.#.#.",
"#.#.#.#.#.#.5 #.<X<X2X4X7X0X0XqXgXjXjXxXvXvXvXnXnXvXvXvXxXxXjXgXgXqX0X0X7X4X2X1X:X! :.#.#.#.#.#.",
"#.#.#.#.#.%.! | <X2X4X4X7X0XqXgXjXjXjXvXvXnXnXnXMXnXnXvXvXvXjXjXgXdX4X-.| { [ | #.! l.#.#.#.#.#.",
"#.#.#.#.#.#.~ [ <X2X4X4X0X0XqXgXjXjXvXvXnXnXMXMXMXMXMXnXvXvXxXjXqX&.! -.3X7X5X:X[ = #.#.#.#.#.#.",
"#.#.#.#.#.#.[ ! <X2X4X6X0X0XqXgXjXjXxXvXnXMXMXVXVXBXMXnXnXvXvXgX| o.dXMXMXmXMXMXbX1X3 ^ #.#.#.#.",
"#.#.#.#.#.#.O.2 >X2X4X6X7XqXqXgXjXjXvXnXnXMXBXVXVXVXMXMXnXvXxX%.o.kXzX3X=.o.o.Z.dXbX3X2 { #.#.#.",
"#.#.#.#.#.#.#.3 :.3X4X6X0X0XqXgXjXxXvXvXnXMXBXVXVXBXMXMXnXvX0X! 9XfX=.b &.-.-./ b 5XlX;.2 #.#.#.",
"#.#.#.#.#.#.#.g O.3X4X6X0X0XqXgXjXxXvXvXnXMXMXBXBXBXMXmXnXvX-.$.fXA.! 6X0X6X4X2X/ b pX8X2 | #.#.",
"#.#.#.#.#.#.#.] Z 1X4X6X7X0XqXgXjXjXxXvXnXnXMXMXBXMXMXnXbXvX| l.dX` -X0X7X4X2X2X/ & ,XiXb [ #.#.",
"#.#.#.#.#.#.#.#.1 -.4X4X0X0XqXqXjXjXxXxXvXnXnXnXMXnXnXvXvXzX{ A.9X~ <X0X7X4X2X:X/ b k.pX_ / #.#.",
"#.#.#.#.#.#.#.&._ ~ 2X4X7X0X0XdXgXjXjXxXvXvXnXnXnXnXvXxXxXgX^ j.iXg l.3X1X>X:XX.` g *.iX~ ! #.#.",
"#.#.#.#.#.#.#.#.+.2 :.4X6X7X0XqXqXgXjXjXxXxXxXvXxXvXvXxX6XP G K.L.W H K L K K D H D @.L.Q m 5 #.",
"#.#.#.#.#.#.#.#.%.[ g <X4X6X0X0XqXgXgXjXjXjXxXxXxXxXxXxX%.J.'.OX&X%X%X%X%X%X%X%X%X%X%X&XoXY.M [ ",
"#.#.#.#.#.#.#.#.#.#.g } 4X6X7X0X0XqXgXgXjXjXjXjXjXjXjXjX+.H. X*X=X=X=X=X=X=X=X=X=X=X=X*X$XQ.S [ ",
"#.#.#.#.#.#.#.#.#.#.#.3 &.4X6X7X0X0XqXqXgXgXgXgXgXgXgXgXO.H.|.$X#X#X#X#X#X#X#X#X#X#X#X@XXXW.V [ ",
"#.#.#.#.#.#.#.#.#.#.#.O.3 :.6X7X7X0X0X0XqXqXgXqXgXqXqXqXO.H.)..X+X+X+X+X.X X XOX+X+X+X+X|.W.V ` ",
"#.#.#.#.#.#.#.#.#.#.#.#.| 3 -.4X6X7X0X0X0X0X0XqXqX0X0X0XO.G.^.).{.}.}.}.I.N E |.}.}.}.{.).W.S [ ",
"#.#.#.#.#.#.#.#.#.#.#.#.#.X.4 #.2X6X6X7X7X0X0X0X0X0X0X0X] G.^.`.[.{.{.[.J.  A (.[.[.{.`./.R.V [ ",
"#.#.#.#.#.#.#.#.#.#.#.#.#.#.#.! / -X4X4X6X7X7X7X7X7X7X7X] G.^._.`.[.`.[.(.A J.[.[.[.[.`./.R.V [ ",
"#.#.#.#.#.#.#.#.#.#.#.#.#.#.#.&.| b { -X2X4X4X6X6X4X4X6X' G.~._.`.`.`.[.`.T P.[.`.[.`.`.^.R.V [ ",
"#.#.#.#.#.#.#.#.#.#.#.#.#.#.#.#.#.&.| ! / +.:.-X:X:X;X:.Z G.~._._.[.`.`.[.Y.(.`.`.[.`._.^.T.V [ ",
"#.#.#.#.#.#.#.#.#.#.#.#.#.#.#.#.#.#.%.-.&.+.[ _ / / _ { < G.~._._.`.`.`.`.`.`.`.`.`.`._./.T.V [ ",
"#.#.#.#.#.#.#.#.#.#.#.#.#.#.#.#.#.#.#.#.#.&.-.-.:.:.:.l.Z G.~._.`.`.`.`.[.`.`.`.`.`._._.^.T.V [ ",
"#.#.#.#.#.#.#.#.#.#.#.#.#.#.#.#.#.#.#.#.#.#.#.#.#.#.#.#.1 D.R.E.^.^.^.^.^.^.^.^.^.^.^.^.E.U.V [ ",
"#.#.#.#.#.#.#.#.#.#.#.#.#.#.#.#.#.#.#.#.#.#.#.#.#.#.#.#./ N I U Y Y Y Y Y Y Y Y Y Y Y Y I C < X.",
"#.#.#.#.#.#.#.#.#.#.#.#.#.#.#.#.#.#.#.#.#.#.#.#.#.#.#.#.#.{ ^ ^ ^ / ^ ^ ^ / ^ ^ ^ _ / ^ / / X.#."
};
