/* XPM */
static char *buttonNoClickSelected[] = {
/* columns rows colors chars-per-pixel */
"48 48 122 2",
"   c #595858",
".  c #5B5B5B",
"X  c #5C5B5B",
"o  c #5C5C5C",
"O  c #5E5E5E",
"+  c #605F5F",
"@  c #636262",
"#  c #636363",
"$  c #646363",
"%  c #646464",
"&  c #666666",
"*  c #676767",
"=  c #686767",
"-  c #696868",
";  c #6E6E6E",
":  c #706F6F",
">  c #717070",
",  c #727171",
"<  c #747373",
"1  c #767575",
"2  c #787777",
"3  c #7B7A7A",
"4  c #7C7B7B",
"5  c #7D7D7D",
"6  c #7F7F7F",
"7  c #00FF00",
"8  c #05FF05",
"9  c #0AFF0A",
"0  c #0DFF0D",
"q  c #0FFF0F",
"w  c #12FF12",
"e  c #19FF19",
"r  c #32FF32",
"t  c #35FF35",
"y  c #3AFF3A",
"u  c #3EFF3E",
"i  c #43FF43",
"p  c #50FF50",
"a  c #58FF58",
"s  c #5FFF5F",
"d  c #69FF69",
"f  c #6EFF6E",
"g  c #838282",
"h  c #838383",
"j  c #878686",
"k  c #878787",
"l  c #888787",
"z  c #8A8A8A",
"x  c #8B8A8A",
"c  c #8C8B8B",
"v  c #8E8D8D",
"b  c #908F8F",
"n  c #909090",
"m  c #949393",
"M  c #959494",
"N  c #989898",
"B  c #9B9B9B",
"V  c #9E9D9D",
"C  c #A09F9F",
"Z  c #A0A0A0",
"A  c #A2A1A1",
"S  c #A4A3A3",
"D  c #A6A5A5",
"F  c #A8A8A8",
"G  c #AAAAAA",
"H  c #ACACAC",
"J  c #B1B0B0",
"K  c #B3B2B2",
"L  c #B4B4B4",
"P  c #B7B6B6",
"I  c #B7B7B7",
"U  c #B9B8B8",
"Y  c #BDBCBC",
"T  c #BDBDBD",
"R  c #C0BFBF",
"E  c #91FF91",
"W  c #94FF94",
"Q  c #A7FFA7",
"!  c #ABFFAB",
"~  c #B4FFB4",
"^  c #B9FFB9",
"/  c #C0C0C0",
"(  c #C4C3C3",
")  c #C5C5C5",
"_  c #C8C7C7",
"`  c #C8C8C8",
"'  c #CACACA",
"]  c #CCCBCB",
"[  c #CCCCCC",
"{  c #CFCFCF",
"}  c #D0D0D0",
"|  c #D3D2D2",
" . c #D5D4D4",
".. c #D7D7D7",
"X. c #D8D8D8",
"o. c #D9D8D8",
"O. c #DBDADA",
"+. c #DBDBDB",
"@. c #DCDCDC",
"#. c #DFDFDF",
"$. c #C6FFC6",
"%. c #CDFFCD",
"&. c #D2FFD2",
"*. c #DAFFDA",
"=. c #DDFFDD",
"-. c #E0E0E0",
";. c #E4E3E3",
":. c #E6E5E5",
">. c #E8E8E8",
",. c #EBEBEB",
"<. c #ECECEC",
"1. c #EEEEEE",
"2. c #EFEFEF",
"3. c #F0F0F0",
"4. c #F3F3F3",
"5. c #F4F4F4",
"6. c #F6F6F6",
"7. c #F7F7F7",
"8. c #F8F8F8",
"9. c #FBFBFB",
"0. c #FCFCFC",
"q. c #FFFFFF",
/* pixels */
"& & & & & & & & & & & & & & & & & & & & & & & & & & & & & & & & & & & & & & & & & & & & & & & & ",
"& & & & & & & & & & & & & & & & & & & & & & & & & & & & & & & & & & & & & & & & & & & & & & & & ",
"& & & & & & & & & & & & & & & & & & & @ O X X X X X X + @ & & & & & & & & & & & & & & & & & & & ",
"& & & & & & & & & & & & & & & & O                             O & & & & & & & & & & & & & & & & ",
"& & & & & & & & & & & & & & & O     = c K [ -.>.>.-.[ K x -     O & & & & & & & & & & & & & & & ",
"& & & & & & & & & & & & & O       g Y @.1.q.q.q.q.q.q.1.@.Y g O     O & & & & & & & & & & & & & ",
"& & & & & & & & & & & & O   X 5 [ 6.q.q.q.q.q.q.q.q.q.q.q.q.6.' 5 X   O & & & & & & & & & & & & ",
"& & & & & & & & & & & X   @ H 6.q.q.q.q.q.q.6.>.>.6.q.q.q.q.q.q.9.H @   X & & & & & & & & & & & ",
"& & & & & & & & & & X   1 [ q.q.q.q.:.;.9.q.C X O V q.9.@.:.q.q.q.q.[ 3     & & & & & & & & & & ",
"& & & & & & & & &     4 @.q.q.q.1./ - H 9.6.4     5 6.9.H - / 1.q.q.q.@.5   X & & & & & & & & & ",
"& & & & & & & & O   < O.q.q.q.@.v   O  .q.| $     $ | q. .O   b O.q.q.q.@.1   O & & & & & & & & ",
"& & & & & & & O   & ' q.q.q.' ;     x 1.q.L O     O L q.2.l     ; ' q.q.q.' &   O & & & & & & & ",
"& & & & & & &     D q.q.q.' -   O   D 9.q.c         v q.9.S   X   - [ q.q.q.D O   & & & & & & & ",
"& & & & & & O   3 4.q.q.+.,   X   X Y q.4.;   O O   ; 4.q.R X   O   , O.q.q.6.3   O & & & & & & ",
"& & & & & O   O ) q.q.4.k   O &   - +.q.O.&   $ &   $ O.q.O.=   & X   l 4.q.q.( O   O & & & & & ",
"& & & & &     g q.q.q.K     & $   2 :.q.L +   & &   O K q.>.3   $ &     G 9.q.q.g     & & & & & ",
"& & & & &   O Y q.q. .-   @ & $   g 1.q.x     & &     k q.1.l   @ & @   @ | q.q.Y O   & & & & & ",
"& & & & @   ; ;.q.9.G   O & & O   D 9.q.g   O & & O   , 6.9.G   O & & O   D 9.q.>.,   @ & & & & ",
"& & & & @   b q.q.4.c     X . o   ' q.q.5         O   ; ;.q.{       O     5 1.q.q.n   @ & & & & ",
"& & & & O   K q.q.'               | q.1.&               ) q. .              I 0.q.L   O & & & & ",
"& & & & O   [ q.q.4. .O.O.O.O. .O.6.q.9.@.O.O.O. .O.O.@.4.q.6.@.O.+. .O.@. .<.q.q.[   O & & & & ",
"& & & &     ;.q.q.q.q.q.q.q.q.q.q.q.q.q.q.q.q.q.q.q.q.q.q.q.q.q.q.q.q.q.q.q.q.q.q.:.    & & & & ",
"& & & &     4.q.q.q.q.q.q.q.q.q.q.q.q.q.q.q.q.q.q.q.q.q.q.q.q.q.q.q.q.q.q.q.q.q.q.6.    & & & & ",
"& & & &     q.q.1.g = & = = = & & & & - & = = = = = = = = = = = = = = = & & k 4.q.q.    & & & & ",
"& & & &     q.q.>.1                                                         1 >.q.q.    & & & & ",
"& & & &     q.q.>.1   & & & & $ % & & N +.@.C & & & & & & % % & & & @ & @   5 >.q.q.    & & & & ",
"& & & &     6.q.1.5   @ & & & & & & & +.u t ! O.M & & & & & & & & & & & %   5 >.q.9.    & & & & ",
"& & & &     1.q.4.v   @ & & & & & & & 6.w 7 7 i ^ | v & & & & & & & & & @   x 4.q.4.    & & & & ",
"& & & & X   O.q.9.G   O & & & & & & & 3.e 7 7 7 7 p $.) k & & & & & & & @   x 4.q.@.  X & & & & ",
"& & & & O   ( q.q.[ O   & & & & & & & 3.e 7 7 7 7 7 8 s &.Y 5 & & & & & O   A 9.q.)   O & & & & ",
"& & & & @   D q.q.4.c   @ & & & & & & 3.e 7 7 7 7 7 7 7 0 f =.L & & & @   + { q.q.G   + & & & & ",
"& & & & @   g 9.q.9.K   o & & & & & & 3.e 7 7 7 7 7 7 7 7 7 w W D & & @   m 4.q.9.k   @ & & & & ",
"& & & & &   & +.q.q.| O   & & & & & & 4.e 7 7 7 7 7 7 7 7 7 q E G & & o   / q.q.@.-   & & & & & ",
"& & & & &     G q.q.:.g   O & & & & & 1.e 7 7 7 7 7 7 7 9 d *.I = & O   5 >.q.q.H X   & & & & & ",
"& & & & & O   1 4.q.q.' @   @ & & & & 1.e 7 7 7 7 7 7 a %.Y g & & $   O ) q.q.4.1   O & & & & & ",
"& & & & & &     H q.q.6.V     @ & & & 4.e 7 7 7 7 i $.' x & & & &     C 9.q.q.J X   & & & & & & ",
"& & & & & & O   ; ;.q.q.4.k     & & & 4.w 7 7 u ~ | m & & & & & X   k 1.q.q.:.,   O & & & & & & ",
"& & & & & & &     n q.q.q.:.g     @ & O.y r Q q.B & & & & & @     g :.q.q.q.m     & & & & & & & ",
"& & & & & & & O   O L q.q.q.:.v     O V @.-.A & & & & & & X     n :.q.q.q.U O   O & & & & & & & ",
"& & & & & & & & O   = ' q.q.q.4.K &   O O @ & - & & O O     @ K 4.q.q.q.] -   O & & & & & & & & ",
"& & & & & & & & & X   ; ] q.q.q.9.@.x                   @ x O.9.q.q.q.] ;   O & & & & & & & & & ",
"& & & & & & & & & & X   = L q.q.q.q.4.@.D &     O 3 A Y >.4.q.q.q.q.Y =   X & & & & & & & & & & ",
"& & & & & & & & & & & O   + V 1.q.q.q.q.9.4.1.1.1.6.9.q.q.q.q.q.>.A +   X & & & & & & & & & & & ",
"& & & & & & & & & & & & O     : L >.q.q.q.q.q.q.q.q.q.q.q.q.1.U : O   O & & & & & & & & & & & & ",
"& & & & & & & & & & & & & O       , G | >.8.q.q.q.q.6.:. .G <       O & & & & & & & & & & & & & ",
"& & & & & & & & & & & & & & & O     @ 5 D Y | @.@.| / D 5 @     O & & & & & & & & & & & & & & & ",
"& & & & & & & & & & & & & & & & & O                           O & & & & & & & & & & & & & & & & ",
"& & & & & & & & & & & & & & & & & & & @ @ O O .   O O @ @ & & & & & & & & & & & & & & & & & & & "
};
