/* XPM */
static char * buttonMiddleSelectedLocked[] = {
"48 48 263 2",
"  	c None",
". 	c #666666",
"+ 	c #656565",
"@ 	c #626262",
"# 	c #5F5E5E",
"$ 	c #5D5C5C",
"% 	c #5B5A5A",
"& 	c #5E5E5E",
"* 	c #595858",
"= 	c #5A5959",
"- 	c #696868",
"; 	c #8C8B8B",
"> 	c #B3B2B2",
", 	c #CECDCD",
"' 	c #E1E1E1",
") 	c #EAE9E9",
"! 	c #CECECE",
"~ 	c #B3B3B3",
"{ 	c #8C8C8C",
"] 	c #818181",
"^ 	c #BDBCBC",
"/ 	c #DEDEDE",
"( 	c #EFEFEF",
"_ 	c #FCFCFC",
": 	c #FFFFFF",
"< 	c #F0F0F0",
"[ 	c #BDBDBD",
"} 	c #828181",
"| 	c #5E5D5D",
"1 	c #5C5B5B",
"2 	c #7D7D7D",
"3 	c #CCCCCC",
"4 	c #F5F5F5",
"5 	c #FEFEFE",
"6 	c #7F7F7F",
"7 	c #636262",
"8 	c #ACACAC",
"9 	c #F6F6F6",
"0 	c #EAEAEA",
"a 	c #F8F8F8",
"b 	c #AFAEAE",
"c 	c #767575",
"d 	c #CDCDCD",
"e 	c #FDFDFD",
"f 	c #E5E5E5",
"g 	c #E2E2E2",
"h 	c #FBFBFB",
"i 	c #BD736A",
"j 	c #E82C15",
"k 	c #FAFAFA",
"l 	c #E0E0E0",
"m 	c #CFCFCF",
"n 	c #777676",
"o 	c #7B7A7A",
"p 	c #DDDDDD",
"q 	c #C0BFBF",
"r 	c #AEAEAE",
"s 	c #C94434",
"t 	c #EB2B13",
"u 	c #ADACAC",
"v 	c #686767",
"w 	c #C1C0C0",
"x 	c #7C7B7B",
"y 	c #5D5D5D",
"z 	c #747474",
"A 	c #DBDADA",
"B 	c #DCDCDC",
"C 	c #8F8E8E",
"D 	c #D6D6D6",
"E 	c #D5D4D4",
"F 	c #E0301A",
"G 	c #D5D5D5",
"H 	c #757474",
"I 	c #656464",
"J 	c #CACACA",
"K 	c #CBCBCB",
"L 	c #6E6E6E",
"M 	c #8A8989",
"N 	c #B4B4B4",
"O 	c #E42D16",
"P 	c #898888",
"Q 	c #676666",
"R 	c #A6A5A5",
"S 	c #6A6969",
"T 	c #A5A5A5",
"U 	c #C0584B",
"V 	c #E92C14",
"W 	c #F9F9F9",
"X 	c #A4A3A3",
"Y 	c #A7A7A7",
"Z 	c #F3F3F3",
"` 	c #DBDBDB",
" .	c #727272",
"..	c #F4F4F4",
"+.	c #D33825",
"@.	c #D43724",
"#.	c #C5C5C5",
"$.	c #F2F2F2",
"%.	c #878686",
"&.	c #5C5C5C",
"*.	c #D9D8D8",
"=.	c #DD311B",
"-.	c #D9D9D9",
";.	c #C6C6C6",
">.	c #B5B5B5",
",.	c #646363",
"'.	c #787777",
").	c #E7E7E7",
"!.	c #BF9C97",
"~.	c #E32E17",
"{.	c #E42D17",
"].	c #BF9994",
"^.	c #E8E8E8",
"/.	c #636363",
"(.	c #AEADAD",
"_.	c #858484",
":.	c #BFBEBE",
"<.	c #D3D2D2",
"[.	c #6B6A6A",
"}.	c #626161",
"|.	c #838383",
"1.	c #ECECEC",
"2.	c #C15447",
"3.	c #C35041",
"4.	c #EEEEEE",
"5.	c #646464",
"6.	c #6E6D6D",
"7.	c #E6E6E6",
"8.	c #AAAAAA",
"9.	c #605F5F",
"0.	c #C64839",
"a.	c #D03A28",
"b.	c #ABABAB",
"c.	c #A8A7A7",
"d.	c #706F6F",
"e.	c #908F8F",
"f.	c #F1F1F1",
"g.	c #CAC9C9",
"h.	c #C84535",
"i.	c #D53622",
"j.	c #E4E3E3",
"k.	c #D0D0D0",
"l.	c #7E7D7D",
"m.	c #929191",
"n.	c #B2B1B1",
"o.	c #D1D1D1",
"p.	c #DF301A",
"q.	c #C8BEBD",
"r.	c #B8B8B8",
"s.	c #D8D8D8",
"t.	c #F7F7F7",
"u.	c #EDEDED",
"v.	c #4176B4",
"w.	c #266EC3",
"x.	c #4779B3",
"y.	c #3070BC",
"z.	c #1D6FD0",
"A.	c #3370BA",
"B.	c #EBEBEB",
"C.	c #367CB9",
"D.	c #9DB15B",
"E.	c #E9D914",
"F.	c #F5DF09",
"G.	c #EAD914",
"H.	c #A0B357",
"I.	c #377CB8",
"J.	c #3471BA",
"K.	c #3B73B7",
"L.	c #2F78C0",
"M.	c #C4C537",
"N.	c #FCE302",
"O.	c #C8C833",
"P.	c #96AE60",
"Q.	c #C6C734",
"R.	c #C5C636",
"S.	c #3079BF",
"T.	c #3C74B6",
"U.	c #507DB2",
"V.	c #9CB15B",
"W.	c #FFE400",
"X.	c #99AF5E",
"Y.	c #347BBB",
"Z.	c #2B76C3",
"`.	c #98AF5F",
" +	c #9EB25A",
".+	c #1E6FCF",
"++	c #7D97B6",
"@+	c #2E78C1",
"#+	c #EFDC0F",
"$+	c #DED31E",
"%+	c #DFD31D",
"&+	c #4B7AB3",
"*+	c #DFDFDF",
"=+	c #5B5B5B",
"-+	c #C4C3C3",
";+	c #216ECA",
">+	c #2674C8",
",+	c #B5BE44",
"'+	c #B7BF42",
")+	c #FDE302",
"!+	c #708EB4",
"~+	c #4C7BB3",
"{+	c #568C9C",
"]+	c #C5C635",
"^+	c #5089A2",
"/+	c #4E88A3",
"(+	c #C7C733",
"_+	c #FBE204",
":+	c #558C9D",
"<+	c #226EC7",
"[+	c #D2D2D2",
"}+	c #A9A9A9",
"|+	c #8DA1BA",
"1+	c #F1DD0D",
"2+	c #CDCA2E",
"3+	c #CECB2D",
"4+	c #CCC92F",
"5+	c #C1C439",
"6+	c #5A82B2",
"7+	c #888787",
"8+	c #CDCECF",
"9+	c #1F6ECC",
"0+	c #F3DE0B",
"a+	c #B0B9C4",
"b+	c #3F75B5",
"c+	c #E4D618",
"d+	c #E2D51B",
"e+	c #BDC1C8",
"f+	c #BDC2C9",
"g+	c #6B8BB3",
"h+	c #B1B0B0",
"i+	c #E6E5E5",
"j+	c #909090",
"k+	c #E7D816",
"l+	c #949393",
"m+	c #B7B7B7",
"n+	c #5580B2",
"o+	c #E5D718",
"p+	c #F9E106",
"q+	c #B9B9B9",
"r+	c #8FA2B9",
"s+	c #256EC4",
"t+	c #226EC9",
"u+	c #CCCBCB",
"v+	c #6F6E6E",
"w+	c #7A95B5",
"x+	c #246EC5",
"y+	c #3772B8",
"z+	c #6F8EB3",
"A+	c #BBBABA",
"B+	c #9E9D9D",
"C+	c #A09F9F",
"D+	c #717070",
"E+	c #B7B6B6",
"F+	c #B9B8B8",
"G+	c #727171",
"H+	c #737272",
"I+	c #D4D4D4",
"J+	c #E9E9E9",
"K+	c #ACABAB",
"L+	c #616060",
"M+	c #7D7C7C",
"N+	c #606060",
". . . . . . . . . . . . . . . . . . . . . . . . . . . . . . . . . . . . . . . . . . . . . . . . ",
". . . . . . . . . . . . . . . . . . . . . . . . . . . . . . . . . . . . . . . . . . . . . . . . ",
". . . . . . . . . . . . . . . . . . + @ # $ % % % % $ # @ + . . . . . . . . . . . . . . . . . . ",
". . . . . . . . . . . . . . . . & * * * * * * * * * * * * * * & . . . . . . . . . . . . . . . . ",
". . . . . . . . . . . . . . . & * = - ; > , ' ) ) ' ! ~ { - = * & . . . . . . . . . . . . . . . ",
". . . . . . . . . . . . . & * * % ] ^ / ( _ : : : : _ < / [ } % * * & . . . . . . . . . . . . . ",
". . . . . . . . . . . . | * 1 2 3 4 5 : : : : : : : : : : 5 4 , 6 1 * | . . . . . . . . . . . . ",
". . . . . . . . . . . 1 * 7 8 9 : : : 5 : 5 4 0 0 4 5 5 5 : : : a b 7 * 1 . . . . . . . . . . . ",
". . . . . . . . . . 1 * c d : : : e f g h : i j j i : k l f e : : : m n * 1 . . . . . . . . . . ",
". . . . . . . . . 1 * o p : : : < q - r h 4 s t t s 4 h u v w < : : : / x * 1 . . . . . . . . . ",
". . . . . . . . y * z A : : 5 B C * | D : E F t t F E : G | * C B 5 : : B H * y . . . . . . . . ",
". . . . . . . & * I J : : 5 K L * * M ( : N O t t O N : ( P * * L J 5 : : K Q * & . . . . . . . ",
". . . . . . . * % R : : : d S * $ * T k 5 U V t t V U : W X * $ * S d : : : Y % * . . . . . . . ",
". . . . . . | * o Z : : `  .* $ * 1 q : ..+.t t t t @...: q 1 * $ *  .` : : ..x * | . . . . . . ",
". . . . . & * $ #.: : $.%.* &.+ * - *.: A =.t t t t =.-.: *.v * + &.* %...: : ;.| * & . . . . . ",
". . . . . * = } _ : 5 >.* % + ,.* '.).: !.~.t t t t {.].: ^.o * /.+ % * (.k : _ _.= * . . . . . ",
". . . . . * $ :.: 5 <.[.* }.. 7 * |.1.: 2.t t t t t t 3.: 4.%.* @ . @ * ,.m 5 : w | * . . . . . ",
". . . . 5.* 6.7.: h 8.* $ . . 9.* R W : 0.t t t t t t a.a k b.* & . . y * c.k : ^.d.* 5.. . . . ",
". . . . }.* e._ : f.; * 1 1 1 1 * g.: : h.t t t t t t i.j.: k.= * 1 1 1 * l.1.: _ m.* }.. . . . ",
". . . . # * n.: : 3 * * * * * * * o.: ( p.t t t t t t t q.: D * * * * * * * r._ : N * # . . . . ",
". . . . $ * m : : f.s.-.-.-.-.-.` 9 : k / -.-.-.-.-.-.B f.: t.p -.-.-.-.-.*.1.5 : o.* $ . . . . ",
". . . . % * j.: : : : : : : : : : : : : : : : : : : : : : : : : : : : : : : : : : 7.* % . . . . ",
". . . . = * Z : : : : : : : : : : : : : : : : : : : : : : : : : : : : : : : : : : 4 * = . . . . ",
". . . . * * _ : u.v.w.w.w.w.w.w.w.w.w.w.w.w.w.w.w.w.w.w.w.w.w.w.w.w.w.w.w.w.x.( : 5 * * . . . . ",
". . . . * * : : 0 y.z.z.z.z.z.z.z.z.z.z.z.z.z.z.z.z.z.z.z.z.z.z.z.z.z.z.z.z.A.B.: : * * . . . . ",
". . . . * * 5 : B.A.z.z.z.z.z.z.z.z.z.z.C.D.E.F.F.G.H.I.z.z.z.z.z.z.z.z.z.z.J.B.: : * * . . . . ",
". . . . * * a : u.K.z.z.z.z.z.z.z.z.z.L.M.N.O.P.P.Q.N.R.S.z.z.z.z.z.z.z.z.z.T.u.: h * * . . . . ",
". . . . = * u.: $.U.z.z.z.z.z.z.z.z.z.V.W.X.Y.Z.Z.Y.`.W. +.+z.z.z.z.z.z.z.z.x.f.: < * = . . . . ",
". . . . 1 * B : k ++z.z.z.z.z.z.z.z.@+#+$+@+z.z.z.z.@+%+#+S.z.z.z.z.z.z.z.z.&+$.: *+* =+. . . . ",
". . . . | * -+: : k.;+z.z.z.z.z.z.z.>+W.,+z.z.z.z.z.z.'+)+>+z.z.z.z.z.z.z.z.!+a : ;.* y . . . . ",
". . . . 9.* R : : f.~+z.z.z.z.z.z.z.{+W.]+^+^+^+^+^+/+(+_+:+z.z.z.z.z.z.z.<+[+: : }+* 9.. . . . ",
". . . . 7 * _.W : _ |+z.z.z.z.z.z.z.M.W.1+2+3+3+3+3+4+1+)+5+z.z.z.z.z.z.z.6+4 : k 7+* @ . . . . ",
". . . . + * Q A : : 8+9+z.z.z.z.z.z.0+W.W.W.W.W.W.W.W.W.W.1+z.z.z.z.z.z.z.a+5 : B - * + . . . . ",
". . . . . * 1 8.: : ) b+z.z.z.z.z.z.c+W.W.W.W.W.W.W.W.W.W.d+z.z.z.z.z.z.T.^.: : u 1 * . . . . . ",
". . . . . & * z f.: : e+;+z.z.z.z.z.c+W.W.W.W.W.W.W.W.W.W.d+z.z.z.z.z.;+f+: : ..c * & . . . . . ",
". . . . . . * % r : : a g+z.z.z.z.z.c+W.W.W.W.W.W.W.W.W.W.d+z.z.z.z.z.g+a : : h+1 * . . . . . . ",
". . . . . . & * L j.: : ( x.z.z.z.z.c+W.W.W.W.W.W.W.W.W.W.d+z.z.z.z.x.( : : i+d.* & . . . . . . ",
". . . . . . . * = j+: : : f v.z.z.z.k+W.W.W.W.W.W.W.W.W.W.c+z.z.z.v.f : : : l+= * . . . . . . . ",
". . . . . . . & * | m+: : : i+n+z.z.o+p+p+p+p+p+p+p+p+p+p+d+z.z.n+i+: : : q+| * & . . . . . . . ",
". . . . . . . . | * - g.: : : f.r+s+z.z.z.z.z.z.z.z.z.z.z.z.<+r+f.: : : 3 S * | . . . . . . . . ",
". . . . . . . . . $ * 6.K : : : k *+x.z.z.z.z.z.z.z.z.z.t+~+p k : : : u+v+* $ . . . . . . . . . ",
". . . . . . . . . . $ * Q r.: : : : f./ w+x+z.z.9+y+z+a+B.f.: : : : A+- * $ . . . . . . . . . . ",
". . . . . . . . . . . y * # B+1.: : : : k Z ( ( ( 4 k e : : : : u.C+# * $ . . . . . . . . . . . ",
". . . . . . . . . . . . | * % D+E+B.e : : : : : : : : : : e B.F+G+% * | . . . . . . . . . . . . ",
". . . . . . . . . . . . . & * * = H+b.I+J+9 5 : : 5 9 J+G K+H+= * * & . . . . . . . . . . . . . ",
". . . . . . . . . . . . . . . & * * L+M+T w I+p p I+w T l.}.= * & . . . . . . . . . . . . . . . ",
". . . . . . . . . . . . . . . . . | * * * * * * * * * * * * * & . . . . . . . . . . . . . . . . ",
". . . . . . . . . . . . . . . . . . + /.N+| &.1 1 &.| N+/.+ . . . . . . . . . . . . . . . . . . "};
