/* XPM */
static char *buttonDblLeftDisabled[] = {
/* columns rows colors chars-per-pixel */
"48 48 71 1",
"  c #05050D",
". c #0B0B0B",
"X c #040413",
"o c #00001C",
"O c #0C0C14",
"+ c #0D0D1B",
"@ c #141414",
"# c #1C1C1C",
"$ c #000024",
"% c #01012B",
"& c #0C0C23",
"* c #000034",
"= c #00003C",
"- c #0D0D3F",
"; c #151525",
": c #14142D",
"> c #191923",
", c #19192A",
"< c #161637",
"1 c #1A1A3F",
"2 c #232324",
"3 c #27272B",
"4 c #2B2B2C",
"5 c #31312F",
"6 c #343434",
"7 c #373739",
"8 c #3C3C3C",
"9 c #000043",
"0 c #00004B",
"q c #000054",
"w c #00005B",
"e c #1E1E40",
"r c #13135F",
"t c #020264",
"y c #05056A",
"u c #0C0C62",
"i c #0B0B6D",
"p c #0D0D73",
"a c #1F1F60",
"s c #181869",
"d c #121276",
"f c #161679",
"g c #1C1C7C",
"h c #20204C",
"j c #212152",
"k c #262659",
"l c #2F2F6D",
"z c #24247A",
"x c #333372",
"c c #444444",
"v c #4C4C4B",
"b c #545453",
"n c #585857",
"m c #5C5C5B",
"M c #60605F",
"N c #656565",
"B c #6B6B6B",
"V c #737373",
"C c #7B7B7B",
"Z c #262686",
"A c #2C2C83",
"S c #2A2A89",
"D c #343481",
"F c #363693",
"G c #3B3B99",
"H c #4646A2",
"J c #838383",
"K c #8C8C8C",
"L c #939393",
"P c #9A9A9A",
"I c #A0A0A0",
/* pixels */
"NNNNNNNNMcbNNNNNNNNNNNNNNNNNNNNNNNNNNNNNNNNNNNNN",
"NNNNNNNn2 8NNNNNNNNNNNNNNNNNNNNNNNNNNNNNNBNNNNNN",
"NNNNNNv@o$3NNNNNNNBNNNNNNNNNNNNNNNNNNNNNNNNNNNNN",
"NNNNNvO$*=>NNNNNNNnv722#258bMBNNNNNNNNNNNNNNNNNN",
"NNNNvOo*90&mNNNNv3@.@@##..#@#6nNNNNNNNNNNNNNNNNN",
"NNNm#o%=0w*vBNv2.O@##2242#54##@7MNNNNNNNNNNNNNNN",
"NNN4X%=0qt98NcOo.#2234675#7754#@#vNNNNNNNNNNNBNN",
"NNbX$=9qtpa37 $=X24667888#8c8662#@cNNNNNNNNNNNNN",
"NN3o*9qtigz+ $*9&2788ccvv28vc88742@8NNNNNNNNNNNN",
"NnO%9qwyfZF:o*9q*2ccvvvbn77nvvc8862@8NNNNNNNNNNN",
"N7$=0qyfZFHe$90w02vvbnmmNv5Mmbvv8882#vBNNNNNNNNB",
"N#*0qtpzZDx<%0wtu>bmmNNBBM4NNMnbvvc82#nNNNNNNNNN",
"v+90099<;Xo%9qtpg,nNBBBVCV6NBBNmbv62#.6NNNNNNNNN",
"cX+;37cb2o*9qtpgZ1bBBCCCJJ8mNn84######@vBNNNNNNN",
"mvnNNNBnO%9qwyfZGkvCCCCVNv222246667532#2NNNNNNNN",
"NNNNNNN8o90wyfZGHl6mv743468cvvvcc886642@nNNNNNNN",
"NNNNNNN2*0qyuskh1,#47cvnmnmnbvvvcc88764#6NNNNNNN",
"NNNNNNmO*=%$;#258vbmmmMMMmMmnnbbvvc87642#MNNNNNN",
"NNNNNNb.O#267cvbbnmmNNNNNNNNMmmnbvcc8774@bNNNNNN",
"NNNNNNc@4688cvvbnmNNNBBNBBBNNNMnnbvvc876#cNNNNNN",
"NNNNNB8#568ccvnnmNNNVVVVVVVVBNNMmnbvv87724NNNNNN",
"NNNNNN8#688cvbnnNNBBVVCCCCVVVBBNmmbvvc8732NNNNNN",
"NNNNNN8#78cvvnmMNBVVCCCCCCJCVVBNNmnbvcc75#MNNNNN",
"NNNNNN8#88cvbnmMNBVCCJJKKKKKHVVVNMmbvvc86#MNNNNN",
"NNNNNNc288cvbnMBBVCCJKKKKKKJCCCBBNmnvvc86#mNNNNN",
"NNNNBNv#8ccbnnMBBCCCKKKLLLLKKCCVBNNnbvc86#MNNNNN",
"NNNNNNb#8ccbnnMBVVCKKKLPPPLKKCCVBNMnbvcc6#MNBNNN",
"NNNNNNm#8ccvnnMBVCCJKKPPIPLKKJCVBNNmbvv862MNNNNN",
"NNNNNNN35cvbnMMBVCCJKLPIIPPKKJCVVNNmnvcc44NNNNNN",
"NNNNNNN8#ccbnMMBBVCJKKLPPPLKJCCVBNMmbvcc28NNNNNN",
"NNNNNNNm#8vvbnMBBVCJKKKPLKKKJCCVBNMnbvc8#vBNNNNN",
"NNNNNNNN45cvnnMNBVCCCKKKKKKKCCVVNNMnvvc62mNNNNNN",
"NNNNNNNNv#cvvnmNNVVCCJJJKJJJHKCVMMnnbcc25MBMBMBB",
"NNNNNNNBN44vvnmMNNVVVCCJJCCCVVBNNMnbvc8#nBMBMBBM",
"NNNNNNNNNv#cvbnmNNBBVVCVCVVVVBNNMnbvvc24MMBMBMMB",
"NNNNNNNNNN8#cvbnmNNNBVVVVVVVBNNMnnbvc8#bMBMBMMBM",
"NNNNNNNNNNN23vvbnmNNNNBBBBNNNNMmnbbcc#8NBMBMBMBM",
"NNNNNNNNNNNm#6vvbnmmNNNNNNNNMMnbbvcc22MNMBMBMBMB",
"NNNNNNNNNNNNn#5vvbnnmmmMMMmmnbbbvcc42nNNBMBMBMBM",
"NNNBNNNNNNNNNn22cvvbbbnnnnnbbbvvcc22nNNNMBMBMBMB",
"NNNNNNNNNNNNNNm6#6vvvbbbbvbvvvvc6#4mNNNNBMBMBBNN",
"NNNNNNNNNNNNNNNNv2#6cvvvvvvvvc72#cMNNNBNMBMBMBNN",
"NNNNNNNNNNNNNNNNNMv3#25778762#27mNNNNNNNBMBMNNNN",
"NNNNNNNBNNNNNNNNNNNNnc6222268vNNNNNNNNNNMBMBNNNN",
"NNNBNNNNNNNNNNNNNNNNNNNNNNNNBNNNNNNNNNNNNNNNNNNN",
"NNNNNNNNNNNNNNNNNNNNNNNNNNNNNNNNNNNBNNNNNNNNNNNN",
"NNNNNNNNNNNNNNNNNNNNNNNNNNNNNNNNNNNNNNNNNNBNNNMB",
"NNNNNNNNNNNNNNNNNNNNNNNNNNNNNNNNNNNNNNNNNNNBMBMN"
};
