/* XPM */
static const char *buttonMiddleSelectedLocked[] = {
/* columns rows colors chars-per-pixel */
"48 48 256 2",
"   c #1C1C2E",
".  c #141436",
"X  c #0E0E3C",
"o  c #201D2E",
"O  c #2A292A",
"+  c #3E2B2B",
"@  c #31292A",
"#  c #39342C",
"$  c #37373A",
"%  c #3C3232",
"&  c #3E3B3B",
"*  c #353535",
"=  c #2E2E33",
"-  c #230D09",
";  c #161759",
":  c #12124D",
">  c #3E3E43",
",  c #2C2654",
"<  c #262569",
"1  c #20207F",
"2  c #121271",
"3  c #3E4146",
"4  c #401F1F",
"5  c #581414",
"6  c #483B0D",
"7  c #563C0B",
"8  c #573D09",
"9  c #453212",
"0  c #442D2D",
"q  c #482A2A",
"w  c #413E3E",
"e  c #463736",
"r  c #5B2A2A",
"t  c #54393A",
"y  c #5A362F",
"u  c #6F1010",
"i  c #730D0D",
"p  c #6C2A2A",
"a  c #673535",
"s  c #762E2F",
"d  c #46374E",
"f  c #554509",
"g  c #585411",
"h  c #554B10",
"j  c #6A4B0F",
"k  c #67460D",
"l  c #7D5F10",
"z  c #69580A",
"x  c #624628",
"c  c #6A601D",
"v  c #696526",
"b  c #434243",
"n  c #47494B",
"m  c #4A4B4C",
"M  c #44454C",
"N  c #4F5053",
"B  c #5A4A4B",
"V  c #584748",
"C  c #535455",
"Z  c #5C5C5C",
"A  c #565657",
"S  c #524252",
"D  c #49456E",
"F  c #595663",
"G  c #5F6166",
"H  c #69484A",
"J  c #664A51",
"K  c #685C5D",
"L  c #7A4A42",
"P  c #774444",
"I  c #795859",
"U  c #665C67",
"Y  c #7B7D45",
"T  c #656666",
"R  c #6B6B6B",
"E  c #63686F",
"W  c #666A73",
"Q  c #766868",
"!  c #737373",
"~  c #7B7B7B",
"^  c #757275",
"/  c #776F70",
"(  c #1B1B85",
")  c #2C2C9C",
"_  c #232395",
"`  c #2D2E90",
"'  c #3838A6",
"]  c #545495",
"[  c #4F4E83",
"{  c #4242AD",
"}  c #4B4CA9",
"|  c #4F4FB8",
" . c #4949B3",
".. c #5454BA",
"X. c #5556AB",
"o. c #6F7884",
"O. c #6F70B8",
"+. c #5E5EC3",
"@. c #6666CB",
"#. c #7373D5",
"$. c #7C7CDF",
"%. c #6F6FD3",
"&. c #7F7FE1",
"*. c #7C838B",
"=. c #8E0505",
"-. c #950A0A",
";. c #8C1414",
":. c #872828",
">. c #8F3535",
",. c #A70303",
"<. c #B40202",
"1. c #B01515",
"2. c #BB2323",
"3. c #A83333",
"4. c #9D7D00",
"5. c #AF7200",
"6. c #AF7A00",
"7. c #B07100",
"8. c #A56700",
"9. c #814946",
"0. c #875555",
"q. c #974C4C",
"w. c #9C5A5A",
"e. c #845D60",
"r. c #876C6C",
"t. c #927A7A",
"y. c #936B6C",
"u. c #B64E4E",
"i. c #BA5454",
"p. c #AB5453",
"a. c #B27171",
"s. c #C90F0F",
"d. c #CD3737",
"f. c #FE0909",
"g. c #F00808",
"h. c #FD1111",
"j. c #FD1B1B",
"k. c #F51010",
"l. c #ED1C1C",
"z. c #FC2626",
"x. c #FB2C2C",
"c. c #FC3434",
"v. c #FB3A3A",
"b. c #F43F3F",
"n. c #E92121",
"m. c #C94A4A",
"M. c #DF5F5F",
"N. c #CC5959",
"B. c #C16A6A",
"V. c #C87473",
"C. c #D86767",
"Z. c #DA7676",
"A. c #FB4242",
"S. c #FA4C4C",
"D. c #F54D4D",
"F. c #F95656",
"G. c #F95D5D",
"H. c #F35A5A",
"J. c #E54141",
"K. c #EA6A6A",
"L. c #EB7373",
"P. c #F96464",
"I. c #F86B6B",
"U. c #F16F6F",
"Y. c #F77272",
"T. c #F77979",
"R. c #FA7474",
"E. c #F97B7B",
"W. c #AF8200",
"Q. c #B18604",
"!. c #82834E",
"~. c #B3B57D",
"^. c #C69907",
"/. c #DD8D02",
"(. c #DDB100",
"). c #E89B00",
"_. c #E79800",
"`. c #EAA302",
"'. c #E8AB01",
"]. c #F4A700",
"[. c #F3AD04",
"{. c #F5B302",
"}. c #F9B500",
"|. c #FDBD00",
" X c #F4BA05",
".X c #E9B90D",
"XX c #F6C20E",
"oX c #FEC203",
"OX c #FECA0A",
"+X c #FAC40A",
"@X c #F8CB16",
"#X c #FDD214",
"$X c #F4DC13",
"%X c #EFCE08",
"&X c #FEDD24",
"*X c #FAD828",
"=X c #F6E211",
"-X c #F9E315",
";X c #FDE53A",
":X c #FEE93A",
">X c #948484",
",X c #979699",
"<X c #8F8E93",
"1X c #9A9EA5",
"2X c #A98687",
"3X c #A99898",
"4X c #B79392",
"5X c #A4A7AB",
"6X c #ADB4BE",
"7X c #B5A7A7",
"8X c #AEAEB2",
"9X c #8788D6",
"0X c #8787E6",
"qX c #9292EC",
"wX c #AEB7C1",
"eX c #B5BCC3",
"rX c #BDC3C9",
"tX c #C69898",
"yX c #D79B9A",
"uX c #C88484",
"iX c #D9B7B8",
"pX c #D2AEAE",
"aX c #EA8584",
"sX c #EE908F",
"dX c #E49A9A",
"fX c #F68484",
"gX c #F68D8D",
"hX c #F98181",
"jX c #F98B8B",
"kX c #F59595",
"lX c #F49C9C",
"zX c #F99595",
"xX c #F89D9D",
"cX c #F88F90",
"vX c #E9A7A7",
"bX c #F5A3A3",
"nX c #F4ABAB",
"mX c #F8A6A5",
"MX c #F4B2B2",
"NX c #F3BBBB",
"BX c #EAB1B0",
"VX c #C8CDD3",
"CX c #D8CACB",
"ZX c #DAD9DB",
"AX c #C8CDD3",
"SX c #D9DCE0",
"DX c #F3C4C4",
"FX c #F3CCCC",
"GX c #F9CECE",
"HX c #F2D4D4",
"JX c #F2DBDB",
"KX c #E8CECE",
"LX c #E9EBEE",
"PX c #EAE3E4",
"IX c #F3E4E4",
"UX c #EBEEF1",
/* pixels */
"T T T T T T T T T T T T T T T T T T T T T T T T T T T T T T T T T T T T T T T T T T T T T T T T ",
"T T T T T T T T T T T T T T T T T T T T T T T T T T T T T T T T T T T T T T T T T T T T T T T T ",
"T T T T T T T T T T T T T T T T T T T T T T T T T T T R T T T T T T T T T T T T T T T T T T T T ",
"T T T T T T T T T T T T T T T T T T A n & % + 0 @ = & m Z T T T T T T T T T T T T T T T T T T T ",
"T T T T T T T T T T T T T T T T m % r >.p.N.C.C.a , < : o $ A T T T T T T T T T T T T T T T T T ",
"T T T T T T T T T T T T T T A @ 4 i.K.Y.R.R.T.E.i.< ' ) _ ; . * Z T T T T T T T T T T T T T T T ",
"T T T T T T T T T T T T T b q q.a U.T.T.T.T.fXjXV.,  .{ ' _ ( :   m T T T T T T T T T T T T T T ",
"T T T T T T T T T T T T & a C.aXa K.hXfXjXjXgXkXsXd | | { ' ) _ 2 . w T T T T T T T T T T T T T ",
"T T T T T T T T T T T w a L.fXgXP B.jXgXcXkXkXlXlXH X.+... .' ) _ 2 X & T T T T T T T T T T T T ",
"T T T T T T T T T T n y K.fXjXkXw.w.zXkXlXlXbXbXnX0.} %.@...| { ' ) ( : w T T T T T T T T T T T ",
"T T T T T T T T T A q M.E.fXcXxX2X0.lXbXbXbXnXMXNX~.[ $.%.@.+.| { ' ) ( . m T T T T T T T T T T ",
"T T T T T T T T T = p.T.fXcXkXbXyXH vXnXnXMXMXMXNXtXD &.&.$.@.+... .{ ' 1   Z T T T T T T T T T ",
"T T T T T T T T m a Y.fXgXkXxXnXvXJ dXNXNXNXNXDXDXiXF 9XqX0X&.%.+.} ` < ,   & R T T T T T T T T ",
"T T T T T T T T % i.hXfXkXlXbXMXNXI tXNXDXDXFXGXGXFXU 9X0XO.] D d S Q t.3XpXK Z T T T T T T T T ",
"T T T T T T T A y L.jXkXlXbXnXNXDXt.>XGXJXHXCXiX7X>Xd d J I w.uXyXBXNXFXHXJX7Xm ! T T T T T T T ",
"T T T T T T T w q.fXjXkXbXnXNXDXGX3XU 4X!.I H P P p.B.Z.sXxXmXmXMXMXDXDXFXHXHXK T T T T T T T T ",
"T T T T T T T 0 C.jXkXxXdXtX2Xy.I a r :.3.N.M.U.E.hXfXcXkXlXbXnXMXNXNXDXKXHXJX3XA R T T T T T T ",
"T T T T T T Z y a.a.0.P s p ;.3.d.J.D.F.G.P.I.Y.T.hXgXgXkXlXbXnXMXMXNXDXFXHXJXCXC ! T T T T T T ",
"T T T T T T N - i -.1.s.n.x.c.A.A.A.F.F.G.P.I.Y.T.fXfXgXkXlXbXnXMXNXDXDXKXHXJXPXR R T T T T T T ",
"T T T T T T n =.f.h.j.j.z.x.c.v.A.S.D.F.G.P.I.Y.T.hXfXgXkXlXbXnXBXNXNXDXFXHXJXIX,XT R T T T T T ",
"T T T T T T d ,.f.h.j.j.z.x.c.v.A.S.S.F.G.P.I.Y.T.hXfXgXkXlXbXnXMXMXNXDXFXHXJXIX7XZ ! T T T T T ",
"T T T T T T % <.f.h.j.j.z.x.c.v.A.S.D.F.G.P.I.Y.T.fXjXgXkXlXbXnXMXNXDXDXFXHXJXIXCXA ! T T T T T ",
"T T T T T T & <.f.f.h.j.z.x.c.v.A.S.S.F.G.P.I.Y.T.T.jXgXkXlXbXnXMXMXNXDXFXHXJXPXZXZ ~ T T T T T ",
"T T T T T T & <.f.h.j.z.z.x.c.v.A.A.F.F.G.P.I.Y.T.fXfXgXkXlXbXvXMXNXDXFXFXHXIXIXPXK ! T T T T T ",
"T T T T T T b ,.f.h.j.j.z.x.c.v.A.S.F.F.G.P.I.Y.T.hXfXgXkXlXbXnXMXNXpX2X/ Q r.>X8XZ ~ T T T T T ",
"T T T T T T n =.f.h.h.j.z.x.c.v.A.S.S.F.G.P.I.Y.L.hXjXgXkXlXbXnXvXr.V / 1X5X5X<XZ O T R T T T T ",
"T T T T T T C u f.h.j.j.z.x.c.v.A.A.D.F.G.P.I.Y.T.fXfXgXkXlXbXdXH T eXLXUXPXLXUXZX,X$ m T T T T ",
"T T T T T G Z 5 g.h.j.j.z.x.c.v.A.S.D.F.G.P.I.Y.T.hXfXsXkXxXmXI G AXZX1XR G T o.eXSX1X= A T T T ",
"T T T T T T T + s.f.h.j.z.x.c.v.A.S.D.F.G.P.I.Y.L.fXfXgXkXxXuXd 6XAXE V >X3X3X/ m 5XVX^ * T T T ",
"T T T T T T T w -.h.j.j.z.x.c.v.A.A.S.F.G.P.I.Y.E.fXfXcXlXxX0.E rX*.B iXGXHXJXIX~ > wX5X= Z T T ",
"T T T T T T T A 5 k.j.j.z.x.c.v.A.S.F.F.G.P.I.Y.E.E.fXkXkXlXH *.eXC 2XFXGXHXJXIX! o <XwX3 N R T ",
"T T T T T T T T + s.j.j.z.x.c.c.A.S.S.F.G.P.I.Y.T.fXfXcXkXlXV *.6Xn tXGXFXHXJXZXZ 3 o.eXm m T T ",
"T T T T T T T T N u j.j.z.x.c.b.A.S.S.F.G.P.I.Y.T.E.fXgXxXsXd ~ 6X> 2XiXiXiXCX<XC & W wX3 3 G G ",
"T T T T T T T T T # s.j.z.x.c.v.A.S.S.F.G.P.I.Y.T.hXfXkXa.x h !.~.v g c c c v g g h Y ~.v h w G ",
"T T T T T T T T T C 5 l.z.x.c.v.A.S.S.F.G.P.I.Y.T.E.fXkX9.W.%X$X-X=X=X=X=X=X=X=X=X=X=X=X$X(.h C ",
"T T T T T T T T T T w ;.z.x.c.v.A.S.S.F.G.P.I.Y.T.fXfXcXL 6.XX;X:X:X:X:X:X:X;X;X:X:X:X;X*X'.h N ",
"T T T T T T T T T T T 0 1.x.c.v.A.S.S.F.G.P.I.Y.T.fXfXkXL 6.XX*X&X&X&X&X&X&X&X&X&X&X&X&X@X'.7 N ",
"T T T T T T T T T T T Z q 2.c.v.A.S.S.F.G.P.I.Y.T.fXfXkXL 6. X@X@X#X#X#X@X@X@XOX#X#X#X@XXX'.f C ",
"T T T T T T T T T T T T Z q 2.v.A.S.D.F.G.P.I.Y.T.fXfXgXL 5.{.+XOXOXOXOX^.9 c %XOXOXOXOX X`.7 N ",
"T T T T T T T T T T T T T T q :.b.S.S.F.G.P.I.Y.T.E.jXgXL 5.[. XoXoXoX+XQ.- 8  XoXoX+X X X).7 N ",
"T T T T T T T T T T T T T T T b p d.S.F.G.P.I.Y.E.hXfXcXL 5.].}.|.oX|.oX}.f Q.oXoXoX|.|.{.).8 C ",
"T T T T T T T T T T T T T T T R A e >.m.H.P.I.Y.E.hXfXcXL 5.].}.|.|.|.oX|.z ^.oXoX|.|.|.[.).7 C ",
"T T T T T T T T T T T T T T T T R R Z t a q.u.M.C.L.Z.a.y 5.].}.|.|.|.|.oX(. X|.|.|.|.}.[._.7 C ",
"T T T T T T T T T T T T T T T T T T R ! R Z B B V B B K # 5.].}.|.|.|.|.|.|.|.oX|.|.|.|.[._.7 C ",
"T T T T T T T T T T T T T T T T T T T T T R / ~ ~ ~ ~ o.e 5.].{.|.|.|.|. X|.|.|.|.|.}.}.[._.8 C ",
"T T T T T T T T T T T T T T T T T T T T T T T T T T T T # 8.).[.[.[.[.[.[.[.[.[.[.[.[.[.`./.7 C ",
"T T T T T T T T T T T T T T T T T T T T T T T T T T T T m 9 k j j j k j j j j j j j j j j 7 # G ",
"T T T T T T T T T T T T T T T T T T T T T T T T T T T T T C n m M m n m M m m m m m n m m n K T "
};
