/* XPM */
static char *buttonNoClick[] = {
/* columns rows colors chars-per-pixel */
"48 48 107 2",
"   c #595858",
".  c #5B5B5B",
"X  c #5C5B5B",
"o  c #5E5E5E",
"O  c #605F5F",
"+  c #606060",
"@  c #636262",
"#  c #646363",
"$  c #656565",
"%  c #666666",
"&  c #676767",
"*  c #686767",
"=  c #696868",
"-  c #6D6C6C",
";  c #6E6E6E",
":  c #706F6F",
">  c #727171",
",  c #747373",
"<  c #767575",
"1  c #787777",
"2  c #7B7A7A",
"3  c #7C7B7B",
"4  c #7D7D7D",
"5  c #7F7F7F",
"6  c #FF0000",
"7  c #FF0505",
"8  c #FF1414",
"9  c #FF1818",
"0  c #FF1D1D",
"q  c #FF2020",
"w  c #FF2424",
"e  c #FF2929",
"r  c #FF2D2D",
"t  c #FF3232",
"y  c #FF3535",
"u  c #FF3D3D",
"i  c #FF6666",
"p  c #FF7878",
"a  c #818080",
"s  c #838282",
"d  c #838383",
"f  c #878686",
"g  c #888787",
"h  c #8B8A8A",
"j  c #8B8B8B",
"k  c #8C8B8B",
"l  c #8E8D8D",
"z  c #908F8F",
"x  c #929292",
"c  c #939292",
"v  c #949494",
"b  c #989898",
"n  c #9E9D9D",
"m  c #A09F9F",
"M  c #A2A1A1",
"N  c #A4A3A3",
"B  c #A6A5A5",
"V  c #AAAAAA",
"C  c #ABABAB",
"Z  c #ACABAB",
"A  c #ACACAC",
"S  c #B3B2B2",
"D  c #B4B4B4",
"F  c #B7B6B6",
"G  c #BBBABA",
"H  c #BDBCBC",
"J  c #BDBDBD",
"K  c #C0BFBF",
"L  c #FFB2B2",
"P  c #FFB6B6",
"I  c #C1C0C0",
"U  c #C4C3C3",
"Y  c #C5C5C5",
"T  c #C8C7C7",
"R  c #CACACA",
"E  c #CCCBCB",
"W  c #CCCCCC",
"Q  c #CFCFCF",
"!  c #D0D0D0",
"~  c #D1D1D1",
"^  c #D3D2D2",
"/  c #D4D4D4",
"(  c #D5D4D4",
")  c #D7D7D7",
"_  c #D8D8D8",
"`  c #DBDADA",
"'  c #DBDBDB",
"]  c #DCDCDC",
"[  c #FFC2C2",
"{  c #FFDCDC",
"}  c #E0E0E0",
"|  c #E4E3E3",
" . c #E5E5E5",
".. c #E6E5E5",
"X. c #E8E7E7",
"o. c #E8E8E8",
"O. c #EBEBEB",
"+. c #EEEEEE",
"@. c #EFEFEF",
"#. c #F0F0F0",
"$. c #F3F3F3",
"%. c #F6F6F6",
"&. c #F7F7F7",
"*. c #F8F8F8",
"=. c #FBFBFB",
"-. c #FCFCFC",
";. c #FFFFFF",
/* pixels */
"% % % % % % % % % % % % % % % % % % % % % % % % % % % % % % % % % % % % % % % % % % % % % % % % ",
"% % % % % % % % % % % % % % % % % % % % % % % % % % % % % % % % % % % % % % % % % % % % % % % % ",
"% % % % % % % % % % % % % % % % % % % @ o X X X X X X O @ % % % % % % % % % % % % % % % % % % % ",
"% % % % % % % % % % % % % % % % o                             o % % % % % % % % % % % % % % % % ",
"% % % % % % % % % % % % % % % o     * k S W } o.o.} W S h =     o % % % % % % % % % % % % % % % ",
"% % % % % % % % % % % % % o       s H ] +.;.;.;.;.;.;.+.] H s o     o % % % % % % % % % % % % % ",
"% % % % % % % % % % % % o   X 4 W %.;.;.;.;.;.;.;.;.;.;.;.;.%.R 4 X   o % % % % % % % % % % % % ",
"% % % % % % % % % % % X   @ A %.;.;.;.;.;.;.%.o.o.%.;.;.;.;.;.;.=.A @   X % % % % % % % % % % % ",
"% % % % % % % % % % X   < W ;.;.;.;...| =.;.m X o n ;.=.] ..;.;.;.;.W 2     % % % % % % % % % % ",
"% % % % % % % % %     3 ] ;.;.;.+.I = A =.%.3     4 %.=.A = I +.;.;.;.] 4   X % % % % % % % % % ",
"% % % % % % % % o   , ` ;.;.;.] l   o ( ;.^ #     # ^ ;.( o   z ` ;.;.;.] <   o % % % % % % % % ",
"% % % % % % % o   % R ;.;.;.R ;     k +.;.D o     o D ;.+.g     ; R ;.;.;.R %   o % % % % % % % ",
"% % % % % % %     B ;.;.;.R =   o   B =.;.k         l ;.;.N   X   = W ;.;.;.B o   % % % % % % % ",
"% % % % % % o   2 $.;.;.' >       X H ;.$.;   o o   ; $.;.H X   o   > ] ;.;.%.2   o % % % % % % ",
"% % % % % o   o Y ;.;.$.f   o %   = ` ;.` %   # %   # ` ;.` *   % X   g $.;.;.Y o   o % % % % % ",
"% % % % %     s ;.;.;.S     % %   1 ..;.D O   % %   o S ;.X.2   # %     V =.;.=.s     % % % % % ",
"% % % % %   o H ;.;.^ =   @ % @   s +.;.h     % %     f ;.+.f   @ % @   @ Q ;.;.H o   % % % % % ",
"% % % % @   ; ..;.;.V   X % % O   B =.;.s   o % % o   > %.;.V   o % % o   V =.;...>   @ % % % % ",
"% % % % @   l ;.;.+.k   X X o X   R ;.;.4         o   ; | ;.W       o     4 o.;.=.c   @ % % % % ",
"% % % % o   S ;.;.E               W ;.+.%               Y ;.(               G ;.;.D   o % % % % ",
"% % % % o   ^ ;.;.$.( ` ` ) ' ( ] %.;.=.] ` ` ' ( ` ` ] $.;.%.] ` ' ( ` ` ` o.;.;.^   o % % % % ",
"% % % %     } ;.;.;.;.;.;.;.;.;.;.;.;.;.;.;.;.;.;.;.;.;.;.;.;.;.;.;.;.;.;.;.;.;.;...    % % % % ",
"% % % %     $.;.;.;.;.;.;.;.;.;.;.;.;.;.;.;.;.;.;.;.;.;.;.;.;.;.;.;.;.;.;.;.;.;.;.%.    % % % % ",
"% % % %     =.;.+.s = % * * * % * * * * % * * * * * * * * * * * * = % % % % f $.;.;.    % % % % ",
"% % % %     ;.;.o.<             b ] o...o.S ;     c ( o.o.o.H 3             < o.;.;.    % % % % ",
"% % % %     ;.;.o.<   % % % % # } y q w q p S % 2 { u q w q i I % % % % @   2 o.;.;.    % % % % ",
"% % % %     %.;.+.4   @ % % % % ;.6 6 6 6 e ;.% v L 6 6 6 6 8 $.% % % % @   4 +.;.=.    % % % % ",
"% % % %     +.;.$.l   @ % % % % ;.6 6 6 6 y ;.% c P 6 6 6 6 0 @.% % % % @   f $.;.$.    % % % % ",
"% % % % X   ` ;.=.V   o % % % % ;.6 6 6 6 t ;.% c P 6 6 6 6 0 +.% % % % @   h $.;.]   o % % % % ",
"% % % % o   U ;.;.W O   % % % % ;.6 6 6 6 t ;.% c P 6 6 6 6 0 +.% % % %     M =.;.Y   o % % % % ",
"% % % % O   B ;.;.$.h   @ % % % ;.6 6 6 6 t ;.& c P 6 6 6 6 0 +.% % % @   # ^ ;.;.V   o % % % % ",
"% % % % @   s =.;.=.S   o % % % ;.6 6 6 6 t ;.% c P 6 6 6 6 0 +.% % % @   c $.;.=.f   @ % % % % ",
"% % % % %   % ` ;.;.^ o   % % % ;.6 6 6 6 t ;.% c P 6 6 6 6 0 +.% % %     K ;.;.' =   % % % % % ",
"% % % % %   X V ;.;...s     % % ;.6 6 6 6 t ;.* c P 6 6 6 6 0 +.% % o   s ..;.;.A     % % % % % ",
"% % % % % o   < $.;.;.R @   % % ;.6 6 6 6 t ;.% c P 6 6 6 6 0 +.% %   + R ;.;.$.1   o % % % % % ",
"% % % % % %     A ;.;.%.n     % ;.6 6 6 6 t ;.% c P 6 6 6 6 0 @.%     m %.;.;.S o   % % % % % % ",
"% % % % % % o   ; } ;.;.+.g     ;.6 6 6 6 r ;.= v L 6 6 6 6 9 @.    f +.;.;...;   o % % % % % % ",
"% % % % % % %     c ;.;.;...s   =.7 7 7 7 u ` % h [ 7 7 7 7 e ..  s ..;.;.;.c     % % % % % % % ",
"% % % % % % % o   o D ;.;.;...c D ;.;.=.=.' b % % H =.=.=.=...n c ..;.;.;.G o   o % % % % % % % ",
"% % % % % % % % o   = T ;.;.;.$.S %     o @ % = % % + o     @ S $.;.;.;.W =   o % % % % % % % % ",
"% % % % % % % % % o   ; E ;.;.;.=.' h                   @ h ` =.;.;.;.E ;   X % % % % % % % % % ",
"% % % % % % % % % % X   % D ;.;.;.;.$.] B %     o 2 M I o.$.;.;.;.;.G *   X % % % % % % % % % % ",
"% % % % % % % % % % % o   O n +.;.;.;.;.=.$.+.+.+.%.=.=.;.;.;.;.+.m O   o % % % % % % % % % % % ",
"% % % % % % % % % % % % o     : D o.;.;.;.;.;.;.;.;.;.;.;.;.+.G >     X % % % % % % % % % % % % ",
"% % % % % % % % % % % % % o       > C / o.&.;.;.;.;.%.o.( Z >       o % % % % % % % % % % % % % ",
"% % % % % % % % % % % % % % % o     @ 3 B H ^ ` ] ( H B 3 @     o % % % % % % % % % % % % % % % ",
"% % % % % % % % % % % % % % % % % o                           o % % % % % % % % % % % % % % % % ",
"% % % % % % % % % % % % % % % % % % % @ @ o o o . . o @ @ % % % % % % % % % % % % % % % % % % % "
};
