/* XPM */
static char * buttonLeftDisabled[] = {
"48 48 161 2",
"  	c None",
". 	c #666666",
"+ 	c #656565",
"@ 	c #606060",
"# 	c #555454",
"$ 	c #474747",
"% 	c #3E3D3D",
"& 	c #373636",
"* 	c #343434",
"= 	c #474646",
"- 	c #545454",
"; 	c #444343",
"> 	c #2D2C2C",
", 	c #2D2D2D",
"' 	c #353434",
") 	c #464646",
"! 	c #5A5959",
"~ 	c #676767",
"{ 	c #717171",
"] 	c #757575",
"^ 	c #5A5A5A",
"/ 	c #2E2D2D",
"( 	c #414141",
"_ 	c #5F5E5E",
": 	c #6F6F6F",
"< 	c #787878",
"[ 	c #7E7E7E",
"} 	c #808080",
"| 	c #5F5F5F",
"1 	c #414040",
"2 	c #2E2E2E",
"3 	c #3F3F3F",
"4 	c #7B7B7B",
"5 	c #7F7F7F",
"6 	c #404040",
"7 	c #3B3A3A",
"8 	c #323131",
"9 	c #565656",
"0 	c #7C7C7C",
"a 	c #585757",
"b 	c #3A3939",
"c 	c #393838",
"d 	c #3B3B3B",
"e 	c #737373",
"f 	c #505050",
"g 	c #7D7D7D",
"h 	c #707070",
"i 	c #686868",
"j 	c #3C3B3B",
"k 	c #383838",
"l 	c #78706F",
"m 	c #68443F",
"n 	c #70190E",
"o 	c #575757",
"p 	c #3F3E3E",
"q 	c #575656",
"r 	c #616060",
"s 	c #3E3E3E",
"t 	c #3A3A3A",
"u 	c #6E6D6D",
"v 	c #705C5A",
"w 	c #67261E",
"x 	c #76160A",
"y 	c #74160B",
"z 	c #6B6B6B",
"A 	c #6B6A6A",
"B 	c #2F2F2F",
"C 	c #484747",
"D 	c #6E6E6E",
"E 	c #403F3F",
"F 	c #333232",
"G 	c #6B4D49",
"H 	c #6E1A0F",
"I 	c #68231B",
"J 	c #454444",
"K 	c #373737",
"L 	c #343333",
"M 	c #535353",
"N 	c #6B4F4B",
"O 	c #6F190E",
"P 	c #66312B",
"Q 	c #525252",
"R 	c #3D3C3C",
"S 	c #353535",
"T 	c #434343",
"U 	c #7A7A7A",
"V 	c #6F5B59",
"W 	c #6D1B11",
"X 	c #75160A",
"Y 	c #383737",
"Z 	c #393939",
"` 	c #434242",
" .	c #2F2E2E",
"..	c #636363",
"+.	c #797171",
"@.	c #68221A",
"#.	c #6D6C6C",
"$.	c #626262",
"%.	c #6D6D6D",
"&.	c #616161",
"*.	c #444444",
"=.	c #673C37",
"-.	c #6B1D13",
";.	c #747474",
">.	c #5B5B5B",
",.	c #303030",
"'.	c #646363",
").	c #646464",
"!.	c #302F2F",
"~.	c #605F5F",
"{.	c #6D5350",
"].	c #6F190F",
"^.	c #692118",
"/.	c #767676",
"(.	c #454545",
"_.	c #777777",
":.	c #323232",
"<.	c #66352E",
"[.	c #66322C",
"}.	c #5E5E5E",
"|.	c #484848",
"1.	c #67241C",
"2.	c #6B4B47",
"3.	c #727272",
"4.	c #494949",
"5.	c #535252",
"6.	c #595959",
"7.	c #6B4E4A",
"8.	c #6C524F",
"9.	c #5C5C5C",
"0.	c #3D3D3D",
"a.	c #797170",
"b.	c #6E5855",
"c.	c #6F5956",
"d.	c #7B7675",
"e.	c #797979",
"f.	c #696969",
"g.	c #363636",
"h.	c #313030",
"i.	c #424141",
"j.	c #3C3C3C",
"k.	c #595858",
"l.	c #555555",
"m.	c #424242",
"n.	c #464545",
"o.	c #525151",
"p.	c #4B4B4B",
"q.	c #313131",
"r.	c #4B4A4A",
"s.	c #4F4F4F",
"t.	c #363535",
"u.	c #4A4A4A",
"v.	c #5D5D5D",
"w.	c #585858",
"x.	c #4D4C4C",
"y.	c #515151",
"z.	c #5E5D5D",
"A.	c #5C5B5B",
"B.	c #5D5C5C",
"C.	c #6A6A6A",
"D.	c #4C4B4B",
". . . . . . . . . . . . . . . . . . . . . . . . . . . . . . . . . . . . . . . . . . . . . . . . ",
". . . . . . . . . . . . . . . . . . . . . . . . . . . . . . . . . . . . . . . . . . . . . . . . ",
". . . . . . . . . . . . . . . . . + @ # $ % & * * & % = - @ + . . . . . . . . . . . . . . . . . ",
". . . . . . . . . . . . . . . . ; > > > > > > > > > > > > > > ; . . . . . . . . . . . . . . . . ",
". . . . . . . . . . . . . . + ; > , ' ) ! ~ { ] ] { ~ ^ ) ' , > ; + . . . . . . . . . . . . . . ",
". . . . . . . . . . . . . ; > > / ( _ : < [ } } } } [ < : | ( / > > ; . . . . . . . . . . . . . ",
". . . . . . . . . . . . 1 > 2 3 . 4 5 } } } } } } } } } } 5 4 ~ 6 2 > 1 . . . . . . . . . . . . ",
". . . . . . . . . . . 7 > 8 9 4 } } } 5 } 5 4 ] ] 4 5 5 5 } } } 0 a 8 > b . . . . . . . . . . . ",
". . . . . . . . . . c > d ~ } } } 5 e { [ } f 2 2 f } g h e 5 } } } i j > k . . . . . . . . . . ",
". . . . . . . . . 7 > % : } } } l m n o [ 4 p > > p 4 [ q * r < } } } : s > 7 . . . . . . . . . ",
". . . . . . . . 6 > t u } } 5 v w x y z } A 8 > > 8 A } z B > C D 5 } } D 7 > E . . . . . . . . ",
". . . . . . . ; > F + } } 5 G H x x I < } ^ B > > B ^ } < J > > K + 5 } } . L > ; . . . . . . . ",
". . . . . . + > / M } } } N O x x x P g 5 = , > > , $ } g Q > R > S ~ } } } - / > + . . . . . . ",
". . . . . . T > % U } } V W x x x X m } U Y > ; ; > K U } @ 2 > p > Z D } } U s > ` . . . . . . ",
". . . . . ; >  ...} } +.@.x x x x n #.} u F > $.$.> F %.} #.* > &.j > ; U } } ..B > *.. . . . . ",
". . . . + > , ( [ } 5 =.x x x x x -.;.} >.,.> '.).> !.^ } ;.% > ^ ).' > o g } [ ` , > . . . . . ",
". . . . ).>  .~.} 5 {.].x x x x x ^./.} (., > . . > , ; } _.; > 9 . 9 > :.i 5 } r B > ).. . . . ",
". . . . _ > K e } [ <.x x x x x x [.g } 1 > *.. . *.> Z 0 g 9 > ; . . 1 > - g } ;.k > }.. . . . ",
". . . . M > |.[ } l 1.x x x x x x 2.} } 3 > b b b b > & 3.} i , > b b b > 3 /.} [ 4.> 5.. . . . ",
". . . . $ > 6.} } 7.x x x x x x x 8.} < :.> > > > > > > ..} z > > > > > > > 9.[ } ^ > ) . . . . ",
". . . . 0.> i } } a.b.c.c.c.c.c.V d.} g : %.%.%.%.%.%.D e.} 0 : %.%.%.%.%.#./.5 } f.> R . . . . ",
". . . . g.> 3.} } } } } } } } } } } } } } } } } } } } } } } } } } } } } } } } } } e > ' . . . . ",
". . . . h.> U } } } } } } } } } } } } } } } } } } } } } } } } } } } } } } } } } } 4 > !.. . . . ",
". . . . / > [ } _.i.* * * * * * * * * * * * * * * * * * * * * * * * * * * * *.< } 5 > > . . . . ",
". . . . > > } } ] t > > > > > > > > > > > > > > > > > > > > > > > > > > > > d /.} } > > . . . . ",
". . . . > > 5 } /.d > 9.&.&.&.&.&.&.&.&.&.&.&.&.&.&.&.&.&.&.&.&.&.&.&.&.>.> j./.} } > > . . . . ",
". . . .  .> 0 } _.3 > 6.. . . . . . . . . . . . . . . . . . . . . . . . k.> 6 _.} [ > / . . . . ",
". . . . F > _.} e.C > M . . . . . . . . . . . . . . . . . . . . . . . . 9 > *.e.} < > 8 . . . . ",
". . . . c > D } g l.> m.. . . . . . . . . . . . . . . . . . . . . . . . # > n.e.} h > Y . . . . ",
". . . . 1 > $.} } i ,.> $.. . . . . . . . . . . . . . . . . . . . . . . ( > o.0 } ..> 6 . . . . ",
". . . . p.> M } } e.) > # . . . . . . . . . . . . . . . . . . . . . . | > q.f.} } l.> r.. . . . ",
". . . . o > ` g } [ 6.> ` . . . . . . . . . . . . . . . . . . . . . . s.> r.4 } g *.> 9 . . . . ",
". . . . &.> L u } } i B > ).. . . . . . . . . . . . . . . . . . . . . Y > &.5 } D ' > @ . . . . ",
". . . . + > 2 l.} } ] ( > i.. . . . . . . . . . . . . . . . . . . . i.> E ;.} } q 2 > + . . . . ",
". . . . . ; > t e.} } ).,.> >.. . . . . . . . . . . . . . . . . . >.> ,.).} } U d > ; . . . . . ",
". . . . . + > / o } } 0 f > * ... . . . . . . . . . . . . . . . ..* > f 0 } } k.2 > + . . . . . ",
". . . . . . ; > K 3.} } < *.> t.@ . . . . . . . . . . . . . . @ t.> *.< } } e k > ; . . . . . . ",
". . . . . . + > , |.} } } e i.> h.# . . . . . . . . . . . . # h.> i.e } } } u., > + . . . . . . ",
". . . . . . . ; > B 9.} } } e 4.> > E ... . . . . . . . $.( > > 4.e } } } v.B > ; . . . . . . . ",
". . . . . . . . ` > ' + } } } e.! L > * n.w.. . ).^ x.( > > q.! e.} } } . S > ` . . . . . . . . ",
". . . . . . . . . p > K . } } } g h *.> > > 8 8 > > > > q.) : g } } } . Y > p . . . . . . . . . ",
". . . . . . . . . . 0.> L 9.} } } } e.: - F > >  .0.y.&./.e.} } } } z.' > R . . . . . . . . . . ",
". . . . . . . . . . . E > !.s./.} } } } g U < < < 4 g 5 } } } } _.f !.> p . . . . . . . . . . . ",
". . . . . . . . . . . . m.> / c A./.5 } } } } } } } } } } 5 /.B.Z / > m.. . . . . . . . . . . . ",
". . . . . . . . . . . . . ; > > , b 9 C.] 4 5 } } 5 4 ] z 9 b , > > ; . . . . . . . . . . . . . ",
". . . . . . . . . . . . . . + ; > > h.p M r C.: : C.r M 3 q., > ; + . . . . . . . . . . . . . . ",
". . . . . . . . . . . . . . . . + i.> > > > > > > > > > > > > *.. . . . . . . . . . . . . . . . ",
". . . . . . . . . . . . . . . . . . ..6.D.m.j k k j m.D.6.... . . . . . . . . . . . . . . . . . "};
