/* XPM */
static const char *buttonLeftSelectedLocked[] = {
/* columns rows colors chars-per-pixel */
"48 48 256 2",
"   c #100B04",
".  c #0A0A36",
"X  c #151634",
"o  c #14142C",
"O  c #341417",
"+  c #27282A",
"@  c #2A2A33",
"#  c #3F2B2B",
"$  c #352B2B",
"%  c #39342C",
"&  c #333234",
"*  c #3D3333",
"=  c #3D3B3B",
"-  c #3B3A38",
";  c #33203F",
":  c #0B0C56",
">  c #090968",
",  c #0C0C79",
"<  c #101077",
"1  c #3E3E43",
"2  c #332550",
"3  c #272A7C",
"4  c #312E6A",
"5  c #3E4146",
"6  c #581414",
"7  c #483B0D",
"8  c #563C0B",
"9  c #573D09",
"0  c #453212",
"q  c #432E2E",
"w  c #452626",
"e  c #4D2336",
"r  c #413E3E",
"t  c #463633",
"y  c #562B2B",
"u  c #513C3D",
"i  c #583333",
"p  c #5A362F",
"a  c #6F1010",
"s  c #69090F",
"d  c #661D28",
"f  c #6B3A3A",
"g  c #683535",
"h  c #703030",
"j  c #513043",
"k  c #554509",
"l  c #585411",
"z  c #554B10",
"x  c #6A4B0F",
"c  c #67460D",
"v  c #7D5F10",
"b  c #69580A",
"n  c #624628",
"m  c #6A601D",
"M  c #696526",
"N  c #444243",
"B  c #4A4B4C",
"V  c #45474C",
"C  c #5A4A4B",
"Z  c #564748",
"A  c #525355",
"S  c #5C5C5C",
"D  c #575757",
"F  c #524655",
"G  c #56506A",
"H  c #5F6166",
"J  c #6B4848",
"K  c #67595A",
"L  c #7A4A42",
"P  c #7D4444",
"I  c #7D5858",
"U  c #724E51",
"Y  c #7B7D45",
"T  c #656666",
"R  c #6B6B6B",
"E  c #63686F",
"W  c #666A73",
"Q  c #776969",
"!  c #737373",
"~  c #7B7B7B",
"^  c #757275",
"/  c #776F70",
"(  c #1A1A8C",
")  c #131385",
"_  c #1F1F92",
"`  c #202080",
"'  c #222293",
"]  c #2B2B9B",
"[  c #30309E",
"{  c #3434A2",
"}  c #3B3BA8",
"|  c #4F4E8E",
" . c #4242AE",
".. c #4B4CB5",
"X. c #5657BB",
"o. c #6B718A",
"O. c #676AB1",
"+. c #5C5CC3",
"@. c #6364C7",
"#. c #6F6FD3",
"$. c #7373D3",
"%. c #7C838B",
"&. c #8D0708",
"*. c #930E0E",
"=. c #852729",
"-. c #8F3535",
";. c #A70303",
":. c #B40202",
">. c #B2100F",
",. c #B01A1A",
"<. c #BB2323",
"1. c #A83332",
"2. c #9D7D00",
"3. c #AF7200",
"4. c #AF7A00",
"5. c #B07100",
"6. c #A56700",
"7. c #844947",
"8. c #9E5858",
"9. c #8F5151",
"0. c #876C6C",
"q. c #9B6767",
"w. c #957979",
"e. c #B64E4E",
"r. c #AA5050",
"t. c #BC7979",
"y. c #C90F0F",
"u. c #CE3737",
"i. c #FE0A09",
"p. c #F00808",
"a. c #FD1111",
"s. c #FD1B1B",
"d. c #F51010",
"f. c #ED1C1C",
"g. c #FC2626",
"h. c #FC2C2C",
"j. c #FC3434",
"k. c #FB3A3A",
"l. c #F43F3F",
"z. c #EA2221",
"x. c #C94A4A",
"c. c #DF5F5F",
"v. c #CC5959",
"b. c #C46666",
"n. c #C97474",
"m. c #DE6C6B",
"M. c #D56161",
"N. c #DA7878",
"B. c #FB4242",
"V. c #FA4C4C",
"C. c #F54E4D",
"Z. c #F95656",
"A. c #F95D5D",
"S. c #F35A5A",
"D. c #E64140",
"F. c #E57373",
"G. c #E27979",
"H. c #F96464",
"J. c #F86B6B",
"K. c #F16E6E",
"L. c #F77272",
"P. c #F77979",
"I. c #FA7474",
"U. c #F97C7C",
"Y. c #F06C6B",
"T. c #AF8200",
"R. c #B18604",
"E. c #82834E",
"W. c #B3B57D",
"Q. c #C69907",
"!. c #DD8D02",
"~. c #DDB100",
"^. c #E89B00",
"/. c #E79800",
"(. c #EAA302",
"). c #E8AB01",
"_. c #F4A700",
"`. c #F3AD04",
"'. c #F5B302",
"]. c #F9B500",
"[. c #FDBD00",
"{. c #F4BA05",
"}. c #E9B90D",
"|. c #F6C20E",
" X c #FEC203",
".X c #FECA0A",
"XX c #FAC40A",
"oX c #F8CB16",
"OX c #FDD214",
"+X c #F4DC13",
"@X c #EFCE08",
"#X c #FEDD24",
"$X c #FAD828",
"%X c #F6E211",
"&X c #F9E315",
"*X c #FDE53A",
"=X c #FEE93A",
"-X c #938787",
";X c #988181",
":X c #979699",
">X c #8F8E93",
",X c #9A9EA5",
"<X c #A88687",
"1X c #A99999",
"2X c #BA8686",
"3X c #B49797",
"4X c #A4A7AB",
"5X c #ADB4BE",
"6X c #B5A7A7",
"7X c #AEAEB2",
"8X c #8383E3",
"9X c #9595F3",
"0X c #AEB7C1",
"qX c #B5BCC3",
"wX c #A1A2FD",
"eX c #BDC3C9",
"rX c #C39797",
"tX c #D99998",
"yX c #CF8484",
"uX c #D7AAAA",
"iX c #D7B6B7",
"pX c #CCB3B3",
"aX c #ED8F8F",
"sX c #EB8787",
"dX c #E49798",
"fX c #F68484",
"gX c #F68E8E",
"hX c #F98383",
"jX c #F88A8A",
"kX c #F59595",
"lX c #F59C9C",
"zX c #FA9393",
"xX c #F89E9E",
"cX c #F88F90",
"vX c #EBA4A4",
"bX c #E9B1B1",
"nX c #F4A3A3",
"mX c #F4ABAB",
"MX c #F8A8A8",
"NX c #F4B2B2",
"BX c #F3BBBB",
"VX c #C8CDD3",
"CX c #D8CACB",
"ZX c #DAD9DB",
"AX c #C8CDD3",
"SX c #D9DCE0",
"DX c #F3C4C4",
"FX c #F3CCCC",
"GX c #F9CECE",
"HX c #F3D4D4",
"JX c #F2DBDB",
"KX c #E8CACA",
"LX c #E9EBEE",
"PX c #EAE3E4",
"IX c #F3E4E4",
"UX c #EBEEF1",
/* pixels */
"T T T T T T T T T T T T T T T T T T T T T T T T T T T T T T T T T T T T T T T T T T T T T T T T ",
"T T T T T T T T T T T T T T T T T T T T T T T T T T T T T T T T T T T T T T T T T T T T T T T T ",
"T T T T T T T T T T T T T T T T T T T T T T T T T T T T T T T T T T T T T T T T T T T T T T T T ",
"T T T T T T T T T T T T T T T T T T D B * * # q $ & r B H T T T T T T T T T T T T T T T T T T T ",
"T T T T T T T T T T T T T T T T B * y -.r.v.M.m.7.f r.f q - D T T T T T T T T T T T T T T T T T ",
"T T T T T T T T T T T T T T D + w e.Y.J.I.P.P.hXb.P hXhXm.r.y - S T T T T T T T T T T T T T T T ",
"T T T T T T T T T T T T T N X : e K.P.P.U.fXfXjXG.f sXjXfXU.F.9.w B T T T T T T T T T T T T T T ",
"T T T T T T T T T T T T = . , _ ; m.hXhXfXjXjXgXgXJ yXzXcXfXU.P.b.i 5 T T T T T T T T T T T T T ",
"T T T T T T T T T T T = . , _ { 2 b.jXjXcXkXlXlXxXI t.xXlXcXjXjXhXF.g 1 H T T T T T T T T T T T ",
"T T T T T T T T T T B . , _ ] } 3 8.kXlXlXlXxXnXMXq.q.MXxXlXlXaXgXfXF.f j T T T T T T T T T T T ",
"T T T T T T T T T D o > ( ] } .. .U lXlXnXmXmXmXNX2XI NXmXmXlXlXzXcXcXG.i B T T T T T T T T T T ",
"T T T T T T T T T @ : ) ' { ..+.O.j vXmXmXNXbXBXBXuXK bXNXmXmXxXxXxXzXzXn.# D T T T T T T T T T ",
"T T T T T T T T A . < ' {  .+.@.#.j uXBXBXBXBXDXDXDXK uXBXBXNXmXvXtXt.q.7.% - R T T T T T T T T ",
"T T T T T T T T @ > ' [  .X.@.$.8XG rXDXDXDXDXFXHXHX/ 1XiX3Xw.9.J J I E.3XpXK S T T T T T T T T ",
"T T T T T T T D X ( ] } ..@.#.8X9XO.;XGXFXFXKXiX6XE.Z u J I q.2XtXbXBXFXGXJX6XB R T T T T T T T ",
"T T T T T T T r : ] } ..@.#.8X9XwXO.K 3X-XI J J 9.8.b.N.aXlXMXmXNXBXDXDXFXHXHXT T T T T T T T T ",
"T T T T T T H @ 3 } ..+.@.O.O.| G e y -.1.v.c.K.P.hXjXgXkXlXnXmXNXBXBXDXFXHXJX1XA R T T T T T T ",
"T T T T T T D o 3 3 4 2 e d *.1.u.l.C.Z.A.H.J.L.P.fXfXgXkXlXnXmXbXNXBXDXFXHXHXCXA ! T T T T T T ",
"T T T T T T A O s &.>.y.z.h.j.k.k.V.V.Z.A.H.J.L.P.fXfXgXkXlXnXmXNXBXDXDXFXJXJXPX/ R R T T T T T ",
"T T T T T T N &.i.d.s.s.g.h.j.k.B.V.V.Z.A.H.J.L.P.U.fXkXkXlXnXmXNXNXDXDXFXHXJXPX:XS R T T T T T ",
"T T T T T T j ;.i.a.s.s.g.h.j.k.B.V.V.A.A.H.J.L.P.fXjXaXkXlXnXmXNXNXDXDXFXHXJXIX7XD ! T T T T T ",
"T T T T T T - :.i.a.s.s.g.h.j.k.k.V.V.Z.A.H.J.L.P.fXfXgXkXlXnXmXbXBXBXDXFXHXJXIXCXD ! T T T T T ",
"T T T T T T = :.i.a.s.s.g.h.j.k.B.V.V.Z.A.H.J.L.P.U.fXgXgXlXnXmXNXNXDXDXFXHXJXIXZXS ~ T T T T T ",
"T T T T T T = :.i.a.s.s.g.h.j.k.B.V.V.Z.A.H.J.L.P.U.jXgXkXlXnXmXNXBXBXFXFXHXJXIXPXK ~ T T T T T ",
"T T T T T T N ;.i.a.s.s.h.h.j.k.k.V.V.Z.A.H.J.L.P.U.jXgXkXlXvXmXNXBXuX<X/ Q / -X6XS ~ T T T T T ",
"T T T T T R N &.i.a.a.s.g.h.j.k.B.V.Z.Z.A.H.J.L.P.sXfXgXkXlXnXmXvX0.Z ! ,X4X6X>XS @ T T T T T T ",
"T T T T T T A a i.a.s.s.g.h.j.k.B.V.C.Z.A.H.J.L.P.fXfXgXkXlXnXdXU H eXLXLXLXLXUXSX:X- B E T T T ",
"T T T T T H S 6 p.a.s.s.g.h.j.k.B.B.C.Z.A.H.J.L.P.U.jXgXkXnXnXI E VXVX,XR T H o.qXSX,X& D T T T ",
"T T T T T T T # y.i.a.s.g.h.j.k.B.V.V.Z.A.H.J.L.P.fXfXgXkXxXyXN 5XeXW Z ;X3X1X/ B 4XVX! & T T T ",
"T T T T T T T N *.a.s.s.g.h.j.k.B.V.C.Z.A.H.J.L.P.fXjXgXkXxX9.E eX-XZ iXHXHXJXIX~ 1 0X4X& S T T ",
"T T T T T T T D 6 p.s.s.g.h.j.k.B.V.V.Z.A.H.J.L.P.P.fXkXkXlXJ %.qXA <XFXFXHXJXPX! + >X0XV B T T ",
"T T T T T T T H # y.s.s.g.h.j.k.B.V.V.Z.A.H.J.K.P.fXfXgXkXvXZ %.5XB rXFXFXHXJXZXS 5 o.qXB B T T ",
"T T T T T T T R B a f.s.h.h.j.k.B.V.V.Z.A.H.J.L.U.fXjXgXlXdXu o.5X1 <XiXiXiXCX>XD = E 0X5 5 H E ",
"T T T T T T T T T % y.s.g.h.j.k.k.V.V.Z.A.H.J.L.P.U.jXgXn.n k E.W.M b m m m M l l z Y W.M z - H ",
"T T T T T T T T T A 6 z.g.h.j.k.B.V.V.Z.A.H.J.L.P.fXfXgX7.2.@X+X&X&X%X+X%X%X%X%X%X%X%X&X@X~.k A ",
"T T T T T T T T T T r *.g.h.j.k.B.V.V.Z.A.H.J.L.P.U.jXgXL 4.oX*X=X=X=X=X=X=X=X=X=X=X=X*X$X}.k A ",
"T T T T T T T T T T T * ,.h.j.k.B.B.V.Z.A.H.J.L.P.fXfXgXL 4.{.$X#X#X#X#X#X#X#X#X#X#X#X$XoX).k A ",
"T T T T T T T T T T T S w <.j.k.B.V.Z.Z.A.H.J.L.P.P.jXcXL 4.{.oXOXOXOXOXoX|.oXOXOXOXOXOXoX(.8 A ",
"T T T T T T T T T T T T S w <.k.B.V.C.Z.A.H.J.L.P.fXfXcXL 4.'.XXXX.X.X.XQ.0 v |..X.X.XXX}.(.8 A ",
"T T T T T T T T T T T T T S w 1.l.V.C.Z.A.H.J.L.P.fXfXaXL 3.`.{.XX X X.XR.  k }..X X X[.'.^.8 A ",
"T T T T T T T T T T T T T T T r h u.V.Z.A.H.J.L.P.U.fXgXL 5.`.].[. X[. X].k T. X X X[.[.'./.8 A ",
"T T T T T T T T T T T T T T T R D u =.x.A.H.J.L.P.hXjXgXL 5._.].[.[.[. X[.b Q. X[.[.[.].'./.8 A ",
"T T T T T T T T T T T T T T T T T R S u g -.v.M.m.N.N.n.p 5._.].]. X[.[. X~.{.[.[.[.[.[.`./.8 A ",
"T T T T T T T T T T T T T T T T T T T / R H A C Z Z C S % 5._.].].[.[.[.[.[.XX[.[.[.[.[.'./.8 A ",
"T T T T T T T T T T T T T T T T T T T T T R ! ~ ~ ~ ~ ~ r 3._.].[.[.[.[.{.[.[.[.[.[.].].`./.8 A ",
"T T T T T T T T T T T T T T T T T T T T T T T T T T T T % 6.^.(.`.`.`.`.`.`.`.`.`.`.`.`.(.!.8 A ",
"T T T T T T T T T T T T T T T T T T T T T T T T T T T T B 0 c x x x x x x x x x x x x x x 8 $ T ",
"T T T T T T T T T T T T T T T T T T T T T T T T T T T T T A B B B V B B B B B B B B V B B B S T "
};
