/* XPM */
static char * buttonDragSelected[] = {
"48 48 264 2",
"  	c None",
". 	c #666666",
"+ 	c #646464",
"@ 	c #616161",
"# 	c #636363",
"$ 	c #656565",
"% 	c #626262",
"& 	c #5F5E5E",
"* 	c #5D5C5C",
"= 	c #5B5A5A",
"- 	c #595858",
"; 	c #5B5B5B",
"> 	c #5E5E5E",
", 	c #656464",
"' 	c #5A5959",
") 	c #979797",
"! 	c #7E7D7D",
"~ 	c #696868",
"{ 	c #8C8B8B",
"] 	c #B3B2B2",
"^ 	c #CECDCD",
"/ 	c #E1E1E1",
"( 	c #EAE9E9",
"_ 	c #CECECE",
": 	c #B3B3B3",
"< 	c #8C8C8C",
"[ 	c #919090",
"} 	c #F8F8F8",
"| 	c #DCDCDC",
"1 	c #6D6C6C",
"2 	c #818181",
"3 	c #BDBCBC",
"4 	c #DEDEDE",
"5 	c #EFEFEF",
"6 	c #FCFCFC",
"7 	c #FFFFFF",
"8 	c #F0F0F0",
"9 	c #BDBDBD",
"0 	c #F5F5F5",
"a 	c #DADADA",
"b 	c #5C5C5C",
"c 	c #5E5D5D",
"d 	c #5C5B5B",
"e 	c #7D7D7D",
"f 	c #CCCCCC",
"g 	c #FEFEFE",
"h 	c #959494",
"i 	c #929191",
"j 	c #D9D8D8",
"k 	c #747373",
"l 	c #636262",
"m 	c #ACACAC",
"n 	c #F6F6F6",
"o 	c #EAEAEA",
"p 	c #FAFAFA",
"q 	c #DFDFDF",
"r 	c #E0E0E0",
"s 	c #EEEEEE",
"t 	c #ECECEC",
"u 	c #BFBEBE",
"v 	c #767575",
"w 	c #CDCDCD",
"x 	c #FDFDFD",
"y 	c #E5E5E5",
"z 	c #E2E2E2",
"A 	c #FBFBFB",
"B 	c #A09F9F",
"C 	c #8E8D8D",
"D 	c #E7E7E7",
"E 	c #CBCBCB",
"F 	c #818080",
"G 	c #828181",
"H 	c #F4F4F4",
"I 	c #CFCFCF",
"J 	c #605F5F",
"K 	c #7B7A7A",
"L 	c #DDDDDD",
"M 	c #F0DFDD",
"N 	c #D0877E",
"O 	c #DF311B",
"P 	c #AEAEAE",
"Q 	c #7D7C7C",
"R 	c #F3F3F3",
"S 	c #B2B1B1",
"T 	c #838383",
"U 	c #E6E5E5",
"V 	c #8A8989",
"W 	c #B9B9B9",
"X 	c #5D5D5D",
"Y 	c #747474",
"Z 	c #DBDADA",
"` 	c #DFB8B3",
" .	c #CD4B3B",
"..	c #EB2B13",
"+.	c #E82C15",
"@.	c #D6D6D6",
"#.	c #D5D4D4",
"$.	c #737272",
"%.	c #787777",
"&.	c #C0BFBF",
"*.	c #C6C5C5",
"=.	c #A6A6A6",
"-.	c #A4A3A3",
";.	c #6B6A6A",
">.	c #838282",
",.	c #C1C1C1",
"'.	c #CACACA",
").	c #D59991",
"!.	c #DB331E",
"~.	c #CF4635",
"{.	c #B4B4B4",
"].	c #7A7979",
"^.	c #7F7E7E",
"/.	c #9D9D9D",
"(.	c #EBEBEB",
"_.	c #676666",
":.	c #B1B0B0",
"<.	c #B5B4B4",
"[.	c #A6A5A5",
"}.	c #D69D96",
"|.	c #DE311C",
"1.	c #CB6255",
"2.	c #8D8C8C",
"3.	c #E4E4E4",
"4.	c #757474",
"5.	c #666565",
"6.	c #E8E7E7",
"7.	c #626161",
"8.	c #616060",
"9.	c #B7B7B7",
"0.	c #DEB6B1",
"a.	c #D93621",
"b.	c #E92C14",
"c.	c #6F6E6E",
"d.	c #E6E6E6",
"e.	c #D7D7D7",
"f.	c #D3D2D2",
"g.	c #F7F7F7",
"h.	c #C5C5C5",
"i.	c #F1E2E1",
"j.	c #D04433",
"k.	c #5F5F5F",
"l.	c #A8A7A7",
"m.	c #949393",
"n.	c #CD786E",
"o.	c #D53926",
"p.	c #B5B5B5",
"q.	c #B0B0B0",
"r.	c #969696",
"s.	c #A2A1A1",
"t.	c #F1F1F1",
"u.	c #9C9B9B",
"v.	c #9A9999",
"w.	c #878686",
"x.	c #D9A59F",
"y.	c #DD321D",
"z.	c #D1412F",
"A.	c #8A8A8A",
"B.	c #AAA9A9",
"C.	c #908F8F",
"D.	c #717070",
"E.	c #DBDBDB",
"F.	c #6E6D6D",
"G.	c #CB695C",
"H.	c #CB6357",
"I.	c #F9F9F9",
"J.	c #9B9B9B",
"K.	c #777676",
"L.	c #D0D0D0",
"M.	c #D8D8D8",
"N.	c #F0E0DE",
"O.	c #CE4838",
"P.	c #D5968E",
"Q.	c #707070",
"R.	c #C2C2C2",
"S.	c #D59B93",
"T.	c #D8A39D",
"U.	c #646363",
"V.	c #D2D2D2",
"W.	c #898888",
"X.	c #F1E1E0",
"Y.	c #DCAFAA",
"Z.	c #DDB1AC",
"`.	c #F5EBEA",
" +	c #D9D9D9",
".+	c #F2F2F2",
"++	c #E4E3E3",
"@+	c #9B9A9A",
"#+	c #6C6B6B",
"$+	c #939292",
"%+	c #D7D6D6",
"&+	c #EDEDED",
"*+	c #4176B4",
"=+	c #266EC3",
"-+	c #2B6CB9",
";+	c #525B66",
">+	c #858484",
",+	c #3070BC",
"'+	c #1D6FD0",
")+	c #226DC6",
"!+	c #515B67",
"~+	c #989898",
"{+	c #4D5F76",
"]+	c #3370BA",
"^+	c #266CBF",
"/+	c #57595C",
"(+	c #4E5C6F",
"_+	c #3471BA",
":+	c #3B73B7",
"<+	c #3466A2",
"[+	c #2A6AB5",
"}+	c #3C74B6",
"|+	c #507DB2",
"1+	c #4779B3",
"2+	c #7D97B6",
"3+	c #4B7AB3",
"4+	c #C4C3C3",
"5+	c #216ECA",
"6+	c #708EB4",
"7+	c #C6C6C6",
"8+	c #4C7BB3",
"9+	c #226EC7",
"0+	c #A9A9A9",
"a+	c #8DA1BA",
"b+	c #5A82B2",
"c+	c #888787",
"d+	c #CDCECF",
"e+	c #1F6ECC",
"f+	c #B0B9C4",
"g+	c #AAAAAA",
"h+	c #3F75B5",
"i+	c #E8E8E8",
"j+	c #ADACAC",
"k+	c #BDC1C8",
"l+	c #BDC2C9",
"m+	c #6B8BB3",
"n+	c #6E6E6E",
"o+	c #706F6F",
"p+	c #909090",
"q+	c #5580B2",
"r+	c #CAC9C9",
"s+	c #8FA2B9",
"t+	c #256EC4",
"u+	c #6A6969",
"v+	c #226EC9",
"w+	c #CCCBCB",
"x+	c #B8B8B8",
"y+	c #7A95B5",
"z+	c #246EC5",
"A+	c #3772B8",
"B+	c #6F8EB3",
"C+	c #BBBABA",
"D+	c #9E9D9D",
"E+	c #B7B6B6",
"F+	c #B9B8B8",
"G+	c #727171",
"H+	c #ABABAB",
"I+	c #D4D4D4",
"J+	c #E9E9E9",
"K+	c #D5D5D5",
"L+	c #ACABAB",
"M+	c #A5A5A5",
"N+	c #C1C0C0",
"O+	c #606060",
". . . . . . . . . . . . . . . . . . . . . . . . . . . . . . . . . . . . . . . . . . . . . . . . ",
". . . . . . . . . . . . . . . . . . . . . . . . . . . . . . . . . . + @ # . . . . . . . . . . . ",
". . . . . . . . . . . . . . . . . . $ % & * = = = = * & % $ . . . + - - - ; . . . . . . . . . . ",
". . . . . . . . . . . . . . . . > - - - - - - - - - - - - - - > , ' - ) ! - * . . . . . . . . . ",
". . . . . . . . . . . . . . . > - ' ~ { ] ^ / ( ( / _ : < ~ ' - - - [ } | 1 - * . . . . . . . . ",
". . . . . . . . . . . . . > - - = 2 3 4 5 6 7 7 7 7 6 8 4 9 ! - - [ 0 7 7 a 1 - b . . . . . . . ",
". . . . . . . . . . . . c - d e f 0 g 7 7 7 7 7 7 7 7 7 7 g h - i 0 7 7 7 7 j k - > . . . . . . ",
". . . . . . . . . . . d - l m n 7 7 7 g 7 g 0 o o 0 g g g p - c q 7 r } s t 7 u ' - . . . . . . ",
". . . . . . . . . . d - v w 7 7 7 x y z A 7 B d d B 7 p m C - * D E F } a G H I - * J # . . . . ",
". . . . . . . . . d - K L 7 7 7 M N O P A 0 Q - - Q R Q - - - l S , T g U J V W c - - - c . . . ",
". . . . . . . . X - Y Z 7 7 g `  ...+.@.7 #.l - - l $.- %.&.*.=.d - -.7 s ;.- >.*.,.=.* - c . . ",
". . . . . . . > - , '.7 7 g ).!.....~.5 7 {.c - - ' - ].y 7 ( ^.- - /.7 (._.- c :.7 7 <.d - > . ",
". . . . . . . - = [.7 7 7 }.|.......1.p g 2.' - - - ].3.7 L 4.& 5.l [ 7 6.1 7.J 8.[.x 7 9.d - d ",
". . . . . . c - K R 7 7 0.a.......b.N 7 H c.- * - >.3.7 7 3.I L d.q 6.7 p 4 | 4 e.f.g.7 7 u 4.- ",
". . . . . > - * h.7 7 i.j.........O j 7 Z , - k.- l.7 7 7 A 7 7 7 7 7 7 7 7 7 7 7 6 6 7 7 5 m.- ",
". . . . . - ' G 6 7 g n...........o.D 7 p.J - % - 8.q.7 7 f e r.P s.9 7 t.[.u.v.w.v.0 7 3.K d - ",
". . . . . - * u 7 g x.y...........z.t 7 A.' - . c - ' ] 7 6 B.= - - C.7 d.8.- - D.E.7 U K - - > ",
". . . . + - F.d.7 A G.............H.I.7 F - > . . = - ' P 3.d.J.c - i 7 6.7.- K.L.U M.K - d . . ",
". . . . 7.- C.6 7 N.O.............P.7 7 ! - d d d d - - - , _.Q.p.~ F 7 3.d i R.c.5.& - d . . . ",
". . . . & - S 7 7 S...............T.7 5 U.- - - - - - - ! - - d ( V.W.g.E.< H _ - - - = . . . . ",
". . . . * - I 7 7 X.Y.Z.Z.Z.Z.Z.0.`.7 p 4  + + + + + +| t..+- d | 7 ( p R H 7 9 ' - - * . . . . ",
". . . . = - ++7 7 7 7 7 7 7 7 7 7 7 7 7 7 7 7 7 7 7 7 7 7 7 @+- w..+7 7 7 7 @.#+- $+- = . . . . ",
". . . . ' - R 7 7 7 7 7 7 7 7 7 7 7 7 7 7 7 7 7 7 7 7 7 7 7 } c.- w.8 7 7 %+1 - A.0 - ' . . . . ",
". . . . - - 6 7 &+*+=+=+=+=+=+=+=+=+=+=+=+=+=+=+=+=+=+=+=+=+=+-+;+- W.t.M.;.- >+7 g - - . . . . ",
". . . . - - 7 7 o ,+'+'+'+'+'+'+'+'+'+'+'+'+'+'+'+'+'+'+'+'+'+'+)+!+- ~+! - {+(.7 7 - - . . . . ",
". . . . - - g 7 (.]+'+'+'+'+'+'+'+'+'+'+'+'+'+'+'+'+'+'+'+'+'+'+'+^+/+- - (+_+(.7 7 - - . . . . ",
". . . . - - } 7 &+:+'+'+'+'+'+'+'+'+'+'+'+'+'+'+'+'+'+'+'+'+'+'+'+'+^+<+[+'+}+&+7 A - - . . . . ",
". . . . ' - &+7 .+|+'+'+'+'+'+'+'+'+'+'+'+'+'+'+'+'+'+'+'+'+'+'+'+'+'+'+'+'+1+t.7 8 - ' . . . . ",
". . . . d - | 7 p 2+'+'+'+'+'+'+'+'+'+'+'+'+'+'+'+'+'+'+'+'+'+'+'+'+'+'+'+'+3+.+7 q - ; . . . . ",
". . . . c - 4+7 7 L.5+'+'+'+'+'+'+'+'+'+'+'+'+'+'+'+'+'+'+'+'+'+'+'+'+'+'+'+6+} 7 7+- X . . . . ",
". . . . J - [.7 7 t.8+'+'+'+'+'+'+'+'+'+'+'+'+'+'+'+'+'+'+'+'+'+'+'+'+'+'+9+V.7 7 0+- J . . . . ",
". . . . l - >+I.7 6 a+'+'+'+'+'+'+'+'+'+'+'+'+'+'+'+'+'+'+'+'+'+'+'+'+'+'+b+0 7 p c+- % . . . . ",
". . . . $ - _.Z 7 7 d+e+'+'+'+'+'+'+'+'+'+'+'+'+'+'+'+'+'+'+'+'+'+'+'+'+'+f+g 7 | ~ - $ . . . . ",
". . . . . - d g+7 7 ( h+'+'+'+'+'+'+'+'+'+'+'+'+'+'+'+'+'+'+'+'+'+'+'+'+}+i+7 7 j+d - . . . . . ",
". . . . . > - Y t.7 7 k+5+'+'+'+'+'+'+'+'+'+'+'+'+'+'+'+'+'+'+'+'+'+'+5+l+7 7 H v - > . . . . . ",
". . . . . . - = P 7 7 } m+'+'+'+'+'+'+'+'+'+'+'+'+'+'+'+'+'+'+'+'+'+'+m+} 7 7 :.d - . . . . . . ",
". . . . . . > - n+++7 7 5 1+'+'+'+'+'+'+'+'+'+'+'+'+'+'+'+'+'+'+'+'+1+5 7 7 U o+- > . . . . . . ",
". . . . . . . - ' p+7 7 7 y *+'+'+'+'+'+'+'+'+'+'+'+'+'+'+'+'+'+'+*+y 7 7 7 m.' - . . . . . . . ",
". . . . . . . > - c 9.7 7 7 U q+'+'+'+'+'+'+'+'+'+'+'+'+'+'+'+'+q+U 7 7 7 W c - > . . . . . . . ",
". . . . . . . . c - ~ r+7 7 7 t.s+t+'+'+'+'+'+'+'+'+'+'+'+'+9+s+t.7 7 7 f u+- c . . . . . . . . ",
". . . . . . . . . * - F.E 7 7 7 p q 1+'+'+'+'+'+'+'+'+'+v+8+L p 7 7 7 w+c.- * . . . . . . . . . ",
". . . . . . . . . . * - _.x+7 7 7 7 t.4 y+z+'+'+e+A+B+f+(.t.7 7 7 7 C+~ - * . . . . . . . . . . ",
". . . . . . . . . . . X - & D+t 7 7 7 7 p R 5 5 5 0 p x 7 7 7 7 &+B & - * . . . . . . . . . . . ",
". . . . . . . . . . . . c - = D.E+(.x 7 7 7 7 7 7 7 7 7 7 x (.F+G+= - c . . . . . . . . . . . . ",
". . . . . . . . . . . . . > - - ' $.H+I+J+n g 7 7 g n J+K+L+$.' - - > . . . . . . . . . . . . . ",
". . . . . . . . . . . . . . . > - - 8.Q M+N+I+L L I+N+M+! 7.' - > . . . . . . . . . . . . . . . ",
". . . . . . . . . . . . . . . . . c - - - - - - - - - - - - - > . . . . . . . . . . . . . . . . ",
". . . . . . . . . . . . . . . . . . $ # O+c b d d b c O+# $ . . . . . . . . . . . . . . . . . . "};
