/* XPM */
static char *buttonRight[] = {
/* columns rows colors chars-per-pixel */
"48 48 92 1",
"  c #1F1F1F",
". c #0E0E3C",
"X c #131324",
"o c #1C1C2E",
"O c #131335",
"+ c #10103D",
"@ c #1D1D31",
"# c #202020",
"$ c #2C2C2C",
"% c #2E2E33",
"& c #333333",
"* c #37373A",
"= c #3C3C3C",
"- c #0E0E53",
"; c #171747",
": c #13135D",
"> c #1C1C53",
", c #121271",
"< c #2C2C53",
"1 c #373747",
"2 c #36364D",
"3 c #3A3A4C",
"4 c #353553",
"5 c #202069",
"6 c #282863",
"7 c #28286E",
"8 c #20207F",
"9 c #444444",
"0 c #424248",
"q c #4B4B4B",
"w c #484854",
"e c #545454",
"r c #5C5C5C",
"t c #40406C",
"y c #4F4F65",
"u c #4B4B6F",
"i c #656565",
"p c #60606B",
"a c #6B6B6B",
"s c #747474",
"d c #7C7C7C",
"f c #171780",
"g c #1C1C86",
"h c #212187",
"j c #232395",
"k c #2C2C9C",
"l c #39398C",
"z c #31319F",
"x c #3434A3",
"c c #3838A5",
"v c #3D3DAA",
"b c #4E4E83",
"n c #545490",
"m c #54549A",
"M c #4242AD",
"N c #4C4CAA",
"B c #4747B1",
"V c #4A4AB3",
"C c #4F4FB8",
"Z c #5656AB",
"A c #5353B4",
"S c #5454BC",
"D c #7070B8",
"F c #5E5EC3",
"G c #6464C9",
"H c #6A6ACE",
"J c #6F6FD3",
"K c #7373D5",
"L c #7C7CDF",
"P c #7F7FE1",
"I c #848484",
"U c #8C8C8C",
"Y c #949494",
"T c #9C9C9C",
"R c #A4A4A4",
"E c #ABABAB",
"W c #B4B4B4",
"Q c #BCBCBC",
"! c #8484CE",
"~ c #8D8DDE",
"^ c #8484E4",
"/ c #8B8BE9",
"( c #9292E8",
") c #9393F0",
"_ c #C3C3C3",
"` c #CBCBCB",
"' c #D3D3D3",
"] c #DBDBDB",
"[ c #E3E3E3",
"{ c #ECECEC",
"} c #F3F3F3",
"| c #F9F9F9",
/* pixels */
"iiiiiiiiiiiiiiiiiiiiiiiiiiiiiiiiiiiiiiiiiiiiiiii",
"iiiiiiiiiiiiiiiiiiiiiiiiiiiiiiiiiiiiiiiiiiiiiiii",
"iiiiiiiiiiiiiiiiiiiiiiiiiiiiiiiiiiiiiiiiiiiiiiii",
"iiiiiiiiiiiiiiiiiirq*&%&$$=eriiiiiiiiiiiiiiiiiii",
"iiiiiiiiiiiiiiiiq&%=eria1>5;$*riiiiiiiiiiiiiiiii",
"iiiiiiiiiiiiiie$#easdddIr6vzg:O*riiiiiiiiiiiiiii",
"iiiiiiiiiiiii9%q&sddIIUYd2Bvxkg-oqiiiiiiiiiiiiii",
"iiiiiiiiiiii=&id=sUUYYYTY2ACMxkj,O9iiiiiiiiiiiii",
"iiiiiiiiiii9&aIU9aYYYTRRRwZFSBvzjf+=iiiiiiiiiiii",
"iiiiiiiiiiq$idIYriTTRREEWimKGSVvxkg+9iiiiiiiiiii",
"iiiiiiiiie$rdIUTdeEEEWWQQIbLKGFAMckgOwiiiiiiiiii",
"iiiiiiiii&qdIUYRYwEWWQQ__Ru/^KJFSVvx,%riiiiiiiii",
"iiiiiiiiq&sIIYTEEeRQ___`'_y((^LJSZl7>X*aiiiiiiii",
"iiiiiiii&edIUTREQrT``'']]]p!/Dnt4=0eii=iaiiiiiii",
"iiiiiiie&sIUTREW_sU]]]'_EU93weisIUUUIIr9aiiiiiii",
"iiiiiii9qIUYTEW_`YrRIirersIYRRRRTTYYUId=aiiiiiii",
"iiiiiii%aUYTTYIsrq9rsUTEWWWEEERRRTTYUUIreaiiiiii",
"iiiiiir$iieq9qraIREWQQQQQQQQWWWERRTTYYUs=siiiiii",
"iiiiiie =eisUTREEWQQQQ_QQQQQQWWWERRTYYUIqaiiiiii",
"iiiiii9qIYYTRREEWWQQ_Q``_`__QQQWWERRTTYUeraiiiii",
"iiiiia=eUUTTRREWQQQ_````````_QQQWEERRTYUaesiiiii",
"iiiiii=iYYTTREWWQQ`````'']`````QQWEERTYYsqsiiiii",
"iiiiii*iYYTRRWQQQ_``'']]]]]''``QQQWERRTYI9diiiii",
"iiiiii=rYTTREWWQ_``']]][[]]]]```_QWERRTYIqdiiiii",
"iiiiii9rYTRREWQQ```]]][{{[]]]'``_QWWERTTUqdiiiii",
"iiiiia9eYTRREQQ_``'][{{{{{{[[]'``QQWERTTU9diiiii",
"iiiiiie9YTRRWWQ_``]][{{}|{{{]]]`__QWERRYU9Iiiiii",
"iiiiiir*YTREWWQ_`']][{}|||}{[]]``QQWEERTIqdiiiii",
"iiiiiii&dTREWQQ_`']][{{|||{{[]]``_QWWRRTsediiiii",
"iiiiiii9rRRREQQ_``]][{}}}{{{[]'`__QWERTTiidiiiii",
"iiiiiiie=YREEWQ_``'][{{{{{{[]]'`__QWERTTqdaiiiii",
"iiiiiiii*sRREWQQ```]]][[{{[]]]``_QWWERTUqUiiiiii",
"iiiiiiiaqqTREWWQ_``']][[[[]]''`__QWEERTarIiiiiii",
"iiiiiiiii&dREEWQQ_``''']']'''`__QQWERTYqIaiiiiii",
"iiiiiiiiie=YREWWQ__```'''''```_QQWEERRarIiiiiiii",
"iiiiiiiiii9eRREWWQ__````````__QQWWERTY9Isiiiiiii",
"iiiiiiiiiii=sREEWWQQ_________QQWEERRTeaIiiiiiiii",
"iiiiiiiiiiir&dRREEWQQQ_QQ_QQQWWEEERTaeUaiiiiiiii",
"iiiiiiiiiiiir=sREEEWWWWQQWQWWWEERRTaqUsiiiiiiiii",
"iiiiiiiiiiiiir=iTEEEEWWWWWEWEEERRTiqUsiiiiiiiiii",
"iiiiiiiiiiiiiii99IREEREEEEEEERRTIerUsiiiiiiiiiii",
"iiiiiiiiiiiiiiiar9eITRRERRRRRTUi9sUaiiiaiiiiiiii",
"iiiiiiiiiiiiiiiiiar9qrdIUUUdiqqiUIaiiiiiiiiiiiii",
"iiiiiiiiiiiiiiiiiiasaieqqqqradUdaiiiiiiiiiiiiiii",
"iiiiiiiiiiiiiiiiiiiiiassdddddaiiiiiiiiiiiiiiiiii",
"iiiiiiiiiiiiiiiiiiiiiiiiiiiiiiiiiiiiiiiiiiiiiiii",
"iiiiiiiiiiiiiiiiiiiiiiiiiiiiiiiiiiiiiiiiiiiiiiii",
"iiiiiiiiiiiiiiiiiiiiiiiiiiiiiiiiiiiiiiiiiiiiiiii"
};
