/* XPM */
static const char *buttonRightSelected[] = {
/* columns rows colors chars-per-pixel */
"48 48 118 2 ",
"   c black",
".  c #353535",
"X  c #373737",
"o  c #3A3A3A",
"O  c #3F3F3F",
"+  c #414141",
"@  c #434343",
"#  c gray27",
"$  c #494949",
"%  c #4B4B4B",
"&  c #4E4E4E",
"*  c #505050",
"=  c #565656",
"-  c gray35",
";  c gray37",
":  c gray39",
">  c gray40",
",  c DimGray",
"<  c gray42",
"1  c #6C6C6C",
"2  c gray45",
"3  c gray47",
"4  c #7C7C7C",
"5  c red",
"6  c #FE0505",
"7  c #F60D0D",
"8  c #FC1313",
"9  c #FF1919",
"0  c #F94242",
"q  c #ED6D6D",
"w  c #FC6F6F",
"e  c #FC7676",
"r  c #FE7E7E",
"t  c #3B3BBF",
"y  c #4040BE",
"u  c #5252BA",
"i  c #5757B9",
"p  c #5858BA",
"a  c #6565B9",
"s  c #6868B9",
"d  c #7979B9",
"f  c #7B7BB9",
"g  c #1E1ECF",
"h  c #1515D6",
"j  c #1717D6",
"k  c #1A1AD3",
"l  c #1313DA",
"z  c #2C2CC6",
"x  c #2323CB",
"c  c #2525CA",
"v  c #2020CE",
"b  c #3131C3",
"n  c #3636C2",
"m  c #3232C4",
"M  c #0707ED",
"N  c #0909E9",
"B  c #0505F0",
"V  c #0303F4",
"C  c #0202F9",
"Z  c blue",
"A  c #888888",
"S  c #898989",
"D  c #929292",
"F  c gray59",
"G  c #989898",
"H  c #9B9B9B",
"J  c #9D9D9D",
"K  c gray64",
"L  c #A7A7A7",
"P  c #AAAAAA",
"I  c #AEAEAE",
"U  c #A1A1BD",
"Y  c #B1B1B1",
"T  c gray71",
"R  c gray72",
"E  c gray75",
"W  c #FF8484",
"Q  c #FC8888",
"!  c #FE8888",
"~  c #FD9191",
"^  c #FCA3A3",
"/  c #FEB4B4",
"(  c #FFB7B7",
")  c #FFBBBB",
"_  c #AFAFC0",
"`  c #C3C3C3",
"'  c #C2C2C5",
"]  c #C6C6C6",
"[  c #CBCBCB",
"{  c gray80",
"}  c #D0D0D0",
"|  c LightGray",
" . c gray83",
".. c #D5D5D5",
"X. c gray86",
"o. c gray87",
"O. c #FFC1C1",
"+. c #FFC3C3",
"@. c #FFCBCB",
"#. c #FECCCC",
"$. c #FFD8D8",
"%. c gray88",
"&. c gray89",
"*. c #E4E4E4",
"=. c gray91",
"-. c gray92",
";. c #ECECEC",
":. c #FEE2E2",
">. c #FFE3E3",
",. c #FFE9E9",
"<. c #FFEBEB",
"1. c #FFECEC",
"2. c gray94",
"3. c #F4F4F4",
"4. c #FFF3F3",
"5. c #FFF6F6",
"6. c #FBFBFB",
"7. c gray100",
/* pixels */
"> > > > > > > > > > > > > > > > > > > > > > > > > > > > > > > > > > > > > > > > > > > > > > > > ",
"> > > > > > > > > > > > > > > > > > : = $ + O o o O # $ = : > > > > > > > > > > > > > > > > > > ",
"> > > > > > > > > > > > > > > > $ . . . . . . . . . . . . . . $ > > > > > > > > > > > > > > > > ",
"> > > > > > > > > > > > > > > $ . . # 2 K ` o.*.*.o.` K 2 $ . . $ > > > > > > > > > > > > > > > ",
"> > > > > > > > > > > > > # . . o > I ..-.6.7.7.7.7.6.-...I > o . . $ > > > > > > > > > > > > > ",
"> > > > > > > > > > > > # . o : ` 2.7.7.7.7.7.7.7.7.7.7.7.7.2.` : o . # > > > > > > > > > > > > ",
"> > > > > > > > > > > + . + G 2.7.7.7.7.7.7.2.*.*.2.7.7.7.7.7.7.3.J + . + > > > > > > > > > > > ",
"> > > > > > > > > > O . - ` 7.7.7.7.o.X.6.7.4 > > 4 7.6.q 8 r ,.7.7.] - . + > > > > > > > > > > ",
"> > > > > > > > > + . ; ..7.7.7.%.F : J 6.2.: > > > 2.6.7 5 5 5 ) 7.7...: . + > > > > > > > > > ",
"> > > > > > > > # . = | 7.7.7.E , > > { 7.{ : > > : { 7.6 5 5 5 5 Q 7.7...= . # > > > > > > > > ",
"> > > > > > > $ . # E 7.7.7.K : > > , ;.7.L : > > > K 7.0 5 9 W +.) +.7.7.` # . $ > > > > > > > ",
"> > > > > > > . . D 7.7.7.L : > > > 3 6.7., > > > > 1 7.w 9 ,.7.7.7.7.5.7.7.D . . > > > > > > > ",
"> > > > > > $ . ; 2.7.7.E : > > > > F 7.2.: > > > > : 2.^ W 7.P O O P 7.$.7.2.; . # > > > > > > ",
"> > > > > $ . o R 7.7.*.> > > > > > { 7.| : > > > > : | 7.+.7.O     O 7.+.1.7.T o . $ > > > > > ",
"> > > > > . . > 7.7.6.S > > > > > : %.7.G > > > > > > F 7.#.7.O     O 7.+.e 7.7., . . > > > > > ",
"> > > > > . o Y 7.7.I : > > > > > > -.7., > > > > > > , 7.^ 7.P O O P 7.W 5 ( 7.T o . > > > > > ",
"> > > > : . & o.7.6.4 > > > > > > 3 6.7.> > > > > > > : 3.Q ,.7.7.7.7.,.9 5 e 7.%.* . : > > > > ",
"> > > > = . 3 6.7.*., > > > > > > K 7.7.> > > > > > > : o.( 9 W +.+.W 9 5 5 5 :.7.3 . = > > > > ",
"> > > > $ . K 7.7.L , > > > > > > P 7.-.> > > > > > > > T +.5 5 5 5 5 5 5 5 5 ~ 7.K . $ > > > > ",
"> > > > + . ] 7.7.%.R R R R R R E -.7.6...{ | | | { | | ;.4.5 5 5 5 5 5 5 5 5 :.7.[ . + > > > > ",
"> > > > O . o.7.7.7.7.7.7.7.7.7.7.7.7.7.7.7.7.7.7.7.7.7.7.7.4.@.+.+.+.+.+.+.:.7.7.%.. O > > > > ",
"> > > > o . ;.7.7.7.7.7.7.7.7.7.7.7.7.7.7.7.7.7.7.7.7.7.7.7.7.7.7.7.7.7.7.7.7.7.7.2.. . > > > > ",
"> > > > . . 6.7.-.c N N N N N N N N N N N N N N N N N N N N N N N N N N N N z -.7.7.. . > > > > ",
"> > > > . . 7.7.*.l Z Z Z Z Z Z Z Z Z Z Z Z Z Z Z Z Z Z Z Z Z Z Z Z Z Z Z Z h -.7.7.. . > > > > ",
"> > > > . . 7.7.*.h Z Z Z Z Z Z Z Z Z Z Z Z Z Z Z Z Z Z Z Z Z Z Z Z Z Z Z Z h *.7.7.. . > > > > ",
"> > > > o . 3.7.-.g Z Z Z Z Z Z Z Z Z Z Z Z Z Z Z Z Z Z Z Z Z Z Z Z Z Z Z Z v ;.7.6.. . > > > > ",
"> > > > o . -.7.;.n Z Z Z Z Z Z Z Z Z Z Z Z Z Z Z Z Z Z Z Z Z Z Z Z Z Z Z Z z ;.7.;.. o > > > > ",
"> > > > O . ..7.6.s Z Z Z Z Z Z Z Z Z Z Z Z Z Z Z Z Z Z Z Z Z Z Z Z Z Z Z Z z 2.7.X.. O > > > > ",
"> > > > # . R 7.7.] V Z Z Z Z Z Z Z Z Z Z Z Z Z Z Z Z Z Z Z Z Z Z Z Z Z Z Z p 3.7.R . # > > > > ",
"> > > > & . D 7.7.;.b Z Z Z Z Z Z Z Z Z Z Z Z Z Z Z Z Z Z Z Z Z Z Z Z Z Z B [ 7.7.F . & > > > > ",
"> > > > - . , 6.7.7.d Z Z Z Z Z Z Z Z Z Z Z Z Z Z Z Z Z Z Z Z Z Z Z Z Z Z y 2.7.6.1 . - > > > > ",
"> > > > : . # | 7.7.' C Z Z Z Z Z Z Z Z Z Z Z Z Z Z Z Z Z Z Z Z Z Z Z Z Z U 7.7...# . : > > > > ",
"> > > > > . o F 7.7.&.v Z Z Z Z Z Z Z Z Z Z Z Z Z Z Z Z Z Z Z Z Z Z Z Z g %.7.7.G O . > > > > > ",
"> > > > > # . = ;.7.7.T V Z Z Z Z Z Z Z Z Z Z Z Z Z Z Z Z Z Z Z Z Z Z V _ 7.7.2.- . # > > > > > ",
"> > : > > > . . J 7.7.3.u Z Z Z Z Z Z Z Z Z Z Z Z Z Z Z Z Z Z Z Z Z Z u 3.7.7.L . . > > > : > > ",
"> $ . & > > $ . * o.7.7.;.z Z Z Z Z Z Z Z Z Z Z Z Z Z Z Z Z Z Z Z Z z ;.7.7.o.* . $ > > & . & > ",
"> o . . $ > > . . 3 7.7.7.o.c Z Z Z Z Z Z Z Z Z Z Z Z Z Z Z Z Z Z c o.7.7.7.4 . . > > $ . . o > ",
"> . . . . $ > $ . o P 7.7.7.%.t Z Z Z Z Z Z Z Z Z Z Z Z Z Z Z Z t %.7.7.7.P o . $ > $ . . . . > ",
"> . . K . . $ > $ . # E 7.7.7.;.d M Z Z Z Z Z Z Z Z Z Z Z Z B f ;.7.7.7.` $ . $ > $ . . K . . > ",
"> . . 7.Y ; . $ > # . & ` 7.7.7.3.X.z Z Z Z Z Z Z Z Z Z B m ..6.7.7.7.` & . + > $ . - I 7.. . > ",
"> . . 7.7.E , . $ > + . # P 7.7.7.7.;...a M Z Z C k i U *.;.7.7.7.7.P $ . + > $ . 1 E 7.7.. . > ",
"> . . 7.7.7.{ 3 . $ : # . O A -.7.7.7.7.6.2.;.-.-.2.6.7.7.7.7.7.-.S O . # : $ . 3 { 7.7.7.. . > ",
"> . . 7.7.7.7.o.S . # ; $ . . & L *.7.7.7.7.7.7.7.7.7.7.7.7.*.P * o . # ; $ . S o.7.7.7.7.. . > ",
"> . . 7.7.7.7.7.-.S . $ ; $ . . . = F [ *.3.7.7.7.7.3.*.{ G = . . . $ ; $ . S ;.7.7.7.7.7.. . > ",
"> . . 7.7.7.7.7.7.3.S . . - > $ . . + : D Y { ....[ Y D : O . . $ > - . . S 2.7.7.7.7.7.7.. . > ",
"> . . . . . . . . . . . . # > > > # . . . . . . . . . . . . . $ > > # . . . . . . . . . . . . > ",
"> $ . . . . . . . . . . # - > > > > > - * $ + O + + # * - > > > > > - # . . . . . . . . . . $ > ",
"> > > > > > > > > > > > > > > > > > > > > > > > > > > > > > > > > > > > > > > > > > > > > > > > "
};
