/* XPM */
static const char *buttonDblLeftSelectedLocked[] = {
/* columns rows colors chars-per-pixel */
"48 48 256 2",
"   c #0D0D2D",
".  c #0B0B36",
"X  c #15152C",
"o  c #151534",
"O  c #341417",
"+  c #26272A",
"@  c #232332",
"#  c #2C2C34",
"$  c #28283A",
"%  c #3F2B2B",
"&  c #352B2B",
"*  c #39342C",
"=  c #3D3B3B",
"-  c #373435",
";  c #33203F",
":  c #100B04",
">  c #070852",
",  c #1C1C45",
"<  c #111158",
"1  c #09096D",
"2  c #0A0A64",
"3  c #0E0E7D",
"4  c #181867",
"5  c #141476",
"6  c #3E3E43",
"7  c #36365C",
"8  c #2D264A",
"9  c #272A7C",
"0  c #312E6A",
"q  c #363662",
"w  c #3E4146",
"e  c #581414",
"r  c #483B0D",
"t  c #563C0B",
"y  c #573D09",
"u  c #453212",
"i  c #432E2E",
"p  c #452626",
"a  c #4D2336",
"s  c #433A39",
"d  c #562B2B",
"f  c #52393A",
"g  c #5A362F",
"h  c #6B0B0F",
"j  c #661D28",
"k  c #6B3A3A",
"l  c #683535",
"z  c #703030",
"x  c #513043",
"c  c #554509",
"v  c #585411",
"b  c #554B10",
"n  c #6A4B0F",
"m  c #67460D",
"M  c #6F5A0C",
"N  c #624628",
"B  c #6A601D",
"V  c #696526",
"C  c #444343",
"Z  c #4A4B4C",
"A  c #45474C",
"S  c #584849",
"D  c #535454",
"F  c #5C5C5C",
"G  c #565657",
"H  c #524655",
"J  c #484574",
"K  c #5A5367",
"L  c #5F6166",
"P  c #6B4848",
"I  c #67595A",
"U  c #7A4942",
"Y  c #7D5858",
"T  c #724E51",
"R  c #60605F",
"E  c #7B7D45",
"W  c #666666",
"Q  c #6B6B6B",
"!  c #63686F",
"~  c #666A73",
"^  c #776969",
"/  c #737373",
"(  c #7B7B7B",
")  c #757275",
"_  c #776F70",
"`  c #18188A",
"'  c #1E1E91",
"]  c #202082",
"[  c #212192",
"{  c #2C2C9B",
"}  c #282894",
"|  c #313195",
" . c #3333A1",
".. c #3A3AA5",
"X. c #3B3BA8",
"o. c #434396",
"O. c #565486",
"+. c #444489",
"@. c #4141AD",
"#. c #4A4BB4",
"$. c #4949B4",
"%. c #5556BB",
"&. c #5D5DAC",
"*. c #6B718A",
"=. c #6C6EB3",
"-. c #5B5BC3",
";. c #6565C9",
":. c #6E6ED1",
">. c #7272D4",
",. c #7B7BDC",
"<. c #7878CF",
"1. c #7C838B",
"2. c #8D0708",
"3. c #930E0E",
"4. c #852729",
"5. c #8F3535",
"6. c #B40202",
"7. c #AC0C0C",
"8. c #B12B2B",
"9. c #9D7D00",
"0. c #AF7200",
"q. c #AF7A00",
"w. c #B07100",
"e. c #A56700",
"r. c #844947",
"t. c #9E5858",
"y. c #8F5151",
"u. c #876C6C",
"i. c #9B6767",
"p. c #957979",
"a. c #B64E4E",
"s. c #AA5050",
"d. c #BC7979",
"f. c #C90F0F",
"g. c #CE3737",
"h. c #FE0A09",
"j. c #F00808",
"k. c #FD1111",
"l. c #FD1B1B",
"z. c #F51010",
"x. c #ED1C1C",
"c. c #FC2626",
"v. c #FC2C2C",
"b. c #FC3434",
"n. c #FB3A3A",
"m. c #F43F3F",
"M. c #EA2221",
"N. c #C94A4A",
"B. c #D65C5C",
"V. c #C46666",
"C. c #C97474",
"Z. c #DE6C6B",
"A. c #D56161",
"S. c #DA7878",
"D. c #FB4242",
"F. c #FA4C4C",
"G. c #F54E4D",
"H. c #F95656",
"J. c #F95D5D",
"K. c #F35A5A",
"L. c #E64140",
"P. c #E57373",
"I. c #E27979",
"U. c #F96464",
"Y. c #F86B6B",
"T. c #F16E6E",
"R. c #F77272",
"E. c #F77979",
"W. c #FA7474",
"Q. c #F97C7C",
"!. c #F06C6B",
"~. c #B18604",
"^. c #AF8200",
"/. c #82834E",
"(. c #B3B57D",
"). c #C69907",
"_. c #DD8D02",
"`. c #DDB100",
"'. c #E89B00",
"]. c #E79800",
"[. c #EAA302",
"{. c #E8AB01",
"}. c #F4A700",
"|. c #F3AD04",
" X c #F5B302",
".X c #F9B500",
"XX c #FDBD00",
"oX c #F4BA05",
"OX c #E9B90D",
"+X c #F6C20E",
"@X c #FEC203",
"#X c #FECA0A",
"$X c #FAC40A",
"%X c #F8CB16",
"&X c #FDD214",
"*X c #F4DC13",
"=X c #EFCE08",
"-X c #FEDD24",
";X c #FAD828",
":X c #F6E211",
">X c #F9E315",
",X c #FEE93A",
"<X c #FDE53A",
"1X c #948585",
"2X c #979699",
"3X c #8F8E93",
"4X c #9A9EA5",
"5X c #A88687",
"6X c #A99999",
"7X c #BA8686",
"8X c #B49797",
"9X c #A4A7AB",
"0X c #ADB4BE",
"qX c #B5A7A7",
"wX c #AEAEB2",
"eX c #8383D6",
"rX c #8585E4",
"tX c #9393F1",
"yX c #AEB7C1",
"uX c #B5BCC3",
"iX c #A2A2FD",
"pX c #BDC3C9",
"aX c #D99998",
"sX c #C98E8D",
"dX c #D7B6B7",
"fX c #D4ACAC",
"gX c #EC8D8D",
"hX c #E49798",
"jX c #F68484",
"kX c #F68E8E",
"lX c #F98383",
"zX c #F88A8A",
"xX c #F59595",
"cX c #F59C9C",
"vX c #F99797",
"bX c #F88F90",
"nX c #EBA4A4",
"mX c #E9B1B1",
"MX c #F4A3A3",
"NX c #F4ABAB",
"BX c #F8A8A8",
"VX c #F4B2B2",
"CX c #F3BBBB",
"ZX c #D8CACB",
"AX c #DAD9DB",
"SX c #C8CDD3",
"DX c #D9DCE0",
"FX c #F3C4C4",
"GX c #F3CCCC",
"HX c #F9CECE",
"JX c #F3D4D4",
"KX c #F2DBDB",
"LX c #E8CACA",
"PX c #E9E7E9",
"IX c #F3E4E4",
"UX c #EBEEF1",
/* pixels */
"W W W W W W W W L C D W W W W W W W W W W W W W W W W W W W W W W W W W W W W W W W W W W W W W ",
"W W W W W W W D @   = W W W W W W W W W W W W W W W W W W W W W W W W W W W W W W W W W W W W W ",
"W W W W W W Z X < 5 # W W W W W W W W W W W W R W W W Q W W W W W W W W W W W W W W W W W W W W ",
"W W W W W Z   1 ' } $ R W W W W W W G Z s * i i & - = Z R W W W W W W W W W W W W W W W W W W W ",
"W W W W D   1 ` { .., G W W W W Z * d 5.s.B.A.Z.r.k s.k i = D W W W W W W W W W W W W W W W W W ",
"W W W F X 2 ` } ..$.0 Z W W G + p a.!.R.R.R.E.lXA.U zXQ.Z.s.d - F W W W W W W W W W W W W W W W ",
"W W W # > ` }  .$.-.+.w Q C X > a R.E.E.E.Q.jXjXS.k jXjXjXQ.P.y.p Z W W W W W W W W W W W W W W ",
"W W Z . 3 [  .@.%.;.&.- = . 3 [ ; Z.Q.jXgXzXkXxXgXP sXvXkXjXlXE.V.g s W W W W W W W W W W W W W ",
"W W # 2 ' { @.%.;.>.>.@ . 3 ' { 8 V.zXkXkXxXxXcXcXy.d.cXcXkXzXjXlXP.l 6 L L W W W W W W W W W W ",
"W D . ` { X.#.-.:.rXrX7 1 ' { X.9 t.vXvXcXcXMXMXNXi.i.BXMXcXxXxXzXlXP.k 6 W W W W W W W W W W W ",
"! - < { ..$.%.:.eXtXiXO.4 { X.#.o.Y cXMXMXnXNXVXCX7XY VXNXMXcXcXvXbXbXI.g A W W W W W W W W W W ",
"R @ ]  .$.%.:.,.eXeX=.q 4 X.$.-.&.S nXNXNXVXVXVXCXfXI mXVXNXNXMXMXcXvXvXC.a F W W W W W W W W W ",
"D ,  ...o.+.J q 8 o < 4 | @.%.;.:.H aXCXCXCXCXFXFXFXI fXFXCXVXNXnXsXC.i.U * = Q R W W W W W W W ",
"C   , $ # = C D + < '  .@.%.;.>.rXJ sXFXFXFXGXGXHXKX^ 8XdX8Xp.y.T T Y /.8XfXI R Q W W W W W W W ",
"G Z G R W Q W F o ` { @.#.;.:.rXtX&.5XHXHXGXLXdXqX1XZ f P Y i.7XaXmXCXGXJXKXqXZ / R W W W W W W ",
"W W W W W W W s < { X.#.;.:.rXtXiX=.I 8Xp.R P k r.t.V.S.gXcXBXNXVXCXCXFXGXJXJXR W Q W W W W W W ",
"W W W W W W W @ ] X.#.-.-.=.&.O.K f j 4.5.N.!.T.E.lXzXkXxXcXBXNXVXCXCXLXGXJXKX6XD Q W W W W W W ",
"W W W W W W F o ] 0 0 7 a j 4.8.g.L.G.J.J.U.Y.R.E.Q.zXkXxXcXMXMXVXCXCXFXGXJXKXZXD / W W W W W W ",
"W W W W W W Z O h 2.7.f.M.c.b.n.D.D.G.J.J.U.Y.R.E.Q.zXkXxXcXMXNXVXVXFXFXGXJXKXKXQ Q W W W W W W ",
"W W W W W W C 2.h.k.l.l.c.v.b.n.D.F.F.H.J.U.Y.R.E.lXjXkXxXcXMXNXVXVXCXFXGXJXKXPX2XL Q W W W W W ",
"W W W W W W s 7.h.k.l.l.c.v.b.n.D.F.F.J.J.U.Y.R.E.Q.jXkXxXcXMXNXVXCXCXFXLXJXKXIXwXF / R W W W W ",
"W W W W W W = 6.h.k.l.l.c.v.b.n.n.F.F.H.J.U.Y.R.E.jXzXkXxXcXMXNXmXVXFXFXGXJXKXIXZXG ( W W W W W ",
"W W W W W Q - 6.h.k.l.l.c.v.b.n.D.F.F.H.J.U.Y.R.E.jXzXkXxXcXMXNXVXCXFXFXGXJXKXIXAXF ( W W W W W ",
"W W W W W W s 6.h.k.l.l.c.v.b.n.D.F.F.J.J.U.Y.R.E.Q.jXkXxXcXBXnXVXVXFXGXGXJXKXIXKXR ( R W W W W ",
"W W W W W W s 7.h.k.l.c.c.v.b.n.D.F.F.H.J.U.Y.R.E.jXzXgXxXcXMXNXVXCXfX5Xu.^ _ 1XwXF ( W W W W W ",
"W W W W W W C 2.h.k.k.l.c.v.b.n.D.D.H.H.J.U.Y.R.E.E.zXkXxXcXMXNXnXu.Z / 4X9X9X3XF # W ! W W W W ",
"W W W W W W D h h.k.l.c.c.v.b.n.D.D.G.H.J.U.Y.R.E.E.gXkXxXcXMXhXT L pXPXUXPXPXUXAX2X- A W W W W ",
"W W W W W W F e j.k.k.l.c.v.b.n.D.F.G.H.J.U.Y.R.E.jXjXkXxXcXBXY L SXSX4XQ L W 1.pXAX4X- G W W W ",
"W W W W W W W % f.h.k.l.c.v.b.n.D.D.H.H.J.U.Y.R.E.jXjXkXxXcXsXs 0XSXQ H (.6X6X_ A 9XSX/ - W W W ",
"W W W W W W W C 2.k.l.l.c.v.b.n.D.F.G.H.J.U.Y.R.E.jXjXkXxXMXy.! SX*.S mXLXJXKXIX( w yX9X# F W W ",
"W W W W W W W G e z.l.l.c.v.b.n.D.F.F.H.J.U.Y.R.E.jXgXkXxXcXP 1.uXH 5XGXFXGXKXIX/ + 3XyXw D W W ",
"W W W W W W W W % f.l.l.c.v.b.n.D.D.H.H.K.U.Y.R.E.Q.zXkXxXcXS 1.yXH 8XGXGXJXIXZXF w *.uXZ Z W W ",
"W W W W W W W W Z h l.c.c.v.b.n.D.F.F.H.J.U.Y.R.E.Q.jXkXcXhXf *.0X6 5XdXdXdXZX3XD s ~ yXw w ! ! ",
"W W W W W W W W W % 7.l.c.v.b.n.D.D.F.H.J.U.Y.R.E.jXzXkXC.N b /.(.V v B B B V v v b E (.V r = W ",
"W W W W W W W W W D e M.c.v.b.n.D.F.F.H.J.U.Y.R.E.Q.zXkXr.9.=X*X>X:X:X:X:X:X:X:X:X:X:X>X*X`.c D ",
"W W W W W W W W W W C 3.c.v.b.n.D.F.H.H.J.U.Y.W.E.jXzXkXU q.%X<X<X,X,X,X,X,X,X,X,X,X,X,X;X{.c D ",
"W W W W W W W W W W W * 7.c.v.n.D.F.F.H.J.U.Y.R.E.jXjXkXU ^.oX;X-X-X-X-X-X-X-X-X-X-X-X-X%X{.t D ",
"W W W W W W W W W W W F i g.b.n.n.F.F.H.J.U.Y.R.E.Q.zXkXU q.oX%X&X&X&X&X%X+X%X&X&X&X&X%X+X{.r D ",
"W W W W W W W W W W W W F p 8.b.D.F.F.H.J.U.Y.R.E.jXgXkXU q. X$X#X#X#X#X).u B $X#X#X#X$XoX[.t D ",
"W W W W W W W W W W W W W F % 8.m.F.G.H.J.U.Y.R.E.Q.jXkXU 0.|.oXXX@X@X#X~.: c oX@X@X@X$XoX'.t D ",
"W W W W W W W W W W W W W W W C j g.H.H.J.U.Y.R.W.lXgXbXU 0.}..XXX@XXX@X Xy ~.@X@X@X@XXX X'.y D ",
"W W W W W W W W W W W W W W W Q G f 4.N.J.U.Y.R.E.lXjXbXU 0.}..XXXXXXX@X@XM ).@XXXXXXXXX|.'.t D ",
"W W W W W W W W W W W W W W W W ! Q F f l 5.N.A.Z.Z.S.C.g 0.}..X.X@XXXXX@X`.oXXXXXXXXX.X|.].t D ",
"W W W W W W W W W W W W W W W W W W Q / Q R F D S S S I * w.}..X.XXXXXXXXXXXXXXX@XXXXX.X|.].t D ",
"W W W W W W W W W W W W W W W W W W W W W Q ) ) ( ( *./.s 0.}. XXXXXXXXX@XXXXX@XXXXXXX.X|.].y D ",
"W W W W W W W W W W W W W W W W W W W W W W W W W W ~ ~ * e.'.|.|.|.|.|.|.|.|.|.|.|.|.[.[._.t D ",
"W W W W W W W W W W W W W W W W W W W W W W W W W W Q W Z u m m n n n n n n n n n n n n m t * R ",
"W W W W W W W W W W W W W W W W W W W W W W W W W W W W W D A A Z A Z Z Z A Z A A H Z Z Z Z R W "
};
