/* XPM */
static const char *buttonDragDisabled[] = {
/* columns rows colors chars-per-pixel */
"48 48 252 2",
"   c #000000",
".  c #010101",
"X  c #030303",
"o  c #070707",
"O  c #06060F",
"+  c #080808",
"@  c #0A0A0A",
"#  c #08080D",
"$  c #0B0B0D",
"%  c #0C0C0C",
"&  c #0D0D0D",
"*  c #0E0E0E",
"=  c #0F0F0F",
"-  c #000014",
";  c #050515",
":  c #000018",
">  c #00001C",
",  c #00001D",
"<  c #080811",
"1  c #090910",
"2  c #090912",
"3  c #0D0D17",
"4  c #0F0F14",
"5  c #101010",
"6  c #111111",
"7  c #121212",
"8  c #131313",
"9  c #111117",
"0  c #141414",
"q  c #151515",
"w  c #161616",
"e  c #171717",
"r  c #11111C",
"t  c #141418",
"y  c #181818",
"u  c #191919",
"i  c #1A1A1A",
"p  c #1A1A1B",
"a  c #1B1B1B",
"s  c #1C1C1C",
"d  c #1D1D1D",
"f  c #1E1E1E",
"g  c #1E1E1F",
"h  c #1F1F1F",
"j  c #000022",
"k  c #020221",
"l  c #000024",
"z  c #000025",
"x  c #000029",
"c  c #00002E",
"v  c #070728",
"b  c #000030",
"n  c #000031",
"m  c #010130",
"M  c #000032",
"N  c #000033",
"B  c #000034",
"V  c #000036",
"C  c #000037",
"Z  c #000039",
"A  c #00003C",
"S  c #00003F",
"D  c #101023",
"F  c #1A1A22",
"G  c #1B1B27",
"H  c #18182E",
"J  c #1B1B2C",
"K  c #202020",
"L  c #212121",
"P  c #222222",
"I  c #232323",
"U  c #222226",
"Y  c #242424",
"T  c #252524",
"R  c #252525",
"E  c #252527",
"W  c #262625",
"Q  c #262626",
"!  c #272727",
"~  c #242428",
"^  c #292927",
"/  c #282828",
"(  c #292929",
")  c #2A2A2A",
"_  c #2A2A2B",
"`  c #2B2B2B",
"'  c #2C2C2C",
"]  c #2D2D2D",
"[  c #2D2D2E",
"{  c #2E2E2D",
"}  c #2E2E2E",
"|  c #2F2F2F",
" . c #303030",
".. c #313131",
"X. c #323230",
"o. c #323231",
"O. c #323232",
"+. c #333333",
"@. c #343434",
"#. c #353535",
"$. c #343436",
"%. c #363636",
"&. c #373737",
"*. c #383838",
"=. c #393939",
"-. c #3A3A3A",
";. c #3B3B3B",
":. c #3C3C3B",
">. c #3C3C3C",
",. c #3D3D3D",
"<. c #3E3E3E",
"1. c #3F3F3E",
"2. c #3F3F3F",
"3. c #000042",
"4. c #000044",
"5. c #000045",
"6. c #000047",
"7. c #00004A",
"8. c #01014A",
"9. c #00004C",
"0. c #00004D",
"q. c #000050",
"w. c #000052",
"e. c #000055",
"r. c #000058",
"t. c #000059",
"y. c #00005B",
"u. c #00005D",
"i. c #00005E",
"p. c #1B1B40",
"a. c #1F1F41",
"s. c #000061",
"d. c #010164",
"f. c #020264",
"g. c #030368",
"h. c #050569",
"j. c #07076C",
"k. c #0B0B62",
"l. c #0A0A6F",
"z. c #0D0D6A",
"x. c #0E0E72",
"c. c #1F1F60",
"v. c #181869",
"b. c #141478",
"n. c #17177A",
"m. c #1B1B78",
"M. c #1B1B7D",
"N. c #212152",
"B. c #27275A",
"V. c #30306D",
"C. c #404040",
"Z. c #414141",
"A. c #424242",
"S. c #434343",
"D. c #444444",
"F. c #454544",
"G. c #454545",
"H. c #464646",
"J. c #474747",
"K. c #484848",
"L. c #494948",
"P. c #494949",
"I. c #4A4A4A",
"U. c #4B4B4A",
"Y. c #4B4B4B",
"T. c #4C4C4C",
"R. c #4D4D4D",
"E. c #4E4E4E",
"W. c #4F4F4F",
"Q. c #50504F",
"!. c #505050",
"~. c #515151",
"^. c #525252",
"/. c #535353",
"(. c #545453",
"). c #555553",
"_. c #545454",
"`. c #555555",
"'. c #565656",
"]. c #575756",
"[. c #575757",
"{. c #585858",
"}. c #595958",
"|. c #595959",
" X c #5A5A5A",
".X c #5B5B5B",
"XX c #5C5C5C",
"oX c #5D5D5D",
"OX c #5E5E5E",
"+X c #5F5F5F",
"@X c #606060",
"#X c #616161",
"$X c #626262",
"%X c #636363",
"&X c #646464",
"*X c #656564",
"=X c #656565",
"-X c #666666",
";X c #676767",
":X c #686868",
">X c #696969",
",X c #6A6A6A",
"<X c #6B6B6B",
"1X c #6C6C6C",
"2X c #6D6D6D",
"3X c #6E6E6E",
"4X c #6F6F6F",
"5X c #707070",
"6X c #717171",
"7X c #727272",
"8X c #737373",
"9X c #747474",
"0X c #757575",
"qX c #767676",
"wX c #777777",
"eX c #787878",
"rX c #797979",
"tX c #7A7A7A",
"yX c #7B7B7B",
"uX c #7C7C7C",
"iX c #7D7D7D",
"pX c #7E7E7E",
"aX c #7F7F7F",
"sX c #262687",
"dX c #292988",
"fX c #2C2C8A",
"gX c #373795",
"hX c #3B3B99",
"jX c #4646A1",
"kX c #808080",
"lX c #818181",
"zX c #828282",
"xX c #838383",
"cX c #848484",
"vX c #858585",
"bX c #868686",
"nX c #878787",
"mX c #888888",
"MX c #898989",
"NX c #8A8A8A",
"BX c #8B8B8B",
"VX c #8C8C8C",
"CX c #8D8D8D",
"ZX c #8E8E8E",
"AX c #8F8F8F",
"SX c #909090",
"DX c #939393",
"FX c #949494",
"GX c #969696",
"HX c #9A9A9A",
"JX c #9B9B9B",
"KX c #9C9C9C",
/* pixels */
"-X-X-X-X-X-X-X-X-X-X-X-X-X-X-X-X-X-X-X-X-X-X-X-X-X-X-X-X-X-X-X-X-X-X-X-X-X-X-X-X%X-X-X-X-X-X-X-X",
"-X-X-X-X-X-X-X-X-X-X-X-X-X-X-X-X-X-X-X-X-X-X-X-X-X-X-X-X-X-X-X-X-X-X-X-X-X-X-X-X-X-X-X-X-X-X-X-X",
"-X-X-X-X-X-X-X-X-X-X-X-X-X-X-X-X-X-X-X-X:X-X%X-X-X-X;X;X-X-X-X-X-X-X-X-X-X-X-X-X-X-X-X-X-X-X-X-X",
"-X-X-X-X-X-X-X-X-X-X-X-X-X-X-X-X;X-X|.G.#./ I I I [ ,.E.@X;X-X-X-X-X-X-X-X-X-X-X-X-X-X-X-X-X-X-X",
"-X-X-X-X-X-X-X-X-X-X-X-X-X-X-X-XE./ 6 # = 8 w a = = a w f *.'.-X-X-X-X-X-X-X-X-X-X-X-X-X-X-X-X-X",
"-X-X-X-X-X-X-X-X-X-X-X-X-X-X'./ @ = w f K I ^ / I a  .` K 6 w #.OX-X-X-X-X-X-X-X-X-X-X-X-X-X-X-X",
"-X-X-X-X-X-X-X-X-X-X-X-X-XG.9 : # f I W / [ X.#.[ y =.#. .` I 6 f E.-X-X-X-X-X-X-X-X-X-X-X-X-X-X",
"-X-X-X-X-X-X-X-X-X-X-X-X,.< z Z ; W [  .#.*.;.1.,.a ,.A.;.#.[ / a 8 1.-X-X-X-X-X-X-X-X-X-X-X-X-X",
"-X-X-X-X-X-X-X-X-X-X-X,.O j C 4.; ^ *.:.1.1.L.L.E.W ,.E.G.,.=.#.[ I 6 ;.%X;X-X-X-X-X-X-X-X-X-X-X",
"-X-X-X-X-X-X-X-X-X-XL.1 j C 3.q.b ^ F.F.L.U.Q.).|.#.#.|.E.L.G.,.=. ./ 9 1.;X-X-X-X-X-X-X-X-X-X-X",
"-X-X-X-X-X-X-X-X-X|.w > b 3.0.u.6.W U.Q.).].}.OX@XL. .@X|.'.E.L.A.,.=./ w T.-X-X-X-X-X-X-X-X-X-X",
"-X-X-X-X-X-X-X-X-X[ - c A 6.y.g.k.G ).}.oX#X;X;X2X@X[ -X-XOX|./.E.L.A.,./ f |.;X-X-X-X-X-X-X-X-X",
"-X-X-X-X-X-X-X-XW.1 x Z 6.e.d.x.m.H |.-X;X<X4X8XqX8XX.;X4X:X-XOX(.G.#.W a o  .-X-X-X-X-X-X-X-X-X",
"-X-X-X-X-X-X-X-X_ > C 4.q.s.l.M.fXp.'.4X8XqXtXpXxXbX1.XX:X/.,.[ f a a a f f 6 W.-X-X-X-X-X-X-X-X",
"-X-X-X-X-X-X-X'.3 b 3.q.s.j.n.dXhXB.E.yXpXpXtX8X$XQ.^ K W W /  .#.#.#. .` / w / %X-X-X-X-X-X-X-X",
"-X-X-X-X-X-X-X,.> 3.0.y.h.b.sXgXjXV.#.|.L.&.{ ^ X.X.B.H.L.E.L.G.A.,.=.#. .[ W 8 (.-X-X-X-X-X-X-X",
"-X-X-X-X-X-X#X^ b 6.y.f.z.v.c.N.p.J K [ #.G.E.'.|.|.|.'.'.W.E.E.L.S.1.:.&.X.` y #.;X-X-X-X-X-X-X",
"-X-X-X-X-X-XoXq b C c v D F ~  .1.T.(.|.OXOXOXOX+X@XOXOX|.'.'.W.U.L.S.1.*.#.X.I f +X;X-X-X-X-X-X",
"-X-X-X-X-X-XQ.% 9 f W  .,.G.E.W.'.].|.+X@X-X-X-X-X-X-X@X@XOX|.'.Q.Q.L.F.1.*.#.` y W.;X-X-X-X-X-X",
"-X-X-X-X-X:XF.w [ #.;.1.G.L.W.W.|.OX@XOXA.@X2X:X2X2X:X:X-X%XOX|.}.Q.U.L.S.;.*.X.a 1.;X-X-X-X-X-X",
"-X-X-X-X;X;X:.i  .#.,.A.L.E.W.|.OX@XOXI   W -X0X6X6X6X2X2X:X-X@XXX).Q.U.L.1.:.X.K X.;X-X-X-X-X-X",
"-X-X-X-X;X;X&.h #.=.1.G.E.W.|.OX@X'.f       f -XyXyXyX0X6X2X:X-X+XXX).Q.L.F.1.&./ I %X-X-X-X-X-X",
"-X-X-X-X;X;XX.h :.1.A.L.W.'.|.+X-XA./ 6   6  .E.uXlXuXyX0X6X2X:X%XoX}.Q.U.F.1.:.[ K @X-X-X-X-X-X",
"-X-X-X-X;X:X:.h :.B.G.L.W.[.OX-X:X2X0X .   .vXvXvXvXvXlXuXyX6X2X;X#XXX).Q.L.1.1. .f OX-X-X-X-X-X",
"-X-X-X-X-X;X1.h =.A.G.E.W.OX@X-X2X6XyX .   .MXZXZXZXMXvXlXuX0X6X:X-XOX'.W.L.F.1. .a OX;X-X-X-X-X",
"-X-X-X-X-X-XL.d =.A.L.E.].W.OX:X2X0XuX .  #.DXFXFXDXMXuXvXaXyX6X2X-XOX|.W.E.L.1.#.f OX-X-X-X-X-X",
"-X-X-X-X-X:XQ.d ;.A.L.W.E.I '.<X6XyXaX#.  =.FXJXKXHXlX#.0XlXyX6X2X;X@X|.'.Y.G.B. .I @X-X-X-X-X-X",
"-X-X-X-X-X;XoXd #.G.L.L.a @ E.OX-X:X6X|    .MXZXAXZXyX6 W 0XuX0X6X:X@X.X'.E.G.A. .I @X-X-X-X-X-X",
"-X-X-X-X-X-X-X^ [ S.G.f     # = = 6 6 o   + w w w a 6     _ 0X0X2X:X@X.X/.E.G.1.[ [ -X-X-X-X-X-X",
"-X-X-X-X-X-X;X1.I A.1.6                                   a :X0X2X;X@X.X/.E.G.A.I =.-X-X-X-X-X-X",
"-X-X-X-X-X-X;X].s ,.L.;.= + ;.L.Y.W.'.I   W @X-X-X-X[.= 6 @XyX6X2X-X+X|.W.E.G.,.f E.;X-X-X-X-X-X",
"-X-X-X-X-X-X-X-X` [ K.E.;.w '.:X2X0XyX .   .ZXZXDXZXyXI |.uX0X6X:X%XOX|.W.L.G.#.f OX-X-X-X-X-X-X",
"-X-X-X-X&X-X-X;XU.s S.U.Q.S.].%X:X2X0X .   .vXvXMXMXyX@XuXwX6X2X-X@X|.'.E.K.A.W  .-X-X-X-X-X-X-X",
"-X-X-X-X-X-X-X-X&X^ ` U.Q.(..X+X-X2X6X[    .uXlXlXuXuXuXwX6X2X:X-XOX|.W.E.G.,.a W.:X-X-X-X-X-X-X",
"-X-X-X-X-X-X-X-X;XQ.s 1.T.W.]..X@X:X2X[   [ yXuXyXyXyX6X6X2X:X-X@X|.'.E.L.G./ [ -X-X-X-X-X-X-X-X",
"-X-X-X-X-X-X-X-X;X&X&.h K.Q.(.].|.G.A.f   f L.W.2X6X6X2X2X:X-X@XOX'.W.Y.G.=.a W.;X-X-X-X-X-X-X-X",
"-X-X-X-X-X-X-X-X-X-X@XW ` L.E.(.'.A.@       # L.2X2X:X:X:X@X@X|.'.W.E.K.1.K =.-X-X-X-X-X-X-X-X-X",
"&X-X-X-X-X-X-X-X-X-X:X|.K X.L.E.'.|.A.=   6 L.;X-X-X-X@X@XOX|.[.W.E.L.S.W ^ @X-X-X-X-X-X-X-X-X-X",
"-X-X-X-X-X-X-X-X-X-X-X-X'.K [ L.E.W.'.G.I G.+X+XOXOXOX|.|.|./.W.E.H.G./ K |.;X-X-X-X-X-X-X-X-X-X",
"-X-X-X-X-X-X-X-X-X-X-X-X-X'.I ^ G.E.W.'.W.'.[.|.[.|.'.'.'.W.E.L.L.A.W F '.-X-X-X-X-X-X-X-X-X-X-X",
"-X-X-X-X-X-X-X-X-X-X-X-X-X-XOX .f #.L.E.E.E.W./.W.W.W.W.E.L.L.G.#.f / |.-X-X-X-X-X-X-X-X-X-X-X-X",
"-X-X-X-X-X-X-X-X-X-X-X-X-X-X-X-XL.I I +.G.L.Y.Y.E.T.E.L.L.A.=.I f A.@X-X-X-X-X-X-X-X-X-X-X-X-X-X",
"-X-X-X-X-X-X-X-X-X-X-X-X-X-X-X-X;X@XG.W f W | &.=.;.=. .~ K I =.|.-X-X-X-X-X-X-X-X-X-X-X-X-X-X-X",
"-X-X-X-X-X-X-X-X-X-X-X-X-X-X-X-X-X-X-X-X'.A.+./ W W / [ ;.Q.@X-X;X-X-X-X-X-X-X-X-X-X-X-X-X-X-X-X",
"-X-X-X-X-X-X-X-X-X-X-X-X-X-X-X-X-X-X-X-X-X-X-X-X@X%X-X-X-X-X-X-X-X-X-X-X-X-X-X-X-X-X-X-X-X-X-X-X",
"-X-X-X-X-X-X-X-X-X-X-X-X-X-X-X-X-X-X-X-X-X-X-X-X-X;X-X-X-X-X-X-X-X-X-X-X-X-X-X-X-X-X-X-X-X-X-X-X",
"-X-X-X%X-X-X-X-X-X-X-X-X-X-X-X-X-X-X-X-X-X-X-X-X-X-X-X-X-X-X-X-X-X-X-X-X-X-X-X-X-X-X-X-X-X-X-X-X",
"-X-X-X-X-X-X-X-X-X-X-X-X-X-X-X-X-X-X-X-X-X-X-X-X-X-X-X-X-X-X-X-X-X-X-X-X-X-X-X-X-X-X-X-X-X-X-X-X"
};
