/* XPM */
static const char *buttonMiddleSelected[] = {
/* columns rows colors chars-per-pixel */
"48 48 256 2",
"   c #0E0E3C",
".  c #1C1C2E",
"X  c #131335",
"o  c #10103D",
"O  c #1D1D33",
"+  c #360E0E",
"@  c #201D2E",
"#  c #2F2C2C",
"$  c #2E2E33",
"%  c #3E2B2B",
"&  c #31292A",
"*  c #37373A",
"=  c #3C3232",
"-  c #3E3B3B",
";  c #0E0E53",
":  c #161759",
">  c #171747",
",  c #222156",
"<  c #362B52",
"1  c #202069",
"2  c #28286E",
"3  c #2B2863",
"4  c #20207F",
"5  c #121271",
"6  c #401F1F",
"7  c #5C1414",
"8  c #511515",
"9  c #452626",
"0  c #442D2D",
"q  c #4A2E2E",
"w  c #433030",
"e  c #413E3E",
"r  c #483C3E",
"t  c #4C3434",
"y  c #5E2F2F",
"u  c #592828",
"i  c #503E3E",
"p  c #5A3131",
"a  c #6F0B0B",
"s  c #6F1010",
"d  c #761010",
"f  c #6F2525",
"g  c #6A2E2E",
"h  c #6B3434",
"j  c #653636",
"k  c #732323",
"l  c #793A3C",
"z  c #463649",
"x  c #48344B",
"c  c #433A57",
"v  c #434242",
"b  c #474848",
"n  c #4D4D4D",
"m  c #4F5050",
"M  c #5A4747",
"N  c #5B4B4B",
"B  c #524252",
"V  c #555454",
"C  c #565858",
"Z  c #5A5656",
"A  c #5C5C5C",
"S  c #49456E",
"D  c #554D63",
"F  c #6A4C4C",
"G  c #684348",
"H  c #614552",
"J  c #625C5C",
"K  c #6D5B5E",
"L  c #734040",
"P  c #7B4949",
"I  c #765454",
"U  c #785055",
"Y  c #785F5F",
"T  c #665C67",
"R  c #656565",
"E  c #6B6B6B",
"W  c #696363",
"Q  c #776060",
"!  c #7D6060",
"~  c #706C6C",
"^  c #737474",
"/  c #7C7C7C",
"(  c #787373",
")  c #171780",
"_  c #1C1C86",
"`  c #212187",
"'  c #232395",
"]  c #2C2C9C",
"[  c #37388C",
"{  c #31319F",
"}  c #3434A3",
"|  c #3838A5",
" . c #3D3DAA",
".. c #4F4E83",
"X. c #545495",
"o. c #4242AD",
"O. c #4B4CA9",
"+. c #4747B1",
"@. c #4A4AB3",
"#. c #4F4FB8",
"$. c #5556AB",
"%. c #5454BC",
"&. c #5253B4",
"*. c #6F70B8",
"=. c #5E5EC3",
"-. c #6464C9",
";. c #6A6ACE",
":. c #6F6FD3",
">. c #7373D5",
",. c #7C7CDF",
"<. c #7F7FE1",
"1. c #8E0505",
"2. c #8C1414",
"3. c #9A0808",
"4. c #900D0D",
"5. c #872828",
"6. c #863737",
"7. c #9C2626",
"8. c #953F3F",
"9. c #A70303",
"0. c #B40202",
"q. c #B01010",
"w. c #B01A1A",
"e. c #A53E3E",
"r. c #BB2323",
"t. c #AB2727",
"y. c #814444",
"u. c #805151",
"i. c #8B5454",
"p. c #974C4C",
"a. c #975F5F",
"s. c #9F5858",
"d. c #845D60",
"f. c #8A7373",
"g. c #976969",
"h. c #996767",
"j. c #927A7A",
"k. c #A84D4D",
"l. c #AE5A5A",
"z. c #BB4F4F",
"x. c #B14C4C",
"c. c #BA5050",
"v. c #BA5858",
"b. c #A76464",
"n. c #A57D7D",
"m. c #BF6868",
"M. c #B77B7B",
"N. c #C30D0D",
"B. c #C01212",
"V. c #D10707",
"C. c #D01717",
"Z. c #CB3333",
"A. c #D03B3B",
"S. c #ED1C1C",
"D. c #F00808",
"F. c #FE0909",
"G. c #F51010",
"H. c #FD1111",
"J. c #FD1B1B",
"K. c #E92121",
"L. c #FC2626",
"P. c #FB2C2C",
"I. c #F43F3F",
"U. c #FC3434",
"Y. c #FB3A3A",
"T. c #C54E4E",
"R. c #CD4646",
"E. c #CC5959",
"W. c #DF5F5F",
"Q. c #C16A6A",
"!. c #C37070",
"~. c #CE7371",
"^. c #D36161",
"/. c #DC6464",
"(. c #DB6C6C",
"). c #D16D6D",
"_. c #DA7676",
"`. c #E54141",
"'. c #FB4242",
"]. c #FA4C4C",
"[. c #F54D4D",
"{. c #F95656",
"}. c #F95D5D",
"|. c #F35A5A",
" X c #ED6767",
".X c #E66C6C",
"XX c #E77070",
"oX c #EE7777",
"OX c #F16F6F",
"+X c #F96464",
"@X c #F86B6B",
"#X c #F77272",
"$X c #F77979",
"%X c #FA7474",
"&X c #F97B7B",
"*X c #848484",
"=X c #8C8D8D",
"-X c #999393",
";X c #958585",
":X c #AD8787",
">X c #A48787",
",X c #A39A9A",
"<X c #A89999",
"1X c #B08F8F",
"2X c #BB8281",
"3X c #B39C9C",
"4X c #B5A3A3",
"5X c #BBB4B4",
"6X c #8384CE",
"7X c #8B8DDE",
"8X c #8484E4",
"9X c #8B8CE9",
"0X c #9292E9",
"qX c #9393F0",
"wX c #CC9797",
"eX c #C39796",
"rX c #D99090",
"tX c #D99D9D",
"yX c #D49595",
"uX c #C7B7B7",
"iX c #DEB8B6",
"pX c #D1B9B9",
"aX c #EF8080",
"sX c #E58988",
"dX c #EE908F",
"fX c #E39F9F",
"gX c #F68484",
"hX c #F68D8D",
"jX c #F98181",
"kX c #F98A8A",
"lX c #F59595",
"zX c #F59C9C",
"xX c #F99595",
"cX c #F89D9D",
"vX c #EAA6A6",
"bX c #EAB1B0",
"nX c #F5A3A3",
"mX c #F4AAAA",
"MX c #F8A6A5",
"NX c #F4B2B2",
"BX c #F3BBBB",
"VX c #D4CDCD",
"CX c #DACCCC",
"ZX c #DFD8D8",
"AX c #E5C8C8",
"SX c #E2C6C6",
"DX c #E4DDDD",
"FX c #EAD4D4",
"GX c #F3C5C5",
"HX c #F2CCCC",
"JX c #F9CECE",
"KX c #F2D4D4",
"LX c #F1DBDB",
"PX c #E7E0E0",
"IX c #EFE0E0",
"UX c #F2E3E3",
/* pixels */
"R R R R R R R R R R R R R R R R R R R R R R R R R R R R R R R R R R R R R R R R R R R R R R R R ",
"R R R R R R R R R R R R R R R R R R R R R R R R R R R R R R R R R R R R R R R R R R R R R R R R ",
"R R R R R R R R R R R R R R R R R R R R R R R R R R R R R R R R R R R R R R R R R R R R R R R R ",
"R R R R R R R R R R R R R R R R R R C b - = 0 0 & $ - n R R R R R R R R R R R R R R R R R R R R ",
"R R R R R R R R R R R R R R R R n = u 6.x.E.^.(.l : 1 > O * V R R R R R R R R R R R R R R R R R ",
"R R R R R R R R R R R R R R V # % z. X#X%X&X$X&Xl.3  .{ ` : X * A R R R R R R R R R R R R R R R ",
"R R R R R R R R R R R R R v q p.g OX%X$X&X&XgXkX~.< @. .} ] _ ; . n R R R R R R R R R R R R R R ",
"R R R R R R R R R R R R - j (.aXh (.jXgXkXhXhXlXsXx &.#.o.} ] ' 5 X e R R R R R R R R R R R R R ",
"R R R R R R R R R R R e h XXjXhXP Q.hXhXhXlXlXzXzXH &.=.%.+.| ] ' 4   - T R R R R R R R R R R R ",
"R R R R R R R R R R b y .XjXkXlXa.a.xXlXzXzXnXnXmXd.X.>.-.=.@.o.} ] _   < R R R R R R R R R R R ",
"R R R R R R R R R C 0 ^.&XkXlXcXM.u.zXcXnXmXmXmXNXn...8X>.-.=.#.o.| ] ` . n R R R R R R R R R R ",
"R R R R R R R R R = k.&XgXhXlXnXrXF vXmXmXNXNXBXBXwXD 9X8X>.;.=.%.@. .} 4 . A R R R R R R R R R ",
"R R R R R R R R n j oX&XhXlXcXmXvXF tXBXBXBXBXGXHXbXD 0XqX8X<.:.=.O.[ 2 , @ - E R R R R R R R R ",
"R R R R R R R R % v.jXgXlXzXMXNXBXQ eXGXGXGXGXHXKXKXT 6X7X*.X.S c B K j.3XuXJ A R R R R R R R R ",
"R R R R R R R V p oXkXlXzXnXmXBXGXf.n.JXHXHXAXuX4X;Xv x H U h.2XtXbXBXHXJXKX4Xn ~ R R R R R R R ",
"R R R R R R R v p.gXhXlXnXmXBXGXHX<XK 3Xj.Y F l P s.Q._.dXzXnXmXNXNXGXGXJXKXFXW R R R R R R R R ",
"R R R R R R R w ).kXzXzXfXwX:Xf.I j u 6.e.T.W.OX&XjXkXhXlXzXnXmXNXBXBXGXGXFXLX,XV E R R R R R R ",
"R R R R R R C q Q.b.i.l g k 5.t.Z.`.].{.}.+X@X%X$XjXkXhXlXzXnXmXNXNXGXGXHXKXLXCXV ^ R R R R R R ",
"R R R R R R m + d 4.q.C.S.P.U.Y.'.].{.{.}.+X@X#X&XjXgXhXlXzXnXmXNXBXBXGXHXKXLXUX~ R R R R R R R ",
"R R R R R R b 1.F.H.J.J.L.P.U.Y.'.].].{.}.+X@X#X$XjXgXdXlXzXnXmXNXNXGXGXHXFXLXUX-XR E R R R R R ",
"R R R R R R e 9.F.H.J.J.L.P.U.Y.'.'.].{.}.+X@X#X$XaXgXhXlXzXnXmXNXBXBXGXHXKXLXUX5XC ^ R R R R R ",
"R R R R R E - 0.F.H.J.J.L.P.U.Y.'.].{.{.}.+X@X#X$XjXkXhXlXzXnXmXNXNXGXGXHXKXLXUXVXC ( R R R R R ",
"R R R R R R = 0.F.H.J.J.L.P.U.Y.'.'.].{.}.+X@X#X$XjXgXlXlXzXnXmXNXBXBXGXHXFXLXIXDXA ( R R R R R ",
"R R R R R R - 0.F.H.J.J.L.P.U.Y.'.].].{.}.+X@X#XoXjXgXhXlXzXnXmXNXNXGXHXHXKXLXUXDXA / R R R R R ",
"R R R R R E e 9.F.F.J.J.L.P.U.Y.'.'.[.{.}.+X@X#X$XjXgXlXlXzXnXmXNXBXBXGXHXHXLXIXPXA / R R R R R ",
"R R R R R R b 1.F.H.J.J.L.P.U.Y.'.].{.{.}.+X@X#X$XjXgXhXlXzXnXmXNXNXGXGXHXKXLXUXDXR / R R R R R ",
"R R R R R R m s F.H.J.J.L.P.U.Y.'.].[.{.}.+X@X#X$X$XgXdXlXzXnXmXNXBXGXGXHXKXLXUXDXA / R R R R R ",
"R R R R R R A 8 D.H.J.J.L.P.U.Y.'.].].{.}.+X@X#X$XjXhXhXlXzXnXmXbXBXBXGXHXFXLXUXCXA *XR R R R R ",
"R R R R R R R % V.H.J.L.L.P.U.Y.'.].].{.}.+X@X#X$XgXkXhXlXzXnXmXNXBXBXGXHXKXLXUXuXR / R R R R R ",
"R R R R R R R v 3.H.H.J.L.P.U.Y.'.'.].{.}.+X@X#X$X&XgXhXlXzXnXmXmXBXBXGXHXKXLXUX-XE ^ R R R R R ",
"R R R R R R R C 7 G.J.L.L.P.U.Y.'.'.[.{.}.+XOX#X$XgXgXdXlXzXnXmXNXBXBXGXHXKXLXUX^ / E R R R R R ",
"R R R R R R R R % N.H.J.L.P.U.Y.'.].{.{.}.+X@X#X&X&XgXhXlXzXnXmXNXNXGXHXHXKXLXCXA *XE R R R R R ",
"R R R R R R R R m s J.J.L.P.U.Y.'.].].{.}.+X@X#X$XaXgXhXlXzXnXmXNXNXBXGXHXKXLX3XR / R R R R R R ",
"R R R R R R R R R % B.J.L.P.U.Y.'.].].{.}.+X@X#X$XjXgXhXlXzXnXmXNXBXGXGXHXKXFXR *X~ R R R R R R ",
"R R R R R R R R R V 7 K.L.P.U.Y.'.'.].{.}.+X@X#X$XjXhXhXlXzXnXmXNXBXBXGXHXKX4XA *XR R R R R R R ",
"R R R R R R R R R R e 2.L.P.U.Y.'.].{.{.}.+X@X#X$XgXgXhXlXzXnXmXNXBXBXGXHXSXJ *X^ R R R R R R R ",
"R R R R R R R R R R R = w.P.U.Y.'.].].{.{.+X@X#X$XjXhXhXlXzXnXmXNXBXBXHXHXf.E *XR R R R R R R R ",
"R R R R R R R R R R R A 9 r.U.Y.Y.].].{.}.+X@X#X$XaXgXhXlXzXnXmXNXNXBXHX>XC =XE R R R R R R R R ",
"R R R R R R R R R R R R A 9 r.Y.'.].{.{.}.+X@X#X$XjXgXhXlXzXnXmXNXBXGX1XV =X^ R R R R R R R R R ",
"R R R R R R R R R R R R E A w 7.I.].].{.}.+X@X#X$XjXgXdXlXzXnXmXNXbXn.N =X^ R R R R R R R R R R ",
"R R R R R R R R R R R R R R R v f A.].{.|.+X@X#X$X&XkXhXlXzXnXmXtX! A =X^ R R R R R R R R R R R ",
"R R R R R R R R R R R R R R R E A t 6.R.|.+X@X#X$XjXkXhXcXzXrXg.N ^ =X^ R R R R R R R R R R R R ",
"R R R R R R R R R R R R R R R R R ~ A r h 8.c.^.(.(._.!.b.I N E =X/ R R R R R R R R R R R R R R ",
"R R R R R R R R R R R R R R R R R R E ^ ~ R V M M N N Z R / =X/ R R R R R R R R R R R R R R R R ",
"R R R R R R R R R R R R R R R R R R R R R E ^ ^ / / / / ( ~ R R R R R R R R R R R R R R R R R R ",
"R R R R R R R R R R R R R R R R R R R R R R R R R R R R W R R R R R R R R R R R R R R R R R R R ",
"R R R R R R R R R R R R R R R R R R R R R R R R R R R R R R R R R R R R R R R R R R R R R R R R ",
"R R R R R R R R R R R R R R R R R R R R R R R R R R R R R R R R R R R R R R R R R R R R R R R R "
};
