/* XPM */
static char * buttonMiddleLocked[] = {
"48 48 245 2",
"  	c None",
". 	c #666666",
"+ 	c #656565",
"@ 	c #626262",
"# 	c #5F5E5E",
"$ 	c #5D5C5C",
"% 	c #5B5A5A",
"& 	c #5E5E5E",
"* 	c #595858",
"= 	c #5A5959",
"- 	c #696868",
"; 	c #8C8B8B",
"> 	c #B3B2B2",
", 	c #CECDCD",
"' 	c #E1E1E1",
") 	c #EAE9E9",
"! 	c #CECECE",
"~ 	c #B3B3B3",
"{ 	c #8C8C8C",
"] 	c #818181",
"^ 	c #BDBCBC",
"/ 	c #DEDEDE",
"( 	c #EFEFEF",
"_ 	c #FCFCFC",
": 	c #FFFFFF",
"< 	c #F0F0F0",
"[ 	c #BDBDBD",
"} 	c #828181",
"| 	c #5E5D5D",
"1 	c #5C5B5B",
"2 	c #7D7D7D",
"3 	c #CCCCCC",
"4 	c #F5F5F5",
"5 	c #FEFEFE",
"6 	c #7F7F7F",
"7 	c #636262",
"8 	c #ACACAC",
"9 	c #F6F6F6",
"0 	c #EAEAEA",
"a 	c #F8F8F8",
"b 	c #AFAEAE",
"c 	c #767575",
"d 	c #CDCDCD",
"e 	c #FDFDFD",
"f 	c #E5E5E5",
"g 	c #E2E2E2",
"h 	c #FBFBFB",
"i 	c #BD736A",
"j 	c #E82C15",
"k 	c #FAFAFA",
"l 	c #E0E0E0",
"m 	c #CFCFCF",
"n 	c #777676",
"o 	c #7B7A7A",
"p 	c #DDDDDD",
"q 	c #C0BFBF",
"r 	c #AEAEAE",
"s 	c #C94434",
"t 	c #EB2B13",
"u 	c #ADACAC",
"v 	c #686767",
"w 	c #C1C0C0",
"x 	c #7C7B7B",
"y 	c #5D5D5D",
"z 	c #747474",
"A 	c #DBDADA",
"B 	c #DCDCDC",
"C 	c #8F8E8E",
"D 	c #D6D6D6",
"E 	c #D5D4D4",
"F 	c #E0301A",
"G 	c #D5D5D5",
"H 	c #757474",
"I 	c #656464",
"J 	c #CACACA",
"K 	c #CBCBCB",
"L 	c #6E6E6E",
"M 	c #8A8989",
"N 	c #B4B4B4",
"O 	c #E42D16",
"P 	c #898888",
"Q 	c #676666",
"R 	c #A6A5A5",
"S 	c #6A6969",
"T 	c #A5A5A5",
"U 	c #C0584B",
"V 	c #E92C14",
"W 	c #F9F9F9",
"X 	c #A4A3A3",
"Y 	c #A7A7A7",
"Z 	c #F3F3F3",
"` 	c #DBDBDB",
" .	c #727272",
"..	c #F4F4F4",
"+.	c #D33825",
"@.	c #D43724",
"#.	c #C5C5C5",
"$.	c #F2F2F2",
"%.	c #878686",
"&.	c #5C5C5C",
"*.	c #D9D8D8",
"=.	c #DD311B",
"-.	c #D9D9D9",
";.	c #C6C6C6",
">.	c #B5B5B5",
",.	c #646363",
"'.	c #787777",
").	c #E7E7E7",
"!.	c #BF9C97",
"~.	c #E32E17",
"{.	c #E42D17",
"].	c #BF9994",
"^.	c #E8E8E8",
"/.	c #636363",
"(.	c #AEADAD",
"_.	c #858484",
":.	c #BFBEBE",
"<.	c #D3D2D2",
"[.	c #6B6A6A",
"}.	c #626161",
"|.	c #838383",
"1.	c #ECECEC",
"2.	c #C15447",
"3.	c #C35041",
"4.	c #EEEEEE",
"5.	c #646464",
"6.	c #6E6D6D",
"7.	c #E6E6E6",
"8.	c #AAAAAA",
"9.	c #605F5F",
"0.	c #C64839",
"a.	c #D03A28",
"b.	c #ABABAB",
"c.	c #A8A7A7",
"d.	c #706F6F",
"e.	c #908F8F",
"f.	c #F1F1F1",
"g.	c #CAC9C9",
"h.	c #C84535",
"i.	c #D53622",
"j.	c #E4E3E3",
"k.	c #D0D0D0",
"l.	c #7E7D7D",
"m.	c #929191",
"n.	c #B2B1B1",
"o.	c #D1D1D1",
"p.	c #DF301A",
"q.	c #C8BEBD",
"r.	c #B8B8B8",
"s.	c #D8D8D8",
"t.	c #F7F7F7",
"u.	c #EDEDED",
"v.	c #838282",
"w.	c #888787",
"x.	c #747373",
"y.	c #EBEBEB",
"z.	c #76735A",
"A.	c #BCAD2C",
"B.	c #F0D80A",
"C.	c #F8DF04",
"D.	c #F1D80A",
"E.	c #BEAF2A",
"F.	c #77735A",
"G.	c #72705E",
"H.	c #D7C31B",
"I.	c #FDE301",
"J.	c #DAC519",
"K.	c #B8AA2F",
"L.	c #D9C41A",
"M.	c #D7C31A",
"N.	c #73705E",
"O.	c #BCAD2D",
"P.	c #FFE400",
"Q.	c #BAAB2E",
"R.	c #76735C",
"S.	c #706E60",
"T.	c #B9AB2E",
"U.	c #BDAE2C",
"V.	c #716F5E",
"W.	c #F4DB07",
"X.	c #E9D20F",
"Y.	c #E9D20E",
"Z.	c #8B8A8A",
"`.	c #DFDFDF",
" +	c #5B5B5B",
".+	c #C4C3C3",
"++	c #6C6B62",
"@+	c #CDBB21",
"#+	c #CEBC20",
"$+	c #FEE301",
"%+	c #A3A2A2",
"&+	c #8C864C",
"*+	c #D8C41A",
"=+	c #88824F",
"-+	c #878150",
";+	c #D9C519",
">+	c #FCE202",
",+	c #8C854D",
"'+	c #D2D2D2",
")+	c #A9A9A9",
"!+	c #B2B2B2",
"~+	c #F5DC06",
"{+	c #DDC816",
"]+	c #DEC916",
"^+	c #DCC717",
"/+	c #D5C11C",
"(+	c #616060",
"_+	c #959494",
":+	c #F7DE05",
"<+	c #C2C2C2",
"[+	c #EDD50C",
"}+	c #EBD40D",
"|+	c #7F7E7E",
"1+	c #C8C7C7",
"2+	c #C8C8C8",
"3+	c #A09F9F",
"4+	c #B1B0B0",
"5+	c #E6E5E5",
"6+	c #909090",
"7+	c #EFD70B",
"8+	c #949393",
"9+	c #B7B7B7",
"0+	c #929292",
"a+	c #EDD50B",
"b+	c #FBE103",
"c+	c #EAD30C",
"d+	c #B9B9B9",
"e+	c #606060",
"f+	c #616161",
"g+	c #CCCBCB",
"h+	c #6F6E6E",
"i+	c #A8A8A8",
"j+	c #7A7979",
"k+	c #A2A1A1",
"l+	c #BBBABA",
"m+	c #9E9D9D",
"n+	c #717070",
"o+	c #B7B6B6",
"p+	c #B9B8B8",
"q+	c #727171",
"r+	c #737272",
"s+	c #D4D4D4",
"t+	c #E9E9E9",
"u+	c #ACABAB",
"v+	c #7D7C7C",
". . . . . . . . . . . . . . . . . . . . . . . . . . . . . . . . . . . . . . . . . . . . . . . . ",
". . . . . . . . . . . . . . . . . . . . . . . . . . . . . . . . . . . . . . . . . . . . . . . . ",
". . . . . . . . . . . . . . . . . . + @ # $ % % % % $ # @ + . . . . . . . . . . . . . . . . . . ",
". . . . . . . . . . . . . . . . & * * * * * * * * * * * * * * & . . . . . . . . . . . . . . . . ",
". . . . . . . . . . . . . . . & * = - ; > , ' ) ) ' ! ~ { - = * & . . . . . . . . . . . . . . . ",
". . . . . . . . . . . . . & * * % ] ^ / ( _ : : : : _ < / [ } % * * & . . . . . . . . . . . . . ",
". . . . . . . . . . . . | * 1 2 3 4 5 : : : : : : : : : : 5 4 , 6 1 * | . . . . . . . . . . . . ",
". . . . . . . . . . . 1 * 7 8 9 : : : 5 : 5 4 0 0 4 5 5 5 : : : a b 7 * 1 . . . . . . . . . . . ",
". . . . . . . . . . 1 * c d : : : e f g h : i j j i : k l f e : : : m n * 1 . . . . . . . . . . ",
". . . . . . . . . 1 * o p : : : < q - r h 4 s t t s 4 h u v w < : : : / x * 1 . . . . . . . . . ",
". . . . . . . . y * z A : : 5 B C * | D : E F t t F E : G | * C B 5 : : B H * y . . . . . . . . ",
". . . . . . . & * I J : : 5 K L * * M ( : N O t t O N : ( P * * L J 5 : : K Q * & . . . . . . . ",
". . . . . . . * % R : : : d S * $ * T k 5 U V t t V U : W X * $ * S d : : : Y % * . . . . . . . ",
". . . . . . | * o Z : : `  .* $ * 1 q : ..+.t t t t @...: q 1 * $ *  .` : : ..x * | . . . . . . ",
". . . . . & * $ #.: : $.%.* &.+ * - *.: A =.t t t t =.-.: *.v * + &.* %...: : ;.| * & . . . . . ",
". . . . . * = } _ : 5 >.* % + ,.* '.).: !.~.t t t t {.].: ^.o * /.+ % * (.k : _ _.= * . . . . . ",
". . . . . * $ :.: 5 <.[.* }.. 7 * |.1.: 2.t t t t t t 3.: 4.%.* @ . @ * ,.m 5 : w | * . . . . . ",
". . . . 5.* 6.7.: h 8.* $ . . 9.* R W : 0.t t t t t t a.a k b.* & . . y * c.k : ^.d.* 5.. . . . ",
". . . . }.* e._ : f.; * 1 1 1 1 * g.: : h.t t t t t t i.j.: k.= * 1 1 1 * l.1.: _ m.* }.. . . . ",
". . . . # * n.: : 3 * * * * * * * o.: ( p.t t t t t t t q.: D * * * * * * * r._ : N * # . . . . ",
". . . . $ * m : : f.s.-.-.-.-.-.` 9 : k / -.-.-.-.-.-.B f.: t.p -.-.-.-.-.*.1.5 : o.* $ . . . . ",
". . . . % * j.: : : : : : : : : : : : : : : : : : : : : : : : : : : : : : : : : : 7.* % . . . . ",
". . . . = * Z : : : : : : : : : : : : : : : : : : : : : : : : : : : : : : : : : : 4 * = . . . . ",
". . . . * * _ : u.v.v v v v v v v v v v v v v v v v v v v v v v v v v v v v w.( : 5 * * . . . . ",
". . . . * * : : 0 x.* * * * * * * * * * * * * * * * * * * * * * * * * * * * c y.: : * * . . . . ",
". . . . * * 5 : y.c * 5.+ + + + + + + + z.A.B.C.C.D.E.F.+ + + + + + + + ,.* '.y.: : * * . . . . ",
". . . . * * a : u.l.* /.. . . . . . . G.H.I.J.K.K.L.I.M.N.. . . . . . . /.* 6 u.: h * * . . . . ",
". . . . = * u.: $.C * }.. . . . . . . O.P.Q.R.S.S.R.T.P.U.Q . . . . . . @ * w.f.: < * = . . . . ",
". . . . 1 * B : k 8.* | . . . . . . V.W.X.V.. . . . V.Y.W.N.. . . . . . @ * Z.$.: `.*  +. . . . ",
". . . . | * .+: : k.9.* + . . . . . ++P.@+. . . . . . #+$+++. . . . . . | * %+a : ;.* y . . . . ",
". . . . 9.* R : : f.; * @ . . . . . &+P.*+=+=+=+=+=+-+;+>+,+. . . . . 5.* }.'+: : )+* 9.. . . . ",
". . . . 7 * _.W : _ !+* | . . . . . H.P.~+{+]+]+]+]+^+~+$+/+. . . . . (+* _+4 : k w.* @ . . . . ",
". . . . + * Q A : : m | * . . . . . :+P.P.P.P.P.P.P.P.P.P.~+. . . . .  +* <+5 : B - * + . . . . ",
". . . . . * 1 8.: : ) ] * | . . . . [+P.P.P.P.P.P.P.P.P.P.}+. . . . | * |+^.: : u 1 * . . . . . ",
". . . . . & * z f.: : 1+9.* ,.. . . [+P.P.P.P.P.P.P.P.P.P.}+. . . ,.* 9.2+: : ..c * & . . . . . ",
". . . . . . * % r : : a 3+* % + . . [+P.P.P.P.P.P.P.P.P.P.}+. . + % * 3+a : : 4+1 * . . . . . . ",
". . . . . . & * L j.: : ( w.* % I . [+P.P.P.P.P.P.P.P.P.P.}+. I % * w.( : : 5+d.* & . . . . . . ",
". . . . . . . * = 6+: : : f v.* = @ 7+P.P.P.P.P.P.P.P.P.P.[+@ = * v.f : : : 8+= * . . . . . . . ",
". . . . . . . & * | 9+: : : 5+0+* * a+b+b+b+b+b+b+b+b+b+b+c+* * 0+5+: : : d+| * & . . . . . . . ",
". . . . . . . . | * - g.: : : f.> Q * % # /.. . . /.e+| * * }.> f.: : : 3 S * | . . . . . . . . ",
". . . . . . . . . $ * 6.K : : : k `.w.* * * = = * * * * f+{ p k : : : g+h+* $ . . . . . . . . . ",
". . . . . . . . . . $ * Q r.: : : : f./ i+I * * $ j+k+<+y.f.: : : : l+- * $ . . . . . . . . . . ",
". . . . . . . . . . . y * # m+1.: : : : k Z ( ( ( 4 k e : : : : u.3+# * $ . . . . . . . . . . . ",
". . . . . . . . . . . . | * % n+o+y.e : : : : : : : : : : e y.p+q+% * | . . . . . . . . . . . . ",
". . . . . . . . . . . . . & * * = r+b.s+t+9 5 : : 5 9 t+G u+r+= * * & . . . . . . . . . . . . . ",
". . . . . . . . . . . . . . . & * * (+v+T w s+p p s+w T l.}.= * & . . . . . . . . . . . . . . . ",
". . . . . . . . . . . . . . . . . | * * * * * * * * * * * * * & . . . . . . . . . . . . . . . . ",
". . . . . . . . . . . . . . . . . . + /.e+| &.1 1 &.| e+/.+ . . . . . . . . . . . . . . . . . . "};
