/* XPM */
static const char *buttonLeftSelected[] = {
/* columns rows colors chars-per-pixel */
"48 48 121 2 ",
"   c black",
".  c #353535",
"X  c #3A3A3A",
"o  c #3F3F3F",
"O  c #414141",
"+  c #434343",
"@  c gray27",
"#  c #494949",
"$  c #4B4B4B",
"%  c #4C4C4C",
"&  c #505050",
"*  c #565656",
"=  c gray34",
"-  c gray35",
";  c gray36",
":  c gray37",
">  c #606060",
",  c gray38",
"<  c gray39",
"1  c gray40",
"2  c #676767",
"3  c gray42",
"4  c gray43",
"5  c gray45",
"6  c #747474",
"7  c #797979",
"8  c gray49",
"9  c red",
"0  c #FE0505",
"q  c #F60F0F",
"w  c #FC1515",
"e  c #FF1919",
"r  c #F94444",
"t  c #ED6F6F",
"y  c #FC7171",
"u  c #FD7A7A",
"i  c #3B3BBF",
"p  c #4040BE",
"a  c #5252BA",
"s  c #5757B9",
"d  c #5858BA",
"f  c #6565B9",
"g  c #6868B9",
"h  c #7979B9",
"j  c #7B7BB9",
"k  c #1F1FCD",
"l  c #1717D6",
"z  c #1616D7",
"x  c #1A1AD3",
"c  c #1313DA",
"v  c #2C2CC6",
"b  c #2323CB",
"n  c #2525CA",
"m  c #2020CE",
"M  c #3636C2",
"N  c #3232C4",
"B  c #0707ED",
"V  c #0909E9",
"C  c #0505F0",
"Z  c #0303F4",
"A  c #0202F9",
"S  c blue",
"D  c gray51",
"F  c #888888",
"G  c #8D8D8D",
"H  c #929292",
"J  c gray59",
"K  c #9A9A9A",
"L  c #9D9D9D",
"P  c #A2A2A2",
"I  c gray64",
"U  c #A4A4A4",
"Y  c gray66",
"T  c #A9A9A9",
"R  c #ACACAC",
"E  c #AEAEAE",
"W  c #A1A1BD",
"Q  c #B1B1B1",
"!  c #B4B4B4",
"~  c gray72",
"^  c gray75",
"/  c #FE8484",
"(  c #FE8888",
")  c #FF9F9F",
"_  c #FCA0A0",
"`  c #FFADAD",
"'  c #FFB1B1",
"]  c #FEBABA",
"[  c #AFAFC0",
"{  c #C0C0C0",
"}  c #C3C3C3",
"|  c #C2C2C5",
" . c gray77",
".. c #CBCBCB",
"X. c gray80",
"o. c #D0D0D0",
"O. c LightGray",
"+. c gray83",
"@. c gray84",
"#. c #D7D7D7",
"$. c gray86",
"%. c gainsboro",
"&. c gray87",
"*. c #FFC1C1",
"=. c #FEC6C6",
"-. c #FECBCB",
";. c #FFD8D8",
":. c gray88",
">. c gray89",
",. c gray90",
"<. c #E6E6E6",
"1. c #EAEAEA",
"2. c #ECECEC",
"3. c #FFEBEB",
"4. c gray94",
"5. c #F4F4F4",
"6. c #FFF1F1",
"7. c #FFF6F6",
"8. c #F9F9F9",
"9. c gray99",
"0. c gray100",
/* pixels */
"1 1 1 1 1 1 1 1 1 1 1 1 1 1 1 1 1 1 1 1 1 1 1 1 1 1 1 1 1 1 1 1 1 1 1 1 1 1 1 1 1 1 1 1 1 1 1 1 ",
"1 1 1 1 1 1 1 1 1 1 1 1 1 1 1 1 1 1 , * % O o X X o @ # * , 1 1 1 1 1 1 1 1 1 1 1 1 1 1 1 1 1 1 ",
"1 1 1 1 1 1 1 1 1 1 1 1 1 1 1 1 # . . . . . . . . . . . . . . # 1 1 1 1 1 1 1 1 1 1 1 1 1 1 1 1 ",
"1 1 1 1 1 1 1 1 1 1 1 1 1 1 1 # . . # 5 P } $.<.<.$.} P 6 # . . # 1 1 1 1 1 1 1 1 1 1 1 1 1 1 1 ",
"1 1 1 1 1 1 1 1 1 1 1 1 1 @ . . . 1 E @.2.0.0.0.0.0.0.2.$.E 1 . . . # 1 1 1 1 1 1 1 1 1 1 1 1 1 ",
"1 1 1 1 1 1 1 1 1 1 1 1 @ . X , } 4.8.0.0.0.0.0.0.0.0.0.0.0.4.} 1 X . @ 1 1 1 1 1 1 1 1 1 1 1 1 ",
"1 1 1 1 1 1 1 1 1 1 1 O . O K 5.0.0.0.0.0.0.2.<.<.2.0.0.0.0.0.0.5.L O . O 1 1 1 1 1 1 1 1 1 1 1 ",
"1 1 1 1 1 1 1 1 1 1 o . - } 0.0.3./ w t 8.0.8 1 2 8 0.5.$.&.0.0.0.0. .- . o 1 1 1 1 1 1 1 1 1 1 ",
"1 1 1 1 1 1 1 1 1 O . : @.0.0.] 9 9 9 q 8.4.1 1 1 , 4.8.L , J >.0.0.0.@., . O 1 1 1 1 1 1 1 1 1 ",
"1 1 1 1 1 1 1 1 @ . * O.0.0.( 9 9 9 9 0 0.X., 1 1 1 X.0.X.1 2 2 ^ 0.0.0.@.* . @ 1 1 1 1 1 1 1 1 ",
"1 1 1 1 1 1 1 # . @ ^ 0.0.*.*.*./ e 9 r 0.U 1 1 1 , U 0.1.4 2 1 , P 0.0.0.^ @ . # 1 1 1 1 1 1 1 ",
"1 1 1 1 1 1 1 . . H 0.0.7.0.0.0.0.3.e y 0.4 1 1 1 1 4 0.5.7 1 1 1 1 U 0.0.0.J . . 1 1 1 1 1 1 1 ",
"1 1 1 1 1 1 # . : 4.0.;.0.T o o T 0./ ) 4., 1 1 1 1 , 4.0.J , 1 1 1 , ~ 0.0.4.: . @ 1 1 1 1 1 1 ",
"1 1 1 1 1 # . X ~ 0.3.*.0.o     o 0.=.0.@., 1 1 1 1 , @.0.O., 1 1 1 1 2 1.0.0.~ X . # 1 1 1 1 1 ",
"1 1 1 1 1 . . 1 0.0./ *.0.o     o 0.-.0.K , 1 1 1 1 , J 0.<.1 1 1 1 1 1 D 8.0.0.2 . . 1 1 1 1 1 ",
"1 1 1 1 1 . X Q 0.] 9 / 0.T o o T 0._ 0.4 1 1 1 1 1 1 2 0.2.2 1 1 1 1 1 1 T 0.0.Q X . 1 1 1 1 1 ",
"1 1 1 1 , . % >.0.u 9 e 3.0.0.0.0.3./ 0.1 1 1 1 1 1 1 , 5.5.8 2 1 1 1 1 1 8 8.0.>.& . > 1 1 1 1 ",
"1 1 1 1 * . 7 8.3.9 9 9 e / *.*./ e ` 0.1 1 1 1 1 1 1 , >.0.E 1 1 1 1 1 1 1 $.0.9.7 . * 1 1 1 1 ",
"1 1 1 1 % . P 0.' 9 9 9 9 9 9 9 9 9 ] 1.1 1 1 1 1 1 1 1 ! 0.! 1 1 2 1 1 1 1 G 8.0.P . # 1 1 1 1 ",
"1 1 1 1 O .  .0.3.9 9 9 9 9 9 9 9 9 6.8.@.X.O.O.O.X.O.O.2.0.2.^ ~ ~ ~ ~ ~ ~ $.0.0.... O 1 1 1 1 ",
"1 1 1 1 o . &.0.0.3.*.=.=.=.=.*.-.6.0.0.0.0.0.0.0.0.0.0.0.0.0.0.0.0.0.0.0.0.0.0.0.>.. o 1 1 1 1 ",
"1 1 1 1 X . 1.0.0.0.0.0.0.0.0.0.0.0.0.0.0.0.0.0.0.0.0.0.0.0.0.0.0.0.0.0.0.0.0.0.0.4.. . 1 1 1 1 ",
"1 1 1 1 . . 8.0.1.n V V V V V V V V V V V V V V V V V V V V V V V V V V V V v 2.0.0.. . 1 1 1 1 ",
"1 1 1 1 . . 0.0.<.c S S S S S S S S S S S S S S S S S S S S S S S S S S S S z <.0.0.. . 1 1 1 1 ",
"1 1 1 1 . . 0.0.<.z S S S S S S S S S S S S S S S S S S S S S S S S S S S S z <.0.0.. . 1 1 1 1 ",
"1 1 1 1 X . 5.0.1.m S S S S S S S S S S S S S S S S S S S S S S S S S S S S m 2.0.8.. . 1 1 1 1 ",
"1 1 1 1 X . 1.0.2.M S S S S S S S S S S S S S S S S S S S S S S S S S S S S v 2.0.2.. X 1 1 1 1 ",
"1 1 1 1 o . @.0.8.g S S S S S S S S S S S S S S S S S S S S S S S S S S S S v 4.0.$.. O 1 1 1 1 ",
"1 1 1 1 @ . ~ 0.0. .Z S S S S S S S S S S S S S S S S S S S S S S S S S S S d 5.0.~ . @ 1 1 1 1 ",
"1 1 1 1 % . H 0.0.2.N S S S S S S S S S S S S S S S S S S S S S S S S S S C ..0.0.J . % 1 1 1 1 ",
"1 1 1 1 - . 2 8.0.0.h S S S S S S S S S S S S S S S S S S S S S S S S S S p 4.0.8.4 . - 1 1 1 1 ",
"1 1 1 1 , . @ @.0.0.| A S S S S S S S S S S S S S S S S S S S S S S S S S W 0.0.@.# . , 1 1 1 1 ",
"1 1 1 1 1 . X J 0.0.<.b S S S S S S S S S S S S S S S S S S S S S S S S x >.0.0.L . . 1 1 1 1 1 ",
"1 1 1 1 1 @ . * 1.0.0.[ Z S S S S S S S S S S S S S S S S S S S S S S Z ! 0.0.4.- . @ 1 1 1 1 1 ",
"1 4 , 1 1 1 . . L 0.0.5.a S S S S S S S S S S S S S S S S S S S S S S a 5.0.0.P X . 1 1 1 1 1 1 ",
"1 % . % 1 1 # . & &.0.0.2.v S S S S S S S S S S S S S S S S S S S S v 2.0.0.>.& . # 1 1 % . % 1 ",
"1 X . . # 1 1 . . 7 0.0.0.&.n S S S S S S S S S S S S S S S S S S n &.0.0.0.8 . . 1 1 # . . X 1 ",
"1 . . . . # 1 # . X Y 0.0.0.>.i S S S S S S S S S S S S S S S S i >.0.0.0.T X . # 1 # . . . . 1 ",
"1 . . P . . # 1 # . # ^ 0.0.0.2.h B S S S S S S S S S S S S C j 1.0.0.0.} # . # 1 # . . P . . 1 ",
"1 . . 0.Q : . # 1 @ . % { 0.0.0.5.$.v S S S S S S S S S C N @.8.0.0.0.} % . @ 1 # . : E 0.. . 1 ",
"1 . . 0.0.^ 2 . # 1 @ . @ Y 0.0.0.0.1.@.f B S S A x s W <.1.0.0.0.0.T # . @ 1 # . 2 ^ 0.0.. . 1 ",
"1 . . 0.0.0.X.7 . # , @ . o F <.0.0.0.0.8.4.2.1.2.4.8.0.0.0.0.0.1.F o . @ , # . 7 X.0.0.0.. . 1 ",
"1 . . 0.0.0.0.&.F . # : # . X % U <.0.0.0.0.0.0.0.0.0.0.0.0.<.T & X . @ : # . F >.0.0.0.0.. . 1 ",
"1 . . 0.0.0.0.0.1.F . # : # . . X & K ..<.5.0.0.0.0.2.<...K * . . . # : # . F 1.0.0.0.0.0.. . 1 ",
"1 . . 0.0.0.0.0.0.8.F . . - 1 # . . O , H Q ..@.@...Q H , O . . # 1 - . . F 5.0.0.0.0.0.0.. . 1 ",
"1 . . . . . . . . . . . . @ 1 1 1 @ . . . . . . . . . . . . . # 1 1 @ . . . . . . . . . . . . 1 ",
"1 # . . . . . . . . . . @ - 1 1 1 1 1 - & # O o O O @ & - 1 1 1 1 1 - @ . . . . . . . . . . # 1 ",
"1 1 1 1 1 1 1 1 1 1 1 1 2 1 1 1 1 1 1 1 1 1 1 1 1 1 1 1 1 1 1 1 1 1 2 2 1 1 1 1 1 1 1 1 1 1 1 1 "
};
