/* XPM */
static const char *buttonShowMainWindow[] = {
/* columns rows colors chars-per-pixel */
"48 48 91 1 ",
"  c #353535",
". c #393939",
"X c gray23",
"o c #3C3C3C",
"O c #414141",
"+ c gray27",
"@ c #4B4B4B",
"# c #4E4E4E",
"$ c #505050",
"% c #5B5B5B",
"& c gray37",
"* c #606060",
"= c gray40",
"- c #686868",
"; c gray49",
": c #1D6FD0",
"> c #1E70D0",
", c #1F70D0",
"< c #2172D1",
"1 c #2675D2",
"2 c #2876D2",
"3 c #2D79D3",
"4 c #2E7AD4",
"5 c #2F7AD4",
"6 c #347ED5",
"7 c #357ED5",
"8 c #3981D6",
"9 c #3D83D7",
"0 c #4085D7",
"q c #4488D8",
"w c #478AD9",
"e c #498BD9",
"r c #4D8DDA",
"t c #4F8FDA",
"y c #508FDB",
"u c #5593DC",
"i c #5693DC",
"p c #5A96DD",
"a c #5C97DD",
"s c #5F99DE",
"d c #639CDF",
"f c #669DDF",
"g c #689FE0",
"h c #69A0E0",
"j c #6DA2E1",
"k c #73A6E2",
"l c #74A6E2",
"z c #78A9E3",
"x c #7DACE4",
"c c #838383",
"v c #83B0E5",
"b c #89B4E6",
"n c #8CB6E7",
"m c #8FB8E8",
"M c #93BAE9",
"N c #96BCE9",
"B c #99BEEA",
"V c #9FC2EB",
"C c #A0C3EB",
"Z c #A2C4EC",
"A c #A7C7ED",
"S c #A8C8ED",
"D c #ACCAEE",
"F c #AECCEE",
"G c #BAD3F1",
"H c #BDD5F1",
"J c #CDCDCD",
"K c #C1D7F2",
"L c #C3D9F2",
"P c #C6DBF3",
"I c #CCDEF4",
"U c #D0E1F5",
"Y c #D3E3F6",
"T c #D7E6F7",
"R c #DCE8F8",
"E c gray90",
"W c #E7E7E7",
"Q c #EAEAEA",
"! c #E0EBF9",
"~ c #E3EDF9",
"^ c #E4EDF9",
"/ c #E9F1FA",
"( c #ECF3FB",
") c #EEF4FB",
"_ c #F2F7FC",
"` c #F7FAFD",
"' c #FBFBFB",
"] c #F8FAFE",
"[ c #FBFDFE",
"{ c #FDFDFD",
"} c gray100",
/* pixels */
"================================================",
"================================================",
"================================================",
"==*$XXXXXXXXXXXXXXXXXXXXXXXXXXXXX           X%==",
"==#o                                         o==",
"==X -QWWWWWWWWWWWWWWWWWWWWWWWWWWO            X==",
"==X W}}}}}}}}}}}}}}}}}}}}}}}}}}}  }}}}}}}}}}  ==",
"==X W}}}}}}}}}}}}}}}}}}}}}}}}}}}  }}}}}}}}}}  ==",
"==X E}}}}}}}}}}}}}}}}}}}}}}}}}}}  }}}}}}}}}}  ==",
"==X E}}}}}}}}}}}}}}}}}}}}}}}}}}}  }        }  ==",
"==X E}}}}}}}}}}}}}}}}}}}}}}}}}}}  }        }  ==",
"==X E}}}}}}}}}}}}}}}IxyepV/}}}}}  }        }  ==",
"==X W}}}}}}}}}}}}}}Gt1::>7k/}}}}  }        }  ==",
"==X W}}}}}}}}}}}}}A1::::>>>t~}}}  }}}}}}}}}}  ==",
"==X W}}}}}}}}}}}}I3:::::>>>>f'}}O             ==",
"==X W}}}}}}}}}}}'j>>:::::>>>>K}};            X==",
"==X E}}}}}}}}}}}R4:::::::::::k}}Q$           O==",
"==X E}}}}}}}}}}}P>:::::::::::y}}}}}}}}}}}}}J O==",
"==X E}}}}}}}}}}}H::::::::::::e}}}}}}}}}}}}}J O==",
"==X E}}}}}}}}}}}U::::::::::::p}}}}}}}}}}}}}J O==",
"==X W}}}}}}}}}}}/q:::::::::::m}}}}}}}}}}}}}J O==",
"==X W}}}}}}}}}}}}N::::::::::3R}}}}}}}}}}}}}J O==",
"==X W}}}}}}}}}}}}/i::::::::<C}}}}}}}}}}}}}}J O==",
"==X W}}}}}}}}}}}}}Ra::::::2N}}}}}}}}}}}}}}}J O==",
"==X E}}}}}}}}}}}}}})Bp740lH}}}}}}}}}}}}}}}}J O==",
"==X E}}}}}}}}}}}}})}}(TUR[}}'}}}}}}}}}}}}}}J O==",
"==X E}}}}}}}}}}}~f7hR}}}}}Ft0S}}}}}}}}}}}}}J O==",
"==X E}}}}}}}}}}Tq:::7V(_Ug<:>>M}}}}}}}}}}}}J O==",
"==X E}}}}}}}}}_t>:::::8e1:::>:2D}}}}}}}}}}}J O==",
"==X E}}}}}}}}`b:>::::::::::::::0^}}}}}}}}}}J O==",
"==X E}}}}}}}}L8>::::::::::::::::N}}}}}}}}}}J O==",
"==X E}}}}}}}}z1:::::::::::::::::s}}}}}}}}}}J O==",
"==X E}}}}}}}}t>>::::::::::::::::0}}}}}}}}}}J O==",
"==X E}}}}}}}}7>>::::::::::::::::4}}}}}}}}}}J O==",
"==X E}}}}}}}}9>>::>>::::::::::::4}}}}}}}}}}J O==",
"==X E}}}}}}}}z>:::>>::::::::::::d}}}}}}}}}}J O==",
"==X E}}}}}}}}/n3>>:>:::>:::::::iU}}}}}}}}}}J O==",
"==X E}}}}}}}}}}Pvu61:::>:::3ejZ/}}}}}}}}}}}J O==",
"==X E}}}}}}}}}}}}}}}}}}}'}}}}}}}}}}}}}}}}}}J O==",
"==X E}}}}}}}}}}}}}}}}}}}}}}}}}}}}}}}}}}}}}}J O==",
"==X E}}}}}}}}}}}}}}}}}}}}}}}}}}}}}}}}}}}}}}J O==",
"==X W}}}}}}}}}}}}}}}}}}}}}}}}}}}}}}}}}}}}}}J O==",
"==X c''}}'}}}''}'}}''}}}'}}}}}}}}}}'}'}}}}'= O==",
"==+                                         o#==",
"==&@.                                      X$===",
"===*============================================",
"================================================",
"================================================"
};
