/* XPM */
static const char *buttonDrag[] = {
/* columns rows colors chars-per-pixel */
"48 48 87 1 ",
"  c black",
". c #353535",
"X c #373737",
"o c #3A3A3A",
"O c #3F3F3F",
"+ c #414141",
"@ c #434343",
"# c gray27",
"$ c gray28",
"% c #494949",
"& c #4B4B4B",
"* c #4C4C4C",
"= c #535353",
"- c #565656",
"; c gray34",
": c gray35",
"> c gray37",
", c gray38",
"< c gray39",
"1 c gray40",
"2 c #686868",
"3 c #6C6C6C",
"4 c gray45",
"5 c #747474",
"6 c gray47",
"7 c gray49",
"8 c red",
"9 c #FE0505",
"0 c #F60F0F",
"q c #FC1515",
"w c #FF1919",
"e c #F94444",
"r c #ED6F6F",
"t c #FC7171",
"y c #FD7A7A",
"u c gray51",
"i c gray53",
"p c #8B8B8B",
"a c #8E8E8E",
"s c #929292",
"d c #979797",
"f c #9A9A9A",
"g c #9F9F9F",
"h c #A2A2A2",
"j c gray64",
"k c #A4A4A4",
"l c #A9A9A9",
"z c #AEAEAE",
"x c #B1B1B1",
"c c #B4B4B4",
"v c gray72",
"b c gray75",
"n c #FE8484",
"m c #FF8484",
"M c #FE8888",
"N c #FF9F9F",
"B c #FCA0A0",
"V c #FFADAD",
"C c #FFB1B1",
"Z c #FEBABA",
"A c #C3C3C3",
"S c gray77",
"D c #CBCBCB",
"F c gray80",
"G c LightGray",
"H c gray84",
"J c #D7D7D7",
"K c gray86",
"L c gray87",
"P c #FFC1C1",
"I c #FEC6C6",
"U c #FECBCB",
"Y c #FFD8D8",
"T c gray88",
"R c gray90",
"E c gray92",
"W c #ECECEC",
"Q c #EEEEEE",
"! c #FFEBEB",
"~ c gray94",
"^ c #F4F4F4",
"/ c #FFF1F1",
"( c #FFF6F6",
") c #F8F8F8",
"_ c #F9F9F9",
"` c gray99",
"' c gray100",
/* pixels */
"1111111111111111111111111111111111>-:11111111111",
"111111111111111111,-*+OooO+*:,111>...O1111111111",
"1111111111111111%..............%,o.u,.#111111111",
"111111111111111%..%4hAKRRKSh5%..o.6^H*.+11111111",
"1111111111111#...1zHW'''''_EHz,..6^''G*.+1111111",
"111111111111#.o,A~_'''''''''''7.6~''''G-.%111111",
"11111111111+.+f^''''''WRR~'''_.OK'L^ER'x..111111",
"1111111111O.:A''!nqr_'7117'_f5.oTb1^G1~S.#=:1111",
"111111111+.>H''Z8880_~1111W,...#h+2_TO4lo...%111",
"11111111#.-G''M88889'F,11,=.:xvso.s'E%.2vcso.#11",
"1111111%.#b''PPPnw8e'k,11O.>L'R1..i'R%.oh''ko.%1",
"1111111..s''(''''!wt'311O.>L'H:o#+6'T*+OOs''ko.+",
"111111%.>~'Y'lOOl'nN~,1:.1L''TSHTKT'_HHHFD~''x-.",
"11111%.ov'!P'O  O'I'G,1=.d'''_'''''''''''''''E7.",
"11111..1''nP'O  O'U'f12:.Og''b,7gaz'Wsii2i~'L>o.",
"11111.ox'Z8n'lOOl'B'3111#..h''do..6'T+..=G'T>..%",
"1111,.*T'y8w!''''!n'11111%..hLTiO.6'T+.:STG>.O,1",
"1111-.6_!888wnPPnwV'111111%..+#=k#1'Lo6c=#o.O111",
"1111*.h'C888888888ZE1111111-,..oRD3^G5~S...O1111",
"1111#.S'!888888888/_HFGGGGDHW~..H'R_~~'x...+1111",
"1111O.L''!PIIIIPU/''''''''''''i.3~''''F*.6.O1111",
"1111o.W'''''''''''''''''''''''^*.3W''H*.4^..1111",
"1111.._'E2#%#%%###%##%#%#%%##%%#o.3WD%.2''..1111",
"1111..''R-.........................u1.+R''..1111",
"1111..''R:.>,,,,,,,,,,,,,,,,,,,,,:....:R''..1111",
"1111..^'W,.:1111111111111111111111,-=.1W'_..1111",
"1111o.W'W6.-111111111111111111111111-.3W'W.o1111",
"1111O.H'_f.#111111111111111111111111-.4~'H.O1111",
"1111#.v''SO.,11111111111111111111111#.s^'v.#1111",
"1111*.s''W4.:1111111111111111111111>.OD''d.*1111",
"1111:.2_'_h.%1111111111111111111111=.7~'_3.:1111",
"1111,.#H''AO.,111111111111111111111O.c''H%.,1111",
"11111..f''R1.#11111111111111111111#.,T''g..11111",
"11111%.-W''bO.>111111111111111111>.Ob''~:.%11111",
"111111..h''^p.o111111111111111111o.p^''ho.111111",
"111111%.%L''E3.O,11111111111111,O.3E''L=.#111111",
"1111111..6'''L2.o-111111111111-o.1L'''7..1111111",
"1111111%.ol'''T6..#111111111,#..6L'''lo.%1111111",
"11111111%.#b'''Wh#.o%:111:=#..+h~'''A%.%11111111",
"111111111#.*A'''_K3...oo....O5H_'''A*.#111111111",
"1111111111#.#k''''WHd+..o>acRW''''z%.+1111111111",
"11111111111#.OpE''''_~EEW~_'''''Epo.#11111111111",
"111111111111#..=kE''''''''''''Rl=..#111111111111",
"1111111111111#...=fDR^''''^TDf-o..%1111111111111",
"111111111111111%..O,sxDHHDxs,+..%111111111111111",
"11111111111111111#.............%1111111111111111",
"1111111111111111111:=#+OO+#=>,111111111111111111",
"111111111111111111111111111111111111111111111111"
};
