/* XPM */
static const char *buttonRightSelectedLocked[] = {
/* columns rows colors chars-per-pixel */
"48 48 84 1 ",
"  c black",
". c #353535",
"X c #3D3D3D",
"o c #444444",
"O c #4A4A4A",
"+ c #545454",
"@ c #5B5B5B",
"# c #666666",
"$ c #6B6B6B",
"% c #747474",
"& c #7B7B7B",
"* c #FF0000",
"= c #F60D0D",
"- c #FC1313",
"; c #FF1919",
": c #F94242",
"> c #ED6D6D",
", c #FC6F6F",
"< c #FC7676",
"1 c #FE7E7E",
"2 c #3B3BBF",
"3 c #4040BE",
"4 c #5454BA",
"5 c #5858BA",
"6 c #6565B9",
"7 c #6868B9",
"8 c #7A7AB9",
"9 c #1E1ECE",
"0 c #1616D6",
"q c #1A1AD3",
"w c #1313DA",
"e c #2D2DC6",
"r c #2424CB",
"t c #3333C3",
"y c #0707ED",
"u c #0909E9",
"i c #0404F2",
"p c #0000FF",
"a c #0A0AFF",
"s c #1313FF",
"d c #1B1BFF",
"f c #3737FF",
"g c #3A3AFF",
"h c gray53",
"j c #898989",
"k c #939393",
"l c #9A9A9A",
"z c #A4A4A4",
"x c #ABABAB",
"c c #A1A1BD",
"v c #B4B4B4",
"b c #BBBBBB",
"n c #FF8484",
"m c #FD8888",
"M c #FD9191",
"N c #FF9F9F",
"B c #FCA3A3",
"V c #FFB6B6",
"C c #FFBBBB",
"Z c #AFAFC0",
"A c #8B8BFF",
"S c #9292FF",
"D c #ADADFF",
"F c #BDBDFF",
"G c #C3C3C3",
"H c #CCCCCC",
"J c #D4D4D4",
"K c #DCDCDC",
"L c #FFC3C3",
"P c #FFCCCC",
"I c #FFD8D8",
"U c #C3C3FF",
"Y c #C8C8FF",
"T c #DDDDFF",
"R c #E4E4E4",
"E c #ECECEC",
"W c #FFE3E3",
"Q c #FFEBEB",
"! c #E3E3FF",
"~ c #EEEEFF",
"^ c #F3F3F3",
"/ c #FFF4F4",
"( c #F3F3FF",
") c #FEFEFF",
/* pixels */
"################################################",
"###################@OoXXXXoO+###################",
"################O..............O###########$$###",
"###############O..o%zGKRRKGz%O..O###############",
"#############O...#xKE))))))EJx#X..o#########$###",
"############o..#G^))))))))))))^G#X.o############",
"###########o.ol^))))))^RR^))))))^lo.o###########",
"##$#######X.+G))))KK^)&##&)^>-1Q))G@.X##########",
"#########o.@J)))Rk#l)^####^)=***C))J#.o###$#####",
"########o.+J)))b###H)H@###H)*****n))J+.o########",
"##$####O.oG)))z####E)z####z):*;nLLL))Go.O#######",
"#######..k)))z####&))#####$),;Q))))/))k..######$",
"##$###O.@^))b#####k)E######^Nn)xXox)I)^@.O######",
"#####O.Xb))R######J)J#####@J)L)X  X)LQ)bX.O#####",
"#####.X#)))h######R)l######l)P)X  X)L<))#..#####",
"#####.Xx))x#######R)$#######)B)xoXx)n*V)vX.#####",
"#####.OK))h######&^)########^mQ))))Q;*<)RO.#####",
"####+.&))R#######z))########KV;nLLn;***W)&.+####",
"####O.z))z#######x)E########vL*********M)z.O####",
"####o.G))RvvbbbbbE))JHJJJJHJE/*********W)G.o####",
"####X.K)))))))))))))))))))))))/PLLPLLLW))R.X####",
"####..^))))))))))))))))))))))))))))))))))^..####",
"####..))EruuuuuuuuuuuuuuuuuuuuuuuuuuuueE))..####",
"####..))RwppppppppppppppppppppppppppppqR))..####",
"####X.))R0ppppppppppdS!~(!Sdpppppppppp0R))..####",
"####..^)E9pppppppppsF)UAAU)Fsppppppppp9E))..####",
"####X.E)EtpppppppppS)AdssdA)SpppppppppeE)E.X####",
"####X.J))7pppppppps!TsppppsT~sppppppppe^)J.o####",
"####o.v))Gippppppps)DppppppD)apppppppp5^)b.o####",
"####+.k))Etpppppppg)FgggggfU)gpppppppiH))k.+####",
"####@.#)))8pppppppF)~YYYUYU~)Fppppppp3^))$.+####",
"#####.oJ))Gipppppp~))))))))))~pppppppc))Jo.#####",
"#####..l))Rrpppppp!))))))))))TpppppprR))l..#####",
"#####O.+E))Zippppp!))))))))))TpppppiZ))^@.o#####",
"######..l))^4pppppT))))))))))Tppppp4^))l..######",
"#O.O##O.+K))Eepppp!))))))))))TppppeE))R+.O##O.+#",
"#X..O##..%)))Krppp!))))))))))!ppprK)))&..##O..X#",
"#....O#O.Xx)))Rtpp!)()()()())Tpp2R)))xX.o#O....#",
"#..z..O#O.Ob)))E8yppppppppppppi8E)))GO.o#O..z..#",
"#..)HJHh#o.OG))))JepppppppppitJ))))G+.o#jHJH)..#",
"#..)xXoxj#X.ox))))EK6yppiq5cRE))))xO.o#hxXXx)..#",
"#..)X  XHO#o.XjR)))))EEEEE))))))EjX.o#OHX  X)..#",
"#..)o  XR.O#o.X+zR))))))))))))Rx+..o@O.Ro  o)..#",
"#..)xXXx^h.o@o...+lHR^))))^RHl+...O@o.j^xXXx)..#",
"#..)))))))j..@#O..X#kvHJJHvk#X..O#@..j^))))))..#",
"#............o###o.............O##o............#",
"#O..........o@#####@+ooXXXo+@#####@o..........O#",
"################################################"
};
