/* XPM */
static const char *buttonHideMainWindow[] = {
/* columns rows colors chars-per-pixel */
"48 48 176 2",
"   c #000000",
".  c #272727",
"X  c #2A2A2A",
"o  c #373736",
"O  c #3E3B34",
"+  c #3F3F67",
"@  c #463E2F",
"#  c #484338",
"$  c #54472C",
"%  c #604D26",
"&  c #65532D",
"*  c #6A5B3D",
"=  c #735925",
"-  c #725B33",
";  c #7B663E",
":  c #464646",
">  c #4A4A4A",
",  c #434353",
"<  c #41415C",
"1  c #4B4B51",
"2  c #48485A",
"3  c #54524E",
"4  c #545354",
"5  c #595957",
"6  c #5B5B5A",
"7  c #44446D",
"8  c #4E4E6C",
"9  c #474776",
"0  c #5E5F60",
"q  c #545477",
"w  c #55557F",
"e  c #6B5E42",
"r  c #615C51",
"t  c #635859",
"y  c #6E6148",
"u  c #61615F",
"i  c #70644D",
"p  c #736955",
"a  c #776E5D",
"s  c #656565",
"d  c #6B6B6B",
"f  c #746E60",
"g  c #736C72",
"h  c #7C7262",
"j  c #727272",
"k  c #797979",
"l  c #42428B",
"z  c #4E4E9B",
"x  c #555380",
"c  c #555594",
"v  c #53539C",
"b  c #5D5D9C",
"n  c #4A4AAC",
"m  c #5555A0",
"M  c #626292",
"N  c #64649C",
"B  c #6B6B9C",
"V  c #747188",
"C  c #7E798B",
"Z  c #74749C",
"A  c #6464A8",
"S  c #7573B4",
"D  c #7878BB",
"F  c #4F4FC5",
"G  c #5050D7",
"H  c #6464D3",
"J  c #7171C8",
"K  c #7272D7",
"L  c #7878DD",
"P  c #6A6AFF",
"I  c #7777EA",
"U  c #7979EA",
"Y  c #7272F4",
"T  c #7474FF",
"R  c #7D7DFF",
"E  c #91712F",
"W  c #967C46",
"Q  c #837F91",
"!  c #827F9C",
"~  c #A5833E",
"^  c #A9843A",
"/  c #AD893E",
"(  c #99865F",
")  c #83807A",
"_  c #8B857B",
"`  c #AF8C44",
"'  c #A38952",
"]  c #A58D5C",
"[  c #B08E49",
"{  c #B2914C",
"}  c #B59553",
"|  c #B79859",
" . c #B99B5D",
".. c #BB9E62",
"X. c #BCA065",
"o. c #BEA269",
"O. c #B2A27F",
"+. c #C0A66E",
"@. c #C1A771",
"#. c #C3A974",
"$. c #C5AD7A",
"%. c #C7B07F",
"&. c #838383",
"*. c #8D8D8D",
"=. c #919191",
"-. c #9F9F9D",
";. c #9190AD",
":. c #A19A8D",
">. c #A59F94",
",. c #A9A59C",
"<. c #BCB29D",
"1. c #A6A4A0",
"2. c #ADABA7",
"3. c #ACACAC",
"4. c #BFB9AC",
"5. c #B3B3B2",
"6. c #BABABA",
"7. c #8282C6",
"8. c #9191C4",
"9. c #9A9ADD",
"0. c #8080EB",
"q. c #8484FF",
"w. c #8D8DFF",
"e. c #9595EB",
"r. c #9393FE",
"t. c #9C9CFF",
"y. c #ABABD9",
"u. c #A3A3F0",
"i. c #A3A3FE",
"p. c #ABABFE",
"a. c #B4B4FF",
"s. c #BBBBFF",
"d. c #CAB383",
"f. c #CCB78A",
"g. c #CDB88D",
"h. c #CFBB91",
"j. c #CCBD9D",
"k. c #D1BD95",
"l. c #C5BAA4",
"z. c #D5C29C",
"x. c #D6C5A1",
"c. c #D8C7A5",
"v. c #D9C9A7",
"b. c #DBCCAC",
"n. c #DED0B3",
"m. c #E0D2B6",
"M. c #E1D5BB",
"N. c #C5C5C5",
"B. c #CCCCCC",
"V. c #D3D0CA",
"C. c #D9D3C7",
"Z. c #D4D4D4",
"A. c #D7D8D8",
"S. c #DFDAD1",
"D. c #D9DADA",
"F. c #C3C3FE",
"G. c #CCCCFF",
"H. c #D4D4FF",
"J. c #DBDBFF",
"K. c #E6DBC4",
"L. c #E9DFCB",
"P. c #EAE1CD",
"I. c #EDE5D4",
"U. c #EFE9DC",
"Y. c #F0E9DA",
"T. c #EEEBE6",
"R. c #ECECEC",
"E. c #E4E4FF",
"W. c #EBEBFF",
"Q. c #F4EFE3",
"!. c #F5F0E6",
"~. c #F7F3EC",
"^. c #F8F4EB",
"/. c #F5F5F5",
"(. c #F2F2FF",
"). c #FEFEFE",
/* pixels */
"s s s s s s s s s s s s s s s s s s s s s 0 > > > > > > > > > > > > > > > > > > > > > > > > > s ",
"s s s s s s s s s s s s s s s s s 0 s s s > s =.=.*.=.=.=.=.=.=.=.=.=.=.=.=.=.=.=.=.=.=.=.=.5 > ",
"s s j *.*.*.*.*.*.*.*.*.*.*.*.*.*.*.*.*.*.0 2.).).).).).).).).).).).).).).).).).).).).).).).=.> ",
"s s &.N.B.B.B.N.B.B.N.B.N.B.B.B.B.B.B.N.B.*.3.).).).).).).).).).).).).).).).).).).).).).).).=.> ",
"s s &.B.B.B.B.N.B.B.B.B.B.B.B.B.B.B.B.B.B.*.2.).).).).).).).).).).).).).).).).).).).).).).).=.> ",
"s s &.N.B.B.B.B.B.B.B.B.B.B.B.B.B.B.B.B.B.*.3.).).).).).).).).).).).).).).).).).).).).).).).=.> ",
"s s &.N.B.B.B.B.B.B.B.B.B.B.B.B.B.B.B.B.Z.=.3.).).).).).).).).).).).).).).).).).).).).).).).=.> ",
"s s &.B.B.B.B.B.B.B.B.B.B.B.B.B.B.B.B.B.B.*.3.).).).).).).).).).).).).).).).).).).).).).).).=.> ",
"s s &.N.B.B.B.B.B.B.B.B.B.B.B.B.B.B.B.B.B.*.2.).).).).).).).).).).).).).).).).).).).).).).).=.> ",
"s s &.N.B.B.B.B.B.B.B.B.B.B.B.B.B.B.B.B.B.*.3.).).).).).).).).).).).).).).).).).).).).).).).=.> ",
"s s &.N.B.B.B.B.B.B.B.B.B.B.B.B.B.B.B.B.Z.*.3.).).).).).).).).).).).).).).).).).).).).).).).=.> ",
"s s &.B.B.N.5.5.3.5.3.5.5.3.5.5.3.5.5.3.5.k 2.).).).).).).).).).).).).).).).).).).).).).).).=.> ",
"s s &.N.B.6.j s s d d d s d d s d d s d s > 3.).).).).).).).).).).).).).).).).).).).).).).).=.> ",
"s s &.B.B.6.d s s s s s s s s s s s s s s > 2.).).).).).).).).).).).).).).).).).).).).).).).=.> ",
"s s &.N.B.6.d s s s s s s s s s s s s s s > 3.).)./././.)./././././.)././././././././.).).).=.> ",
"s s &.N.B.6.d s s s s s s s s s s s s s s : 2.).-.: : : : : > > : : : : > > : > > : : > N.).=.> ",
"s s C B.B.6.d s s s s s s s s s s s s s 5 o 2.).k                                       3.).=.> ",
"s s ) B.B.6.d s s s s s s s s s s s s 1 k ) 3.).k                                       5.).=.> ",
"s s &.N.B.6.d s s s s d s s s d s s 1 1.Q.,.3.).k                                       5.).=.> ",
"s s &.B.B.6.d s s s s s s s s s s 1 -.^.Q.>.2.).=.. X X X X X X X X X X X X X X X X X o 6.).=.> ",
"s s &.N.B.6.d s s s s s s s s s 0 d T.!.Y.:.3.)./.R.R.R.R.R.R.R.R.R.R.R.R.R.R.R.R.R.R.R.).).=.> ",
"s s &.N.B.6.d s s d s s s d s s 3 2.~.Y.I.:.=.D.A.A.A.A.A.A.D.D.A.A.D.D.D.D.D.D.D.D.D.A.A.A.k > ",
"s s &.B.V.6.d s s s s s s s s s 4 V.!.I.P.<.f h a p p i y e * @ : : : : : : > : : : 4 j j s : 5 ",
"s s &.N.B.6.d s s s s s s s s s 5 S.Y.P.M.n.b.z.k.f.$.+.X.| { & 5 s s s s s s s s s &.B.B.6.s s ",
"s s &.N.B.6.d s s s s s s s s s 4 C.I.L.M.b.x.k.f.%.#.o.| } ` & 6 s s s s s s s s s &.B.B.5.d s ",
"s s &.B.B.6.d s s s s s s s s s 3 l.P.M.m.v.z.h.d.$.+. .} [ ^ $ 0 s s s s s s s s s &.B.B.6.d s ",
"s s &.N.B.6.d s s s s s s s s s 4 _ K.m.b.z.k.f.$.+.X.| { / E # s s s s s s s s s s &.B.B.6.d u ",
"s s &.N.B.6.d s d s s s d s s s s 4 l.m.x.z.h.%.#.+. .} [ ^ $ 4 s s s s d s s s s s &.B.B.5.d s ",
"s s &.B.B.6.d s s s s s s s d s s 4 5 j.z.k.d.$.+...| { / = @ s s s s d s s s s s s &.B.B.6.d s ",
"s s &.B.B.6.d s s s s s s s s s s > w g O.d.%.#.+. .{ ^ - w 9 4 s s s s s s s s s s &.B.B.5.d s ",
"s s &.N.B.6.d s d s s s s s s s > M p.9.V h ( ] ' W ; t S r.0.7 5 s s s s s s s s u &.B.B.6.d s ",
"s s &.N.B.6.j s s s s s s s s 6 8 u.a.s.F.y.;.Q C ! 8.u.i.t.r.K , u s d s s s d s s &.B.B.5.d s ",
"s u &.N.B.6.s s s s s s d s s 1 7.a.s.F.G.H.H.J.H.G.F.s.p.t.r.w.m 1 s s s s s s s s &.B.B.5.d s ",
"s s &.N.B.6.d s s s s s s s 6 q p.a.F.G.H.J.E.E.J.H.G.s.a.p.t.w.I < u d s s s s s s &.B.B.6.d s ",
"s s &.N.B.6.d s s s s s s s 1 D a.a.F.H.J.W.(.(.E.J.G.F.a.p.t.w.q.z 4 s s s s s s s &.B.B.6.d s ",
"s s &.B.B.6.j s s s s s s s 2 e.p.s.F.H.E.(./.(.W.J.H.F.s.p.t.r.q.H , s d s s s s s &.B.B.5.d s ",
"s s &.N.B.6.d s s s s s s 6 x i.p.s.F.H.J.W.(.(.E.J.H.F.a.p.t.r.q.Y + u s s s s s s &.B.B.5.d s ",
"s s &.B.B.6.d s s s s s s 4 A i.p.a.F.H.H.E.E.E.J.H.F.F.a.p.t.w.q.R l 5 s s s s s d &.B.B.6.d s ",
"s s &.N.B.6.d s s s s s s 1 J t.i.a.F.F.H.H.H.J.H.G.F.a.p.i.r.w.R T n 3 s s s s s s &.B.B.5.d s ",
"s s &.N.B.6.d s s s s s s , L r.t.p.a.s.F.G.G.G.G.F.s.a.i.t.r.q.R P F 1 d s s s s s &.B.B.5.d s ",
"s s &.N.B.6.d s s s s s s < U w.r.i.p.a.s.F.F.F.s.s.a.p.i.r.w.R T P G , s s s s s s &.B.B.5.d s ",
"s s &.B.B.6.k j j j j j d 2 c N N B B Z Z Z Z Z Z Z B B B N b v v z l 2 j j j j j d *.B.B.6.d s ",
"s s &.N.B.B.N.6.N.N.6.N.b.6.3.5.5.5.5.5.5.5.5.5.5.5.5.5.5.5.5.5.5.5.5.6.6.N.N.6.N.6.N.B.B.6.d s ",
"s 0 &.B.B.B.B.B.B.B.B.B.B.B.B.B.B.B.B.B.B.B.B.B.B.B.B.B.B.B.B.B.B.B.B.B.B.B.B.B.B.B.B.B.B.5.d s ",
"s s &.N.N.N.N.N.N.N.N.N.N.N.N.N.N.N.N.N.N.N.N.N.N.N.N.N.N.N.N.N.N.N.N.N.N.N.N.N.N.N.N.N.N.5.d s ",
"s s d k k k k k k k k k V k k k k k k k k k k k k k k k k k k k k k k k k k k k k k k k k k s s ",
"s d s 0 s 0 s s s s s s s s 0 s s s s s s s s u s s u s s s s s s s s s s s s s s 0 s s s s s s ",
"s s s s s s s s s s s s s s s s s s s s s s s s s s s s s s s s s s s s s s s s s s s s s s s s "
};
