/* XPM */
static const char *buttonHideMainWindow[] = {
/* columns rows colors chars-per-pixel */
"48 48 95 2 ",
"   c #353535",
".  c #393939",
"X  c gray23",
"o  c #3C3C3C",
"O  c gray25",
"+  c #414141",
"@  c gray27",
"#  c #4B4B4B",
"$  c #4E4E4E",
"%  c #505050",
"&  c #535353",
"*  c #5B5B5B",
"=  c gray37",
"-  c #606060",
";  c #646464",
":  c gray40",
">  c #686868",
",  c #6C6C6C",
"<  c gray49",
"1  c #1D6FD0",
"2  c #1E70D0",
"3  c #1F70D0",
"4  c #2172D1",
"5  c #2675D2",
"6  c #2876D2",
"7  c #2D79D3",
"8  c #2E7AD4",
"9  c #2F7AD4",
"0  c #347ED5",
"q  c #357ED5",
"w  c #3981D6",
"e  c #3D83D7",
"r  c #4085D7",
"t  c #4488D8",
"y  c #478AD9",
"u  c #498BD9",
"i  c #4D8DDA",
"p  c #4F8FDA",
"a  c #508FDB",
"s  c #5593DC",
"d  c #5693DC",
"f  c #5A96DD",
"g  c #5C97DD",
"h  c #609ADE",
"j  c #639CDF",
"k  c #669DDF",
"l  c #689FE0",
"z  c #69A0E0",
"x  c #6DA2E1",
"c  c #73A6E2",
"v  c #74A6E2",
"b  c #78A9E3",
"n  c #7DACE4",
"m  c #838383",
"M  c #83B0E5",
"N  c #89B4E6",
"B  c #8CB6E7",
"V  c #8FB8E8",
"C  c #93BAE9",
"Z  c #96BCE9",
"A  c #99BEEA",
"S  c #9FC2EB",
"D  c #A0C3EB",
"F  c #A2C4EC",
"G  c #A7C7ED",
"H  c #A8C8ED",
"J  c #ACCAEE",
"K  c #AECCEE",
"L  c #BAD3F1",
"P  c #BDD5F1",
"I  c #CDCDCD",
"U  c #C1D7F2",
"Y  c #C3D9F2",
"T  c #C6DBF3",
"R  c #CCDEF4",
"E  c #D0E1F5",
"W  c #D3E3F6",
"Q  c #D7E6F7",
"!  c #DCE8F8",
"~  c gray90",
"^  c #E7E7E7",
"/  c #EAEAEA",
"(  c #E0EBF9",
")  c #E3EDF9",
"_  c #E4EDF9",
"`  c #E9F1FA",
"'  c #ECF3FB",
"]  c #EEF4FB",
"[  c #F2F7FC",
"{  c #F7FAFD",
"}  c #F9F9F9",
"|  c #F8FAFE",
" . c #FBFDFE",
".. c #FDFDFD",
"X. c gray100",
/* pixels */
": : : : : : : : : : : : : : : : : : : : : : : : : : : : : : : : : : : : : : : : : : : : : : : : ",
": : : : : : : : : : : : : : : : : : : : : : : : : : : : : : : : : : : : : : : : : : : : : : : : ",
": : : : : : : : : : : : : : : : : : : : : : : : : : : : : : : : : : : : : : : : : : : : : : : : ",
": : - % X X X X X X X X X X X X X X X X X X X X X X X X X X X X X                       X * : : ",
": : $ o                                                                                   + : : ",
": : X   > / ^ ^ ^ ^ ^ ^ ^ ^ ^ ^ ^ ^ ^ ^ ^ ^ ^ ^ ^ ^ ^ ^ ^ ^ ^ ^ +                           : : ",
": : X   ^ X.X.X.X.X.X.X.X.X.X.X.X.X.X.X.X.X.X.X.X.X.X.X.X.X.X.X.                            : : ",
": : X   ^ X.X.X.X.X.X.X.X.X.X.X.X.X.X.X.X.X.X.X.X.X.X.X.X.X.X.X.                            : : ",
": : X   ~ X.X.X.X.X.X.X.X.X.X.X.X.X.X.X.X.X.X.X.X.X.X.X.X.X.X.X.                            : : ",
": : X   ~ X.X.X.X.X.X.X.X.X.X.X.X.X.X.X.X.X.X.X.X.X.X.X.X.X.X.X.                            : : ",
": : X   ~ X.X.X.X.X.X.X.X.X.X.X.X.X.X.X.X.X.X.X.X.X.X.X.X.X.X.X.                            : : ",
": : X   ~ X.X.X.X.X.X.X.X.X.X.X.X.X.X.X.R n p y f S ` X.X.X.X.X.                            : : ",
": : X   ^ X.X.X.X.X.X.X.X.X.X.X.X.X.X.L u 6 2 2 2 q c ` X.X.X.X.    } } } } } } } } } }     : : ",
": : X   ^ X.X.X.X.X.X.X.X.X.X.X.X.X.G 5 1 1 2 2 2 2 2 p ) X.X.X.    } } } } } } } } } }     : : ",
": : X   ^ X.X.X.X.X.X.X.X.X.X.X.X.R 7 2 1 1 1 2 2 2 2 2 k  .X.X.+                           : : ",
": : X   ^ X.X.X.X.X.X.X.X.X.X.X. .l 2 2 1 1 1 2 2 2 2 2 2 U X.X.<                         X : : ",
": : X   ~ X.X.X.X.X.X.X.X.X.X.X.( 7 1 1 1 1 1 1 1 1 1 1 1 c X.X./ %                       + : : ",
": : X   ~ X.X.X.X.X.X.X.X.X.X.X.Y 1 1 1 1 1 1 1 1 1 1 1 1 a X.X.X.X.X.X.X.X.X.X.X.X.X.I   + : : ",
": : X   ~ X.X.X.X.X.X.X.X.X.X.X.P 1 1 1 1 1 1 1 1 1 1 1 1 u X.X.X.X.X.X.X.X.X.X.X.X.X.I   + : : ",
": : X   ~ X.X.X.X.X.X.X.X.X.X.X.E 1 1 1 1 1 1 1 1 1 1 1 1 f X.X.X.X.X.X.X.X.X.X.X.X.X.I   + : : ",
": : X   ~ X.X.X.X.X.X.X.X.X.X.X.` y 1 1 1 1 1 1 1 1 1 1 1 V X.X.X.X.X.X.X.X.X.X.X.X.X.I   + : : ",
": : X   ^ X.X.X.X.X.X.X.X.X.X.X.X.C 1 1 1 1 1 1 1 1 1 1 7 ! X.X.X.X.X.X.X.X.X.X.X.X.X.I   + : : ",
": : X   ^ X.X.X.X.X.X.X.X.X.X.X.X.` d 1 1 1 1 1 1 1 1 4 D X.X.X.X.X.X.X.X.X.X.X.X.X.X.I   + : : ",
": : X   ^ X.X.X.X.X.X.X.X.X.X.X.X.X.! g 1 1 1 1 1 1 6 C X.X.X.X.X.X.X.X.X.X.X.X.X.X.X.I   + : : ",
": : X   ~ X.X.X.X.X.X.X.X.X.X.X.X.X.X.' A f q 8 r v P X.X.X.X.X.X.X.X.X.X.X.X.X.X.X.X.I   + : : ",
": : X   ~ X.X.X.X.X.X.X.X.X.X.X.X.X.] X.X.' Q E ! X.X.X. .X.X.X.X.X.X.X.X.X.X.X.X.X.X.I   + : : ",
": : X   ~ X.X.X.X.X.X.X.X.X.X.X.) k q l ! X.X.X.X.X.K a r G X.X.X.X.X.X.X.X.X.X.X.X.X.I   + : : ",
": : X   ~ X.X.X.X.X.X.X.X.X.X.Q y 1 1 1 q S ' [ R l 4 1 1 3 C X.X.X.X.X.X.X.X.X.X.X.X.I   + : : ",
": : X   ~ X.X.X.X.X.X.X.X.X.[ p 1 1 1 1 1 1 w u 5 1 1 1 1 1 6 K X.X.X.X.X.X.X.X.X.X.X.I   + : : ",
": : X   ~ X.X.X.X.X.X.X.X.{ N 1 1 1 1 1 1 1 1 1 1 1 1 1 1 1 1 r _ X.X.X.X.X.X.X.X.X.X.I   + : : ",
": : X   ~ X.X.X.X.X.X.X.X.Y w 3 1 1 1 1 1 1 1 1 1 1 1 1 1 1 1 1 Z X.X.X.X.X.X.X.X.X.X.I   + : : ",
": : X   ~ X.X.X.X.X.X.X.X.b 5 1 1 1 1 1 1 1 1 1 1 1 1 1 1 1 1 1 h X.X.X.X.X.X.X.X.X.X.I   o : : ",
": : X   ~ X.X.X.X.X.X.X.X.p 2 2 1 1 1 1 1 1 1 1 1 1 1 1 1 1 1 1 e X.X.X.X.X.X.X.X.X.X.I   + : : ",
": : X   ~ X.X.X.X.X.X.X.X.w 1 2 1 1 1 1 1 1 1 1 1 1 1 1 1 1 1 1 9 X.X.X.X.X.X.X.X.X.X.I   + : : ",
": : X   ~ X.X.X.X.X.X.X.X.e 1 1 1 1 3 1 1 1 1 1 1 1 1 1 1 1 1 1 9 X.X.X.X.X.X.X.X.X.X.I   + : : ",
": : X   ~ X.X.X.X.X.X.X.X.b 2 1 1 1 1 3 1 1 1 1 1 1 1 1 1 1 1 2 j X.X.X.X.X.X.X.X.X.X.I   + : : ",
": : X   ~ X.X.X.X.X.X.X.X.` B 9 3 3 1 3 1 1 1 1 1 1 1 1 1 1 2 s E X.X.X.X.X.X.X.X.X.X.I   + : : ",
": : X   ~ X.X.X.X.X.X.X.X.X.X.Y M d 0 5 1 1 1 3 1 1 1 9 u x F ` X.X.X.X.X.X.X.X.X.X.X.I   + : : ",
": : X   ~ X.X.X.X.X.X.X.X.X.X.X.X.X.X.X.X.X.X.X. .X.X.X.X.X.X.X.X.X.X.X.X.X.X.X.X.X.X.I   + : : ",
": : X   ~ X.X.X.X.X.X.X.X.X.X.X.X.X.X.X.X.X.X.X.X.X.X.X.X.X.X.X.X.X.X.X.X.X.X.X.X.X.X.I   + : : ",
": : X   ^ X.X.X.X.X.X.X.X.X.X.X.X.X.X.X.X.X.X.X.X.X.X.X.X.X.X.X.X.X.X.X.X.X.X.X.X.X.X.I   + : : ",
": : X   ^ X.X.X.X.X.X.X.X.X.X.X.X.X.X.X.X.X.X.X.X.X.X.X.X.X.X.X.X.X.X.X.X.X.X.X.X.X.X.I   + : : ",
": : X   m } } X.X.X.} X.X.} X.X.} X.X.X.X.} X.X.X.} X.X.X.X.X.X.X.X.} X.X.X.X.X.X.X.} >   + : : ",
": : @                                                                                   o $ : : ",
": : = # X                                                                             X % : : : ",
": : : - : : : : : : : : : : : : : : : : : : : : : : : : : : : : : : : : : : : : : : : : : : : : ",
": : : : : : : : : : : : : : : : : : : : : : : : : : : : : : : : : : : : : : : : : : : : : : : : ",
": : : : : : : : : : : : : : : : : : : : : : : : : : : : : : : : : : : : : : : : : : : : : : : : "
};
