/* XPM */
static const char *buttonDblLeft[] = {
/* columns rows colors chars-per-pixel */
"48 48 126 2",
"   c #0D0D2D",
".  c #060635",
"X  c #0B0B36",
"o  c #0F0F39",
"O  c #13132D",
"+  c #1D1D20",
"@  c #19192B",
"#  c #131334",
"$  c #1A1A34",
"%  c #242424",
"&  c #23232A",
"*  c #2D2D2D",
"=  c #242433",
"-  c #25253A",
";  c #2C2C34",
":  c #2F2F39",
">  c #343434",
",  c #343439",
"<  c #3B3B3C",
"1  c #040450",
"2  c #0C0C54",
"3  c #1C1C45",
"4  c #111151",
"5  c #11115C",
"6  c #050565",
"7  c #0B0B64",
"8  c #09096D",
"9  c #0E0E7D",
"0  c #121268",
"q  c #1B1B65",
"w  c #1A1A68",
"e  c #101077",
"r  c #181874",
"t  c #232344",
"y  c #2B2B40",
"u  c #232353",
"i  c #373741",
"p  c #38384E",
"a  c #323259",
"s  c #3B3B5F",
"d  c #2F2F63",
"f  c #2F2F6C",
"g  c #25257D",
"h  c #2D2D78",
"j  c #3D3D61",
"k  c #444444",
"l  c #45454F",
"z  c #4B4B4B",
"x  c #444454",
"c  c #42425B",
"v  c #4D4D50",
"b  c #545454",
"n  c #5B5B5B",
"m  c #404076",
"M  c #4D4D72",
"N  c #5F5F63",
"B  c #60605F",
"V  c #656565",
"C  c #6B6B6B",
"Z  c #747474",
"A  c #7C7C7C",
"S  c #151589",
"D  c #1A1A8A",
"F  c #1E1E91",
"G  c #202082",
"H  c #21218F",
"J  c #222293",
"K  c #272799",
"L  c #2A2A90",
"P  c #2C2C9B",
"I  c #313195",
"U  c #3333A1",
"Y  c #3A3AA5",
"T  c #3B3BA8",
"R  c #444486",
"E  c #44448C",
"W  c #434392",
"Q  c #43439B",
"!  c #515182",
"~  c #5A5A8D",
"^  c #4141AD",
"/  c #4646B1",
"(  c #4A4AB4",
")  c #4E4EB8",
"_  c #5D5DAC",
"`  c #5353BB",
"'  c #5B5BB3",
"]  c #5858BE",
"[  c #616196",
"{  c #6262A6",
"}  c #6666B8",
"|  c #7272B2",
" . c #7878B8",
".. c #5B5BC3",
"X. c #6161C4",
"o. c #6565CB",
"O. c #6969CE",
"+. c #6E6ED1",
"@. c #7878CF",
"#. c #7272D4",
"$. c #7B7BDC",
"%. c #848484",
"&. c #898987",
"*. c #8C8C8C",
"=. c #949494",
"-. c #9C9C9C",
";. c #A4A4A4",
":. c #A8A8A7",
">. c #ABABAB",
",. c #B4B4B4",
"<. c #BCBCBC",
"1. c #8484D1",
"2. c #8282DB",
"3. c #8383E3",
"4. c #8F8FE9",
"5. c #9090EE",
"6. c #9595F2",
"7. c #A2A2FD",
"8. c #C3C3C3",
"9. c #CBCBCB",
"0. c #D3D3D3",
"q. c #DBDBDB",
"w. c #E3E3E3",
"e. c #ECECEC",
"r. c #F3F3F3",
"t. c #F9F9F9",
/* pixels */
"V V V V V V V V V < b V V V V V V V V V V V V V V V V V V V V V V V V V V V V V V V V V V V V V ",
"V V V V V V V b &   < V V V V V V V V V V V V V V V V V V V V V V V V V V V V V V V V V V V V V ",
"V V V V V V z O 7 r ; V V V V V V V V C V V V V V V V V V V V V V V V V V V V V V V V V V V V V ",
"V V V V V z # 8 F L - V V V V V V V n z , > * > * * < b V V V V V V V V V V V V V V V V V V V V ",
"V V V V z O 8 D K T t b V V V V z > * < b n V C z < n < * < b V V V V V V V V V V V V V V V V V ",
"V V V n @ 6 S K Y ) d z V V b * + b C Z A %.%.&.V z *.%.Z v * < n V V V V V V V V V V V V V V V ",
"V V V > 1 S K U ^ ..E < V z # 2 - Z A %.%.%.&.*.%.< *.=.*.&.Z z * z V V V V V V V V V V V V V V ",
"V V z X 9 J U ^ ] o._ > < X e J - Z &.*.*.=.=.-.=.z *.-.=.*.*.%.V > k V V V V V V V V V V V V V ",
"V V = 7 F P ^ ` X.#.@.= . 9 F P u C =.=.-.-.-.;.:.n A :.;.-.=.*.&.A < < V V V V V V V V V V V V ",
"V b o D K T ) X.O.3.4.a 8 F P ^ f V -.-.;.;.>.>.,.Z Z ,.:.;.-.=.=.*.A < < V V V V V V V V V V V ",
"V , 5 K Y ( ..O.$.6.7.! 0 P T ) W b ;.>.>.>.<.<.<.=.B <.,.>.:.;.-.=.=.A > z V V V V V V V V V V ",
"V = G U / ..O.@.2.1. .j q T ^ ..' x >.,.<.<.<.<.8.,.b <.<.<.,.>.;.;.-.-.A * n V V V V V V V V V ",
"b 3 P Y Q E m s y o 4 q I ^ ] o.#.c >.<.8.8.9.9.0.9.n ,.9.9.<.<.>.-.A V b % < V V V V V V V V V ",
"k   t - > < z b & 7 J P ^ ] o.#.3.M -.9.9.9.0.q.q.w.Z -.<.-.A N z k z b V V > V V V V V V V V V ",
"b z b V V V V n # D P ^ ` X.#.3.6.[ *.q.q.q.0.8.:.*.z k b b V Z %.*.=.*.%.%.V k Z V V V V V V V ",
"V V V V V V V i 5 K T ( ..+.3.6.7.| N ;.%.C n b n Z &.=.-.;.;.;.-.=.=.*.*.%.A < V V V V V V V V ",
"V V V V V V V = D T / ..} } _ ~ M x k V Z *.-.>.,.,.,.,.>.>.:.;.;.-.-.=.*.&.%.n b C V V V V V V ",
"V V V V V V n # g h f a p l n Z &.-.:.,.<.<.<.<.<.<.,.<.,.,.>.>.;.;.-.-.=.*.&.A i Z V V V V V V ",
"V V V V V V b + < z V A *.-.;.>.>.,.,.<.<.<.<.<.<.<.<.<.<.,.,.,.:.:.;.-.-.=.*.%.k C C V V V V V ",
"V V V V V V k z &.*.=.-.-.;.>.>.,.,.<.<.<.8.9.9.8.9.8.8.<.<.<.,.,.>.;.;.-.=.=.*.b B C V V V V V ",
"V V V V V V k b *.=.=.-.;.>.>.,.<.<.<.8.9.9.9.9.9.9.9.9.9.<.<.<.,.>.>.:.;.-.=.=.C b Z V V V V V ",
"V V V V V V < V =.=.-.-.;.>.,.,.<.<.8.9.9.0.9.0.0.0.0.0.9.9.8.<.<.,.>.:.;.-.=.*.A z Z V V V V V ",
"V V V V V V > V =.=.-.;.:.>.,.<.<.8.9.9.0.0.q.q.q.q.0.0.9.9.9.8.8.<.,.>.;.;.-.=.%.z Z V V V V V ",
"V V V V V V < V =.-.-.;.>.,.,.<.8.9.0.0.0.q.w.w.w.q.w.q.0.0.9.9.<.<.,.>.;.;.;.=.%.k A V V V V V ",
"V V V V V C < B =.-.;.;.>.,.<.8.8.9.0.q.q.w.w.w.w.e.w.q.q.0.0.9.8.8.,.>.>.;.-.=.*.k %.B C B C B ",
"V V V V V V z b =.-.;.;.,.,.<.8.9.9.0.q.q.e.e.e.e.e.e.w.w.0.0.9.8.8.<.,.>.:.-.-.*.z A V B C B C ",
"V V V V V V v k =.-.;.:.,.,.<.8.9.0.q.q.w.e.r.r.r.r.e.w.w.q.0.9.8.8.<.,.>.:.;.-.*.k A V C B C B ",
"V V V V V V n > *.-.;.>.>.<.<.8.9.0.0.w.w.e.r.t.t.t.r.e.w.q.0.0.8.8.<.,.>.:.;.=.%.z %.V V C B C ",
"V V V V V V V > A ;.;.:.>.<.<.8.9.0.0.w.w.e.r.r.t.r.e.e.w.q.0.9.8.8.<.,.>.:.-.-.Z n A B C B C B ",
"V V V V V V V k n -.;.:.,.<.<.8.8.0.0.q.w.e.r.r.r.r.e.e.w.q.0.9.8.8.<.,.>.:.;.-.V V A V B C B C ",
"V V V V V V V b < =.;.:.>.,.<.<.9.9.0.q.w.w.e.e.r.e.w.w.q.q.0.9.8.8.<.,.>.:.-.-.b A C V C B B C ",
"V V V V V V V V , Z ;.>.>.,.<.8.8.9.0.q.q.w.w.w.e.w.w.w.q.0.0.9.8.<.<.>.:.;.-.*.z %.V V B C B B ",
"V V V V V V V V v z -.:.>.,.<.<.8.8.9.0.0.q.q.w.w.w.q.q.0.0.9.8.<.<.,.>.>.;.-.V N %.V V V V V V ",
"V V C V V V V V V > Z :.:.>.,.<.8.8.9.0.0.0.q.q.q.0.0.0.0.9.9.8.<.<.,.>.;.;.=.z %.C V V V V V V ",
"V V V V V V V V V b < =.:.>.>.<.<.<.8.9.9.9.0.0.0.0.0.9.9.9.8.<.<.,.,.;.;.-.Z b %.V V V V V V V ",
"V V V V V V V V V V < n ;.:.>.>.<.<.<.8.9.9.9.9.9.9.9.9.8.8.<.<.,.,.>.;.-.=.k %.Z V V V V V V V ",
"V V V V V V V V V V V < C ;.>.>.,.,.<.<.8.8.8.9.8.9.8.8.8.<.,.,.>.>.;.;.-.b C %.V V V V V V V V ",
"V V V V V V V V V V V B < Z ;.>.>.,.,.<.<.<.<.<.8.<.<.<.<.<.,.,.>.>.;.;.V b *.C V V V V V V V V ",
"V V V V V V V V V V V V b < Z ;.>.>.,.,.,.,.,.<.,.<.,.,.,.>.>.>.;.;.-.C z *.Z V V V V V V V V V ",
"V V V V V V V V V V V V V B < V -.;.:.>.>.,.,.,.,.,.,.>.>.>.>.;.;.-.V z *.Z V V V V V V V V V V ",
"V V V V V V V V V V V V V V V k z %.;.:.>.>.>.>.>.>.>.:.:.;.;.;.*.b b =.Z V V V V V V V V V V V ",
"V V V V V V V V V V V V V V V V b k b %.-.;.;.:.:.;.;.;.;.-.&.V k Z *.C V V V V V V V V V V V V ",
"V V V V V V V V V V V V V V V V C C n k z N Z %.*.*.&.A V b z V *.[ C V V V V V V V V V V V V V ",
"V V V V V V V V V V V V V V V V V V V Z C V b z z v z n V A &.A C C V V V V V V V V V V V V V V ",
"V V V V V V V V V V V V V V V V V V V V V C Z Z A A A A A C V V B C B C V V V V V V V V V V V V ",
"V V V V V V V V V V V V V V V V V V V V V V V V V V V V V V V V C B C B V V V V V V V V V V V V ",
"V V V V V V V V V V V V V V V V V V V V V V V V V V V V V V V V B C B C V V V V V V V V V V V V ",
"V V V V V V V V V V V V V V V V V V V V V V V V V V V V V V V V C B C B V V V V V V V V V V V V "
};
