/* XPM */
static const char *buttonDragSelectedLocked[] = {
/* columns rows colors chars-per-pixel */
"48 48 256 2",
"   c #000000",
".  c #0D0404",
"X  c #180807",
"o  c #1E1111",
"O  c #0A0A36",
"+  c #151634",
"@  c #14142C",
"#  c #230C0C",
"$  c #29090B",
"%  c #211212",
"&  c #3D1C1C",
"*  c #390808",
"=  c #27282A",
"-  c #2A2A33",
";  c #3F2B2B",
":  c #362525",
">  c #39342C",
",  c #3D3B3B",
"<  c #383434",
"1  c #33203F",
"2  c #0B0C56",
"3  c #0C0C72",
"4  c #3E3E43",
"5  c #332550",
"6  c #272A7C",
"7  c #312E6A",
"8  c #3E4146",
"9  c #431818",
"0  c #5A1818",
"q  c #560B0B",
"w  c #483B0D",
"e  c #563C0B",
"r  c #573D09",
"t  c #453212",
"y  c #442D2D",
"u  c #452626",
"i  c #4D2336",
"p  c #433A39",
"a  c #5D2626",
"s  c #532929",
"d  c #553939",
"f  c #5A362F",
"g  c #6B0B0F",
"h  c #661D28",
"j  c #652222",
"k  c #6F2525",
"l  c #6B3A3A",
"z  c #683535",
"x  c #713A3A",
"c  c #513043",
"v  c #554509",
"b  c #585411",
"n  c #554B10",
"m  c #6A4B0F",
"M  c #67460D",
"N  c #6F5A0C",
"B  c #624628",
"V  c #6A601D",
"C  c #696526",
"Z  c #434243",
"A  c #4A4B4C",
"S  c #46464A",
"D  c #584849",
"F  c #525355",
"G  c #5C5C5C",
"H  c #575757",
"J  c #524655",
"K  c #56506A",
"L  c #5F6166",
"P  c #6B4848",
"I  c #67595A",
"U  c #7A4942",
"Y  c #7D5858",
"T  c #724E51",
"R  c #7B7D45",
"E  c #656666",
"W  c #6B6B6B",
"Q  c #666A72",
"!  c #776969",
"~  c #737373",
"^  c #7B7B7B",
"/  c #757275",
"(  c #776F70",
")  c #171789",
"_  c #1F1F92",
"`  c #222293",
"'  c #2B2B9B",
"]  c #28288F",
"[  c #3838A5",
"{  c #4F4E8E",
"}  c #4242AE",
"|  c #4B4CB5",
" . c #5657BB",
".. c #6B718A",
"X. c #676AB1",
"o. c #5C5CC3",
"O. c #6364C7",
"+. c #7373D3",
"@. c #6F6FD3",
"#. c #7C838B",
"$. c #8D0708",
"%. c #930E0E",
"&. c #852729",
"*. c #992626",
"=. c #993D3D",
"-. c #863737",
";. c #B40202",
":. c #AE0F0F",
">. c #AC2A29",
",. c #A73636",
"<. c #B63636",
"1. c #BB2323",
"2. c #9D7D00",
"3. c #AF7200",
"4. c #AF7A00",
"5. c #B07100",
"6. c #A56700",
"7. c #844947",
"8. c #984545",
"9. c #9C5656",
"0. c #876C6C",
"q. c #9B6767",
"w. c #957979",
"e. c #A84D4D",
"r. c #A85555",
"t. c #B64E4E",
"y. c #B75252",
"u. c #BA7978",
"i. c #B56C6C",
"p. c #C91111",
"a. c #DD2A2A",
"s. c #D23C3C",
"d. c #C72A2A",
"f. c #EA1919",
"g. c #FE0A09",
"h. c #F00808",
"j. c #FD1111",
"k. c #FD1B1B",
"l. c #F51010",
"z. c #E33535",
"x. c #FC2626",
"c. c #FC2C2C",
"v. c #FC3434",
"b. c #FC3B3B",
"n. c #F23838",
"m. c #E82524",
"M. c #C64A4A",
"N. c #DF4444",
"B. c #DE5F5F",
"V. c #CC5959",
"C. c #C66666",
"Z. c #C97474",
"A. c #DE6C6B",
"S. c #D96262",
"D. c #DC7777",
"F. c #E55656",
"G. c #FB4242",
"H. c #FB4A4A",
"J. c #F54545",
"K. c #FB5252",
"L. c #F85D5D",
"P. c #E44444",
"I. c #E57373",
"U. c #E37B7B",
"Y. c #F66B6B",
"T. c #FA6565",
"R. c #FA6C6C",
"E. c #F57373",
"W. c #F77979",
"Q. c #F97373",
"!. c #F97B7B",
"~. c #F06C6B",
"^. c #B18502",
"/. c #82834E",
"(. c #B3B57D",
"). c #C69907",
"_. c #DD8D02",
"`. c #DDB100",
"'. c #E89B00",
"]. c #E79800",
"[. c #EAA302",
"{. c #E8AB01",
"}. c #F4A700",
"|. c #F3AD04",
" X c #F5B302",
".X c #F9B500",
"XX c #FDBD00",
"oX c #F4BA05",
"OX c #E9B90D",
"+X c #FEC203",
"@X c #FECA0A",
"#X c #F8C30C",
"$X c #F8CB16",
"%X c #FDD214",
"&X c #F4DC13",
"*X c #EFCE08",
"=X c #FEDD24",
"-X c #FAD828",
";X c #F6E211",
":X c #F9E315",
">X c #FEE93A",
",X c #FDE53A",
"<X c #948585",
"1X c #979699",
"2X c #8F8E93",
"3X c #9A9EA5",
"4X c #A88687",
"5X c #A99999",
"6X c #BA8686",
"7X c #B49797",
"8X c #A4A7AB",
"9X c #ADB4BE",
"0X c #B5A7A7",
"qX c #AEAEB2",
"wX c #8383E3",
"eX c #9595F3",
"rX c #AEB7C1",
"tX c #B5BCC3",
"yX c #A1A2FD",
"uX c #BDC3C9",
"iX c #D98585",
"pX c #D99998",
"aX c #C39797",
"sX c #D7B6B7",
"dX c #D4ACAC",
"fX c #EC8A8A",
"gX c #E49898",
"hX c #F68484",
"jX c #F68D8E",
"kX c #F98383",
"lX c #F88989",
"zX c #F69494",
"xX c #F59C9C",
"cX c #FA9293",
"vX c #F89E9E",
"bX c #F88F90",
"nX c #EBA4A4",
"mX c #E9B1B1",
"MX c #F5A3A3",
"NX c #F4ABAB",
"BX c #F8A8A8",
"VX c #F4B2B2",
"CX c #F3BBBB",
"ZX c #D8CACB",
"AX c #DAD9DB",
"SX c #C8CDD3",
"DX c #D9DCE0",
"FX c #F3C4C4",
"GX c #F3CCCC",
"HX c #F9CECE",
"JX c #F3D4D4",
"KX c #F2DBDB",
"LX c #E8CACA",
"PX c #E9E7E9",
"IX c #F3E4E4",
"UX c #EBEEF1",
/* pixels */
"E E E E E E E E E E E E E E E E E E E E E E E E E E E E E E E E E E E E E E E E E E E E E E E E ",
"E E E E E E E E E E E E E E E E E E E E E E E E E E E E E E E E E E E E E E E E E E E E E E E E ",
"E E E E E E E E E E E E E E E E E E E E E E G E E E E E E E E E E E E E E E E E E E E E E E E E ",
"E E E E E E E E E E E E E E E E E E H S p > y y > - Z A L E E E E E E E E E E E E E E E E E E E ",
"E E E E E E E E E E E E E E E E A < s -.t.V.S.A.8.x r.B y , H E E E E E E E E E E E E E E E E E ",
"E E E E E E E E E E E E E E H = 9 y.~.R.Q.W.W.kXC.U lXW.A.e.s , G E E E E E E E E E E E E E E E ",
"E E E E E E E E E E E E E S + 2 i Y.W.W.!.hXhXlXD.l fXlXhX!.I.8.u A E E E E E E E E E E E E E E ",
"E E E E E E E E E E E E , O 3 _ 5 A.kXkXhXjXlXjXfXP iXzXjXlXhX!.C.f , E E E E E E E E E E E E E ",
"E E E E E E E E E E E 8 O ) ) [ 5 C.lXlXjXzXzXxXxXY u.vXxXbXjXhXkXA.z , E E E E E E E E E E E E ",
"E E E E E E E E E E S O 3 _ ' [ 6 9.zXzXxXxXMXMXNXq.q.BXvXxXzXbXlXlXU.z Z E E E E E E E E E E E ",
"E E E E E E E E E H @ 3 ) ' [ | { T MXMXMXMXNXVXVX6XY VXNXMXMXxXzXjXlXU.f A E E E E E E E E E E ",
"E E E E E E E E E = 2 ) ' [ | o. .J nXNXNXVXVXVXCXdXI mXVXNXNXMXvXxXzXcXZ.y G E E E E E E E E E ",
"E E E E E E E E A O ) _ ' }  .O.+.J pXCXCXCXCXFXFXFXI dXFXVXVXVXnXpXu.9.7.> , W E E E E E E E E ",
"E E E E E E E E - 2 _ [ }  .O.+.wXK aXCXFXFXGXGXJXJX! 7XsX7Xw.Y T P Y w.7XsXG G E E E E E E E E ",
"E E E E E E E H + _ ' } | O.@.wXeXX.4XGXJXGXLXsX0X<XS d T 7.q.6XpXmXCXFXJXJX0XA ~ E E E E E E E ",
"E E E E E E E p 2 ' [ | o.@.wXeXyXX.I 7Xw.I P l 7.9.C.iXfXxXBXBXVXCXFXFXJXJXJXG E E E E E E E E ",
"E E E E E E E - _ [ | O.o.X.X.{ K c a -.,.M.B.Y.W.kXlXjXzXxXMXNXVXCXCXFXGXJXKX5XF W E E E E E E ",
"E E E E E E G + 6 7 7 5 i j &.>.d.n.K.K.T.T.Q.Q.W.kXfXjXzXxXMXNXVXVXCXFXGXJXKXZXF ~ E E E E E E ",
"E E E E E E F $ g $.:.p.f.c.v.b.G.H.K.K.L.T.Y.Q.W.hXhXjXzXxXMXNXVXCXFXFXLXJXKXIXW E E E E E E E ",
"E E E E E E 8 $.g.j.k.k.x.c.v.b.G.H.L.N.=.F.R.Q.W.!.lXjXzXxXMXNXVXCXCXFXGXJXKXPX1XE W E E E E E ",
"E E E E E E p ;.g.j.j.k.x.c.v.b.G.H.P.0   s B.Q.W.!.hXjXzXxXMXNXVXVXCXFXLXJXKXIXqXI ~ E E E E E ",
"E E E E E E , ;.g.j.j.x.x.c.v.n.G.s.9       9 C.W.hXlXjXzXxXMXNXVXCXCXLXGXJXKXIXZXH ~ E E E E E ",
"E E E E E E , ;.g.j.k.k.x.c.v.b.G.*.a #   # a 8.E.hXkXzXzXxXMXNXVXVXCXFXGXJXKXIXAXG ^ E E E E E ",
"E E E E E E , ;.g.j.j.x.x.c.v.b.G.J.H.a   a Y.E.E.hXfXjXzXxXMXMXVXCXFXGXGXKXKXIXKXG ^ E E E E E ",
"E E E E E W 8 ;.g.j.k.k.x.c.v.b.G.H.K.j   a R.Q.W.hXhXjXzXxXMXNXVXCXdX4X0.! ( <XqXG ^ E E E E E ",
"E E E E E E 8 $.g.j.k.k.x.m.v.b.G.H.K.j   a R.Q.W.!.U.fXzXxXMXNXnX0.A / 3X8X8X2XG = E Q E E E E ",
"E E E E E W F g g.j.k.k.a.q a.b.G.H.K.j   a R.Q.W.hXD.d iXMXMXnXT L uXPXUXPXPXUXAX1X< A E E E E ",
"E E E E E E G 9 h.g.k.f.q . d.z.z.s.N.0   s B.S.A.D.C.o y iXMXY L SXSX3XW L L #.tXAX3X< H E E E ",
"E E E E E E E u p.g.l.q     # # # # # .   . o % % % o     d u.Z 9XuXQ F <X7X5XW A 8XSX~ < E E E ",
"E E E E E E E Z %.j.f.*                                   : P Q uX#.D mXJXJXKXIX^ 8 rX8X- G E E ",
"E E E E E E E H q l.k.p.$ . *.>.>.<.,.9   & e.y.r.r.9.X % u.P ..tXF 6XGXGXJXKXIX~ = 2XrX8 F E E ",
"E E E E E E E E : p.k.k.1.* a.b.G.H.H.k   j R.Q.!.kXD.: i.zXD 2X9XS aXGXGXJXKXAXH 8 ..uXA A E E ",
"E E E E E E E E A g k.k.x.1.z.b.G.H.H.j   a Y.Q.E.!.U.i.xXgXd ..9X4 4XsXsXsXZX2XF p Q rX8 4 L L ",
"E E E E E E E E E > p.k.x.c.v.b.G.J.K.j   a Y.E.W.hXlXcXZ.B n /.(.C b V V V C b b n R (.C n 4 L ",
"E E E E E E E E E H 0 m.x.c.v.b.G.H.K.j   a R.Q.W.hXlXjX7.2.*X&X;X;X;X;X;X;X;X;X;X;X:X:X&X`.v F ",
"E E E E E E E E E E p %.x.c.v.b.G.<.,.9   & e.t.E.!.lXbXU 4.$X,X>X>X>X>X>X>X>X,X>X>X>X,X-X{.n F ",
"E E E E E E E E E E E > :.c.v.b.G.,.$       # e.W.hXhXbXU 4.oX-X=X=X=X=X=X=X=X=X=X=X=X=X$X`.e F ",
"E E E E E E E E E E E G u 1.v.b.G.H.<.$   % y.Q.W.!.lXjXU 4.oX$X%X%X%X%X$X$X$X%X%X%X%X%X$X[.e F ",
"E E E E E E E E E E E E G u 1.b.G.J.H.M.a M.R.Q.W.!.fXjXU 4. X#X@X@X@X@X).t N $X@X@X@X#XoX[.e F ",
"E E E E E E E E E E E E E E y *.J.H.H.L.L.T.T.E.W.hXhXzXU 3.|.oXXX@X+X+X^.. v oX+X+X+XoX X'.e F ",
"E E E E E E E E E E E E E E E Z k s.K.K.L.T.Y.E.W.!.lXjXU 5.|..XXX+XXX+X Xr ^.+X+X+XXXXX X].e F ",
"E E E E E E E E E E E E E E E W H p &.M.L.T.R.E.W.kXlXjXU 5.}..XXXXXXX+X+XN ).+XXX+XXX.X X].e F ",
"E E E E E E E E E E E E E E E E Q W G d z =.y.S.A.A.D.u.f 5.}..X.X+XXXXX+X`.oXXXXXXXXXXX|.].e F ",
"E E E E E E E E E E E E E E E E E E W ~ W E F D D D D I > 5.}..X.XXXXXXXXXXX+XXXXXXXXXXX X].e F ",
"E E E E E E E E E E E E E E E E E E E E E W ~ ^ ^ ^ ^ ^ p 5.}..XXXXXXXXXXXXXXXoXXXXX.XoX|.].e F ",
"E E E E E E E E E E E E E E E E E E E E E E E E E E E E > 6.'.[.|.|.|.|.|.|.|.|.|.|.|.|.[._.e F ",
"E E E E E E E E E E E E E E E E E E E E E E E E E E E E A t M m m m m m m m m m m m m M M v ; L ",
"E E E E E E E E E E E E E E E E E E E E E E E E E E E E E F A A A A A A A S A A A A A A A A G E "
};
