/* XPM */
static const char *buttonMiddleSelected[] = {
/* columns rows colors chars-per-pixel */
"48 48 124 2 ",
"   c black",
".  c #353535",
"X  c #373737",
"o  c #3A3A3A",
"O  c #3F3F3F",
"+  c #414141",
"@  c gray27",
"#  c #484848",
"$  c #494949",
"%  c #4C4C4C",
"&  c gray30",
"*  c #505050",
"=  c #565656",
"-  c #585858",
";  c gray35",
":  c gray37",
">  c gray39",
",  c #646464",
"<  c gray40",
"1  c #686868",
"2  c gray42",
"3  c gray43",
"4  c gray45",
"5  c #747474",
"6  c gray47",
"7  c #797979",
"8  c #7E7E7E",
"9  c red",
"0  c #FE0505",
"q  c #FB1111",
"w  c #FD1515",
"e  c #FF1919",
"r  c #FB2020",
"t  c #F92626",
"y  c #FD3636",
"u  c #FB4B4B",
"i  c #FF5252",
"p  c #FF5858",
"a  c #F86262",
"s  c #FF6767",
"d  c #F96969",
"f  c #FF6F6F",
"g  c #FC7D7D",
"h  c #3B3BBF",
"j  c #4040BE",
"k  c #5252BA",
"l  c #5757B9",
"z  c #5858BA",
"x  c #6565B9",
"c  c #6868B9",
"v  c #7979B9",
"b  c #1F1FCD",
"n  c #1E1ECF",
"m  c #1717D6",
"M  c #1616D7",
"N  c #1A1AD3",
"B  c #1313DA",
"V  c #2F2FC4",
"C  c #2C2CC6",
"Z  c #2323CB",
"A  c #2525CA",
"S  c #2020CE",
"D  c #3636C2",
"F  c #3232C4",
"G  c #0707ED",
"H  c #0909E9",
"J  c #0505F0",
"K  c #0404F2",
"L  c #0303F4",
"P  c #0202F9",
"I  c blue",
"U  c gray51",
"Y  c #888888",
"T  c #898989",
"R  c #8D8D8D",
"E  c #929292",
"W  c gray59",
"Q  c #989898",
"!  c #9D9D9D",
"~  c gray64",
"^  c #A7A7A7",
"/  c #AAAAAA",
"(  c #AEAEAE",
")  c #A1A1BD",
"_  c #B1B1B1",
"`  c #B4B4B4",
"'  c gray72",
"]  c gray75",
"[  c #FF8383",
"{  c #FF8484",
"}  c #FE9A9A",
"|  c #FF9E9E",
" . c #AFAFC0",
".. c #C3C3C3",
"X. c #C2C2C5",
"o. c gray77",
"O. c #CBCBCB",
"+. c #CDCDCD",
"@. c LightGray",
"#. c #D5D5D5",
"$. c #D8D8D8",
"%. c #DADADA",
"&. c gainsboro",
"*. c gray87",
"=. c #FFC1C1",
"-. c #FEC6C6",
";. c #FFCDCD",
":. c #FFD0D0",
">. c #FFDEDE",
",. c #E1E1E1",
"<. c #E4E4E4",
"1. c #E6E6E6",
"2. c gray92",
"3. c #ECECEC",
"4. c #EFEFEF",
"5. c #FFEBEB",
"6. c gray94",
"7. c #F3F3F3",
"8. c gray97",
"9. c #FFF3F3",
"0. c #F8F8F8",
"q. c #FBFBFB",
"w. c gray99",
"e. c gray100",
/* pixels */
"< < < < < < < < < < < < < < < < < < < < < < < < < < < < < < < < < < < < < < < < < < < < < < < < ",
"< < < < < < < < < < < < < < < < < < > = % + O o o O + $ ; < < < < < < < < < < < < < < < < < < < ",
"< < < < < < < < < < < < < < < < $ . . . . . . . . . . . . . . @ < < < < < < < < < < < < < < < < ",
"< < < < < < < < < < < < < < < $ . . @ 4 ~ ..%.<.<.*...~ 5 $ . . @ < < < < < < < < < < < < < < < ",
"< < < < < < < < < < < < < @ . . o < ( #.2.q.e.e.e.e.e.3.#.( < . . . @ 2 < < < < < < < < < < < < ",
"< < < < < < < < < < < < @ . o > ..6.e.e.e.e.e.e.e.e.e.e.e.e.7.o.> O . @ < < < < < < < < < < < < ",
"< < < < < < < < < < < + . + Q 6.e.e.e.e.e.e.d 0 9 d e.q.e.e.e.e.7.! + . + < < < < < < < < < < < ",
"< < < < < < < < < < O . ; ..e.e.e.e.*.%.q.| 9 9 9 9 | q.%.*.e.e.e.e.o.; . + < < < < < < < < < < ",
"< < < < < < < < < + . : #.e.e.e.*.W > ! q.u 9 9 9 9 u q.Q > W ,.e.e.e.#.: . + < < < < < < < < < ",
"< < < < < < < < @ . = @.e.e.e.] 2 < < O.e.q 9 9 9 9 q e.+.< < 2 ] e.e.e.#.= . @ < < < < < < < < ",
"< < < < < < < $ . @ ] e.e.e.~ > < < 2 2.>.r { =.=.{ r >.2.2 < < > ~ e.e.e...@ . $ < < < < < < < ",
"< < < < < < < . . E e.e.e.^ > < < < 7 q.[ 5.e.e.e.e.5.[ 8.6 < < < > ^ e.e.e.E . . < < < < < < < ",
"< < < < < < $ . : 6.e.e.] > < < < < W e.} e./ O O / e.} e.W < < < < > ' e.e.6.: . @ < < < < < < ",
"< < < < < $ . o ' e.e.<.< < < < < > +.e.-.e.O     O e.-.e.+.> < < < < 2 2.e.e.' o . $ < < < < < ",
"< < < < < . . < e.e.q.T < < < < < < ,.:.=.e.O     O e.=.;.,., < < < < < U q.e.e.2 . . < < < < < ",
"< < < < < . o _ e.e.( > < < < < < < 2.f { e./ O O / e.{ s 2.1 < < < < < > ^ e.e._ o . < < < < < ",
"< < < < : . % ,.e.q.8 < < < < < < 7 7.p e 5.e.e.e.e.5.e y q.8 < < < < < < 7 q.e.,.* . : < < < < ",
"< < < < = . 7 q.e.,.2 < < < < < < ~ e.i 9 e { =.=.{ e 9 t e./ < < < < < < < %.e.q.7 . = < < < < ",
"< < < < % . ~ e.e.~ 2 < < < < < < ( e.w 9 9 9 9 9 9 9 9 9 9.` < 2 < < < < < R e.e.^ . $ < < < < ",
"< < < < + . o.e.e.,.' ' ' ' ' ' ' 3.e.g q 9 9 9 9 9 9 9 a e.3.] ' ' ' ' ' ' %.e.e.o.. @ < < < < ",
"< < < < O . *.e.e.e.e.e.e.e.e.e.e.e.e.e.e.e.e.e.e.e.e.e.e.e.e.e.e.e.e.e.e.e.e.e.e.,.. O < < < < ",
"< < < < o . 3.e.e.e.e.e.e.e.e.e.e.e.e.e.e.e.e.e.e.e.e.e.e.e.e.e.e.e.e.e.e.e.e.e.e.6.. . < < < < ",
"< < < < . . q.e.2.A H H H H H H H H H H H H H H H H H H H H H H H H H H H H C 3.e.e.. . < < < < ",
"< < < < . . e.e.<.B I I I I I I I I I I I I I I I I I I I I I I I I I I I I m <.e.e.. . < < < < ",
"< < < < . . e.e.<.M I I I I I I I I I I I I I I I I I I I I I I I I I I I I m <.e.e.. . < < < < ",
"< < < < o . 7.e.2.n I I I I I I I I I I I I I I I I I I I I I I I I I I I I S 3.e.q.. . < < < < ",
"< < < < o . 3.e.3.D I I I I I I I I I I I I I I I I I I I I I I I I I I I I C 3.e.3.. o < < < < ",
"< < < < O . @.e.q.c I I I I I I I I I I I I I I I I I I I I I I I I I I I I F 3.e.%.. + < < < < ",
"< < < < @ . ' e.e.o.L I I I I I I I I I I I I I I I I I I I I I I I I I I I z 7.e.' . @ < < < < ",
"< < < < % . E e.e.3.F I I I I I I I I I I I I I I I I I I I I I I I I I I K +.e.e.W . % < < < < ",
"< < < < ; . 2 7.e.e.v I I I I I I I I I I I I I I I I I I I I I I I I I I j 3.e.q.3 . ; < < < < ",
"< < < < < . @ #.e.e.X.P I I I I I I I I I I I I I I I I I I I I I I I I I ) e.e.@.$ . < < < < < ",
"< < < < < . o W e.e.<.Z I I I I I I I I I I I I I I I I I I I I I I I I n ,.e.e.! o . < < < < < ",
"< < < < < @ . = 3.e.e. .L I I I I I I I I I I I I I I I I I I I I I I L  .e.e.6.; . @ < < < < < ",
"< < > < < < . . ! e.e.7.k I I I I I I I I I I I I I I I I I I I I I I k 7.e.e.! . . < < < > < < ",
"< % . % < < $ . * *.e.e.3.C I I I I I I I I I I I I I I I I I I I I C 2.e.e.,.* . $ < < % . % < ",
"< o . . $ < < . . 7 e.e.e.*.A I I I I I I I I I I I I I I I I I I A *.e.e.e.7 o . < < $ . . o < ",
"< . . . . $ < $ . o / e.e.e.,.h I I I I I I I I I I I I I I I I h ,.e.e.e./ O . $ < $ . . . . < ",
"< . . ~ . . $ < $ . @ ] e.e.e.3.v H I I I I I I I I I I I I G v 3.e.e.e...$ . @ < $ . . ~ . . < ",
"< . . e._ : . $ < @ . % ..e.e.e.q.%.C I I I I I I I I I K F #.q.e.e.e...% . @ < $ . : ( e.. . < ",
"< . . e.e.] 2 . $ < + . @ / e.e.e.e.3.#.x G I I P N l ) <.3.e.e.e.e./ $ . + < $ . 2 ] e.e.. . < ",
"< . . e.e.e.+.7 . $ > + . O T <.e.e.e.e.q.6.2.2.2.6.q.q.e.e.e.e.2.T O . @ > $ . 7 +.e.e.e.. . < ",
"< . . e.e.e.e.*.T . $ > $ . o * ^ <.e.e.e.e.e.e.e.e.e.e.e.e.<./ % o . $ : $ . T *.e.e.e.e.. . < ",
"< . . e.e.e.e.e.2.Y . @ : $ . . . = W O.<.7.e.e.e.e.7.<.+.Q = o . . $ ; $ . T 3.e.e.e.e.e.. . < ",
"< . . e.e.e.e.e.e.7.T . . ; < $ . . O > E _ +.#.#.O._ E > O . . $ < ; . . T 7.e.e.e.e.e.e.. . < ",
"< . . . . . . . . . . . . @ < < < @ . . . . . . . . . . . . . $ < < @ . . . . . . . . . . . . < ",
"< $ . . . . . . . . . . @ ; < < < < < ; * $ + O + + @ * ; > < < < < ; @ . . . . . . . . . . $ < ",
"< < < < < < < < < < < < < < < < < < < < < < < < < < < < < < < < < < < < < < < < < < < < < < < < "
};
