/* XPM */
static char * buttonDblLeftSelectedLocked[] = {
"48 48 308 2",
"  	c None",
". 	c #666666",
"+ 	c #7C7C7C",
"@ 	c #CDCDCD",
"# 	c #F1F1F1",
"$ 	c #727272",
"% 	c #656565",
"& 	c #626262",
"* 	c #5F5E5E",
"= 	c #5D5C5C",
"- 	c #5B5A5A",
"; 	c #FFFFFF",
"> 	c #5E5E5E",
", 	c #595858",
"' 	c #DFDFDF",
") 	c #FDEDEB",
"! 	c #F7AFA6",
"~ 	c #ED3F29",
"{ 	c #F0F0F0",
"] 	c #5A5959",
"^ 	c #696868",
"/ 	c #8C8B8B",
"( 	c #B3B2B2",
"_ 	c #CECDCD",
": 	c #E1E1E1",
"< 	c #EAE9E9",
"[ 	c #CECECE",
"} 	c #B3B3B3",
"| 	c #8C8C8C",
"1 	c #FBD4CF",
"2 	c #F16F5F",
"3 	c #EB2B13",
"4 	c #EB3019",
"5 	c #FCFCFC",
"6 	c #818181",
"7 	c #BDBCBC",
"8 	c #DEDEDE",
"9 	c #EFEFEF",
"0 	c #BDBDBD",
"a 	c #828181",
"b 	c #707070",
"c 	c #EEEEEE",
"d 	c #F9BCB5",
"e 	c #EE4631",
"f 	c #F16957",
"g 	c #DDDDDD",
"h 	c #CCCCCC",
"i 	c #F5F5F5",
"j 	c #FEFEFE",
"k 	c #7F7F7F",
"l 	c #5C5B5B",
"m 	c #5E5D5D",
"n 	c #E0E0E0",
"o 	c #F9C0B9",
"p 	c #ED412B",
"q 	c #F48B7E",
"r 	c #FBFBFB",
"s 	c #EAEAEA",
"t 	c #F8F8F8",
"u 	c #AFAEAE",
"v 	c #636262",
"w 	c #FBD2CD",
"x 	c #EE4B36",
"y 	c #EB2E17",
"z 	c #FDFDFD",
"A 	c #E5E5E5",
"B 	c #E2E2E2",
"C 	c #A09F9F",
"D 	c #FAFAFA",
"E 	c #CFCFCF",
"F 	c #777676",
"G 	c #858585",
"H 	c #FDEEEC",
"I 	c #F06554",
"J 	c #F0DFDD",
"K 	c #D0877E",
"L 	c #DF311B",
"M 	c #AEAEAE",
"N 	c #7D7C7C",
"O 	c #ADACAC",
"P 	c #686767",
"Q 	c #C1C0C0",
"R 	c #7C7B7B",
"S 	c #6B6B6B",
"T 	c #E9E9E9",
"U 	c #F6A297",
"V 	c #EF533F",
"W 	c #DFB8B3",
"X 	c #CD4B3B",
"Y 	c #E82C15",
"Z 	c #D6D6D6",
"` 	c #D5D4D4",
" .	c #D5D5D5",
"..	c #8F8E8E",
"+.	c #DCDCDC",
"@.	c #757474",
"#.	c #5D5D5D",
"$.	c #919191",
"%.	c #FAC6C0",
"&.	c #ED422D",
"*.	c #F0604E",
"=.	c #F5E6E4",
"-.	c #DB331E",
";.	c #CF4635",
">.	c #B4B4B4",
",.	c #898888",
"'.	c #6E6E6E",
").	c #CACACA",
"!.	c #CBCBCB",
"~.	c #676666",
"{.	c #F59286",
"].	c #F48D80",
"^.	c #F0A097",
"/.	c #CB6255",
"(.	c #8D8C8C",
"_.	c #8E8D8D",
":.	c #F9F9F9",
"<.	c #A4A3A3",
"[.	c #6A6969",
"}.	c #A7A7A7",
"|.	c #747474",
"1.	c #F16C5B",
"2.	c #F9BBB3",
"3.	c #F27060",
"4.	c #E92C14",
"5.	c #F4F4F4",
"6.	c #6F6E6E",
"7.	c #C0BFBF",
"8.	c #DBDBDB",
"9.	c #959595",
"0.	c #F9BEB7",
"a.	c #FAC5BE",
"b.	c #F16655",
"c.	c #D9D8D8",
"d.	c #DBDADA",
"e.	c #656464",
"f.	c #D9D9D9",
"g.	c #5C5C5C",
"h.	c #878686",
"i.	c #C6C6C6",
"j.	c #737373",
"k.	c #FACDC7",
"l.	c #FACFC9",
"m.	c #FEF3F2",
"n.	c #EC3721",
"o.	c #D53926",
"p.	c #E7E7E7",
"q.	c #B5B5B5",
"r.	c #605F5F",
"s.	c #E8E8E8",
"t.	c #7B7A7A",
"u.	c #636363",
"v.	c #AEADAD",
"w.	c #858484",
"x.	c #F8B3AB",
"y.	c #D1412F",
"z.	c #ECECEC",
"A.	c #8A8A8A",
"B.	c #646363",
"C.	c #717171",
"D.	c #807F7F",
"E.	c #908F8F",
"F.	c #D78C82",
"G.	c #EF5845",
"H.	c #CB6357",
"I.	c #818080",
"J.	c #727171",
"K.	c #ABABAB",
"L.	c #A8A7A7",
"M.	c #706F6F",
"N.	c #646464",
"O.	c #626161",
"P.	c #F0E0DE",
"Q.	c #CE4838",
"R.	c #D5968E",
"S.	c #7E7D7D",
"T.	c #6D6C6C",
"U.	c #E4E3E3",
"V.	c #D0D0D0",
"W.	c #929191",
"X.	c #B2B1B1",
"Y.	c #D59B93",
"Z.	c #D8A39D",
"`.	c #C6C5C5",
" +	c #B8B8B8",
".+	c #F1E1E0",
"++	c #DCAFAA",
"@+	c #DDB1AC",
"#+	c #DEB6B1",
"$+	c #F5EBEA",
"%+	c #F7F7F7",
"&+	c #D1D1D1",
"*+	c #E6E6E6",
"=+	c #F3F3F3",
"-+	c #EDEDED",
";+	c #4176B4",
">+	c #266EC3",
",+	c #4779B3",
"'+	c #3070BC",
")+	c #1D6FD0",
"!+	c #3370BA",
"~+	c #EBEBEB",
"{+	c #367CB9",
"]+	c #9DB15B",
"^+	c #E9D914",
"/+	c #F5DF09",
"(+	c #EAD914",
"_+	c #A0B357",
":+	c #377CB8",
"<+	c #3471BA",
"[+	c #3B73B7",
"}+	c #2F78C0",
"|+	c #C4C537",
"1+	c #FCE302",
"2+	c #C8C833",
"3+	c #96AE60",
"4+	c #C6C734",
"5+	c #C5C636",
"6+	c #3079BF",
"7+	c #3C74B6",
"8+	c #F2F2F2",
"9+	c #507DB2",
"0+	c #9CB15B",
"a+	c #FFE400",
"b+	c #99AF5E",
"c+	c #347BBB",
"d+	c #2B76C3",
"e+	c #98AF5F",
"f+	c #9EB25A",
"g+	c #1E6FCF",
"h+	c #7D97B6",
"i+	c #2E78C1",
"j+	c #EFDC0F",
"k+	c #DED31E",
"l+	c #DFD31D",
"m+	c #4B7AB3",
"n+	c #5B5B5B",
"o+	c #C4C3C3",
"p+	c #216ECA",
"q+	c #2674C8",
"r+	c #B5BE44",
"s+	c #B7BF42",
"t+	c #FDE302",
"u+	c #708EB4",
"v+	c #A6A5A5",
"w+	c #4C7BB3",
"x+	c #568C9C",
"y+	c #C5C635",
"z+	c #5089A2",
"A+	c #4E88A3",
"B+	c #C7C733",
"C+	c #FBE204",
"D+	c #558C9D",
"E+	c #226EC7",
"F+	c #D2D2D2",
"G+	c #A9A9A9",
"H+	c #8DA1BA",
"I+	c #F1DD0D",
"J+	c #CDCA2E",
"K+	c #CECB2D",
"L+	c #CCC92F",
"M+	c #C1C439",
"N+	c #5A82B2",
"O+	c #888787",
"P+	c #CDCECF",
"Q+	c #1F6ECC",
"R+	c #F3DE0B",
"S+	c #B0B9C4",
"T+	c #AAAAAA",
"U+	c #3F75B5",
"V+	c #E4D618",
"W+	c #E2D51B",
"X+	c #BDC1C8",
"Y+	c #BDC2C9",
"Z+	c #767575",
"`+	c #6B8BB3",
" @	c #B1B0B0",
".@	c #E6E5E5",
"+@	c #909090",
"@@	c #E7D816",
"#@	c #949393",
"$@	c #B7B7B7",
"%@	c #5580B2",
"&@	c #E5D718",
"*@	c #F9E106",
"=@	c #B9B9B9",
"-@	c #CAC9C9",
";@	c #8FA2B9",
">@	c #256EC4",
",@	c #6E6D6D",
"'@	c #226EC9",
")@	c #CCCBCB",
"!@	c #7A95B5",
"~@	c #246EC5",
"{@	c #3772B8",
"]@	c #6F8EB3",
"^@	c #BBBABA",
"/@	c #9E9D9D",
"(@	c #717070",
"_@	c #B7B6B6",
":@	c #B9B8B8",
"<@	c #737272",
"[@	c #D4D4D4",
"}@	c #F6F6F6",
"|@	c #ACABAB",
"1@	c #616060",
"2@	c #A5A5A5",
"3@	c #606060",
". . . . . . . . . . . . . . . . . . . . . . . . . . . . . . . . . . . . . . . . . . . . . . . . ",
". . . . . . . . . . . . . . . . . . . . . . . . . . . . . . . . . . . . . . . . . . . . . . . . ",
". . . . . . . . . . . + @ # @ $ . . % & * = - - - - = * & % . . . . . . . . . . . . . . . . . . ",
". . . . . . . . . . @ ; ; ; ; @ > , , , , , , , , , , , , , , > . . . . . . . . . . . . . . . . ",
". . . . . . . . $ ' ; ) ! ~ ; { , ] ^ / ( _ : < < : [ } | ^ ] , > . . . . . . . . . . . . . . . ",
". . . . . . . $ { ; 1 2 3 4 ; 5 - 6 7 8 9 5 ; ; ; ; 5 { 8 0 a - , , > . . . . . . . . . . . . . ",
". . . . . . b c ; d e 3 3 f ; g h i j ; ; ; ; ; ; ; ; ; ; j i _ k l , m . . . . . . . . . . . . ",
". . . . . . n ; o p 3 3 3 q ; r ; ; ; j ; j i s s i j j j ; ; ; t u v , l . . . . . . . . . . . ",
". . . . . h ; w x 3 3 3 y ! ; ; ; z A B r ; C l l C ; D n A z ; ; ; E F , l . . . . . . . . . . ",
". . . . G ; H I 3 3 3 3 ~ ; ; ; J K L M r i N , , N i r O P Q { ; ; ; 8 R , l . . . . . . . . . ",
". . . S T ; U 3 3 3 3 3 V ; ; W X 3 Y Z ; ` v , , v ` ;  .m , ..+.j ; ; +.@., #.. . . . . . . . ",
". . . $.; %.&.3 3 3 3 3 *.; =.-.3 3 ;.9 ; >.m , , m >.; 9 ,., , '.).j ; ; !.~., > . . . . . . . ",
". . . @ ; {.3 3 3 3 3 3 ].; ^.3 3 3 /.D j (.] , , ] _.; :.<., = , [.@ ; ; ; }.- , . . . . . . . ",
". . |.; ) 1.3 3 3 3 3 3 2.; 3.3 3 4.K ; 5.6., > > , '.5.; 7.l , = , $ 8.; ; 5.R , m . . . . . . ",
". . 9.; 0.3 3 3 3 3 3 3 a.; b.3 3 L c.; d.e., % % , e.f.; c.P , % g., h.5.; ; i.m , > . . . . . ",
". . j.; H k.l.l.l.l.l.w m.; n.3 3 o.p.; q.r., % % , * >.; s.t., u.% - , v.D ; 5 w.] , . . . . . ",
". . . h ; ; ; ; ; ; ; ; ; x.3 3 3 y.z.; A.] , . . , ] h.; c h., & . & , B.E j ; Q m , . . . . . ",
". . . . C.D.E.z.; 5 F.G.n.3 3 3 3 H.:.; I., > . . > , J.t D K., > . . #., L.D ; s.M., N.. . . . ",
". . . . O., E.5 ; P.Q.3 3 3 3 3 3 R.; ; S., l l l l , T.U.; V.] , l l l , S.z.; 5 W., O.. . . . ",
". . . . * , X.; ; Y.3 3 3 3 3 3 3 Z.; 9 B., , , , , , , `.; Z , , , , , , ,  +5 ; >., * . . . . ",
". . . . = , E ; ; .+++@+@+@+@+@+#+$+; D 8 f.f.f.f.f.f.+.# ; %+g f.f.f.f.f.c.z.j ; &+, = . . . . ",
". . . . - , U.; ; ; ; ; ; ; ; ; ; ; ; ; ; ; ; ; ; ; ; ; ; ; ; ; ; ; ; ; ; ; ; ; ; *+, - . . . . ",
". . . . ] , =+; ; ; ; ; ; ; ; ; ; ; ; ; ; ; ; ; ; ; ; ; ; ; ; ; ; ; ; ; ; ; ; ; ; i , ] . . . . ",
". . . . , , 5 ; -+;+>+>+>+>+>+>+>+>+>+>+>+>+>+>+>+>+>+>+>+>+>+>+>+>+>+>+>+>+,+9 ; j , , . . . . ",
". . . . , , ; ; s '+)+)+)+)+)+)+)+)+)+)+)+)+)+)+)+)+)+)+)+)+)+)+)+)+)+)+)+)+!+~+; ; , , . . . . ",
". . . . , , j ; ~+!+)+)+)+)+)+)+)+)+)+)+{+]+^+/+/+(+_+:+)+)+)+)+)+)+)+)+)+)+<+~+; ; , , . . . . ",
". . . . , , t ; -+[+)+)+)+)+)+)+)+)+)+}+|+1+2+3+3+4+1+5+6+)+)+)+)+)+)+)+)+)+7+-+; r , , . . . . ",
". . . . ] , -+; 8+9+)+)+)+)+)+)+)+)+)+0+a+b+c+d+d+c+e+a+f+g+)+)+)+)+)+)+)+)+,+# ; { , ] . . . . ",
". . . . l , +.; D h+)+)+)+)+)+)+)+)+i+j+k+i+)+)+)+)+i+l+j+6+)+)+)+)+)+)+)+)+m+8+; ' , n+. . . . ",
". . . . m , o+; ; V.p+)+)+)+)+)+)+)+q+a+r+)+)+)+)+)+)+s+t+q+)+)+)+)+)+)+)+)+u+t ; i., #.. . . . ",
". . . . r., v+; ; # w+)+)+)+)+)+)+)+x+a+y+z+z+z+z+z+A+B+C+D+)+)+)+)+)+)+)+E+F+; ; G+, r.. . . . ",
". . . . v , w.:.; 5 H+)+)+)+)+)+)+)+|+a+I+J+K+K+K+K+L+I+t+M+)+)+)+)+)+)+)+N+i ; D O+, & . . . . ",
". . . . % , ~.d.; ; P+Q+)+)+)+)+)+)+R+a+a+a+a+a+a+a+a+a+a+I+)+)+)+)+)+)+)+S+j ; +.^ , % . . . . ",
". . . . . , l T+; ; < U+)+)+)+)+)+)+V+a+a+a+a+a+a+a+a+a+a+W+)+)+)+)+)+)+7+s.; ; O l , . . . . . ",
". . . . . > , |.# ; ; X+p+)+)+)+)+)+V+a+a+a+a+a+a+a+a+a+a+W+)+)+)+)+)+p+Y+; ; 5.Z+, > . . . . . ",
". . . . . . , - M ; ; t `+)+)+)+)+)+V+a+a+a+a+a+a+a+a+a+a+W+)+)+)+)+)+`+t ; ;  @l , . . . . . . ",
". . . . . . > , '.U.; ; 9 ,+)+)+)+)+V+a+a+a+a+a+a+a+a+a+a+W+)+)+)+)+,+9 ; ; .@M., > . . . . . . ",
". . . . . . . , ] +@; ; ; A ;+)+)+)+@@a+a+a+a+a+a+a+a+a+a+V+)+)+)+;+A ; ; ; #@] , . . . . . . . ",
". . . . . . . > , m $@; ; ; .@%@)+)+&@*@*@*@*@*@*@*@*@*@*@W+)+)+%@.@; ; ; =@m , > . . . . . . . ",
". . . . . . . . m , ^ -@; ; ; # ;@>@)+)+)+)+)+)+)+)+)+)+)+)+E+;@# ; ; ; h [., m . . . . . . . . ",
". . . . . . . . . = , ,@!.; ; ; D ' ,+)+)+)+)+)+)+)+)+)+'@w+g D ; ; ; )@6., = . . . . . . . . . ",
". . . . . . . . . . = , ~. +; ; ; ; # 8 !@~@)+)+Q+{@]@S+~+# ; ; ; ; ^@^ , = . . . . . . . . . . ",
". . . . . . . . . . . #., * /@z.; ; ; ; D =+9 9 9 i D z ; ; ; ; -+C * , = . . . . . . . . . . . ",
". . . . . . . . . . . . m , - (@_@~+z ; ; ; ; ; ; ; ; ; ; z ~+:@J.- , m . . . . . . . . . . . . ",
". . . . . . . . . . . . . > , , ] <@K.[@T }@j ; ; j }@T  .|@<@] , , > . . . . . . . . . . . . . ",
". . . . . . . . . . . . . . . > , , 1@N 2@Q [@g g [@Q 2@S.O.] , > . . . . . . . . . . . . . . . ",
". . . . . . . . . . . . . . . . . m , , , , , , , , , , , , , > . . . . . . . . . . . . . . . . ",
". . . . . . . . . . . . . . . . . . % u.3@m g.l l g.m 3@u.% . . . . . . . . . . . . . . . . . . "};
