/* XPM */
static char * clickwindow[] = {
"32 32 4 1",
"  c None",
". c #333333",
"X c #000000",
"o c #808080",
"                                ",
"                                ",
"                                ",
"                                ",
"                                ",
"                                ",
" .............................. ",
" .............X................ ",
" ..           X     X        .. ",
" ..           X    X         .. ",
" ..           X   X          .. ",
" ..     X         X          .. ",
" ..     XX                   .. ",
" ..      XXX                 .. ",
" ..            oX   XX       .. ",
" ..            oX    XX      .. ",
" ..            oXX     X     .. ",
" ..        XX  oXXX          .. ",
" ..      XXX   oXXXX         .. ",
" .......XX.....oXXXXX.......... ",
" ..............oXXXXXX......... ",
"               oXXXXXXX         ",
"               oXXXXXXXX        ",
"               oXXXXXX          ",
"               oXXXXX           ",
"               oXX XXX          ",
"               oX  oXX          ",
"                    oXX         ",
"                    oXXX        ",
"                     oXX        ",
"                      o         ",
"                                "};
