/* XPM */
static char * clickwindowoff[] = {
"32 32 107 2",
"  	c None",
". 	c #FFFFFF",
"+ 	c #717D88",
"@ 	c #6B6F71",
"# 	c #6B6F73",
"$ 	c #6A6B6F",
"% 	c #68737F",
"& 	c #555555",
"* 	c #757575",
"= 	c #6F6F6F",
"- 	c #5F5F5F",
"; 	c #FEFEFE",
"> 	c #F2F2F2",
", 	c #FAFAFA",
"' 	c #FDFDFD",
") 	c #F3F3F3",
"! 	c #686868",
"~ 	c #565656",
"{ 	c #6A6A6A",
"] 	c #F9F9F9",
"^ 	c #F6F6F6",
"/ 	c #6B6B6B",
"( 	c #666666",
"_ 	c #616161",
": 	c #484847",
"< 	c #979797",
"[ 	c #999999",
"} 	c #454444",
"| 	c #4A4A4A",
"1 	c #EDF6FC",
"2 	c #7FC1EB",
"3 	c #F6FBFE",
"4 	c #474747",
"5 	c #EEF6FC",
"6 	c #3D92DB",
"7 	c #0B52C2",
"8 	c #53A5E1",
"9 	c #F6FBFD",
"0 	c #ECF5FC",
"a 	c #358CD9",
"b 	c #105AC5",
"c 	c #1968CC",
"d 	c #0F58C5",
"e 	c #4B9EE0",
"f 	c #F4FAFD",
"g 	c #E7F3FB",
"h 	c #3388D7",
"i 	c #0B53C2",
"j 	c #1764CA",
"k 	c #1C6BCD",
"l 	c #1561C9",
"m 	c #0D53C4",
"n 	c #479BDE",
"o 	c #F0F7FC",
"p 	c #FAFDFE",
"q 	c #2F82D5",
"r 	c #0C52C2",
"s 	c #1B6BCD",
"t 	c #2579D3",
"u 	c #1A68CD",
"v 	c #267BD3",
"w 	c #1966CC",
"x 	c #53A5E2",
"y 	c #F2F9FD",
"z 	c #084ABF",
"A 	c #BDDEF4",
"B 	c #5AAAE4",
"C 	c #115BC6",
"D 	c #77BBE8",
"E 	c #B2D9F2",
"F 	c #115AC6",
"G 	c #2275D0",
"H 	c #9B9B9B",
"I 	c #EFF7FD",
"J 	c #125DC8",
"K 	c #C2E1F5",
"L 	c #5BACE4",
"M 	c #0D55C4",
"N 	c #82C2EB",
"O 	c #FEFFFF",
"P 	c #A4D2F0",
"Q 	c #2B7FD4",
"R 	c #B8DCF4",
"S 	c #4EA2E1",
"T 	c #0E55C4",
"U 	c #6FB8E7",
"V 	c #BBDDF4",
"W 	c #50A2E1",
"X 	c #71B8E7",
"Y 	c #4D9EE0",
"Z 	c #6DB5E6",
"` 	c #4B9DDF",
" .	c #0C53C4",
"..	c #6AB5E6",
"+.	c #484848",
"@.	c #909090",
"#.	c #FCFCFC",
"$.	c #FBFBFB",
"%.	c #EFF8FB",
"&.	c #DEEFFA",
"*.	c #F3FAFB",
"=.	c #949494",
"-.	c #444444",
";.	c #ACACAC",
">.	c #3D3D3D",
",.	c #3E3E3E",
"'.	c #B4B4B4",
"                                                                ",
"                                                                ",
"                                                                ",
"        . . . . . . . . . . . . . . . . . . . . . . . .         ",
"      . . . . . . . . . . . . . . . . . . . . . . . . . .       ",
"      . . + @ # # # # # # # # # # # # # # # # # # $ % . .       ",
"      . . + @ # # # # # # # # # # # # # # # # # # $ % . .       ",
"      . . & * . . . . . . . . . . . . . . . . . . = - . .       ",
"      . . & * ; . ; > > > > , . . ' > > > ) ; . ; ! & . .       ",
"      . . ~ { { = ] . { { { { ^ . ! { { { . , { ! / ~ . .       ",
"      . . ~ { { ( ] . { { { { ^ . ! { { { . , _ ! / ~ . .       ",
"      . . : < . . . . . . ' ; ; ; ; ' . . . . . . [ } . .       ",
"      . . | < . . . . . . ' ; 1 2 3 ' . . . . . . [ 4 . .       ",
"      . . | < . . . . . . ' 5 6 7 8 9 . . . . . . [ 4 . .       ",
"      . . | < . . . . . . 0 a b c d e f . . . . . [ 4 . .       ",
"      . . | < . . . . . g h i j k l m n o . . . . [ 4 . .       ",
"      . . | < . . . . p q r s t u v w 7 x . . . . [ 4 . .       ",
"      . . | [ . . . . y z s A B C D E F G . . . . H 4 . .       ",
"      . . | [ . . . . I J K . L M N O P Q . . . . H 4 . .       ",
"      . . | [ . . . . 3 R . . S T U . O V . . . . H 4 . .       ",
"      . . | [ . . . . . . . O W T X . . O . . . . H 4 . .       ",
"      . . | [ . . . . . . . O W T X . . . . . . . H 4 . .       ",
"      . . | [ . . . . . . . O Y r Z . . . . . . . H 4 . .       ",
"      . . | [ . . . . . . . O `  .... . . . . . . H 4 . .       ",
"      . . +.@.#.$.$.$.$.$.$.$.%.&.*.$.$.$.$.$.$.#.=.-.. .       ",
"      . . & { ! ( ( ( ( ( ( ( ( ( ( ( ( ( ( ( ( ! { & . .       ",
"      . . ;.4 >.,.,.,.,.,.,.,.,.,.,.,.,.,.,.,.,.>.4 '.. .       ",
"      . . . . . . . . . . . . . . . . . . . . . . . . . .       ",
"        . . . . . . . . . . . . . . . . . . . . . . . .         ",
"                                                                ",
"                                                                ",
"                                                                "};
