/* XPM */
static const char *clickwindow[] = {
/* columns rows colors chars-per-pixel */
"32 32 126 2 ",
"   c gray24",
".  c #3E3E3E",
"X  c #444444",
"o  c #454444",
"O  c gray28",
"+  c #484847",
"@  c #484848",
"#  c gray29",
"$  c #505050",
"%  c #555555",
"&  c #565656",
"*  c #5F5F5F",
"=  c gray38",
"-  c #626262",
";  c gray40",
":  c #686868",
">  c #6A6A6A",
",  c gray42",
"<  c #686B6F",
"1  c #6A6B6F",
"2  c #6D6D6D",
"3  c #6F6F6D",
"4  c #6F6F6F",
"5  c #6B6F71",
"6  c #6B6F73",
"7  c #68737F",
"8  c gray46",
"9  c #73777B",
"0  c #084ABF",
"q  c #717D88",
"w  c #0B52C2",
"e  c #0B53C2",
"r  c #0C52C2",
"t  c #0C53C4",
"y  c #0D53C4",
"u  c #0D55C4",
"i  c #0E55C4",
"p  c #0F58C5",
"a  c #105AC5",
"s  c #115AC6",
"d  c #115BC6",
"f  c #125DC8",
"g  c #1561C9",
"h  c #1764CA",
"j  c #1966CC",
"k  c #1968CC",
"l  c #1A68CD",
"z  c #1B6BCD",
"x  c #1C6BCD",
"c  c #2275D0",
"v  c #2579D3",
"b  c #267BD3",
"n  c #2B7FD4",
"m  c #2F82D5",
"M  c #3388D7",
"N  c #358CD9",
"B  c #3D92DB",
"V  c #479BDE",
"C  c #4B9DDF",
"Z  c #4B9EE0",
"A  c #4D9EE0",
"S  c #4EA2E1",
"D  c #50A2E1",
"F  c #53A5E1",
"G  c #53A5E2",
"H  c #5AAAE4",
"J  c #5BACE4",
"K  c #6AB5E6",
"L  c #6DB5E6",
"P  c #6FB8E7",
"I  c #71B8E7",
"U  c #77BBE8",
"Y  c #7FC1EB",
"T  c #848484",
"R  c #82868A",
"E  c gray55",
"W  c #909090",
"Q  c #929292",
"!  c gray58",
"~  c #959595",
"^  c #979797",
"/  c gray60",
"(  c #9B9B9B",
")  c #9D9D9D",
"_  c #A9A9A9",
"`  c #ACACAC",
"'  c #B4B4B4",
"]  c #82C2EB",
"[  c #A4D2F0",
"{  c #B2D9F2",
"}  c #B8DCF4",
"|  c #BBDDF4",
" . c #BDDEF4",
".. c gray76",
"X. c gray77",
"o. c #C6C6C6",
"O. c gray83",
"+. c #DADADA",
"@. c #C2E1F5",
"#. c #DEEFFA",
"$. c gray88",
"%. c #ECECEC",
"&. c #E7F3FB",
"*. c #ECF5FC",
"=. c #EDF6FC",
"-. c #EEF6FC",
";. c #EFF7FD",
":. c #EFF8FB",
">. c #F1F1F1",
",. c #F3F3F3",
"<. c #F6F6F6",
"1. c #F0F7FC",
"2. c #F3FAFB",
"3. c #F2F9FD",
"4. c #F4FAFD",
"5. c #F6FBFD",
"6. c #F6FBFE",
"7. c #F8F8F8",
"8. c #FBFBFB",
"9. c #FAFDFE",
"0. c gray99",
"q. c #FDFDFD",
"w. c #FEFEFE",
"e. c #FEFFFF",
"r. c gray100",
"t. c None",
/* pixels */
"t.t.t.t.t.t.t.t.t.t.t.t.t.t.t.t.t.t.t.t.t.t.t.t.t.t.t.t.t.t.t.t.",
"t.t.t.t.t.t.t.t.t.t.t.t.t.t.t.t.t.t.t.t.t.t.t.t.t.t.t.t.t.t.t.t.",
"t.t.t.t.t.t.t.t.t.t.t.t.t.t.t.t.t.t.t.t.t.t.t.t.t.t.t.t.t.t.t.t.",
"t.t.t.t.r.r.r.r.r.r.r.r.r.r.r.r.r.r.r.r.r.r.r.r.r.r.r.r.t.t.t.t.",
"t.t.t.r.r.r.r.r.r.r.r.r.r.r.r.r.r.r.r.r.r.r.r.r.r.r.r.r.r.t.t.t.",
"t.t.t.r.r.q 5 < R W 9 < 5 5 < R W 9 < 6 5 < R W 9 < 7 r.r.t.t.t.",
"t.t.t.r.r.3 ; ) +.E $ $ $ $ - X.O.T $ $ $ $ _ $./ - 3 r.r.t.t.t.",
"t.t.t.r.r.* ~ r.r.r...- 3 3 >.r.r.r.3 3 3 ! r.r.r.3 * r.r.t.t.t.",
"t.t.t.r.r.& 8 <.r.<.; - - - o.r.r.%.- - - 4 <.r.>.: & r.r.t.t.t.",
"t.t.t.r.r.& > > 3 - : > > > > ; > ; > > > > ; > : > & r.r.t.t.t.",
"t.t.t.r.r.& > > ; - : > > > > ; - ; > > > > ; - : > & r.r.t.t.t.",
"t.t.t.r.r.# ~ r.r.r.r.r.r.8.r.r.r.r.r.r.r.r.r.r.r./ o r.r.t.t.t.",
"t.t.t.r.r.# / r.r.r.r.r.r.r.r.=.Y 4.r.r.r.r.r.r.r./ O r.r.t.t.t.",
"t.t.t.r.r.# ~ r.r.r.r.r.r.8.=.B w F 4.r.r.r.r.r.r./ O r.r.t.t.t.",
"t.t.t.r.r.# ~ r.r.r.r.r.r.*.N p k i C 4.r.r.r.r.r./ O r.r.t.t.t.",
"t.t.t.r.r.# / r.r.r.r.r.&.M w h x h y V 1.r.r.r.r./ O r.r.t.t.t.",
"t.t.t.r.r.# ~ r.r.r.r.9.m y k b k b j w F r.r.r.r.^ O r.r.t.t.t.",
"t.t.t.r.r.# / r.r.r.r.2.0 z  .H d U { d c r.r.r.r.( O r.r.t.t.t.",
"t.t.t.r.r.# / r.r.r.r.;.f @.r.J t ] r.[ n r.r.r.r.( + r.r.t.t.t.",
"t.t.t.r.r.# / r.r.r.r.4.} r.r.S t P r.r.} r.r.r.r./ + r.r.t.t.t.",
"t.t.t.r.r.# / r.r.r.r.r.r.r.r.D t I r.r.r.r.r.r.r.) O r.r.t.t.t.",
"t.t.t.r.r.# / r.r.r.r.r.r.r.r.S p I r.r.r.r.r.r.r./ O r.r.t.t.t.",
"t.t.t.r.r.# / r.r.r.r.r.r.r.r.C y P r.r.r.r.r.r.r./ O r.r.t.t.t.",
"t.t.t.r.r.# / r.r.r.r.r.r.r.r.C y K r.r.r.r.r.r.r.) O r.r.t.t.t.",
"t.t.t.r.r.O W r.r.8.8.8.8.8.r.=.#.2.8.r.8.8.8.r.r.W X r.r.t.t.t.",
"t.t.t.r.r.& > ; ; ; ; ; ; ; ; ; ; ; ; ; ; ; ; ; > > & r.r.t.t.t.",
"t.t.t.r.r._ O                                     O ' r.r.t.t.t.",
"t.t.t.r.r.r.r.r.r.r.r.r.r.r.r.r.r.r.r.r.r.r.r.r.r.r.r.r.r.t.t.t.",
"t.t.t.t.r.r.r.r.r.r.r.r.r.r.r.r.r.r.r.r.r.r.r.r.r.r.r.r.t.t.t.t.",
"t.t.t.t.t.t.t.t.t.t.t.t.t.t.t.t.t.t.t.t.t.t.t.t.t.t.t.t.t.t.t.t.",
"t.t.t.t.t.t.t.t.t.t.t.t.t.t.t.t.t.t.t.t.t.t.t.t.t.t.t.t.t.t.t.t.",
"t.t.t.t.t.t.t.t.t.t.t.t.t.t.t.t.t.t.t.t.t.t.t.t.t.t.t.t.t.t.t.t."
};
