/* XPM */
static const char *clickwindowoff[] = {
/* columns rows colors chars-per-pixel */
"32 32 107 2 ",
"   c gray24",
".  c #3E3E3E",
"X  c #444444",
"o  c #454444",
"O  c gray28",
"+  c #484847",
"@  c #484848",
"#  c gray29",
"$  c #555555",
"%  c #565656",
"&  c #5F5F5F",
"*  c gray38",
"=  c gray40",
"-  c #686868",
";  c #6A6A6A",
":  c gray42",
">  c #6A6B6F",
",  c #6F6F6F",
"<  c #6B6F71",
"1  c #6B6F73",
"2  c #68737F",
"3  c gray46",
"4  c #084ABF",
"5  c #717D88",
"6  c #0B52C2",
"7  c #0B53C2",
"8  c #0C52C2",
"9  c #0C53C4",
"0  c #0D53C4",
"q  c #0D55C4",
"w  c #0E55C4",
"e  c #0F58C5",
"r  c #105AC5",
"t  c #115AC6",
"y  c #115BC6",
"u  c #125DC8",
"i  c #1561C9",
"p  c #1764CA",
"a  c #1966CC",
"s  c #1968CC",
"d  c #1A68CD",
"f  c #1B6BCD",
"g  c #1C6BCD",
"h  c #2275D0",
"j  c #2579D3",
"k  c #267BD3",
"l  c #2B7FD4",
"z  c #2F82D5",
"x  c #3388D7",
"c  c #358CD9",
"v  c #3D92DB",
"b  c #479BDE",
"n  c #4B9DDF",
"m  c #4B9EE0",
"M  c #4D9EE0",
"N  c #4EA2E1",
"B  c #50A2E1",
"V  c #53A5E1",
"C  c #53A5E2",
"Z  c #5AAAE4",
"A  c #5BACE4",
"S  c #6AB5E6",
"D  c #6DB5E6",
"F  c #6FB8E7",
"G  c #71B8E7",
"H  c #77BBE8",
"J  c #7FC1EB",
"K  c #909090",
"L  c gray58",
"P  c #979797",
"I  c gray60",
"U  c #9B9B9B",
"Y  c #ACACAC",
"T  c #B4B4B4",
"R  c #82C2EB",
"E  c #A4D2F0",
"W  c #B2D9F2",
"Q  c #B8DCF4",
"!  c #BBDDF4",
"~  c #BDDEF4",
"^  c #C2E1F5",
"/  c #DEEFFA",
"(  c #E7F3FB",
")  c #ECF5FC",
"_  c #EDF6FC",
"`  c #EEF6FC",
"'  c #EFF7FD",
"]  c #EFF8FB",
"[  c gray95",
"{  c #F3F3F3",
"}  c #F6F6F6",
"|  c #F0F7FC",
" . c #F3FAFB",
".. c #F2F9FD",
"X. c #F4FAFD",
"o. c #F6FBFD",
"O. c #F6FBFE",
"+. c #F9F9F9",
"@. c gray98",
"#. c #FBFBFB",
"$. c #FAFDFE",
"%. c gray99",
"&. c #FDFDFD",
"*. c #FEFEFE",
"=. c #FEFFFF",
"-. c gray100",
";. c None",
/* pixels */
";.;.;.;.;.;.;.;.;.;.;.;.;.;.;.;.;.;.;.;.;.;.;.;.;.;.;.;.;.;.;.;.",
";.;.;.;.;.;.;.;.;.;.;.;.;.;.;.;.;.;.;.;.;.;.;.;.;.;.;.;.;.;.;.;.",
";.;.;.;.;.;.;.;.;.;.;.;.;.;.;.;.;.;.;.;.;.;.;.;.;.;.;.;.;.;.;.;.",
";.;.;.;.-.-.-.-.-.-.-.-.-.-.-.-.-.-.-.-.-.-.-.-.-.-.-.-.;.;.;.;.",
";.;.;.-.-.-.-.-.-.-.-.-.-.-.-.-.-.-.-.-.-.-.-.-.-.-.-.-.-.;.;.;.",
";.;.;.-.-.5 1 1 1 1 1 1 1 1 1 1 1 1 1 1 1 1 1 1 1 > 2 -.-.;.;.;.",
";.;.;.-.-.5 1 1 1 1 1 1 1 1 1 1 1 1 1 1 1 1 1 1 1 > 2 -.-.;.;.;.",
";.;.;.-.-.$ 3 -.-.-.-.-.-.-.-.-.-.-.-.-.-.-.-.-.-., & -.-.;.;.;.",
";.;.;.-.-.% 3 -.-.-.[ [ [ [ +.-.-.-.[ [ [ [ -.-.-.= % -.-.;.;.;.",
";.;.;.-.-.% ; ; , +.-.; ; ; ; } -.= ; ; ; -.+.; = , % -.-.;.;.;.",
";.;.;.-.-.% ; ; = } -.; ; ; ; { -.= ; ; ; -.+.* = ; % -.-.;.;.;.",
";.;.;.-.-.+ P -.-.-.-.-.-.%.-.-.-.-.-.-.-.-.-.-.-.I o -.-.;.;.;.",
";.;.;.-.-.# P -.-.-.-.-.-.-.-.` J X.-.-.-.-.-.-.-.I o -.-.;.;.;.",
";.;.;.-.-.# P -.-.-.-.-.-.-.` v 6 V X.-.-.-.-.-.-.I # -.-.;.;.;.",
";.;.;.-.-.# P -.-.-.-.-.-.( c r s w n X.-.-.-.-.-.I # -.-.;.;.;.",
";.;.;.-.-.# P -.-.-.-.-.( x 8 p g p 8 b ' -.-.-.-.I o -.-.;.;.;.",
";.;.;.-.-.# P -.-.-.-.$.x 8 s j s k a 8 V -.-.-.-.I # -.-.;.;.;.",
";.;.;.-.-.# I -.-.-.-...4 g ~ Z y H W y h -.-.-.-.I o -.-.;.;.;.",
";.;.;.-.-.# I -.-.-.-.' y ^ -.A w R -.E l -.-.-.-.U # -.-.;.;.;.",
";.;.;.-.-.# I -.-.-.-.X.Q -.-.N w F -.-.! -.-.-.-.I o -.-.;.;.;.",
";.;.;.-.-.# I -.-.-.-.-.-.-.-.N w F -.-.-.-.-.-.-.U o -.-.;.;.;.",
";.;.;.-.-.# I -.-.-.-.-.-.-.-.N w G -.-.-.-.-.-.-.I # -.-.;.;.;.",
";.;.;.-.-.# I -.-.-.-.-.-.-.-.n 8 D -.-.-.-.-.-.-.I # -.-.;.;.;.",
";.;.;.-.-.# I -.-.-.-.-.-.-.-.n 9 S -.-.-.-.-.-.-.U o -.-.;.;.;.",
";.;.;.-.-.o L +.-.+.+.-.+.+.-.` /  .+.-.-.+.+.-.-.L o -.-.;.;.;.",
";.;.;.-.-.% ; ; = = = = = = = = = = = = = = = = = ; % -.-.;.;.;.",
";.;.;.-.-.Y o                                     o T -.-.;.;.;.",
";.;.;.-.-.-.-.-.-.-.-.-.-.-.-.-.-.-.-.-.-.-.-.-.-.-.-.-.-.;.;.;.",
";.;.;.;.-.-.-.-.-.-.-.-.-.-.-.-.-.-.-.-.-.-.-.-.-.-.-.-.;.;.;.;.",
";.;.;.;.;.;.;.;.;.;.;.;.;.;.;.;.;.;.;.;.;.;.;.;.;.;.;.;.;.;.;.;.",
";.;.;.;.;.;.;.;.;.;.;.;.;.;.;.;.;.;.;.;.;.;.;.;.;.;.;.;.;.;.;.;.",
";.;.;.;.;.;.;.;.;.;.;.;.;.;.;.;.;.;.;.;.;.;.;.;.;.;.;.;.;.;.;.;."
};
