/* XPM */
static char * clickwindow[] = {
"32 32 126 2",
"  	c None",
". 	c #FFFFFF",
"+ 	c #717D88",
"@ 	c #6B6F71",
"# 	c #686B6F",
"$ 	c #82868A",
"% 	c #929292",
"& 	c #73777B",
"* 	c #6B6F73",
"= 	c #6A6B6F",
"- 	c #68737F",
"; 	c #6F6F6D",
"> 	c #666666",
", 	c #9D9D9D",
"' 	c #DADADA",
") 	c #8C8C8C",
"! 	c #505050",
"~ 	c #626262",
"{ 	c #C4C4C4",
"] 	c #D4D4D4",
"^ 	c #848484",
"/ 	c #A9A9A9",
"( 	c #E0E0E0",
"_ 	c #999999",
": 	c #616161",
"< 	c #6D6D6D",
"[ 	c #5F5F5F",
"} 	c #959595",
"| 	c #C2C2C2",
"1 	c #F3F3F3",
"2 	c #6F6F6F",
"3 	c #555555",
"4 	c #757575",
"5 	c #F8F8F8",
"6 	c #F6F6F6",
"7 	c #C6C6C6",
"8 	c #FEFEFE",
"9 	c #ECECEC",
"0 	c #F1F1F1",
"a 	c #686868",
"b 	c #565656",
"c 	c #6A6A6A",
"d 	c #6B6B6B",
"e 	c #484847",
"f 	c #979797",
"g 	c #FDFDFD",
"h 	c #454444",
"i 	c #4A4A4A",
"j 	c #EDF6FC",
"k 	c #7FC1EB",
"l 	c #F6FBFE",
"m 	c #474747",
"n 	c #EEF6FC",
"o 	c #3D92DB",
"p 	c #0B52C2",
"q 	c #53A5E1",
"r 	c #F6FBFD",
"s 	c #ECF5FC",
"t 	c #358CD9",
"u 	c #105AC5",
"v 	c #1968CC",
"w 	c #0F58C5",
"x 	c #4B9EE0",
"y 	c #F4FAFD",
"z 	c #E7F3FB",
"A 	c #3388D7",
"B 	c #0B53C2",
"C 	c #1764CA",
"D 	c #1C6BCD",
"E 	c #1561C9",
"F 	c #0D53C4",
"G 	c #479BDE",
"H 	c #F0F7FC",
"I 	c #FAFDFE",
"J 	c #2F82D5",
"K 	c #0C52C2",
"L 	c #1B6BCD",
"M 	c #2579D3",
"N 	c #1A68CD",
"O 	c #267BD3",
"P 	c #1966CC",
"Q 	c #53A5E2",
"R 	c #F2F9FD",
"S 	c #084ABF",
"T 	c #BDDEF4",
"U 	c #5AAAE4",
"V 	c #115BC6",
"W 	c #77BBE8",
"X 	c #B2D9F2",
"Y 	c #115AC6",
"Z 	c #2275D0",
"` 	c #9B9B9B",
" .	c #EFF7FD",
"..	c #125DC8",
"+.	c #C2E1F5",
"@.	c #5BACE4",
"#.	c #0D55C4",
"$.	c #82C2EB",
"%.	c #FEFFFF",
"&.	c #A4D2F0",
"*.	c #2B7FD4",
"=.	c #B8DCF4",
"-.	c #4EA2E1",
";.	c #0E55C4",
">.	c #6FB8E7",
",.	c #BBDDF4",
"'.	c #50A2E1",
").	c #71B8E7",
"!.	c #4D9EE0",
"~.	c #6DB5E6",
"{.	c #4B9DDF",
"].	c #0C53C4",
"^.	c #6AB5E6",
"/.	c #484848",
"(.	c #909090",
"_.	c #FCFCFC",
":.	c #FBFBFB",
"<.	c #EFF8FB",
"[.	c #DEEFFA",
"}.	c #F3FAFB",
"|.	c #949494",
"1.	c #444444",
"2.	c #ACACAC",
"3.	c #3D3D3D",
"4.	c #3E3E3E",
"5.	c #B4B4B4",
"                                                                ",
"                                                                ",
"                                                                ",
"        . . . . . . . . . . . . . . . . . . . . . . . .         ",
"      . . . . . . . . . . . . . . . . . . . . . . . . . .       ",
"      . . + @ # $ % & # * * # $ % & # * * # $ % & = - . .       ",
"      . . ; > , ' ) ! ! ! ! ~ { ] ^ ! ! ! ! / ( _ : < . .       ",
"      . . [ } . . . | ~ < < 1 . . . 2 < < } . . . 2 [ . .       ",
"      . . 3 4 5 . 6 > : ~ ~ 7 8 . 9 : ~ ~ 2 5 . 0 a 3 . .       ",
"      . . b c c 2 : a c c c c > c a c c c c > c a d b . .       ",
"      . . b c c > : a c c c c > : a c c c c > : a d b . .       ",
"      . . e f . . . . . . g 8 8 8 8 g . . . . . . _ h . .       ",
"      . . i f . . . . . . g 8 j k l g . . . . . . _ m . .       ",
"      . . i f . . . . . . g n o p q r . . . . . . _ m . .       ",
"      . . i f . . . . . . s t u v w x y . . . . . _ m . .       ",
"      . . i f . . . . . z A B C D E F G H . . . . _ m . .       ",
"      . . i f . . . . I J K L M N O P p Q . . . . _ m . .       ",
"      . . i _ . . . . R S L T U V W X Y Z . . . . ` m . .       ",
"      . . i _ . . . .  ...+.. @.#.$.%.&.*.. . . . ` m . .       ",
"      . . i _ . . . . l =.. . -.;.>.. %.,.. . . . ` m . .       ",
"      . . i _ . . . . . . . %.'.;.).. . %.. . . . ` m . .       ",
"      . . i _ . . . . . . . %.'.;.).. . . . . . . ` m . .       ",
"      . . i _ . . . . . . . %.!.K ~.. . . . . . . ` m . .       ",
"      . . i _ . . . . . . . %.{.].^.. . . . . . . ` m . .       ",
"      . . /.(._.:.:.:.:.:.:.:.<.[.}.:.:.:.:.:.:._.|.1.. .       ",
"      . . 3 c a > > > > > > > > > > > > > > > > a c 3 . .       ",
"      . . 2.m 3.4.4.4.4.4.4.4.4.4.4.4.4.4.4.4.4.3.m 5.. .       ",
"      . . . . . . . . . . . . . . . . . . . . . . . . . .       ",
"        . . . . . . . . . . . . . . . . . . . . . . . .         ",
"                                                                ",
"                                                                ",
"                                                                "};
