/* XPM */
static const char * clickwindowoff[] = {
"32 32 5 1",
"  c None",
". c #FF0000",
"X c #333333",
"o c #000000",
"O c #808080",
"                                ",
"                                ",
"                                ",
"                                ",
"      ..                ..      ",
"      ...              ...      ",
" XXXXXX...XXXXXXXXXXXX...XXXXXX ",
" XXXXXXX...XXXXXXXXXX...XXXXXXX ",
" XX      ...o       ...      XX ",
" XX       ...     o...       XX ",
" XX        ...   o...        XX ",
" XX         ... o...         XX ",
" XX   o      ......          XX ",
" XX   oo      ....           XX ",
" XX    ooo   Oo..            XX ",
" XX          O....oo         XX ",
" XX          ......oo        XX ",
" XX         ...oo... o       XX ",
" XX      oo...oooo...        XX ",
" XXXXXXooo...Oooooo...XXXXXXXXX ",
" XXXXXooX...XOoooooo...XXXXXXXX ",
"        ...  Oooooooo...        ",
"       ...   Ooooooooo...       ",
"      ...    Ooooooo   ...      ",
"      ..     Oooooo     ..      ",
"             Ooo ooo            ",
"             Oo  Ooo            ",
"                  Ooo           ",
"                  Oooo          ",
"                   Ooo          ",
"                    O           ",
"                                "};
