/* XPM */
static char * eviacam[] = {
"32 32 25 1",
"  c None",
". c #000000",
"X c #FFFFFF",
"o c #F2FFF2",
"O c #F5CFCF",
"+ c #E98F8F",
"@ c #D9FFD9",
"# c #FCEFEF",
"$ c #D94040",
"% c #CC0000",
"& c #DF6060",
"* c #CF1010",
"= c #F9DFDF",
"- c #F2BFBF",
"; c #DFDFDF",
": c #F2C0C0",
"> c #D93F3F",
", c #BFBFBF",
"< c #F9E0E0",
"1 c #F6D0D0",
"2 c #EC9F9F",
"3 c #D63030",
"4 c #FCF0F0",
"5 c #E99090",
"6 c #E68080",
"                                ",
"                                ",
"                                ",
"                            .   ",
"                  ....     ..   ",
"       ...........XXX.    .o.   ",
" ......XXXXXXXXXXXXX.  ...XXX.  ",
" .XXXXXXXXO++XXXXXXX. ..XXXXX@. ",
" .XXXXXX#$%%%$#XXXXX..XXXXXXXX. ",
" .XXXXXX&%*$*%&XXXXX.XXXXXXXXX. ",
" .XXXXX=%%-XO%%#XXXXX;XXXXXXXX. ",
" .XXXXX:%%>>>%%:XXXXX,XXXXXXXX. ",
" .XXXXX:%%$$$$$<XXXXX,XXXXXXXX. ",
" .XXXXX1%%-XXO2XXXXXX,XXXXXXXX. ",
" .XXXXXX$%*>3%%XXXXXX........X. ",
" .XXXXXX1*%%%%&XXXXXX.      .@. ",
" .XXXXXXX4566:XXXXXXX.       .. ",
" .XXXXXXXXXXXXXXXXXXX.          ",
" .XXXXXo...............         ",
" .XXX...X.    .X...             ",
"  ... .X..     .XX.             ",
"      .X.       .XX.            ",
"     .X.        .XX.            ",
"     .X.         .X.            ",
"    .XX.         .XX.           ",
"    .X..         .XX.           ",
"    .X.           .X..          ",
"    .X.           .XX.          ",
"    .X.           .XX.          ",
"  ..XX.            .X.          ",
"  .....            ....         ",
"                                "};
