/* XPM */
static const char *eviacam[] = {
/* columns rows colors chars-per-pixel */
"48 48 207 2 ",
"   c #010101",
".  c #050808",
"X  c #0B0B0B",
"o  c #131313",
"O  c #191616",
"+  c #1C1C1C",
"@  c #2E0000",
"#  c #360000",
"$  c #3C0000",
"%  c #242424",
"&  c #2B2B2B",
"*  c #343434",
"=  c #3D3D3D",
"-  c #4A0000",
";  c #530000",
":  c #610000",
">  c #740000",
",  c #7B0000",
"<  c #434343",
"1  c #484646",
"2  c #4B4B4B",
"3  c #504F4F",
"4  c #4E5151",
"5  c #545454",
"6  c #565959",
"7  c #5B5C5C",
"8  c #744444",
"9  c #5E6262",
"0  c #5E6B6B",
"q  c #666666",
"w  c #636D6D",
"e  c #6C6C6C",
"r  c #667676",
"t  c #657B7B",
"y  c #6C7F7F",
"u  c #747474",
"i  c #717979",
"p  c #7C7C7C",
"a  c #840000",
"s  c #880000",
"d  c #940000",
"f  c #A50000",
"g  c #AB0000",
"h  c #B40000",
"j  c #BE0000",
"k  c #B72727",
"l  c #BE2828",
"z  c #AD3939",
"x  c #BB3232",
"c  c #BC3C3C",
"v  c #C40000",
"b  c #CD0000",
"n  c #D20000",
"m  c #DA0101",
"M  c #D60808",
"N  c #DA0D0D",
"B  c #DA1C1C",
"V  c #EA0000",
"C  c #F10000",
"Z  c red",
"A  c #E01616",
"S  c #E01B1B",
"D  c #C13232",
"F  c #C43D3D",
"G  c #CE3A3A",
"H  c #DA3636",
"J  c #D53939",
"K  c #E12121",
"L  c #E53232",
"P  c #E53B3B",
"I  c #864848",
"U  c #9F4949",
"Y  c #935B5B",
"T  c #BC5F5F",
"R  c #A66060",
"E  c #C44343",
"W  c #CB4040",
"Q  c #C44949",
"!  c #CE4F4F",
"~  c #D44D4D",
"^  c #DA4C4C",
"/  c #C45353",
"(  c #CB5454",
")  c #C75959",
"_  c #CA5C5C",
"`  c #D95555",
"'  c #E84545",
"]  c #E94D4D",
"[  c #F94949",
"{  c #E45353",
"}  c #E95454",
"|  c #FF5454",
" . c #CE7272",
".. c #D47171",
"X. c #E36060",
"o. c #EC6363",
"O. c #ED6F6F",
"+. c #F56060",
"@. c #FF6363",
"#. c #EF7C7C",
"$. c #F17C7C",
"%. c #6D8080",
"&. c #728282",
"*. c #758B8B",
"=. c #798F8F",
"-. c #7C9393",
";. c #759E9E",
":. c #848484",
">. c #8B8B8B",
",. c #819191",
"<. c #8D9494",
"1. c #849B9B",
"2. c #899B9B",
"3. c #939393",
"4. c #959D9D",
"5. c #9B9C9C",
"6. c #85A2A2",
"7. c #86A8A8",
"8. c #8BB1B1",
"9. c #9CBFBF",
"0. c #A4A4A4",
"q. c #A6AAAA",
"w. c #ABABAB",
"e. c #AEB5B5",
"r. c #B3B3B3",
"t. c #B7BABA",
"y. c #BABBBB",
"u. c #D18383",
"i. c #DB8383",
"p. c #D78E8E",
"a. c #D98B8B",
"s. c #D39494",
"d. c #D79898",
"f. c #D99C9C",
"g. c #EE8383",
"h. c #EE8C8C",
"j. c #F18383",
"k. c #EE9292",
"l. c #E19B9B",
"z. c #EF9B9B",
"x. c #F49595",
"c. c #F49999",
"v. c #D5A5A5",
"b. c #D6A8A8",
"n. c #DAACAC",
"m. c #C0BEBE",
"M. c #D6B4B4",
"N. c #DAB3B3",
"B. c #D3BBBB",
"V. c #DDB8B8",
"C. c #E4A7A7",
"Z. c #EEA3A3",
"A. c #E3ADAD",
"S. c #F4A5A5",
"D. c #F4ACAC",
"F. c #ECBCBC",
"G. c #F5BFBF",
"H. c #9DC3C3",
"J. c #A4CBCB",
"K. c #AACFCF",
"L. c #B9C2C2",
"P. c #A7D1D1",
"I. c #A9D3D3",
"U. c #B5D3D3",
"Y. c #B9D2D2",
"T. c #B3DDDD",
"R. c #BADBDB",
"E. c #BCE4E4",
"W. c #BDEBEB",
"Q. c #C4C3C3",
"!. c #C9C6C6",
"~. c #CCCCCC",
"^. c #D0C1C1",
"/. c #DCC1C1",
"(. c #C1D1D1",
"). c #C5DBDB",
"_. c #D4D4D4",
"`. c #D8D7D7",
"'. c #DCDCDC",
"]. c #E9C7C7",
"[. c #EACDCD",
"{. c #E3D4D4",
"}. c #E0DBDB",
"|. c #EDDEDE",
" X c #FED3D3",
".X c #FFDEDE",
"XX c #C7E1E1",
"oX c #CAE5E5",
"OX c #CCEAEA",
"+X c #DEE4E4",
"@X c #D6EEEE",
"#X c #D9EDED",
"$X c #C6F1F1",
"%X c #CBF3F3",
"&X c #D4F3F3",
"*X c #DAF3F3",
"=X c #D2F8F8",
"-X c #DBFFFF",
";X c #E4E4E4",
":X c #ECE3E3",
">X c #EBEBEB",
",X c #E6F0F0",
"<X c #E5FFFF",
"1X c #EBFFFF",
"2X c #F3F3F3",
"3X c #F5FDFD",
"4X c #FFFFFF",
/* pixels */
"q q q q q q q q q q q q q q q q q q q q q q q q q q q q q q q q q q q q q q q q q q q q q q q q ",
"q q q q q q q q q q q q q q q q q q q q q q q q q q q q q q q q q q q q q q q q q q q q q q q q ",
"q q q q q q q q q q q q q q q q q q q q 6 1 < * * = 2 6 9 q q q q q q q q q q q q q q q q q q q ",
"q q q q q q q q q q q q q q q q q 7 < & + .         . O % < 6 q q q q q q q q q q q q q q q q q ",
"q q q q q q q q q q q q q q q 2 %     . & 2 q q e 7 2 & X     + 1 q q q q q q q q q q q q q q q ",
"q q q q q q q q q q q q q 2 O     2 5.;X4X4X4X4X4X4X4X4X}.5.5 X   o 2 q q q q q q q q q q q q q ",
"q q q q q q q q q q q q &     u ;X4X4X4X>X_.~.!.!.~.`.2X4X4X4X'.u .   % 9 q q q q q q q q q q q ",
"q q q q q q q q q q 5 .   5 ;X4X4X;Xr.3.:.u q q q e u :.5.Q.>X4X4X'.7   . 2 q q q q q q q q q q ",
"q q q q q q q q q 2     0.4X4X`.0.p 9 1 2 0 y =.*.%.0 4 < 7 :.w.;X4X4X5.    < q q q q q q q q q ",
"q q q q q q q q 2   X ~.4X>Xr.p 5 2 &.H.Y.~.B.M.M.B.~.Y.H.*.2 2 :.!.4X4X!.o   < q q q q q q q q ",
"q q q q q q q 6   . ;X4X'.3.7 1 y U.{.Z.} K m m m m S } z.[.Y.*.1 5 0.4X4X_.o   3 q q q q q q q ",
"q q q q q q q .   _.4X`.>.5 5 H.;X#.N n n v b v v v b n b M O.:XJ.6 2 >.3X4Xm..   7 q q q q q q ",
"q q q q q q %   q.4X}.>.5 q E.G.B b b v h g f g g f f h j n b N D.$Xw < >.4X4X>.  + q q q q q q ",
"q q q q q 6   3 4X2X3.5 7 $Xc.n n v f f x ..s.b.v.s.i.W f f j n n j.=Xr 2 q.4X4X3   1 q q q q q ",
"q q q q q o   2X4Xw.9 5 W.x.b n h f F n.#X=XOXoXoX&XU.oXV.Q f h n b $.$X7 3 _.4X~.X X q q q q q ",
"q q q q 3   u 4X`.p 1 H.G.n b h f u.<XOXy.y.~.~.~._.e q.OX<Xs.f g b n S.P.1 u 4X4Xq   < q q q q ",
"q q q q +   2X4X5.3 &.,XN b h f f.-XL.Q._.'.;X;X;X'.3._.!.y.-Xn.f h b n :X-.< y.4XQ.X O q q q q ",
"q q q 7   2 4X;Xp 2 T.O.b v f  .$X~.'.`.;X;X;X;X>X_.3.>X'.~.y.-Xp.f j b } XX2 p 4X2X<   6 q q q ",
"q q q <   0.4Xr.9 &.}.m b g D 1Xi q Q.4X2X;X>X>X2X~.5.3X>X'.~.y.<XW g v n {.1.5 `.4X:.  = q q q ",
"q q q &   >X4X3.1 H.z.n v f b.%X_.q.u >.'.4X2X>X4XQ.w.4X;X>X'.!.oX/.g j b g.J.= 0.4Xy.X + 9 q q ",
"q q 6 o & 4X>X:.4 U.] b h l @Xt._.4X3X5.u w.>X3X4Xt.r.4X>X>X;X_.t.&XF h b L Y.5 :.4X`.& X 2 q q ",
"q q 2 . 2 4X_.u w !.S v f u.1X@X<X<X<X4X<X8.R.4X4X,X%X1X<X1X<X<X=X<Xf.f v m B.r u 3X2X=   < q q ",
"q q =   q 4X~.e y B.m b h x _ ( ! ~ ~ ^ ] @.| U I / ` ' ^ ^ ^ { } ) z h v m N.-.q 2X4X2   * q q ",
"q q *   e 4XQ.q *.N.m v h f g h j v n m V Z f $ @ - C Z C n f a > : , h v n n.6.6 ;X4X5   & q q ",
"q q *   e 4XQ.q =.M.m v h f f h v v n m V h - @ # ; b g d s , , d f h f j n C.7.6 ;X4X6   & q q ",
"q q =   q 4X~.e y B.m v h k E W G G J [ c z H 8 Y R T _ X.+.@.@.+.X.X.X.+.@..X1.u 4X4X5   * q q ",
"q q 1 . 2 4X'.u w !.A b f u.1X#X<X<X3XU.*X3X3X+X4.<.q.4.,.=.=.*.*.&.y t t t 4 O & p e + X = q q ",
"q q 5 O & 4X2X:.4 Y.' b h D &Xt._.4X5.<.3X2X4Xr.7     X o           . . . . X & *     X O 2 q q ",
"q q q % . }.4X5.< H.k.n v f M.OX}.3.:.4X2X>X2X'.y.;Xo + >X4X4X4X4X4X4X4X4X4X4X4X2   >.% + 9 q q ",
"q q q =   5.4Xy.7 *.{.m b f F 3X&.u 2X2X;X>X;X4X3._.>XX o ;X4X4X4X4X4X4X4X4X4X&   ~.0.  * q q q ",
"q q q 7   2 4X>X:.1 E.o.b v f a.I.y._.'.;X;X;X2X~.p 4X2X+   !.4X4X4X4X4X4X;X%   ;X4X=   5 q q q ",
"q q q q + . ;X4Xq.2 *.>Xm b h f F.-Xt.!._.'.;X;X4X>.w.4X;X&   r.4X4X4X4X4X*   ~.4X0.X o q q q q ",
"q q q q 2   u 4X>Xp 1 J.D.n n g f d.<X).y.Q.~.~.}.r.7 m.#X4X0   3.4X4X4X4XO & 4X2X7   = q q q q ",
"q q q q q X . '.4X!.5 7 $X$.b n h f / /.=X&XoX).).@X9.oX/... X;.  p 4X4X4X  p 4Xq.X   q q q q q ",
"q q q q q 2   2 4X4X0.2 w =Xj.b n j f f Q u.b.B.M.b.l.( g f v .X2.  q 4X4X  :.4X1   < q q q q q ",
"q q q q q q +   5.4X3X>.1 w $XD.M n n j h f f h g g f g j v b n 4X&.  5 4X+ u 0.  o q q q q q q ",
"q q q q q q q     !.4X2X>.1 7 K.|.o.n b n v v v v v v n n n } [.e.:.2   & % 6 %   7 q q q q q q ",
"q q q q q q q 5   o _.4X4Xq.3 1 -.R.[.h.P N m n n m N P g.].XX1.2 1 !.;X.   .   2 q q q q q q q ",
"q q q q q q q q <   o Q.4X4X_.p 1 2 -.J.(.^.N.A.A.N.^.(.K.1.4 = i _.4X4X3.    = q q q q q q q q ",
"q q q q q q q q q <     3.3X4X4Xy.p 5 < 5 r =.6.6.-.r 6 = 2 p y.4X4X'.u + . = q q q q q q q q q ",
"q q q q q q q q q q 2 .   6 !.4X4X4X_.0.:.u q 5 6 9 u :.0.`.4X4X2Xq.2     2 q q q q q q q q q q ",
"q q q q q q q q q q q 7 +   X e Q.2X4X4X4X2X2X;X:X2X3X4X4X4X;Xq.7 o   + 7 q q q q q q q q q q q ",
"q q q q q q q q q q q q q 1 X   o 2 :.m.`.2X3X4X4X3X>X~.r.p < o   . = q q q q q q q q q q q q q ",
"q q q q q q q q q q q q q q q 1 O     X & < 2 6 5 2 = & o     o = q q q q q q q q q q q q q q q ",
"q q q q q q q q q q q q q q q q q 5 = % X .         . X % = 4 q q q q q q q q q q q q q q q q q ",
"q q q q q q q q q q q q q q q q q q q 7 3 < * & & * = 3 7 q q q q q q q q q q q q q q q q q q q ",
"q q q q q q q q q q q q q q q q q q q q q q q q q q q q q q q q q q q q q q q q q q q q q q q q ",
"q q q q q q q q q q q q q q q q q q q q q q q q q q q q q q q q q q q q q q q q q q q q q q q q "
};
