/* XPM */
static const char *eviacam_small[] = {
/* columns rows colors chars-per-pixel */
"32 32 175 2 ",
"   c #010000",
".  c #070E0E",
"X  c #222727",
"o  c #2E2E2E",
"O  c #2E3333",
"+  c #3D3C3C",
"@  c #4B0D0D",
"#  c #500D0D",
"$  c #491313",
"%  c #720F0F",
"&  c #3C4747",
"*  c #344B4B",
"=  c #444444",
"-  c #4C4C4C",
";  c #475A5A",
":  c #495F5F",
">  c #515E5E",
",  c #665555",
"<  c #685353",
"1  c #6A5B5B",
"2  c #725959",
"3  c #4A6060",
"4  c #566464",
"5  c #586666",
"6  c #5A6969",
"7  c #5E7474",
"8  c #636363",
"9  c #6D6666",
"0  c #6C6C6C",
"q  c #627C7C",
"w  c #757474",
"e  c #797575",
"r  c #7D7B7B",
"t  c #950D0D",
"y  c #901616",
"u  c #AD0C0C",
"i  c #B20000",
"p  c #BD0000",
"a  c #B20C0C",
"s  c #A51313",
"d  c #B21313",
"f  c #B81414",
"g  c #B41A1A",
"h  c #B92D2D",
"j  c #B13232",
"k  c #BA3434",
"l  c #BC3D3D",
"z  c #C10000",
"x  c #CD0303",
"c  c #C30E0E",
"v  c #CF0E0E",
"b  c #C31313",
"n  c #D01414",
"m  c #DC1212",
"M  c #E50C0C",
"N  c #F60D0D",
"B  c #F41313",
"V  c #F11818",
"C  c #DA2828",
"Z  c #E42525",
"A  c #E22D2D",
"S  c #E53030",
"D  c #E43F3F",
"F  c #805A5A",
"G  c #BD4242",
"H  c #816161",
"J  c #837777",
"K  c #807F7F",
"L  c #E04545",
"P  c #E04A4A",
"I  c #F14747",
"U  c #F04C4C",
"Y  c #E55353",
"T  c #E55A5A",
"R  c #F25151",
"E  c #F15858",
"W  c #C26E6E",
"Q  c #C27575",
"!  c #C37C7C",
"~  c #C87B7B",
"^  c #E46161",
"/  c #EC7474",
"(  c #E97C7C",
")  c #6B8383",
"_  c #678B8B",
"`  c #688989",
"'  c #758989",
"]  c #838383",
"[  c #858F8F",
"{  c #8D8C8C",
"}  c #908F8F",
"|  c #849292",
" . c #8E9191",
".. c #859B9B",
"X. c #889A9A",
"o. c #939393",
"O. c #959898",
"+. c #9F9D9D",
"@. c #A09F9F",
"#. c #B19E9E",
"$. c #95A1A1",
"%. c #9EA2A2",
"&. c #90AEAE",
"*. c #9FAFAF",
"=. c #9DB2B2",
"-. c #94B9B9",
";. c #A4A1A1",
":. c #ABA3A3",
">. c #A2A9A9",
",. c #ACACAC",
"<. c #B9A4A4",
"1. c #B0ABAB",
"2. c #BDAFAF",
"3. c #A3B2B2",
"4. c #AEB7B7",
"5. c #A4BDBD",
"6. c #B4B4B4",
"7. c #B9B3B3",
"8. c #B2BBBB",
"9. c #BEBCBC",
"0. c #C48080",
"q. c #C58A8A",
"w. c #CA8A8A",
"e. c #DE8B8B",
"r. c #C69494",
"t. c #CB9494",
"y. c #CC9E9E",
"u. c #E28383",
"i. c #EA8181",
"p. c #D3A0A0",
"a. c #C3BEBE",
"s. c #CFBBBB",
"d. c #D1B3B3",
"f. c #D2BEBE",
"g. c #B6C5C5",
"h. c #C2C2C2",
"j. c #C8C7C7",
"k. c #C7CDCD",
"l. c #CBCCCC",
"z. c #DCC4C4",
"x. c #D2C8C8",
"c. c #DAC9C9",
"v. c #C2D4D4",
"b. c #CFD0D0",
"n. c #C5DCDC",
"m. c #CBDEDE",
"M. c #D5D4D4",
"N. c #D8D3D3",
"B. c #D3D8D8",
"V. c #DDDBDB",
"C. c #E2C7C7",
"Z. c #EACDCD",
"A. c #E5D3D3",
"S. c #EAD4D4",
"D. c #E1DFDF",
"F. c #CDE2E2",
"G. c #CCE9E9",
"H. c #D0E7E7",
"J. c #D8E1E1",
"K. c #D0EBEB",
"L. c #DAECEC",
"P. c #D3F5F5",
"I. c #D8FBFB",
"U. c #E4E3E3",
"Y. c #E9E6E6",
"T. c #ECEAEA",
"R. c #F2E1E1",
"E. c #F0EDED",
"W. c #E5F0F0",
"Q. c #EEFCFC",
"!. c #F3F3F3",
"~. c #F8F7F7",
"^. c #F0FCFC",
"/. c #FDFDFD",
"(. c None",
/* pixels */
"(.(.(.(.(.(.(.(.(.(.(.(.(.(.(.(.(.(.(.(.(.(.(.(.(.(.(.(.(.(.(.(.",
"(.(.(.(.(.(.(.(.(.(.(.(.(.(.(.(.(.(.(.(.(.(.(.(.(.(.(.(.(.(.(.(.",
"(.(.(.(.(.(.(.(.(.(.(.(.(.(.(.+.+.(.(.(.(.(.(.(.(.(.(.(.(.(.(.(.",
"(.(.(.(.(.(.(.(.(.(.(.(.@.@.+.+.@.+.+.+.(.(.(.(.(.(.(.(.(.(.(.(.",
"(.(.(.(.(.(.(.(.(.(.@.@.} h.J.U.U.D.a.{ +.+.(.(.(.(.(.(.(.(.(.(.",
"(.(.(.(.(.(.(.(.@.r ,.!.Y.l.>.$.$.>.l.Y./.:.e +.(.(.(.(.(.(.(.(.",
"(.(.(.(.(.(.(.+.K /.D. .7 q ' | | ' q q O.U.~.r +.(.(.(.(.(.(.(.",
"(.(.(.(.(.(.+.{ /.9.> ` :.e.^ P P ^ e.:.` 4 a./.] +.(.(.(.(.(.(.",
"(.(.(.(.(.+.] /.;.; =.u.S x z p p p x A i.*.: ,./.r +.(.(.(.(.(.",
"(.(.(.(.(.r !.7.; 4.E x i h Q q.q.~ k i x U 6.: h.!.w (.(.(.(.(.",
"(.(.(.(.+.,.U.> =.R x d t.H.G.F.H.5.n.p.d p I *.6 T.+.+.(.(.(.(.",
"(.(.(.(.+./. ._ ( x u d.P.B.V.U.T.;.9.P.x.d x / ` %./.+.(.(.(.(.",
"(.(.(.+.} Y.7 :.Z i w.-.;.E./.T.T.6.U.M.G.r.i Z #.) E.] +.(.(.(.",
"(.(.(.+.j.l.q e.v k P.F.8.5.G./.!.v.Q.Q.H.P.G x u.q b.6.+.(.(.(.",
"(.(.(.+.U.>.' T z W J.S.R.x.<.Z.A.c.S.S.Z.U.~ p Y ' 8.N.+.(.(.(.",
"(.(.+.+.U.$.| L p u f c n V N % $ m B b s y t z D | 3.U.+.+.(.(.",
"(.(.+.+.U.$.| P p u d c m M a # @ f v a u u a v R  .g.U.+.@.(.(.",
"(.(.(.+.U.>.' T p W N.Z.c.2.C.f.e 9 J H F 2 , < 1 + 8 w +.(.(.(.",
"(.(.(.+.h.k.q u.x l I.F.5.L./.W. .. * =.....X...X.{   o +.(.(.(.",
"(.(.(.+.{ T.q :.Z i t.-.2./.Y.!.b.9.+ ,././././.!.- ] { +.(.(.(.",
"(.(.(.(.+./.O.` / x d s.P.b.V.E.h.b.k.X r /./.!.- 0 /.+.(.(.(.(.",
"(.(.(.(.+.;.Y.4 3.U p g y.G.G.m.F.&.L.z.O 8 /.N.o b.O.@.(.(.(.(.",
"(.(.(.(.(.r !.a.: 6.U x i l ! r.t.0.j x i.& 8 b.8 9.w (.(.(.(.(.",
"(.(.(.(.(.+.r /.,.: *.( A x p p p p x C / 8.X = - 9 +.(.(.(.(.(.",
"(.(.(.(.(.(.+.] /.a.5 ) :.u.T L L T u.#.) 0 M.K = +.(.(.(.(.(.(.",
"(.(.(.(.(.(.(.@.r !.Y.%.) q ' [ [ ' q ) %.Y.V.r +.(.(.(.(.(.(.(.",
"(.(.(.(.(.(.(.(.+.w ;.~.T.b.4.3.3.6.k.Y.E.O.0 @.(.(.(.(.(.(.(.(.",
"(.(.(.(.(.(.(.(.(.(.+.+.] 6.M.D.U.M.6.r +.+.(.(.(.(.(.(.(.(.(.(.",
"(.(.(.(.(.(.(.(.(.(.(.(.+.+.+.+.+.+.+.+.(.(.(.(.(.(.(.(.(.(.(.(.",
"(.(.(.(.(.(.(.(.(.(.(.(.(.(.(.+.+.(.(.(.(.(.(.(.(.(.(.(.(.(.(.(.",
"(.(.(.(.(.(.(.(.(.(.(.(.(.(.(.(.(.(.(.(.(.(.(.(.(.(.(.(.(.(.(.(.",
"(.(.(.(.(.(.(.(.(.(.(.(.(.(.(.(.(.(.(.(.(.(.(.(.(.(.(.(.(.(.(.(."
};
