/* XPM */
static const char *eviacam_mini[] = {
/* columns rows colors chars-per-pixel */
"16 16 140 2",
"   c #5C0909",
".  c #720000",
"X  c #7A0000",
"o  c #3F5E5E",
"O  c #656969",
"+  c #6C7E7E",
"@  c #747C7C",
"#  c #9C1C1C",
"$  c #AE0B0B",
"%  c #832020",
"&  c #972B2B",
"*  c #8F3030",
"=  c #B23030",
"-  c #B63333",
";  c #B23434",
":  c #B53737",
">  c #B33A3A",
",  c #B33B3B",
"<  c #B13C3C",
"1  c #CC0000",
"2  c #CD0000",
"3  c #CE0000",
"4  c #D10000",
"5  c #D20000",
"6  c #D30000",
"7  c #D20202",
"8  c #D20303",
"9  c #D30303",
"0  c #D40000",
"q  c #D60000",
"w  c #D30707",
"e  c #D40505",
"r  c #D40606",
"t  c #D70707",
"y  c #D60909",
"u  c #D90B0B",
"i  c #DA0D0D",
"p  c #E00000",
"a  c #D32A2A",
"s  c #D42A2A",
"d  c #D53232",
"f  c #D63636",
"g  c #E92F2F",
"h  c #E93030",
"j  c #A54A4A",
"k  c #B04242",
"l  c #B24242",
"z  c #826464",
"x  c #B56C6C",
"c  c #A87777",
"v  c #A17878",
"b  c #A17979",
"n  c #A27878",
"m  c #BE7171",
"M  c #BD7979",
"N  c #CA4F4F",
"B  c #DF4A4A",
"V  c #CA5151",
"C  c #F74A4A",
"Z  c #CE7575",
"A  c #718282",
"S  c #7F9797",
"D  c #7E9A9A",
"F  c #879C9C",
"G  c #869F9F",
"H  c #899E9E",
"J  c #9F9D9D",
"K  c #9F9F9F",
"L  c #B88181",
"P  c #82A0A0",
"I  c #89A1A1",
"U  c #95A5A5",
"Y  c #9FA1A1",
"T  c #98A4A4",
"R  c #9EB9B9",
"E  c #A0A2A2",
"W  c #A2A2A2",
"Q  c #A3A3A3",
"!  c #AAA6A6",
"~  c #AAA7A7",
"^  c #ACA7A7",
"/  c #ACA8A8",
"(  c #BCAAAA",
")  c #AEB8B8",
"_  c #A8BFBF",
"`  c #B4B6B6",
"'  c #BCB0B0",
"]  c #B2BABA",
"[  c #B2BCBC",
"{  c #B3BDBD",
"}  c #B5BEBE",
"|  c #C78787",
" . c #C98D8D",
".. c #CB8F8F",
"X. c #C6B5B5",
"o. c #CBBFBF",
"O. c #ABCBCB",
"+. c #B7C0C0",
"@. c #B8C1C1",
"#. c #B3CACA",
"$. c #B4CBCB",
"%. c #B6CACA",
"&. c #B7CBCB",
"*. c #B9CFCF",
"=. c #AED4D4",
"-. c #BAD0D0",
";. c #B8D7D7",
":. c #B3D8D8",
">. c #B5DADA",
",. c #B4DBDB",
"<. c #B7DEDE",
"1. c #B9E1E1",
"2. c #BEE2E2",
"3. c #BFFFFF",
"4. c #CBCDCD",
"5. c #C4D6D6",
"6. c #C3DFDF",
"7. c #D5E5E5",
"8. c #DEE8E8",
"9. c #C4F1F1",
"0. c #C4FFFF",
"q. c #DCFFFF",
"w. c #DDFFFF",
"e. c #DEFFFF",
"r. c #DFFFFF",
"t. c #E2EBEB",
"y. c #E2ECEC",
"u. c #E5EFEF",
"i. c #E7EFEF",
"p. c #ECEDED",
"a. c #EBFDFD",
"s. c #EAFEFE",
"d. c #EBFEFE",
"f. c #ECFCFC",
"g. c #ECFFFF",
"h. c #F0FFFF",
"j. c #F6FFFF",
"k. c #F9F9F9",
"l. c #FFFFFF",
"z. c None",
/* pixels */
"z.z.z.z.z.z.J J J J z.z.z.z.z.z.",
"z.z.z.z.J J ] %.&.} J J z.z.z.z.",
"z.z.z.J t.=.E v v Q ,.t.J z.z.z.",
"z.z.J a.D l w e u y > F a.J z.z.",
"z.J i.D d 0 m X.( x 7 a I y.J z.",
"z.J ,.> 3 / q.j.5.9.4.3 = 1.J z.",
"J @.Y 0 | 0.2.l.g.q.a...7 ~ { J ",
"J -.v 7 : B h & j C V l p L 6.J ",
"J *.v 7 = f g &   $ X . # z U J ",
"J @.E 7  .3.q.l.+ o &._ O.@ { J ",
"z.J <.; 1 ] q.f.7.P _ l.k.E J z.",
"z.J i.F s 7 m 4.' Z % T ` J J z.",
"z.z.J g.H > 7 e i t V A O J z.z.",
"z.z.z.J 8.,.~ c c ^ ;.p.J z.z.z.",
"z.z.z.z.J J { #.%.) J J z.z.z.z.",
"z.z.z.z.z.z.J J J J z.z.z.z.z.z."
};
