/* XPM */
static char * eviacam[] = {
"32 32 468 2",
"  	c None",
". 	c #000000",
"+ 	c #080808",
"@ 	c #222222",
"# 	c #323232",
"$ 	c #232323",
"% 	c #0A0A0A",
"& 	c #141414",
"* 	c #666666",
"= 	c #B6B6B6",
"- 	c #EBEBEB",
"; 	c #FFFFFF",
"> 	c #EAEAEA",
", 	c #B4B4B4",
"' 	c #656565",
") 	c #151515",
"! 	c #0E0E0E",
"~ 	c #8F8F8F",
"{ 	c #F7F7F7",
"] 	c #D0D0D0",
"^ 	c #B3B3B3",
"/ 	c #A5A5A5",
"( 	c #A6A6A6",
"_ 	c #B5B5B5",
": 	c #D2D2D2",
"< 	c #F9F9F9",
"[ 	c #8B8B8B",
"} 	c #484848",
"| 	c #F3F3F3",
"1 	c #D3D3D3",
"2 	c #8A8989",
"3 	c #5B5C5C",
"4 	c #505A5A",
"5 	c #596F6F",
"6 	c #638383",
"7 	c #597070",
"8 	c #505B5B",
"9 	c #5D5E5E",
"0 	c #919090",
"a 	c #DEDEDE",
"b 	c #ECECEC",
"c 	c #444444",
"d 	c #767676",
"e 	c #858383",
"f 	c #4A4B4B",
"g 	c #5A7878",
"h 	c #96B4B4",
"i 	c #BCBBBB",
"j 	c #CDA9A9",
"k 	c #D39292",
"l 	c #CEA8A8",
"m 	c #BEBBBB",
"n 	c #98B4B4",
"o 	c #5A7A7A",
"p 	c #484A4A",
"q 	c #8D8B8B",
"r 	c #6A6A6A",
"s 	c #777777",
"t 	c #D4D4D4",
"u 	c #5E5A5A",
"v 	c #4B5F5F",
"w 	c #A0C1C1",
"x 	c #D8A9A9",
"y 	c #EF6666",
"z 	c #E92727",
"A 	c #DA0000",
"B 	c #D30000",
"C 	c #E82424",
"D 	c #EF6161",
"E 	c #DBA5A5",
"F 	c #A5C3C3",
"G 	c #496060",
"H 	c #615C5C",
"I 	c #676767",
"J 	c #454545",
"K 	c #D4D3D3",
"L 	c #514B4B",
"M 	c #5C7D7D",
"N 	c #CDD7D7",
"O 	c #F46969",
"P 	c #DD0000",
"Q 	c #C10000",
"R 	c #B40000",
"S 	c #B20000",
"T 	c #B50000",
"U 	c #BF0000",
"V 	c #F45F5F",
"W 	c #D4D5D5",
"X 	c #5D8282",
"Y 	c #504B4B",
"Z 	c #EDEDED",
"` 	c #3A3A3A",
" .	c #0D0D0D",
"..	c #F6F6F6",
"+.	c #EFEFEF",
"@.	c #5D5959",
"#.	c #DCD2D2",
"$.	c #EE2D2D",
"%.	c #C90000",
"&.	c #B00000",
"*.	c #B40A0A",
"=.	c #C66767",
"-.	c #CA9595",
";.	c #CBA9A9",
">.	c #CBAAAA",
",.	c #CB9898",
"'.	c #C76D6D",
").	c #B51212",
"!.	c #AF0000",
"~.	c #C60000",
"{.	c #EB2121",
"].	c #E2CCCC",
"^.	c #5E8282",
"/.	c #625D5D",
"(.	c #DFDFDF",
"_.	c #979797",
":.	c #828080",
"<.	c #4C6060",
"[.	c #CDDCDC",
"}.	c #EE2424",
"|.	c #C40000",
"1.	c #AA0000",
"2.	c #C15555",
"3.	c #D5D8D8",
"4.	c #D0F5F5",
"5.	c #C9E8E8",
"6.	c #C8DEDE",
"7.	c #D7EDED",
"8.	c #A1BFBF",
"9.	c #AED3D3",
"0.	c #E1E6E6",
"a.	c #C46262",
"b.	c #C20000",
"c.	c #EB1717",
"d.	c #D6DADA",
"e.	c #486060",
"f.	c #979494",
"g.	c #797979",
"h.	c #101010",
"i.	c #D7D7D7",
"j.	c #494A4A",
"k.	c #A1C5C5",
"l.	c #F45656",
"m.	c #C80000",
"n.	c #A80000",
"o.	c #D98484",
"p.	c #E0FFFF",
"q.	c #C0D4D4",
"r.	c #CDCBCB",
"s.	c #DCDCDC",
"t.	c #E1E1E1",
"u.	c #A4A3A3",
"v.	c #AAA7A7",
"w.	c #CDDEDE",
"x.	c #D4FFFF",
"y.	c #CE8686",
"z.	c #F44444",
"A.	c #AAC9C9",
"B.	c #444848",
"C.	c #878686",
"D.	c #D8A5A5",
"E.	c #B10000",
"F.	c #C75050",
"G.	c #A7D2D2",
"H.	c #A5ADAD",
"I.	c #F7F5F5",
"J.	c #E8E8E8",
"K.	c #E9E9E9",
"L.	c #AEAEAE",
"M.	c #CFCFCF",
"N.	c #E4E2E2",
"O.	c #C2C7C7",
"P.	c #C55A5A",
"Q.	c #D80000",
"R.	c #DE9C9C",
"S.	c #5A7F7F",
"T.	c #9E9D9D",
"U.	c #515151",
"V.	c #BBBBBB",
"W.	c #FDFDFD",
"X.	c #5A5A5A",
"Y.	c #96BABA",
"Z.	c #EF5C5C",
"`.	c #B40B0B",
" +	c #A8BCBC",
".+	c #888686",
"++	c #A1A1A1",
"@+	c #E7E7E7",
"#+	c #EEEEEE",
"$+	c #F4F4F4",
"%+	c #DFDDDD",
"&+	c #C2D1D1",
"*+	c #D5E1E1",
"=+	c #B61515",
"-+	c #BE0000",
";+	c #F04E4E",
">+	c #9EBEBE",
",+	c #5F6060",
"'+	c #9F9F9F",
")+	c #070707",
"!+	c #F2F2F2",
"~+	c #BDBABA",
"{+	c #E91D1D",
"]+	c #B30000",
"^+	c #CA7373",
"/+	c #D2FFFF",
"(+	c #E0F5F5",
"_+	c #F7FFFF",
":+	c #B5CFCF",
"<+	c #97B2B2",
"[+	c #BBD9D9",
"}+	c #BDD5D5",
"|+	c #EFFFFF",
"1+	c #ECFFFF",
"2+	c #EBFFFF",
"3+	c #D4E8E8",
"4+	c #CC8484",
"5+	c #E50D0D",
"6+	c #C4B6B6",
"7+	c #4E5C5C",
"8+	c #D6D6D6",
"9+	c #B2B2B2",
"0+	c #597171",
"a+	c #CDA4A4",
"b+	c #DB0000",
"c+	c #C87C7C",
"d+	c #D8CACA",
"e+	c #DAB4B4",
"f+	c #DFB7B7",
"g+	c #F8CECE",
"h+	c #DCB4B4",
"i+	c #C98B8B",
"j+	c #E1B6B6",
"k+	c #CFBABA",
"l+	c #DAAFAF",
"m+	c #E8BABA",
"n+	c #E2B7B7",
"o+	c #E7B7B7",
"p+	c #ECB6B6",
"q+	c #E6C7C7",
"r+	c #CC8787",
"s+	c #D60000",
"t+	c #D39797",
"u+	c #C6C6C6",
"v+	c #F0F0F0",
"w+	c #1C1C1C",
"x+	c #343434",
"y+	c #A4A4A4",
"z+	c #638484",
"A+	c #D38E8E",
"B+	c #D40000",
"C+	c #AB0000",
"D+	c #CB0000",
"E+	c #FD0000",
"F+	c #F10000",
"G+	c #590000",
"H+	c #280000",
"I+	c #FF0000",
"J+	c #940000",
"K+	c #800000",
"L+	c #840000",
"M+	c #B70000",
"N+	c #D00000",
"O+	c #D88080",
"P+	c #628989",
"Q+	c #FCFCFC",
"R+	c #262626",
"S+	c #638585",
"T+	c #D38D8D",
"U+	c #B60000",
"V+	c #A90000",
"W+	c #C00000",
"X+	c #E60000",
"Y+	c #DC0000",
"Z+	c #910000",
"`+	c #3D0000",
" @	c #380000",
".@	c #A40000",
"+@	c #A70000",
"@@	c #A50000",
"#@	c #BB0000",
"$@	c #E70000",
"%@	c #EF9494",
"&@	c #6C9494",
"*@	c #597272",
"=@	c #CEA2A2",
"-@	c #C67373",
";@	c #D7BBBB",
">@	c #D7A4A4",
",@	c #ECB7B7",
"'@	c #DE9F9F",
")@	c #BA9A9A",
"!@	c #E0AAAA",
"~@	c #C59F9F",
"{@	c #897878",
"]@	c #A08989",
"^@	c #A68585",
"/@	c #A67070",
"(@	c #B56E6E",
"_@	c #B16C6C",
":@	c #A06A6A",
"<@	c #936666",
"[@	c #906262",
"}@	c #9D6565",
"|@	c #8B7979",
"1@	c #2A3333",
"2@	c #9E9E9E",
"3@	c #131313",
"4@	c #040404",
"5@	c #D5D5D5",
"6@	c #BEBABA",
"7@	c #E81919",
"8@	c #CB7C7C",
"9@	c #E5FDFD",
"0@	c #D9F6F6",
"a@	c #97B7B7",
"b@	c #EEFFFF",
"c@	c #DBEBEB",
"d@	c #6E7676",
"e@	c #000505",
"f@	c #1B3535",
"g@	c #4E6C6C",
"h@	c #345151",
"i@	c #355050",
"j@	c #375050",
"k@	c #385050",
"l@	c #385151",
"m@	c #355252",
"n@	c #353F3F",
"o@	c #5D5858",
"p@	c #121212",
"q@	c #FEFEFE",
"r@	c #5C5C5C",
"s@	c #99BBBB",
"t@	c #EF5757",
"u@	c #B51010",
"v@	c #DCE3E3",
"w@	c #AFC0C0",
"x@	c #F8F8F8",
"y@	c #F1F1F1",
"z@	c #CECECE",
"A@	c #8D8D8D",
"B@	c #CBCBCB",
"C@	c #7F7F7F",
"D@	c #171717",
"E@	c #606060",
"F@	c #908F8F",
"G@	c #5A7C7C",
"H@	c #DBA0A0",
"I@	c #CD5E5E",
"J@	c #A4D1D1",
"K@	c #AEB3B3",
"L@	c #F0EEEE",
"M@	c #E6E6E6",
"N@	c #AFAFAF",
"O@	c #ABABAB",
"P@	c #AAAAAA",
"Q@	c #0F0F0F",
"R@	c #6D6D6D",
"S@	c #474A4A",
"T@	c #A6C7C7",
"U@	c #F44A4A",
"V@	c #D78F8F",
"W@	c #DDFFFF",
"X@	c #BFCECE",
"Y@	c #D0CDCD",
"Z@	c #949494",
"`@	c #9AA6A6",
" #	c #8A8686",
".#	c #9C9C9C",
"+#	c #FAFAFA",
"@#	c #888888",
"##	c #8F8D8D",
"$#	c #496161",
"%#	c #D4DBDB",
"&#	c #EB1818",
"*#	c #C56666",
"=#	c #D7E3E3",
"-#	c #CEF4F4",
";#	c #C8E3E3",
">#	c #C6D8D8",
",#	c #DCEEEE",
"'#	c #8CA7A7",
")#	c #A8CDCD",
"!#	c #FFFCFC",
"~#	c #C3B4B4",
"{#	c #001010",
"]#	c #696464",
"^#	c #646464",
"/#	c #424242",
"(#	c #EB1F1F",
"_#	c #C50000",
":#	c #B61919",
"<#	c #C87676",
"[#	c #CBA1A1",
"}#	c #CCB5B5",
"|#	c #CFB8B8",
"1#	c #CBA3A3",
"2#	c #C17272",
"3#	c #B21212",
"4#	c #E22E2E",
"5#	c #DDACAC",
"6#	c #030F0F",
"7#	c #5E5E5E",
"8#	c #787878",
"9#	c #686868",
"0#	c #090909",
"a#	c #3E3E3E",
"b#	c #D6D5D5",
"c#	c #F45959",
"d#	c #BD0000",
"e#	c #FF6A6A",
"f#	c #D1E7E7",
"g#	c #575757",
"h#	c #7B7B7B",
"i#	c #585858",
"j#	c #696969",
"k#	c #A9C4C4",
"l#	c #DEA2A2",
"m#	c #F05959",
"n#	c #E51919",
"o#	c #D50000",
"p#	c #CE0000",
"q#	c #CD0000",
"r#	c #E41616",
"s#	c #F05454",
"t#	c #E19C9C",
"u#	c #ABB5B5",
"v#	c #5E6565",
"w#	c #8E8E8E",
"x#	c #565656",
"y#	c #010101",
"z#	c #202020",
"A#	c #050505",
"B#	c #939090",
"C#	c #454949",
"D#	c #5B7C7C",
"E#	c #9EB7B7",
"F#	c #C4B8B8",
"G#	c #D29D9D",
"H#	c #D88686",
"I#	c #D39B9B",
"J#	c #C5B7B7",
"K#	c #A2B9B9",
"L#	c #5E8181",
"M#	c #434949",
"N#	c #212121",
"O#	c #404040",
"P#	c #E2E2E2",
"Q#	c #9D9C9C",
"R#	c #5F6161",
"S#	c #5A7676",
"T#	c #638787",
"U#	c #638686",
"V#	c #5A7777",
"W#	c #4E5D5D",
"X#	c #5E6060",
"Y#	c #EBEAEA",
"Z#	c #C7C7C7",
"`#	c #C4C4C4",
" $	c #B7B7B7",
".$	c #E0E0E0",
"+$	c #555555",
"@$	c #999999",
"#$	c #4C4C4C",
"$$	c #0B0B0B",
"%$	c #252525",
"&$	c #1A1A1A",
"                              . .                               ",
"                      . . + @ # # $ % . .                       ",
"                  . & * = - ; ; ; ; > , ' ) .                   ",
"              . ! ~ { ; ; ] ^ / ( _ : ; ; < [ ! .               ",
"            . } | ; 1 2 3 4 5 6 6 7 8 9 0 a ; b c .             ",
"          . d ; | e f g h i j k k l m n o p q ; ; r .           ",
"        . s ; t u v w x y z A B B A C D E F G H > ; I .         ",
"      . J ; K L M N O P Q R S T T R T U A V W X Y Z ; ` .       ",
"       ...+.@.M #.$.%.&.*.=.-.;.>.,.'.).!.~.{.].^./.; (. .      ",
"    . _.; :.<.[.}.|.1.2.3.4.5.6.7.8.9.0.a.1.b.c.d.e.f.; g..     ",
"    h.; i.j.k.l.m.n.o.p.q.r.s.t.| u.v.w.x.y.1.~.z.A.B.> Z !     ",
"  . I ; C.o D.P E.F.G.H.I.Z J.K.< L.M.N.O.x.P.!.Q.R.S.T.; U..   ",
"  . V.W.X.Y.Z.Q `.s. +.+++@+; #+$+, a b %+&+*+=+-+;+>+,+; '+.   ",
"  )+!+: 4 ~+{+]+^+/+(+_+:+<+[+; ; }+|+1+2+3+/+4+S 5+6+7+t.8++   ",
"  $ ; 9+0+a+b+E.c+d+e+f+g+h+i+j+k+l+m+n+o+p+q+r+!.s+t+g u+v+w+. ",
". x+; y+z+A+B+T C+R Q D+B E+F+G+H+Q I+Q.E.J+K+L+M+N+O+P+_ Q+R+. ",
". x+; / S+T+B U+V+E.W+%.X+Y+Z+`+ @.@s+T +@@@!.#@m.$@%@&@M.; R+. ",
"  $ ; , *@=@A E.-@;@>@,@'@)@!@~@{@]@^@/@(@_@:@<@[@}@|@1@2@= 3@4@",
"  )+b 5@8 6@7@]+8@x.9@0@a@b@; c@d@e@f@g@h@i@j@k@l@m@n@o@. . p@  ",
"  . , q@r@s@t@W+u@v@w@C.t.x@y@@+z@A@. B@; ; ; ; ; ; ; C@D@C@!   ",
"  . E@; F@G@H@A !.I@J@K@L@M@@+; N@| O@. P@; ; ; ; ; r Q@..R@.   ",
"    h.x@a S@T@U@~.n.V@W@X@Y@(.> M.Z@; `@.  #; ; ; .#. { +#4@    ",
"    . @#; ##$#%#&#b.1.*#=#-#;#>#,#'#)#!#~#{#]#; ; ^#/#; ' .     ",
"      ! J.Q+/.X ].(#_#!.:#<#[#}#|#1#2#3#4#5#6#7#; 8#9#> 0#      ",
"      . a#; K.Y ^.b#c#Q.d#S ]+M+U+M+R d#D+e#f#. g#h#i#X..       ",
"        . j#; b H $#k#l#m#n#o#p#q#o#r#s#t#u#v#w#x#y#z#A#        ",
"          . 9#; ; B#C#D#E#F#G#H#H#I#J#K#L#M#B#; ; N#.           ",
"            . O#P#; @+Q#R#7+S#T#U#V#W#X#T.Y#; Z#x+0#            ",
"              .  .C@b ; ; s.`#=  $u+a ; ; .$R@% .               ",
"                  . 3@+$++i.+.+#+#Z : @$#$Q@.                   ",
"                      . . $$w+R+%$&$% . .                       ",
"                              . .                               "};
