/* XPM */
static char * eviacam_mini[] = {
"16 16 19 1",
"  c None",
". c #000000",
"X c #FFFFFF",
"o c #FCEFEF",
"O c #DF5F5F",
"+ c #E57F7F",
"@ c #DF6060",
"# c #D94040",
"$ c #E99090",
"% c #9F9F9F",
"& c #D63030",
"* c #CC0000",
"= c #E68080",
"- c #7F7F7F",
"; c #DC5050",
": c #E98F8F",
"> c #EC9F9F",
", c #F9E0E0",
"< c #F6D0D0",
"                ",
"         ..  .. ",
" ........X..... ",
" .XXoO+XXX..XX. ",
" .XX@@#$XX%XXX. ",
" .XX&**=XX-XXX. ",
" .XX;;:>XX..... ",
" .XX,;;<XX.  ...",
" .XX.......     ",
" ...   .        ",
"   .    .       ",
"   .    .       ",
"  .      .      ",
"  .      .      ",
" .       .      ",
"                "};
