/* XPM */
static char *eviacam_mini[] = {
/* columns rows colors chars-per-pixel */
"16 16 162 2",
"   c #1A1A1A",
".  c #252525",
"X  c #272727",
"o  c #2C2C2C",
"O  c #2E2D2D",
"+  c #2E2E2E",
"@  c #303030",
"#  c #383838",
"$  c #393939",
"%  c #3A3939",
"&  c #3A3A3A",
"*  c #3E3E3E",
"=  c #7B3737",
"-  c #424242",
";  c #434343",
":  c #494949",
">  c #4C4B4B",
",  c #4F4F4F",
"<  c #515151",
"1  c #535353",
"2  c #555555",
"3  c #5B5B5B",
"4  c #5D6565",
"5  c #737575",
"6  c #767575",
"7  c #777777",
"8  c #797979",
"9  c #7C7B7B",
"0  c #7C7C7C",
"q  c #7D7D7D",
"w  c #932A2A",
"e  c #9A2D2D",
"r  c #A63535",
"t  c #A93333",
"y  c #C71717",
"u  c #C91717",
"i  c #C71818",
"p  c #C82222",
"a  c #C92222",
"s  c #C92323",
"d  c #C42929",
"f  c #C42C2C",
"g  c #C42D2D",
"h  c #C72E2E",
"j  c #CB2E2E",
"k  c #CC2F2F",
"l  c #C53030",
"z  c #C63131",
"x  c #CB3030",
"c  c #CC3030",
"v  c #CC3232",
"b  c #CC3333",
"n  c #9A5C5C",
"m  c #BD4646",
"M  c #B44D4D",
"N  c #BE4A4A",
"B  c #A15454",
"V  c #B25656",
"C  c #BE5B5B",
"Z  c #BD5D5D",
"A  c #BD5F5F",
"S  c #BE5F5F",
"D  c #896F6F",
"F  c #AC6060",
"G  c #BD6060",
"H  c #BD6262",
"J  c #A17E7E",
"K  c #A07F7F",
"L  c #A17F7F",
"P  c #A47E7E",
"I  c #BE7D7D",
"U  c #CB4747",
"Y  c #CB4D4D",
"T  c #D75454",
"R  c #D25C5C",
"E  c #DF5B5B",
"W  c #C76363",
"Q  c #C26B6B",
"!  c #D46363",
"~  c #E26161",
"^  c #818484",
"/  c #878787",
"(  c #898989",
")  c #8A8A8A",
"_  c #8F8B8B",
"`  c #8D8D8D",
"'  c #8E8E8E",
"]  c #938D8D",
"[  c #948D8D",
"{  c #948E8E",
"}  c #988D8D",
"|  c #988E8E",
" . c #9A8E8E",
".. c #9A8F8F",
"X. c #9E8F8F",
"o. c #929292",
"O. c #949494",
"+. c #959595",
"@. c #9D9090",
"#. c #9E9090",
"$. c #939999",
"%. c #949898",
"&. c #9A9C9C",
"*. c #A88181",
"=. c #99A1A1",
"-. c #9AA1A1",
";. c #9DA4A4",
":. c #A2A3A3",
">. c #A1A6A6",
",. c #A0A7A7",
"<. c #A1A8A8",
"1. c #A2A8A8",
"2. c #A5ACAC",
"3. c #A7ADAD",
"4. c #A9ACAC",
"5. c #ABAEAE",
"6. c #BCA5A5",
"7. c #BEA6A6",
"8. c #BEAAAA",
"9. c #AEB1B1",
"0. c #B1B3B3",
"q. c #B2B4B4",
"w. c #B3B4B4",
"e. c #B2B7B7",
"r. c #B5B7B7",
"t. c #B2B8B8",
"y. c #B3B8B8",
"u. c #B3B9B9",
"i. c #B3BABA",
"p. c #B5B8B8",
"a. c #B6B8B8",
"s. c #B7BEBE",
"d. c #B8BABA",
"f. c #C58181",
"g. c #C38484",
"h. c #C88686",
"j. c #C58888",
"k. c #C98989",
"l. c #C98D8D",
"z. c #C1A6A6",
"x. c #CAAFAF",
"c. c #CBB2B2",
"v. c #CCB9B9",
"b. c #C5CACA",
"n. c #C4CCCC",
"m. c #C3D2D2",
"M. c #C2D3D3",
"N. c #C8D1D1",
"B. c #CED3D3",
"V. c #D6D6D6",
"C. c #D8DEDE",
"Z. c #D7E0E0",
"A. c #D9E2E2",
"S. c #DFE1E1",
"D. c #DCEAEA",
"F. c #E2E7E7",
"G. c #E6E7E7",
"H. c #E4E9E9",
"J. c #E6EBEB",
"K. c #E8EAEA",
"L. c #F5F5F5",
"P. c None",
/* pixels */
"P.P.P.P.P.P.+ - - + P.P.P.P.P.P.",
"P.P.P.P.1 +.0.q.y.q.+.1 P.P.P.P.",
"P.P.P.0 p.-.} J *.[ ;.p.8 P.P.P.",
"P.P.9 9.' G v a p b G ] p.6 P.P.",
"P.2 r._ Y h f.x.z.I h U [ p.: P.",
"P.+.-.G d 6.Z.J.B.N.v.h C <.' P.",
"+ q.} v h.m.n.K.S.F.D.l.j X.5.. ",
"- y.J i N ! E V V ~ W M u *.s.$ ",
"- r.J y m R T n = r e w r D $.@ ",
"+ 0.} v k.N.V.G.^ 4 <.2.2.5 *   ",
"P.o.;.S d 8.A.J.n.$.&.L.V./ 0 P.",
"P.> p.] U z j.c.8.g.n ` :.` : P.",
"P.P.8 p.[ S v a a k Q 9 3 $ P.P.",
"P.P.P.7 p.<.X.P P #.>.r.1 P.P.P.",
"P.P.P.P.> ' 5.y.y.5.( - P.P.P.P.",
"P.P.P.P.P.P.. $ # . P.P.P.P.P.P."
};
