/* XPM */
static char *eviacam[] = {
/* columns rows colors chars-per-pixel */
"48 48 204 2",
"   c #010101",
".  c #050808",
"X  c #0B0B0B",
"o  c #131313",
"O  c #191616",
"+  c #1C1C1C",
"@  c #2E0000",
"#  c #360000",
"$  c #3C0000",
"%  c #242424",
"&  c #2B2B2B",
"*  c #343434",
"=  c #3D3D3D",
"-  c #4A0000",
";  c #530000",
":  c #610000",
">  c #740000",
",  c #7B0000",
"<  c #434343",
"1  c #484646",
"2  c #4B4B4B",
"3  c #504F4F",
"4  c #4E5151",
"5  c #545454",
"6  c #565959",
"7  c #5B5C5C",
"8  c #744444",
"9  c #5E6262",
"0  c #5E6B6B",
"q  c #666666",
"w  c #636D6D",
"e  c #6C6C6C",
"r  c #667676",
"t  c #657B7B",
"y  c #6C7F7F",
"u  c #747474",
"i  c #717979",
"p  c #7C7C7C",
"a  c #880000",
"s  c #940000",
"d  c #A50000",
"f  c #AB0000",
"g  c #B40000",
"h  c #BE0000",
"j  c #B72727",
"k  c #BE2828",
"l  c #AD3939",
"z  c #BB3232",
"x  c #BC3C3C",
"c  c #C40000",
"v  c #CD0000",
"b  c #D20000",
"n  c #DA0101",
"m  c #D60808",
"M  c #DA0D0D",
"N  c #DA1C1C",
"B  c #EA0000",
"V  c #F10000",
"C  c #FF0000",
"Z  c #E01616",
"A  c #E01B1B",
"S  c #C13232",
"D  c #C43D3D",
"F  c #CE3A3A",
"G  c #DA3636",
"H  c #D53939",
"J  c #E12121",
"K  c #E53232",
"L  c #E53B3B",
"P  c #864848",
"I  c #9F4949",
"U  c #935B5B",
"Y  c #BC5F5F",
"T  c #A66060",
"R  c #C44343",
"E  c #CB4040",
"W  c #C44949",
"Q  c #CE4F4F",
"!  c #D44D4D",
"~  c #DA4C4C",
"^  c #C45353",
"/  c #CB5454",
"(  c #C75959",
")  c #CA5C5C",
"_  c #D95555",
"`  c #E84545",
"'  c #E94D4D",
"]  c #F94949",
"[  c #E45353",
"{  c #E95454",
"}  c #FF5454",
"|  c #D47171",
" . c #E36060",
".. c #EC6363",
"X. c #ED6F6F",
"o. c #F56060",
"O. c #FF6363",
"+. c #EE7171",
"@. c #F17C7C",
"#. c #6D8080",
"$. c #728282",
"%. c #758B8B",
"&. c #798F8F",
"*. c #779090",
"=. c #7C9393",
"-. c #759E9E",
";. c #848484",
":. c #8B8B8B",
">. c #819191",
",. c #8D9494",
"<. c #849B9B",
"1. c #899B9B",
"2. c #939393",
"3. c #959D9D",
"4. c #9B9C9C",
"5. c #85A2A2",
"6. c #86A8A8",
"7. c #8BB1B1",
"8. c #A4A4A4",
"9. c #A6AAAA",
"0. c #ABABAB",
"q. c #AEB5B5",
"w. c #B3B3B3",
"e. c #B7BABA",
"r. c #BABBBB",
"t. c #D18383",
"y. c #DB8383",
"u. c #D78E8E",
"i. c #D98B8B",
"p. c #D39494",
"a. c #D79898",
"s. c #D99C9C",
"d. c #EE8383",
"f. c #EE8C8C",
"g. c #F18383",
"h. c #E19B9B",
"j. c #EF9B9B",
"k. c #F49595",
"l. c #F49999",
"z. c #D5A5A5",
"x. c #D6A8A8",
"c. c #DAACAC",
"v. c #C0BEBE",
"b. c #D6B4B4",
"n. c #DAB3B3",
"m. c #D3BBBB",
"M. c #DDB8B8",
"N. c #E4A7A7",
"B. c #EEA3A3",
"V. c #E3ADAD",
"C. c #F4A5A5",
"Z. c #F4ACAC",
"A. c #ECBCBC",
"S. c #F5BFBF",
"D. c #9DC3C3",
"F. c #A4CBCB",
"G. c #AACFCF",
"H. c #B9C2C2",
"J. c #A7D1D1",
"K. c #A9D3D3",
"L. c #B5D3D3",
"P. c #B9D2D2",
"I. c #B3DDDD",
"U. c #BADBDB",
"Y. c #BCE4E4",
"T. c #BDEBEB",
"R. c #C4C3C3",
"E. c #C9C6C6",
"W. c #CCCCCC",
"Q. c #D0C1C1",
"!. c #DCC1C1",
"~. c #C1D1D1",
"^. c #C5DBDB",
"/. c #D4D4D4",
"(. c #D8D7D7",
"). c #DCDCDC",
"_. c #E9C7C7",
"`. c #EACDCD",
"'. c #E3D4D4",
"]. c #E0DBDB",
"[. c #EDDEDE",
"{. c #FED3D3",
"}. c #FFDEDE",
"|. c #C7E1E1",
" X c #CAE5E5",
".X c #CCEAEA",
"XX c #DEE4E4",
"oX c #D6EEEE",
"OX c #D9EDED",
"+X c #C6F1F1",
"@X c #CBF3F3",
"#X c #D4F3F3",
"$X c #DAF3F3",
"%X c #D2F8F8",
"&X c #DBFFFF",
"*X c #E4E4E4",
"=X c #ECE3E3",
"-X c #EBEBEB",
";X c #E6F0F0",
":X c #E5FFFF",
">X c #EBFFFF",
",X c #F3F3F3",
"<X c #F5FDFD",
"1X c #FFFFFF",
/* pixels */
"q q q q q q q q q q q q q q q q q q q q q q q q q q q q q q q q q q q q q q q q q q q q q q q q ",
"q q q q q q q q q q q q q q q q q q q q q q q q q q q q q q q q q q q q q q q q q q q q q q q q ",
"q q q q q q q q q q q q q q q q q q q q 6 1 < * * = 2 6 9 q q q q q q q q q q q q q q q q q q q ",
"q q q q q q q q q q q q q q q q q 7 < & + .         . O % < 6 q q q q q q q q q q q q q q q q q ",
"q q q q q q q q q q q q q q q 2 %     . & 2 q q e 7 2 & X     + 1 q q q q q q q q q q q q q q q ",
"q q q q q q q q q q q q q 2 O     2 4.*X1X1X1X1X1X1X1X1X].4.5 X   o 2 q q q q q q q q q q q q q ",
"q q q q q q q q q q q q &     u *X1X1X1X-X/.W.E.E.W.(.,X1X1X1X).u .   % 9 q q q q q q q q q q q ",
"q q q q q q q q q q 5 .   5 *X1X1X*Xw.2.;.u q q q e u ;.4.R.-X1X1X).7   . 2 q q q q q q q q q q ",
"q q q q q q q q q 2     8.1X1X(.8.p 9 1 2 w y %.%.#.0 4 < 7 U F.-X1X1X4.    < q q q q q q q q q ",
"q q q q q q q q 2   X W.1X-Xw.p 3 2 $.D.P.E.m.M.b.m.W.P.F.$.2 2 p E.1X1XR.O   < q q q q q q q q ",
"q q q q q q q 6   . *X1X(.3.9 1 i L.).B.{ J m n n n A { j.'.I.%.< 5 0.,X1X/.o   3 q q q q q q q ",
"q q q q q q q .   /.1X(.:.5 5 q.*X@.M b v v c c c c v b b m X.=XF.7 1 2.<X1Xv..   9 q q q q q q ",
"q q q q q q %   9.1X].:.3 9 Y._.N v v c g f f f f d f g h c b M Z.+Xw < 2.1X1X2.  + q q q q q q ",
"q q q q q 6   3 1X,X4.3 9 +Xl.b b c f d z | p.z.z.p.y.D d f h b b g.%Xr < 8.1X1X3   1 q q q q q ",
"q q q q q o   ,X1X0.9 3 Y.k.v v g d x n.OX%X.X X X#XL. XM.W d g b v @.+X7 3 /.1XW.X . q q q q q ",
"q q q q 3   u 1X(.p 1 F.S.b b g d t.:X.Xr.H.E.W.W./.e 9..X:Xp.f f v b C.J.1 u 1X1Xq   1 q q q q ",
"q q q q +   ,X1X4.5 $.-XM b g d h.&XH.R./.).*X*X*X).:./.E.r.&Xc.d g v b =X=.1 r.1XR.X o q q q q ",
"q q q 7   2 1X*Xp 2 I.+.v c d | T.W.).).*X*X*X*X-X/.4.-X).W.r.&Xu.d h b { |.2 p 1X,X<   6 q q q ",
"q q q <   8.1Xw.7 $.].b v f S :Xu q R.1X,X*X-X-X,XW.4.<X*X*XW.r.:XR f c b '.<.3 (.1X;.  = q q q ",
"q q q % . -X1X2.2 D.j.b c d x.@X/.9.u :.).1X,X-X1XR.0.1X-X*X).E.|.!.f h v d.G.= 8.1Xr.X + 9 q q ",
"q q 6 O & 1X-X;.4 L.' v g k oXe./.1X<X4.u 0.-X<X1Xe.w.1X-X-X*X(.e.#XD g c K ~.4 :.1X(.& o 2 q q ",
"q q 2 . 2 1X/.u 0 E.A c f t.:X#X:X:X:X1X:X7.U.1X1X;X@X>X:X:X:X:X#X:Xs.f c B E.r e <X,X=   = q q ",
"q q =   q 1XW.q y m.B c f z ( / Q ! ! ~ ' O.} I P ^ _ ` ~ ~ ~ [ [ ( l f c n n.*.q ,X1X2   * q q ",
"q q *   e 1XE.q %.b.n c g f f g h c b n B C d $ @ - V C V b d a > : , h c b V.5.6 *X1X5   & q q ",
"q q *   e 1XR.q %.n.n c g f f g h c b n B g - @ # ; v f s a , , s d f d h b N.6.6 *X1X6   & q q ",
"q q =   q 1XW.q #.b.n c f j R E F H H ] x l G 8 U T Y )  .o.O.O.o... . .o.O.}.<.u 1X1X5   * q q ",
"q q 1 . 2 1X).u w E.Z c f t.:XOX:X:X<XL.$X<X<XXX3.,.9.3.>.*.%.%.%.#.#.r t t 5 O & p e + X = q q ",
"q q 5 O & 1X,X;.5 P.` v g S #Xr./.1X4.,.<X,X1Xw.7     X o         .   . . . . & *     X O 2 q q ",
"q q q % . *X1X2.< D.j.v h f b. X].2.;.1X,X-X,X).r.*Xo + ,X1X1X1X1X1X1X1X1X1X1X1X2   :.% + 9 q q ",
"q q q <   4.1XR.6 -.(.n v f D >X$.u ,X,X*X-X*X1X2.(.-XX X *X1X1X1X1X1X1X1X1X1X&   W.0.  * q q q ",
"q q q 7   1 1X-XU 4 Y...v c d i.K.r./.).*X*X*X,XW.p 1X,X+   E.1X1X1X1X1X1X*X+   *X1X*   5 q q q ",
"q q q q + . *X1X0.2 %.-Xb b g f A.&Xe.E.(.).*X).1X:.0.1X*X&   w.1X1X1X1X1X*   W.1X0.X o q q q q ",
"q q q q 2   e 1X-Xp 1 F.Z.b b f f a.&X^.r.E.W./.).0.7 R.$X1X0   2.1X1X1X1XO & 1X,X7   = q q q q ",
"q q q q q o . ].1XE.5 6 +X@.v b g d ^ !.#X#X X^.^.oXD. X!.| {.-.  p 1X1X1X  p 1X9.X   q q q q q ",
"q q q q q 2   2 1X1X8.1 w %Xg.v b h f f W t.x.b.b.x.h.^ f d c }.1.  q 1X1X  U 1X1   < q q q q q ",
"q q q q q q +   4.1X<X2.1 w +XZ.m b c h g d f f f f f f h c v b 1X$.  5 <X+ #.0.  o q q q q q q ",
"q q q q q q q     R.1X<X2.1 7 G.[...b b b c c c c c c b v b { `.q.;.2   & % 6 %   7 q q q q q q ",
"q q q q q q q 2   o /.1X1X8.3 1 *.U.`.f.L M n b b n M L g._.^.<.2 1 E.*X.   .   2 q q q q q q q ",
"q q q q q q q q <   o v.1X1X/.p 1 2 =.F.~.Q.n.V.V.M.m.~.J.<.5 = u /.1X1X2.    = q q q q q q q q ",
"q q q q q q q q q <     2.<X1X1Xr.p 5 < 5 r &.5.5.*.r 6 = 2 p r.1X1X).i + . = q q q q q q q q q ",
"q q q q q q q q q q 2     6 E.1X1X1X/.8.;.u q 5 6 9 u ;.8.(.1X1X,X9.2     2 q q q q q q q q q q ",
"q q q q q q q q q q q 9 +   o e R.,X1X1X1X,X,X*X=X,X<X1X1X1X*X9.7 o   + 7 q q q q q q q q q q q ",
"q q q q q q q q q q q q q 1 X   o 2 ;.v.(.,X<X1X1X<X-XW.w.p < o   . = q q q q q q q q q q q q q ",
"q q q q q q q q q q q q q q q < O     X & < 2 6 5 2 = & o     o = q q q q q q q q q q q q q q q ",
"q q q q q q q q q q q q q q q q q 5 = % X .         . X % * 6 q q q q q q q q q q q q q q q q q ",
"q q q q q q q q q q q q q q q q q q q 7 3 < * & & * = 3 7 q q q q q q q q q q q q q q q q q q q ",
"q q q q q q q q q q q q q q q q q q q q q q q q q q q q q q q q q q q q q q q q q q q q q q q q ",
"q q q q q q q q q q q q q q q q q q q q q q q q q q q q q q q q q q q q q q q q q q q q q q q q "
};
