/* XPM */
static const char * help[] = {
"32 32 157 2",
"   c None",
".  c #666666",
"X  c #00B6FF",
"o  c #00B2FF",
"O  c #00B5FF",
"+  c #00A7FF",
"@  c #0097FF",
"#  c #00A5FF",
"$  c #03AEF3",
"%  c #0E92C6",
"&  c #1C6D8D",
"*  c #25566A",
"=  c #284F5F",
"-  c #1D6D8D",
";  c #03AFF5",
":  c #0099FF",
">  c #008CFF",
",  c #008AFF",
"<  c #02B0F6",
"1  c #1484B1",
"2  c #2B4853",
"3  c #303E43",
"4  c #3B6273",
"5  c #548294",
"6  c #303D42",
"7  c #2A4B58",
"8  c #0F8EC2",
"9  c #01A4FA",
"0  c #007EFF",
"q  c #007CFF",
"w  c #21627C",
"e  c #608D9F",
"r  c #CED9DD",
"t  c #E5E5E5",
"y  c #1C6890",
"u  c #0070FF",
"i  c #006EFF",
"p  c #01A3FB",
"a  c #1E6685",
"s  c #324F5B",
"d  c #B6CAD2",
"f  c #A1BDC8",
"g  c #303E46",
"h  c #1470AD",
"j  c #0062FF",
"k  c #0061FF",
"l  c #127CB5",
"z  c #303D43",
"x  c #8EADBE",
"c  c #2F3B43",
"v  c #0583E9",
"b  c #0054FF",
"n  c #2A4757",
"m  c #538093",
"M  c #41657D",
"N  c #1D5A8D",
"B  c #0053FF",
"V  c #30393E",
"C  c #8EB0BE",
"Z  c #396170",
"A  c #30444C",
"S  c #416C7D",
"D  c #CCD7DB",
"F  c #7C9DB3",
"G  c #2E3C49",
"H  c #0046FF",
"J  c #2F3D45",
"K  c #6D97A9",
"L  c #303F46",
"P  c #1B7193",
"I  c #0F90C4",
"U  c #2C4651",
"Y  c #CCD5DB",
"T  c #323538",
"R  c #215A79",
"E  c #396070",
"W  c #31393C",
"Q  c #1288B7",
"!  c #235C73",
"~  c #323436",
"^  c #0045FF",
"/  c #0698E8",
"(  c #25576D",
")  c #2F464E",
"_  c #324E5A",
"`  c #2B4955",
"'  c #0F8FC2",
"]  c #0A9DD9",
"[  c #1E6988",
"{  c #31383B",
"}  c #7DA4B4",
"|  c #B6C7D2",
" . c #31373C",
".. c #0038FF",
"X. c #02ADF7",
"o. c #08A1DF",
"O. c #0A9DD8",
"+. c #04ACF0",
"@. c #0F90C5",
"#. c #2B4854",
"$. c #323535",
"%. c #355766",
"&. c #6D91A9",
"*. c #294459",
"=. c #2E3F46",
"-. c #5F8C9E",
";. c #355266",
":. c #1568AD",
">. c #0D95CB",
",. c #5F889E",
"<. c #2C414E",
"1. c #0288F5",
"2. c #1482AD",
"3. c #2E3E47",
"4. c #0F7CC5",
"5. c #1A7396",
"6. c #355765",
"7. c #324E59",
"8. c #2D424A",
"9. c #0B8DD1",
"0. c #19779D",
"q. c #355764",
"w. c #538193",
"e. c #2E3F45",
"r. c #1384B1",
"t. c #0B9BD5",
"y. c #323536",
"u. c #02B1F7",
"i. c #25586D",
"p. c #2F3D42",
"a. c #099EDA",
"s. c #2C454F",
"d. c #333434",
"f. c #2F3D43",
"g. c #0E93C9",
"h. c #01B3FA",
"j. c #294D5B",
"k. c #8FB0BE",
"l. c #3A6272",
"z. c #2D424B",
"x. c #1581AD",
"c. c #30454E",
"v. c #497688",
"b. c #21617A",
"n. c #265365",
"m. c #25576C",
"M. c #2C4550",
"N. c #1189B9",
"B. c #304852",
"V. c #1F6785",
"C. c #206480",
"Z. c #313D42",
"A. c #275365",
"S. c #07A5E5",
"D. c #1386B4",
"F. c #24596D",
"G. c #167FA9",
"                        . . . . . . . .                         ",
"                  . . . X X X X X X X X . . .                   ",
"              . . o X X X X X X X X X X X O + . .               ",
"            . @ # o X X $ % & * = * - % ; O + : > .             ",
"          . , @ # o < 1 2 3 4 5 5 5 4 6 7 8 9 : > 0 .           ",
"        . q , @ # o w 3 e r t t t t t r 5 3 y : > 0 u .         ",
"      . i q , @ p a s d t t t t t t t t t f g h > 0 u j .       ",
"    . k i q , @ l z d t t t t t t t t t t t x c v 0 u j b .     ",
"    . k i q , @ n m t t t t t t t t t t t t t M N 0 u j b .     ",
"  . B k i q , @ V C t t t t f Z A S D t t t t F G 0 u j b H .   ",
"  . B k i q , @ J C t t t K L P I U S t t t t Y T 0 u j b H .   ",
"  . B k i q , @ R E t t K W Q X X ! Z t t t t t ~ 0 u j b H .   ",
". ^ B k i q , @ / ( ) _ ` ' X ] [ { } t t t t |  .0 u j b H ... ",
". ^ B k i q , @ # X.o.O.+.@.#.$.%.} t t t t t &.*.0 u j b H ... ",
". ^ B k i q , @ # o X X ; =.-.D t t t t t t t ;.:.0 u j b H ... ",
". ^ B k i q , @ # o X X >.s t t t t t t t t ,.<.1.0 u j b H ... ",
". ^ B k i q , @ # o X X 2.%.t t t t t t t -.3.4.> 0 u j b H ... ",
". ^ B k i q , @ # o X X 5.6.t t t t d K 7.8.9.: > 0 u j b H ... ",
". ^ B k i q , @ # o X X 0.q.t t t t w.e.r.O + : > 0 u j b H ... ",
". ^ B k i q , @ # o X X t.y.D t t t 6.r.X O + : > 0 u j b H ... ",
"  . B k i q , @ # o X X u.i.Z d D -.p.+.X O + : > 0 u j b H .   ",
"  . B k i q , @ # o X X X a.s.$.d.f.g.X X O + : > 0 u j b H .   ",
"  . B k i q , @ # o X X h.j._ } k.l.z.t.X O + : > 0 u j b H .   ",
"    . k i q , @ # o X X x.c.D t t t v.b.X O + : > 0 u j b .     ",
"    . k i q , @ # o X X n.w.t t t t C s.X O + : > 0 u j b .     ",
"      . i q , @ # o X X m.w.t t t t C M.X O + : > 0 u j .       ",
"        . q , @ # o X X N.B.D t t t l.V.X O + : > 0 u .         ",
"          . , @ # o X X X C.Z.w.-.%.A.S.X O + : > 0 .           ",
"            . @ # o X X X u.D.! F.G.u.X X O + : > .             ",
"              . . o X X X X X X X X X X X O + . .               ",
"                  . . . X X X X X X X X . . .                   ",
"                        . . . . . . . .                         "};
