/* XPM */
static char * help[] = {
"32 32 143 2",
"  	c None",
". 	c #FFFFFF",
"+ 	c #E3F1FA",
"@ 	c #8EC8ED",
"# 	c #4499DE",
"$ 	c #2477D3",
"% 	c #1D6FCF",
"& 	c #2579D3",
"* 	c #459BDF",
"= 	c #90C9EE",
"- 	c #E5F2FB",
"; 	c #F6FAFD",
"> 	c #62B1E6",
", 	c #1F71D0",
"' 	c #1E6FD0",
") 	c #1868CD",
"! 	c #1361CA",
"~ 	c #135FCA",
"{ 	c #1664CC",
"] 	c #2173D2",
"^ 	c #68B4E6",
"/ 	c #F7FBFE",
"( 	c #D9ECF9",
"_ 	c #2B80D6",
": 	c #1C6DCF",
"< 	c #1E71D0",
"[ 	c #0B53C4",
"} 	c #105AC8",
"| 	c #1B6BCE",
"1 	c #135DCA",
"2 	c #0B52C4",
"3 	c #125FCA",
"4 	c #2F84D7",
"5 	c #DFEFFA",
"6 	c #DCEEF9",
"7 	c #115DC9",
"8 	c #82C1EB",
"9 	c #EBF5FC",
"0 	c #F8FCFE",
"a 	c #F9FCFE",
"b 	c #F1F8FD",
"c 	c #AFD9F3",
"d 	c #2175D3",
"e 	c #1E6FCF",
"f 	c #2377D3",
"g 	c #E1F0FA",
"h 	c #2579D4",
"i 	c #1461CA",
"j 	c #EAF4FC",
"k 	c #FBFDFE",
"l 	c #4A9EDF",
"m 	c #0C55C5",
"n 	c #2A7FD5",
"o 	c #F7FCFE",
"p 	c #64B1E6",
"q 	c #1D6DCF",
"r 	c #DBEDF9",
"s 	c #F2F8FD",
"t 	c #EDF6FC",
"u 	c #1B6DCF",
"v 	c #1D6FD0",
"w 	c #6DB7E7",
"x 	c #0E58C6",
"y 	c #3B92DC",
"z 	c #88C5EC",
"A 	c #094EC2",
"B 	c #0A52C2",
"C 	c #FDFEFF",
"D 	c #88C4EC",
"E 	c #2073D2",
"F 	c #E8F4FC",
"G 	c #0A50C2",
"H 	c #80C1EB",
"I 	c #023BB7",
"J 	c #CCE6F7",
"K 	c #C2E2F6",
"L 	c #0D55C5",
"M 	c #1B6BCF",
"N 	c #97CCEE",
"O 	c #4299DE",
"P 	c #1764CD",
"Q 	c #84C2EB",
"R 	c #489DDF",
"S 	c #2275D3",
"T 	c #0D55C6",
"U 	c #F4F9FD",
"V 	c #9BCEEF",
"W 	c #4BA0E0",
"X 	c #1866CD",
"Y 	c #0A4EC2",
"Z 	c #094DC1",
"` 	c #2275D2",
" .	c #196BCE",
"..	c #F0F7FC",
"+.	c #FEFEFF",
"@.	c #115BC9",
"#.	c #287DD5",
"$.	c #2073D0",
"%.	c #115DC8",
"&.	c #F6FBFE",
"*.	c #68B2E7",
"=.	c #0B50C2",
"-.	c #0F58C6",
";.	c #5DADE4",
">.	c #0748BE",
",.	c #1D6DD0",
"'.	c #0E56C5",
").	c #5AACE4",
"!.	c #FCFEFF",
"~.	c #4195DD",
"{.	c #084ABF",
"].	c #BBDEF4",
"^.	c #C5E3F6",
"/.	c #033EB8",
"(.	c #6AB5E7",
"_.	c #E6F2FB",
":.	c #E6F3FB",
"<.	c #0F5AC8",
"[.	c #1A6BCE",
"}.	c #3E95DD",
"|.	c #1766CC",
"1.	c #1C6BCF",
"2.	c #C8E5F6",
"3.	c #ADD7F2",
"4.	c #E0F0FA",
"5.	c #CDE6F7",
"6.	c #0A4DC1",
"7.	c #2175D2",
"8.	c #A7D3F0",
"9.	c #FAFDFE",
"0.	c #E2F0FA",
"a.	c #1766CD",
"b.	c #1C6FCF",
"c.	c #1562CC",
"d.	c #E0EFFA",
"e.	c #1968CE",
"f.	c #125DC9",
"g.	c #125FC9",
"h.	c #196ACE",
"i.	c #6AB4E6",
"j.	c #459BDE",
"k.	c #2479D3",
"l.	c #479DDF",
"                                                                ",
"                                                                ",
"                                                                ",
"                      . . . . . . . . . .                       ",
"                  . . . . . . . . . . . . . .                   ",
"                . . . + @ # $ % % & * = - . . .                 ",
"              . . ; > , % ' ) ! ~ { % ' ] ^ / . .               ",
"            . . ( _ : < ) [ } | : 1 2 3 , : 4 5 . .             ",
"          . . 6 ] : , 7 7 8 9 0 a b c d 2 e : f g . .           ",
"        . . ; h : % i { j . . . . . . k l m , : n o . .         ",
"        . . p : q : 2 r . . . s t . . . k u i v : w . .         ",
"      . . - ' : ' x y . . . z A B # C . . D 2 v : E F . .       ",
"      . . @ : : ' G H . . 0 G i , I J . . K L M : : N . .       ",
"      . . O : : : P n Q @ R ~ S T { U . . V 2 % : : W . .       ",
"      . . f : : : < X Y Z } ` L  .... . +.h @.' : : #.. .       ",
"      . . : : : : : : < < $.%.| &.. . . *.=.< : : : : . .       ",
"      . . : : : : : : : : X -.9 . . +.;.>.,.: : : : : . .       ",
"      . . f : : : : : : : '.).. . !.~.{.e % : : : : #.. .       ",
"      . . O : : : : : : : G ].. . ^./.v % : : : : : W . .       ",
"      . . @ : : : : : : : } (._.:.> <.: : : : : : : N . .       ",
"      . . - ' : : : : : : [.| }.y |.1.: : : : : : E F . .       ",
"        . . p : : : : : : 2 2.. . 3.2 : : : : : : w . .         ",
"        . . ; h : : : : M B 4.. . 5.6.u : : : : n o . .         ",
"          . . 6 7.: : : u L 8.9.a D L : : : : $ 0.. .           ",
"            . . ( _ : : : % a.' b.c.% : : : 4 d.. .             ",
"              . . ; > E : % e.f.g.h.% : ] i./ . .               ",
"                . . . + @ j.$ % % k.l.= _.. . .                 ",
"                  . . . . . . . . . . . . . .                   ",
"                      . . . . . . . . . .                       ",
"                                                                ",
"                                                                ",
"                                                                "};
