/* XPM */
static const char * keyboard[] = {
"32 32 4 1",
"  c None",
". c #333333",
"X c #000B79",
"o c #257900",
"                                ",
"            .                   ",
"             .                  ",
"              .                 ",
"              .                 ",
"              .                 ",
"       ...   ..                 ",
"      .. ....                   ",
"     ..                         ",
"     .                          ",
"     .                          ",
" .............................. ",
".                              .",
".                              .",
".  XX  XX  XX  XX  XX  XX  XX  .",
".  XX  XX  XX  XX  XX  XX  XX  .",
".    XX  XX  XX  XX  XX  XX    .",
".    XX  XX  XX  XX  XX  XX    .",
".  XX  XX  XX  XX  XX  XX  XX  .",
".  XX  XX  XX  XX  XX  XX  XX  .",
".                              .",
".                              .",
".      oooooooooooooooooo      .",
".      oooooooooooooooooo      .",
".                              .",
".                              .",
" .............................. ",
"                                ",
"                                ",
"                                ",
"                                ",
"                                "};
