/* XPM */
static char * keyboard[] = {
"32 32 60 1",
" 	c None",
".	c #FFFFFF",
"+	c #EFEFEF",
"@	c #ACACAC",
"#	c #909090",
"$	c #929292",
"%	c #AAAAAA",
"&	c #EEEEEE",
"*	c #808080",
"=	c #666666",
"-	c #505050",
";	c #797979",
">	c #5F5F5F",
",	c #868686",
"'	c #EAEAEA",
")	c #8A8A8A",
"!	c #555555",
"~	c #9B9B9B",
"{	c #9E9E9E",
"]	c #565656",
"^	c #979797",
"/	c #FBFBFB",
"(	c #616161",
"_	c #8C8C8C",
":	c #FDFDFD",
"<	c #686868",
"[	c #7D7D7D",
"}	c #FEFEFE",
"|	c #F8F8F8",
"1	c #1D1D1D",
"2	c #444444",
"3	c #242424",
"4	c #333333",
"5	c #F5F5F5",
"6	c #F6F6F6",
"7	c #F7F7F7",
"8	c #FCFCFC",
"9	c #757575",
"0	c #7F7F7F",
"a	c #F9F9F9",
"b	c #1B1B1B",
"c	c #363636",
"d	c #ECECEC",
"e	c #F0F0F0",
"f	c #585858",
"g	c #999999",
"h	c #3E3E3E",
"i	c #2C2C2C",
"j	c #353535",
"k	c #2B2B2B",
"l	c #373737",
"m	c #F2F2F2",
"n	c #FAFAFA",
"o	c #6D6D6D",
"p	c #5B5B5B",
"q	c #5D5D5D",
"r	c #4E4E4E",
"s	c #5A5A5A",
"t	c #949494",
"u	c #6A6A6A",
"                                ",
"                                ",
"                                ",
"     ......................     ",
"    ........................    ",
"   ..+@#$$$$$$$$$$$$$$$$#%&..   ",
"   ..*=------------------=;..   ",
"   ..>,'''''''''''''''''')>..   ",
"   ..!~..................{!..   ",
"   ..]^..................~]..   ",
"   ..]^..................~]..   ",
"   ..]^./(_.:<[}}[<:._(/.~]..   ",
"   ..]^.|12./34}}43/.21|.~]..   ",
"   ..]^..5|..67..76..|5..~]..   ",
"   ..]^..................~]..   ",
"   ..]^...89$.}00}.$98...~]..   ",
"   ..]^...abc}8338}cba...~]..   ",
"   ..]^....de..&&..ed....~]..   ",
"   ..f^..................gf..   ",
"   ..f^.....86||||68.....gf..   ",
"   ..f^....7hijjjcklm....gf..   ",
"   ..f^....no-pppqr<|....gf..   ",
"   ..f^......:}}}}:......gf..   ",
"   ..]g..................~]..   ",
"   ..s#8////////////////8ts..   ",
"   ..*u<================<u;..   ",
"   ..&@_################_%&..   ",
"    ........................    ",
"     ......................     ",
"                                ",
"                                ",
"                                "};
