/* XPM */
static char * off[] = {
"32 32 111 2",
"  	c None",
". 	c #FFFFFF",
"+ 	c #FDE6DF",
"@ 	c #F79E80",
"# 	c #F15637",
"$ 	c #EC3319",
"% 	c #EB2B13",
"& 	c #EC351A",
"* 	c #F15839",
"= 	c #F7A084",
"- 	c #FDE8E2",
"; 	c #FEF7F5",
"> 	c #F47555",
", 	c #EB2F15",
"' 	c #EB3017",
") 	c #F47B5A",
"! 	c #FEF8F6",
"~ 	c #FCDED4",
"{ 	c #EE3B20",
"] 	c #EE4023",
"^ 	c #FDE3DB",
"/ 	c #FCE1D7",
"( 	c #E9230D",
"_ 	c #E61605",
": 	c #EA250F",
"< 	c #E9240F",
"[ 	c #E61505",
"} 	c #E9230E",
"| 	c #EC3219",
"1 	c #FDE6DE",
"2 	c #EC361B",
"3 	c #E71A07",
"4 	c #EC3118",
"5 	c #F9B8A2",
"6 	c #E9250E",
"7 	c #E71E0A",
"8 	c #E71D09",
"9 	c #EA2A11",
"0 	c #FAB8A5",
"a 	c #EB2C14",
"b 	c #E71B08",
"c 	c #EB2D15",
"d 	c #ED3A1F",
"e 	c #FEF9F7",
"f 	c #F47756",
"g 	c #FDECE6",
"h 	c #E81F0A",
"i 	c #E61907",
"j 	c #FDE5DE",
"k 	c #FDE8E1",
"l 	c #EB2B14",
"m 	c #F5805F",
"n 	c #E61504",
"o 	c #FBCCBB",
"p 	c #FCDFD5",
"q 	c #E8210C",
"r 	c #FABFAC",
"s 	c #E51404",
"t 	c #EB3016",
"u 	c #FDEBE6",
"v 	c #E9240E",
"w 	c #E41102",
"x 	c #FDE4DC",
"y 	c #EB2811",
"z 	c #F8A58A",
"A 	c #F05536",
"B 	c #E61B09",
"C 	c #FDEBE5",
"D 	c #FCD2C5",
"E 	c #FCD9CD",
"F 	c #FDE5DD",
"G 	c #E61806",
"H 	c #F25D3E",
"I 	c #EB2F16",
"J 	c #E71C08",
"K 	c #E71C09",
"L 	c #E71D0A",
"M 	c #ED391D",
"N 	c #E8200B",
"O 	c #E61705",
"P 	c #FCDCD3",
"Q 	c #FCD5C8",
"R 	c #E8220C",
"S 	c #E8210B",
"T 	c #E51403",
"U 	c #FCDACE",
"V 	c #FCD2C4",
"W 	c #E51103",
"X 	c #FCE0D6",
"Y 	c #EB2A12",
"Z 	c #E41103",
"` 	c #EA260F",
" .	c #E51505",
"..	c #FABBA7",
"+.	c #FDE4DD",
"@.	c #F9B29B",
"#.	c #EA240E",
"$.	c #EA2810",
"%.	c #FDE1D9",
"&.	c #FCE1D6",
"*.	c #EA2811",
"=.	c #F9B49D",
"-.	c #E71A08",
";.	c #F9BAA5",
">.	c #EB3118",
",.	c #EA240F",
"'.	c #F57D5B",
").	c #FDE7E0",
"!.	c #F15639",
"~.	c #F15A3A",
"{.	c #FDE9E2",
"                                                                ",
"                                                                ",
"                                                                ",
"                      . . . . . . . . . .                       ",
"                  . . . . . . . . . . . . . .                   ",
"                . . . + @ # $ % % & * = - . . .                 ",
"              . . ; > , % % % % % % % % ' ) ! . .               ",
"            . . ~ { % % % % % % % % % % % % ] ^ . .             ",
"          . . / ' , ( _ : , % % % % , < [ } , | 1 . .           ",
"        . . ; 2 , 3 4 5 6 7 , % % , 8 9 0 a b c d e . .         ",
"        . . f a ( c g . ~ _ h , , 8 i j . k a } l m . .         ",
"      . . - a l n o . . . p _ ( q i 1 . . . r s l t u . .       ",
"      . . @ % a v a u . . . p w s + . . . x y v a % z . .       ",
"      . . A % % , B b C . . . D E . . . F G 8 , % % H . .       ",
"      . . | % % % I J K u . . . . . . F G L , % % % M . .       ",
"      . . % % % % % , N O P . . . . Q s R , % % % % % . .       ",
"      . . % % % % % , S T U . . . . V W ( , % % % % % . .       ",
"      . . | % % % , 8 i + . . . . . . p _ h , % % % M . .       ",
"      . . A % % , 8 i 1 . . . U X . . . p _ 7 , % % H . .       ",
"      . . @ % a v Y + . . . F Z _ g . . . p ` : l % z . .       ",
"      . . - a a  .... . . +.G R N b C . . . @.n a t u . .       ",
"        . . f l #.$.%.. x G L , I J K u . &.*.#.l m . .         ",
"        . . ; 2 , 8 *.=.Y 8 , % % , -.' ;.` L , d e . .         ",
"          . . / >.c #._ 6 , % % % % , ( _ ,.c $ 1 . .           ",
"            . . ~ { % a % % % % % % % % % % ] x . .             ",
"              . . ; > t % % % % % % % % ' '.! . .               ",
"                . . . ).@ !.$ % % & ~.= {.. . .                 ",
"                  . . . . . . . . . . . . . .                   ",
"                      . . . . . . . . . .                       ",
"                                                                ",
"                                                                ",
"                                                                "};
