/* XPM */
static const char * off[] = {
"32 32 207 2",
"   c None",
".  c #666666",
"X  c #FF6D6D",
"o  c #FF6969",
"O  c #FF6464",
"+  c #FF5F5F",
"@  c #FF5A5A",
"#  c #FF5555",
"$  c #FF5050",
"%  c #FF4B4B",
"&  c #FF7D7D",
"*  c #FF7777",
"=  c #FF7373",
"-  c #FF4646",
";  c #FF4242",
":  c #FF3D3D",
">  c #FF8686",
",  c #FF8181",
"<  c #FF3838",
"1  c #FF3333",
"2  c #FF8B8B",
"3  c #FF2E2E",
"4  c #FF9090",
"5  c #FF2929",
"6  c #FF9595",
"7  c #FF2424",
"8  c #FF9A9A",
"9  c #F98E8E",
"0  c #D18080",
"q  c #D17C7C",
"w  c #D17979",
"e  c #D17676",
"r  c #D57272",
"t  c #D24D4D",
"y  c #D04A4A",
"u  c #D04646",
"i  c #D04343",
"p  c #D03F3F",
"a  c #FC2A2A",
"s  c #FF2020",
"d  c #F28C8C",
"f  c #796D6D",
"g  c #908888",
"h  c #9E9292",
"j  c #938A8A",
"k  c #9F7575",
"l  c #F86D6D",
"z  c #BE5A5A",
"x  c #8F7F7F",
"c  c #9A8A8A",
"v  c #897E7E",
"b  c #8F6262",
"n  c #F82C2C",
"m  c #FF9F9F",
"M  c #E88585",
"N  c #756F6F",
"B  c #E1E1E1",
"V  c #FFFFFF",
"C  c #F9F9F9",
"Z  c #A69F9F",
"A  c #A96D6D",
"S  c #FB6969",
"D  c #FD5050",
"F  c #B25E5E",
"G  c #998D8D",
"H  c #EDEDED",
"J  c #D9D9D9",
"K  c #927171",
"L  c #E63737",
"P  c #FF1A1A",
"I  c #D77E7E",
"U  c #E9E9E9",
"Y  c #999090",
"T  c #BA6D6D",
"R  c #BB6060",
"E  c #8C8383",
"W  c #766E6E",
"Q  c #E23D3D",
"!  c #C77777",
"~  c #867D7D",
"^  c #FAFAFA",
"/  c #9A8E8E",
"(  c #C16565",
")  c #FE5F5F",
"_  c #FA5A5A",
"`  c #AF6363",
"'  c #9F9393",
"]  c #EEEEEE",
"[  c #9A8181",
"{  c #D74444",
"}  c #FFA3A3",
"|  c #FD8181",
" . c #B17575",
".. c #9E9595",
"X. c #F3F3F3",
"o. c #7E7575",
"O. c #D16161",
"+. c #AF6666",
"@. c #948B8B",
"#. c #F5F5F5",
"$. c #867F7F",
"%. c #C74C4C",
"&. c #FF1616",
"*. c #AB7272",
"=. c #A79F9F",
"-. c #947F7F",
";. c #A29595",
":. c #F2F2F2",
">. c #978D8D",
",. c #B85959",
"<. c #FD3D3D",
"1. c #F77676",
"2. c #A37676",
"3. c #B5B1B1",
"4. c #FDFDFD",
"5. c #F6F6F6",
"6. c #D8D8D8",
"7. c #DEDEDE",
"8. c #A29E9E",
"9. c #AE5C5C",
"0. c #F27272",
"q. c #846D6D",
"w. c #C4C4C4",
"e. c #DBDBDB",
"r. c #A6A0A0",
"t. c #A36969",
"y. c #FB4747",
"u. c #A76D6D",
"i. c #A9A1A1",
"p. c #EAEAEA",
"a. c #CCCCCC",
"s. c #888080",
"d. c #B45E5E",
"f. c #FD7777",
"g. c #B67171",
"h. c #A29898",
"j. c #958080",
"k. c #D44F4F",
"l. c #C17070",
"z. c #867C7C",
"x. c #918B8B",
"c. c #B5B5B5",
"v. c #DDDDDD",
"b. c #917777",
"n. c #E94747",
"m. c #D47777",
"M. c #928484",
"N. c #F1F1F1",
"B. c #948C8C",
"V. c #A96767",
"C. c #9D6C6C",
"Z. c #B6B0B0",
"A. c #FBFBFB",
"S. c #C9C9C9",
"D. c #7F6B6B",
"F. c #F24040",
"G. c #E07C7C",
"H. c #8F7B7B",
"J. c #A49999",
"K. c #B46A6A",
"L. c #FC5F5F",
"P. c #F15B5B",
"I. c #8E6A6A",
"U. c #B2ACAC",
"Y. c #BAB3B3",
"T. c #A06565",
"R. c #FB3939",
"E. c #E78181",
"W. c #7D7272",
"Q. c #9D9393",
"!. c #AB6C6C",
"~. c #FA5656",
"^. c #9B6A6A",
"/. c #B4AFAF",
"(. c #A09797",
"). c #B45555",
"_. c #EF8787",
"`. c #9D7D7D",
"'. c #CACACA",
"]. c #F4F4F4",
"[. c #9E9494",
"{. c #AC6E6E",
"}. c #F86969",
"|. c #F15252",
" X c #9C6868",
".X c #A6A1A1",
"XX c #F0F0F0",
"oX c #9D9090",
"OX c #C04848",
"+X c #977474",
"@X c #7F7979",
"#X c #918888",
"$X c #8D8484",
"%X c #AE7070",
"&X c #A06767",
"*X c #928585",
"=X c #968686",
"-X c #6E6767",
";X c #D97A7A",
":X c #D97777",
">X c #D97373",
",X c #FD7373",
"<X c #FA4747",
"1X c #D84B4B",
"2X c #DA4747",
"3X c #DA4343",
"4X c #E03D3D",
"                        . . . . . . . .                         ",
"                  . . . X o O + @ # $ % . . .                   ",
"              . . & * = X o O + @ # $ % - ; : . .               ",
"            . > , & * = X o O + @ # $ % - ; : < 1 .             ",
"          . 2 > , & * = X o O + @ # $ % - ; : < 1 3 .           ",
"        . 4 2 > , & * = X o O + @ # $ % - ; : < 1 3 5 .         ",
"      . 6 4 2 > , & * = X o O + @ # $ % - ; : < 1 3 5 7 .       ",
"    . 8 6 9 0 q w e r = X o O + @ # $ % - t y u i p a 7 s .     ",
"    . 8 6 d f g h h j k l o O + @ # $ % z x c c v b n 7 s .     ",
"  . m 8 6 4 M N B V C Z A S O + @ # D F G H V J K L 5 7 s P .   ",
"  . m 8 6 4 2 I c U V V Y T O + @ # R E C V B W Q 3 5 7 s P .   ",
"  . m 8 6 4 2 > ! ~ ^ V H / ( ) _ ` ' ] V U [ { 1 3 5 7 s P .   ",
". } m 8 6 4 2 > |  ...X.V X.o.O.+.@.#.V C $.%.< 1 3 5 7 s P &.. ",
". } m 8 6 4 2 > , & *.=.V V B -.;.:.V X.>.,.<.< 1 3 5 7 s P &.. ",
". } m 8 6 4 2 > , & 1.2.3.4.5.6.7.H 5.8.9.; : < 1 3 5 7 s P &.. ",
". } m 8 6 4 2 > , & * 0.q.w.H B e.B r.t.y.; : < 1 3 5 7 s P &.. ",
". } m 8 6 4 2 > , & * = u.i.p.e.a.e.s.d.- ; : < 1 3 5 7 s P &.. ",
". } m 8 6 4 2 > , & f.g.h.X.H B e.B B j.k.; : < 1 3 5 7 s P &.. ",
". } m 8 6 4 2 > , & l.z.:.V 5.x.c.H 5.v.b.n.: < 1 3 5 7 s P &.. ",
". } m 8 6 4 2 > , m.M.:.V N.B.V.C.Z.A.V S.D.F.< 1 3 5 7 s P &.. ",
"  . m 8 6 4 2 > G.H.v.V #.J.K.L.P.I.U.V V Y.T.R.1 3 5 7 s P .   ",
"  . m 8 6 4 2 E.W.J V ^ Q.!.O + @ ~.^./.A.V (.).1 3 5 7 s P .   ",
"  . m 8 6 4 _.`.'.V ].[.{.}.O + @ # |. X.XA.XXoXOX3 5 7 s P .   ",
"    . 8 6 4 +X@X#X#X$X%XX o O + @ # $ % &X*Xc =X-X3 5 7 s .     ",
"    . 8 6 4 M I ;X:X>X,XX o O + @ # $ % <X1X2X3X4X3 5 7 s .     ",
"      . 6 4 2 > , & * = X o O + @ # $ % - ; : < 1 3 5 7 .       ",
"        . 4 2 > , & * = X o O + @ # $ % - ; : < 1 3 5 .         ",
"          . 2 > , & * = X o O + @ # $ % - ; : < 1 3 .           ",
"            . > , & * = X o O + @ # $ % - ; : < 1 .             ",
"              . . & * = X o O + @ # $ % - ; : . .               ",
"                  . . . X o O + @ # $ % . . .                   ",
"                        . . . . . . . .                         "};
