/* XPM */
static const char * on[] = {
"32 32 141 2",
"   c None",
".  c #666666",
"X  c #62E662",
"o  c #5AE45A",
"O  c #52E252",
"+  c #4AE04A",
"@  c #43DE43",
"#  c #3BDC3B",
"$  c #33DA33",
"%  c #2BD82B",
"&  c #79EC79",
"*  c #71EA71",
"=  c #6AE86A",
"-  c #23D523",
";  c #1CD31C",
":  c #14D114",
">  c #89F189",
",  c #81EE81",
"<  c #0CCF0C",
"1  c #04CD04",
"2  c #91F391",
"3  c #00CC00",
"4  c #98F598",
"5  c #A0F7A0",
"6  c #A8F9A8",
"7  c #1BC91B",
"8  c #62B362",
"9  c #70AC70",
"0  c #B0FBB0",
"q  c #40BF40",
"w  c #999999",
"e  c #C7C7C7",
"r  c #8CA78C",
"t  c #2AD12A",
"y  c #64B564",
"u  c #A0B7A0",
"i  c #E6E6E6",
"p  c #B3B6B3",
"a  c #47B947",
"s  c #2ED62E",
"d  c #70B270",
"f  c #ACBAAC",
"g  c #ECECEC",
"h  c #E2E2E2",
"j  c #8FA48F",
"k  c #B8FDB8",
"l  c #3DD43D",
"z  c #84AE84",
"x  c #BCC1BC",
"c  c #F3F3F3",
"v  c #F1F1F1",
"b  c #A4B5A4",
"n  c #35BC35",
"m  c #92E692",
"M  c #8DDB8D",
"N  c #82EB82",
"B  c #45D545",
"V  c #7FB57F",
"C  c #C0C6C0",
"Z  c #F0F0F0",
"A  c #CECECE",
"S  c #75AF75",
"D  c #98C698",
"F  c #AAB1AA",
"G  c #9BB79B",
"H  c #7EDE7E",
"J  c #47DB47",
"K  c #8DA98D",
"L  c #C7CCC7",
"P  c #92B192",
"I  c #20C720",
"U  c #94D794",
"Y  c #B6BBB6",
"T  c #D4D4D4",
"R  c #A1ADA1",
"E  c #89C189",
"W  c #6BE66B",
"Q  c #57D457",
"!  c #8DAA8D",
"~  c #C6CCC6",
"^  c #EDEDED",
"/  c #9FA69F",
"(  c #41BE41",
")  c #91EE91",
"_  c #A1B6A1",
"`  c #EFEFEF",
"'  c #98A698",
"]  c #70D270",
"[  c #58DC58",
"{  c #8AB28A",
"}  c #CDD3CD",
"|  c #BABFBA",
" . c #61B761",
".. c #8ED48E",
"X. c #A6ACA6",
"o. c #F2F2F2",
"O. c #DEDEDE",
"+. c #A7B3A7",
"@. c #86BA86",
"#. c #91A891",
"$. c #C5CAC5",
"%. c #D7D7D7",
"&. c #8AAD8A",
"*. c #89F089",
"=. c #95B995",
"-. c #C6CAC6",
";. c #C9CEC9",
":. c #9AB09A",
">. c #3AC93A",
",. c #82EA82",
"<. c #9AAB9A",
"1. c #CDCDCD",
"2. c #E1E1E1",
"3. c #DCDCDC",
"4. c #A1A7A1",
"5. c #51C251",
"6. c #80DA80",
"7. c #9BAC9B",
"8. c #CFCFCF",
"9. c #ACB0AC",
"0. c #6DB76D",
"q. c #2CD72C",
"w. c #7DD27D",
"e. c #999E99",
"r. c #B6B6B6",
"t. c #BDBDBD",
"y. c #AFAFAF",
"u. c #87AA87",
"i. c #76D476",
"p. c #95A795",
"a. c #A6A6A6",
"s. c #ABABAB",
"d. c #A7A7A7",
"f. c #8DA78D",
"g. c #48D348",
"h. c #6ED56E",
"j. c #93A193",
"k. c #979B97",
"l. c #959D95",
"z. c #58CD58",
"x. c #6BC36B",
"                        . . . . . . . .                         ",
"                  . . . X o O + @ # $ % . . .                   ",
"              . . & * = X o O + @ # $ % - ; : . .               ",
"            . > , & * = X o O + @ # $ % - ; : < 1 .             ",
"          . 2 > , & * = X o O + @ # $ % - ; : < 1 3 .           ",
"        . 4 2 > , & * = X o O + @ # $ % - ; : < 1 3 3 .         ",
"      . 5 4 2 > , & * = X o O + @ # $ % - ; : < 1 3 3 3 .       ",
"    . 6 5 4 2 > , & * = X o O + @ # $ % - ; : < 1 3 3 3 3 .     ",
"    . 6 5 4 2 > , & * = X o O + @ # $ % - ; : 7 8 9 3 3 3 .     ",
"  . 0 6 5 4 2 > , & * = X o O + @ # $ % - ; q w e r 3 3 3 3 .   ",
"  . 0 6 5 4 2 > , & * = X o O + @ # $ % t y u i p a 3 3 3 3 .   ",
"  . 0 6 5 4 2 > , & * = X o O + @ # $ s d f g h j 3 3 3 3 3 .   ",
". k 0 6 5 4 2 > , & * = X o O + @ # l z x c v b n 3 3 3 3 3 3 . ",
". k 0 6 5 4 m M N & * = X o O + @ B V C Z c A S 1 3 3 3 3 3 3 . ",
". k 0 6 5 4 D F G H * = X o O + J K L c c h P I 1 3 3 3 3 3 3 . ",
". k 0 6 5 4 U Y T R E W X o O Q ! ~ c c ^ / ( < 1 3 3 3 3 3 3 . ",
". k 0 6 5 4 ) _ h ` Y ' ] o [ { } c c c |  .: < 1 3 3 3 3 3 3 . ",
". k 0 6 5 4 2 ..X.` o.O.+.@.#.$.c c c %.&.; : < 1 3 3 3 3 3 3 . ",
". k 0 6 5 4 2 *.=.-.c c ^ $.;.o.c c i :.>.; : < 1 3 3 3 3 3 3 . ",
". k 0 6 5 4 2 > ,.<.1.2.2.2.2.2.2.3.4.5.- ; : < 1 3 3 3 3 3 3 . ",
"  . 0 6 5 4 2 > , 6.7.e 8.8.8.8.8.9.0.q.- ; : < 1 3 3 3 3 3 .   ",
"  . 0 6 5 4 2 > , & w.e.r.t.t.t.y.u.$ % - ; : < 1 3 3 3 3 3 .   ",
"  . 0 6 5 4 2 > , & * i.p.a.s.d.f.g.$ % - ; : < 1 3 3 3 3 3 .   ",
"    . 6 5 4 2 > , & * = h.j.k.l.z.# $ % - ; : < 1 3 3 3 3 .     ",
"    . 6 5 4 2 > , & * = X o z x.@ # $ % - ; : < 1 3 3 3 3 .     ",
"      . 5 4 2 > , & * = X o O + @ # $ % - ; : < 1 3 3 3 .       ",
"        . 4 2 > , & * = X o O + @ # $ % - ; : < 1 3 3 .         ",
"          . 2 > , & * = X o O + @ # $ % - ; : < 1 3 .           ",
"            . > , & * = X o O + @ # $ % - ; : < 1 .             ",
"              . . & * = X o O + @ # $ % - ; : . .               ",
"                  . . . X o O + @ # $ % . . .                   ",
"                        . . . . . . . .                         "};
