/* XPM */
static char * on[] = {
"32 32 118 2",
"  	c None",
". 	c #FFFFFF",
"+ 	c #E9FAF4",
"@ 	c #A7EAD4",
"# 	c #62D7AF",
"$ 	c #40CA95",
"% 	c #36C68C",
"& 	c #40CC95",
"* 	c #64D9B1",
"= 	c #A9EAD4",
"- 	c #EBFAF5",
"; 	c #F8FDFC",
"> 	c #82E1C1",
", 	c #3AC890",
"' 	c #3BC992",
") 	c #88E2C4",
"! 	c #F9FDFC",
"~ 	c #E1F7F0",
"{ 	c #47CE9D",
"] 	c #4BCF9E",
"^ 	c #E6F9F2",
"/ 	c #E4F8F1",
"( 	c #37C68E",
"_ 	c #37C68C",
": 	c #3ECA94",
"< 	c #E7F9F4",
"[ 	c #41CC97",
"} 	c #39C890",
"| 	c #29BF7D",
"1 	c #2BC17F",
"2 	c #45CE9B",
"3 	c #F9FEFC",
"4 	c #84E1C2",
"5 	c #20BA73",
"6 	c #5DD6AC",
"7 	c #52D2A5",
"8 	c #22BA75",
"9 	c #3AC990",
"0 	c #8CE3C6",
"a 	c #37C88E",
"b 	c #1BB56A",
"c 	c #53D3A5",
"d 	c #FEFFFE",
"e 	c #FAFEFD",
"f 	c #3ECA95",
"g 	c #1FB86F",
"h 	c #EEFBF6",
"i 	c #35C68A",
"j 	c #39C990",
"k 	c #1AB46B",
"l 	c #56D4A7",
"m 	c #FDFEFE",
"n 	c #5FD7AD",
"o 	c #28BE7D",
"p 	c #ADEBD6",
"q 	c #61D7AF",
"r 	c #39C88E",
"s 	c #26BE7B",
"t 	c #22BB75",
"u 	c #32C588",
"v 	c #19B56A",
"w 	c #5AD5AA",
"x 	c #FEFFFF",
"y 	c #94E5C9",
"z 	c #6BDBB5",
"A 	c #7BDFBE",
"B 	c #D7F5EB",
"C 	c #2DC282",
"D 	c #71DCB8",
"E 	c #1BB56B",
"F 	c #44CD99",
"G 	c #21BA73",
"H 	c #68D9B2",
"I 	c #D3F4EA",
"J 	c #1AB46A",
"K 	c #2DC280",
"L 	c #3DC992",
"M 	c #18B466",
"N 	c #61D9AD",
"O 	c #19B268",
"P 	c #24BD79",
"Q 	c #6ADAB4",
"R 	c #D6F5EB",
"S 	c #1CB56D",
"T 	c #14AF61",
"U 	c #66DAB2",
"V 	c #6ADBB5",
"W 	c #19B468",
"X 	c #2FC284",
"Y 	c #35C68C",
"Z 	c #E4F8F2",
"` 	c #C8F1E4",
" .	c #5BD5AC",
"..	c #6ADBB4",
"+.	c #2ABF7F",
"@.	c #1EB76F",
"#.	c #DEF7EE",
"$.	c #1FB871",
"%.	c #DDF7EE",
"&.	c #FDFFFE",
"*.	c #2BC180",
"=.	c #1DB76F",
"-.	c #5FD6AC",
";.	c #2AC17F",
">.	c #DBF6ED",
",.	c #3AC88E",
"'.	c #2CC180",
").	c #1EB86F",
"!.	c #E2F8F0",
"~.	c #2BBF80",
"{.	c #33C58A",
"].	c #50D2A4",
"^.	c #23BB75",
"/.	c #E8F9F4",
"(.	c #30C484",
"_.	c #E6F9F3",
":.	c #88E2C5",
"<.	c #66D9B2",
"                                                                ",
"                                                                ",
"                                                                ",
"                      . . . . . . . . . .                       ",
"                  . . . . . . . . . . . . . .                   ",
"                . . . + @ # $ % % & * = - . . .                 ",
"              . . ; > , % % % % % % % % ' ) ! . .               ",
"            . . ~ { % % % % % % % % % % % % ] ^ . .             ",
"          . . / ' % % % % % % % % % % % % ( _ : < . .           ",
"        . . ; [ % % % % % % % % % % % % } | 1 , 2 3 . .         ",
"        . . 4 % % % % % % % % % % % % } 5 6 7 8 9 0 . .         ",
"      . . - a % % % % % % % % % % % 9 b c d e f g : h . .       ",
"      . . @ % % % % i % % % % % % j k l m . . e n o p . .       ",
"      . . q % _ r s t u r % % _ j v w x . . . . y 8 z . .       ",
"      . . : % r k A B t C r % r b 6 x . . . x D E r F . .       ",
"      . . % r G H d . I J K L M N d . . . x D O r _ % . .       ",
"      . . % P Q . . . . R S T U x . . . x V W a _ % % . .       ",
"      . . : X Y Z . . . . `  .x . . . d ..W } a % % F . .       ",
"      . . q , +.@.#.. . . . . . . . d * W r _ % % % z . .       ",
"      . . @ % } +.$.%.. . . . . . &.n W r _ % % % % p . .       ",
"      . . - a % 9 *.=.%.. . . . &.-.W r % % % % % 9 h . .       ",
"        . . 4 % % r ;.=.>.. . m l J r % % % % % % 0 . .         ",
"        . . ; [ % % ,.'.).!.&.w J } % % % % % % 2 3 . .         ",
"          . . / L % % 9 ~.{.].^.a % % % % % % $ /.. .           ",
"            . . !.{ % % r (.o r % % % % % % ] _.. .             ",
"              . . ; > 9 % _ a % % % % % ' :.! . .               ",
"                . . . + @ * $ % % & <.= - . . .                 ",
"                  . . . . . . . . . . . . . .                   ",
"                      . . . . . . . . . .                       ",
"                                                                ",
"                                                                ",
"                                                                "};
