/* XPM */
static char * preferences[] = {
"32 32 68 1",
" 	c None",
".	c #FFFFFF",
"+	c #C6C6C6",
"@	c #585858",
"#	c #5A5A5A",
"$	c #9E9E9E",
"%	c #999999",
"&	c #505050",
"*	c #666666",
"=	c #FEFEFE",
"-	c #F5F5F5",
";	c #8E8E8E",
">	c #E4E4E4",
",	c #717171",
"'	c #FCFCFC",
")	c #FDFDFD",
"!	c #BFBFBF",
"~	c #EEEEEE",
"{	c #6A6A6A",
"]	c #555555",
"^	c #EBEBEB",
"/	c #A5A5A5",
"(	c #525252",
"_	c #979797",
":	c #F1F1F1",
"<	c #F2F2F2",
"[	c #7D7D7D",
"}	c #616161",
"|	c #BEBEBE",
"1	c #757575",
"2	c #797979",
"3	c #535353",
"4	c #E3E3E3",
"5	c #F6F6F6",
"6	c #EFEFEF",
"7	c #808080",
"8	c #FBFBFB",
"9	c #888888",
"0	c #6B6B6B",
"a	c #686868",
"b	c #9D9D9D",
"c	c #737373",
"d	c #F0F0F0",
"e	c #565656",
"f	c #BDBDBD",
"g	c #949494",
"h	c #909090",
"i	c #C1C1C1",
"j	c #5D5D5D",
"k	c #F8F8F8",
"l	c #5B5B5B",
"m	c #6F6F6F",
"n	c #848484",
"o	c #F7F7F7",
"p	c #868686",
"q	c #F9F9F9",
"r	c #E6E6E6",
"s	c #D0D0D0",
"t	c #E8E8E8",
"u	c #828282",
"v	c #B2B2B2",
"w	c #EDEDED",
"x	c #8C8C8C",
"y	c #DFDFDF",
"z	c #CACACA",
"A	c #626262",
"B	c #E9E9E9",
"C	c #AAAAAA",
"                                ",
"                                ",
"                                ",
"             ......             ",
"            ........            ",
"        ... ..+@#$.. ...        ",
"       .......%&&*=......       ",
"      ..-;>...,&&&'..)!~...     ",
"     ..~{&]+^/(&&&_:<[&}~..     ",
"     ..|&&&&&&&&&&&((&&&1=.     ",
"     ..)2&&&&&&&&&&&&&&34..     ",
"      ..5]&&&&&&&&&&&&(+..      ",
"    ....6]&&&&&77&&&&&(6....    ",
"   ...=89&&&&06==~a&&&&b=....   ",
"   ../c3&&&&@<....de&&&&a_f..   ",
"   ..]&&&&&&g......h&&&&&&&..   ",
"   ..3&&&&&&b......_&&&&&&&..   ",
"   ..i_*&&&&jk....5l&&&&(m$..   ",
"   ....);&&&&no..57&&&&pq=...   ",
"    ....r(&&&&l$b@&&&&3^....    ",
"      ..s(&&&&&&&&&&&&(<..      ",
"     ..t@&&&&&&&&&&&&&&1'..     ",
"     ..u&&&&&&&&&&&&&&&&v..     ",
"     ..d*&1w4u&&&&xyze&AB..     ",
"     ...:!'..8]&&A)..r;d...     ",
"       ......=,&&x.......       ",
"        ... ..C#@|.. ...        ",
"            ........            ",
"             ......             ",
"                                ",
"                                ",
"                                "};
