/* XPM */
static char * preferences[] = {
"32 32 422 2",
"   c None",
".  c #222321",
"X  c #6D6F6A",
"o  c #747771",
"O  c #494B46",
"+  c #0B0C0B",
"@  c #151514",
"#  c #888A85",
"$  c #CFCFCE",
"%  c #CBCCCA",
"&  c #BBBCB9",
"*  c #838580",
"=  c #2D2E2C",
"-  c #40444B",
";  c #5A6069",
":  c #030304",
">  c #0C0C0C",
",  c #6C6D6A",
"<  c #F2F2F2",
"1  c #E8E8E8",
"2  c #E9E9E9",
"3  c #ABADAA",
"4  c #363734",
"5  c #4C5059",
"6  c #A5B0BD",
"7  c #B1BDCA",
"8  c #6A707C",
"9  c #080809",
"0  c #5D5F5A",
"q  c #C6C7C5",
"w  c #E7E7E7",
"e  c #DDDDDD",
"r  c #ECECEC",
"t  c #9EA09C",
"y  c #0E0E0D",
"u  c #020303",
"i  c #5C616B",
"p  c #ACB7C3",
"a  c #C9D6E3",
"s  c #B5C1CE",
"d  c #7A818D",
"f  c #151719",
"g  c #5B5C59",
"h  c #D1D2D0",
"j  c #E0E0E1",
"k  c #E5E4E5",
"l  c #CBCBCA",
"z  c #434441",
"x  c #0C0C0E",
"c  c #6C737E",
"v  c #B7C1CD",
"b  c #CCD9E5",
"n  c #C3D1DE",
"m  c #C3D0DD",
"M  c #CBD8E5",
"N  c #9CA6B3",
"B  c #26282D",
"V  c #040404",
"C  c #212220",
"Z  c #BFC0BE",
"A  c #DFDFDF",
"S  c #6B717B",
"D  c #BDC6D2",
"F  c #CAD7E3",
"G  c #C0CDDA",
"H  c #BFCCD9",
"J  c #C4D1DD",
"K  c #ADB7C4",
"L  c #4F535C",
"P  c #7B7D78",
"I  c #3A3C39",
"U  c #181817",
"Y  c #F1F1F2",
"T  c #E6E6E7",
"R  c #777975",
"E  c #7C838C",
"W  c #C4CED9",
"Q  c #B7C3CF",
"!  c #B8C3CF",
"~  c #B7C1CC",
"^  c #777E8A",
"/  c #020203",
"(  c #5A5B58",
")  c #DADAD9",
"_  c #B9B9B7",
"`  c #353734",
"'  c #020202",
"]  c #626360",
"[  c #F6F6F6",
"{  c #F1F1F1",
"}  c #E6E6E6",
"|  c #636461",
" . c #7D848F",
".. c #BDC6CF",
"X. c #ACB8C3",
"o. c #AEB9C4",
"O. c #B8C2CB",
"+. c #979FAB",
"@. c #17191C",
"#. c #575855",
"$. c #EFEFEF",
"%. c #B4B5B2",
"&. c #4A4B48",
"*. c #2B2C2A",
"=. c #1D1E1C",
"-. c #6E6F6B",
";. c #D0D1D0",
":. c #E0E0E0",
">. c #CFD0CE",
",. c #40413F",
"<. c #4F555E",
"1. c #ADB4BE",
"2. c #BEC6CD",
"3. c #B4BBC4",
"4. c #B0B8C1",
"5. c #9FA7B2",
"6. c #3E4248",
"7. c #333431",
"8. c #C7C7C5",
"9. c #EAEAEA",
"0. c #D1D1D0",
"q. c #C3C4C2",
"w. c #B7B8B5",
"e. c #D6D7D5",
"r. c #EAE9EA",
"t. c #DBDBDB",
"y. c #DCDCDC",
"u. c #E5E5E5",
"i. c #959693",
"p. c #141513",
"a. c #484D55",
"s. c #AAB1BA",
"d. c #C3C9CF",
"f. c #ADB3BC",
"g. c #6D737E",
"h. c #555A62",
"j. c #41454C",
"k. c #070707",
"l. c #9F9F9C",
"z. c #F5F4F5",
"x. c #EEEEEE",
"c. c #F1F0F1",
"v. c #F3F3F4",
"b. c #EDEDED",
"n. c #D4D4D4",
"m. c #EDEDEC",
"M. c #8F918C",
"N. c #0C0C0B",
"B. c #41454D",
"V. c #AAB0B9",
"C. c #C5CACF",
"Z. c #B0B6BE",
"A. c #595F68",
"S. c #343533",
"D. c #BABBB8",
"F. c #FFFFFF",
"G. c #F7F7F7",
"H. c #FAFAFA",
"J. c #FCFCFD",
"K. c #D3D3D3",
"L. c #EAEAEB",
"P. c #ECEDEC",
"I. c #848580",
"U. c #3D4147",
"Y. c #A9AFB9",
"T. c #CCD0D4",
"R. c #B8BDC4",
"E. c #5F656E",
"W. c #40413E",
"Q. c #AFB0AD",
"!. c #E5E5E4",
"~. c #F9F9F9",
"^. c #FBFBFB",
"/. c #F1F1F0",
"(. c #C9CAC7",
"). c #CDCECC",
"_. c #FCFCFC",
"`. c #F0F0F0",
"'. c #FEFDFC",
"]. c #BCC0C6",
"[. c #9DA3AD",
"{. c #CDD1D5",
"}. c #BCC1C8",
"|. c #666C75",
" X c #1A1A19",
".X c #595B57",
"XX c #888986",
"oX c #90918E",
"OX c #72736F",
"+X c #323330",
"@X c #4E4F4C",
"#X c #CECFCD",
"$X c #F9F9F7",
"%X c #BABDC3",
"&X c #9EA5B1",
"*X c #CED1D6",
"=X c #BBC0C7",
"-X c #636873",
";X c #53524A",
":X c #DCDAD3",
">X c #FFFFFE",
",X c #BDC0C5",
"<X c #9BA2AE",
"1X c #BEC3CA",
"2X c #A1A6B0",
"3X c #5B5C5A",
"4X c #00030C",
"5X c #00112E",
"6X c #4D6079",
"7X c #B7BCC2",
"8X c #A4A9B2",
"9X c #CBCED4",
"0X c #C0C4CB",
"qX c #F0F1F2",
"wX c #D4D4D2",
"eX c #50514D",
"rX c #041329",
"tX c #3A6095",
"yX c #7896C0",
"uX c #577EB4",
"iX c #2C5186",
"pX c #BCC2CB",
"aX c #CACCD0",
"sX c #9CA2AE",
"dX c #E3E4E5",
"fX c #E9E8E7",
"gX c #000613",
"hX c #3B6298",
"jX c #81A4D0",
"kX c #CAD9ED",
"lX c #8CABD2",
"zX c #527BB1",
"xX c #406396",
"cX c #A0A8B4",
"vX c #E4E5E5",
"bX c #E7E7E6",
"nX c #E3E3E3",
"mX c #FBFAFB",
"MX c #383836",
"NX c #00020A",
"BX c #2C4F82",
"VX c #779AC9",
"CX c #5D89C0",
"ZX c #5F89BE",
"AX c #4F7CB6",
"SX c #5982B8",
"DX c #426DA7",
"FX c #516A8A",
"GX c #EBE8E1",
"HX c #E2E2E2",
"JX c #2C2D2B",
"KX c #000209",
"LX c #264879",
"PX c #7195C3",
"IX c #608CC2",
"UX c #608AC0",
"YX c #4F77AB",
"TX c #3F679B",
"RX c #4673AC",
"EX c #5178AD",
"WX c #142C51",
"QX c #77756C",
"!X c #E8E7E8",
"~X c #DEDEDE",
"^X c #E1E1E1",
"/X c #000511",
"(X c #294C7E",
")X c #6E93C2",
"_X c #658FC4",
"`X c #7499C9",
"'X c #6385B2",
"]X c #365783",
"[X c #396197",
"{X c #5981B6",
"}X c #386098",
"|X c #000412",
" o c #050401",
".o c #7E807C",
"Xo c #E0E0DF",
"oo c #E3E3E4",
"Oo c #EBEBEB",
"+o c #A6A7A4",
"@o c #191A18",
"#o c #010F24",
"$o c #33598E",
"%o c #7196C6",
"&o c #7198C9",
"*o c #91AED5",
"=o c #7191B9",
"-o c #335480",
";o c #396196",
":o c #5881B5",
">o c #3F679E",
",o c #0B1F3C",
"<o c #0A0A09",
"1o c #858683",
"2o c #DFDFE0",
"3o c #DADADA",
"4o c #999B98",
"5o c #111110",
"6o c #000105",
"7o c #0A2347",
"8o c #456CA3",
"9o c #7CA0CD",
"0o c #87A8D1",
"qo c #AFC5E1",
"wo c #7998BF",
"eo c #2F527E",
"ro c #375F92",
"to c #5780B5",
"yo c #091C38",
"uo c #8B8D8A",
"io c #DCDBDC",
"po c #D7D7D7",
"ao c #D8D8D8",
"so c #8E908C",
"do c #0A0B0A",
"fo c #091A32",
"go c #1E457B",
"ho c #557CB0",
"jo c #8BACD6",
"ko c #A3BCDC",
"lo c #C7D6EA",
"zo c #7999C2",
"xo c #2E517F",
"co c #355B8E",
"vo c #557EB3",
"bo c #4269A0",
"no c #091D3A",
"mo c #92938F",
"Mo c #D6D6D6",
"No c #D5D5D5",
"Bo c #D9D9D9",
"Vo c #838480",
"Co c #030A16",
"Zo c #2E5892",
"Ao c #6D92C2",
"So c #9CB9DC",
"Do c #C6D5E9",
"Fo c #CFDCEC",
"Go c #2F5484",
"Ho c #34598A",
"Jo c #507AB0",
"Ko c #4870A6",
"Lo c #0C2345",
"Po c #141413",
"Io c #989A96",
"Uo c #D1D1D1",
"Yo c #C5C5C5",
"To c #B0B0B0",
"Ro c #BFBEBF",
"Eo c #C8C8C7",
"Wo c #494A47",
"Qo c #071932",
"!o c #B6CCE7",
"~o c #E0E8F3",
"^o c #B8CBE2",
"/o c #5B85BC",
"(o c #355C8F",
")o c #345786",
"_o c #4671A9",
"`o c #527AAF",
"'o c #15325D",
"]o c #191918",
"[o c #9F9F9D",
"{o c #B1B1B1",
"}o c #CFCFCF",
"|o c #B7B7B7",
" O c #CDCDCD",
".O c #7C7D79",
"XO c #041228",
"oO c #597FB2",
"OO c #8BACD5",
"+O c #7B9DC8",
"@O c #4977B4",
"#O c #406AA1",
"$O c #355886",
"%O c #3B68A2",
"&O c #5882B8",
"*O c #264B80",
"=O c #1D1D1B",
"-O c #A4A5A1",
";O c #B2B2B3",
":O c #C1C0C1",
">O c #C9C9C8",
",O c #000207",
"<O c #32588F",
"1O c #6C93C4",
"2O c #4B78B3",
"3O c #4975AF",
"4O c #395F8F",
"5O c #36629B",
"6O c #507DB8",
"7O c #3F68A2",
"8O c #031023",
"9O c #232422",
"0O c #9E9F9B",
"qO c #C4C4C2",
"wO c #BEBFBD",
"eO c #0E0F0E",
"rO c #041328",
"tO c #3D659C",
"yO c #698EBF",
"uO c #436FA7",
"iO c #356099",
"pO c #3F70AF",
"aO c #547FB9",
"sO c #193865",
"dO c #333432",
"fO c #2F2F2D",
"gO c #070706",
"hO c #071A36",
"jO c #3B639B",
"kO c #527DB6",
"lO c #5480BA",
"zO c #325B96",
"xO c #020915",
"cO c #061428",
"vO c #1B3963",
"bO c #2A4B7A",
"nO c #1C3861",
"mO c #040E1D",
"                                                                ",
"                . X o O +                                       ",
"              @ # $ % & * =                         - ; :       ",
"              > , $ < 1 2 3 4                     5 6 7 8 9     ",
"                  0 q w e r t y               u i p a a s d f   ",
"                    g h j k l z             x c v b n m M N B   ",
"      V             C Z 1 A A ,             S D F G H J K L     ",
"    @ P I           U & Y T w R             E W Q Q ! ~ ^ /     ",
"    ( ) _ `       ' ] ) [ { } |              ...X.o.O.+.@.      ",
"    #.) $.%.&.*.=.-.;.r :.1 >.,.          <.1.2.3.4.5.6.        ",
"    7.8.2 9.0.q.w.e.r.t.y.:.u.i.p.      a.s.d.f.g.h.j.          ",
"    k.l.z.2 x.c.v.b.} w w n.j m.M.N.  B.V.C.Z.A.                ",
"      S.D.F.G.{ { < H.J.:.K.n.L.P.I.U.Y.T.R.E.                  ",
"        W.Q.!.~.^./.(.)._.t.`.e '.].[.{.}.|.                    ",
"           X.XXXoXOX+X@X#X_.e $X%X&X*X=X-X                      ",
"                        ;X:X>X,X<XT.1X2X3X                      ",
"                      4X5X6X7X8X9X0X[.qXwXeX                    ",
"                    rXtXyXuXiXpXaXsXdXfX_.(.z                   ",
"                  gXhXjXkXlXzXxXcXvXbXL.nXmXZ MX                ",
"                NXBXVXCXZXAXSXDXFXGXr A w HX[ w.JX              ",
"              KXLXPXIXUXYXTXRXEXWXQXA !X~XHX^X{ Q..             ",
"            /X(X)X_X`X'X]X[X{X}X|X o.oXoooy.A ^XOo+o@o          ",
"          #o$o%o&o*o=o-o;o:o>o,o    <o1oA 2o3ot.:.u.4o5o        ",
"      6o7o8o9o0oqowoeoroto>oyo        y uo~Xiopoao~XA sodo      ",
"    fogohojokolozoxocovobono            5omoy.aoMopoNoBoVoV     ",
"  CoZoAoSoDoFo)XGoHoJoKoLo                PoIo3oUoYoToRoEoWo    ",
"  Qoho!o~o^o/o(o)o_o`o'o                    ]o[o3o{o}o|o O.O    ",
"  XOoOOO+O@O#O$O%O&O*O6o                      =O-On.;O:O>Og     ",
"  ,O<O1O2O3O4O5O6O7O8O                          9O0OqOwOVoeO    ",
"    rOtOyOuOiOpOaOsO                              y dOfOgO      ",
"      hOjOoOkOlOzOxO                                            ",
"        cOvObOnOmO                                              "};
