/* XPM */
static const char *preferences[] = {
/* columns rows colors chars-per-pixel */
"32 32 68 1 ",
"  c #505050",
". c gray32",
"X c #535353",
"o c #555555",
"O c #565656",
"+ c #585858",
"@ c #5A5A5A",
"# c #5B5B5B",
"$ c #5D5D5D",
"% c gray38",
"& c #626262",
"* c gray40",
"= c #686868",
"- c #6A6A6A",
"; c gray42",
": c #6F6F6F",
"> c #717171",
", c gray45",
"< c gray46",
"1 c #797979",
"2 c gray49",
"3 c #808080",
"4 c gray51",
"5 c #848484",
"6 c #868686",
"7 c #888888",
"8 c gray55",
"9 c #8E8E8E",
"0 c #909090",
"q c gray58",
"w c #979797",
"e c gray60",
"r c #9D9D9D",
"t c gray62",
"y c #A5A5A5",
"u c #AAAAAA",
"i c #B2B2B2",
"p c gray74",
"a c gray",
"s c gray75",
"d c #C1C1C1",
"f c #C6C6C6",
"g c #CACACA",
"h c #D0D0D0",
"j c #DFDFDF",
"k c gray89",
"l c #E4E4E4",
"z c #E6E6E6",
"x c gray91",
"c c #E9E9E9",
"v c gray92",
"b c gray93",
"n c #EEEEEE",
"m c #EFEFEF",
"M c gray94",
"N c #F1F1F1",
"B c gray95",
"V c gray96",
"C c #F6F6F6",
"Z c gray97",
"A c #F8F8F8",
"S c #F9F9F9",
"D c #FBFBFB",
"F c gray99",
"G c #FDFDFD",
"H c #FEFEFE",
"J c gray100",
"K c None",
/* pixels */
"KKKKKKKKKKKKKKKKKKKKKKKKKKKKKKKK",
"KKKKKKKKKKKKKKKKKKKKKKKKKKKKKKKK",
"KKKKKKKKKKKKKKKKKKKKKKKKKKKKKKKK",
"KKKKKKKKKKKKKJJJJJJKKKKKKKKKKKKK",
"KKKKKKKKKKKKJJJJJJJJKKKKKKKKKKKK",
"KKKKKKKKJJJKJJf++tJJKJJJKKKKKKKK",
"KKKKKKKJJJJJJJe  *JJJJJJJKKKKKKK",
"KKKKKKJJC9lJJJ,   JJJJanJJJKKKKK",
"KKKKKJJn- ofvy    eBB2 %nJJKKKKK",
"KKKKKJJa                <JJKKKKK",
"KKKKKJJJ1              okJJKKKKK",
"KKKKKKJJCo             fJJKKKKKK",
"KKKKJJJJno     33     onJJJJKKKK",
"KKKJJJJJ7    -nJJn-    tJJJJJKKK",
"KKKJJy,     +BJJJJno    *qaJJKKK",
"KKKJJo      qJJJJJJ0       JJKKK",
"KKKJJ       tJJJJJJq       JJKKK",
"KKKJJde*    $SJJJJC$     ,tJJKKK",
"KKKJJJJS9    3SJJC3    6SJJJJKKK",
"KKKKJJJJv     +tt+     nJJJJKKKK",
"KKKKKKJJh              BJJKKKKKK",
"KKKKKJJvo              <JJJKKKKK",
"KKKKKJJ3                iJJKKKKK",
"KKKKKJJn- <nk3    9jgo %lJJKKKKK",
"KKKKKJJJBaJJJSo  %JJJl9BJJJKKKKK",
"KKKKKKKJJJJJJJ,  7JJJJJJJKKKKKKK",
"KKKKKKKKJJJKJJu++dJJKJJJKKKKKKKK",
"KKKKKKKKKKKKJJJJJJJJKKKKKKKKKKKK",
"KKKKKKKKKKKKKJJJJJJKKKKKKKKKKKKK",
"KKKKKKKKKKKKKKKKKKKKKKKKKKKKKKKK",
"KKKKKKKKKKKKKKKKKKKKKKKKKKKKKKKK",
"KKKKKKKKKKKKKKKKKKKKKKKKKKKKKKKK"
};
