/* XPM */
static const char *usermovev__[] = {
/* columns rows colors chars-per-pixel */
"64 64 254 2",
"   c #72B7048E1D82",
".  c #7B580FF51D45",
"X  c #5C2009E82FDA",
"o  c #6FB4160E2AC4",
"O  c #77BA138725B1",
"+  c #7DE411BF21E7",
"@  c #776815DC2A00",
"#  c #743417FB2E08",
"$  c #66DE1A133095",
"%  c #69451F5E3B77",
"&  c #711A19DA31EC",
"*  c #01510CED6C97",
"=  c #00330C2673EA",
"-  c #001C0C087BB6",
";  c #003A103076B8",
":  c #06461802744D",
">  c #07E71B3871A3",
",  c #007814A67C3D",
"<  c #03611B8E7E76",
"1  c #1AA520AA689E",
"2  c #0CF726697417",
"3  c #019D2C7E7FB7",
"4  c #10082CDB790A",
"5  c #16B93B1C7FFF",
"6  c #180F3D8E7D64",
"7  c #3D9138D36D47",
"8  c #23313BB871DB",
"9  c #2B863AF6721B",
"0  c #341A3B2371FA",
"q  c #38883E0B778E",
"w  c #48BC336662B1",
"e  c #198340327C58",
"r  c #320541F27E8A",
"t  c #8C5C04440CAD",
"y  c #8D3107F40F4E",
"u  c #953D00AE04D2",
"i  c #99CD00010003",
"p  c #931E04A208ED",
"a  c #8BCF09081105",
"s  c #83170E051B1E",
"d  c #804310261F47",
"f  c #000D0D078365",
"g  c #00B30E298E54",
"h  c #00B218B4853F",
"j  c #087F1F86813A",
"k  c #00EE126689DD",
"l  c #00B4197988CE",
"z  c #08B81F2988C9",
"x  c #19CC130189D7",
"c  c #02EE124596B4",
"v  c #01F21995946D",
"b  c #082A1E559817",
"n  c #04F513E89A16",
"m  c #1D371F7995A7",
"M  c #0140212282EB",
"N  c #013B2D4582BE",
"B  c #0EFA2B5D835C",
"V  c #016B26608EEF",
"C  c #0868218E8D83",
"Z  c #01F72DA88BD8",
"A  c #191A21B68552",
"S  c #17B82AD38A34",
"D  c #01FB3562871B",
"F  c #020F32D9892A",
"G  c #02483B45890C",
"H  c #145836D784E3",
"J  c #18133E348431",
"K  c #17F733E68EAD",
"L  c #04A121349501",
"P  c #0D2128FF9060",
"I  c #052725989A5B",
"U  c #030E2B3C9DED",
"Y  c #08F6282B9AD0",
"T  c #01FC322A91C7",
"R  c #02E332BF9D0C",
"E  c #0E67303D9D92",
"W  c #02863B2398F6",
"Q  c #18203C839179",
"!  c #128834C99B01",
"~  c #24892A269C75",
"^  c #29212E679F98",
"/  c #05C026DEA196",
"(  c #0CC11FD7A272",
")  c #0DB52914A2AD",
"_  c #0FAB2680A549",
"`  c #10392D7FA29E",
"'  c #0E0932B3ABB5",
"]  c #04E43F32A8D5",
"[  c #12463406A03F",
"{  c #17E5332EACBA",
"}  c #1DB937FBB3F2",
"|  c #2D523261A20B",
" . c #330A37ADA500",
".. c #38BC399BA63E",
"X. c #27C5352FB337",
"o. c #26B93A6CB45A",
"O. c #297D3A40B609",
"+. c #425739ECA226",
"@. c #02AB425B8AB2",
"#. c #030D4A148E1A",
"$. c #135043C98177",
"%. c #199844D8854F",
"&. c #1E4D4B8D8B07",
"*. c #033341E49356",
"=. c #03394CBA9309",
"-. c #02E1428B9F22",
";. c #03AB4C9A9B6F",
":. c #193D4286956A",
">. c #1ED64E84970C",
",. c #17BB49CE9AD8",
"<. c #03D2519C9D77",
"1. c #1A6751539C91",
"2. c #280846548721",
"3. c #1FE04E36838A",
"4. c #2047470388BC",
"5. c #29A2479089CF",
"6. c #24C54B158FEA",
"7. c #2194519683F3",
"8. c #23F6573A89AB",
"9. c #252A5A188E6B",
"0. c #22A9559496DE",
"q. c #26945D719415",
"w. c #228655839B51",
"e. c #27565F609825",
"r. c #28D562DD9D70",
"t. c #02E540CBA345",
"y. c #04D24D61AC89",
"u. c #190D41F4A2D9",
"i. c #1AF647EFA66A",
"p. c #1DF24B0BACE6",
"a. c #040754F0A40C",
"s. c #042457B4A8C3",
"d. c #045D5945ABE5",
"f. c #0BE25ACFAE60",
"g. c #132C55B4A56C",
"h. c #10FE5752A848",
"j. c #1F24509DA9C1",
"k. c #05985E31B4EF",
"l. c #096E5CA6B1BC",
"z. c #03AF5FDDB897",
"x. c #1FAF4F4BA2CA",
"c. c #25305BDBA0F1",
"v. c #227953A1AA92",
"b. c #252A5C4CADB9",
"n. c #2250433CB4F3",
"m. c #24EF4CECB2EA",
"M. c #28A644FCB851",
"N. c #397246A8BC25",
"B. c #36D94CF3BE78",
"V. c #3D074A0DBD70",
"C. c #21845079B3D6",
"Z. c #2E5C5492BDA9",
"A. c #2B665E92BB9C",
"S. c #3290533DBEA7",
"D. c #3BC450AFBFB5",
"F. c #067B605BB7AF",
"G. c #075A61A4B9B0",
"H. c #091363ABBC9C",
"J. c #2A466664A284",
"K. c #2B5B68F9A71C",
"L. c #2A2B66DDA9D6",
"P. c #2C8F6B8AAB86",
"I. c #2A1E65ECB18A",
"U. c #2E706F66B0F1",
"Y. c #2F3870BAB340",
"T. c #305272AAB5DD",
"R. c #328075D2BAD5",
"E. c #34CB7930BE30",
"W. c #36BC53D6C2EB",
"Q. c #36F15DD8C7E9",
"!. c #0C576713C1E7",
"~. c #0E01699FC32B",
"^. c #11B76D6AC6D8",
"/. c #13E26F2BC84C",
"(. c #1E1C6FE9CEA8",
"). c #14C470B4CA29",
"_. c #1BF0762DCDEB",
"`. c #1F287895CFEB",
"'. c #1E237876D056",
"]. c #313E6D73C214",
"[. c #37D669F5C32E",
"{. c #3610698CCDAE",
"}. c #25817144CD7C",
"|. c #362E7B9FC154",
" X c #39397E45C3C6",
".X c #3B227C6DCA68",
"XX c #2EE76FDCD08F",
"oX c #25077D54D36B",
"OX c #463D51D3C11B",
"+X c #477E595BC50A",
"@X c #50E95F31C6FB",
"#X c #472D68E4CCBC",
"$X c #55A7607FC740",
"%X c #585F649BC905",
"&X c #558F6C46CD18",
"*X c #5E2668F0CADC",
"=X c #40AF7EDBCEC2",
"-X c #5EA374AFCF70",
";X c #454772D4D0F3",
":X c #44CD79CAD52C",
">X c #538C7FF4D754",
",X c #60776AACCB3B",
"<X c #626D79ECD317",
"1X c #6B117AB6D211",
"2X c #3C258123C6D5",
"3X c #3D968360C944",
"4X c #2625804ED6AD",
"5X c #2C6782FBD753",
"6X c #312D85BCD815",
"7X c #30EE8635D918",
"8X c #34A28A00DC75",
"9X c #3A8F8A87DC03",
"0X c #3EE590E3DF64",
"qX c #412485E7CBB1",
"wX c #44328966CEDF",
"eX c #49338BE6CF47",
"rX c #459A82E2D16E",
"tX c #4B008D4FD2AD",
"yX c #404383B7DA20",
"uX c #5A638092D449",
"iX c #54EF88B6D68C",
"pX c #509E8F11DED6",
"aX c #4239917BDEA3",
"sX c #521993C6D62F",
"dX c #596F9652DA80",
"fX c #5C229B9FDB04",
"gX c #6DB68255D5F5",
"hX c #62C78886D713",
"jX c #79698A29D7E2",
"kX c #7A598C3AD8A9",
"lX c #62479368DFC2",
"zX c #62479845DC91",
"xX c #78D69443DC3B",
"cX c #6676A1A3DD7E",
"vX c #6947A3B4DEBA",
"bX c #498195ABE220",
"nX c #4D5D9989E2F6",
"mX c #53789D8EE4AF",
"MX c #5A299D70E527",
"NX c #726C98BCE0C7",
"BX c #6C96A739E4D1",
"VX c #6EEEA995E31E",
"CX c #6621A90DE91B",
"ZX c #6C06ACF9EAD3",
"AX c #70F5A5CEE72D",
"SX c #7064A9C2E2C1",
"DX c #7C42AAF1E6D0",
"FX c #8187A267E1B6",
"GX c #8099B15AE743",
"HX c #88F7B9BCEA17",
"JX c #912AB3AEE83A",
"KX c #90D8B555E8E5",
"LX c #9713BBF4EB6D",
"PX c None",
/* pixels */
"PXPXPXPXPXPXPXPXPXPXPXPXPXPXPXPXPXPXPXPXPXPXPXPXPXPXPXPXPXPXPXPXPXPXPXPXPXPXPXPXPXPXPXPXPXPXPXPXPXPXPXPXPXPXPXPXPXPXPXPXPXPXPXPX",
"PXPXPXPXPXPXPXPXPXPXPXPXPXPXPXPXPXPXPXPXPXPXPXPXPXPXPXPXPXPXPXi i PXPXPXPXPXPXPXPXPXPXPXPXPXPXPXPXPXPXPXPXPXPXPXPXPXPXPXPXPXPXPX",
"PXPXPXPXPXPXPXPXPXPXPXPXPXPXPXPXPXPXPXPXPXPXPXPXPXPXPXPXPXPXi i i i PXPXPXPXPXPXPXPXPXPXPXPXPXPXPXPXPXPXPXPXPXPXPXPXPXPXPXPXPXPX",
"PXPXPXPXPXPXPXPXPXPXPXPXPXPXPXPXPXPXPXPXPXPXPXPXPXPXPXPXPXi i i i i i PXPXPXPXPXPXPXPXPXPXPXPXPXPXPXPXPXPXPXPXPXPXPXPXPXPXPXPXPX",
"PXPXPXPXPXPXPXPXPXPXPXPXPXPXPXPXPXPXPXPXPXPXPXPXPXPXPXPXi i i i i i i i PXPXPXPXPXPXPXPXPXPXPXPXPXPXPXPXPXPXPXPXPXPXPXPXPXPXPXPX",
"PXPXPXPXPXPXPXPXPXPXPXPXPXPXPXPXPXPXPXPXPXPXPXPXPXPXPXi i i i i i i i i i PXPXPXPXPXPXPXPXPXPXPXPXPXPXPXPXPXPXPXPXPXPXPXPXPXPXPX",
"PXPXPXPXPXPXPXPXPXPXPXPXPXPXPXPXPXPXPXPXPXPXPXPXPXPXi i i i i i i i i i i i PXPXPXPXPXPXPXPXPXPXPXPXPXPXPXPXPXPXPXPXPXPXPXPXPXPX",
"PXPXPXPXPXPXPXPXPXPXPXPXPXPXPXPXPXPXPXPXPXPXPXPXPXi i i i i i i i i i i i i i PXPXPXPXPXPXPXPXPXPXPXPXPXPXPXPXPXPXPXPXPXPXPXPXPX",
"PXPXPXPXPXPXPXPXPXPXPXPXPXPXPXPXPXPXPXPXPXPXPXPXi i i i i i i i i i i i i i i i i PXPXPXPXPXPXPXPXPXPXPXPXPXPXPXPXPXPXPXPXPXPXPX",
"PXPXPXPXPXPXPXPXPXPXPXPXPXPXPXPXPXPXPXPXPXPXPXi i i i i i i i i i i i i i i i i i PXPXPXPXPXPXPXPXPXPXPXPXPXPXPXPXPXPXPXPXPXPXPX",
"PXPXPXPXPXPXPXPXPXPXPXPXPXPXPXPXPXPXPXPXPXPXPXPXPXPXPXi i i i i i i i i i PXPXPXPXPXPXPXPXPXPXPXPXPXPXPXPXPXPXPXPXPXPXPXPXPXPXPX",
"PXPXPXPXPXPXPXPXPXPXPXPXPXPXPXPXPXPXPXPXPXPXPXPXPXPXPXi i i i i i i i i i PXPXPXPXPXPXPXPXPXPXPXPXPXPXPXPXPXPXPXPXPXPXPXPXPXPXPX",
"PXPXPXPXPXPXPXPXPXPXPXPXPXPXPXPXPXPXPXPXPXPXPXPXPXPXPXi i i i i i i i i i PXPXPXPXPXPXPXPXPXPXPXPXPXPXPXPXPXPXPXPXPXPXPXPXPXPXPX",
"PXPXPXPXPXPXPXPXPXPXPXPXPXPXPXPXPXPXPXPXPXPXPXPXPXPXPXi i i i i i i i i i PXPXPXPXPXPXPXPXPXPXPXPXPXPXPXPXPXPXPXPXPXPXPXPXPXPXPX",
"PXPXPXPXPXPXPXPXPXPXPXPXPXPXPXPXPXPXPXPXPXPXPXPXPXPXPXi i i i i i i i i i PXPXPXPXPXPXPXPXPXPXPXPXPXPXPXPXPXPXPXPXPXPXPXPXPXPXPX",
"PXPXPXPXPXPXPXPXPXPXPXPXPXPXPXPXPXPXPXPXPXPXPXPXPXPXPXi i i i i i i i i i PXPXPXPXPXPXPXPXPXPXPXPXPXPXPXPXPXPXPXPXPXPXPXPXPXPXPX",
"PXPXPXPXPXPXPXPXPXPXPXPXPXPXPXPXPXPXPXPXPXPXPXPXPXPXPXi i i i i i i i i i PXPXPXPXPXPXPXPXPXPXPXPXPXPXPXPXPXPXPXPXPXPXPXPXPXPXPX",
"PXPXPXPXPXPXPXPXPXPXPXPXPXPXPXPXPXPXPXPXPXPXPXPXPXPXPXi i i i i i i i i i PXPXPXPXPXPXPXPXPXPXPXPXPXPXPXPXPXPXPXPXPXPXPXPXPXPXPX",
"PXPXPXPXPXPXPXPXPXPXPXPXPXPXPXPXPXPXPXPXPXPXPXPXPXPXPXi i u u u u u u i i PXPXPXPXPXPXPXPXPXPXPXPXPXPXPXPXPXPXPXPXPXPXPXPXPXPXPX",
"PXPXPXPXPXPXPXPXPXPXPXPXPXPXPXPXPXPXPXPXPXPXPXPXPXPXPXPX+... .| ^ ~ m x PXPXPXPXPXPXPXPXPXPXPXPXPXPXPXPXPXPXPXPXPXPXPXPXPXPXPXPX",
"PXPXPXPXPXPXPXPXPXPXPXPXPXPXPXPXPXPXPXPXPXPXPXPXPXPX$X&XuXiXtXrX=X.X].C.) c PXPXPXPXPXPXPXPXPXPXPXPXPXPXPXPXPXPXPXPXPXPXPXPXPXPX",
"PXPXPXPXPXPXPXPXPXPXPXPXPXPXPXPXPXPXPXPXPXPXPXPXPX1XxXDXVXfXsXtXwXqX3X XR.p.b g PXPXPXPXPXPXPXPXPXPXPXPXPXPXPXPXPXPXPXPXPXPXPXPX",
"PXPXPXPXPXPXPXPXPXPXPXPXPXPXPXPXPXPXPXPXPXPXPX,XjXKXHXSXdXtXqX3X2X X X|.E.R.I.! g PXPXPXPXPXPXPXPXPXPXPXPXPXPXPXPXPXPXPXPXPXPXPX",
"PXPXPXPXPXPXPXPXPXPXPXPXPXPXPXPXPXPXPXPXPXPXPXkXLXHXvXsXqX XE.E.E.E.E.R.R.R.T.P.! k PXPXPXPXPXPXPXPXPXPXPXPXPXPXPXPXPXPXPXPXPXPX",
"PXPXPXPXPXPXPXPXPXPXPXPXPXPXPXPXPXPXPXPXPXPX1XJXHXcXeX XE.R.R.T.T.T.T.T.T.T.Y.U.L.P f PXPXPXPXPXPXPXPXPXPXPXPXPXPXPXPXPXPXPXPXPX",
"PXPXPXPXPXPXPXPXPXPXPXPXPXPXPXPXPXPXPXPXPX%XFXHXvXeX XR.R.T.T.T.T.T.T.T.T.T.Y.U.P.c.z PXPXPXPXPXPXPXPXPXPXPXPXPXPXPXPXPXPXPXPXPX",
"PXPXPXPXPXPXPXPXPXPXPXPXPXPXPXPXPXPXPXPXPX-XGXVXtX XR.T.T.T.T.T.T.T.T.T.T.T.T.U.P.J.Q - PXPXPXPXPXPXPXPXPXPXPXPXPXPXPXPXPXPXPXPX",
"PXPXPXPXPXPXPXPXPXPXPXPXPXPXPXPXPXPXPXPXV.hXSXdX3XE.T.T.T.T.T.T.T.T.T.T.T.T.T.U.P.J.0.< PXPXPXPXPXPXPXPXPXPXPXPXPXPXPXPXPXPXPXPX",
"PXPXPXPXPXPXPXPXPXPXPXPXPXPXPXPXPXPXPXPXD.zXfXeX|.R.T.T.T.T.T.T.T.T.T.T.T.T.T.U.P.J.e.B PXPXPXPXPXPXPXPXPXPXPXPXPXPXPXPXPXPXPXPX",
"PXPXPXPXPXPXPXPXPXPXPXPXPXPXPXPXPXPXPXPXB.dXsXqXE.T.T.T.T.T.T.T.T.T.T.T.T.T.T.Y.P.r.e.H PXPXPXPXPXPXPXPXPXPXPXPXPXPXPXPXPXPXPXPX",
"PXPXPXPXPXPXPXPXPXPXPXPXPXPXPXPXPXPXPXPXS.sXtX2XR.T.T.T.T.T.T.T.T.T.T.T.T.T.T.Y.P.r.q.J = PXPXPXPXPXPXPXPXPXPXPXPXPXPXPXPXPXPXPX",
"PXPXPXPXPXPXPXPXPXPXPXPXPXPXPXPXPXPXPXPXZ.tXwX XR.T.T.T.T.T.T.T.T.T.T.T.T.T.T.U.P.r.q.J = PXPXPXPXPXPXPXPXPXPXPXPXPXPXPXPXPXPXPX",
"PXPXPXPXPXPXPXPXPXPXPXPXPXPXPXPXPXPXPXPXn.qX3X|.R.T.T.T.T.T.T.T.T.T.T.T.T.T.T.U.K.r.9.5 = PXPXPXPXPXPXPXPXPXPXPXPXPXPXPXPXPXPXPX",
"PXPXPXPXPXPXPXPXPXPXPXPXPXPXPXPXPXPXPXPX{ .X2X|.R.T.T.T.T.T.T.T.T.T.T.T.T.T.Y.P.J.q.8.4 PXPXPXPXPXPXPXPXPXPXPXPXPXPXPXPXPXPXPXPX",
"PXPXPXPXPXPXPXPXPXPXPXPXPXPXPXPXPXPXPXPX_ ]. XE.R.T.T.T.T.T.T.T.T.T.T.T.T.T.Y.P.r.9.3.> PXPXPXPXPXPXPXPXPXPXPXPXPXPXPXPXPXPXPXPX",
"PXPXPXPXPXPXPXPXPXPXPXPXPXPXPXPXPXPXPXPXn C.|.E.R.T.T.T.T.T.T.T.T.T.T.T.T.Y.P.K.e.8.e * PXPXPXPXPXPXPXPXPXPXPXPXPXPXPXPXPXPXPXPX",
"PXPXPXPXPXPXPXPXPXPXPXPXPXPXPXPXPXPXPXPXPX` R.E.R.R.T.T.T.T.T.T.T.T.T.T.T.Y.P.r.q.7.2 * PXPXPXPXPXPXPXPXPXPXPXPXPXPXPXPXPXPXPXPX",
"PXPXPXPXPXPXPXPXPXPXPXPXPXPXPXPXPXPXPXPXPXn p.|.E.E.R.T.T.T.T.T.T.T.T.T.T.U.K.r.9.6 * PXPXPXPXPXPXPXPXPXPXPXPXPXPXPXPXPXPXPXPXPX",
"PXPXPXPXPXPXPXPXPXPXPXPXPXPXPXPXPXPXPXPXPXPX( A.2X|.R.T.T.T.T.T.T.T.T.T.T.U.K.r.&.: PXPXPXPXPXPXPXPXPXPXPXPXPXPXPXPXPXPXPXPXPXPX",
"PXPXPXPXPXPXPXPXPXPXPXPXPXPXPXPXPXPXPXPXPXPXX.o.[.2XE.T.T.T.T.T.T.T.T.T.T.U.P.w.j - PXPXPXPXPXPXPXPXPXPXPXPXPXPXPXPXPXPXPXPXPXPX",
"PXPXPXPXPXPXPXPXPXPXPXPXPXPXPXPXPXPXPXPXPX$X&X;XM.m.R.R.T.T.T.T.T.T.T.T.T.Y.x.C T W l PXPXPXPXPXPXPXPXPXPXPXPXPXPXPXPXPXPXPXPXPX",
"PXPXPXPXPXPXPXPXPXPXPXPXPXPXPXPXPXPXPXPXPXgXAXmX}.' [ v.I.T.T.T.T.T.T.Y.b.u.L t.d.d.-.k PXPXPXPXPXPXPXPXPXPXPXPXPXPXPXPXPXPXPXPX",
"PXPXPXPXPXPXPXPXPXPXPXPXPXPXPXPXPXPXPXPX1XDXCX9X).H.] U Y [ i.b.b.j.u.E I R y.k.k.d.d.W f PXPXPXPXPXPXPXPXPXPXPXPXPXPXPXPXPXPXPX",
"PXPXPXPXPXPXPXPXPXPXPXPXPXPXPXPXPXPXPX*XNXZXaX`.~.G.F.g.:.K S A A A S Q ,.l.k.k.k.l.d.a.V f PXPXPXPXPXPXPXPXPXPXPXPXPXPXPXPXPXPX",
"PXPXPXPXPXPXPXPXPXPXPXPXPXPXPXPXPXPXPX<XBXnXoX~.H.F.f.% a a a a a a a a + 1.z.k.k.k.d.s.;.h PXPXPXPXPXPXPXPXPXPXPXPXPXPXPXPXPXPX",
"PXPXPXPXPXPXPXPXPXPXPXPXPXPXPXPXPXPX@XlXMX6X/.H.F.k.f.# i i i i i i i i a >.z.k.k.k.d.s.a.T f PXPXPXPXPXPXPXPXPXPXPXPXPXPXPXPXPX",
"PXPXPXPXPXPXPXPXPXPXPXPXPXPXPXPXPXPX&XMXaX_.!.G.k.k.f.# i i i i i i i i a >.z.k.k.k.k.d.a.;.h PXPXPXPXPXPXPXPXPXPXPXPXPXPXPXPXPX",
"PXPXPXPXPXPXPXPXPXPXPXPXPXPXPXPXPXOX>XnX5X^.H.F.k.k.f.# i i i i i i i i a >.z.k.k.k.k.d.s.<.Z - PXPXPXPXPXPXPXPXPXPXPXPXPXPXPXPX",
"PXPXPXPXPXPXPXPXPXPXPXPXPXPXPXPXPX+XpX0X`.!.G.k.k.k.f.# i i i i i i i i a >.z.k.k.k.k.d.s.a.*., PXPXPXPXPXPXPXPXPXPXPXPXPXPXPXPX",
"PXPXPXPXPXPXPXPXPXPXPXPXPXPXPXPXPX#XbX7X).H.F.k.k.k.f.# i i i i i i i i a >.z.k.k.k.k.k.d.a.;.M PXPXPXPXPXPXPXPXPXPXPXPXPXPXPXPX",
"PXPXPXPXPXPXPXPXPXPXPXPXPXPXPXPXN.:X0XoX~.G.k.k.k.k.f.# i i i i i i i i a >.z.k.k.k.k.k.d.a.<.F - PXPXPXPXPXPXPXPXPXPXPXPXPXPXPX",
"PXPXPXPXPXPXPXPXPXPXPXPXPXPXPXPXB.yX8X_.!.G.k.k.k.z.f.# i i i i i i i i a >.z.k.k.k.k.k.d.s.<.*., PXPXPXPXPXPXPXPXPXPXPXPXPXPXPX",
"PXPXPXPXPXPXPXPXPXPXPXPXPXPXPXPXW.9X5X).H.F.f.g.g.g.1.@ i i i i i i i i y 5.h.g.g.h.k.k.l.s.<.=.M PXPXPXPXPXPXPXPXPXPXPXPXPXPXPX",
"PXPXPXPXPXPXPXPXPXPXPXPXPXPXPXPXQ.8XoX^.H.F.6.& s d s p i i i i i i i i u s d s O q k.k.k.d.a.;.N PXPXPXPXPXPXPXPXPXPXPXPXPXPXPX",
"PXPXPXPXPXPXPXPXPXPXPXPXPXPXPXPX{.8X'.~.G.k.k.r s i i i i i i i i i i i i i i p w f.k.k.k.d.a.=.D = PXPXPXPXPXPXPXPXPXPXPXPXPXPX",
"PXPXPXPXPXPXPXPXPXPXPXPXPXPXPXO.XX4X).H.k.k.k.k.2.+ i i i i i i i i i i i i y 7 d.k.k.k.d.s.<.=.D = PXPXPXPXPXPXPXPXPXPXPXPXPXPX",
"PXPXPXPXPXPXPXPXPXPXPXPXPXPXPX} (.).H.k.d.s.s.s.d.4.O i i i i i i i i i i a 0 s.s.s.s.s.s.a.<.=.G ; PXPXPXPXPXPXPXPXPXPXPXPXPXPX",
"PXPXPXPXPXPXPXPXPXPXPXPXPXPXPX' !.G.d.a.<.<.<.<.<.<.%.o i i i i i i i i s 9 <.<.<.<.<.<.<.;.=.#.@., PXPXPXPXPXPXPXPXPXPXPXPXPXPX",
"PXPXPXPXPXPXPXPXPXPXPXPXPXPXPX/ k.d.<.=.=.=.=.=.=.=.=.$.$ i i i i i i . 8 =.=.=.=.=.=.=.=.#.#.#.#.< PXPXPXPXPXPXPXPXPXPXPXPXPXPX",
"PXPXPXPXPXPXPXPXPXPXPXPXPXPXPXv R T Z N N 3 3 3 3 3 3 N 2 X u i i i   1 N 3 3 3 3 3 3 3 3 3 3 3 N , PXPXPXPXPXPXPXPXPXPXPXPXPXPX",
"PXPXPXPXPXPXPXPXPXPXPXPXPXPXPXPXPXPXPXPXPXPXPXPXPXPXPXPXPXPXt i i u PXPXPXPXPXPXPXPXPXPXPXPXPXPXPXPXPXPXPXPXPXPXPXPXPXPXPXPXPXPX",
"PXPXPXPXPXPXPXPXPXPXPXPXPXPXPXPXPXPXPXPXPXPXPXPXPXPXPXPXPXPXPXPXi PXPXPXPXPXPXPXPXPXPXPXPXPXPXPXPXPXPXPXPXPXPXPXPXPXPXPXPXPXPXPX",
"PXPXPXPXPXPXPXPXPXPXPXPXPXPXPXPXPXPXPXPXPXPXPXPXPXPXPXPXPXPXPXPXPXPXPXPXPXPXPXPXPXPXPXPXPXPXPXPXPXPXPXPXPXPXPXPXPXPXPXPXPXPXPXPX",
"PXPXPXPXPXPXPXPXPXPXPXPXPXPXPXPXPXPXPXPXPXPXPXPXPXPXPXPXPXPXPXPXPXPXPXPXPXPXPXPXPXPXPXPXPXPXPXPXPXPXPXPXPXPXPXPXPXPXPXPXPXPXPXPX"
};
