/* XPM */
static const char *usermoveh64[] = {
/* columns rows colors chars-per-pixel */
"64 64 243 2 ",
"   c #EB2B13",
".  c #EB2C14",
"X  c #EB2D14",
"o  c #EB2F15",
"O  c #EB3016",
"+  c #EB3017",
"@  c #EB3118",
"#  c #EC3218",
"$  c #EC3219",
"%  c #EC3319",
"&  c #EC351A",
"*  c #ED361C",
"=  c #ED391E",
"-  c #EE3B20",
";  c #EE3D21",
":  c #EE4124",
">  c #EE4225",
",  c #EF4729",
"<  c #EF472A",
"1  c #EF482B",
"2  c #EF4A2C",
"3  c #F04E30",
"4  c #F04E31",
"5  c #F05233",
"6  c #F15639",
"7  c #F25B3D",
"8  c #F25D3E",
"9  c #F26242",
"0  c #F26647",
"q  c #F36848",
"w  c #F36D4D",
"e  c #F46F4E",
"r  c #F47152",
"t  c #F58868",
"y  c #F68E6D",
"u  c #F69071",
"i  c #F7997B",
"p  c #F7997D",
"a  c #125FC9",
"s  c #135FCA",
"d  c #1361CC",
"f  c #1461CC",
"g  c #1462CC",
"h  c #1562CC",
"j  c #1464CC",
"k  c #1564CC",
"l  c #1564CD",
"z  c #1664CC",
"x  c #1664CD",
"c  c #1666CD",
"v  c #1766CD",
"b  c #1766CE",
"n  c #1866CD",
"m  c #1866CE",
"M  c #1768CD",
"N  c #1768CE",
"B  c #1968CD",
"V  c #1868CE",
"C  c #1968CE",
"Z  c #196ACE",
"A  c #196BCE",
"S  c #196ACF",
"D  c #1A6BCF",
"F  c #1B6BCF",
"G  c #1B6DCF",
"H  c #1C6DCF",
"J  c #1C6FCF",
"K  c #1C6DD0",
"L  c #1D6DD0",
"P  c #1C6FD0",
"I  c #1D6FD0",
"U  c #1E6FD0",
"Y  c #1D71D0",
"T  c #1E71D0",
"R  c #1E71D2",
"E  c #1F71D2",
"W  c #2275D3",
"Q  c #2277D3",
"!  c #2377D3",
"~  c #2379D4",
"^  c #2479D4",
"/  c #2579D4",
"(  c #267BD4",
")  c #267DD5",
"_  c #287DD5",
"`  c #297FD6",
"'  c #2A7FD6",
"]  c #2B80D6",
"[  c #3086D7",
"{  c #3186D7",
"}  c #3084D9",
"|  c #3186D9",
" . c #3186DA",
".. c #3188D9",
"X. c #328ADA",
"o. c #358CDA",
"O. c #368CDA",
"+. c #368EDB",
"@. c #378EDB",
"#. c #3A90DB",
"$. c #3A92DC",
"%. c #3D94DD",
"&. c #459BDF",
"*. c #479DDF",
"=. c #489EE0",
"-. c #4B9EE0",
";. c #4DA2E1",
":. c #4EA2E1",
">. c #4EA2E2",
",. c #50A4E2",
"<. c #52A5E2",
"1. c #52A5E3",
"2. c #56A9E3",
"3. c #58AAE4",
"4. c #5BACE5",
"5. c #61AFE6",
"6. c #61B1E6",
"7. c #66B2E6",
"8. c #68B4E6",
"9. c #6AB5E7",
"0. c #6DB7E8",
"q. c #75BBE9",
"w. c #79BDEA",
"e. c #F79E82",
"r. c #F7A084",
"t. c #F8A488",
"y. c #F8A58A",
"u. c #F8AA90",
"i. c #F9B29B",
"p. c #F9B29D",
"a. c #F9B5A0",
"s. c #FABEAC",
"d. c #FAC8B8",
"f. c #FBCCBD",
"g. c #FBCEBF",
"h. c #82C2EB",
"j. c #84C2EB",
"k. c #84C2EC",
"l. c #86C4EC",
"z. c #8AC5EC",
"x. c #8AC6EC",
"c. c #8AC6ED",
"v. c #8EC8EE",
"b. c #8EC9EE",
"n. c #90C9EE",
"m. c #95CCEE",
"M. c #9BCEEF",
"N. c #9BCEF0",
"B. c #9ED0F0",
"V. c #A0D0F0",
"C. c #A2D0F0",
"Z. c #A4D3F0",
"A. c #A9D3F1",
"S. c #A9D4F1",
"D. c #AAD5F2",
"F. c #ACD5F2",
"G. c #ACD6F2",
"H. c #ADD6F2",
"J. c #ADD7F2",
"K. c #B1D9F3",
"L. c #B5DBF3",
"P. c #B5DAF4",
"I. c #BADDF4",
"U. c #BBDEF4",
"Y. c #BEDFF4",
"T. c #FBCFC1",
"R. c #FCD6CA",
"E. c #FCD7CC",
"W. c #FCD9CE",
"Q. c #FCDACF",
"!. c #FCDBCF",
"~. c #FCDCD2",
"^. c #FCDED4",
"/. c #FDE3DB",
"(. c #FDE4DC",
"). c #C1E0F5",
"_. c #C4E2F6",
"`. c #C8E4F6",
"'. c #C9E4F6",
"]. c #CAE5F6",
"[. c #CAE6F7",
"{. c #CCE6F7",
"}. c #CDE6F7",
"|. c #CEE7F7",
" X c #CFE7F7",
".X c #D4EBF8",
"XX c #D6EBF8",
"oX c #DCEEF9",
"OX c #DCEEFA",
"+X c #DEEFFA",
"@X c #FDE7E0",
"#X c #FDE7E1",
"$X c #FDE9E3",
"%X c #FDEAE4",
"&X c #FDEBE5",
"*X c #FDEBE6",
"=X c #FEEEE9",
"-X c #FEF2EF",
";X c #E0F0FA",
":X c #E1F0FA",
">X c #E2F0FA",
",X c #E4F2FA",
"<X c #E4F2FB",
"1X c #E6F2FB",
"2X c #E8F4FC",
"3X c #EAF5FC",
"4X c #EBF5FC",
"5X c #ECF6FC",
"6X c #EDF6FC",
"7X c #FEF4F0",
"8X c #FEF4F1",
"9X c #FEF5F2",
"0X c #FEF7F5",
"qX c #F0F8FD",
"wX c #F1F8FD",
"eX c #F2F9FD",
"rX c #F4FAFD",
"tX c #F5FAFD",
"yX c #F6FAFD",
"uX c #F6FAFE",
"iX c #F6FBFE",
"pX c #F7FBFE",
"aX c #F7FCFE",
"sX c #FFFAF9",
"dX c #FFFBFA",
"fX c #FFFCFB",
"gX c #F8FCFE",
"hX c #F9FCFE",
"jX c #FAFCFE",
"kX c #FAFDFE",
"lX c #FBFDFE",
"zX c #FFFCFC",
"xX c #FFFDFC",
"cX c #FFFEFD",
"vX c #FCFDFE",
"bX c #FCFDFF",
"nX c #FDFEFF",
"mX c #FFFEFE",
"MX c #FFFFFE",
"NX c #FEFEFF",
"BX c #FEFFFF",
"VX c gray100",
"CX c None",
/* pixels */
"CXCXCXCXCXCXCXCXCXCXCXCXCXCXCXCXCXCXCXCXCXCXCXCXCXCXCXCXCXCXCXCXCXCXCXCXCXCXCXCXCXCXCXCXCXCXCXCXCXCXCXCXCXCXCXCXCXCXCXCXCXCXCXCX",
"CXCXCXCXCXCXCXCXCXCXCXCXCXCXCXCXCXCXCXCXCXCXCXCXCXCXCXCXCXCXCXCXCXCXCXCXCXCXCXCXCXCXCXCXCXCXCXCXCXCXCXCXCXCXCXCXCXCXCXCXCXCXCXCX",
"CXCXCXCXCXCXCXCXCXCXCXCXCXCXCXCXCXCXCXCXCXCXCXCXCXCXCXCXCXCXCXCXCXCXCXCXCXCXCXCXCXCXCXCXCXCXCXCXCXCXCXCXCXCXCXCXCXCXCXCXCXCXCXCX",
"CXCXCXCXCXCXCXCXCXCXCXCXCXCXCXCXCXCXCXCXCXCXCXCXCXCXCXCXCXCXCXCXCXCXCXCXCXCXCXCXCXCXCXCXCXCXCXCXCXCXCXCXCXCXCXCXCXCXCXCXCXCXCXCX",
"CXCXCXCXCXCXCXCXCXCXCXCXCXCXCXCXCXCXCXCXCXCXCXCXCXCXCXCXCXCXCXCXCXCXCXCXCXCXCXCXCXCXCXCXCXCXCXCXCXCXCXCXCXCXCXCXCXCXCXCXCXCXCXCX",
"CXCXCXCXCXCXCXCXCXCXCXCXCXCXCXCXCXCXCXCXCXCXCXCXCXCXCXCXCXCXCXCXCXCXCXCXCXCXCXCXCXCXCXCXCXCXCXCXCXCXCXCXCXCXCXCXCXCXCXCXCXCXCXCX",
"CXCXCXCXCXCXCXCXCXCXCXCXCXCXCXCXCXCXCXCXCXCXCXCXCXCXCXCXCXCXCXCXCXCXCXCXCXCXCXCXCXCXCXCXCXCXCXCXCXCXCXCXCXCXCXCXCXCXCXCXCXCXCXCX",
"CXCXCXCXCXCXCXCXCXCXCXCXCXCXCXCXCXCXCXCXCXCXCXCXCXCXCXCXCXCXCXCXCXCXCXCXCXCXCXCXCXCXCXCXCXCXCXCXCXCXCXCXCXCXCXCXCXCXCXCXCXCXCXCX",
"CXCXCXCXCXCXCXCXCXCXCXCXCXCXCXCXCXCXCXCXCXCXCXCXCXCXCXCXCXCXCXCXCXCXCXCXCXCXCXCXCXCXCXCXCXCXCXCXCXCXCXCXCXCXCXCXCXCXCXCXCXCXCXCX",
"CXCXCXCXCXCXCXCXCXCXCXCXCXCXCXCXCXCXCXCXCXCXCXCXCXCXCXCXCXCXCXCXCXCXCXCXCXCXCXCXCXCXCXCXCXCXCXCXCXCXCXCXCXCXCXCXCXCXCXCXCXCXCXCX",
"CXCXCXCXCXCXCXCXCXCXCXCXCXCXCXCXCXCXCXCXCXCXCXCXCXCXCXCXCXCXCXCXCXCXCXCXCXCXCXCXCXCXCXCXCXCXCXCXCXCXCXCXCXCXCXCXCXCXCXCXCXCXCXCX",
"CXCXCXCXCXCXCXCXCXCXCXCXCXCXCXCXCXCXCXCXCXCXCXCXCXCXCXCXCXCXCXCXCXCXCXCXCXCXCXCXCXCXCXCXCXCXCXCXCXCXCXCXCXCXCXCXCXCXCXCXCXCXCXCX",
"CXCXCXCXCXCXCXCXCXCXCXCXVXVXVXVXVXVXVXVXVXCXCXCXCXCXCXCXCXCXCXCXCXCXCXCXCXCXCXCXCXCXVXVXVXVXVXVXVXVXVXCXCXCXCXCXCXCXCXCXCXCXCXCX",
"CXCXCXCXCXCXCXCXCXCXCXVXVXVXVXVXVXVXVXVXVXVXCXCXCXCXCXCXCXCXCXCXCXCXCXCXCXCXCXCXCXVXVXVXVXVXVXVXVXVXVXVXCXCXCXCXCXCXCXCXCXCXCXCX",
"CXCXCXCXCXCXCXCXCXCXVXVXd.X O O O O . < dXVXCXCXCXCXCXCXCXCXCXCXCXCXCXCXCXCXCXCXCXVXdX< . O O O O X d.VXVXCXCXCXCXCXCXCXCXCXCXCX",
"CXCXCXCXCXCXCXCXCXVXVX-X&             ^.VXVXCXCXCXCXCXCXCXCXCXCXCXCXCXCXCXCXCXCXCXVXVX^.            & -XVXVXCXCXCXCXCXCXCXCXCXCX",
"CXCXCXCXCXCXCXCXVXVXVX7             e.VXVXCXCXCXCXCXCXVXVXVXVXVXVXVXVXVXCXCXCXCXCXCXVXVXe.            7 VXVXVXCXCXCXCXCXCXCXCXCX",
"CXCXCXCXCXCXCXCXVXVXu.            5 VXVXVXCXCXCXCXVXVXVXqX_.A.A.H.].uXVXVXCXCXCXCXCXVXVXfX5   .         u.VXVXCXCXCXCXCXCXCXCXCX",
"CXCXCXCXCXCXCXVXVX(.X           X *XVXVXCXCXCXCXVXVXuXz.] D x x z J } B.gXVXVXCXCXCXCXVXVX%XX .         . (.VXVXCXCXCXCXCXCXCXCX",
"CXCXCXCXCXCXVXVXdX<             p.VXVXCXCXCXCXVXVX3X@.x D G G U J G D S =.uXVXCXCXCXCXCXVXVXa.            < dXVXVXCXCXCXCXCXCXCX",
"CXCXCXCXCXCXVXVXt             9 VXVXVXCXCXCXCXVXqX..b U U P U P U U P U x &.jXVXCXCXCXCXVXVXVX9             t VXVXCXCXCXCXCXCXCX",
"CXCXCXCXCXVXVXT.            # -XVXVXCXCXCXCXVXVX1.d T J P U P U U U U P J x h.VXVXCXCXCXCXVXVX-X#             T.VXVXCXCXCXCXCXCX",
"CXCXCXCXVXVX9X=             f.VXVXVXVXVXVXVXVX|.b U U P U P U P P U P U U U J 3XVXVXVXVXVXVXVXVXf.            = 9XVXVXCXCXCXCXCX",
"CXCXCXVXVXVXq             w VXVXVXVXVXVXVXVXVX5.S U P U P U P U U P U P J J n v.VXVXVXVXfXVXVXVXVXw             0 VXVXVXCXCXCXCX",
"CXCXCXVXVXp.              - < : ; : : : : (.gX..D U U U U P U P P U P U P U D ;.VXW.: : : : : : 1 =               p.VXVXCXCXCXCX",
"CXCXVXVX%X@                             * %X6X^ D U U P P U P U U P U P U P D X.jX^.                              # %XVXVXCXCXCX",
"CXVXVXdX3                               ; =X1X~ D U P U U P U P P U P U U U D { gX^.                                3 dXVXVXCXCX",
"CXVXVXr.                                # (.qX) D P U P P U P U U P U P U U D #.gXW.                                  r.VXVXCXCX",
"CXVXVX#X#                                 W.VX$.D U U P U P U P P U P U P U D 4.VXf..                               # #XVXVXCXCX",
"CXCXVXVXs.                                t.VXl.S U P U P U P U U P U P U P S L.VXi                                 s.VXVXCXCXCX",
"CXCXCXVXVXr                   X           2 dX3XG P U P U P U P P U U U G S _ aX9X#                               r VXVXCXCXCXCX",
"CXCXCXVXVX0X;             e %X(././././././.0XVXm.d G U P U P U U P U J D b Y.VX9X/././././.(.(.*Xe             ; 0XVXVXCXCXCXCX",
"CXCXCXCXVXVXE.            - 9XVXVXVXVXVXVXVXVXVXgX9.d D U U P U P U U n x v.VXVXVXVXVXVXVXVXVXVX9X-             E.VXVXCXCXCXCXCX",
"CXCXCXCXCXVXVXy             6 VXVXVXVXVXVXVXVXVXVXVXv.G S G P P P G n ^ F.VXVXVXVXVXVXVXVXVXVXVX6             u VXVXCXCXCXCXCXCX",
"CXCXCXCXCXVXVXVX3             t.VXVXCXCXCXCXCXCXVXVXVX<X9._ U U P ..h.6XVXVXCXCXCXCXCXCXCXVXVXt.            3 VXVXVXCXCXCXCXCXCX",
"CXCXCXCXCXCXVXVX%X@           X /.VXVXCXCXCXCXVXVXVXVXVXVXaX;X.X<XgXVXVXVXVXVXVXCXCXCXCXVXVX/.X           O $XVXVXCXCXCXCXCXCXCX",
"CXCXCXCXCXCXCXVXVXi.            1 fXVXVXCXVXVXVX|.`.uXVXVXVXVXVXVXVXVXVXuX|.<XgXVXCXCXVXVXfX1             p.VXVXCXCXCXCXCXCXCXCX",
"CXCXCXCXCXCXCXVXVXVX0             y VXVXVXVX6X;.z x #._.VXVXVXVXVXVXVXH...b J w.gXVXVXVXVXy           X 0 VXVXVXCXCXCXCXCXCXCXCX",
"CXCXCXCXCXCXCXCXVXVX9X=             R.VXVX1X} d G P b G 5.3XVXVXVXoX;.n b P D x 2.gXVXVXR.            = 9XVXVXCXCXCXCXCXCXCXCXCX",
"CXCXCXCXCXCXCXCXCXVXVXf.            8 VXeX@.b U U U J G D ^ 7.v.;.P D D J U U F d 9.VXVX:             f.VXVXCXCXCXCXCXCXCXCXCXCX",
"CXCXCXCXCXCXCXCXCXCXVXVXt         X Q.VX8.z J U U P U P U F D b F P U U P U P U P b I.VXp           t VXVXCXCXCXCXCXCXCXCXCXCXCX",
"CXCXCXCXCXCXCXCXCXCXVXVXVXVXVXVXVXVXVXoXS G P U P U P U P U P U U U U P U P U P P D _ uXVXVXVXVXVXVXVXVXVXCXCXCXCXCXCXCXCXCXCXCX",
"CXCXCXCXCXCXCXCXCXCXCXVXVXVXVXVXVXVXVX3.D P U P U P U P U P U P P U P U P U P U P U b F.VXVXVXVXVXVXVXVXCXCXCXCXCXCXCXCXCXCXCXCX",
"CXCXCXCXCXCXCXCXCXCXCXCXCXCXCXCXCXVXqX^ D U P U P U P U P U P U U P U P U P U P U U G =.VXVXCXCXCXCXCXCXCXCXCXCXCXCXCXCXCXCXCXCX",
"CXCXCXCXCXCXCXCXCXCXCXCXCXCXCXCXCXVX].J G U P U U P U P U P U P P U P U P U P U P U D ) uXVXCXCXCXCXCXCXCXCXCXCXCXCXCXCXCXCXCXCX",
"CXCXCXCXCXCXCXCXCXCXCXCXCXCXCXCXCXVXZ.D P P U P P U P U P U P U U P U P U P U P U P G W oXVXCXCXCXCXCXCXCXCXCXCXCXCXCXCXCXCXCXCX",
"CXCXCXCXCXCXCXCXCXCXCXCXCXCXCXCXCXVXz.b P U P U U P U P U P U P P U P U P U P U P U G R |.VXCXCXCXCXCXCXCXCXCXCXCXCXCXCXCXCXCXCX",
"CXCXCXCXCXCXCXCXCXCXCXCXCXCXCXCXCXVXh.b U P U P P U P U P U P U U P U P U P U P U P G Y ].VXCXCXCXCXCXCXCXCXCXCXCXCXCXCXCXCXCXCX",
"CXCXCXCXCXCXCXCXCXCXCXCXCXCXCXCXCXVXU.D D J J J U P U P U P U P P U P U U P U J U P G W 6XVXCXCXCXCXCXCXCXCXCXCXCXCXCXCXCXCXCXCX",
"CXCXCXCXCXCXCXCXCXCXCXCXCXCXCXCXCXVXVX&.b U T G U U P U P U P U U P U U P U U J P P b z.VXVXCXCXCXCXCXCXCXCXCXCXCXCXCXCXCXCXCXCX",
"CXCXCXCXCXCXCXCXCXCXCXCXCXCXCXCXCXVXVXqX1.S b D D D P P U P U U P U P P D G D D D U z.VXVXCXCXCXCXCXCXCXCXCXCXCXCXCXCXCXCXCXCXCX",
"CXCXCXCXCXCXCXCXCXCXCXCXCXCXCXCXCXCXVXVXVX|.4.{ W D x x x a a a a a d x b U ( @.q.;XVXVXCXCXCXCXCXCXCXCXCXCXCXCXCXCXCXCXCXCXCXCX",
"CXCXCXCXCXCXCXCXCXCXCXCXCXCXCXCXCXCXCXVXVXVXVXuXoX).L.A.N.N.M.m.N.N.C.A.P.].<XgXVXVXVXCXCXCXCXCXCXCXCXCXCXCXCXCXCXCXCXCXCXCXCXCX",
"CXCXCXCXCXCXCXCXCXCXCXCXCXCXCXCXCXCXCXCXCXCXVXVXVXVXVXVXVXVXVXVXVXVXVXVXVXVXVXVXVXCXCXCXCXCXCXCXCXCXCXCXCXCXCXCXCXCXCXCXCXCXCXCX",
"CXCXCXCXCXCXCXCXCXCXCXCXCXCXCXCXCXCXCXCXCXCXCXCXCXCXCXCXCXCXCXCXCXCXCXCXCXCXCXCXCXCXCXCXCXCXCXCXCXCXCXCXCXCXCXCXCXCXCXCXCXCXCXCX",
"CXCXCXCXCXCXCXCXCXCXCXCXCXCXCXCXCXCXCXCXCXCXCXCXCXCXCXCXCXCXCXCXCXCXCXCXCXCXCXCXCXCXCXCXCXCXCXCXCXCXCXCXCXCXCXCXCXCXCXCXCXCXCXCX",
"CXCXCXCXCXCXCXCXCXCXCXCXCXCXCXCXCXCXCXCXCXCXCXCXCXCXCXCXCXCXCXCXCXCXCXCXCXCXCXCXCXCXCXCXCXCXCXCXCXCXCXCXCXCXCXCXCXCXCXCXCXCXCXCX",
"CXCXCXCXCXCXCXCXCXCXCXCXCXCXCXCXCXCXCXCXCXCXCXCXCXCXCXCXCXCXCXCXCXCXCXCXCXCXCXCXCXCXCXCXCXCXCXCXCXCXCXCXCXCXCXCXCXCXCXCXCXCXCXCX",
"CXCXCXCXCXCXCXCXCXCXCXCXCXCXCXCXCXCXCXCXCXCXCXCXCXCXCXCXCXCXCXCXCXCXCXCXCXCXCXCXCXCXCXCXCXCXCXCXCXCXCXCXCXCXCXCXCXCXCXCXCXCXCXCX",
"CXCXCXCXCXCXCXCXCXCXCXCXCXCXCXCXCXCXCXCXCXCXCXCXCXCXCXCXCXCXCXCXCXCXCXCXCXCXCXCXCXCXCXCXCXCXCXCXCXCXCXCXCXCXCXCXCXCXCXCXCXCXCXCX",
"CXCXCXCXCXCXCXCXCXCXCXCXCXCXCXCXCXCXCXCXCXCXCXCXCXCXCXCXCXCXCXCXCXCXCXCXCXCXCXCXCXCXCXCXCXCXCXCXCXCXCXCXCXCXCXCXCXCXCXCXCXCXCXCX",
"CXCXCXCXCXCXCXCXCXCXCXCXCXCXCXCXCXCXCXCXCXCXCXCXCXCXCXCXCXCXCXCXCXCXCXCXCXCXCXCXCXCXCXCXCXCXCXCXCXCXCXCXCXCXCXCXCXCXCXCXCXCXCXCX",
"CXCXCXCXCXCXCXCXCXCXCXCXCXCXCXCXCXCXCXCXCXCXCXCXCXCXCXCXCXCXCXCXCXCXCXCXCXCXCXCXCXCXCXCXCXCXCXCXCXCXCXCXCXCXCXCXCXCXCXCXCXCXCXCX",
"CXCXCXCXCXCXCXCXCXCXCXCXCXCXCXCXCXCXCXCXCXCXCXCXCXCXCXCXCXCXCXCXCXCXCXCXCXCXCXCXCXCXCXCXCXCXCXCXCXCXCXCXCXCXCXCXCXCXCXCXCXCXCXCX"
};
