/* XPM */
static const char *usermovev64[] = {
/* columns rows colors chars-per-pixel */
"64 64 227 2 ",
"   c #EB2B13",
".  c #EB2C14",
"X  c #EB2D14",
"o  c #EB2F15",
"O  c #EB3016",
"+  c #EB3017",
"@  c #EB3118",
"#  c #EC3218",
"$  c #EC3319",
"%  c #EC351A",
"&  c #ED391E",
"*  c #EE3B20",
"=  c #EE3D21",
"-  c #EE4124",
";  c #EF4427",
":  c #EE4528",
">  c #EF4629",
",  c #EF4729",
"<  c #EF472A",
"1  c #EF482B",
"2  c #F04E30",
"3  c #F04E31",
"4  c #F05233",
"5  c #F15639",
"6  c #F15A3B",
"7  c #F25B3D",
"8  c #F26242",
"9  c #F26647",
"0  c #F36848",
"q  c #F36D4D",
"w  c #F46F4E",
"e  c #F47152",
"r  c #F58868",
"t  c #F68E6D",
"y  c #F69071",
"u  c #125FC9",
"i  c #135FCA",
"p  c #1461CC",
"a  c #1462CC",
"s  c #1562CC",
"d  c #1464CC",
"f  c #1564CC",
"g  c #1564CD",
"h  c #1664CC",
"j  c #1664CD",
"k  c #1666CD",
"l  c #1766CD",
"z  c #1866CD",
"x  c #1866CE",
"c  c #1768CD",
"v  c #1768CE",
"b  c #1968CD",
"n  c #1868CE",
"m  c #1968CE",
"M  c #196ACE",
"N  c #196BCE",
"B  c #196ACF",
"V  c #1A6BCF",
"C  c #1B6BCF",
"Z  c #1B6DCF",
"A  c #1C6DCF",
"S  c #1C6DD0",
"D  c #1C6FD0",
"F  c #1D6FD0",
"G  c #1E6FD0",
"H  c #1D71D0",
"J  c #1E71D0",
"K  c #1E71D2",
"L  c #1F71D2",
"P  c #2275D3",
"I  c #2277D3",
"U  c #2377D3",
"Y  c #2379D4",
"T  c #2479D4",
"R  c #2579D4",
"E  c #267BD4",
"W  c #267DD5",
"Q  c #287DD5",
"!  c #297FD6",
"~  c #2A7FD6",
"^  c #2B80D6",
"/  c #3086D7",
"(  c #3186D7",
")  c #3084D9",
"_  c #3086D9",
"`  c #3186D9",
"'  c #3186DA",
"]  c #3188D9",
"[  c #358CDA",
"{  c #368EDB",
"}  c #378EDB",
"|  c #3A90DB",
" . c #3D94DD",
".. c #4197DE",
"X. c #459BDF",
"o. c #479DDF",
"O. c #489EE0",
"+. c #4B9EE0",
"@. c #4DA2E1",
"#. c #4EA2E1",
"$. c #52A5E2",
"%. c #52A5E3",
"&. c #5BACE5",
"*. c #61AFE6",
"=. c #64B1E6",
"-. c #6AB5E7",
";. c #6DB7E8",
":. c #73BAE9",
">. c #75BBE9",
",. c #7BBEEB",
"<. c #F79E82",
"1. c #F7A084",
"2. c #F8A58A",
"3. c #F8AA90",
"4. c #F9B29B",
"5. c #F9B29D",
"6. c #F9B5A0",
"7. c #FABEAC",
"8. c #FAC8B8",
"9. c #FBCCBD",
"0. c #FBCEBF",
"q. c #82C2EB",
"w. c #84C2EB",
"e. c #84C2EC",
"r. c #86C4EC",
"t. c #8AC5EC",
"y. c #8AC6EC",
"u. c #8AC6ED",
"i. c #8EC9EE",
"p. c #90C9EE",
"a. c #95CCEE",
"s. c #9BCEEF",
"d. c #9BCEF0",
"f. c #9ED0F0",
"g. c #A0D0F0",
"h. c #A2D0F0",
"j. c #A4D3F0",
"k. c #A9D3F1",
"l. c #A9D4F1",
"z. c #ACD5F2",
"x. c #ACD6F2",
"c. c #ADD6F2",
"v. c #B1D9F3",
"b. c #B5DBF3",
"n. c #B5DAF4",
"m. c #BBDEF4",
"M. c #BEDFF4",
"N. c #FBCFC1",
"B. c #FCD6CA",
"V. c #FCD7CC",
"C. c #FCDDD5",
"Z. c #FCDED4",
"A. c #FDE3DB",
"S. c #FDE4DC",
"D. c #FDE6DF",
"F. c #C1E0F5",
"G. c #C4E2F6",
"H. c #C8E4F6",
"J. c #CAE5F6",
"K. c #CAE6F7",
"L. c #CCE6F7",
"P. c #CDE6F7",
"I. c #CFE7F7",
"U. c #CFE8F7",
"Y. c #D3E9F8",
"T. c #D4EBF8",
"R. c #D5EBF8",
"E. c #D6EBF8",
"W. c #D7EBF9",
"Q. c #DCEEFA",
"!. c #DEEFFA",
"~. c #FDE7E1",
"^. c #FDE8E2",
"/. c #FDEAE4",
"(. c #FDEBE5",
"). c #FDEBE6",
"_. c #FEF1EE",
"`. c #FEF2EF",
"'. c #E0F0FA",
"]. c #E1F0FA",
"[. c #E2F0FA",
"{. c #E4F2FA",
"}. c #E4F2FB",
"|. c #E6F2FB",
" X c #E6F3FB",
".X c #EAF5FC",
"XX c #EBF5FC",
"oX c #EDF6FC",
"OX c #EEF6FC",
"+X c #FEF4F0",
"@X c #FEF5F2",
"#X c #FFF6F3",
"$X c #FEF6F4",
"%X c #FEF7F5",
"&X c #FFF7F5",
"*X c #FEF8F6",
"=X c #F0F8FD",
"-X c #F1F8FD",
";X c #F2F8FD",
":X c #F2F9FD",
">X c #F4FAFD",
",X c #F6FAFD",
"<X c #F6FAFE",
"1X c #F6FBFE",
"2X c #F7FBFE",
"3X c #F7FCFE",
"4X c #FFFAF9",
"5X c #FFFBFA",
"6X c #FFFBFB",
"7X c #FFFCFB",
"8X c #F8FCFE",
"9X c #F9FCFE",
"0X c #FAFCFE",
"qX c #FAFDFE",
"wX c #FBFDFE",
"eX c #FFFCFC",
"rX c #FFFDFC",
"tX c #FFFDFD",
"yX c #FFFEFD",
"uX c #FCFDFE",
"iX c #FDFEFF",
"pX c #FFFEFE",
"aX c #FFFFFE",
"sX c #FEFEFF",
"dX c #FEFFFF",
"fX c gray100",
"gX c None",
/* pixels */
"gXgXgXgXgXgXgXgXgXgXgXgXgXgXgXgXgXgXgXgXgXgXgXgXgXgXgXgXgXgXgXgXgXgXgXgXgXgXgXgXgXgXgXgXgXgXgXgXgXgXgXgXgXgXgXgXgXgXgXgXgXgXgXgX",
"gXgXgXgXgXgXgXgXgXgXgXgXgXgXgXgXgXgXgXgXgXgXgXgXgXgXgXgXgXgXgXgXgXgXgXgXgXgXgXgXgXgXgXgXgXgXgXgXgXgXgXgXgXgXgXgXgXgXgXgXgXgXgXgX",
"gXgXgXgXgXgXgXgXgXgXgXgXgXgXgXgXgXgXgXgXgXgXgXgXgXgXgXgXgXgXfXfXfXgXgXgXgXgXgXgXgXgXgXgXgXgXgXgXgXgXgXgXgXgXgXgXgXgXgXgXgXgXgXgX",
"gXgXgXgXgXgXgXgXgXgXgXgXgXgXgXgXgXgXgXgXgXgXgXgXgXgXgXgXfXfXfXfXfXfXgXgXgXgXgXgXgXgXgXgXgXgXgXgXgXgXgXgXgXgXgXgXgXgXgXgXgXgXgXgX",
"gXgXgXgXgXgXgXgXgXgXgXgXgXgXgXgXgXgXgXgXgXgXgXgXgXgXgXfXfXfX~.1.5XfXfXfXgXgXgXgXgXgXgXgXgXgXgXgXgXgXgXgXgXgXgXgXgXgXgXgXgXgXgXgX",
"gXgXgXgXgXgXgXgXgXgXgXgXgXgXgXgXgXgXgXgXgXgXgXgXgXgXfXfXfX7.#   2 ^.fXfXfXgXgXgXgXgXgXgXgXgXgXgXgXgXgXgXgXgXgXgXgXgXgXgXgXgXgXgX",
"gXgXgXgXgXgXgXgXgXgXgXgXgXgXgXgXgXgXgXgXgXgXgXgXfXfXfX$Xe       . @ 5.fXfXfXfXgXgXgXgXgXgXgXgXgXgXgXgXgXgXgXgXgXgXgXgXgXgXgXgXgX",
"gXgXgXgXgXgXgXgXgXgXgXgXgXgXgXgXgXgXgXgXgXgXgXfXfXfXV.=               0 @XfXfXfXgXgXgXgXgXgXgXgXgXgXgXgXgXgXgXgXgXgXgXgXgXgXgXgX",
"gXgXgXgXgXgXgXgXgXgXgXgXgXgXgXgXgXgXgXgXgXfXfXfX7Xy                     & N.fXfXfXgXgXgXgXgXgXgXgXgXgXgXgXgXgXgXgXgXgXgXgXgXgXgX",
"gXgXgXgXgXgXgXgXgXgXgXgXgXgXgXgXgXgXgXgXfXfXfX(.2                           r 5XfXfXfXgXgXgXgXgXgXgXgXgXgXgXgXgXgXgXgXgXgXgXgXgX",
"gXgXgXgXgXgXgXgXgXgXgXgXgXgXgXgXgXgXfXfXfXfX4.+                               < A.fXfXfXgXgXgXgXgXgXgXgXgXgXgXgXgXgXgXgXgXgXgXgX",
"gXgXgXgXgXgXgXgXgXgXgXgXgXgXgXgXgXfXfXfX@X9                                     . 3.fXfXfXfXgXgXgXgXgXgXgXgXgXgXgXgXgXgXgXgXgXgX",
"gXgXgXgXgXgXgXgXgXgXgXgXgXgXgXgXfXfXfX0.&                                           7 `.fXfXfXgXgXgXgXgXgXgXgXgXgXgXgXgXgXgXgXgX",
"gXgXgXgXgXgXgXgXgXgXgXgXgXgXgXgXfXfXr                                                 % 8.fXfXgXgXgXgXgXgXgXgXgXgXgXgXgXgXgXgXgX",
"gXgXgXgXgXgXgXgXgXgXgXgXgXgXgXgXfXfX                * w             * q                 . fXfXgXgXgXgXgXgXgXgXgXgXgXgXgXgXgXgXgX",
"gXgXgXgXgXgXgXgXgXgXgXgXgXgXgXgXfXfX              5 @X(.            < fX9.#             + fXfXgXgXgXgXgXgXgXgXgXgXgXgXgXgXgXgXgX",
"gXgXgXgXgXgXgXgXgXgXgXgXgXgXgXgXfXfX          . 2.fXfXA.            - fXfX`.8           + fXfXgXgXgXgXgXgXgXgXgXgXgXgXgXgXgXgXgX",
"gXgXgXgXgXgXgXgXgXgXgXgXgXgXgXgXfXfX        1 A.fXfXfXA.            - fXfXfXfX6.+       + fXfXgXgXgXgXgXgXgXgXgXgXgXgXgXgXgXgXgX",
"gXgXgXgXgXgXgXgXgXgXgXgXgXgXgXgXfXfX      t 7XfXfXfXfXA.            ; fXfXfXfXfX(.4     + fXfXgXgXgXgXgXgXgXgXgXgXgXgXgXgXgXgXgX",
"gXgXgXgXgXgXgXgXgXgXgXgXgXgXgXgXfXfX  * B.fXfXfXfXfXfX$X^.7XfXfXfX*X~.fXfXfXfXfXfX7X<.  . fXfXgXgXgXgXgXgXgXgXgXgXgXgXgXgXgXgXgX",
"gXgXgXgXgXgXgXgXgXgXgXgXgXgXgXgXfXfX6 *XfXfXfXfXgXfXfXfX;XG.c.k.c.J.1XfXfXfXfXfXfXfXfXZ.< fXfXgXgXgXgXgXgXgXgXgXgXgXgXgXgXgXgXgX",
"gXgXgXgXgXgXgXgXgXgXgXgXgXgXgXgXfXfXfXfXfXfXfXgXfXfX1Xt.~ C j s x A ' f.8XfXfXgXfXfXfXfX5XfXfXgXgXgXgXgXgXgXgXgXgXgXgXgXgXgXgXgX",
"gXgXgXgXgXgXgXgXgXgXgXgXgXgXgXgXfXfXfXfXfXfXgXfXfXXX| s b D D D D A b b o.1XfXfXgXfXfXfXfXfXfXgXgXgXgXgXgXgXgXgXgXgXgXgXgXgXgXgX",
"gXgXgXgXgXgXgXgXgXgXgXgXgXgXgXgXgXfXfXfXgXgXfXfX=X' j D D D D G D D D H j X.8XfXgXgXgXfXfXfXgXgXgXgXgXgXgXgXgXgXgXgXgXgXgXgXgXgX",
"gXgXgXgXgXgXgXgXgXgXgXgXgXgXgXgXgXgXgXgXgXgXfXfX%.x D A G D G D D D G D G j w.fXfXgXgXgXgXgXgXgXgXgXgXgXgXgXgXgXgXgXgXgXgXgXgXgX",
"gXgXgXgXgXgXgXgXgXgXgXgXgXgXgXgXgXgXgXgXgXfXfXI.x D D D D G D G D D D G D C A oXfXgXgXgXgXgXgXgXgXgXgXgXgXgXgXgXgXgXgXgXgXgXgXgX",
"gXgXgXgXgXgXgXgXgXgXgXgXgXgXgXgXgXgXgXgXgXfXfX*.b P D D G D G D G D G D D H x i.fXfXgXgXgXgXgXgXgXgXgXgXgXgXgXgXgXgXgXgXgXgXgXgX",
"gXgXgXgXgXgXgXgXgXgXgXgXgXgXgXgXgXgXgXgXgXfX8X] b A J D D G D G D G D G D H b #.fXfXgXgXgXgXgXgXgXgXgXgXgXgXgXgXgXgXgXgXgXgXgXgX",
"gXgXgXgXgXgXgXgXgXgXgXgXgXgXgXgXgXgXgXgXgXfXoXY D D G D G D G D G D G D D G C [ 8XfXgXgXgXgXgXgXgXgXgXgXgXgXgXgXgXgXgXgXgXgXgXgX",
"gXgXgXgXgXgXgXgXgXgXgXgXgXgXgXgXgXgXgXgXgXfX}.Y C D D G D G D G D G D G G D C ' 3XfXgXgXgXgXgXgXgXgXgXgXgXgXgXgXgXgXgXgXgXgXgXgX",
"gXgXgXgXgXgXgXgXgXgXgXgXgXgXgXgXgXgXgXgXgXfX=XE C D G D G D G D G D G D D D b | 8XfXgXgXgXgXgXgXgXgXgXgXgXgXgXgXgXgXgXgXgXgXgXgX",
"gXgXgXgXgXgXgXgXgXgXgXgXgXgXgXgXgXgXgXgXgXfXfX .b D D G D G D G D G D G D D D &.fXfXgXgXgXgXgXgXgXgXgXgXgXgXgXgXgXgXgXgXgXgXgXgX",
"gXgXgXgXgXgXgXgXgXgXgXgXgXgXgXgXgXgXgXgXgXfXfXr.b G G D G D G D G D D G D H x b.fXfXgXgXgXgXgXgXgXgXgXgXgXgXgXgXgXgXgXgXgXgXgXgX",
"gXgXgXgXgXgXgXgXgXgXgXgXgXgXgXgXgXgXgXgXgXfXfXXXD D D D D G D G D G G D G b ^ 8XfXfXgXgXgXgXgXgXgXgXgXgXgXgXgXgXgXgXgXgXgXgXgXgX",
"gXgXgXgXgXgXgXgXgXgXgXgXgXgXgXgXgXfXfXgXgXgXfXfXa.j C A G D D D G D G G b x M.fXfXgXgXgXgXfXgXgXgXgXgXgXgXgXgXgXgXgXgXgXgXgXgXgX",
"gXgXgXgXgXgXgXgXgXgXgXgXgXgXgXgXfXfXfXfXgXgXfXfXuX-.j C D G D D D G D m a p.fXfXgXgXgXfX5XfXfXgXgXgXgXgXgXgXgXgXgXgXgXgXgXgXgXgX",
"gXgXgXgXgXgXgXgXgXgXgXgXgXgXgXgXfXfXfXfXfXgXgXfXfXfXp.b M Z D D A Z z R x.fXfXfXgXfXfX7XfXfXfXgXgXgXgXgXgXgXgXgXgXgXgXgXgXgXgXgX",
"gXgXgXgXgXgXgXgXgXgXgXgXgXgXgXgXfXfXfXfX7XfXgXgXfXfXfX[.;.! D D D ) q.XXfXfXfXgXfXfXfXfX5XfXfXgXgXgXgXgXgXgXgXgXgXgXgXgXgXgXgXgX",
"gXgXgXgXgXgXgXgXgXgXgXgXgXgXgXgXfXfX6 $XfXfXfXfXfXfXfXfXfX3X[.T.}.fXfXfXfXfXfXfX5XfXfXZ.< fXfXgXgXgXgXgXgXgXgXgXgXgXgXgXgXgXgXgX",
"gXgXgXgXgXgXgXgXgXgXgXgXgXgXgXgXfXfX. & B.fXfX@XfXfXfXS.            - fXfXfXfXfXfX7X<.    fXfXgXgXgXgXgXgXgXgXgXgXgXgXgXgXgXgXgX",
"gXgXgXgXgXgXgXgXgXgXgXgXgXgXgXgXfXfX      t 7XfX$XfXfXS.            ; fXfXfXfXfX(.4     + fXfXgXgXgXgXgXgXgXgXgXgXgXgXgXgXgXgXgX",
"gXgXgXgXgXgXgXgXgXgXgXgXgXgXgXgXfXfX        1 A.fX5XfXfX            ; fXfXfXfX5.. .     + fXfXgXgXgXgXgXgXgXgXgXgXgXgXgXgXgXgXgX",
"gXgXgXgXgXgXgXgXgXgXgXgXgXgXgXgXfXfX          . 2.fXfX`.            & Z.fX+X8           + fXfXgXgXgXgXgXgXgXgXgXgXgXgXgXgXgXgXgX",
"gXgXgXgXgXgXgXgXgXgXgXgXgXgXgXgXfXfX              5 @X(.            < fX0.@             + fXfXgXgXgXgXgXgXgXgXgXgXgXgXgXgXgXgXgX",
"gXgXgXgXgXgXgXgXgXgXgXgXgXgXgXgXfXfX                = q             * q                   fXfXgXgXgXgXgXgXgXgXgXgXgXgXgXgXgXgXgX",
"gXgXgXgXgXgXgXgXgXgXgXgXgXgXgXgXfXfXr                                                 % 8.fXfXgXgXgXgXgXgXgXgXgXgXgXgXgXgXgXgXgX",
"gXgXgXgXgXgXgXgXgXgXgXgXgXgXgXgXfXfXfX0.&                                           7 `.fXfXgXgXgXgXgXgXgXgXgXgXgXgXgXgXgXgXgXgX",
"gXgXgXgXgXgXgXgXgXgXgXgXgXgXgXgXgXfXfXfX@X9                                     . 3.fXfXfXfXgXgXgXgXgXgXgXgXgXgXgXgXgXgXgXgXgXgX",
"gXgXgXgXgXgXgXgXgXgXgXgXgXgXgXgXgXfXfX1XfXfX4.@                               < S.fXfX1XfXfXgXgXgXgXgXgXgXgXgXgXgXgXgXgXgXgXgXgX",
"gXgXgXgXgXgXgXgXgXgXgXgXgXgXgXgXgXfX=XE R.fXfX^.2                           r 5XfXfX,.+.fXfXgXgXgXgXgXgXgXgXgXgXgXgXgXgXgXgXgXgX",
"gXgXgXgXgXgXgXgXgXgXgXgXgXgXgXgXgXfXJ.D Z >.8XfXfXy                     & N.fXfX}._ b ! =XfXgXgXgXgXgXgXgXgXgXgXgXgXgXgXgXgXgXgX",
"gXgXgXgXgXgXgXgXgXgXgXgXgXgXgXgXgXfXj.M A D ! [.fXfXV.=               0 @XfXfXY.D D Z P !.fXgXgXgXgXgXgXgXgXgXgXgXgXgXgXgXgXgXgX",
"gXgXgXgXgXgXgXgXgXgXgXgXgXgXgXgXgXfXt.x G D G D I.fXfX$Xe         @ 5.fXfX=X#.G D D A P P.fXgXgXgXgXgXgXgXgXgXgXgXgXgXgXgXgXgXgX",
"gXgXgXgXgXgXgXgXgXgXgXgXgXgXgXgXgXfXe.x D G D D A ..XXfXfX7.@   2 ^.fXfXW.D D D D D A A J.fXgXgXgXgXgXgXgXgXgXgXgXgXgXgXgXgXgXgX",
"gXgXgXgXgXgXgXgXgXgXgXgXgXgXgXgXgXfXM.x D G D D A D D W.fXfX~.<.5XfX8X>.D G D D D H Z P oXfXgXgXgXgXgXgXgXgXgXgXgXgXgXgXgXgXgXgX",
"gXgXgXgXgXgXgXgXgXgXgXgXgXgXgXgXgXfXfXo.x D H H H D G D =.fXfXfXfX}.! D G D D D D Z x t.fXfXgXgXgXgXgXgXgXgXgXgXgXgXgXgXgXgXgXgX",
"gXgXgXgXgXgXgXgXgXgXgXgXgXgXgXgXgXfXfX=X%.b x b b D D b D ! t.Y.t.D D D C D C x b H t.fXfXgXgXgXgXgXgXgXgXgXgXgXgXgXgXgXgXgXgXgX",
"gXgXgXgXgXgXgXgXgXgXgXgXgXgXgXgXgXgXfXfXfXP.&./ Y C x p j u p u i i i j x D E { >.[.fXfXgXgXgXgXgXgXgXgXgXgXgXgXgXgXgXgXgXgXgXgX",
"gXgXgXgXgXgXgXgXgXgXgXgXgXgXgXgXgXgXgXfXfXfXfX1X!.M.v.k.f.f.s.a.f.d.h.x.n.J.[.8XfXfXfXgXgXgXgXgXgXgXgXgXgXgXgXgXgXgXgXgXgXgXgXgX",
"gXgXgXgXgXgXgXgXgXgXgXgXgXgXgXgXgXgXgXgXgXgXfXfXfXfXfXfXfXfXfXfXfXfXfXfXfXfXfXfXfXgXgXgXgXgXgXgXgXgXgXgXgXgXgXgXgXgXgXgXgXgXgXgX",
"gXgXgXgXgXgXgXgXgXgXgXgXgXgXgXgXgXgXgXgXgXgXgXgXgXgXgXgXgXgXgXgXgXgXgXgXgXgXgXgXgXgXgXgXgXgXgXgXgXgXgXgXgXgXgXgXgXgXgXgXgXgXgXgX",
"gXgXgXgXgXgXgXgXgXgXgXgXgXgXgXgXgXgXgXgXgXgXgXgXgXgXgXgXgXgXgXgXgXgXgXgXgXgXgXgXgXgXgXgXgXgXgXgXgXgXgXgXgXgXgXgXgXgXgXgXgXgXgXgX",
"gXgXgXgXgXgXgXgXgXgXgXgXgXgXgXgXgXgXgXgXgXgXgXgXgXgXgXgXgXgXgXgXgXgXgXgXgXgXgXgXgXgXgXgXgXgXgXgXgXgXgXgXgXgXgXgXgXgXgXgXgXgXgXgX",
"gXgXgXgXgXgXgXgXgXgXgXgXgXgXgXgXgXgXgXgXgXgXgXgXgXgXgXgXgXgXgXgXgXgXgXgXgXgXgXgXgXgXgXgXgXgXgXgXgXgXgXgXgXgXgXgXgXgXgXgXgXgXgXgX"
};
