/* XPM */
static char * usermoveh64[] = {
"64 64 243 2",
"  	c None",
". 	c #FFFFFF",
"+ 	c #FAC8B8",
"@ 	c #EB2D14",
"# 	c #EB3016",
"$ 	c #EB3017",
"% 	c #EF4729",
"& 	c #FFFAF9",
"* 	c #FEF2EF",
"= 	c #EC351A",
"- 	c #EB2B13",
"; 	c #FCDED4",
"> 	c #FFFEFE",
", 	c #F25B3D",
"' 	c #F79E82",
") 	c #F8AA90",
"! 	c #F05233",
"~ 	c #FFFDFC",
"{ 	c #F0F8FD",
"] 	c #C4E2F6",
"^ 	c #ACD5F2",
"/ 	c #A9D3F1",
"( 	c #ADD6F2",
"_ 	c #CAE5F6",
": 	c #F6FAFE",
"< 	c #FDE4DC",
"[ 	c #EB2F15",
"} 	c #FDEBE6",
"| 	c #F6FBFE",
"1 	c #8AC5EC",
"2 	c #2B80D6",
"3 	c #1B6BCF",
"4 	c #1564CD",
"5 	c #1562CC",
"6 	c #1664CD",
"7 	c #1D6FD0",
"8 	c #3186DA",
"9 	c #A0D0F0",
"0 	c #FBFDFE",
"a 	c #FFFBFA",
"b 	c #F9B5A0",
"c 	c #EAF5FC",
"d 	c #378EDB",
"e 	c #196ACE",
"f 	c #1B6DCF",
"g 	c #1C6DD0",
"h 	c #1C6FD0",
"i 	c #1768CD",
"j 	c #489EE0",
"k 	c #F4FAFD",
"l 	c #F58868",
"m 	c #F26242",
"n 	c #F2F9FD",
"o 	c #3186D9",
"p 	c #1664CC",
"q 	c #1462CC",
"r 	c #459BDF",
"s 	c #FAFCFE",
"t 	c #FBCFC1",
"u 	c #EC3319",
"v 	c #FEF4F0",
"w 	c #FEFFFF",
"x 	c #52A5E3",
"y 	c #1564CC",
"z 	c #1E71D0",
"A 	c #1464CC",
"B 	c #84C2EB",
"C 	c #FEF5F2",
"D 	c #ED391E",
"E 	c #FBCCBD",
"F 	c #CFE7F7",
"G 	c #1866CE",
"H 	c #1C6DCF",
"I 	c #EBF5FC",
"J 	c #F36848",
"K 	c #F36D4D",
"L 	c #61AFE6",
"M 	c #196ACF",
"N 	c #1968CE",
"O 	c #8EC9EE",
"P 	c #FFFFFE",
"Q 	c #F9B29D",
"R 	c #EE3B20",
"S 	c #EF472A",
"T 	c #EE4124",
"U 	c #EE4225",
"V 	c #FDE3DB",
"W 	c #F8FCFE",
"X 	c #3188D9",
"Y 	c #1A6BCF",
"Z 	c #4EA2E1",
"` 	c #FEFEFF",
" .	c #FCDACF",
"..	c #FDEAE4",
"+.	c #EB3118",
"@.	c #ED361C",
"#.	c #FDE9E3",
"$.	c #EDF6FC",
"%.	c #2479D4",
"&.	c #358CDA",
"*.	c #F9FCFE",
"=.	c #FCDCD2",
"-.	c #F04E31",
";.	c #FEEEE9",
">.	c #E6F2FB",
",.	c #2379D4",
"'.	c #3186D7",
").	c #F7FCFE",
"!.	c #F7A084",
"~.	c #EC3218",
"{.	c #FDE7E0",
"].	c #267DD5",
"^.	c #3A90DB",
"/.	c #FAFDFE",
"(.	c #FCD9CE",
"_.	c #FDE7E1",
":.	c #FCFDFE",
"<.	c #3D94DD",
"[.	c #5BACE5",
"}.	c #FBCEBF",
"|.	c #FABEAC",
"1.	c #F8A488",
"2.	c #86C4EC",
"3.	c #1868CE",
"4.	c #B5DBF3",
"5.	c #F7997B",
"6.	c #F47152",
"7.	c #EF4A2C",
"8.	c #196BCE",
"9.	c #2A7FD6",
"0.	c #EC3219",
"a.	c #FEF7F5",
"b.	c #EE3D21",
"c.	c #F46F4E",
"d.	c #FDEBE5",
"e.	c #95CCEE",
"f.	c #BEDFF4",
"g.	c #FEF4F1",
"h.	c #FCD7CC",
"i.	c #6AB5E7",
"j.	c #90C9EE",
"k.	c #F69071",
"l.	c #F15639",
"m.	c #FFFEFD",
"n.	c #FDFEFF",
"o.	c #1866CD",
"p.	c #2579D4",
"q.	c #ACD6F2",
"r.	c #FFFCFC",
"s.	c #F04E30",
"t.	c #F8A58A",
"u.	c #E1F0FA",
"v.	c #6DB7E8",
"w.	c #297FD6",
"x.	c #1E6FD0",
"y.	c #3084D9",
"z.	c #82C2EB",
"A.	c #EB2C14",
"B.	c #E0F0FA",
"C.	c #D4EBF8",
"D.	c #E4F2FB",
"E.	c #F9B29B",
"F.	c #EF482B",
"G.	c #FFFCFB",
"H.	c #FCFDFF",
"I.	c #CDE6F7",
"J.	c #C9E4F6",
"K.	c #F7FBFE",
"L.	c #F5FAFD",
"M.	c #CEE7F7",
"N.	c #F26647",
"O.	c #F68E6D",
"P.	c #ECF6FC",
"Q.	c #4EA2E2",
"R.	c #3A92DC",
"S.	c #ADD7F2",
"T.	c #328ADA",
"U.	c #1D6DD0",
"V.	c #79BDEA",
"W.	c #FCD6CA",
"X.	c #E8F4FC",
"Y.	c #1361CC",
"Z.	c #1666CD",
"`.	c #61B1E6",
" +	c #DCEEF9",
".+	c #4DA2E1",
"++	c #1766CD",
"@+	c #1461CC",
"#+	c #56A9E3",
"$+	c #F25D3E",
"%+	c #368CDA",
"&+	c #66B2E6",
"*+	c #8EC8EE",
"=+	c #50A4E2",
"-+	c #FCDBCF",
";+	c #68B4E6",
">+	c #1C6FCF",
",+	c #BADDF4",
"'+	c #F7997D",
")+	c #D6EBF8",
"!+	c #58AAE4",
"~+	c #1766CE",
"{+	c #AAD5F2",
"]+	c #F1F8FD",
"^+	c #267BD4",
"/+	c #4B9EE0",
"(+	c #287DD5",
"_+	c #A4D3F0",
":+	c #2275D3",
"<+	c #DEEFFA",
"[+	c #8AC6EC",
"}+	c #1F71D2",
"|+	c #84C2EC",
"1+	c #1D71D0",
"2+	c #CAE6F7",
"3+	c #BBDEF4",
"4+	c #2277D3",
"5+	c #479DDF",
"6+	c #1768CE",
"7+	c #52A5E2",
"8+	c #1968CD",
"9+	c #1E71D2",
"0+	c #8AC6ED",
"a+	c #CCE6F7",
"b+	c #3086D7",
"c+	c #2377D3",
"d+	c #135FCA",
"e+	c #125FC9",
"f+	c #368EDB",
"g+	c #75BBE9",
"h+	c #E2F0FA",
"i+	c #F6FAFD",
"j+	c #DCEEFA",
"k+	c #C1E0F5",
"l+	c #B1D9F3",
"m+	c #A9D4F1",
"n+	c #9ED0F0",
"o+	c #9BCEF0",
"p+	c #9BCEEF",
"q+	c #A2D0F0",
"r+	c #B5DAF4",
"s+	c #C8E4F6",
"t+	c #E4F2FA",
"                                                                                                                                ",
"                                                                                                                                ",
"                                                                                                                                ",
"                                                                                                                                ",
"                                                                                                                                ",
"                                                                                                                                ",
"                                                                                                                                ",
"                                                                                                                                ",
"                                                                                                                                ",
"                                                                                                                                ",
"                                                                                                                                ",
"                                                                                                                                ",
"                        . . . . . . . . .                                           . . . . . . . . .                           ",
"                      . . . . . . . . . . .                                       . . . . . . . . . . .                         ",
"                    . . + @ # $ $ $ @ % & .                                       . & % @ $ $ $ # @ + . .                       ",
"                  . . * = - - - - - - ; . .                                       . . ; - - - - - - = * . .                     ",
"                . . > , - - - - - - ' . .             . . . . . . . . .             . . ' - - - - - - , > . .                   ",
"                . . ) - - - - - - ! ~ . .         . . . { ] ^ / ( _ : . .           . . ~ ! - - - - - - ) . .                   ",
"              . . < @ - - - - - [ } . .         . . | 1 2 3 4 5 6 7 8 9 0 . .         . . } [ - - - - - @ < . .                 ",
"            . . a % - - - - - - b . .         . . c d 6 e f g h g f e i j k .           . . b - - - - - - % a . .               ",
"            . . l - - - - - - m > . .         . n o p 7 7 7 7 7 7 7 7 7 q r s .         . . > m - - - - - - l . .               ",
"          . . t - - - - - - u v . .         . w x y z 7 7 7 7 7 7 7 7 7 7 A B . .         . . v u - - - - - - t . .             ",
"        . . C D - - - - - - E . . . . . . . . F G 7 7 7 7 7 7 7 7 7 7 7 7 g H I . . . . . . . . E - - - - - - D C . .           ",
"      . . > J - - - - - - K > > > > > > > . . L M 7 7 7 7 7 7 7 7 7 7 7 7 7 N O . P > > > > > > > K - - - - - - J > . .         ",
"      . . Q - - - - - - - R S T T T T T U V W X Y 7 7 7 7 7 7 7 7 7 7 7 7 7 Y Z `  .T T T T T T S R - - - - - - - Q . .         ",
"    . . ..+.- - - - - - - - - - - - - - @.#.$.%.3 7 7 7 7 7 7 7 7 7 7 7 7 7 Y &.*.=.- - - - - - - - - - - - - - - +.... .       ",
"  . . a -.- - - - - - - - - - - - - - - R ;.>.,.3 7 7 7 7 7 7 7 7 7 7 7 7 7 Y '.).; - - - - - - - - - - - - - - - - -.a . .     ",
"  . . !.- - - - - - - - - - - - - - - - ~.{.{ ].3 7 7 7 7 7 7 7 7 7 7 7 7 7 Y ^./.(.- - - - - - - - - - - - - - - - - !.. .     ",
"  . . _.~.- - - - - - - - - - - - - - - - (.:.<.Y 7 7 7 7 7 7 7 7 7 7 7 7 7 Y [.. }.- - - - - - - - - - - - - - - - ~._.. .     ",
"    . . |.- - - - - - - - - - - - - - - - 1.. 2.M 7 7 7 7 7 7 7 7 7 7 7 7 7 3.4.. 5.- - - - - - - - - - - - - - - - |.. .       ",
"      . P 6.- - - - - - - - - - - - - - - 7.& c H g 7 7 7 7 7 7 7 7 7 7 7 8.9.W C 0.- - - - - - - - - - - - - - - 6.P .         ",
"      . . a.b.- - - - - - c.d.< V V V V V V a.. e.q f 7 7 7 7 7 7 7 7 7 Y 4 f.. g.V V V V V V < d.c.- - - - - - b.a.. .         ",
"        . . h.- - - - - - R C . . . . . . . . . :.i.q Y 7 7 7 7 7 7 7 N q j.w . . . . . . . . . C R - - - - - - h.. .           ",
"          . . k.- - - - - - l.m.. . . . . . . . . n.j.H 3.H h h h f o.p.q.w . . . . . . . . . m.l.- - - - - - k.. .             ",
"          . . r.s.- - - - - - t.. .             . . . u.v.w.x.7 7 y.z.$.. .               . . t.- - - - - - s.r.. .             ",
"            . . ..+.- - - - - A.V . .         . . . . . . ).B.C.D.0 . . . . . .         . . V A.- - - - - +.... .               ",
"              . . E.- - - - - - F.G.. .   . . H.I.J.K.. . . . . . . . . L.M.u.w .     . . G.F.- - - - - - E.. .                 ",
"              . . > N.- - - - - - O.. . . . P.Q.p 4 R.] w . . . . . n.S.T.4 U.V.s . . . . O.- - - - - - N.> . .                 ",
"                . . C D - - - - - - W.. . X.X Y.f g Z.f `.P.. . .  +.+N ++g Y @+#+s . . W.- - - - - - D C . .                   ",
"                  . . }.- - - - - - $+. L.%+y 7 7 7 7 3 3.p.&+*+=+h e f 7 7 7 g q i.` > U - - - - - - }.. .                     ",
"                    . . l - - - - @ -+. ;+5 7 7 7 7 7 7 7 g e N Y h 7 7 7 7 7 7 >+4 ,+. '+- - - - - l . .                       ",
"                    . . . . . . . . . )+e 7 7 7 7 7 7 7 7 7 7 7 7 7 7 7 7 7 7 7 7 Y 9.K.. . . . . . . . .                       ",
"                      . . . . . . . . !+M 7 7 7 7 7 7 7 7 7 7 7 7 7 7 7 7 7 7 7 7 7 ~+{+. . . . . . . .                         ",
"                                  . ]+^+Y 7 7 7 7 7 7 7 7 7 7 7 7 7 7 7 7 7 7 7 7 7 Y /+w .                                     ",
"                                  . _ z f 7 7 7 7 7 7 7 7 7 7 7 7 7 7 7 7 7 7 7 7 7 Y (+k .                                     ",
"                                  . _+e g 7 7 7 7 7 7 7 7 7 7 7 7 7 7 7 7 7 7 7 7 7 f :+<+.                                     ",
"                                  . [+++7 7 7 7 7 7 7 7 7 7 7 7 7 7 7 7 7 7 7 7 7 7 f }+I..                                     ",
"                                  . |+Z.7 7 7 7 7 7 7 7 7 7 7 7 7 7 7 7 7 7 7 7 7 7 f 1+2+.                                     ",
"                                  . 3+N g 7 7 7 7 7 7 7 7 7 7 7 7 7 7 7 7 7 7 7 7 7 f 4+$..                                     ",
"                                  . :.5+6+7 7 7 7 7 7 7 7 7 7 7 7 7 7 7 7 7 7 7 7 h 4 1 . .                                     ",
"                                  . . n 7+e N e Y f g g 7 7 7 7 7 7 h g H f Y N 8+9+0+` .                                       ",
"                                    . . ` a+[.b+c+Y ++5 @+d+d+e+d+d+@+4 3.g ^+f+g+h+. .                                         ",
"                                      . . . . i+j+k+l+m+n+o+p+e.o+o+q+^ r+s+t+/.. . .                                           ",
"                                            . . . . . . . . . . . . . . . . . . .                                               ",
"                                                                                                                                ",
"                                                                                                                                ",
"                                                                                                                                ",
"                                                                                                                                ",
"                                                                                                                                ",
"                                                                                                                                ",
"                                                                                                                                ",
"                                                                                                                                ",
"                                                                                                                                ",
"                                                                                                                                "};
