/* XPM */
static const char * user[] = {
"32 32 249 2",
"   c None",
".  c #1523A6",
"X  c #1221A4",
"o  c #0F1EA2",
"O  c #0C1B9F",
"+  c #09189C",
"@  c #07159A",
"#  c #1C2AAA",
"$  c #1B29AA",
"%  c #6CC4C0",
"&  c #6AC2BE",
"*  c #66C0BB",
"=  c #63BDB8",
"-  c #5FB9B5",
";  c #5CB6B2",
":  c #051397",
">  c #031294",
",  c #202EAD",
"<  c #73C8C4",
"1  c #72C8C4",
"2  c #6FC6C2",
"3  c #67C1BC",
"4  c #63BDB9",
"5  c #5CB6B1",
"6  c #59B2AE",
"7  c #57AFAB",
"8  c #021091",
"9  c #010F8F",
"0  c #2230AE",
"q  c #76CAC6",
"w  c #77CBC7",
"e  c #75CAC6",
"r  c #6DC5C1",
"t  c #68C1BD",
"y  c #5FB9B4",
"u  c #5BB5B0",
"i  c #58B1AD",
"p  c #56AEA9",
"a  c #54ABA6",
"s  c #53A8A4",
"d  c #010F8C",
"f  c #212FAD",
"g  c #76CBC7",
"h  c #79CCC8",
"j  c #79CDC9",
"k  c #78CCC7",
"l  c #74C9C5",
"z  c #6EC6C1",
"x  c #62BDB8",
"c  c #5EB8B3",
"v  c #5AB3AF",
"b  c #54ACA7",
"n  c #53A9A4",
"m  c #51A6A2",
"M  c #010E8A",
"N  c #2331AF",
"B  c #78CCC8",
"V  c #7BCECA",
"C  c #74CAC5",
"Z  c #68C1BC",
"A  c #62BCB7",
"S  c #5CB7B2",
"D  c #59B2AD",
"F  c #56ADA9",
"G  c #53A9A5",
"H  c #50A4A0",
"J  c #4FA29E",
"K  c #000E87",
"L  c #1F2DAC",
"P  c #7ACDC9",
"I  c #7CCECA",
"U  c #79CDC8",
"Y  c #6EC5C1",
"T  c #67C0BC",
"R  c #60BAB6",
"E  c #5BB5B1",
"W  c #57B0AC",
"Q  c #54ABA7",
"!  c #52A7A3",
"~  c #4FA19D",
"^  c #4EA09C",
"/  c #000D85",
"(  c #73C9C5",
")  c #65BFBA",
"_  c #56AEAA",
"`  c #51A5A1",
"'  c #4E9F9B",
"]  c #4D9D99",
"[  c #000D83",
"{  c #1F2EAD",
"}  c #6BC3BF",
"|  c #64BDB9",
" . c #5DB7B3",
".. c #55ACA8",
"X. c #4FA39F",
"o. c #4C9D99",
"O. c #4C9B97",
"+. c #4B9B97",
"@. c #000D82",
"#. c #1F2DAD",
"$. c #78CDC8",
"%. c #70C7C2",
"&. c #69C2BD",
"*. c #57B0AB",
"=. c #54AAA6",
"-. c #4EA19D",
";. c #4B9995",
":. c #000D81",
">. c #75CBC6",
",. c #77CCC8",
"<. c #77CCC7",
"1. c #68C0BC",
"2. c #61BAB6",
"3. c #5BB4B0",
"4. c #50A39F",
"5. c #4C9B98",
"6. c #4A9894",
"7. c #4A9794",
"8. c #000D7F",
"9. c #6DC4C0",
"0. c #66BFBB",
"q. c #60B9B5",
"w. c #55ADA9",
"e. c #4D9E9A",
"r. c #4B9A96",
"t. c #499693",
"y. c #000D7E",
"u. c #75CBC7",
"i. c #71C8C3",
"p. c #6CC3BF",
"a. c #65BEBA",
"s. c #5FB8B4",
"d. c #499793",
"f. c #499692",
"g. c #000C7D",
"h. c #2432B0",
"j. c #74CAC6",
"k. c #70C7C3",
"l. c #6BC3BE",
"z. c #5EB7B3",
"x. c #59B1AD",
"c. c #4C9C98",
"v. c #4A9895",
"b. c #499591",
"n. c #2532B0",
"m. c #6FC7C2",
"M. c #5DB7B2",
"N. c #58B1AC",
"B. c #2634B1",
"V. c #63BCB8",
"C. c #5DB6B2",
"Z. c #58B0AC",
"A. c #000C7C",
"S. c #2633B1",
"D. c #62BBB7",
"F. c #5CB5B1",
"G. c #499592",
"H. c #489491",
"J. c #76CCC8",
"K. c #1826A8",
"L. c #1220A3",
"P. c #57AFAA",
"I. c #010E89",
"U. c #489490",
"Y. c #212FAE",
"T. c #74CBC6",
"R. c #72C9C4",
"E. c #6EC6C2",
"W. c #69C2BE",
"Q. c #64BEB9",
"!. c #0A189C",
"~. c #051497",
"^. c #031191",
"/. c #010F8D",
"(. c #4FA39E",
"). c #4A9793",
"_. c #000D7D",
"`. c #72C9C5",
"'. c #71C8C4",
"]. c #61BBB7",
"[. c #55ABA7",
"{. c #48938F",
"}. c #1A28AA",
"|. c #6FC7C3",
" X c #6DC6C1",
".X c #6AC3BF",
"XX c #66C0BC",
"oX c #62BCB8",
"OX c #5EB8B4",
"+X c #489390",
"@X c #47928F",
"#X c #1726A8",
"$X c #6CC5C1",
"%X c #6BC4C0",
"&X c #52A6A2",
"*X c #47918E",
"=X c #47928E",
"-X c #1422A6",
";X c #68C2BD",
":X c #64BEBA",
">X c #61BCB7",
",X c #52A8A4",
"<X c #489591",
"1X c #47918D",
"2X c #46908D",
"3X c #65BFBB",
"4X c #5FBAB6",
"5X c #5AB4AF",
"6X c #47938F",
"7X c #46908C",
"8X c #468F8C",
"9X c #0C1BA0",
"0X c #5BB6B1",
"qX c #59B3AE",
"wX c #52A8A3",
"eX c #46918D",
"rX c #468F8B",
"tX c #458E8B",
"yX c #458E8A",
"uX c #09189D",
"iX c #5EB9B4",
"pX c #5DB8B3",
"aX c #458D8A",
"sX c #458D89",
"dX c #07169A",
"fX c #5AB4B0",
"gX c #55ADA8",
"hX c #53AAA5",
"jX c #448C88",
"kX c #448C89",
"lX c #4D9F9B",
"zX c #448B88",
"xX c #448B87",
"cX c #041295",
"vX c #448A87",
"bX c #031193",
"nX c #55ACA7",
"mX c #4B9A97",
"MX c #021090",
"NX c #010F8E",
"BX c #010F8B",
"VX c #000E89",
"CX c #000C7B",
"ZX c #000C7A",
"AX c #000C78",
"SX c #000C77",
"DX c #000C76",
"FX c #000C79",
"GX c #000D80",
"                        . X o O + @                             ",
"                    # $ % & * = - ; : >                         ",
"                  , < 1 2 % 3 4 - 5 6 7 8 9                     ",
"                0 q w e 1 r t 4 y u i p a s d                   ",
"              f g h j k l z t x c v 7 b n m M                   ",
"              N B V V h C z Z A S D F G m H J K                 ",
"            L q P I I U l Y T R E W Q ! H ~ ^ /                 ",
"            L g P I I h ( % ) y v _ G ` ~ ' ] [                 ",
"            { g j V P w 1 } |  .i ..! X.' o.O.+.@.              ",
"            #.g $.P h q %.&.A 5 *.=.` -.] +.;.;.:.              ",
"            #.>.,.B <.l Y 1.2.3._ s 4.' 5.;.6.7.8.              ",
"            #.>.,.,.g 1 9.0.q.v w.! J e.r.6.t.y.                ",
"            , u.,.<.e i.p.a.s.6 ..m ~ o.;.d.f.g.                ",
"              h.,.g j.k.l.| z.x.Q ` ^ c.v.f.b.g.                ",
"              n.,.g C m.& = M.N.=.` ^ O.6.f.g.                  ",
"                B.g ( 2 &.V.C.Z.=.H ' O.6.g.A.                  ",
"              S.,.h., Y Z D.F.7 G H ' O.8.G.H.A.                ",
"            h.J.g j.i.K.L.2.3.P.G I./ :.7.b.U.U.g.              ",
"          Y.T.u.j.R.E.W.Q.!.~.^./.(.e.r.).b.U.U.H._.            ",
"          #.`.`.'.E.} * ].C.N.[.m ~ o.;.f.U.{.{.U.g.            ",
"        }.|.k.|. X.XXXoXOXv _ G H ' O.6.b.+X@X@X{.H.y.          ",
"        #X$X$X%XW.* x y 3.Z.Q &XJ ] r.t.U.@X*X*X=X+Xg.          ",
"        -XW.;XXX:X>XOXu Z...,X4.' O.7.<X@X1X2X2X1X@XU.y.        ",
"      o 3X3X:XoX4X .5XW ..,XH ^ c.6.b.6X1X7X8X8X7X*X+Xg.        ",
"      9XoX].R OX0XqX7 Q wXH ^ c.v.G.6XeXrXtXyXtX8X2X@XH.y.      ",
"    uX- iXpX; 5Xi _ =.! 4.^ c.v.b.@X2XtXaXsXsXaXtX7X=XU.y.      ",
"    dX; E fX6 *.gXhXm X.' c.6.b.@X7XyXsXjXjXjXkXyX8X*X+Xy.      ",
"    ~.v 6 Z._ b n ` J lX5.6.b.@X7XyXkXzXxXxXzXkXaXrX1X+X_.      ",
"    cXZ.7 w.Q ,X` J lXc.v.f.{.2XtXkXzXxXvXxXzXkXyX8X*XU.y.      ",
"    bX_ ..=.,X` J ' c.;.t.U.*X8XaXkXzXxXxXzXjXsXtX7X=XH.y.      ",
"    8 nX=.,X` 4.^ ] mX6.b.{.1XrXyXkXjXjXjXkXaXtX7X*X+XG.6.:.    ",
"    MXNX/.BXVXK / [ :.8.g.CXZXAXSXSXDXDXSXSXAXFXZXCXg.y.GX@.    "};
