/* XPM */
static char * user[] = {
"32 32 69 1",
" 	c None",
".	c #FFFFFF",
"+	c #C2E1F5",
"@	c #58A9E4",
"#	c #2F84D7",
"$	c #3086D9",
"%	c #62B1E6",
"&	c #CFE7F7",
"*	c #FDFEFF",
"=	c #71B8E8",
"-	c #1D6FD0",
";	c #8AC5EC",
">	c #FEFFFF",
",	c #ACD5F2",
"'	c #F2F9FD",
")	c #2277D3",
"!	c #2C82D7",
"~	c #FAFCFE",
"{	c #BBDEF4",
"]	c #D3EAF8",
"^	c #A0D0F0",
"/	c #BDDEF4",
"(	c #B8DCF4",
"_	c #CCE6F7",
":	c #EAF5FC",
"<	c #1F71D2",
"[	c #F5FAFD",
"}	c #6DB7E8",
"|	c #8AC6ED",
"1	c #459BDF",
"2	c #5FADE5",
"3	c #A4D2F0",
"4	c #297FD6",
"5	c #1F73D2",
"6	c #2073D2",
"7	c #B2DAF3",
"8	c #F9FCFE",
"9	c #EEF6FC",
"0	c #F0F8FD",
"a	c #FEFEFF",
"b	c #FCFDFE",
"c	c #CAE5F6",
"d	c #3990DB",
"e	c #479DE0",
"f	c #D5EBF8",
"g	c #C8E4F6",
"h	c #E3F1FA",
"i	c #BADDF4",
"j	c #68B4E6",
"k	c #E6F3FB",
"l	c #DEEFFA",
"m	c #55A7E3",
"n	c #E0F0FA",
"o	c #EBF5FC",
"p	c #5FAFE6",
"q	c #9BCEEF",
"r	c #4095DD",
"s	c #2175D3",
"t	c #257BD4",
"u	c #2D84D7",
"v	c #CFE8F7",
"w	c #64B1E6",
"x	c #4197DE",
"y	c #287DD5",
"z	c #2579D4",
"A	c #297DD5",
"B	c #6FB8E8",
"C	c #B1D9F2",
"D	c #F4FAFD",
"                                ",
"                                ",
"                                ",
"             ......             ",
"           ..........           ",
"          ...+@#$%&...          ",
"         ..*=------;>..         ",
"         ..;--------,..         ",
"         .')--------!~.         ",
"        ..{----------]..        ",
"        ..^----------/..        ",
"        ..(----------_..        ",
"         .:<--------)[.         ",
"         ..}--------|..         ",
"         ..~1------2*..         ",
"          ..*3456#7>..          ",
"         ..8*.*90a.*b..         ",
"        ..cdef....g1eh..        ",
"       ..i----jklm---6n..       ",
"      ..o<------------#8..      ",
"      ..p--------------q..      ",
"      ..4--------------r..      ",
"      ..---------------4..      ",
"      ..---------------s..      ",
"      ..5--------------$..      ",
"      ..7t------------uv..      ",
"       ..o3wx#yztA$1BCD..       ",
"        ................        ",
"         .............          ",
"                                ",
"                                ",
"                                "};
