/* XPM */
static const char *usermoveh__[] = {
/* columns rows colors chars-per-pixel */
"64 64 218 2",
"   c #7A5203DA2250",
".  c #7D4509DC28CF",
"X  c #67DF09553AA8",
"o  c #6A1C0CC43E17",
"O  c #36BE058B470E",
"+  c #3263074B4F4E",
"@  c #319208164DC9",
"#  c #00A50D0D6DA1",
"$  c #00090C8075DA",
"%  c #00000BA67AB4",
"&  c #003A103076B8",
"*  c #05EA19D673E2",
"=  c #007814A67C3D",
"-  c #00E91EA47D49",
";  c #0CFE25E472EB",
":  c #019D2C887FBD",
">  c #0DF02D8A7AE2",
",  c #180F3D8E7D64",
"<  c #4212042C4334",
"1  c #198340327C58",
"2  c #99AE00000000",
"3  c #8206026118B7",
"4  c #869C07DD1D37",
"5  c #000B0D1982D6",
"6  c #00B30E298E54",
"7  c #019318C4841A",
"8  c #087F1F86813A",
"9  c #00EE126689DD",
"0  c #00B4197988CE",
"q  c #08B81F2988C9",
"w  c #031E12419685",
"e  c #01F21995946D",
"r  c #082A1E559817",
"t  c #046D14B39CB4",
"y  c #0140212282EB",
"u  c #01A92D38834D",
"i  c #0CD32C098566",
"p  c #016B26608EEF",
"a  c #0868218E8D83",
"s  c #01F72DA88BD8",
"d  c #01FB3562871B",
"f  c #020F32D9892A",
"g  c #02483B45890C",
"h  c #125637AA86E4",
"j  c #15493D2F8355",
"k  c #04A121349501",
"l  c #0D2128FF9060",
"z  c #065B24D398E0",
"x  c #0A4C274F992B",
"c  c #04C12D959DBE",
"v  c #0FBA2F639BF1",
"b  c #01FC322A91C7",
"n  c #030032AC9CE9",
"m  c #02863B2398F6",
"M  c #17D93ED1914D",
"N  c #12FD35699C32",
"B  c #05C026DEA196",
"V  c #0CC11FD7A272",
"C  c #0E5C28DCA1E4",
"Z  c #0CF02742A88E",
"A  c #0FEF22D5A5A2",
"S  c #10392D7FA29E",
"D  c #18612E86ACB3",
"F  c #039334D1A18A",
"G  c #03A33A8EA464",
"H  c #0E0932B3ABB5",
"J  c #04F23F29A8C5",
"K  c #11F7308DA04B",
"L  c #15713426AFFE",
"P  c #1D6F333BB030",
"I  c #1DB937FBB3F2",
"U  c #2210379FB2E6",
"Y  c #27C5352FB337",
"T  c #26B93A6CB45A",
"R  c #28F03BDBB615",
"E  c #02AB425B8AB2",
"W  c #030D4A148E1A",
"Q  c #16713FE9879C",
"!  c #1E4D4B8D8B07",
"~  c #033341E49356",
"^  c #03594C709267",
"/  c #02E1428B9F22",
"(  c #03AB4C9A9B6F",
")  c #03F751549D15",
"_  c #1FE04E36838A",
"`  c #2194519683F3",
"'  c #23F6573A89AB",
"]  c #252A5A188E6B",
"[  c #22A9559496DE",
"{  c #26945D719415",
"}  c #228655839B51",
"|  c #27565F609825",
" . c #28D562DD9D70",
".. c #036040C6A55B",
"X. c #042F4724AA8C",
"o. c #04D24E7BAD8C",
"O. c #1A914363A2F5",
"+. c #1DF24B0BACE6",
"@. c #040754F0A40C",
"#. c #042457B4A8C3",
"$. c #045858C4AAF2",
"%. c #055F558CB176",
"&. c #05E65E25B505",
"*. c #20124F89A576",
"=. c #25305BDBA0F1",
"-. c #235755A4AAE0",
";. c #26F65DC7AD60",
":. c #20434463B80F",
">. c #2E643FC2B7FE",
",. c #237B4E41B37F",
"<. c #28A644FCB851",
"1. c #35AD4254B9AE",
"2. c #397246A8BC25",
"3. c #37AC4B16BE96",
"4. c #219750F7B2B4",
"5. c #2B665E92BB9C",
"6. c #06966063B7B2",
"7. c #075A61A4B9B1",
"8. c #091463AABC9B",
"9. c #2A466664A284",
"0. c #2B5B68F9A71C",
"q. c #2A2B66DDA9D6",
"w. c #2C8F6B8AAB86",
"e. c #2A1E65ECB18A",
"r. c #2E706F66B0F1",
"t. c #2F3870BAB340",
"y. c #305272AAB5DD",
"u. c #328075D2BAD5",
"i. c #34CB7930BE30",
"p. c #3A934C03C276",
"a. c #2C885603C0E5",
"s. c #33E652EEC23F",
"d. c #39EE5243C375",
"f. c #36F15DD8C7E9",
"g. c #0C576713C1E7",
"h. c #0E01699FC32B",
"j. c #11B76D6AC6D8",
"k. c #13E26F2BC84C",
"l. c #1E1C6FE9CEA8",
"z. c #14C470B4CA29",
"x. c #1BF0762DCDEB",
"c. c #1F287895CFEB",
"v. c #1E237876D056",
"b. c #31816D30C19A",
"n. c #37D669F5C32E",
"m. c #3610698CCDAE",
"M. c #25817144CD7C",
"N. c #362E7B9FC154",
"B. c #39397E45C3C6",
"V. c #3B5D7C21C9E8",
"C. c #2EE76FDCD08F",
"Z. c #25077D54D36B",
"A. c #463D51D3C11B",
"S. c #477E595BC50A",
"D. c #50E95F31C6FB",
"F. c #472D68E4CCBC",
"G. c #55AA607CC738",
"H. c #585F649BC905",
"J. c #547F6C40CD53",
"K. c #5B0B6A69CB59",
"L. c #411F7E3CCDBF",
"P. c #5EA374AFCF70",
"I. c #454772D4D0F3",
"U. c #44CD79CAD52C",
"Y. c #538C7FF4D754",
"T. c #5AB37FEED33B",
"R. c #60776AACCB3B",
"E. c #626D79ECD317",
"W. c #6B117AB6D211",
"Q. c #3C258123C6D5",
"!. c #3D968360C944",
"~. c #2625804ED6AD",
"^. c #2C6782FBD753",
"/. c #312D85BCD815",
"(. c #30EE8635D918",
"). c #34A28A00DC75",
"_. c #3A8F8A87DC03",
"`. c #3EE590E3DF64",
"'. c #412485E7CBB1",
"]. c #44328966CEDF",
"[. c #49338BE6CF47",
"{. c #4603823ED068",
"}. c #4B108D33D280",
"|. c #404383B7DA20",
" X c #5545880BD57F",
".X c #509E8F11DED6",
"XX c #4239917BDEA3",
"oX c #521993C6D62F",
"OX c #596F9652DA80",
"+X c #5C229B9FDB04",
"@X c #6DB68255D5F5",
"#X c #62C78886D713",
"$X c #79698A29D7E2",
"%X c #7A598C3AD8A9",
"&X c #62479368DFC2",
"*X c #62479845DC91",
"=X c #78D69443DC3B",
"-X c #6676A1A3DD7E",
";X c #6947A3B4DEBA",
":X c #498195ABE220",
">X c #4D5D9989E2F6",
",X c #53789D8EE4AF",
"<X c #5A299D70E527",
"1X c #726C98BCE0C7",
"2X c #6C96A739E4D1",
"3X c #6EEEA995E31E",
"4X c #6621A90DE91B",
"5X c #6C06ACF9EAD3",
"6X c #70F5A5CEE72D",
"7X c #7064A9C2E2C1",
"8X c #7C42AAF1E6D0",
"9X c #8187A267E1B6",
"0X c #8099B15AE743",
"qX c #88F7B9BCEA17",
"wX c #912AB3AEE83A",
"eX c #90D8B555E8E5",
"rX c #9713BBF4EB6D",
"tX c None",
/* pixels */
"tXtXtXtXtXtXtXtXtXtXtXtXtXtXtXtXtXtXtXtXtXtXtXtXtXtXtXtXtXtXtXtXtXtXtXtXtXtXtXtXtXtXtXtXtXtXtXtXtXtXtXtXtXtXtXtXtXtXtXtXtXtXtXtX",
"tXtXtXtXtXtXtXtXtXtXtXtXtXtXtXtXtXtXtXtXtXtXtXtXtXtXtXtXtXtXtXtXtXtXtXtXtXtXtXtXtXtXtXtXtXtXtXtXtXtXtXtXtXtXtXtXtXtXtXtXtXtXtXtX",
"tXtXtXtXtXtXtXtXtXtXtXtXtXtXtXtXtXtXtXtXtXtXtXtXtXtXtXtXtXtXtXtXtXtXtXtXtXtXtXtXtXtXtXtXtXtXtXtXtXtXtXtXtXtXtXtXtXtXtXtXtXtXtXtX",
"tXtXtXtXtXtXtXtXtXtXtXtXtXtXtXtXtXtXtXtXtXtXtXtXtXtXtXtXtXtXtXtXtXtXtXtXtXtXtXtXtXtXtXtXtXtXtXtXtXtXtXtXtXtXtXtXtXtXtXtXtXtXtXtX",
"tXtXtXtXtXtXtXtXtXtXtXtXtXtXtXtXtXtXtXtXtXtXtXtXtXtXtXtXtXtXtXtXtXtXtXtXtXtXtXtXtXtXtXtXtXtXtXtXtXtXtXtXtXtXtXtXtXtXtXtXtXtXtXtX",
"tXtXtXtXtXtXtXtXtXtXtXtXtXtXtXtXtXtXtXtXtXtXtXtXtXtXtXtXtXtXtXtXtXtXtXtXtXtXtXtXtXtXtXtXtXtXtXtXtXtXtXtXtXtXtXtXtXtXtXtXtXtXtXtX",
"tXtXtXtXtXtXtXtXtXtXtXtXtXtXtXtXtXtXtXtXtXtXtXtXtXtXtXtXtXtXtXtXtXtXtXtXtXtXtXtXtXtXtXtXtXtXtXtXtXtXtXtXtXtXtXtXtXtXtXtXtXtXtXtX",
"tXtXtXtXtXtXtXtXtXtXtXtXtXtXtXtXtXtXtXtXtXtXtXtXtXtXtXtXtXtXtXtXtXtXtXtXtXtXtXtXtXtXtXtXtXtXtXtXtXtXtXtXtXtXtXtXtXtXtXtXtXtXtXtX",
"tXtXtXtXtXtXtXtXtXtXtXtXtXtXtXtXtXtXtXtXtXtXtXtXtXtXtXtXtXtXtXtXtXtXtXtXtXtXtXtXtXtXtXtXtXtXtXtXtXtXtXtXtXtXtXtXtXtXtXtXtXtXtXtX",
"tXtXtXtXtXtXtXtXtXtXtXtXtXtXtXtXtXtXtXtXtXtXtXtXtXtXtXtXtXtXtXtXtXtXtXtXtXtXtXtXtXtXtXtXtXtXtXtXtXtXtXtXtXtXtXtXtXtXtXtXtXtXtXtX",
"tXtXtXtXtXtXtXtXtXtXtXtXtXtXtXtXtXtXtXtXtXtXtXtXtXtXtXtXtXtXtXtXtXtXtXtXtXtXtXtXtXtXtXtXtXtXtXtXtXtXtXtXtXtXtXtXtXtXtXtXtXtXtXtX",
"tXtXtXtXtXtXtXtXtXtXtXtXtXtXtXtXtXtXtXtXtXtXtXtXtXtXtXtXtXtXtXtXtXtXtXtXtXtXtXtXtXtXtXtXtXtXtXtXtXtXtXtXtXtXtXtXtXtXtXtXtXtXtXtX",
"tXtXtXtXtXtXtXtXtXtXtXtXtXtXtXtXtXtXtXtXtXtXtXtXtXtXtXtXtXtXtXtXtXtXtXtXtXtXtXtXtXtXtXtXtXtXtXtXtXtXtXtXtXtXtXtXtXtXtXtXtXtXtXtX",
"tXtXtXtXtXtXtXtXtXtXtXtXtXtXtXtXtXtXtXtXtXtXtXtXtXtXtXtXtXtXtXtXtXtXtXtXtXtXtXtXtXtXtXtXtXtXtXtXtXtXtXtXtXtXtXtXtXtXtXtXtXtXtXtX",
"tXtXtXtXtXtXtXtXtXtXtXtXtXtXtXtXtXtXtXtXtXtXtXtXtXtXtXtXtXtXtXtXtXtXtXtXtXtXtXtXtXtXtXtXtXtXtXtXtXtXtXtXtXtXtXtXtXtXtXtXtXtXtXtX",
"tXtXtXtXtXtXtXtXtXtXtXtXtXtXtXtXtXtXtXtXtXtXtXtXtXtXtXtXtXtXtXtXtXtXtXtXtXtXtXtXtXtXtXtXtXtXtXtXtXtXtXtXtXtXtXtXtXtXtXtXtXtXtXtX",
"tXtXtXtXtXtXtXtXtXtXtXtXtXtXtXtXtXtXtXtXtXtXtXtXtXtXtXtXtXtXtXtXtXtXtXtXtXtXtXtXtXtXtXtXtXtXtXtXtXtXtXtXtXtXtXtXtXtXtXtXtXtXtXtX",
"tXtXtXtXtXtXtXtXtXtXtXtXtXtXtXtXtXtXtXtXtXtXtXtXtXtXtXtXtXtXtXtXtXtXtXtXtXtXtXtXtXtXtXtXtXtXtXtXtXtXtXtXtXtXtXtXtXtXtXtXtXtXtXtX",
"tXtXtXtXtXtXtXtXtXtXtXtXtXtXtXtXtXtXtXtXtXtXtXtXtXtXtXtXtXtXtXtXtXtXtXtXtXtXtXtXtXtXtXtXtXtXtXtXtXtXtXtXtXtXtXtXtXtXtXtXtXtXtXtX",
"tXtXtXtXtXtXtXtXtXtXtXtXtXtXtXtXtXtXtXtXtXtXtXtXtXtXtXtX1.>.R U P D A t tXtXtXtXtXtXtXtXtXtXtXtXtXtXtXtXtXtXtXtXtXtXtXtXtXtXtXtX",
"tXtXtXtXtXtXtXtXtXtXtXtXtXtXtXtXtXtXtXtXtXtXtXtXtXtXG.K.T. X}.{.L.V.b.,.C w tXtXtXtXtXtXtXtXtXtXtXtXtXtXtXtXtXtXtXtXtXtXtXtXtXtX",
"tXtXtXtXtXtXtXtXtXtXtXtXtXtXtXtXtXtXtXtXtXtXtXtXtXW.=X8X3X+XoX}.].'.!.B.u.+.r 6 tXtXtXtXtXtXtXtXtXtXtXtXtXtXtXtXtXtXtXtXtXtXtXtX",
"tXtXtXtXtXtXtXtXtX2 tXtXtXtXtXtXtXtXtXtXtXtXtXR.$XeXqX7XOX}.'.!.Q.B.B.N.i.u.e.N 6 tXtXtXtXtXtXtXtXtXtXtXtXtX2 tXtXtXtXtXtXtXtXtX",
"tXtXtXtXtXtXtXtX2 2 tXtXtXtXtXtXtXtXtXtXtXtXtX%XrXqX;XoX'.B.i.i.i.i.i.u.u.u.y.w.N 9 tXtXtXtXtXtXtXtXtXtXtXtX2 2 tXtXtXtXtXtXtXtX",
"tXtXtXtXtXtXtXtX2 2 tXtXtXtXtXtXtXtXtXtXtXtXW.wXqX-X[.B.i.u.u.y.y.y.y.y.y.y.t.r.q.l 5 tXtXtXtXtXtXtXtXtXtXtX2 2 2 tXtXtXtXtXtXtX",
"tXtXtXtXtXtXtX2 2 2 tXtXtXtXtXtXtXtXtXtXtXH.9XqX;X[.B.u.u.y.y.y.y.y.y.y.y.y.t.r.w.=.q tXtXtXtXtXtXtXtXtXtXtX2 2 2 2 tXtXtXtXtXtX",
"tXtXtXtXtXtX2 2 2 2 2 2 2 2 2 2 2 2 2 tXtXP.0X3X}.B.u.y.y.y.y.y.y.y.y.y.y.y.y.r.w.9.M 5 tX2 2 2 2 2 2 2 2 2 2 2 2 2 tXtXtXtXtXtX",
"tXtXtXtXtX2 2 2 2 2 2 2 2 2 2 2 2 2 2 tXp.#X7XOX!.i.y.y.y.y.y.y.y.y.y.y.y.y.y.r.w.9.[ 7 tX2 2 2 2 2 2 2 2 2 2 2 2 2 2 tXtXtXtXtX",
"tXtXtXtX2 2 2 2 2 2 2 2 2 2 2 2 2 2 2 4 d.*X+X[.N.u.y.y.y.y.y.y.y.y.y.y.y.y.y.r.w.9.| i < 2 2 2 2 2 2 2 2 2 2 2 2 2 2 2 tXtXtXtX",
"tXtXtX2 2 2 2 2 2 2 2 2 2 2 2 2 2 2 2 . s.OXoX'.i.y.y.y.y.y.y.y.y.y.y.y.y.y.y.t.w. .| h + 2 2 2 2 2 2 2 2 2 2 2 2 2 2 2 2 tXtXtX",
"tXtX2 2 2 2 2 2 2 2 2 2 2 2 2 2 2 2 2 o s.oX}.Q.u.y.y.y.y.y.y.y.y.y.y.y.y.y.y.t.w. .{ Q @ 2 2 2 2 2 2 2 2 2 2 2 2 2 2 2 2 2 tXtX",
"tXtX2 2 2 2 2 2 2 2 2 2 2 2 2 2 2 2 2 o a.}.].B.u.y.y.y.y.y.y.y.y.y.y.y.y.y.y.r.w. .{ j @ 2 2 2 2 2 2 2 2 2 2 2 2 2 2 2 2 2 2 tX",
"tXtX2 2 2 2 2 2 2 2 2 2 2 2 2 2 2 2 2 X :.'.!.N.u.y.y.y.y.y.y.y.y.y.y.y.y.y.y.r.0. .] j @ 2 2 2 2 2 2 2 2 2 2 2 2 2 2 2 2 2 tXtX",
"tXtXtX2 2 2 2 2 2 2 2 2 2 2 2 2 2 2 2   L V.Q.N.u.y.y.y.y.y.y.y.y.y.y.y.y.y.t.w.9.{ ' > O 2 2 2 2 2 2 2 2 2 2 2 2 2 2 2 2 tXtXtX",
"tXtXtXtX2 2 2 2 2 2 2 2 2 2 2 2 2 2 2 3 Z b.B.i.u.y.y.y.y.y.y.y.y.y.y.y.y.y.t.w. .] _ * tX2 2 2 2 2 2 2 2 2 2 2 2 2 2 2 tXtXtXtX",
"tXtXtXtXtX2 2 2 2 2 2 2 2 2 2 2 2 2 2 tXt 4.N.i.u.y.y.y.y.y.y.y.y.y.y.y.y.t.w.0.| ' 1 # tX2 2 2 2 2 2 2 2 2 2 2 2 2 2 tXtXtXtXtX",
"tXtXtXtXtXtX2 2 2 2 2 tXtXtXtXtXtXtXtXtXtXS u.i.u.u.y.y.y.y.y.y.y.y.y.y.y.t.w. .{ ` ; # tXtXtXtXtXtXtXtXtXtX2 2 2 2 tXtXtXtXtXtX",
"tXtXtXtXtXtXtX2 2 2 tXtXtXtXtXtXtXtXtXtXtXw +.N.i.i.u.y.y.y.y.y.y.y.y.y.y.r.0. .] , # tXtXtXtXtXtXtXtXtXtXtX2 2 2 tXtXtXtXtXtXtX",
"tXtXtXtXtXtXtXtX2 2 tXtXtXtXtXtXtXtXtXtXtXtXV 5.Q.N.u.y.y.y.y.y.y.y.y.y.y.r.0. .! * tXtXtXtXtXtXtXtXtXtXtXtX2 2 tXtXtXtXtXtXtXtX",
"tXtXtXtXtXtXtXtXtX2 tXtXtXtXtXtXtXtXtXtXtXtXY T n.Q.i.y.y.y.y.y.y.y.y.y.y.r.w.} 8 % tXtXtXtXtXtXtXtXtXtXtXtX2 tXtXtXtXtXtXtXtXtX",
"tXtXtXtXtXtXtXtXtXtXtXtXtXtXtXtXtXtXtXtXtXG.J.I.<.,.u.u.y.y.y.y.y.y.y.y.y.t.*.a b m 0 tXtXtXtXtXtXtXtXtXtXtXtXtXtXtXtXtXtXtXtXtX",
"tXtXtXtXtXtXtXtXtXtXtXtXtXtXtXtXtXtXtXtXtX@X6X,XM.H K -.e.y.y.y.y.y.y.t.;.O.k ..$.$./ 9 tXtXtXtXtXtXtXtXtXtXtXtXtXtXtXtXtXtXtXtX",
"tXtXtXtXtXtXtXtXtXtXtXtXtXtXtXtXtXtXtXtXW.8X4X_.z.8.J c x N O.-.;.*.O.v z n o.&.&.$.$.m 5 tXtXtXtXtXtXtXtXtXtXtXtXtXtXtXtXtXtXtX",
"tXtXtXtXtXtXtXtXtXtXtXtXtXtXtXtXtXtXtXK.1X5XXXc.h.7.6.&.o...F c c c G X.%.&.&.&.&.&.$.@.p 5 tXtXtXtXtXtXtXtXtXtXtXtXtXtXtXtXtXtX",
"tXtXtXtXtXtXtXtXtXtXtXtXtXtXtXtXtXtXtXE.2X>XZ.h.8.6.&.&.&.&.&.&.&.&.&.&.&.&.&.&.&.&.$.#.( 7 tXtXtXtXtXtXtXtXtXtXtXtXtXtXtXtXtXtX",
"tXtXtXtXtXtXtXtXtXtXtXtXtXtXtXtXtXtXD.&X<X/.k.8.6.&.&.&.&.&.&.&.&.&.&.&.&.&.&.&.&.&.$.#.@.b 5 tXtXtXtXtXtXtXtXtXtXtXtXtXtXtXtXtX",
"tXtXtXtXtXtXtXtXtXtXtXtXtXtXtXtXtXtXJ.<XXXx.g.7.&.&.&.&.&.&.&.&.&.&.&.&.&.&.&.&.&.&.&.$.@.( 7 tXtXtXtXtXtXtXtXtXtXtXtXtXtXtXtXtX",
"tXtXtXtXtXtXtXtXtXtXtXtXtXtXtXtXtXA.Y.>X^.j.8.6.&.&.&.&.&.&.&.&.&.&.&.&.&.&.&.&.&.&.&.$.#.) s % tXtXtXtXtXtXtXtXtXtXtXtXtXtXtXtX",
"tXtXtXtXtXtXtXtXtXtXtXtXtXtXtXtXtXS..X`.c.g.7.&.&.&.&.&.&.&.&.&.&.&.&.&.&.&.&.&.&.&.&.$.#.@.~ = tXtXtXtXtXtXtXtXtXtXtXtXtXtXtXtX",
"tXtXtXtXtXtXtXtXtXtXtXtXtXtXtXtXtXF.:X(.z.8.6.&.&.&.&.&.&.&.&.&.&.&.&.&.&.&.&.&.&.&.&.&.$.@.( y tXtXtXtXtXtXtXtXtXtXtXtXtXtXtXtX",
"tXtXtXtXtXtXtXtXtXtXtXtXtXtXtXtX2.U.`.Z.h.7.&.&.&.&.&.&.&.&.&.&.&.&.&.&.&.&.&.&.&.&.&.&.$.@.) f % tXtXtXtXtXtXtXtXtXtXtXtXtXtXtX",
"tXtXtXtXtXtXtXtXtXtXtXtXtXtXtXtX3.|.).x.g.7.&.&.&.&.&.&.&.&.&.&.&.&.&.&.&.&.&.&.&.&.&.&.$.#.) ~ = tXtXtXtXtXtXtXtXtXtXtXtXtXtXtX",
"tXtXtXtXtXtXtXtXtXtXtXtXtXtXtXtXs._.^.z.8.6.&.&.&.&.&.&.&.&.&.&.&.&.&.&.&.&.&.&.&.&.&.&.&.#.) ( y tXtXtXtXtXtXtXtXtXtXtXtXtXtXtX",
"tXtXtXtXtXtXtXtXtXtXtXtXtXtXtXtXf.).Z.j.8.&.&.&.&.&.&.&.&.&.&.&.&.&.&.&.&.&.&.&.&.&.&.&.&.$.@.( u tXtXtXtXtXtXtXtXtXtXtXtXtXtXtX",
"tXtXtXtXtXtXtXtXtXtXtXtXtXtXtXtXm.).v.h.7.&.&.&.&.&.&.&.&.&.&.&.&.&.&.&.&.&.&.&.&.&.&.&.&.$.@.( d $ tXtXtXtXtXtXtXtXtXtXtXtXtXtX",
"tXtXtXtXtXtXtXtXtXtXtXtXtXtXtXR C.~.z.8.&.&.&.&.&.&.&.&.&.&.&.&.&.&.&.&.&.&.&.&.&.&.&.&.$.#.) ^ d $ tXtXtXtXtXtXtXtXtXtXtXtXtXtX",
"tXtXtXtXtXtXtXtXtXtXtXtXtXtXtXI l.z.8.&.$.#.#.#.#.#.#.#.#.#.#.#.#.#.#.#.#.#.#.#.#.#.#.#.#.@.) ^ g & tXtXtXtXtXtXtXtXtXtXtXtXtXtX",
"tXtXtXtXtXtXtXtXtXtXtXtXtXtXtXH g.7.$.@.) ) ) ) ) ) ) ) ) ) ) ) ) ) ) ) ) ) ) ) ) ) ) ) ) ( ^ W E = tXtXtXtXtXtXtXtXtXtXtXtXtXtX",
"tXtXtXtXtXtXtXtXtXtXtXtXtXtXtXB &.$.) ^ ^ ^ ^ ^ ^ ^ ^ ^ ^ ^ ^ ^ ^ ^ ^ ^ ^ ^ ^ ^ ^ ^ ^ ^ ^ W W W W - tXtXtXtXtXtXtXtXtXtXtXtXtXtX",
"tXtXtXtXtXtXtXtXtXtXtXtXtXtXtXe n b u u u : : : : : : : : : : : : : : : : : : : : : : : : : : : u = tXtXtXtXtXtXtXtXtXtXtXtXtXtX",
"tXtXtXtXtXtXtXtXtXtXtXtXtXtXtXtXtXtXtXtXtXtXtXtXtXtXtXtXtXtXtXtXtXtXtXtXtXtXtXtXtXtXtXtXtXtXtXtXtXtXtXtXtXtXtXtXtXtXtXtXtXtXtXtX",
"tXtXtXtXtXtXtXtXtXtXtXtXtXtXtXtXtXtXtXtXtXtXtXtXtXtXtXtXtXtXtXtXtXtXtXtXtXtXtXtXtXtXtXtXtXtXtXtXtXtXtXtXtXtXtXtXtXtXtXtXtXtXtXtX",
"tXtXtXtXtXtXtXtXtXtXtXtXtXtXtXtXtXtXtXtXtXtXtXtXtXtXtXtXtXtXtXtXtXtXtXtXtXtXtXtXtXtXtXtXtXtXtXtXtXtXtXtXtXtXtXtXtXtXtXtXtXtXtXtX",
"tXtXtXtXtXtXtXtXtXtXtXtXtXtXtXtXtXtXtXtXtXtXtXtXtXtXtXtXtXtXtXtXtXtXtXtXtXtXtXtXtXtXtXtXtXtXtXtXtXtXtXtXtXtXtXtXtXtXtXtXtXtXtXtX"
};
