/* XPM */
static char * usermovev64[] = {
"64 64 227 2",
"  	c None",
". 	c #FFFFFF",
"+ 	c #FDE7E1",
"@ 	c #F7A084",
"# 	c #FFFBFA",
"$ 	c #FFFFFE",
"% 	c #FABEAC",
"& 	c #EC3218",
"* 	c #EB2B13",
"= 	c #F04E31",
"- 	c #FDEAE4",
"; 	c #FEF7F5",
"> 	c #F47152",
", 	c #EB3118",
"' 	c #F9B29D",
") 	c #FFFEFE",
"! 	c #FCD7CC",
"~ 	c #EE3D21",
"{ 	c #F36848",
"] 	c #FEF5F2",
"^ 	c #FFFCFC",
"/ 	c #F69071",
"( 	c #ED391E",
"_ 	c #FBCFC1",
": 	c #F04E30",
"< 	c #F58868",
"[ 	c #F9B29B",
"} 	c #EF4729",
"| 	c #FDE4DC",
"1 	c #F26647",
"2 	c #EB2D14",
"3 	c #F8AA90",
"4 	c #FBCEBF",
"5 	c #F25B3D",
"6 	c #FEF2EF",
"7 	c #EC351A",
"8 	c #FAC8B8",
"9 	c #EE3B20",
"0 	c #F46F4E",
"a 	c #F36D4D",
"b 	c #F15639",
"c 	c #FDEBE5",
"d 	c #EF472A",
"e 	c #FBCCBD",
"f 	c #EC3319",
"g 	c #EB3016",
"h 	c #EB2C14",
"i 	c #F8A58A",
"j 	c #FFFEFD",
"k 	c #EE4124",
"l 	c #FEF4F0",
"m 	c #F26242",
"n 	c #EB3017",
"o 	c #EF482B",
"p 	c #FDE3DB",
"q 	c #F9B5A0",
"r 	c #EB2F15",
"s 	c #F68E6D",
"t 	c #FFFCFB",
"u 	c #EE4528",
"v 	c #FDEBE6",
"w 	c #F05233",
"x 	c #FCD6CA",
"y 	c #FEF6F4",
"z 	c #FDE8E2",
"A 	c #FFFAF9",
"B 	c #FFFDFC",
"C 	c #F79E82",
"D 	c #F15A3B",
"E 	c #FEF8F6",
"F 	c #F0F8FD",
"G 	c #C4E2F6",
"H 	c #ACD5F2",
"I 	c #A9D3F1",
"J 	c #ADD6F2",
"K 	c #CAE5F6",
"L 	c #F6FAFE",
"M 	c #FCDED4",
"N 	c #F6FBFE",
"O 	c #8AC5EC",
"P 	c #2B80D6",
"Q 	c #1B6BCF",
"R 	c #1564CD",
"S 	c #1562CC",
"T 	c #1664CD",
"U 	c #1D6FD0",
"V 	c #3186DA",
"W 	c #A0D0F0",
"X 	c #FBFDFE",
"Y 	c #EAF5FC",
"Z 	c #378EDB",
"` 	c #196ACE",
" .	c #1B6DCF",
"..	c #1C6DD0",
"+.	c #1C6FD0",
"@.	c #1768CD",
"#.	c #489EE0",
"$.	c #F4FAFD",
"%.	c #F2F9FD",
"&.	c #3186D9",
"*.	c #1664CC",
"=.	c #1462CC",
"-.	c #459BDF",
";.	c #FAFCFE",
">.	c #FEFFFF",
",.	c #52A5E3",
"'.	c #1564CC",
").	c #1E71D0",
"!.	c #1464CC",
"~.	c #84C2EB",
"{.	c #CFE7F7",
"].	c #1866CE",
"^.	c #1C6DCF",
"/.	c #EBF5FC",
"(.	c #61AFE6",
"_.	c #196ACF",
":.	c #1968CE",
"<.	c #8EC9EE",
"[.	c #F8FCFE",
"}.	c #3188D9",
"|.	c #1A6BCF",
"1.	c #4EA2E1",
"2.	c #FEFEFF",
"3.	c #EDF6FC",
"4.	c #2479D4",
"5.	c #358CDA",
"6.	c #F9FCFE",
"7.	c #E6F2FB",
"8.	c #2379D4",
"9.	c #3186D7",
"0.	c #F7FCFE",
"a.	c #267DD5",
"b.	c #3A90DB",
"c.	c #FAFDFE",
"d.	c #FCFDFE",
"e.	c #3D94DD",
"f.	c #5BACE5",
"g.	c #86C4EC",
"h.	c #1868CE",
"i.	c #B5DBF3",
"j.	c #196BCE",
"k.	c #2A7FD6",
"l.	c #95CCEE",
"m.	c #BEDFF4",
"n.	c #6AB5E7",
"o.	c #90C9EE",
"p.	c #FFFBFB",
"q.	c #FDFEFF",
"r.	c #1866CD",
"s.	c #2579D4",
"t.	c #ACD6F2",
"u.	c #E1F0FA",
"v.	c #6DB7E8",
"w.	c #297FD6",
"x.	c #1E6FD0",
"y.	c #3084D9",
"z.	c #82C2EB",
"A.	c #E0F0FA",
"B.	c #D4EBF8",
"C.	c #E4F2FB",
"D.	c #FFF6F3",
"E.	c #FDE6DF",
"F.	c #FFFDFD",
"G.	c #FFF7F5",
"H.	c #EF4629",
"I.	c #EF4427",
"J.	c #FEF1EE",
"K.	c #FCDDD5",
"L.	c #F7FBFE",
"M.	c #F1F8FD",
"N.	c #267BD4",
"O.	c #D5EBF8",
"P.	c #7BBEEB",
"Q.	c #4B9EE0",
"R.	c #75BBE9",
"S.	c #E6F3FB",
"T.	c #3086D9",
"U.	c #287DD5",
"V.	c #A4D3F0",
"W.	c #E2F0FA",
"X.	c #CFE8F7",
"Y.	c #2275D3",
"Z.	c #DEEFFA",
"`.	c #8AC6EC",
" +	c #1766CD",
".+	c #F2F8FD",
"++	c #4DA2E1",
"@+	c #1F71D2",
"#+	c #CDE6F7",
"$+	c #84C2EC",
"%+	c #1666CD",
"&+	c #4197DE",
"*+	c #EEF6FC",
"=+	c #D7EBF9",
"-+	c #1D71D0",
";+	c #CAE6F7",
">+	c #BBDEF4",
",+	c #D6EBF8",
"'+	c #73BAE9",
")+	c #2277D3",
"!+	c #479DDF",
"~+	c #1768CE",
"{+	c #64B1E6",
"]+	c #52A5E2",
"^+	c #8AC6ED",
"/+	c #D3E9F8",
"(+	c #1968CD",
"_+	c #1E71D2",
":+	c #CCE6F7",
"<+	c #3086D7",
"[+	c #2377D3",
"}+	c #1461CC",
"|+	c #135FCA",
"1+	c #125FC9",
"2+	c #368EDB",
"3+	c #F6FAFD",
"4+	c #DCEEFA",
"5+	c #C1E0F5",
"6+	c #B1D9F3",
"7+	c #A9D4F1",
"8+	c #9ED0F0",
"9+	c #9BCEF0",
"0+	c #9BCEEF",
"a+	c #A2D0F0",
"b+	c #B5DAF4",
"c+	c #C8E4F6",
"d+	c #E4F2FA",
"                                                                                                                                ",
"                                                                                                                                ",
"                                                            . . .                                                               ",
"                                                        . . . . . .                                                             ",
"                                                      . . . + @ # . . .                                                         ",
"                                                  . . . $ % & * = - . . .                                                       ",
"                                                . . . ; > * * * * , ' ) . . .                                                   ",
"                                              . . . ! ~ * * * * * * * { ] . . .                                                 ",
"                                          . . . ^ / * * * * * * * * * * ( _ . . .                                               ",
"                                        . . . - : * * * * * * * * * * * * * < # . . .                                           ",
"                                    . . . ) [ , * * * * * * * * * * * * * * * } | . . .                                         ",
"                                  . . . ] 1 * * * * * * * * * * * * * * * * * * 2 3 ) . . .                                     ",
"                                . . . 4 ( * * * * * * * * * * * * * * * * * * * * * 5 6 . . .                                   ",
"                                . . < * * * * * * * * * * * * * * * * * * * * * * * * 7 8 . .                                   ",
"                                . . * * * * * * * * 9 0 * * * * * * 9 a * * * * * * * * 2 . .                                   ",
"                                . . * * * * * * * b ] c * * * * * * d ) e f * * * * * * g . .                                   ",
"                                . . * * * * * h i j . | * * * * * * k ) . l m * * * * * n . .                                   ",
"                                . . * * * * o p . . . p * * * * * * k ) . . ) q r * * * n . .                                   ",
"                                . . * * * s t . . . . p * * * * * * u ) . . . . v w * * n . .                                   ",
"                                . . * 9 x . . . . . . y z t . . . A + $ . . . . . B C * 2 . .                                   ",
"                                . . D E . . . .   . . . F G H I J K L . . . . . . . . M } . .                                   ",
"                                . . j . . . .   . . N O P Q R S T U V W X . .   . . . . A . .                                   ",
"                                . . . . . .   . . Y Z T `  ...+... .` @.#.$.. .   . . . . . .                                   ",
"                                  . . .     . . %.&.*.U U U U U U U U U =.-.;..       . . .                                     ",
"                                            . >.,.'.).U U U U U U U U U U !.~.. .                                               ",
"                                          . . {.].U U U U U U U U U U U U ..^./..                                               ",
"                                          . . (._.U U U U U U U U U U U U U :.<.. .                                             ",
"                                          . [.}.|.U U U U U U U U U U U U U |.1.2..                                             ",
"                                          . 3.4.Q U U U U U U U U U U U U U |.5.6..                                             ",
"                                          . 7.8.Q U U U U U U U U U U U U U |.9.0..                                             ",
"                                          . F a.Q U U U U U U U U U U U U U |.b.c..                                             ",
"                                          . d.e.|.U U U U U U U U U U U U U |.f.. .                                             ",
"                                          . . g._.U U U U U U U U U U U U U h.i.. .                                             ",
"                                          . . Y ^...U U U U U U U U U U U j.k.[.. .                                             ",
"                                  . .       . . l.=. .U U U U U U U U U |.R m.. .         .                                     ",
"                                . . j .     . . d.n.=.|.U U U U U U U :.=.o.>..       . p.. .                                   ",
"                                . . . ) .     . . q.o.^.h.^.+.+.+. .r.s.t.>.. .   . . B . . .                                   ",
"                                . . j . ^ .     . . . u.v.w.x.U U y.z.3.. . .   . j . . A . .                                   ",
"                                . . D E . . j . . . . . . 0.A.B.C.X . . . . . . A . . M } . .                                   ",
"                                . . * 9 x . . D.. . . E.* * * * * * k $ . . . F.. B C * 2 . .                                   ",
"                                . . * * * s t . G.. . E.* * * * * * H.) . F.. . v w * * n . .                                   ",
"                                . . * * * * o p . p.. F.* * * * * * I.. . . ) q r * * * n . .                                   ",
"                                . . * * * * * h i j . J.* * * * * * 9 K.. l m * * * * * n . .                                   ",
"                                . . * * * * * * * b ] c * * * * * * d ) e f * * * * * * g . .                                   ",
"                                . . * * * * * * * * 9 0 * * * * * * 9 a * * * * * * * * 2 . .                                   ",
"                                . . < * * * * * * * * * * * * * * * * * * * * * * * * 7 8 . .                                   ",
"                                . . . 4 ( * * * * * * * * * * * * * * * * * * * * * 5 6 . .                                     ",
"                                  . . . ] 1 * * * * * * * * * * * * * * * * * * 2 3 ) . . .                                     ",
"                                  . . L.. ) [ , * * * * * * * * * * * * * * * } | . . $.. .                                     ",
"                                  . M.N.O.. . - : * * * * * * * * * * * * * < # . q.P.Q.>..                                     ",
"                                  . K ). .R.c.. ^ / * * * * * * * * * * ( _ . . S.T.|.U.$..                                     ",
"                                  . V.` ..U U.W.. . ! ~ * * * * * * * { ] . . X.U U  .Y.Z..                                     ",
"                                  . `. +U U U U X.. . ; > * * * * , ' ) . .+++U U U  .@+#+.                                     ",
"                                  . $+%+U U U U U &+*+. $ % & * = - . . =+U U U U U  .-+;+.                                     ",
"                                  . >+:...U U U U U U ,+. . + @ # . c.'+U U U U U U  .)+3..                                     ",
"                                  . d.!+~+U U U U U U U {+d.. . . S.U.U U U U U U +.R O . .                                     ",
"                                  . . %.]+` :.` |. .....U P ^+/+^+U +...^. .|.:.(+_+^+2..                                       ",
"                                    . . 2.:+f.<+[+|. +S }+|+|+1+|+|+}+R h...N.2+R.W.. .                                         ",
"                                      . . . . 3+4+5+6+7+8+9+0+l.9+9+a+H b+c+d+c.. . .                                           ",
"                                            . . . . . . . . . . . . . . . . . . .                                               ",
"                                                                                                                                ",
"                                                                                                                                ",
"                                                                                                                                ",
"                                                                                                                                "};
